<?xml version="1.0" encoding="UTF-8" standalone="no"?>
    <!-- Created with Inkscape (https://labs.original.art.br/draw) -->
    
    <svg
       xmlns:dc="http://purl.org/dc/elements/1.1/"
       xmlns:cc="http://creativecommons.org/ns#"
       xmlns:rdf="http://www.w3.org/1999/02/22-rdf-syntax-ns#"
       xmlns:svg="http://www.w3.org/2000/svg"
       xmlns="http://www.w3.org/2000/svg"
       xmlns:sodipodi="http://sodipodi.sourceforge.net/DTD/sodipodi-0.dtd"
       xmlns:inkscape="http://www.inkscape.org/namespaces/inkscape"
       id="xEADn"
       version="1.1"
       inkscape:version="0.91 r13725"
       width="undefined"
       height="undefined"
       viewBox="0 0 undefined undefined"
       sodipodi:docname="_paths6.svg">
      <metadata
         id="metadata3404">
        <rdf:RDF>
          <cc:Work
             rdf:about="">
            <dc:format>image/svg+xml</dc:format>
            <dc:type
               rdf:resource="http://purl.org/dc/dcmitype/StillImage" />
            <dc:title></dc:title>
          </cc:Work>
        </rdf:RDF>
      </metadata>
      undefined<path fill="none" stroke-width="1" style="stroke: rgb(0, 71, 171);" d="M9.591,500L9.025,498.767C8.459,497.534,7.327,495.069,8.184,491.241C9.041,487.412,11.885,482.221,13.98,478.608C16.074,474.996,17.418,472.961,17.481,470.763C17.545,468.565,16.329,466.205,16.544,462.628C16.758,459.051,18.404,454.257,21.245,453.067C24.086,451.876,28.122,454.288,30.437,454.44C32.751,454.592,33.344,452.484,34.422,451.17C35.501,449.856,37.064,449.336,37.181,449.904C37.297,450.472,35.967,452.129,36.963,451.516C37.959,450.903,41.28,448.021,45.12,446.49C48.959,444.958,53.316,444.776,56.09,446.028C58.865,447.281,60.056,449.967,60.927,449.549C61.798,449.132,62.349,445.609,63.894,444.657C65.439,443.706,67.979,445.325,68.892,446.785C69.806,448.246,69.093,449.547,70.785,449.751C72.477,449.955,76.574,449.061,78.142,447.851C79.711,446.641,78.751,445.115,80.115,445.416C81.48,445.717,85.168,447.845,87.081,449.842C88.994,451.839,89.132,453.705,89.231,454.117C89.33,454.528,89.391,453.485,92.453,452.659C95.514,451.834,101.575,451.225,103.799,450.789C106.023,450.354,104.409,450.091,104.933,450.246C105.457,450.401,108.118,450.974,109.963,451.029C111.808,451.083,112.837,450.618,113.804,450.918C114.772,451.219,115.679,452.284,116.205,450.752C116.73,449.22,116.874,445.091,119.446,443.714C122.019,442.337,127.019,443.712,129.255,445.08C131.491,446.447,130.963,447.807,132.097,448.61C133.231,449.414,136.027,449.662,136.603,448.569C137.18,447.476,135.535,445.043,136.546,445.277C137.556,445.511,141.22,448.413,143.698,449.102C146.177,449.791,147.47,448.266,149.798,447.852C152.126,447.438,155.489,448.134,157.652,448.543C159.815,448.952,160.777,449.074,161.129,449.162C161.482,449.25,161.225,449.305,161.635,449.453C162.046,449.601,163.124,449.841,164.504,449.092C165.883,448.344,167.564,446.607,168.817,446.572C170.069,446.538,170.892,448.206,171.603,449.196C172.314,450.186,172.913,450.496,173.481,450.307C174.05,450.117,174.588,449.427,174.823,449.678C175.058,449.929,174.99,451.122,175.502,451.437C176.014,451.753,177.106,451.191,178.047,452.366C178.987,453.54,179.778,456.45,181.841,455.472C183.905,454.494,187.242,449.63,188.933,447.876C190.624,446.123,190.669,447.482,191.036,447.957C191.404,448.431,192.094,448.021,193.889,447.94C195.684,447.858,198.585,448.105,200.702,447.947C202.819,447.79,204.152,447.227,206.525,447.761C208.898,448.294,212.311,449.924,213.023,449.54C213.734,449.157,211.746,446.759,214.426,446.402C217.106,446.045,224.455,447.727,228.611,449.636C232.768,451.545,233.732,453.679,235.03,453.789C236.328,453.898,237.959,451.983,237.582,450.635C237.205,449.287,234.82,448.506,236.353,447.919C237.885,447.332,243.335,446.939,246.83,447.538C250.325,448.138,251.864,449.728,252.18,448.885C252.496,448.042,251.591,444.764,252.867,444.411C254.144,444.057,257.604,446.626,259.939,448.1C262.273,449.574,263.482,449.951,264.1,449.759C264.718,449.567,264.745,448.805,264.63,448.77C264.515,448.735,264.259,449.426,264.639,449.697C265.019,449.968,266.036,449.818,266.891,448.618C267.746,447.418,268.44,445.168,270.436,445.688C272.432,446.208,275.73,449.497,278.039,450.218C280.349,450.939,281.67,449.092,282.891,448.52C284.112,447.947,285.232,448.649,287.04,449.841C288.848,451.033,291.344,452.715,293.19,452.067C295.037,451.419,296.234,448.44,297.004,447.86C297.774,447.28,298.115,449.098,298.404,449.404C298.693,449.709,298.93,448.502,300.787,449.488C302.644,450.474,306.122,453.653,309.716,454.784C313.31,455.914,317.021,454.994,319.007,453.766C320.994,452.537,321.257,450.999,322.619,451.145C323.98,451.292,326.439,453.122,328.727,453.145C331.015,453.168,333.132,451.384,332.59,450.73C332.047,450.076,328.846,450.553,329.606,449.198C330.365,447.844,335.084,444.657,340.098,444.608C345.112,444.558,350.421,447.647,352.37,448.353C354.319,449.06,352.908,447.385,353.409,445.785C353.911,444.185,356.324,442.662,359.741,444.176C363.157,445.69,367.578,450.243,370.109,450.352C372.64,450.461,373.282,446.127,375.339,446.622C377.397,447.118,380.869,452.444,384.019,454.094C387.168,455.745,389.994,453.72,391.03,453.114C392.065,452.508,391.309,453.321,392.845,452.185C394.382,451.049,398.21,447.963,400.546,447.468C402.883,446.974,403.729,449.07,404.474,449.617C405.219,450.164,405.864,449.163,408.257,448.284C410.65,447.406,414.791,446.651,417.408,446.857C420.026,447.063,421.12,448.228,421.676,448.5C422.232,448.771,422.25,448.149,422.669,448.468C423.087,448.786,423.905,450.045,425.169,451.563C426.432,453.081,428.142,454.858,431.131,454.769C434.121,454.681,438.39,452.727,439.706,452.343C441.022,451.959,439.385,453.145,440.45,452.664C441.515,452.184,445.282,450.037,447.219,449.579C449.156,449.121,449.262,450.352,450.606,450.54C451.95,450.728,454.532,449.874,455.338,450.561C456.144,451.249,455.175,453.477,456.549,453.309C457.923,453.141,461.641,450.577,463.143,450.007C464.644,449.437,463.929,450.862,464.257,450.585C464.585,450.307,465.955,448.327,467.786,449.283C469.618,450.238,471.911,454.128,474.556,454.351C477.201,454.573,480.197,451.128,481.494,448.334C482.79,445.539,482.386,443.396,483.928,442.689C485.469,441.983,488.957,442.713,491.101,444.003C493.245,445.294,494.046,447.143,495.97,449.374C497.893,451.604,500.939,454.215,503.138,454.845C505.337,455.475,506.69,454.125,509.622,451.869C512.554,449.613,517.065,446.451,520.204,446.05C523.342,445.65,525.107,448.01,526.188,449.849C527.269,451.688,527.666,453.006,530.23,452.548C532.795,452.09,537.528,449.855,540.168,448.571C542.809,447.288,543.357,446.955,544.641,446.562C545.926,446.169,547.948,445.717,550.263,445.798C552.578,445.88,555.187,446.495,556.667,447.399C558.148,448.304,558.5,449.498,557.898,449.258C557.297,449.019,555.741,447.346,555.997,447.737C556.253,448.128,558.321,450.584,561.48,451.211C564.639,451.838,568.888,450.637,570.071,450.127C571.254,449.618,569.372,449.801,569.797,449.863C570.223,449.925,572.956,449.866,574.189,449.751C575.421,449.635,575.152,449.462,578.256,449.445C581.36,449.428,587.836,449.567,591.102,449.069C594.369,448.57,594.425,447.435,594.247,446.977C594.069,446.519,593.657,446.738,595.307,447.793C596.956,448.849,600.668,450.742,603.083,451.789C605.499,452.837,606.617,453.039,607.936,453.469C609.254,453.9,610.773,454.559,611.189,455.118C611.605,455.676,610.92,456.133,613.399,455.014C615.878,453.895,621.521,451.199,624.127,450.401C626.733,449.603,626.301,450.702,627.065,451.944C627.83,453.187,629.79,454.573,631.098,454.698C632.406,454.823,633.062,453.687,634.881,451.957C636.701,450.227,639.686,447.903,641.582,447.46C643.478,447.018,644.286,448.458,645.456,450.368C646.625,452.278,648.157,454.659,650.829,455.454C653.501,456.25,657.312,455.461,658.974,454.766C660.636,454.07,660.148,453.468,660.745,454.044C661.341,454.62,663.021,456.373,664.715,456.629C666.409,456.885,668.116,455.643,670.921,453.132C673.725,450.62,677.627,446.838,680.057,445.977C682.486,445.116,683.443,447.176,684.821,448.318C686.198,449.461,687.997,449.686,690.617,450.334C693.238,450.982,696.68,452.053,699.096,452.894C701.511,453.735,702.899,454.347,703.999,453.658C705.098,452.97,705.909,450.981,706.735,449.623C707.561,448.265,708.403,447.537,708.881,448.685C709.359,449.834,709.472,452.858,710.388,453.037C711.303,453.216,713.02,450.55,714.944,449.449C716.869,448.349,719,448.815,720.74,450.122C722.481,451.43,723.829,453.578,726.254,453.798C728.679,454.018,732.18,452.308,734.153,452.073C736.127,451.838,736.574,453.077,736.069,453.999C735.564,454.92,734.107,455.524,736.758,455.075C739.408,454.627,746.167,453.125,749.452,452.45C752.737,451.775,752.549,451.926,754.133,451.77C755.716,451.614,759.071,451.15,760.31,450.487C761.548,449.824,760.67,448.961,762.051,448.121C763.433,447.28,767.076,446.461,769.258,446.541C771.441,446.62,772.164,447.598,771.876,448.077C771.589,448.556,770.291,448.538,771.382,449.361C772.473,450.184,775.952,451.849,778.47,452.232C780.988,452.615,782.545,451.715,784.803,451.219C787.061,450.722,790.02,450.628,791.845,450.225C793.67,449.822,794.36,449.109,795.755,450.157C797.15,451.205,799.249,454.014,799.588,453.842C799.926,453.669,798.504,450.516,800.424,449.415C802.344,448.314,807.606,449.266,810.66,449.917C813.713,450.568,814.558,450.919,815.066,450.548C815.573,450.177,815.744,449.085,816.225,448.539C816.706,447.993,817.497,447.993,816.897,448.315C816.297,448.636,814.306,449.278,815.217,449.32C816.128,449.362,819.94,448.804,823.404,449.595C826.868,450.387,829.983,452.528,831.991,452.42C833.998,452.313,834.898,449.957,835.045,449.838C835.192,449.718,834.586,451.835,835.844,451.272C837.101,450.709,840.221,447.466,842.378,445.405C844.534,443.344,845.727,442.467,848.054,443.922C850.38,445.378,853.841,449.168,856.519,451.151C859.198,453.134,861.095,453.31,863.842,451.884C866.588,450.458,870.186,447.431,872.861,446.994C875.536,446.556,877.288,448.708,879.072,449.126C880.856,449.544,882.67,448.227,883.892,448.19C885.114,448.153,885.744,449.396,886.064,449.99C886.385,450.583,886.397,450.526,885.456,449.978C884.515,449.43,882.621,448.391,884.175,447.45C885.729,446.509,890.731,445.666,894.658,445.808C898.586,445.95,901.439,447.078,901.289,447.602C901.14,448.126,897.988,448.046,898.751,448.138C899.514,448.23,904.192,448.494,907.743,448.559C911.294,448.625,913.717,448.492,916.213,448.223C918.708,447.955,921.276,447.55,923.423,447.879C925.57,448.208,927.298,449.271,928.937,448.72C930.577,448.168,932.129,446.003,933.037,446.179C933.944,446.354,934.208,448.87,935.296,449.736C936.384,450.603,938.296,449.82,939.03,449.901C939.763,449.982,939.319,450.926,939.904,451.03C940.488,451.134,942.101,450.397,942.896,450.589C943.691,450.781,943.669,451.902,943.285,452.189C942.901,452.476,942.156,451.929,944.202,451.644C946.248,451.36,951.085,451.337,954.663,449.993C958.241,448.649,960.56,445.983,961.141,445.437C961.723,444.891,960.566,446.465,963.428,447.952C966.291,449.44,973.172,450.84,976.731,450.245C980.291,449.65,980.529,447.059,979.606,443.584C978.684,440.108,976.601,435.747,976.15,432.802C975.699,429.857,976.879,428.328,974.409,428.473C971.938,428.617,965.816,430.434,962.67,431.484C959.523,432.533,959.353,432.815,958.836,432.415C958.319,432.016,957.455,430.935,957.554,429.51C957.652,428.085,958.712,426.317,957.166,425.539C955.619,424.761,951.466,424.974,949.339,426.077C947.212,427.179,947.111,429.172,945.684,429.848C944.257,430.523,941.506,429.881,939.735,428.844C937.965,427.808,937.175,426.377,936.967,427.862C936.759,429.348,937.132,433.75,936.017,435.853C934.902,437.955,932.299,437.759,928.412,436.555C924.524,435.352,919.353,433.143,916.672,431.746C913.99,430.349,913.799,429.765,912.5,430.921C911.201,432.077,908.794,434.973,907.68,435.092C906.566,435.211,906.745,432.552,905.332,431.225C903.92,429.897,900.916,429.901,900.14,428.672C899.363,427.443,900.813,424.982,899.366,424.999C897.918,425.015,893.572,427.509,892.657,428.234C891.741,428.959,894.256,427.915,893.115,427.497C891.974,427.08,887.177,427.289,884.866,427.882C882.554,428.474,882.726,429.45,880.984,428.399C879.241,427.348,875.583,424.272,872.287,424.315C868.99,424.358,866.056,427.521,864.255,430.14C862.454,432.759,861.786,434.834,859.904,435.513C858.021,436.191,854.924,435.475,853.277,434.279C851.631,433.082,851.436,431.406,851.061,430.798C850.687,430.19,850.132,430.649,849.889,429.562C849.646,428.474,849.715,425.839,847.861,425.815C846.007,425.79,842.231,428.376,839.262,428.819C836.293,429.262,834.132,427.561,832.326,427.002C830.52,426.443,829.069,427.026,828.231,428.905C827.392,430.784,827.165,433.958,825.333,434.721C823.502,435.484,820.066,433.835,819.129,433.682C818.193,433.528,819.755,434.87,817.773,433.876C815.79,432.882,810.263,429.551,806.339,427.253C802.415,424.954,800.095,423.688,798.711,424.085C797.328,424.483,796.881,426.544,795.286,429.38C793.691,432.216,790.948,435.827,786.944,436.443C782.94,437.059,777.676,434.679,775.073,433.188C772.47,431.697,772.527,431.093,771.918,430.724C771.308,430.354,770.031,430.218,768.847,429.919C767.663,429.619,766.572,429.155,766.46,428.621C766.349,428.087,767.217,427.483,767.252,426.291C767.287,425.099,766.487,423.318,764.409,423.854C762.33,424.39,758.972,427.242,755.156,428.724C751.34,430.206,747.066,430.318,744.338,430.79C741.609,431.261,740.425,432.092,740.371,432.766C740.318,433.44,741.395,433.958,740.419,432.335C739.443,430.713,736.414,426.949,733.499,426.225C730.584,425.5,727.784,427.814,727.046,427.528C726.309,427.242,727.633,424.354,724.553,424.088C721.472,423.821,713.985,426.174,710.141,428.09C706.297,430.007,706.095,431.486,704.577,433.047C703.059,434.609,700.224,436.253,698.385,435.656C696.547,435.058,695.704,432.218,694.828,429.709C693.951,427.199,693.039,425.019,691.133,425.307C689.226,425.596,686.324,428.352,684.077,429.639C681.83,430.926,680.239,430.745,679.377,431.874C678.515,433.004,678.383,435.445,676.049,434.103C673.716,432.762,669.182,427.637,666.734,425.786C664.286,423.934,663.924,425.357,661.637,427.402C659.35,429.447,655.138,432.115,653.23,432.398C651.322,432.681,651.718,430.579,651.776,429.117C651.834,427.656,651.554,426.835,649.675,426.958C647.796,427.082,644.318,428.149,643.639,428.265C642.959,428.382,645.079,427.547,643.564,428.396C642.048,429.244,636.898,431.776,632.327,430.823C627.757,429.87,623.766,425.433,620.916,425.503C618.067,425.573,616.358,430.151,614.151,430.986C611.943,431.821,609.235,428.912,607.041,428.166C604.846,427.419,603.164,428.833,603.019,430.944C602.873,433.054,604.263,435.86,602.286,435.598C600.309,435.336,594.965,432.007,592.05,430.681C589.134,429.355,588.646,430.032,588.013,430.777C587.38,431.521,586.602,432.334,585.863,432.114C585.125,431.895,584.426,430.643,584.021,430.116C583.616,429.588,583.504,429.785,584.093,429.901C584.682,430.017,585.972,430.053,585.147,430.086C584.322,430.118,581.382,430.146,580.009,429.965C578.636,429.784,578.83,429.394,578.598,429.113C578.365,428.832,577.707,428.661,577.085,428.867C576.463,429.073,575.877,429.656,575.229,430.314C574.582,430.973,573.873,431.706,573.344,431.716C572.815,431.726,572.467,431.013,571.715,431.298C570.963,431.584,569.808,432.869,569.364,433.505C568.921,434.141,569.191,434.129,568.867,433.015C568.544,431.9,567.629,429.684,564.452,429.284C561.274,428.884,555.835,430.3,554.25,430.841C552.664,431.381,554.932,431.047,553.579,430.98C552.226,430.913,547.253,431.114,544.679,430.943C542.105,430.772,541.931,430.229,541.792,430.379C541.653,430.529,541.549,431.373,541.955,432.244C542.362,433.116,543.277,434.016,542.76,433.186C542.242,432.357,540.291,429.799,536.915,429.003C533.539,428.207,528.738,429.173,526.055,429.103C523.371,429.033,522.805,427.927,521.795,428.512C520.784,429.097,519.33,431.373,518.17,432.112C517.01,432.85,516.145,432.052,516.097,431.845C516.05,431.637,516.82,432.021,515.285,431.314C513.749,430.608,509.908,428.811,507.549,429.529C505.191,430.248,504.316,433.482,502.953,433.845C501.59,434.208,499.74,431.699,498.702,429.96C497.665,428.222,497.44,427.254,497.228,425.963C497.016,424.673,496.817,423.06,495.159,423.856C493.501,424.652,490.385,427.856,487.864,429.826C485.343,431.796,483.416,432.531,481.047,432.251C478.678,431.972,475.866,430.677,474.802,429.164C473.738,427.651,474.423,425.921,473.446,426.014C472.47,426.107,469.832,428.024,469.066,428.777C468.301,429.531,469.407,429.121,469.66,428.682C469.913,428.243,469.313,427.774,466.772,427.99C464.232,428.205,459.751,429.105,458.434,428.433C457.118,427.761,458.965,425.517,457.477,425.538C455.989,425.56,451.165,427.846,448.746,428.967C446.327,430.088,446.313,430.044,446.843,429.836C447.373,429.628,448.447,429.256,447.777,429.903C447.107,430.551,444.692,432.219,442.812,432.781C440.932,433.344,439.587,432.802,438.108,432.331C436.629,431.86,435.016,431.461,432.87,431.043C430.725,430.625,428.046,430.188,427.643,429.3C427.241,428.412,429.115,427.073,427.67,426.699C426.226,426.324,421.463,426.915,418.816,427.238C416.17,427.56,415.639,427.615,414.827,427.393C414.015,427.172,412.922,426.675,411.172,425.892C409.421,425.109,407.014,424.041,406.4,424.25C405.787,424.459,406.967,425.947,405.283,426.755C403.599,427.564,399.051,427.694,396.883,428.807C394.714,429.92,394.926,432.016,392.758,433.074C390.59,434.131,386.043,434.149,384.404,433.506C382.764,432.862,384.034,431.555,383.029,430.448C382.024,429.34,378.744,428.431,375.466,428.019C372.187,427.606,368.91,427.689,367.215,428.424C365.52,429.16,365.407,430.549,365.829,432.182C366.251,433.814,367.208,435.69,365.18,435.384C363.152,435.078,358.14,432.59,356.112,431.315C354.085,430.041,355.042,429.979,353.076,429.911C351.109,429.843,346.218,429.769,343.609,429.143C341,428.517,340.673,427.34,339.364,426.11C338.055,424.881,335.765,423.598,333.378,424.753C330.99,425.908,328.506,429.501,326.953,430.581C325.4,431.66,324.778,430.226,325.413,430.46C326.047,430.693,327.938,432.594,325.233,432.201C322.528,431.808,315.226,429.121,310.737,429.371C306.248,429.621,304.572,432.808,304.087,432.467C303.601,432.126,304.307,428.258,302.314,427.819C300.321,427.379,295.63,430.368,293.511,431.304C291.392,432.24,291.845,431.123,291.069,430.397C290.293,429.672,288.289,429.337,287.961,429.092C287.633,428.846,288.981,428.689,286.909,429.18C284.837,429.671,279.344,430.81,276.607,430.941C273.871,431.072,273.892,430.194,274.544,430.247C275.196,430.301,276.479,431.285,275.13,431.601C273.78,431.917,269.799,431.564,266.705,429.942C263.611,428.32,261.403,425.429,259.993,425.695C258.583,425.961,257.972,429.383,256.94,430.2C255.908,431.016,254.456,429.226,253.656,429.492C252.855,429.758,252.707,432.08,250.088,431.885C247.469,431.69,242.379,428.978,240.902,427.697C239.424,426.416,241.56,426.567,240.093,427.238C238.626,427.908,233.557,429.099,230.683,429.715C227.809,430.332,227.13,430.375,227.328,430.061C227.526,429.747,228.6,429.076,227.769,428.062C226.937,427.048,224.199,425.691,222.074,425.93C219.948,426.17,218.435,428.006,218.184,427.979C217.934,427.951,218.945,426.061,217.587,425.854C216.23,425.646,212.502,427.121,211.124,427.655C209.745,428.189,210.716,427.782,210.929,428.584C211.143,429.386,210.601,431.398,207.766,431.518C204.93,431.637,199.802,429.864,195.818,428.923C191.833,427.983,188.993,427.874,187.228,427.729C185.464,427.584,184.776,427.402,185.025,427.364C185.273,427.326,186.458,427.431,184.042,427.438C181.626,427.446,175.609,427.355,173.125,427.548C170.64,427.742,171.687,428.219,171.614,427.339C171.541,426.458,170.349,424.221,166.441,425.071C162.533,425.922,155.909,429.861,151.941,432.705C147.973,435.548,146.661,437.296,143.863,436.622C141.065,435.947,136.781,432.85,135.197,431.183C133.612,429.515,134.727,429.277,134.121,430.114C133.516,430.952,131.191,432.864,129.271,433.091C127.35,433.318,125.834,431.861,124.348,430.99C122.861,430.119,121.404,429.834,119.431,429.494C117.458,429.154,114.969,428.759,114.687,428.82C114.406,428.882,116.332,429.402,114.408,429.956C112.485,430.51,106.713,431.099,102.672,430.989C98.631,430.88,96.322,430.072,95.094,429.959C93.866,429.846,93.72,430.429,93.635,431.893C93.551,433.358,93.529,435.704,92.481,436.226C91.432,436.748,89.358,435.445,85.972,434.951C82.586,434.457,77.887,434.77,75.353,433.296C72.819,431.821,72.448,428.559,70.684,428.464C68.92,428.369,65.762,431.441,63.252,432.372C60.742,433.302,58.879,432.091,57.874,431.382C56.868,430.673,56.72,430.467,56.339,431.209C55.958,431.95,55.343,433.639,54.484,433.733C53.624,433.826,52.52,432.324,52.625,431.85C52.73,431.376,54.043,431.93,51.918,431.971C49.792,432.011,44.227,431.538,41.215,431.132C38.204,430.727,37.746,430.389,38.849,431.006C39.953,431.623,42.618,433.194,41.816,433.48C41.015,433.765,36.746,432.765,33.614,432.677C30.482,432.589,28.486,433.412,27.096,432.708C25.706,432.005,24.921,429.775,22.954,428.783C20.987,427.791,17.836,428.037,15.918,427.706C14,427.375,13.314,426.468,13.143,424.879C12.972,423.29,13.315,421.02,14.979,416.424C16.642,411.829,19.625,404.909,22.06,402.343C24.495,399.777,26.381,401.564,27.696,401.671C29.01,401.777,29.753,400.203,30.139,400.241C30.526,400.278,30.556,401.927,31.972,402.407C33.388,402.887,36.191,402.198,37.933,401.991C39.675,401.783,40.355,402.057,40.885,401.729C41.414,401.4,41.793,400.469,43.426,399.4C45.059,398.33,47.948,397.122,48.9,397.291C49.853,397.46,48.869,399.005,48.555,399.344C48.24,399.682,48.595,398.813,49.715,399.113C50.835,399.413,52.721,400.881,56.44,401.254C60.159,401.627,65.713,400.903,68.524,399.52C71.335,398.136,71.404,396.091,71.645,396.57C71.887,397.049,72.3,400.052,74.435,401.264C76.57,402.477,80.426,401.899,83.057,400.58C85.688,399.262,87.095,397.202,88.825,397.036C90.555,396.87,92.608,398.598,95.259,399.305C97.91,400.013,101.159,399.701,103.339,399.32C105.519,398.938,106.629,398.487,107.465,397.802C108.302,397.118,108.866,396.199,109.554,396.708C110.241,397.217,111.053,399.155,112.021,401.178C112.99,403.202,114.115,405.312,116.557,404.958C118.999,404.604,122.759,401.787,123.916,401.948C125.073,402.11,123.628,405.251,126.292,404.494C128.955,403.737,135.728,399.081,140.481,398.371C145.235,397.661,147.968,400.896,150.815,402.41C153.662,403.923,156.622,403.715,158.161,403.146C159.701,402.576,159.82,401.645,158.926,400.112C158.031,398.578,156.123,396.443,157.788,396.352C159.453,396.26,164.69,398.213,167.675,398.017C170.659,397.821,171.391,395.477,172.165,395.846C172.94,396.215,173.759,399.298,174.796,400.828C175.834,402.358,177.09,402.335,178.857,401.926C180.624,401.516,182.901,400.72,183.741,401.117C184.58,401.513,183.983,403.103,185.11,402.202C186.237,401.301,189.088,397.909,192.194,397.318C195.301,396.728,198.662,398.938,200.008,399.01C201.354,399.081,200.684,397.014,200.934,395.672C201.185,394.33,202.356,393.714,204.53,394.762C206.704,395.809,209.882,398.52,212.76,399.313C215.637,400.105,218.215,398.978,219.635,399.81C221.054,400.643,221.315,403.435,223.999,403.426C226.684,403.417,231.792,400.608,234.135,400.253C236.478,399.899,236.056,401.999,235.363,402.91C234.669,403.822,233.705,403.546,235.906,402.242C238.108,400.938,243.474,398.607,246.703,398.816C249.933,399.025,251.024,401.774,252.679,402.342C254.334,402.909,256.553,401.295,257.877,400.128C259.2,398.96,259.627,398.24,260.541,398.24C261.454,398.24,262.854,398.96,265.212,399.911C267.569,400.861,270.885,402.041,272.664,401.988C274.444,401.934,274.688,400.646,275.456,400.112C276.225,399.579,277.518,399.799,278.123,400.081C278.729,400.362,278.648,400.706,278.998,400.544C279.349,400.382,280.131,399.715,281.371,399.057C282.61,398.4,284.307,397.753,285.206,397.911C286.106,398.069,286.209,399.032,285.591,400.685C284.974,402.339,283.636,404.684,285.116,404.508C286.595,404.332,290.893,401.635,293.733,399.621C296.573,397.607,297.956,396.275,298.726,397.391C299.497,398.507,299.655,402.07,301.149,403.421C302.644,404.772,305.474,403.91,307.28,402.928C309.086,401.946,309.868,400.843,310.565,400.219C311.262,399.596,311.875,399.45,311.979,398.828C312.083,398.207,311.679,397.11,311.729,397.919C311.78,398.729,312.284,401.445,316.09,402.983C319.897,404.52,327.004,404.879,329.86,403.86C332.715,402.842,331.32,400.445,333.179,400.289C335.038,400.134,340.152,402.22,344.36,402.56C348.568,402.9,351.871,401.494,352.312,400.222C352.753,398.949,350.331,397.81,351.908,398.283C353.485,398.755,359.061,400.838,362.805,401.016C366.549,401.195,368.46,399.469,370.065,399.766C371.67,400.064,372.967,402.384,374.485,403.309C376.003,404.234,377.741,403.764,377.896,402.364C378.052,400.964,376.627,398.634,378.785,397.387C380.943,396.139,386.685,395.974,390.173,398.101C393.661,400.227,394.895,404.646,396.969,405.549C399.043,406.452,401.956,403.839,403.3,402.401C404.644,400.963,404.417,400.701,404.888,400.757C405.358,400.812,406.526,401.187,408.616,401.488C410.707,401.788,413.72,402.015,414.392,400.546C415.064,399.076,413.394,395.91,415.305,396.558C417.215,397.206,422.705,401.667,425.701,403.202C428.697,404.738,429.199,403.346,430.657,403.353C432.114,403.36,434.527,404.766,436.703,404.33C438.879,403.895,440.817,401.619,441.495,400.564C442.173,399.51,441.59,399.677,443.022,400.117C444.455,400.556,447.903,401.269,449.076,400.89C450.25,400.511,449.148,399.041,451.367,397.946C453.586,396.851,459.124,396.13,462.931,396.428C466.738,396.726,468.814,398.042,469.558,398.201C470.303,398.36,469.717,397.362,470.252,397.486C470.788,397.611,472.445,398.858,472.972,400.944C473.499,403.031,472.896,405.955,474.909,406.571C476.921,407.187,481.549,405.493,482.995,403.989C484.441,402.485,482.706,401.171,484.181,401.277C485.656,401.383,490.342,402.909,494.414,402.46C498.485,402.012,501.943,399.589,503.546,400.153C505.15,400.716,504.901,404.266,506.935,404.52C508.969,404.773,513.287,401.732,514.119,400.016C514.951,398.3,512.297,397.91,514.241,398.985C516.185,400.06,522.728,402.6,526.671,403.362C530.614,404.124,531.958,403.108,532.583,403.73C533.208,404.351,533.115,406.61,534.925,406.978C536.734,407.346,540.447,405.824,543.072,404.476C545.696,403.129,547.232,401.956,548.509,401.589C549.786,401.223,550.804,401.663,551.479,401.917C552.153,402.171,552.483,402.238,552.869,401.909C553.254,401.581,553.694,400.856,553.921,400.22C554.149,399.585,554.165,399.039,555.047,399.452C555.93,399.866,557.679,401.239,557.618,400.882C557.557,400.525,555.686,398.438,557.317,397.931C558.948,397.425,564.082,398.498,566.244,399.206C568.405,399.913,567.594,400.254,567.829,400.425C568.064,400.596,569.346,400.598,570.147,400.392C570.949,400.187,571.271,399.775,570.992,399.341C570.713,398.908,569.833,398.454,572.019,397.133C574.205,395.811,579.458,393.623,583.28,394.908C587.103,396.193,589.496,400.951,591.818,401.124C594.139,401.298,596.389,396.886,598.474,395.93C600.558,394.974,602.478,397.473,603.024,399.195C603.57,400.916,602.743,401.859,603.59,401.857C604.436,401.855,606.957,400.908,607.238,399.911C607.519,398.915,605.561,397.868,605.8,398.662C606.04,399.456,608.478,402.091,611.864,402.794C615.25,403.496,619.584,402.266,621.034,401.126C622.484,399.987,621.048,398.939,620.814,398.885C620.58,398.83,621.547,399.768,624.968,400.065C628.388,400.361,634.261,400.015,638.284,400.842C642.306,401.668,644.478,403.666,645.957,403.679C647.437,403.692,648.226,401.719,647.975,399.542C647.724,397.365,646.433,394.984,647.272,394.693C648.11,394.402,651.077,396.201,653.668,396.84C656.258,397.479,658.471,396.958,660.445,396.914C662.419,396.871,664.154,397.305,664.863,397.333C665.573,397.362,665.257,396.986,666.171,397.442C667.084,397.898,669.226,399.187,670.102,398.984C670.979,398.782,670.589,397.088,671.561,396.991C672.533,396.894,674.867,398.394,676.335,399.211C677.803,400.029,678.406,400.165,678.702,400.148C678.998,400.132,678.987,399.964,678.542,400.387C678.097,400.811,677.218,401.826,677.833,401.525C678.448,401.224,680.557,399.606,682.07,399.565C683.584,399.523,684.502,401.058,685.606,401.245C686.71,401.433,688,400.273,688.994,398.588C689.989,396.902,690.688,394.691,692.6,395.659C694.513,396.627,697.639,400.773,698.068,401.697C698.497,402.621,696.23,400.321,697.625,398.897C699.021,397.473,704.081,396.924,709.276,396.474C714.471,396.024,719.803,395.674,723.309,396.494C726.815,397.314,728.496,399.304,729.798,399.874C731.101,400.443,732.024,399.592,731.626,399.973C731.228,400.354,729.51,401.966,730.796,402.385C732.082,402.804,736.374,402.029,738.875,401.661C741.377,401.293,742.089,401.332,742.217,402.215C742.345,403.099,741.89,404.827,742.912,404.834C743.935,404.842,746.436,403.129,748.915,403.137C751.395,403.145,753.853,404.874,755.807,404.591C757.761,404.308,759.211,402.012,759.968,400.917C760.724,399.822,760.788,399.928,760.032,399.986C759.276,400.045,757.7,400.057,758.407,400.189C759.113,400.322,762.104,400.575,763.261,401.55C764.417,402.525,763.741,404.221,765.873,402.8C768.005,401.378,772.944,396.838,777.501,395.074C782.057,393.31,786.231,394.323,788.94,395.079C791.649,395.835,792.895,396.335,793.683,397.049C794.471,397.763,794.802,398.692,795.359,399.089C795.916,399.485,796.699,399.349,798.097,399.121C799.496,398.893,801.509,398.573,802.713,397.959C803.917,397.346,804.313,396.439,804.085,397.25C803.857,398.062,803.007,400.592,804.771,401.344C806.536,402.095,810.916,401.066,812.677,399.646C814.439,398.226,813.582,396.415,813.217,396.308C812.852,396.201,812.98,397.798,816.709,399.106C820.439,400.413,827.769,401.431,831.715,403.146C835.66,404.86,836.22,407.271,837.327,406.629C838.434,405.986,840.088,402.289,842.307,401.323C844.525,400.358,847.308,402.124,849.362,401.125C851.415,400.125,852.74,396.359,854.493,397.282C856.247,398.204,858.43,403.815,860.822,406.488C863.213,409.162,865.814,408.898,867.722,407.182C869.63,405.466,870.845,402.297,873.906,399.283C876.966,396.268,881.872,393.407,886.682,392.28C891.492,391.153,896.206,391.759,898.707,393.687C901.208,395.614,901.496,398.862,903.223,399.224C904.949,399.585,908.116,397.06,910.833,396.195C913.551,395.33,915.819,396.125,917.811,397.539C919.804,398.952,921.519,400.984,922.574,401.006C923.629,401.029,924.022,399.042,925.031,397.48C926.04,395.918,927.664,394.781,929.565,394.595C931.466,394.409,933.645,395.173,934.609,396.955C935.574,398.738,935.325,401.538,936.416,402.484C937.507,403.43,939.939,402.523,941.713,402.33C943.487,402.136,944.603,402.656,946.245,401.854C947.887,401.052,950.055,398.926,951.264,398.745C952.473,398.564,952.724,400.327,952.849,400.068C952.974,399.808,952.973,397.527,954.542,397.608C956.112,397.689,959.251,400.133,961.386,400.792C963.521,401.451,964.652,400.327,963.856,399.585C963.061,398.842,960.339,398.483,961.546,399.357C962.752,400.232,967.886,402.341,972.145,402.15C976.404,401.959,979.788,399.467,982.565,396.872C985.341,394.276,987.51,391.577,985.749,388.509C983.987,385.44,978.296,382.002,976.077,379.768C973.858,377.533,975.111,376.503,973.91,375.873C972.709,375.242,969.053,375.011,966.327,375.583C963.6,376.155,961.802,377.531,960.915,379.729C960.028,381.927,960.052,384.949,959.546,384.833C959.039,384.717,958.002,381.465,956.603,380.327C955.203,379.19,953.44,380.169,950.593,380.654C947.746,381.138,943.815,381.129,942.615,379.669C941.415,378.208,942.945,375.297,940.623,375.427C938.3,375.557,932.124,378.728,928.864,380.767C925.604,382.805,925.259,383.71,923.672,384.199C922.085,384.687,919.256,384.758,917.933,385C916.611,385.242,916.794,385.653,916.113,384.996C915.432,384.34,913.887,382.614,911.442,379.968C908.998,377.321,905.654,373.754,902.302,373.231C898.95,372.709,895.59,375.231,893.085,377.899C890.58,380.567,888.931,383.38,888.029,382.337C887.128,381.294,886.976,376.395,883.696,374.888C880.417,373.382,874.012,375.268,870.316,376.104C866.619,376.94,865.633,376.726,864.308,376.331C862.983,375.935,861.32,375.358,860.375,375.621C859.43,375.884,859.203,376.987,857.745,377.648C856.287,378.31,853.599,378.531,852.221,378.885C850.842,379.24,850.774,379.727,851.718,380.8C852.663,381.872,854.62,383.528,852.829,382.802C851.037,382.075,845.497,378.966,840.929,378.034C836.362,377.103,832.768,378.349,831.512,380.028C830.256,381.707,831.338,383.818,829.29,382.858C827.241,381.898,822.062,377.868,819.561,377.534C817.06,377.2,817.236,380.562,816.611,381.022C815.985,381.483,814.558,379.043,812.199,377.659C809.84,376.274,806.55,375.946,804.694,375.542C802.839,375.137,802.42,374.656,800.856,375.623C799.292,376.591,796.584,379.006,795.364,379.468C794.144,379.93,794.411,378.438,793.151,377.138C791.892,375.837,789.106,374.728,786.619,375.257C784.132,375.787,781.946,377.956,781.149,378.388C780.353,378.82,780.948,377.515,779.755,377.825C778.563,378.136,775.584,380.062,773.232,381.361C770.88,382.659,769.155,383.33,767.868,383.268C766.582,383.205,765.733,382.41,764.733,382.108C763.733,381.806,762.582,381.996,760.846,382.024C759.109,382.052,756.789,381.918,755.455,381.506C754.122,381.095,753.776,380.406,754.313,380.01C754.85,379.613,756.269,379.51,755.424,380.051C754.58,380.592,751.472,381.777,749.62,382.313C747.769,382.849,747.174,382.735,745.786,382.17C744.397,381.604,742.215,380.587,741.076,380.085C739.936,379.583,739.839,379.596,739.528,380.672C739.218,381.748,738.695,383.886,736.488,383.657C734.282,383.428,730.392,380.832,729.931,380.234C729.469,379.635,732.435,381.035,731.235,381.601C730.035,382.166,724.669,381.898,721.079,381.701C717.489,381.503,715.674,381.378,714.006,380.042C712.337,378.705,710.815,376.158,710.027,377.09C709.24,378.022,709.187,382.433,707.215,383.476C705.242,384.52,701.35,382.196,698.536,381.781C695.722,381.365,693.986,382.858,691.864,382.893C689.742,382.929,687.235,381.507,687.081,380.949C686.927,380.391,689.127,380.697,686.497,380.452C683.867,380.208,676.409,379.414,673.349,378.564C670.289,377.715,671.628,376.81,671.215,377.797C670.803,378.784,668.64,381.661,666.733,382.14C664.827,382.619,663.178,380.698,660.438,380.217C657.697,379.736,653.866,380.695,651.107,380.81C648.349,380.925,646.662,380.196,645.505,379.285C644.348,378.373,643.72,377.277,643.723,377.766C643.726,378.255,644.359,380.329,643.292,380.894C642.226,381.458,639.459,380.514,637.58,379.794C635.7,379.074,634.709,378.578,634.306,378.93C633.902,379.282,634.088,380.482,634.628,380.836C635.167,381.191,636.062,380.7,634.335,380.121C632.609,379.543,628.263,378.877,627.123,378.571C625.984,378.265,628.051,378.319,626.464,379.933C624.877,381.547,619.636,384.72,614.577,383.588C609.518,382.456,604.643,377.019,601.292,375.64C597.942,374.262,596.118,376.943,594.944,379.676C593.77,382.41,593.245,385.197,592.317,385.3C591.389,385.403,590.057,382.821,588.632,381.108C587.206,379.396,585.686,378.551,584.246,379.817C582.807,381.083,581.448,384.459,580.846,385.131C580.244,385.803,580.399,383.77,578.819,382.526C577.238,381.281,573.922,380.825,570.538,380.55C567.154,380.276,563.703,380.182,561.053,380.993C558.404,381.805,556.556,383.521,555.621,383.002C554.686,382.483,554.665,379.729,552.627,380.005C550.589,380.281,546.534,383.588,544.217,384.577C541.9,385.567,541.322,384.24,540.363,382.878C539.404,381.516,538.066,380.12,537.082,379.645C536.098,379.17,535.469,379.615,534.726,380.049C533.983,380.484,533.126,380.908,532.604,380.245C532.082,379.582,531.894,377.831,532.398,378.175C532.901,378.518,534.097,380.956,533.757,381.754C533.416,382.551,531.541,381.709,527.26,381.334C522.978,380.958,516.292,381.05,514.41,381.147C512.528,381.244,515.451,381.347,512.396,380.414C509.341,379.482,500.307,377.513,496.323,378.585C492.339,379.657,493.404,383.77,491.075,385.025C488.747,386.281,483.024,384.679,479.725,383.101C476.425,381.522,475.548,379.966,473.728,380.191C471.909,380.415,469.148,382.419,467.484,382.738C465.821,383.058,465.255,381.692,464.972,381.009L464.689,380.326"></path>
      </svg>
      