<?xml version="1.0" encoding="UTF-8" standalone="no"?>
    <!-- Created with Inkscape (https://labs.original.art.br/draw) -->
    
    <svg
       xmlns:dc="http://purl.org/dc/elements/1.1/"
       xmlns:cc="http://creativecommons.org/ns#"
       xmlns:rdf="http://www.w3.org/1999/02/22-rdf-syntax-ns#"
       xmlns:svg="http://www.w3.org/2000/svg"
       xmlns="http://www.w3.org/2000/svg"
       xmlns:sodipodi="http://sodipodi.sourceforge.net/DTD/sodipodi-0.dtd"
       xmlns:inkscape="http://www.inkscape.org/namespaces/inkscape"
       id="pDCbN"
       version="1.1"
       inkscape:version="0.91 r13725"
       width="undefined"
       height="undefined"
       viewBox="0 0 undefined undefined"
       sodipodi:docname="_paths6.svg">
      <metadata
         id="metadata3404">
        <rdf:RDF>
          <cc:Work
             rdf:about="">
            <dc:format>image/svg+xml</dc:format>
            <dc:type
               rdf:resource="http://purl.org/dc/dcmitype/StillImage" />
            <dc:title></dc:title>
          </cc:Work>
        </rdf:RDF>
      </metadata>
      undefined<path fill="none" stroke-width="1" style="stroke: rgb(0, 71, 171);" d="M3.25,500L2.78,497.331C2.31,494.662,1.371,489.324,2.201,485.659C3.031,481.995,5.631,480.005,7.74,477.718C9.85,475.432,11.469,472.85,10.848,469.593C10.227,466.336,7.367,462.405,9.113,459.101C10.859,455.796,17.213,453.119,20.099,450.897C22.985,448.675,22.403,446.909,23.302,446.87C24.202,446.831,26.583,448.519,26.866,449.284C27.15,450.05,25.336,449.893,25.602,450.774C25.869,451.655,28.214,453.575,31.122,453.93C34.029,454.285,37.498,453.075,39.748,451.577C41.997,450.078,43.027,448.291,45.573,447.597C48.119,446.904,52.181,447.304,53.173,448.62C54.166,449.936,52.088,452.167,54.802,452.248C57.516,452.329,65.021,450.26,69.476,449.791C73.931,449.322,75.336,450.454,75.833,449.554C76.33,448.653,75.919,445.72,77.967,445.852C80.014,445.984,84.52,449.182,87.239,448.946C89.958,448.71,90.889,445.041,93.566,445.27C96.242,445.499,100.664,449.626,103.113,451.234C105.562,452.842,106.039,451.93,105.381,450.395C104.723,448.86,102.931,446.701,104.185,446.476C105.439,446.25,109.738,447.956,113.005,450.085C116.272,452.214,118.507,454.765,120.108,455.008C121.709,455.251,122.677,453.186,122.518,452.987C122.358,452.788,121.071,454.454,124.294,455.114C127.516,455.773,135.247,455.426,139.749,454.623C144.251,453.82,145.522,452.561,146.265,451.8C147.008,451.038,147.222,450.772,148.418,450.229C149.615,449.686,151.793,448.865,153.041,447.812C154.289,446.76,154.606,445.476,156.144,445.972C157.682,446.469,160.441,448.747,162.797,450.729C165.152,452.711,167.104,454.397,168.516,454.235C169.928,454.073,170.8,452.062,171.026,451.331C171.251,450.599,170.83,451.147,172.122,450.611C173.414,450.074,176.419,448.454,176.586,447.917C176.753,447.381,174.082,447.927,175.394,447.886C176.706,447.845,182,447.215,184.724,446.993C187.448,446.771,187.602,446.956,189.675,447.881C191.747,448.806,195.738,450.472,197.968,451.165C200.198,451.859,200.667,451.58,200.643,451.336C200.62,451.093,200.104,450.886,201.233,451.216C202.362,451.545,205.135,452.412,206.854,452.306C208.573,452.201,209.238,451.123,210.401,450.507C211.565,449.891,213.228,449.737,215.55,449.615C217.871,449.493,220.852,449.402,223.006,449.438C225.16,449.474,226.487,449.637,228.34,449.579C230.193,449.521,232.572,449.243,233.93,448.056C235.289,446.869,235.628,444.773,236.519,443.996C237.41,443.219,238.853,443.762,241.98,444.21C245.107,444.658,249.917,445.012,252.055,446.323C254.194,447.634,253.662,449.901,254.376,450.733C255.09,451.564,257.05,450.959,259.222,449.962C261.393,448.966,263.775,447.578,264.818,446.658C265.86,445.737,265.563,445.285,266.591,445.622C267.619,445.959,269.973,447.086,271.558,448.07C273.144,449.055,273.961,449.898,274.865,449.889C275.769,449.881,276.76,449.021,277.418,448.717C278.077,448.413,278.402,448.664,277.493,448.193C276.584,447.722,274.44,446.529,275.668,445.952C276.895,445.374,281.494,445.412,285.209,446.135C288.924,446.857,291.756,448.264,292.512,449.734C293.269,451.203,291.95,452.736,292.88,452.694C293.81,452.652,296.989,451.035,298.769,450.34C300.55,449.644,300.934,449.87,301.145,449.806C301.356,449.742,301.396,449.387,302.179,449.123C302.961,448.86,304.488,448.688,305.16,449.183C305.833,449.678,305.651,450.841,307.611,450.674C309.57,450.508,313.671,449.013,315.562,447.659C317.454,446.305,317.136,445.092,318.808,446.53C320.481,447.969,324.142,452.06,326.586,453.555C329.03,455.051,330.257,453.95,332.226,453.86C334.195,453.77,336.906,454.69,338.937,454.214C340.968,453.738,342.318,451.865,343.415,449.652C344.511,447.439,345.354,444.885,346.858,445.883C348.363,446.881,350.529,451.431,351.587,454.039C352.646,456.647,352.596,457.314,354.697,456.98C356.799,456.646,361.051,455.312,364.425,452.988C367.799,450.665,370.296,447.352,372.415,446.581C374.535,445.809,376.277,447.58,376.889,447.158C377.5,446.736,376.982,444.121,378.095,443.965C379.208,443.809,381.951,446.112,383.207,448.141C384.464,450.171,384.233,451.928,386.341,452.115C388.45,452.303,392.898,450.921,394.692,451.811C396.486,452.701,395.626,455.863,397.848,455.727C400.07,455.59,405.374,452.155,407.45,451.278C409.526,450.401,408.373,452.083,408.7,453.677C409.026,455.271,410.832,456.777,413.506,454.776C416.179,452.775,419.721,447.266,424.207,444.907C428.694,442.547,434.126,443.335,437.219,444.599C440.311,445.863,441.065,447.602,441.371,449.517C441.678,451.431,441.537,453.521,442.408,453.169C443.279,452.816,445.162,450.022,447.065,448.889C448.968,447.756,450.891,448.286,452.035,448.319C453.179,448.353,453.544,447.89,453.327,448.145C453.11,448.399,452.312,449.371,453.361,449.797C454.411,450.223,457.308,450.103,459.324,450.847C461.34,451.59,462.474,453.198,463.039,452.097C463.605,450.997,463.602,447.188,464.048,445.871C464.494,444.553,465.389,445.725,467.882,447.876C470.375,450.026,474.465,453.154,478.561,453.33C482.658,453.507,486.761,450.732,489.18,450.488C491.599,450.244,492.334,452.531,494.41,451.67C496.485,450.81,499.902,446.801,503.443,446.884C506.984,446.967,510.649,451.14,512.734,452.324C514.82,453.509,515.325,451.706,515.491,450.939C515.658,450.172,515.486,450.443,515.633,450.487C515.781,450.531,516.248,450.35,515.821,449.069C515.393,447.788,514.071,445.408,516.035,446.292C517.999,447.175,523.248,451.322,527.37,453.707C531.491,456.093,534.485,456.715,535.405,455.861C536.326,455.006,535.173,452.673,536.979,451.555C538.785,450.436,543.55,450.531,547.436,450.303C551.321,450.074,554.327,449.523,555.388,450.446C556.449,451.37,555.564,453.769,555.174,454.361C554.783,454.952,554.886,453.736,558.214,453.361C561.543,452.986,568.098,453.451,572.876,454.338C577.655,455.224,580.658,456.531,582.402,456.745C584.147,456.958,584.634,456.077,586.019,455.069C587.404,454.06,589.687,452.923,591.662,452.038C593.637,451.154,595.304,450.522,596.368,450.413C597.432,450.305,597.893,450.72,598.351,449.433C598.808,448.146,599.263,445.158,600.294,446.467C601.325,447.776,602.931,453.382,606.738,454.572C610.545,455.762,616.553,452.536,619.094,450.994C621.634,449.452,620.707,449.594,620.372,448.638C620.038,447.683,620.296,445.631,622.732,446.404C625.168,447.177,629.781,450.775,632.619,451.301C635.458,451.826,636.521,449.28,637.622,448.526C638.723,447.773,639.862,448.813,639.104,449.096C638.345,449.378,635.688,448.904,637.328,448.471C638.968,448.038,644.904,447.648,646.781,448.28C648.658,448.913,646.476,450.568,647.944,450.581C649.411,450.593,654.528,448.962,657.149,449.241C659.77,449.519,659.894,451.707,662.009,450.625C664.124,449.543,668.23,445.191,671.801,443.727C675.372,442.262,678.408,443.686,680.039,443.929C681.67,444.173,681.896,443.236,684.078,443.087C686.26,442.939,690.398,443.578,692.95,443.868C695.503,444.158,696.468,444.098,699.309,445.066C702.149,446.033,706.864,448.026,708.505,449.064C710.146,450.101,708.713,450.183,710.006,449.642C711.298,449.101,715.316,447.937,718.501,448.428C721.686,448.918,724.038,451.062,725.132,451.279C726.226,451.497,726.061,449.788,726.474,450.376C726.887,450.965,727.877,453.851,728.369,455.208C728.862,456.565,728.858,456.393,731.747,455.318C734.637,454.243,740.421,452.265,744.391,451.431C748.361,450.597,750.518,450.906,751.701,451.819C752.883,452.732,753.092,454.249,753.962,453.89C754.832,453.53,756.364,451.295,758.169,450.706C759.973,450.117,762.05,451.173,762.657,452.625C763.263,454.076,762.399,455.923,764.493,456.903C766.587,457.883,771.64,457.997,773.737,456.351C775.834,454.705,774.976,451.299,776.917,449.061C778.859,446.823,783.599,445.754,786.193,446.29C788.787,446.827,789.235,448.969,792.65,448.803C796.065,448.637,802.449,446.163,804.473,445.652C806.497,445.142,804.162,446.594,807.587,448.351C811.012,450.108,820.198,452.168,825.825,451.76C831.453,451.351,833.523,448.473,834.203,448.172C834.883,447.872,834.173,450.148,835.27,450.679C836.367,451.21,839.271,449.997,841.626,448.659C843.982,447.321,845.79,445.858,846.855,446.31C847.92,446.762,848.242,449.129,848.857,449.634C849.471,450.14,850.378,448.785,851.757,449.424C853.137,450.063,854.989,452.697,857.203,454.151C859.417,455.605,861.993,455.88,863.426,453.872C864.86,451.865,865.151,447.577,866.593,446.806C868.035,446.035,870.629,448.782,871.23,450.138C871.83,451.494,870.438,451.46,873.408,452.645C876.378,453.83,883.709,456.234,888.503,456.908C893.296,457.583,895.552,456.527,897.497,455.306C899.443,454.085,901.078,452.697,903.157,452.256C905.236,451.814,907.759,452.317,909.047,450.924C910.335,449.532,910.389,446.242,911.587,445.748C912.785,445.253,915.127,447.553,915.302,448.918C915.478,450.283,913.487,450.713,914.917,451.128C916.347,451.543,921.198,451.944,924.546,453.208C927.893,454.472,929.738,456.601,931.558,456.457C933.378,456.313,935.173,453.898,937.725,453.278C940.277,452.658,943.585,453.833,945.027,453.22C946.468,452.608,946.042,450.209,946.877,447.793C947.712,445.377,949.806,442.944,953.211,443.481C956.616,444.018,961.33,447.524,964.316,448.828C967.301,450.132,968.556,449.233,969.727,449.791C970.897,450.349,971.981,452.363,971.599,451.725C971.218,451.087,969.37,447.797,971.379,446.94C973.388,446.083,979.255,447.66,981.507,446.385C983.76,445.109,982.398,440.982,982.355,438.131C982.312,435.28,983.589,433.707,983.715,430.922C983.842,428.137,982.818,424.14,979.733,419.957C976.647,415.774,971.5,411.406,968.626,409.752C965.752,408.098,965.15,409.159,965.014,409.625C964.878,410.09,965.208,409.961,964.44,410.575C963.672,411.189,961.806,412.545,960.001,413.812C958.195,415.078,956.449,416.255,955.019,415.484C953.589,414.714,952.475,411.996,952.249,411.035C952.023,410.075,952.687,410.872,951.263,410.945C949.84,411.018,946.33,410.367,944.988,409.662C943.646,408.958,944.473,408.2,943.834,408.101C943.196,408.001,941.092,408.56,940.092,409.194C939.091,409.828,939.194,410.537,938.913,410.172C938.632,409.807,937.967,408.367,936.893,408.797C935.818,409.227,934.333,411.526,933.222,412.172C932.111,412.818,931.373,411.811,930.919,410.795C930.465,409.78,930.295,408.755,929.211,408.141C928.126,407.527,926.126,407.324,925.882,407.864C925.638,408.403,927.151,409.687,926.117,410.522C925.084,411.356,921.505,411.743,919.102,411.43C916.7,411.116,915.473,410.102,914.102,409.108C912.731,408.113,911.215,407.137,909.053,406.985C906.891,406.834,904.082,407.506,902.425,409.371C900.768,411.237,900.263,414.295,897.772,415.686C895.281,417.077,890.805,416.801,887.247,416.027C883.689,415.253,881.05,413.981,879.204,412.616C877.358,411.251,876.305,409.793,876.613,409.553C876.921,409.313,878.591,410.291,876.747,410.036C874.902,409.782,869.542,408.294,867.208,407.393C864.874,406.491,865.565,406.175,865.189,407.496C864.813,408.817,863.37,411.774,860.873,412.899C858.376,414.023,854.826,413.314,853.512,412.371C852.199,411.427,853.123,410.247,851.328,409.719C849.532,409.19,845.017,409.313,843.256,409.411C841.496,409.508,842.49,409.581,842.16,408.335C841.829,407.089,840.174,404.524,837.034,403.821C833.893,403.117,829.268,404.276,825.308,406.358C821.349,408.441,818.055,411.448,816.829,411.255C815.603,411.062,816.443,407.67,815.251,406.675C814.059,405.68,810.834,407.083,808.799,408.076C806.765,409.069,805.921,409.652,805.475,409.936C805.029,410.22,804.981,410.205,805.06,410.36C805.139,410.515,805.344,410.839,805.161,410.588C804.978,410.336,804.406,409.509,803.633,409.538C802.86,409.567,801.886,410.452,802.225,411.254C802.563,412.056,804.215,412.775,803.048,411.715C801.881,410.654,797.896,407.814,793.761,407.44C789.625,407.066,785.34,409.158,783.42,409.585C781.5,410.012,781.947,408.774,780.957,408.62C779.967,408.467,777.542,409.397,776.576,409.135C775.61,408.874,776.104,407.419,776.961,407.203C777.819,406.986,779.04,408.008,777.247,408.096C775.455,408.185,770.651,407.342,766.261,407.059C761.87,406.776,757.895,407.055,754.087,407.795C750.278,408.536,746.636,409.738,744.87,408.724C743.104,407.71,743.214,404.48,742.319,404.564C741.424,404.648,739.524,408.046,736.899,408.766C734.274,409.485,730.925,407.526,728.835,406.422C726.744,405.319,725.913,405.071,725.581,406.903C725.25,408.736,725.418,412.648,724.389,412.938C723.359,413.228,721.132,409.895,718.924,409.349C716.716,408.804,714.527,411.046,710.604,411.5C706.682,411.954,701.025,410.619,696.834,409.554C692.643,408.489,689.918,407.693,687.547,406.387C685.175,405.081,683.158,403.264,682.381,404.805C681.604,406.346,682.067,411.245,679.658,412.934C677.249,414.623,671.967,413.103,669.178,412.974C666.389,412.844,666.092,414.105,663.832,412.98C661.572,411.855,657.349,408.345,654.903,407.734C652.456,407.124,651.787,409.414,651.814,409.948C651.84,410.481,652.564,409.259,650.993,407.763C649.423,406.267,645.559,404.497,643.537,403.949C641.515,403.4,641.335,404.073,639.936,405.369C638.536,406.664,635.916,408.583,634.065,409.308C632.215,410.033,631.133,409.564,630.422,409.688C629.71,409.812,629.37,410.529,629.507,411.155C629.645,411.781,630.26,412.315,629.083,412.58C627.906,412.845,624.936,412.841,620.158,412.189C615.38,411.538,608.793,410.24,604.994,410.059C601.194,409.878,600.182,410.814,598.056,411.281C595.93,411.747,592.69,411.743,591.138,411.59C589.585,411.436,589.719,411.133,590.173,410.608C590.627,410.082,591.402,409.334,590.161,408.716C588.919,408.099,585.662,407.611,582.746,408.866C579.83,410.121,577.254,413.119,576.835,413.96C576.416,414.801,578.152,413.486,576.257,412.641C574.363,411.797,568.836,411.423,566.53,410.691C564.224,409.959,565.139,408.868,563.817,408.063C562.495,407.257,558.936,406.737,556.769,407.884C554.603,409.03,553.829,411.843,552.707,412.722C551.585,413.6,550.115,412.544,549.49,411.648C548.864,410.752,549.083,410.016,548.416,409.786C547.749,409.556,546.196,409.831,545.319,409.895C544.443,409.958,544.244,409.809,543.646,409.537C543.047,409.265,542.049,408.869,540.675,407.689C539.302,406.51,537.554,404.547,536.142,405.62C534.731,406.693,533.656,410.803,532.267,412.291C530.877,413.779,529.172,412.647,527.867,411.68C526.562,410.713,525.658,409.911,524.64,408.623C523.621,407.336,522.49,405.561,521.105,405.381C519.721,405.2,518.082,406.614,517.963,408.288C517.843,409.963,519.242,411.899,518.785,412.199C518.328,412.499,516.015,411.163,511.846,410.586C507.678,410.008,501.655,410.189,498.3,410.227C494.946,410.265,494.26,410.159,495.035,409.156C495.809,408.154,498.042,406.255,496.671,406.88C495.301,407.505,490.325,410.654,486.515,412.233C482.705,413.813,480.059,413.823,478.073,413.723C476.086,413.622,474.759,413.411,475.01,412.547C475.261,411.682,477.09,410.163,476.151,409.6C475.211,409.038,471.504,409.431,469.183,409.421C466.863,409.41,465.93,408.995,464.423,409.2C462.916,409.406,460.835,410.232,458.65,411.616C456.465,413,454.176,414.942,451.438,414.297C448.701,413.651,445.515,410.417,442.673,410.328C439.831,410.238,437.332,413.293,436.449,413.824C435.565,414.355,436.297,412.363,436.105,410.894C435.913,409.425,434.797,408.479,432.11,408.567C429.424,408.655,425.166,409.778,423.698,410.146C422.231,410.514,423.553,410.128,423.466,409.547C423.379,408.966,421.883,408.19,419.274,408.168C416.665,408.146,412.944,408.878,410.981,408.643C409.017,408.408,408.812,407.206,408.2,407.066C407.587,406.926,406.567,407.849,405.334,408.59C404.101,409.331,402.656,409.891,402.318,409.013C401.981,408.135,402.752,405.819,401.295,405.522C399.838,405.224,396.153,406.946,394.669,409.424C393.185,411.902,393.902,415.137,391.926,414.936C389.949,414.734,385.28,411.096,382.903,410.275C380.526,409.453,380.443,411.447,379.658,411.555C378.874,411.664,377.39,409.888,377.23,410.097C377.071,410.305,378.237,412.497,375.567,411.842C372.897,411.187,366.391,407.684,362.085,406.896C357.779,406.107,355.674,408.034,354.576,410.3C353.478,412.566,353.388,415.173,351.879,415.281C350.37,415.388,347.442,412.997,346.558,411.036C345.674,409.075,346.834,407.544,345.087,406.77C343.341,405.995,338.687,405.976,335.636,405.394C332.585,404.813,331.137,403.67,329.028,402.779C326.919,401.888,324.149,401.249,322.051,402.978C319.952,404.708,318.525,408.806,317.121,409.562C315.717,410.318,314.335,407.732,312.568,407.503C310.801,407.275,308.649,409.404,307.338,410.303C306.027,411.203,305.557,410.873,305.037,411.158C304.518,411.442,303.95,412.341,302.196,412.942C300.442,413.543,297.502,413.847,295.34,413.453C293.178,413.059,291.793,411.968,291.392,410.075C290.991,408.182,291.573,405.486,290.536,405.369C289.498,405.252,286.839,407.714,286.515,409.687C286.191,411.659,288.202,413.142,284.81,412.067C281.418,410.992,272.623,407.36,268.135,406.096C263.647,404.833,263.465,405.938,262.448,406.855C261.43,407.772,259.578,408.501,258.191,409.993C256.805,411.485,255.886,413.739,255.399,414.162C254.913,414.585,254.859,413.177,253.428,412.147C251.997,411.116,249.19,410.464,247.505,410.75C245.82,411.037,245.257,412.263,244.553,412.729C243.849,413.195,243.003,412.901,242.692,411.185C242.381,409.47,242.604,406.333,241.98,406.038C241.356,405.743,239.885,408.29,237.107,409.242C234.328,410.193,230.242,409.55,227.595,408.072C224.947,406.594,223.737,404.281,222.24,405.176C220.743,406.071,218.959,410.173,216.829,410.362C214.698,410.552,212.221,406.828,209.884,404.532C207.546,402.235,205.348,401.365,202.127,402.368C198.906,403.371,194.663,406.246,192.771,408.034C190.88,409.821,191.34,410.521,190.778,409.48C190.217,408.438,188.634,405.655,187.463,404.958C186.292,404.262,185.532,405.651,183.777,406.925C182.021,408.199,179.268,409.359,177.143,410.222C175.018,411.086,173.52,411.654,171.785,412.923C170.05,414.192,168.078,416.162,165.275,416.332C162.472,416.503,158.838,414.874,155.586,413.549C152.335,412.223,149.465,411.201,147.418,411.258C145.371,411.314,144.146,412.45,143.05,412.395C141.954,412.341,140.985,411.095,140.43,411.9C139.875,412.704,139.732,415.559,139.75,416.047C139.768,416.535,139.947,414.655,137.013,413.305C134.079,411.955,128.032,411.134,126.307,411.115C124.582,411.096,127.179,411.878,125.337,410.618C123.495,409.358,117.215,406.056,114.088,405.269C110.961,404.482,110.988,406.211,109.211,409.065C107.434,411.92,103.853,415.901,100.225,414.637C96.597,413.374,92.922,406.866,89.202,405.16C85.483,403.453,81.72,406.547,79.917,408.146C78.114,409.745,78.273,409.848,78.164,410.199C78.056,410.55,77.681,411.149,76.992,410.875C76.302,410.601,75.297,409.453,73.307,409.374C71.316,409.295,68.339,410.285,66.792,410.55C65.244,410.816,65.126,410.357,64.428,409.274C63.73,408.191,62.452,406.485,60.231,406.769C58.01,407.053,54.845,409.327,53.75,410.977C52.654,412.627,53.628,413.652,53.667,412.658C53.706,411.664,52.809,408.652,51.112,408.206C49.415,407.759,46.917,409.88,42.763,410.676C38.609,411.471,32.797,410.943,29.117,410.839C25.436,410.736,23.885,411.058,23.574,410.648C23.263,410.238,24.191,409.096,23.826,408.579C23.461,408.062,21.804,408.171,20.017,408.774C18.23,409.376,16.313,410.472,15.175,408.891C14.037,407.309,13.677,403.05,12.553,400.194C11.428,397.337,9.539,395.883,10.321,392.705C11.104,389.527,14.559,384.625,18.274,380.711C21.99,376.796,25.967,373.87,26.581,372.026C27.196,370.182,24.447,369.42,25.294,368.427C26.141,367.433,30.583,366.209,35.382,365.814C40.181,365.419,45.335,365.853,48.358,365.876C51.38,365.899,52.271,365.511,54.524,364.969C56.778,364.428,60.394,363.732,62.691,364.614C64.988,365.496,65.964,367.955,65.673,369.018C65.381,370.081,63.82,369.747,64.366,369.984C64.911,370.221,67.562,371.029,69.945,371.17C72.328,371.311,74.443,370.785,73.87,370.805C73.298,370.825,70.038,371.391,71.126,372.445C72.213,373.499,77.646,375.041,82.421,374.556C87.195,374.072,91.31,371.562,94.611,369.515C97.913,367.469,100.401,365.886,102.815,365.147C105.228,364.409,107.567,364.515,110.217,365.723C112.868,366.932,115.83,369.242,117.011,369.865C118.193,370.487,117.593,369.422,117.475,368.813C117.356,368.204,117.719,368.051,118.94,367.597C120.162,367.144,122.243,366.388,124.366,366.577C126.488,366.765,128.653,367.896,129.996,369.896C131.34,371.896,131.863,374.764,132.502,375.373C133.141,375.982,133.895,374.331,134.744,372.344C135.593,370.357,136.535,368.035,138.607,366.673C140.678,365.312,143.88,364.911,147.419,366.306C150.958,367.701,154.835,370.892,158.36,372.939C161.884,374.986,165.056,375.89,167.319,375.144C169.582,374.397,170.936,372.001,171.804,372.013C172.672,372.025,173.054,374.445,174.017,374.394C174.98,374.343,176.525,371.819,177.416,370.008C178.307,368.197,178.544,367.099,180.203,368.308C181.862,369.517,184.942,373.034,185.65,373.562C186.358,374.091,184.694,371.632,186.587,370.814C188.48,369.996,193.929,370.82,198.244,369.477C202.558,368.133,205.737,364.624,207.31,364.059C208.883,363.495,208.85,365.876,210.742,367.108C212.633,368.34,216.449,368.423,218.694,368.692C220.939,368.962,221.614,369.417,222.02,369.656C222.425,369.895,222.561,369.919,223.525,369.16C224.488,368.402,226.28,366.86,227.772,366.57C229.265,366.279,230.459,367.238,229.678,367.708C228.898,368.177,226.142,368.156,228.678,368.225C231.213,368.294,239.039,368.453,244.385,368.906C249.731,369.359,252.597,370.106,255.464,370.652C258.331,371.198,261.198,371.544,262.169,372.039C263.141,372.535,262.217,373.179,263.684,373.062C265.151,372.946,269.009,372.068,270.729,371.777C272.449,371.487,272.031,371.785,272.145,372.837C272.258,373.89,272.902,375.697,274.558,375.47C276.213,375.243,278.88,372.983,280.969,371.818C283.057,370.652,284.568,370.58,284.63,369.044C284.692,367.508,283.306,364.507,284.402,365.182C285.498,365.856,289.077,370.206,292.149,371.553C295.221,372.9,297.786,371.246,299.429,370.349C301.071,369.452,301.789,369.313,302.484,368.907C303.179,368.5,303.85,367.826,304.564,367.901C305.278,367.975,306.035,368.799,306.534,369.261C307.032,369.724,307.273,369.826,306.87,369.495C306.468,369.164,305.423,368.4,307.289,368.451C309.155,368.501,313.931,369.366,315.333,370.347C316.735,371.328,314.761,372.426,316.003,371.903C317.246,371.381,321.704,369.238,323.8,368.713C325.896,368.187,325.63,369.277,326.291,369.068C326.952,368.86,328.539,367.352,329.93,366.017C331.32,364.683,332.513,363.523,336.282,363.595C340.051,363.667,346.395,364.971,349.195,366.811C351.995,368.65,351.251,371.026,351.691,371.055C352.131,371.084,353.755,368.768,356.548,367.363C359.341,365.958,363.303,365.463,365.699,366.053C368.095,366.643,368.925,368.319,368.918,369.728C368.91,371.137,368.065,372.281,368.76,372.334C369.454,372.388,371.688,371.352,374.173,370.619C376.658,369.886,379.394,369.456,381.051,369.861C382.708,370.265,383.287,371.505,383.24,371.855C383.194,372.205,382.523,371.666,383.432,371.23C384.341,370.794,386.831,370.461,389.351,369.549C391.871,368.637,394.421,367.146,394.575,367.278C394.729,367.41,392.488,369.165,393.335,370.211C394.182,371.256,398.117,371.592,401.187,371.527C404.257,371.462,406.462,370.997,409.687,371.058C412.912,371.119,417.158,371.705,419.162,372.007C421.165,372.308,420.927,372.324,421.766,372.067C422.605,371.81,424.521,371.281,425.21,370.278C425.899,369.275,425.361,367.799,425.482,367.431C425.603,367.064,426.382,367.806,428.041,369.967C429.701,372.128,432.24,375.709,434.052,375.416C435.864,375.123,436.947,370.956,439.537,369.293C442.127,367.631,446.224,368.472,446.969,369.075C447.714,369.678,445.107,370.042,447.267,369.253C449.427,368.464,456.355,366.522,460.358,365.608C464.362,364.695,465.441,364.809,466.602,366.939C467.763,369.069,469.007,373.215,470.657,374.933C472.308,376.651,474.365,375.941,476.295,374.184C478.224,372.427,480.026,369.623,481.9,369.294C483.774,368.965,485.72,371.111,487.331,371.643C488.942,372.176,490.218,371.095,491.576,370.405C492.934,369.715,494.374,369.415,495.83,369.231C497.285,369.047,498.756,368.979,499.55,369.377C500.344,369.776,500.46,370.642,500.256,371.405C500.051,372.168,499.525,372.827,501.001,371.575C502.477,370.322,505.954,367.157,507.866,366.166C509.778,365.176,510.124,366.359,511.057,366.006C511.99,365.653,513.509,363.763,515.555,363.79C517.601,363.816,520.174,365.76,523.212,367.192C526.25,368.625,529.753,369.546,532.185,369.959C534.616,370.373,535.977,370.278,536.361,369.99C536.745,369.702,536.153,369.22,537.002,370.476C537.851,371.731,540.141,374.724,542.53,376.065C544.918,377.405,547.405,377.093,549.794,376.335C552.183,375.577,554.476,374.373,556.078,371.783C557.681,369.193,558.595,365.217,560.546,364.758C562.498,364.299,565.489,367.357,566.559,369.022C567.63,370.686,566.781,370.958,567.422,372.54C568.063,374.122,570.194,377.014,571.938,376.124C573.682,375.234,575.039,370.561,576.417,369.107C577.795,367.652,579.193,369.417,581.937,369.422C584.682,369.427,588.772,367.671,592.052,368.186C595.332,368.701,597.802,371.488,600.411,373.017C603.021,374.547,605.771,374.821,606.17,373.614C606.568,372.407,604.615,369.719,607.042,367.417C609.469,365.115,616.277,363.198,620.864,364.035C625.45,364.872,627.815,368.463,629.631,369.353C631.447,370.242,632.715,368.43,633.341,366.926C633.967,365.421,633.951,364.224,635.6,365.026C637.249,365.827,640.561,368.627,643.586,369.569C646.611,370.511,649.347,369.594,651.089,370.417C652.832,371.239,653.58,373.801,654.329,374.092C655.077,374.382,655.826,372.403,656.003,370.25C656.179,368.098,655.784,365.774,658.447,365.603C661.11,365.431,666.831,367.413,670.64,369.53C674.45,371.646,676.348,373.897,677.781,374.108C679.213,374.319,680.18,372.49,680.355,370.675C680.53,368.86,679.913,367.059,681.134,366.733C682.354,366.406,685.412,367.554,686.805,367.928C688.198,368.303,687.927,367.903,688.469,367.842C689.01,367.78,690.363,368.057,691.486,367.658C692.609,367.258,693.502,366.181,695.587,367.015C697.673,367.848,700.951,370.591,702.17,370.851C703.389,371.111,702.549,368.888,703.732,367.062C704.914,365.237,708.12,363.808,711.962,364.246C715.804,364.685,720.283,366.991,722.579,369.055C724.874,371.118,724.986,372.939,725.773,373.107C726.56,373.275,728.023,371.789,728.389,370.803C728.754,369.817,728.022,369.33,727.179,368.48C726.337,367.629,725.385,366.415,727.822,367.205C730.259,367.994,736.086,370.788,739.052,370.896C742.017,371.004,742.12,368.426,744.127,368.155C746.135,367.883,750.045,369.918,753.512,370.328C756.979,370.738,760.002,369.524,761.492,369.247C762.983,368.969,762.94,369.629,763.555,369.288C764.17,368.948,765.443,367.608,766.527,367.517C767.61,367.426,768.503,368.585,769.503,368.174C770.504,367.763,771.612,365.782,771.954,366.778C772.297,367.774,771.874,371.748,773.526,372.414C775.177,373.079,778.903,370.437,782.125,369.706C785.347,368.975,788.065,370.156,789.214,369.685C790.364,369.214,789.945,367.091,792.065,367.764C794.184,368.436,798.842,371.905,802.004,372.364C805.167,372.822,806.835,370.271,808.113,368.667C809.391,367.063,810.279,366.407,811.334,366.892C812.388,367.378,813.608,369.005,814.372,369.27C815.136,369.534,815.445,368.434,814.91,367.916C814.375,367.398,812.998,367.461,813.69,367.457C814.382,367.453,817.144,367.383,820.367,367.813C823.59,368.243,827.274,369.175,829.242,369.094C831.21,369.013,831.461,367.918,832.57,366.347C833.68,364.775,835.649,362.727,838.801,362.935C841.953,363.143,846.288,365.608,848.479,367.227C850.67,368.846,850.717,369.619,851.978,369.425C853.239,369.231,855.715,368.069,856.835,366.702C857.955,365.335,857.719,363.764,860.548,365.095C863.377,366.426,869.271,370.66,872.632,372.516C875.993,374.371,876.82,373.849,877.632,372.932C878.444,372.015,879.241,370.704,879.59,370.455C879.939,370.206,879.84,371.019,881.106,371.636C882.373,372.252,885.004,372.672,885.218,372.259C885.432,371.846,883.227,370.6,885.334,369.676C887.442,368.753,893.861,368.15,896.352,368.582C898.842,369.014,897.403,370.48,899.294,371.704C901.186,372.928,906.408,373.91,907.935,373.056C909.462,372.203,907.294,369.514,908.855,368.116C910.416,366.719,915.707,366.614,917.989,367.898C920.272,369.182,919.547,371.856,922.416,373.251C925.285,374.646,931.748,374.764,934.671,373.539C937.595,372.314,936.979,369.746,939.026,369.129C941.073,368.511,945.783,369.843,947.906,370.992C950.029,372.14,949.566,373.106,950.312,372.911C951.058,372.716,953.014,371.36,955.103,370.498C957.192,369.636,959.414,369.268,960.549,369.331C961.685,369.393,961.734,369.887,962.572,368.647C963.41,367.406,965.037,364.431,966.79,364.723C968.544,365.015,970.425,368.575,971.797,369.704C973.169,370.834,974.032,369.533,974.235,369.805C974.437,370.077,973.978,371.922,974.992,372.043C976.006,372.164,978.493,370.563,979.779,368.294C981.064,366.025,981.149,363.089,980.514,359.718C979.879,356.346,978.525,352.539,977.653,350.265C976.78,347.991,976.39,347.249,975.902,347.588C975.414,347.927,974.829,349.347,972.979,350.109C971.129,350.871,968.013,350.975,966.273,350.012C964.532,349.049,964.166,347.019,962.022,347.038C959.878,347.057,955.958,349.125,953.884,350.029C951.811,350.933,951.585,350.674,950.191,350.927C948.797,351.18,946.236,351.945,944.38,351.714C942.523,351.484,941.372,350.258,941.12,349.052C940.868,347.845,941.517,346.658,939.8,347.96C938.082,349.261,933.999,353.051,932.962,354.033C931.926,355.015,933.936,353.189,931.208,352.12C928.479,351.052,921.013,350.742,917.103,350.767C913.192,350.791,912.838,351.148,912.141,350.055C911.444,348.962,910.404,346.418,909.702,347.076C909,347.734,908.635,351.594,907.063,353.655C905.49,355.715,902.711,355.976,900.414,353.968C898.117,351.961,896.304,347.686,894.118,345.481C891.932,343.276,889.373,343.14,885.706,345.122C882.039,347.105,877.264,351.206,875.084,352.594C872.904,353.983,873.319,352.659,872.793,350.66C872.267,348.662,870.801,345.989,868.553,345.756C866.305,345.524,863.275,347.731,861.694,348.704C860.113,349.676,859.98,349.414,860.036,350.769C860.091,352.125,860.335,355.099,858.754,355.172C857.173,355.244,853.766,352.415,851.283,350.756C848.8,349.097,847.24,348.609,846.44,350.135C845.639,351.662,845.598,355.202,844.208,355.208C842.818,355.215,840.08,351.686,837.694,350.56C835.308,349.434,833.274,350.71,832.237,351.19C831.201,351.67,831.161,351.355,830.619,352.241C830.077,353.127,829.032,355.215,827.26,354.832C825.487,354.448,822.988,351.593,821.562,350.378C820.136,349.164,819.783,349.591,819.666,349.792C819.55,349.993,819.669,349.968,819.401,349.858C819.134,349.749,818.479,349.553,818.061,349.556C817.643,349.559,817.461,349.76,817.453,349.821C817.446,349.882,817.614,349.802,817.573,349.666C817.532,349.53,817.282,349.338,817.318,349.992C817.355,350.647,817.678,352.148,816.767,352.296C815.855,352.444,813.708,351.239,812.656,350.409C811.604,349.58,811.647,349.125,812.943,349.614C814.239,350.102,816.787,351.534,815.205,351.017C813.623,350.501,807.91,348.037,803.703,346.654C799.497,345.27,796.798,344.966,794.207,346.922C791.616,348.877,789.133,353.092,787.221,353.555C785.309,354.019,783.968,350.731,782.27,350.836C780.571,350.941,778.516,354.44,775.947,355.388C773.377,356.337,770.293,354.734,768.692,354.267C767.092,353.799,766.974,354.467,766.136,353.722C765.298,352.977,763.74,350.819,762.192,350.735C760.645,350.651,759.109,352.64,756.819,351.543C754.53,350.446,751.486,346.262,749.749,344.006C748.011,341.749,747.579,341.42,744.628,342.21C741.678,343,736.209,344.909,733.674,346.718C731.139,348.528,731.538,350.238,730.881,350.761C730.224,351.284,728.512,350.619,727.483,349.521C726.454,348.423,726.11,346.892,724.316,346.682C722.522,346.472,719.279,347.584,718.016,348.285C716.752,348.986,717.467,349.276,716.094,349.682C714.72,350.088,711.257,350.609,709.41,351.283C707.562,351.957,707.331,352.784,705.749,351.832C704.166,350.879,701.233,348.148,699.452,347.092C697.671,346.035,697.043,346.654,696.355,347.442C695.666,348.23,694.915,349.187,693.375,349.057C691.834,348.927,689.503,347.709,688.328,347.985C687.152,348.26,687.131,350.029,687.386,350.086C687.641,350.143,688.172,348.488,686.115,347.266C684.058,346.044,679.414,345.254,676.393,345.458C673.372,345.662,671.974,346.861,670.76,348.55C669.546,350.24,668.517,352.421,667.078,352.888C665.638,353.355,663.789,352.109,663.925,351.438C664.062,350.767,666.185,350.671,666.039,351.672C665.892,352.673,663.475,354.771,659.942,355.457C656.409,356.142,651.759,355.415,648.597,353.365C645.434,351.315,643.759,347.941,641.381,347.145C639.004,346.348,635.925,348.129,633.632,348.885C631.338,349.641,629.83,349.373,629.52,350.735C629.21,352.098,630.1,355.09,628.606,355.109C627.113,355.127,623.238,352.173,620.994,351.228C618.751,350.284,618.14,351.35,618.53,350.918C618.919,350.487,620.31,348.557,618.257,348.051C616.203,347.545,610.707,348.463,608.677,347.667C606.648,346.872,608.086,344.364,608.065,344.661C608.045,344.957,606.566,348.058,603.409,348.474C600.253,348.889,595.42,346.618,591.466,346.564C587.513,346.509,584.439,348.671,583.196,349.876C581.953,351.081,582.541,351.331,580.991,350.366C579.442,349.402,575.755,347.225,572.117,347.643C568.479,348.062,564.889,351.078,562.831,351.486C560.774,351.895,560.248,349.696,558.534,350.068C556.82,350.439,553.918,353.38,551.428,355.114C548.937,356.849,546.86,357.377,545.076,357.759C543.292,358.14,541.803,358.375,539.466,357.765C537.129,357.155,533.945,355.701,530.624,353.494C527.303,351.287,523.846,348.328,520.539,348.545C517.233,348.762,514.079,352.156,512.392,352.944C510.704,353.732,510.483,351.915,508.503,351.444C506.523,350.972,502.784,351.847,501.586,351.726C500.387,351.605,501.73,350.489,500.884,350.021C500.038,349.554,497.003,349.736,495.654,349.858C494.304,349.98,494.64,350.043,494.783,351.254C494.926,352.465,494.876,354.825,493.357,355.414C491.838,356.004,488.85,354.824,486.164,353.274C483.478,351.724,481.094,349.804,480.252,350.125C479.409,350.447,480.107,353.01,479.013,353.094C477.919,353.178,475.033,350.782,472.561,349.382C470.089,347.982,468.031,347.577,465.695,348.732C463.359,349.887,460.745,352.602,458.811,352.88C456.877,353.158,455.624,351,455.923,349.939C456.222,348.878,458.075,348.914,457.069,348.999C456.064,349.083,452.202,349.218,449.198,349.499C446.195,349.781,444.05,350.211,442.222,350.486C440.394,350.762,438.881,350.884,437.517,350.848C436.153,350.812,434.937,350.619,433.504,350.733C432.07,350.847,430.419,351.269,429.401,350.975C428.382,350.681,427.994,349.672,428.679,349.888C429.363,350.104,431.119,351.545,429.315,350.547C427.511,349.55,422.147,346.113,417.65,346.242C413.153,346.371,409.523,350.067,407.345,351.067C405.168,352.067,404.443,350.372,403.17,349.809C401.897,349.246,400.075,349.816,397.914,350.849C395.753,351.882,393.252,353.377,392.946,352.654C392.64,351.931,394.529,348.99,392.925,348.08C391.32,347.171,386.221,348.293,383.541,348.967C380.861,349.641,380.598,349.867,379.981,350.137C379.363,350.407,378.39,350.721,378.528,351.769C378.665,352.816,379.914,354.596,377.56,353.735C375.206,352.873,369.25,349.369,365.952,347.145C362.653,344.921,362.012,343.976,361.14,345.11C360.268,346.244,359.165,349.456,356.751,349.785C354.338,350.113,350.613,347.557,348.751,346.28L346.889,345.002"></path><path fill="none" stroke-width="1" style="stroke: rgb(0, 71, 171);" d="M9.502,500L8.277,498.523C7.053,497.045,4.604,494.09,5.762,490.732C6.919,487.373,11.682,483.611,13.914,481.274C16.147,478.937,15.847,478.025,17.375,475.051C18.903,472.077,22.259,467.042,24.505,462.712C26.751,458.382,27.889,454.758,29.496,454.719C31.104,454.68,33.182,458.227,34.422,458.744C35.662,459.261,36.063,456.749,39.14,456.156C42.217,455.563,47.969,456.888,50.633,457.36C53.297,457.831,52.872,457.448,53.343,456.781C53.813,456.113,55.178,455.161,55.309,455.736C55.44,456.31,54.337,458.412,58.483,459.596C62.629,460.779,72.025,461.043,76.812,460.952C81.598,460.86,81.775,460.411,81.242,459.523C80.709,458.635,79.467,457.307,82.016,457.604C84.565,457.901,90.905,459.824,94.579,460.106C98.253,460.388,99.262,459.03,99.814,459.676C100.367,460.322,100.463,462.972,102.511,463.865C104.559,464.757,108.559,463.891,111.633,463.005C114.708,462.119,116.855,461.213,117.638,460.781C118.421,460.349,117.838,460.391,118.184,460.156C118.531,459.922,119.807,459.41,120.635,459.394C121.463,459.377,121.844,459.854,122.004,460.016C122.165,460.178,122.106,460.024,122.115,459.647C122.125,459.27,122.203,458.671,121.965,459.272C121.727,459.873,121.173,461.674,122.511,461.536C123.848,461.397,127.077,459.319,129.065,458.07C131.053,456.821,131.8,456.4,133.092,456.876C134.383,457.352,136.219,458.724,137.074,460.019C137.929,461.313,137.802,462.53,138.936,462.703C140.069,462.877,142.463,462.008,143.798,460.008C145.133,458.009,145.409,454.879,146.385,456.03C147.36,457.181,149.036,462.612,152.56,464.159C156.085,465.705,161.459,463.366,163.228,461.917C164.997,460.467,163.159,459.907,165.205,458.497C167.251,457.086,173.18,454.826,178.226,454.77C183.272,454.713,187.436,456.861,189.46,456.812C191.485,456.762,191.369,454.515,193.795,455.468C196.22,456.42,201.186,460.572,204.013,462.231C206.841,463.89,207.529,463.057,208.146,462.273C208.763,461.49,209.309,460.755,209.775,460.573C210.24,460.391,210.625,460.761,210.451,461.333C210.276,461.905,209.542,462.679,210.637,463.013C211.733,463.347,214.658,463.24,216.557,462.898C218.455,462.555,219.328,461.977,219.811,461.299C220.294,460.62,220.388,459.842,220.197,458.998C220.005,458.155,219.529,457.246,220.52,457.33C221.512,457.414,223.972,458.492,225.424,458.205C226.876,457.919,227.319,456.269,226.915,456.253C226.511,456.236,225.26,457.854,227.402,458.507C229.544,459.16,235.079,458.849,238.51,459.153C241.94,459.457,243.266,460.377,244.354,459.992C245.441,459.608,246.291,457.919,246.835,457.689C247.38,457.46,247.618,458.691,248.509,459.002C249.4,459.314,250.943,458.707,252.507,459.379C254.07,460.05,255.655,462.001,257.005,463.734C258.355,465.467,259.471,466.983,262.255,466.349C265.039,465.715,269.492,462.932,272.741,462.075C275.991,461.219,278.036,462.29,278.557,463.191C279.078,464.092,278.073,464.824,279.603,463.701C281.132,462.579,285.194,459.603,286.441,457.913C287.688,456.224,286.12,455.82,287.845,456.362C289.57,456.903,294.589,458.389,297.229,459.055C299.869,459.721,300.13,459.567,301.041,458.336C301.951,457.105,303.51,454.797,306.093,455.675C308.676,456.554,312.282,460.62,315.667,462.25C319.053,463.88,322.219,463.073,324.403,461.993C326.587,460.913,327.789,459.56,327.89,459.879C327.991,460.198,326.991,462.19,327.595,462.048C328.199,461.906,330.407,459.63,332.609,459.95C334.811,460.27,337.007,463.186,338.97,463.217C340.933,463.247,342.663,460.392,343.171,458.385C343.678,456.378,342.964,455.22,345.082,456.991C347.201,458.762,352.153,463.463,356.885,465.451C361.616,467.439,366.127,466.716,367.804,465.041C369.482,463.366,368.326,460.741,370.289,461.039C372.253,461.336,377.335,464.558,380.179,465.123C383.023,465.689,383.629,463.599,385.242,462.122C386.854,460.645,389.473,459.782,391.63,459.916C393.787,460.05,395.482,461.183,397.692,462.175C399.902,463.168,402.627,464.022,405.126,464.392C407.625,464.762,409.898,464.65,412.754,463.821C415.61,462.992,419.049,461.446,420.85,460.474C422.65,459.502,422.812,459.103,422.392,458.182C421.972,457.262,420.971,455.819,422.546,455.596C424.12,455.373,428.27,456.369,430.503,457.302C432.736,458.236,433.052,459.107,433.505,458.175C433.958,457.243,434.549,454.508,435.971,454.615C437.394,454.723,439.648,457.672,440.597,459.609C441.546,461.547,441.19,462.472,442.708,462.512C444.227,462.551,447.621,461.704,449.417,462.315C451.214,462.927,451.413,464.997,452.629,464.949C453.844,464.9,456.075,462.732,457.86,460.288C459.644,457.844,460.982,455.124,462.292,455.575C463.601,456.025,464.883,459.647,466.694,462.495C468.506,465.344,470.847,467.42,473.09,467.317C475.332,467.214,477.475,464.932,479.048,462.287C480.621,459.642,481.622,456.634,483.643,456.882C485.663,457.13,488.702,460.634,491.188,461.727C493.674,462.82,495.607,461.503,495.798,460.639C495.989,459.776,494.439,459.368,495.075,459.36C495.712,459.352,498.536,459.744,499.664,458.61C500.793,457.475,500.226,454.813,502.351,454.834C504.476,454.855,509.293,457.559,511.459,459.394C513.625,461.229,513.14,462.196,513.899,462.124C514.658,462.052,516.661,460.942,518.513,460.836C520.366,460.73,522.068,461.628,523.032,461.629C523.996,461.629,524.223,460.733,524.143,460.151C524.062,459.569,523.674,459.302,523.82,459.282C523.965,459.261,524.644,459.488,525,460.461C525.355,461.434,525.386,463.153,526.046,462.861C526.705,462.569,527.992,460.268,529.655,459.212C531.318,458.157,533.356,458.348,534.821,459.246C536.286,460.144,537.178,461.75,538.335,462.348C539.492,462.946,540.914,462.537,541.506,462.008C542.099,461.48,541.861,460.833,543.81,460.272C545.758,459.71,549.894,459.235,552.026,459.276C554.158,459.318,554.287,459.877,555.249,460.473C556.212,461.07,558.009,461.704,559.014,461.948C560.019,462.191,560.233,462.045,560.036,462.169C559.839,462.294,559.231,462.69,561.389,462.788C563.548,462.885,568.474,462.685,570.337,462.844C572.2,463.004,571.002,463.525,572.341,462.804C573.68,462.083,577.556,460.121,579.57,459.456C581.584,458.792,581.736,459.424,583.449,459.696C585.161,459.967,588.434,459.877,589.851,459.885C591.269,459.893,590.832,459.998,592.625,459.76C594.419,459.521,598.444,458.94,600.296,458.994C602.149,459.047,601.828,459.737,600.916,461.084C600.005,462.43,598.503,464.434,600.175,464.334C601.846,464.234,606.69,462.029,609.518,461.026C612.346,460.023,613.158,460.221,613.936,461.759C614.715,463.298,615.46,466.176,615.927,466.072C616.394,465.968,616.582,462.881,618.585,462.755C620.588,462.629,624.406,465.463,627.831,464.123C631.256,462.783,634.288,457.27,639.498,455.916C644.709,454.562,652.099,457.369,654.921,459.244C657.744,461.12,656,462.065,657.004,461.918C658.008,461.77,661.761,460.53,664.032,459.794C666.303,459.057,667.092,458.825,667.587,458.727C668.081,458.629,668.28,458.665,669.387,458.332C670.493,457.998,672.508,457.294,673.538,456.935C674.568,456.576,674.615,456.562,674.575,456.019C674.535,455.476,674.408,454.403,677.695,455.885C680.982,457.368,687.683,461.406,690.434,463.103C693.185,464.801,691.986,464.158,693.518,462.929C695.05,461.7,699.313,459.885,702.344,459.493C705.375,459.102,707.173,460.133,708.531,460.266C709.889,460.398,710.806,459.631,710.085,459.637C709.365,459.642,707.007,460.419,707.586,461.006C708.164,461.594,711.679,461.992,715.364,463.171C719.049,464.35,722.905,466.31,726.426,467.01C729.947,467.709,733.134,467.148,735.739,465.886C738.345,464.624,740.369,462.662,741.186,460.92C742.004,459.178,741.615,457.656,743.013,457.101C744.411,456.545,747.595,456.956,749.381,459.188C751.166,461.419,751.554,465.471,754.035,466.403C756.516,467.334,761.091,465.145,764.567,464.423C768.042,463.701,770.419,464.446,771.304,464.63C772.188,464.814,771.579,464.437,772.512,464.161C773.444,463.885,775.918,463.709,778.902,462.709C781.886,461.708,785.381,459.883,786.857,459.576C788.332,459.269,787.788,460.48,789.526,460.782C791.263,461.083,795.283,460.475,797.361,460.33C799.44,460.184,799.578,460.501,800.038,461.307C800.499,462.113,801.282,463.409,800.719,463.155C800.155,462.901,798.246,461.099,800.236,460.484C802.225,459.869,808.114,460.443,810.359,459.625C812.605,458.808,811.207,456.599,813.582,456.309C815.958,456.019,822.106,457.647,824.033,459.376C825.96,461.105,823.666,462.934,824.359,464.543C825.052,466.153,828.731,467.544,832.795,466.533C836.858,465.523,841.306,462.112,843.889,460.721C846.473,459.33,847.192,459.96,847.308,458.972C847.424,457.983,846.937,455.376,848.789,455.552C850.641,455.727,854.831,458.684,856.873,459.915C858.914,461.147,858.806,460.653,858.515,458.899C858.224,457.144,857.75,454.13,859.366,454.21C860.982,454.29,864.687,457.465,866.916,460.399C869.145,463.333,869.897,466.027,872.313,465.654C874.73,465.281,878.809,461.841,881.176,460.728C883.542,459.615,884.195,460.829,884.943,461.258C885.691,461.686,886.534,461.329,886.741,460.627C886.949,459.924,886.521,458.876,886.461,457.97C886.401,457.065,886.709,456.302,888.354,456.216C889.998,456.131,892.978,456.723,895.155,457.221C897.331,457.719,898.704,458.123,899.666,458.675C900.628,459.226,901.179,459.925,901.561,459.964C901.943,460.002,902.155,459.379,903.083,458.014C904.011,456.648,905.654,454.54,906.836,454.722C908.018,454.905,908.738,457.378,910.948,457.798C913.157,458.218,916.855,456.584,917.842,456.986C918.83,457.388,917.107,459.825,918.535,460.955C919.962,462.085,924.541,461.909,925.834,462.264C927.127,462.618,925.135,463.505,926.246,462.396C927.358,461.287,931.572,458.183,935.63,457.417C939.687,456.652,943.587,458.224,945.613,458.71C947.639,459.196,947.789,458.595,948.643,457.702C949.497,456.809,951.053,455.625,952.242,456.841C953.431,458.056,954.252,461.671,955.691,462.222C957.13,462.773,959.187,460.259,958.992,459.336C958.797,458.413,956.349,459.08,958.184,458.668C960.019,458.255,966.136,456.763,970.73,456.243C975.325,455.722,978.396,456.173,979.742,455.366C981.087,454.559,980.706,452.494,981.325,449.829C981.943,447.164,983.561,443.897,982.634,441.112C981.707,438.326,978.236,436.02,975.573,434.217C972.909,432.414,971.053,431.114,969.153,431.729C967.253,432.344,965.309,434.874,963.106,434.014C960.903,433.154,958.441,428.904,956.984,427.594C955.528,426.284,955.077,427.914,954.841,430.126C954.606,432.337,954.585,435.129,954.253,435.561C953.921,435.993,953.278,434.064,949.72,431.675C946.161,429.286,939.688,426.437,936.567,427.229C933.446,428.021,933.679,432.454,929.826,432.582C925.974,432.71,918.037,428.533,913.026,427.072C908.014,425.612,905.929,426.869,905.09,429.052C904.252,431.234,904.662,434.343,901.77,434.286C898.879,434.23,892.686,431.008,890.154,428.642C887.622,426.276,888.751,424.766,886.106,425.573C883.461,426.381,877.043,429.505,874.12,430.85C871.197,432.194,871.769,431.758,870.994,432.328C870.219,432.898,868.096,434.473,865.218,433.327C862.34,432.182,858.706,428.315,855.491,426.892C852.277,425.47,849.48,426.492,847.385,425.879C845.29,425.265,843.895,423.016,841.719,424.238C839.543,425.461,836.585,430.155,833.764,431.122C830.943,432.089,828.258,429.328,827.922,428.813C827.586,428.297,829.598,430.026,828.743,430.822C827.888,431.618,824.165,431.481,820.613,432.123C817.061,432.764,813.679,434.185,811.936,433.841C810.192,433.497,810.087,431.388,809.847,430.494C809.608,429.599,809.235,429.92,807.975,430.685C806.715,431.451,804.569,432.662,802.788,432.944C801.007,433.227,799.592,432.58,798.816,431.819C798.039,431.058,797.901,430.183,795.999,430.073C794.097,429.963,790.43,430.618,786.471,431.237C782.511,431.856,778.258,432.439,775.636,432.258C773.014,432.077,772.021,431.132,771.289,430.375C770.557,429.618,770.084,429.048,768.97,430.275C767.856,431.501,766.101,434.523,764.66,434.494C763.22,434.465,762.095,431.385,761.314,430.738C760.533,430.091,760.096,431.876,759.249,432.366C758.403,432.856,757.147,432.051,756.521,431.279C755.896,430.507,755.9,429.768,754.135,429.801C752.37,429.835,748.834,430.641,748.439,430.912C748.043,431.182,750.788,430.918,749.038,429.148C747.289,427.377,741.046,424.1,735.46,423.669C729.874,423.237,724.946,425.651,721.509,427.888C718.072,430.124,716.127,432.184,714.45,433.495C712.772,434.807,711.362,435.371,710.134,434.765C708.905,434.158,707.858,432.381,707.234,432.151C706.61,431.921,706.409,433.239,705.444,432.984C704.479,432.729,702.751,430.902,701.706,430.246C700.66,429.59,700.297,430.106,699.737,430.682C699.176,431.258,698.418,431.895,697.843,431.734C697.268,431.574,696.875,430.616,696.535,430.337C696.195,430.059,695.907,430.459,695.55,430.945C695.192,431.431,694.765,432.001,694.403,431.782C694.041,431.563,693.744,430.553,692.126,430.041C690.509,429.529,687.572,429.514,686.073,429.808C684.575,430.102,684.516,430.705,683.877,430.107C683.237,429.508,682.018,427.708,680.064,427.673C678.111,427.639,675.424,429.369,675.656,430.278C675.888,431.186,679.04,431.273,677.656,431.8C676.271,432.328,670.35,433.298,666.547,433.137C662.743,432.976,661.057,431.683,660.014,430.863C658.972,430.043,658.573,429.696,658.432,428.858C658.291,428.021,658.407,426.693,656.51,425.768C654.613,424.843,650.704,424.321,647.633,423.896C644.562,423.472,642.33,423.144,640.407,423.168C638.485,423.191,636.873,423.565,635.594,424.586C634.316,425.607,633.372,427.274,631.249,427.251C629.127,427.228,625.826,425.514,622.961,426.14C620.096,426.765,617.667,429.731,615.938,430.338C614.209,430.944,613.181,429.192,612.393,428.81C611.604,428.428,611.055,429.417,610.685,429.509C610.315,429.601,610.124,428.796,608.574,428.786C607.024,428.775,604.114,429.559,602.41,429.743C600.707,429.927,600.21,429.512,600.284,429.667C600.357,429.822,601.001,430.547,599.686,429.5C598.372,428.454,595.099,425.635,593.743,425.316C592.388,424.996,592.951,427.176,591.218,428.825C589.484,430.474,585.455,431.591,584.11,431.623C582.765,431.654,584.104,430.601,582.955,430.253C581.806,429.905,578.169,430.264,574.836,429.851C571.504,429.439,568.474,428.256,566.729,428.178C564.983,428.101,564.521,429.13,564.5,429.225C564.478,429.321,564.898,428.484,565.122,428.179C565.346,427.874,565.375,428.1,564.106,428.239C562.836,428.379,560.268,428.431,559.464,428.329C558.66,428.227,559.62,427.971,559.101,426.79C558.582,425.61,556.582,423.504,553.418,423.583C550.253,423.663,545.922,425.927,543.266,427.637C540.611,429.347,539.631,430.502,540.024,430.385C540.418,430.269,542.185,428.881,539.184,428.735C536.183,428.588,528.413,429.681,524.101,430.022C519.789,430.362,518.936,429.949,518.064,430.788C517.192,431.626,516.302,433.718,515.463,433.992C514.625,434.267,513.837,432.724,512.21,432.403C510.583,432.082,508.115,432.982,506.591,433.233C505.067,433.484,504.487,433.086,503.583,431.248C502.679,429.411,501.452,426.133,499.712,425.846C497.972,425.559,495.719,428.262,494.513,429.448C493.307,430.633,493.148,430.302,491.534,429.774C489.921,429.246,486.854,428.52,484.289,428.84C481.724,429.16,479.66,430.526,479.892,431.518C480.124,432.51,482.651,433.127,481.161,432.807C479.67,432.486,474.161,431.228,471.373,430.622C468.584,430.017,468.516,430.064,468.326,429.696C468.136,429.328,467.825,428.545,466.482,428.36C465.14,428.175,462.767,428.59,461.943,428.222C461.12,427.854,461.847,426.704,460.578,426.605C459.308,426.507,456.043,427.46,455.45,427.912C454.857,428.363,456.936,428.312,456.192,428.772C455.448,429.232,451.881,430.203,449.269,430.831C446.657,431.459,445,431.745,443.828,431.374C442.656,431.004,441.969,429.978,440.676,430.309C439.384,430.641,437.485,432.329,435.692,432.199C433.899,432.068,432.211,430.117,430.757,428.242C429.303,426.366,428.083,424.566,426.706,424.9C425.329,425.235,423.796,427.704,421.942,428.197C420.089,428.691,417.915,427.209,415.533,427.949C413.151,428.689,410.562,431.65,409.294,432.2C408.026,432.75,408.08,430.888,407.577,430.013C407.073,429.137,406.012,429.247,406.788,429.077C407.564,428.906,410.177,428.456,408.654,428.106C407.131,427.756,401.472,427.506,397.904,427.712C394.335,427.917,392.858,428.578,391.357,429.326C389.857,430.073,388.333,430.908,387.745,431.483C387.156,432.058,387.503,432.373,385.946,431.281C384.389,430.189,380.929,427.69,379.013,426.097C377.097,424.505,376.725,423.819,374.687,423.664C372.649,423.509,368.945,423.884,365.151,425.317C361.358,426.75,357.476,429.242,356.985,430.379C356.494,431.516,359.394,431.299,358.484,429.697C357.575,428.094,352.856,425.106,348.029,425.339C343.203,425.571,338.269,429.023,336.227,430.65C334.185,432.277,335.034,432.078,334.231,431.462C333.428,430.846,330.974,429.813,329.548,429.501C328.122,429.188,327.724,429.597,327.061,429.768C326.397,429.938,325.469,429.87,324.747,430.835C324.026,431.8,323.512,433.798,321.84,434.454C320.168,435.11,317.338,434.424,315.149,433.756C312.959,433.088,311.41,432.437,309.878,431.989C308.346,431.541,306.832,431.295,306.001,430.932C305.17,430.568,305.023,430.087,304.589,429.432C304.154,428.776,303.433,427.946,302.649,427.305C301.864,426.663,301.017,426.211,300.31,426.15C299.602,426.089,299.034,426.419,298.319,426.564C297.603,426.709,296.742,426.669,296.21,427.081C295.679,427.493,295.478,428.356,292.812,427.859C290.145,427.362,285.012,425.505,281.049,425.743C277.085,425.98,274.291,428.312,272.996,428.726C271.701,429.139,271.904,427.635,271.277,427.448C270.649,427.262,269.191,428.393,268.764,427.756C268.337,427.119,268.943,424.713,267.788,425.847C266.633,426.981,263.718,431.654,261.196,432.475C258.674,433.295,256.546,430.263,255.081,429.085C253.616,427.907,252.815,428.583,251.384,429.031C249.953,429.479,247.892,429.699,246.917,430.306C245.942,430.913,246.054,431.908,246.208,431.873C246.362,431.838,246.559,430.775,244.927,429.648C243.296,428.522,239.836,427.332,236.118,427.029C232.4,426.725,228.424,427.307,226.455,428.328C224.487,429.349,224.527,430.809,224.096,430.948C223.665,431.087,222.763,429.905,222.004,429.393C221.245,428.881,220.629,429.039,220.202,428.821C219.775,428.604,219.537,428.01,219.559,428.265C219.58,428.52,219.86,429.624,218.182,430.919C216.504,432.213,212.867,433.698,211.574,433.856C210.282,434.014,211.334,432.846,209.397,431.533C207.459,430.221,202.531,428.764,200.534,429.625C198.537,430.486,199.471,433.664,198.54,433.537C197.61,433.411,194.814,429.98,191.494,428.655C188.174,427.331,184.329,428.112,183.129,428.1C181.929,428.089,183.372,427.285,182.204,427.269C181.036,427.253,177.256,428.023,175.597,429.049C173.938,430.076,174.4,431.357,173.88,431.481C173.361,431.604,171.861,430.571,172.151,429.988C172.44,429.406,174.52,429.276,173.347,427.898C172.174,426.521,167.749,423.897,163.687,424.368C159.624,424.838,155.925,428.403,153.681,429.88C151.437,431.356,150.649,430.745,150.722,430.902C150.796,431.059,151.731,431.984,152.282,431.565C152.833,431.147,153,429.383,150.866,428.233C148.733,427.082,144.3,426.545,140.849,426.901C137.397,427.258,134.928,428.508,133.842,428.633C132.755,428.758,133.051,427.757,131.168,428.331C129.285,428.905,125.223,431.053,124.289,431.544C123.354,432.034,125.546,430.867,124.454,431.575C123.362,432.282,118.984,434.865,116.605,435.425C114.225,435.985,113.842,434.522,110.57,432.642C107.298,430.762,101.135,428.465,97.758,427.429C94.382,426.392,93.791,426.617,93.767,427.327C93.742,428.038,94.283,429.235,92.393,429.966C90.503,430.696,86.182,430.961,83.625,431.023C81.068,431.086,80.274,430.946,81,431.542C81.726,432.137,83.97,433.468,83.301,432.249C82.633,431.029,79.051,427.259,75.176,426.459C71.3,425.659,67.131,427.828,65.075,428.878C63.02,429.927,63.078,429.856,62.246,428.4C61.415,426.944,59.694,424.102,58.15,424.04C56.606,423.978,55.238,426.694,52.942,427.565C50.647,428.436,47.423,427.461,45.468,426.414C43.513,425.367,42.827,424.247,41.736,424.626C40.645,425.004,39.149,426.88,37.079,426.768C35.009,426.656,32.365,424.555,31.869,425.405C31.372,426.255,33.025,430.055,31.876,432.456C30.727,434.858,26.778,435.86,21.912,435.167C17.047,434.474,11.265,432.087,8.157,428.234C5.049,424.38,4.613,419.059,5.711,415.795C6.81,412.532,9.441,411.325,12.357,408.655C15.274,405.984,18.474,401.851,19.179,400.309C19.883,398.767,18.091,399.816,18.522,398.867C18.954,397.918,21.609,394.971,24.29,394.476C26.97,393.981,29.676,395.939,31.56,395.757C33.443,395.575,34.505,393.255,36.808,392.11C39.111,390.964,42.655,390.995,45.81,390.229C48.965,389.464,51.731,387.902,52.479,387.332C53.227,386.762,51.958,387.183,51.75,387.745C51.542,388.307,52.395,389.01,55.31,388.497C58.225,387.984,63.201,386.256,67.707,387.295C72.213,388.334,76.25,392.142,79.338,393.511C82.426,394.881,84.565,393.813,85.441,392.855C86.316,391.897,85.929,391.048,86.761,390.959C87.594,390.87,89.647,391.541,90.016,392.286C90.385,393.031,89.07,393.85,90.613,393.753C92.157,393.657,96.558,392.645,98.607,392.02C100.656,391.396,100.353,391.16,99.7,391.985C99.047,392.809,98.045,394.694,99.519,393.307C100.994,391.921,104.945,387.263,108.862,386.172C112.779,385.081,116.662,387.556,117.917,388.386C119.172,389.217,117.799,388.403,119.69,389.582C121.581,390.761,126.737,393.934,129.552,394.444C132.366,394.954,132.84,392.802,134.431,391.368C136.022,389.935,138.731,389.219,140.362,388.125C141.993,387.03,142.546,385.556,143.761,385.734C144.976,385.913,146.852,387.744,147.857,388.961C148.861,390.178,148.994,390.78,149.132,390.918C149.271,391.057,149.414,390.731,149.896,390.546C150.378,390.361,151.198,390.317,151.658,389.272C152.117,388.228,152.215,386.184,153.403,384.895C154.591,383.606,156.868,383.072,158.375,385.16C159.882,387.247,160.619,391.956,163.288,393.55C165.957,395.144,170.559,393.623,171.64,393.085C172.722,392.547,170.283,392.992,171.742,392.968C173.2,392.944,178.556,392.451,182.309,390.301C186.062,388.151,188.214,384.344,188.8,384.058C189.387,383.773,188.409,387.008,191.038,389.533C193.666,392.059,199.903,393.876,204.25,393.835C208.596,393.793,211.054,391.895,212.543,391.019C214.033,390.144,214.553,390.291,215.02,389.928C215.486,389.566,215.897,388.693,215.891,388.692C215.886,388.69,215.463,389.56,215.947,389.632C216.431,389.704,217.822,388.979,219.07,388.721C220.319,388.464,221.426,388.673,223.019,389.185C224.612,389.697,226.691,390.51,227.819,390.678C228.948,390.845,229.125,390.366,230.85,390.222C232.574,390.078,235.845,390.268,237.861,389.716C239.876,389.163,240.635,387.867,240.55,388.307C240.465,388.747,239.536,390.923,241.801,390.533C244.067,390.144,249.528,387.189,252.229,386.417C254.93,385.646,254.871,387.058,255.005,387.419C255.139,387.781,255.465,387.091,257.056,387.579C258.647,388.067,261.503,389.734,263.863,388.853C266.223,387.972,268.088,384.544,270.266,385.357C272.445,386.17,274.937,391.225,277.078,393.531C279.22,395.837,281.01,395.394,282.149,395.857C283.289,396.319,283.777,397.687,286.618,396.08C289.459,394.473,294.653,389.891,297.529,387.246C300.405,384.6,300.961,383.891,302.612,384.25C304.262,384.608,307.006,386.033,308.85,386.136C310.695,386.239,311.641,385.02,313.173,386.433C314.704,387.846,316.822,391.89,319.125,393.036C321.428,394.181,323.916,392.426,325.151,391.393C326.387,390.359,326.368,390.045,326.263,389.864C326.158,389.682,325.966,389.632,325.944,388.529C325.922,387.425,326.07,385.268,327.542,385.272C329.014,385.275,331.809,387.439,332.959,389.03C334.109,390.621,333.613,391.639,334.174,391.999C334.736,392.359,336.354,392.062,337.801,391.611C339.248,391.161,340.524,390.557,341.261,390.155C341.999,389.754,342.198,389.554,341.161,389.657C340.125,389.76,337.853,390.166,340.584,390.025C343.315,389.883,351.049,389.196,355.861,389.202C360.674,389.209,362.564,389.91,363.309,389.712C364.055,389.514,363.655,388.417,365.435,388.772C367.216,389.127,371.178,390.934,373.4,391.217C375.622,391.5,376.105,390.258,376.348,389.511C376.59,388.763,376.592,388.511,377.637,389.179C378.681,389.848,380.77,391.436,381.602,392.199C382.434,392.962,382.01,392.898,383.442,392.362C384.875,391.826,388.164,390.817,390.488,389.724C392.812,388.631,394.171,387.454,394.129,387.786C394.088,388.117,392.646,389.958,393.183,390.826C393.72,391.695,396.236,391.591,397.647,391.49C399.059,391.389,399.366,391.291,402.119,390.163C404.871,389.035,410.069,386.877,414.289,387.415C418.508,387.953,421.748,391.188,423.828,392.956C425.908,394.725,426.828,395.027,427.965,394.8C429.102,394.572,430.457,393.814,432.399,392.239C434.34,390.664,436.869,388.272,438.865,387.481C440.86,386.69,442.322,387.5,444.093,387.379C445.863,387.258,447.943,386.207,449.784,386.249C451.625,386.292,453.227,387.427,455.058,387.604C456.888,387.78,458.946,386.997,460.029,387.851C461.112,388.705,461.221,391.196,462.066,391.364C462.912,391.532,464.495,389.377,467.166,389.056C469.838,388.736,473.596,390.25,476.64,391.227C479.684,392.205,482.012,392.646,483.418,391.815C484.824,390.984,485.308,388.881,485.264,389.062C485.22,389.243,484.648,391.708,484.401,392.253C484.155,392.798,484.233,391.423,487.063,389.301C489.893,387.179,495.474,384.31,499.738,383.326C504.001,382.343,506.948,383.246,510.613,383.509C514.278,383.771,518.663,383.394,520.553,385.459C522.444,387.523,521.839,392.029,525.36,393.295C528.881,394.56,536.527,392.586,540.404,391.227C544.28,389.869,544.387,389.127,544.912,388.803C545.436,388.479,546.378,388.575,546.699,388.417C547.02,388.259,546.72,387.849,548.099,387.769C549.478,387.689,552.537,387.939,554.108,387.809C555.678,387.679,555.76,387.17,557.371,387.986C558.982,388.802,562.122,390.943,564.455,392.293C566.789,393.643,568.317,394.202,568.546,394.326C568.775,394.451,567.706,394.141,568.902,392.669C570.098,391.198,573.56,388.565,577.388,387.795C581.216,387.025,585.409,388.116,588.207,389.436C591.006,390.756,592.409,392.303,593.976,391.566C595.543,390.828,597.274,387.806,598.595,386.652C599.915,385.498,600.826,386.212,601.275,387.451C601.725,388.69,601.713,390.453,603.604,389.622C605.495,388.79,609.29,385.364,611.218,383.659C613.146,381.955,613.209,381.972,615.49,383.376C617.771,384.78,622.27,387.57,624.961,388.885C627.653,390.2,628.535,390.04,629.879,390.438C631.222,390.836,633.026,391.792,634.345,392.132C635.663,392.472,636.497,392.196,637.126,391.845C637.755,391.493,638.179,391.065,638.996,392.171C639.813,393.278,641.023,395.918,642.653,396.29C644.284,396.661,646.335,394.763,648.785,392.606C651.235,390.45,654.085,388.035,656.166,386.466C658.247,384.898,659.559,384.175,661.189,385.253C662.819,386.331,664.767,389.209,665.879,390.819C666.991,392.428,667.266,392.769,668.556,391.636C669.847,390.503,672.152,387.896,673.746,387.306C675.34,386.716,676.222,388.142,677.225,388.448C678.227,388.753,679.349,387.937,680.106,388.062C680.864,388.186,681.258,389.249,681.397,389.438C681.536,389.626,681.421,388.939,681.881,389.594C682.341,390.249,683.377,392.247,684.499,392.227C685.621,392.208,686.829,390.172,689.053,388.505C691.278,386.837,694.52,385.538,695.961,385.024C697.402,384.51,697.041,384.78,698.195,385.689C699.348,386.598,702.016,388.146,703.919,388.69C705.822,389.235,706.96,388.777,706.897,388.507C706.833,388.237,705.568,388.157,706.963,389.907C708.358,391.658,712.413,395.239,715.683,394.514C718.954,393.789,721.441,388.757,723.441,387.579C725.441,386.401,726.955,389.077,728.756,391.102C730.557,393.126,732.646,394.5,733.456,393.433C734.265,392.367,733.794,388.862,735.445,387.851C737.097,386.841,740.872,388.327,742.353,389.94C743.835,391.552,743.023,393.293,744.351,392.295C745.68,391.296,749.148,387.559,751.571,386.966C753.995,386.373,755.374,388.926,755.586,391.116C755.798,393.306,754.844,395.133,755.59,394.681C756.336,394.229,758.782,391.497,760.663,390.59C762.543,389.683,763.857,390.601,767.859,390.637C771.862,390.673,778.553,389.827,781.049,389.703C783.545,389.58,781.847,390.178,782.626,388.734C783.405,387.291,786.661,383.807,789.724,384.11C792.788,384.412,795.658,388.502,799.211,389.354C802.764,390.207,807,387.823,810.194,388.636C813.389,389.449,815.542,393.459,817.64,394.384C819.738,395.309,821.78,393.149,822.642,391.785C823.503,390.421,823.183,389.854,824.337,391.074C825.49,392.294,828.118,395.301,829.653,393.872C831.188,392.443,831.63,386.578,834.002,385.319C836.373,384.059,840.673,387.405,843.189,388.171C845.706,388.938,846.438,387.126,848.749,387.874C851.061,388.622,854.95,391.931,856.944,392.486C858.937,393.04,859.033,390.839,859.222,389.91C859.411,388.981,859.692,389.323,860.654,390.045C861.616,390.767,863.26,391.869,864.513,391.927C865.765,391.986,866.626,391.001,867.69,390.677C868.754,390.353,870.022,390.689,869.589,391.853C869.156,393.016,867.023,395.006,868.403,394.728C869.783,394.449,874.678,391.901,877.696,390.624C880.714,389.347,881.855,389.34,882.16,389.989C882.465,390.637,881.934,391.942,882.552,392.468C883.17,392.994,884.938,392.74,886.528,392.473C888.118,392.206,889.53,391.924,890.395,391.143C891.26,390.362,891.579,389.082,890.862,389.804C890.144,390.526,888.392,393.251,889.151,393.207C889.91,393.163,893.181,390.351,898.479,390.086C903.777,389.821,911.103,392.103,914.034,393.819C916.964,395.535,915.499,396.684,916.056,395.882C916.614,395.08,919.193,392.327,922.732,390.912C926.271,389.497,930.771,389.42,933.733,389.375C936.696,389.331,938.122,389.319,938.878,389.425C939.635,389.532,939.723,389.757,940.399,390.331C941.075,390.906,942.339,391.83,942.42,391.659C942.501,391.488,941.398,390.223,941.892,390.19C942.386,390.158,944.476,391.358,945.26,392.367C946.043,393.377,945.52,394.197,947.625,394.328C949.731,394.459,954.464,393.902,956.16,392.959C957.856,392.016,956.514,390.687,957.994,390.239C959.474,389.79,963.777,390.222,967.561,389.724C971.346,389.226,974.612,387.797,978.336,387.174C982.06,386.55,986.243,386.732,987.85,385.997C989.458,385.262,988.49,383.609,987.327,380.469C986.164,377.328,984.806,372.7,984.048,369.055C983.29,365.411,983.132,362.749,982.668,358.495C982.204,354.241,981.433,348.395,979.474,345.41C977.515,342.426,974.367,342.303,972.347,341.991C970.328,341.68,969.436,341.18,968.948,340.841C968.46,340.501,968.375,340.322,968.321,340.033C968.266,339.745,968.241,339.348,966.918,339.683C965.595,340.018,962.975,341.085,960.109,341.218C957.242,341.351,954.13,340.55,953.627,341.194C953.123,341.839,955.228,343.929,953.566,344.931C951.904,345.933,946.475,345.848,943.703,345.779C940.93,345.709,940.815,345.656,938.452,344.379C936.089,343.102,931.48,340.601,928.791,340.174C926.102,339.748,925.333,341.395,924.251,341.465C923.168,341.534,921.772,340.026,920.749,338.63C919.727,337.235,919.078,335.952,916.944,336.825C914.809,337.699,911.188,340.729,910.047,341.056C908.905,341.382,910.243,339.006,909.632,338.473C909.02,337.941,906.459,339.252,904.734,339.57C903.01,339.887,902.122,339.211,901.25,338.388C900.378,337.565,899.523,336.594,896.507,336.914C893.49,337.234,888.314,338.844,886.132,339.386C883.95,339.927,884.763,339.4,885.073,339.806C885.382,340.212,885.188,341.552,883.542,341.468C881.897,341.384,878.799,339.877,877.077,340.001C875.356,340.125,875.01,341.88,873.518,343.579C872.027,345.279,869.39,346.923,866.482,346.608C863.574,346.293,860.395,344.019,859.21,343.981C858.026,343.944,858.836,346.144,856.614,345.137C854.391,344.13,849.135,339.917,845.9,339.012C842.665,338.108,841.45,340.514,839.236,342.067C837.022,343.62,833.808,344.322,831.499,343.626C829.189,342.93,827.784,340.837,827.15,341.248C826.516,341.66,826.653,344.577,825.709,343.396C824.765,342.216,822.74,336.937,819.993,335.721C817.246,334.506,813.776,337.354,811.458,340.268C809.14,343.182,807.974,346.163,806.918,345.881C805.863,345.599,804.92,342.054,802.106,340.218C799.292,338.382,794.607,338.256,790.961,339.255C787.314,340.254,784.705,342.377,782.879,342.953C781.054,343.53,780.012,342.558,780.033,342.515C780.055,342.471,781.14,343.356,779.602,341.948C778.063,340.539,773.9,336.836,771.068,336.264C768.236,335.692,766.735,338.25,766.355,340.099C765.975,341.948,766.716,343.088,764.703,342.818C762.689,342.549,757.922,340.87,755.515,339.925C753.108,338.98,753.061,338.768,753.24,338.634C753.419,338.5,753.824,338.443,752.487,337.947C751.149,337.451,748.069,336.516,745.805,338.005C743.541,339.494,742.093,343.406,740.406,344.149C738.718,344.893,736.792,342.467,734.992,341.285C733.192,340.104,731.518,340.167,730.429,340.733C729.339,341.3,728.834,342.37,728.914,343.117C728.995,343.864,729.662,344.289,728.56,344.845C727.458,345.402,724.586,346.09,721.497,346.109C718.408,346.128,715.102,345.476,711.61,343.925C708.118,342.373,704.44,339.922,702.498,339.106C700.556,338.291,700.349,339.112,701.74,339.003C703.13,338.895,706.117,337.857,704.28,338.016C702.443,338.176,695.782,339.534,692.544,340.154C689.306,340.773,689.491,340.654,689.111,341.146C688.732,341.639,687.789,342.742,686.998,341.957C686.207,341.172,685.569,338.498,682.907,337.448C680.244,336.398,675.556,336.972,673.088,336.911C670.619,336.849,670.37,336.154,669.794,337.21C669.217,338.267,668.313,341.075,668.12,342.141C667.928,343.206,668.448,342.528,665.716,342.112C662.984,341.697,656.999,341.544,653.736,341.178C650.473,340.812,649.932,340.233,650.373,338.981C650.813,337.729,652.237,335.805,651.072,334.911C649.907,334.017,646.155,334.154,643.116,335.221C640.077,336.289,637.751,338.285,636.024,338.067C634.297,337.848,633.168,335.413,632.33,336.615C631.492,337.816,630.945,342.654,627.945,344.122C624.945,345.59,619.493,343.689,616.717,341.993C613.942,340.296,613.844,338.803,613.131,337.11C612.418,335.418,611.09,333.525,609.208,333.258C607.325,332.991,604.887,334.35,602.595,335.392C600.303,336.434,598.157,337.159,596.867,337.958C595.577,338.757,595.143,339.629,595.247,339.543C595.351,339.457,595.994,338.413,595.053,338.933C594.113,339.453,591.59,341.537,589.624,341.92C587.657,342.303,586.247,340.985,585.49,340.438C584.733,339.89,584.631,340.112,583.33,339.256C582.029,338.4,579.53,336.466,577.762,336.421C575.993,336.375,574.955,338.22,574.865,339.149C574.775,340.078,575.634,340.091,575.056,340.206C574.479,340.32,572.465,340.536,571.791,341.327C571.116,342.118,571.78,343.484,570.589,343.803C569.398,344.121,566.352,343.392,564.75,342.719C563.149,342.046,562.992,341.429,562.121,342.412C561.25,343.394,559.665,345.977,558.432,345.778C557.199,345.58,556.318,342.602,555.313,341.848C554.308,341.095,553.179,342.567,550.678,342.309C548.177,342.051,544.303,340.063,542.958,338.075C541.613,336.087,542.796,334.099,540.772,334.016C538.748,333.934,533.516,335.758,531.238,336.125C528.961,336.492,529.638,335.402,528.739,334.291C527.84,333.18,525.365,332.048,522.591,332.65C519.816,333.253,516.741,335.589,514.265,337.063C511.789,338.536,509.912,339.146,508.569,340.055C507.226,340.963,506.418,342.17,505.802,342.032C505.185,341.894,504.761,340.411,504.192,340.263C503.623,340.115,502.91,341.302,501.288,340.725C499.665,340.149,497.132,337.808,494.308,336.861C491.485,335.915,488.37,336.362,487.98,337.235C487.591,338.109,489.927,339.41,491.095,340.06L492.263,340.711"></path>
      </svg>
      