<?xml version="1.0" encoding="UTF-8" standalone="no"?>
    <!-- Created with Inkscape (https://labs.original.art.br/draw) -->
    
    <svg
       xmlns:dc="http://purl.org/dc/elements/1.1/"
       xmlns:cc="http://creativecommons.org/ns#"
       xmlns:rdf="http://www.w3.org/1999/02/22-rdf-syntax-ns#"
       xmlns:svg="http://www.w3.org/2000/svg"
       xmlns="http://www.w3.org/2000/svg"
       xmlns:sodipodi="http://sodipodi.sourceforge.net/DTD/sodipodi-0.dtd"
       xmlns:inkscape="http://www.inkscape.org/namespaces/inkscape"
       id="uJa0V"
       version="1.1"
       inkscape:version="0.91 r13725"
       width="undefined"
       height="undefined"
       viewBox="0 0 undefined undefined"
       sodipodi:docname="_paths4.svg">
      <metadata
         id="metadata3404">
        <rdf:RDF>
          <cc:Work
             rdf:about="">
            <dc:format>image/svg+xml</dc:format>
            <dc:type
               rdf:resource="http://purl.org/dc/dcmitype/StillImage" />
            <dc:title></dc:title>
          </cc:Work>
        </rdf:RDF>
      </metadata>
      undefined<path fill="none" stroke-width="1" style="stroke: rgb(0, 71, 171);" d="M950,500C950,500,927.752,662.347,889.471,727.406C851.19,792.464,823.357,865.088,720.312,890.352C617.267,915.615,372.295,908.946,271.202,878.986C170.109,849.026,137.044,812.077,113.752,710.591C90.461,609.104,100.586,368.823,131.454,270.067C162.322,171.311,179.567,41.161,298.962,118.056C418.356,194.951,819.344,599.256,847.82,731.436C876.295,863.617,489.148,1002.576,469.812,911.138C450.476,819.7,675.584,212.758,731.803,182.806C788.023,152.855,854.073,615.943,807.129,731.43C760.186,846.918,445.508,934.844,450.141,875.733C454.774,816.621,781.996,401.464,834.927,376.762C887.858,352.06,771.53,694.551,767.727,727.519C763.923,760.488,842.24,561.971,812.108,574.574C781.976,587.177,675.183,778.773,586.935,803.138C498.687,827.502,346.068,784.509,282.62,720.76C219.172,657.011,122.944,468.72,206.247,420.641C289.55,372.562,687.58,405.202,782.439,432.284C877.298,459.367,790.136,537.078,775.4,583.136C760.664,629.193,729.632,676.603,694.024,708.63C658.415,740.657,628.303,779.173,561.751,775.298C495.199,771.423,334.482,764.885,294.711,685.379C254.941,605.873,297.326,372.604,323.125,298.261C348.924,223.917,405.538,247.021,449.504,239.316C493.47,231.612,545.507,236.671,586.921,252.032C628.335,267.393,670.27,297.691,697.986,331.484C725.703,365.277,779.526,385.761,753.22,454.791C726.915,523.82,622.024,732.237,540.153,745.66C458.282,759.083,305.482,591.017,261.993,535.329C218.504,479.64,263.61,448.34,279.22,411.529C294.829,374.718,281.778,304.112,355.649,314.461C429.521,324.809,676.882,413.315,722.447,473.619C768.012,533.924,662.404,636.133,629.04,676.288C595.675,716.443,558.403,711.601,522.26,714.549C486.117,717.498,446.753,744.259,412.184,693.981C377.614,643.704,319.273,472.934,314.841,412.885C310.41,352.836,327.894,337.061,385.597,333.689C443.3,330.317,610.251,366.822,661.06,392.653C711.869,418.483,689.342,456.615,690.451,488.673C691.559,520.73,682.707,557.169,667.71,584.997C652.713,612.824,627.062,639.421,600.471,655.639C573.88,671.856,549.917,692.61,508.163,682.3C466.409,671.99,380.325,623.287,349.948,593.777C319.571,564.268,325.985,534.526,325.901,505.24C325.817,475.954,334.971,442.987,349.442,418.063C363.914,393.139,388.063,369.682,412.73,355.696C437.396,341.709,459.829,323.588,497.441,334.147C535.052,344.705,615.683,378.413,638.4,419.047C661.117,459.681,644.337,542.402,633.741,577.951C623.146,613.5,609.721,624.422,574.828,632.342C539.935,640.262,457.878,636.045,424.384,625.472C390.889,614.898,384.744,590.481,373.863,568.899C362.982,547.316,348.604,527.425,359.098,495.977C369.593,464.529,412.393,401.631,436.831,380.213C461.27,358.795,483.489,365.71,505.729,367.469C527.97,369.228,552.347,378.286,570.275,390.767C588.204,403.249,604.321,422.956,613.298,442.359C622.276,461.763,644.426,478.294,624.142,507.191C603.857,536.088,522.958,601.367,491.592,615.74C460.226,630.113,451.197,604.85,435.945,593.427C420.693,582.004,407.291,564.335,400.079,547.2C392.866,530.066,390.298,508.589,392.669,490.619C395.039,472.649,403.462,453.322,414.302,439.378C425.141,425.435,441.738,413.341,457.706,406.958C473.674,400.575,493.564,398.588,510.109,401.079C526.654,403.571,544.321,411.688,556.976,421.908C569.632,432.128,580.453,447.619,586.042,462.4C591.632,477.18,593.085,495.472,590.513,510.593C587.942,525.713,580.177,541.733,570.612,553.122C561.046,564.511,546.695,574.095,533.121,578.927C519.547,583.759,502.865,584.726,489.168,582.115C475.471,579.504,461.082,572.139,450.938,563.263C440.793,554.387,432.412,541.208,428.3,528.86C424.189,516.512,423.661,501.449,426.269,489.172C428.877,476.896,435.798,464.124,443.95,455.201C452.102,446.278,464.077,439.061,475.182,435.634C486.287,432.206,499.721,432.069,510.581,434.634C521.44,437.199,532.611,443.629,540.337,451.023C548.062,458.418,554.15,469.157,556.932,479.002C559.713,488.846,559.507,500.645,557.027,510.091C554.546,519.536,548.652,529.126,542.048,535.677C535.444,542.229,525.97,547.227,517.402,549.4C508.834,551.574,498.679,551.072,490.641,548.717C482.604,546.361,474.579,541.048,469.176,535.267C463.772,529.487,459.825,521.308,458.222,514.032C456.619,506.757,457.367,498.25,459.557,491.614C461.747,484.979,466.435,478.499,471.36,474.218C476.286,469.938,483.142,467.003,489.11,465.931C495.079,464.86,501.932,465.807,507.173,467.791C512.413,469.774,517.369,473.793,520.553,477.831C523.737,481.87,525.7,487.375,526.278,492.023C526.856,496.671,525.759,501.867,524.022,505.72C522.285,509.573,518.979,513.026,515.858,515.141C512.737,517.256,508.61,518.287,505.295,518.411C501.981,518.535,498.444,517.336,495.97,515.886C493.496,514.436,491.525,511.886,490.451,509.713C489.377,507.54,489.237,504.816,489.527,502.847C489.818,500.877,491.071,499.002,492.194,497.898C493.317,496.793,495.068,496.279,496.264,496.218C497.46,496.157,498.755,496.866,499.368,497.532C499.98,498.197,499.528,500.094,499.94,500.212C500.351,500.329,500.967,498.479,501.839,498.236C502.71,497.994,504.185,498.074,505.169,498.757C506.152,499.439,507.37,500.8,507.741,502.33C508.113,503.861,508.188,506.115,507.397,507.941C506.605,509.768,505.05,512.008,502.991,513.288C500.933,514.568,497.913,515.696,495.046,515.622C492.18,515.549,488.543,514.704,485.792,512.85C483.041,510.997,480.078,507.944,478.542,504.501C477.005,501.058,476.017,496.381,476.573,492.192C477.13,488.002,478.937,483.009,481.88,479.365C484.822,475.72,489.393,472.078,494.228,470.326C499.064,468.574,505.393,467.773,510.892,468.851C516.39,469.929,522.712,472.739,527.219,476.797C531.725,480.854,536.002,486.963,537.93,493.198C539.857,499.432,540.423,507.41,538.784,514.203C537.145,520.996,533.295,528.618,528.096,533.954C522.898,539.29,515.231,544.158,507.591,546.22C499.952,548.282,490.332,548.565,482.26,546.327C474.189,544.09,465.296,539.16,459.163,532.796C453.029,526.431,447.616,517.188,445.46,508.139C443.304,499.089,443.353,487.834,446.226,478.5C449.1,469.166,455.147,459.033,462.702,452.136C470.257,445.238,481.093,439.324,491.556,437.115C502.02,434.907,514.903,435.335,525.482,438.882C536.061,442.43,547.403,449.631,555.031,458.4C562.658,467.168,569.027,479.614,571.248,491.495C573.468,503.375,572.613,517.876,568.355,529.683C564.097,541.489,555.705,554.008,545.7,562.332C535.694,570.656,521.623,577.433,508.323,579.624C495.023,581.816,478.914,580.486,465.9,575.481C452.885,570.476,439.221,560.857,430.236,549.593C421.251,538.329,414.112,522.619,411.991,507.898C409.87,493.177,411.721,475.47,417.51,461.267C423.299,447.064,434.179,432.289,446.723,422.678C459.267,413.067,476.63,405.612,492.772,403.603C508.915,401.594,528.206,404.014,543.577,410.622C558.949,417.23,574.801,429.407,585.001,443.251C595.202,457.095,602.926,476.123,604.782,493.687C606.639,511.25,603.603,532.113,596.14,548.631C588.678,565.15,575.17,582.043,560.006,592.798C544.842,603.552,524.138,611.497,505.155,613.16C486.172,614.822,463.751,611.124,446.108,602.772C428.464,594.42,410.566,579.55,399.294,563.046C388.022,546.543,379.903,524.152,378.476,503.752C377.049,483.351,381.455,459.389,390.731,440.643C400.008,421.897,416.273,403.029,434.134,391.277C451.994,379.525,467.444,363.421,497.896,370.131C528.347,376.841,593.459,409.927,616.842,431.536C640.224,453.145,637.358,476.561,638.191,499.787C639.023,523.012,633.064,550.008,621.838,570.887C610.612,591.766,591.464,612.459,570.837,625.059C550.211,637.658,522.709,646.009,498.079,646.483C473.448,646.957,444.961,640.152,423.053,627.902C401.146,615.652,379.597,595.016,366.631,572.983C353.666,550.95,345.334,521.731,345.26,495.701C345.185,469.671,352.88,439.713,366.187,416.802C379.494,393.891,401.645,371.526,425.1,358.233C448.556,344.94,469.394,326.178,506.919,337.042C544.443,347.906,622.88,394.625,650.249,423.415C677.617,452.205,671.979,480.972,671.13,509.781C670.282,538.589,660.674,571.426,645.159,596.264C629.643,621.102,604.377,644.977,578.037,658.808C551.697,672.64,531.342,708.424,487.117,679.252C442.891,650.079,307.234,546.203,312.683,483.774C318.131,421.345,469.051,328.795,519.808,304.678C570.565,280.562,589.705,320.018,617.222,339.076C644.738,358.134,670.568,388.267,684.907,419.026C699.247,449.785,720.498,477.844,703.259,523.628C686.021,569.412,637.36,669.242,581.474,693.73C525.588,718.217,410.703,726.127,367.943,670.552C325.182,614.976,296.818,426.473,324.911,360.277C353.005,294.082,482.73,279.998,536.503,273.379C590.276,266.76,616.884,296.38,647.549,320.564C678.214,344.747,752.792,348.281,720.492,418.482C688.192,488.682,517.776,696.923,453.749,741.767C389.723,786.612,370.158,736.421,336.334,687.548C302.509,638.676,255.41,508.447,250.804,448.531C246.197,388.614,280.387,360.737,308.694,328.051C337.002,295.364,379.28,266.508,420.65,252.412C462.02,238.317,500.912,215.234,556.915,243.477C612.919,271.72,777.569,333.975,756.669,421.869C735.77,509.764,507.237,724.268,431.518,770.847C355.799,817.425,242.091,758.273,302.354,701.341C362.617,644.408,725.248,425.386,793.098,429.25C860.948,433.114,797.256,677.447,709.452,724.524C621.648,771.601,336.808,789.641,266.275,711.714C195.741,633.786,257.725,345.642,286.251,256.961C314.776,168.279,383.733,190.922,437.428,179.623C491.123,168.324,545.155,116.469,608.419,189.167C671.682,261.866,798.891,520.343,817.01,615.813C835.129,711.283,760.657,724.881,717.132,761.989C673.607,799.097,612.615,828.286,555.858,838.461C499.101,848.636,443.808,870.76,376.589,823.037C309.37,775.314,186.793,627.831,152.544,552.123C118.295,476.415,149.781,424.366,171.094,368.79C192.407,313.214,168.911,172.231,280.422,218.666C391.933,265.1,796.995,538.145,840.159,647.399C883.323,756.653,654.556,926.147,539.407,874.189C424.259,822.23,192.766,451.52,149.268,335.646C105.77,219.771,164.766,188.461,278.417,178.942C392.068,169.423,734.146,194.679,831.175,278.53C928.204,362.382,912.628,576.966,860.59,682.05C808.553,787.135,610.908,878.506,518.949,909.038C426.989,939.57,348.594,993.729,308.833,865.241C269.071,736.753,249.722,269.988,280.378,138.11C311.034,6.233,383.766,13.828,492.768,73.975C601.769,134.123,934.095,354.213,934.389,498.994C934.684,643.775,632.441,906.581,494.536,942.662C356.631,978.742,102.975,862.973,106.959,715.477C110.942,567.982,421.359,29.477,518.437,57.689C615.516,85.901,761.879,816.986,689.431,884.749C616.983,952.512,171.852,568.249,83.75,464.267C-4.353,360.284,84.61,322.8,160.818,260.853C237.026,198.905,444.601,107.544,540.999,92.581C637.398,77.618,785.807,51.735,739.209,171.076C692.611,290.418,364.707,763.024,261.411,808.63C158.115,854.236,102.485,555.056,119.433,444.711C136.38,334.367,253.197,98.042,363.095,146.563C472.993,195.084,735.846,619.991,778.821,735.837C821.795,851.684,678.63,822.065,620.943,841.641C563.255,861.218,399.054,926.657,432.696,853.295C466.339,779.933,771.506,422.205,822.799,401.467C874.093,380.729,779.012,659.742,740.459,728.869C701.907,797.996,644.855,801.621,591.483,816.231C538.111,830.842,473.233,830.713,420.227,816.532C367.22,802.352,311.366,797.613,273.444,731.148C235.522,664.683,140.852,505.947,192.693,417.743C244.534,329.538,496.393,223.694,584.488,201.922C672.584,180.15,687.205,223.018,721.266,287.109C755.326,351.199,791.737,514.603,788.852,586.467C785.967,658.331,787.949,700.18,703.956,718.294C619.962,736.409,365.792,721.621,284.89,695.154C203.988,668.687,227.764,606.964,218.544,559.493C209.324,512.023,191.623,465.937,229.572,410.331C267.521,354.724,386.017,254.447,446.237,225.852C506.457,197.257,537.478,201.111,590.895,238.759C644.311,276.407,739.871,392.888,766.735,451.74C793.599,510.592,789.369,540.624,752.078,591.871C714.786,643.117,618.384,747.637,542.986,759.221C467.589,770.805,348.792,698.252,299.692,661.373C250.592,624.493,220.526,605.491,248.389,537.944C276.251,470.396,409.379,299.877,466.866,256.089C524.353,212.301,555.836,258.796,593.312,275.215C630.787,291.634,671.308,301.59,691.718,354.605C712.128,407.619,743.687,531.025,715.771,593.301C687.854,655.577,575.687,709.343,524.217,728.261C472.748,747.179,441.386,723.172,406.954,706.806C372.522,690.441,304.825,699.922,317.625,630.069C330.424,560.216,424.637,328.603,483.752,287.688C542.866,246.773,635.562,351.295,672.31,384.577C709.058,417.858,702.912,453.001,704.239,487.378C705.565,521.754,696.246,560.897,680.267,590.836C664.288,620.776,653.347,653.564,608.365,667.017C563.383,680.47,455.363,682.477,410.376,671.555C365.39,660.634,350.661,644.776,338.445,601.487C326.229,558.199,325.954,454.727,337.08,411.824C348.207,368.921,378.584,359.323,405.206,344.071C431.827,328.819,455.988,309.041,496.811,320.314C537.634,331.587,621.043,381.852,650.143,411.711C679.243,441.57,672.117,470.659,671.409,499.471C670.701,528.283,674.778,557.313,645.896,584.583C617.013,611.854,536.169,654.272,498.113,663.094C460.056,671.916,440.261,652.058,417.558,637.518C394.854,622.978,373.942,599.45,361.891,575.854C349.841,552.258,343.774,521.928,345.253,495.94C346.732,469.952,343.976,443.644,370.765,419.925C397.554,396.206,471.535,360.457,505.988,353.627C540.441,346.797,557.568,365.253,577.484,378.947C597.4,392.641,615.404,414.338,625.487,435.793C635.569,457.247,640.063,484.526,637.978,507.672C635.893,530.818,626.191,556.122,612.976,574.671C599.761,593.22,579.035,609.817,558.687,618.966C538.339,628.116,512.61,631.892,490.889,629.566C469.168,627.24,445.562,617.708,428.361,605.009C411.161,592.31,395.938,572.592,387.687,553.373C379.436,534.153,376.33,509.988,378.856,489.695C381.382,469.401,390.697,447.481,402.843,431.61C414.99,415.739,433.665,401.857,451.734,394.469C469.802,387.081,492.389,384.599,511.255,387.284C530.121,389.968,550.366,399.019,564.928,410.576C579.489,422.134,592.065,439.732,598.625,456.629C605.185,473.526,607.09,494.522,604.289,511.96C601.487,529.397,592.748,547.981,581.814,561.254C570.881,574.527,554.395,585.831,538.69,591.6C522.984,597.369,503.59,598.744,487.58,595.866C471.569,592.989,454.634,584.607,442.627,574.333C430.621,564.06,420.553,548.719,415.539,534.224C410.526,519.729,409.633,501.949,412.545,487.364C415.458,472.779,423.435,457.476,433.015,446.714C442.594,435.951,456.758,427.084,470.023,422.788C483.289,418.493,499.447,418.035,512.609,420.941C525.771,423.847,539.456,431.374,548.998,440.226C558.539,449.077,566.243,462.031,569.858,474.05C573.472,486.069,573.543,500.595,570.685,512.339C567.826,524.082,560.795,536.166,552.705,544.51C544.615,552.854,532.901,559.433,522.146,562.404C511.391,565.375,498.503,565.108,488.175,562.337C477.846,559.567,467.344,553.076,460.173,545.781C453.001,538.486,447.51,528.041,445.144,518.566C442.779,509.091,443.337,497.849,445.979,488.929C448.62,480.01,454.524,471.072,460.992,465.048C467.46,459.023,476.606,454.581,484.787,452.783C492.967,450.984,502.558,451.785,510.075,454.257C517.592,456.728,524.985,462.003,529.888,467.612C534.791,473.221,538.224,481.04,539.494,487.911C540.764,494.782,539.769,502.718,537.507,508.839C535.246,514.961,530.645,520.83,525.927,524.639C521.208,528.447,514.743,530.911,509.195,531.692C503.646,532.472,497.369,531.33,492.635,529.319C487.901,527.309,483.534,523.425,480.792,519.627C478.051,515.829,476.515,510.746,476.186,506.532C475.856,502.319,477.096,497.702,478.816,494.347C480.536,490.992,483.659,488.104,486.506,486.402C489.353,484.699,493.03,484.051,495.897,484.133C498.763,484.215,501.718,485.503,503.704,486.893C505.691,488.282,507.123,490.603,507.815,492.469C508.507,494.336,508.309,496.582,507.856,498.091C507.402,499.599,506.113,500.892,505.094,501.521C504.075,502.149,502.598,502.15,501.741,501.86C500.884,501.571,500.369,499.69,499.951,499.785C499.534,499.88,499.883,501.799,499.235,502.431C498.588,503.062,497.256,503.7,496.065,503.575C494.875,503.45,493.153,502.842,492.092,501.678C491.03,500.514,489.88,498.574,489.696,496.592C489.512,494.61,489.799,491.898,490.989,489.786C492.178,487.674,494.285,485.234,496.834,483.92C499.382,482.606,502.978,481.599,506.281,481.902C509.584,482.205,513.65,483.457,516.652,485.737C519.655,488.018,522.77,491.644,524.296,495.585C525.822,499.526,526.637,504.773,525.809,509.384C524.981,513.994,522.724,519.385,519.326,523.246C515.929,527.107,510.763,530.852,505.424,532.55C500.084,534.247,493.189,534.823,487.287,533.431C481.385,532.039,474.698,528.739,470.011,524.198C465.323,519.658,460.992,512.935,459.163,506.191C457.335,499.446,457.047,490.912,459.041,483.733C461.034,476.555,465.417,468.601,471.124,463.12C476.831,457.639,485.131,452.767,493.285,450.849C501.438,448.931,511.605,448.978,520.043,451.611C528.481,454.243,537.671,459.746,543.912,466.644C550.153,473.543,555.521,483.436,557.488,493.002C559.455,502.568,559.024,514.361,555.715,524.041C552.406,533.721,545.747,544.116,537.634,551.083C529.521,558.049,518.019,563.867,507.037,565.842C496.055,567.817,482.648,566.955,471.744,562.933C460.84,558.911,449.272,551.059,441.614,541.709C433.955,532.359,427.734,519.232,425.792,506.832C423.85,494.433,425.191,479.421,429.963,467.312C434.735,455.203,443.815,442.496,454.424,434.181C465.033,425.866,479.798,419.287,493.616,417.42C507.434,415.553,524.04,417.418,537.333,422.976C550.627,428.534,564.439,438.878,573.376,450.766C582.313,462.655,589.201,479.071,590.953,494.308C592.705,509.546,590.267,527.732,583.888,542.19C577.508,556.647,565.867,571.531,552.678,581.053C539.49,590.575,521.41,597.727,504.755,599.322C488.099,600.917,468.346,597.86,452.746,590.624C437.146,583.388,421.226,570.416,411.155,555.908C401.084,541.399,393.716,521.646,392.319,503.574C390.922,485.502,394.645,464.195,402.772,447.475C410.899,430.755,425.235,413.835,441.081,403.252C456.928,392.668,478.365,385.133,497.851,383.975C517.337,382.817,540.181,387.252,557.998,396.304C575.816,405.357,593.699,421.088,604.757,438.291C615.815,455.493,623.471,478.623,624.349,499.52C625.226,520.417,620.034,544.781,610.022,563.672C600.01,582.563,582.853,601.371,564.277,612.867C545.701,624.363,520.871,632.091,498.568,632.647C476.264,633.203,450.398,627.208,430.458,616.203C410.518,605.198,390.822,586.584,378.927,566.619C367.032,546.654,359.28,520.116,359.087,496.412C358.893,472.708,353.283,448.652,377.766,424.393C402.249,400.134,471.97,359.607,505.986,350.856C540.002,342.106,559.901,358.802,581.862,371.889C603.823,384.977,625.176,406.592,637.754,429.381C650.332,452.171,657.986,482.139,657.332,508.626C656.678,535.114,648.005,565.373,633.829,588.305C619.652,611.237,610.398,637.706,572.272,646.219C534.145,654.732,442.907,651.472,405.068,639.384C367.229,627.296,353.546,613.878,345.239,573.691C336.933,533.503,341.914,437.771,355.228,398.26C368.543,358.749,397.999,349.935,425.126,336.626C452.253,323.317,487.391,316.176,517.991,318.407C548.591,320.637,583.048,332.382,608.725,350.011C634.402,367.64,658.581,395.583,672.053,424.18C685.526,452.776,692.399,489.64,689.561,521.591C686.724,553.541,673.87,589.35,655.031,615.884C636.192,642.418,606.604,667.198,576.527,680.794C546.451,694.39,521.542,732.51,474.572,697.461C427.603,662.412,317.903,525.194,294.712,470.499C271.521,415.804,314.082,397.448,335.427,369.291C356.772,341.135,389.718,315.283,422.782,301.562C455.845,287.841,497.877,282.07,533.808,286.965C569.739,291.86,609.446,308.294,638.367,330.934C667.287,353.573,717.57,358.579,707.332,422.801C697.093,487.023,618.677,665.353,576.935,716.265C535.193,767.177,507.24,751.58,456.879,728.273C406.517,704.967,297.81,641.517,274.766,576.425C251.722,511.333,272.181,390.983,318.612,337.723C365.043,284.463,494.699,260.669,553.354,256.866C612.01,253.062,648.004,244.554,670.546,314.903C693.087,385.251,728.718,693.177,688.602,678.957C648.485,664.737,427.113,292.383,429.846,229.581C432.58,166.78,659.892,221.42,705.002,302.146C750.112,382.873,749.577,633.455,700.506,713.939C651.436,794.424,481.165,786.885,410.581,785.052C339.997,783.218,281.725,698.717,277.003,702.939C272.28,707.16,388.472,809.137,382.247,810.38C376.023,811.624,275.64,753.658,239.657,710.402C203.674,667.146,87.367,537.678,166.349,550.843C245.33,564.007,682.825,742.318,713.546,789.387C744.268,836.457,442.697,907.775,350.678,833.261C258.66,758.747,172.288,449.375,161.435,342.303C150.583,235.231,171.028,135.379,285.562,190.829C400.097,246.28,880.186,621.192,848.641,675.005C817.096,728.819,189.941,601.139,96.293,513.711C2.644,426.283,159.497,188.109,286.749,150.436C414.001,112.763,763.171,194.122,859.804,287.675C956.438,381.227,927.234,604.892,866.55,711.752C805.866,818.611,593.686,902.369,495.7,928.833C397.715,955.297,350.76,943.807,278.639,870.536C206.518,797.266,60.749,616.097,62.974,489.21C65.2,362.323,216.234,181.605,291.992,109.217C367.749,36.829,420.853,-51.091,517.522,54.881C614.191,160.854,946.613,676.851,872.005,745.051C797.398,813.25,161.512,569.455,69.875,464.079C-21.763,358.703,195.43,65.712,322.181,112.792C448.932,159.873,774.096,619.2,830.383,746.562C886.671,873.923,674.123,968.045,659.906,876.963C645.689,785.881,711.686,285.306,745.083,200.068C778.48,114.829,852.809,274.859,860.287,365.532C867.766,456.205,828.939,662.627,789.955,744.105C750.971,825.582,734.353,907.208,626.383,854.397C518.413,801.586,181.671,543.329,142.137,427.238C102.603,311.147,316.83,203.832,389.178,157.851C461.526,111.871,517.798,137.765,576.226,151.355C634.654,164.945,785.145,218.226,739.748,239.392C694.352,260.559,353.32,282.851,303.847,278.352C254.373,273.854,394.414,221.215,442.907,212.401C491.401,203.587,555.47,141.775,594.807,225.466C634.145,309.157,687.088,623.33,678.934,714.547C670.78,805.764,591.861,765.844,545.883,772.77C499.905,779.696,445.828,773.14,403.065,756.103C360.303,739.065,248.768,680.237,289.308,670.545C329.849,660.852,606.82,686.047,646.309,697.95C685.797,709.854,566.992,738.347,526.238,741.965C485.484,745.583,438.377,736.892,401.784,719.657C365.19,702.422,293.278,712.842,306.676,638.554C320.074,564.266,433.719,330.641,482.172,273.928C530.624,217.215,563.833,281.187,597.392,298.274C630.95,315.361,663.419,345.158,683.524,376.448C703.629,407.739,729.223,435.7,718.021,486.019C706.819,536.337,650.92,641.044,616.312,678.359C581.704,715.674,545.694,708.961,510.374,709.908C475.054,710.856,434.96,700.822,404.393,684.045C373.827,667.269,340.261,655.652,326.977,609.251C313.693,562.851,312.914,451.77,324.689,405.642C336.464,359.513,352.93,344.53,397.627,332.481C442.325,320.431,548.837,321.372,592.875,333.345C636.913,345.318,662.469,350.539,661.853,404.32C661.237,458.1,631.021,615.149,589.176,656.028C547.332,696.907,450.658,661.79,410.787,649.596C370.916,637.402,363.181,608.47,349.951,582.865C336.721,557.26,329.933,524.285,331.407,495.968C332.881,467.65,343.49,436.276,358.797,412.961C374.105,389.647,385.611,363.725,423.251,356.081C460.891,348.436,548.906,354.912,584.638,367.093C620.37,379.275,626.448,405.67,637.645,429.169C648.841,452.668,676.382,472.384,651.817,508.089C627.251,543.793,528.748,625.307,490.25,643.396C451.752,661.486,439.985,630.592,420.831,616.626C401.676,602.661,384.622,580.901,375.323,559.602C366.025,538.304,362.368,511.452,365.038,488.834C367.709,466.216,377.904,441.699,391.349,423.894C404.793,406.09,425.539,390.409,445.703,382.007C465.868,373.605,491.15,370.615,512.337,373.482C533.524,376.349,556.352,386.321,572.826,399.207C589.3,412.093,603.641,431.79,611.182,450.799C618.722,469.809,621.092,493.508,618.071,513.263C615.05,533.019,605.347,554.17,593.055,569.334C580.763,584.498,562.15,597.533,544.317,604.248C526.483,610.963,504.38,612.76,486.055,609.625C467.731,606.491,448.244,597.106,434.368,585.443C420.493,573.78,408.729,556.285,402.803,539.647C396.877,523.01,395.607,502.513,398.813,485.619C402.019,468.724,411.041,450.886,422.04,438.278C433.038,425.669,449.383,415.14,464.805,409.967C480.228,404.794,499.107,404.002,514.574,407.239C530.041,410.475,546.244,419.087,557.609,429.388C568.973,439.688,578.304,454.849,582.761,469.039C587.219,483.228,587.58,500.481,584.354,514.523C581.127,528.566,572.971,543.15,563.403,553.294C553.836,563.438,539.888,571.607,526.949,575.386C514.011,579.165,498.393,579.144,485.771,575.969C473.149,572.794,460.166,565.138,451.219,556.337C442.271,547.536,435.226,534.832,432.087,523.161C428.949,511.489,429.305,497.513,432.387,486.307C435.47,475.101,442.579,463.701,450.582,455.926C458.584,448.15,470.013,442.19,480.402,439.654C490.791,437.118,503.119,437.76,512.915,440.71C522.711,443.659,532.547,450.178,539.176,457.349C545.806,464.521,550.72,474.647,552.692,483.738C554.664,492.829,553.783,503.504,551.007,511.896C548.232,520.288,542.347,528.581,536.039,534.09C529.73,539.6,520.935,543.508,513.155,544.954C505.376,546.4,496.358,545.329,489.362,542.768C482.366,540.207,475.597,535.001,471.18,529.586C466.763,524.172,463.821,516.734,462.862,510.28C461.902,503.825,463.114,496.467,465.421,490.859C467.728,485.25,472.212,479.982,476.703,476.631C481.193,473.279,487.246,471.263,492.364,470.75C497.481,470.238,503.178,471.544,507.407,473.556C511.637,475.568,515.427,479.288,517.742,482.824C520.056,486.36,521.189,491.004,521.293,494.773C521.398,498.542,520.047,502.576,518.37,505.437C516.692,508.298,513.779,510.635,511.226,511.941C508.673,513.247,505.463,513.538,503.053,513.274C500.643,513.011,498.272,511.664,496.768,510.36C495.264,509.056,494.357,506.991,494.029,505.451C493.702,503.91,494.211,502.156,494.802,501.115C495.394,500.075,496.688,499.364,497.579,499.206C498.47,499.047,499.826,500.449,500.146,500.165C500.467,499.881,499.238,498.366,499.502,497.501C499.766,496.636,500.627,495.436,501.731,494.974C502.836,494.511,504.638,494.217,506.128,494.727C507.618,495.237,509.559,496.385,510.673,498.035C511.787,499.684,512.84,502.201,512.812,504.625C512.784,507.048,512.11,510.201,510.507,512.578C508.904,514.956,506.234,517.567,503.192,518.889C500.15,520.212,495.983,521.068,492.254,520.512C488.525,519.955,484.051,518.273,480.818,515.551C477.585,512.829,474.348,508.62,472.858,504.179C471.368,499.738,470.755,493.926,471.879,488.907C473.002,483.888,475.731,478.121,479.597,474.065C483.463,470.01,489.232,466.191,495.076,464.574C500.921,462.957,508.371,462.637,514.664,464.364C520.957,466.092,527.987,469.906,532.832,474.94C537.678,479.975,542.033,487.321,543.736,494.573C545.439,501.826,545.419,510.908,543.05,518.457C540.68,526.007,535.744,534.269,529.517,539.871C523.29,545.472,514.351,550.318,505.687,552.066C497.022,553.814,486.318,553.407,477.53,550.358C468.741,547.309,459.278,541.215,452.954,533.772C446.631,526.33,441.34,515.782,439.588,505.703C437.836,495.625,438.678,483.308,442.443,473.299C446.208,463.29,453.497,452.659,462.177,445.648C470.858,438.637,483.029,432.947,494.523,431.232C506.018,429.518,519.936,430.842,531.147,435.359C542.357,439.876,554.123,448.396,561.786,458.335C569.45,468.274,575.491,482.083,577.128,494.994C578.764,507.906,576.91,523.414,571.605,535.805C566.3,548.196,556.515,561.063,545.296,569.343C534.077,577.623,518.619,583.97,504.291,585.487C489.963,587.004,472.878,584.574,459.327,578.445C445.775,572.317,431.843,561.233,422.982,548.714C414.121,536.196,407.516,519.076,406.16,503.332C404.803,487.588,407.856,468.941,414.844,454.251C421.831,439.561,434.246,424.599,448.084,415.193C461.922,405.788,480.713,398.973,497.871,397.818C515.028,396.664,535.224,400.385,551.03,408.266C566.835,416.146,582.791,429.926,592.704,445.101C602.617,460.276,609.595,480.749,610.507,499.317C611.418,517.886,606.981,539.614,598.174,556.512C589.366,573.41,574.191,590.323,557.661,600.706C541.131,611.089,518.968,618.182,498.992,618.809C479.017,619.436,455.774,614.239,437.807,604.471C419.841,594.702,402.008,578.101,391.193,560.199C380.378,542.297,373.218,518.437,372.916,497.059C372.614,475.681,378.617,450.94,389.379,431.93C400.142,412.92,418.199,394.207,437.489,382.997C456.779,371.788,482.343,364.61,505.118,364.674C527.893,364.738,554.111,371.592,574.139,383.381C594.168,395.169,613.723,414.713,625.288,435.405C636.853,456.098,644,483.371,643.53,507.536C643.059,531.702,635.309,559.378,622.462,580.399C609.615,601.419,588.558,621.776,566.448,633.657C544.339,645.539,515.352,652.608,489.804,651.69C464.255,650.771,435.141,642.082,413.156,628.145C391.171,614.209,370.053,591.61,357.893,568.07C345.734,544.529,338.792,513.827,340.199,486.903C341.606,459.979,351.278,429.45,366.336,406.528C381.393,383.605,405.56,361.767,430.543,349.369C455.527,336.972,487.948,330.206,516.238,332.142C544.527,334.078,576.449,344.777,600.28,360.985C624.111,377.193,646.629,402.954,659.224,429.392C671.82,455.831,678.36,489.972,675.855,519.617C673.35,549.262,692.572,585.667,644.193,607.264C595.814,628.86,435.282,687.363,385.58,649.195C335.879,611.027,339.018,434.017,345.983,378.256C352.948,322.495,369.337,306.474,427.372,314.628C485.407,322.782,654.903,373.472,694.192,427.181C733.481,480.89,683.343,590.904,663.105,636.884C642.867,682.863,606.626,690.076,572.766,703.057C538.906,716.037,496.188,720.715,459.945,714.766C423.702,708.817,383.96,691.08,355.309,667.363C326.658,643.647,300.975,607.836,288.04,572.469C275.106,537.101,234.068,505.526,277.703,455.159C321.339,404.793,486.013,292.011,549.856,270.269C613.699,248.527,630.761,298.276,660.761,324.709C690.762,351.142,717.142,390.467,729.86,428.865C742.577,467.263,745.549,515.073,737.065,555.098C728.58,595.123,728.558,637.483,678.953,669.016C629.348,700.548,510.569,760.993,439.435,744.292C368.301,727.591,283.957,620.567,252.15,568.809C220.343,517.051,218.495,488.023,248.591,433.744C278.687,379.465,378.798,275.16,432.727,243.134C486.656,211.109,528.521,230.229,572.168,241.591C615.814,252.953,720.742,222.898,694.606,311.307C668.47,399.715,483.173,708.241,415.354,772.042C347.534,835.843,320.025,754.657,287.688,694.115C255.352,633.573,195.721,489.968,221.335,408.792C246.95,327.616,378.602,239.384,441.377,207.061C504.151,174.737,579.413,114.207,597.982,214.848C616.551,315.489,610.64,729.668,552.792,810.907C494.943,892.145,312.998,745.847,250.89,702.279C188.783,658.711,172.585,626.307,180.146,549.499C187.706,472.69,250.604,304.474,296.254,241.429C341.904,178.384,398.898,179.743,454.046,171.23C509.193,162.717,563.207,142.583,627.141,190.351C691.075,238.119,806.275,383.744,837.649,457.841C869.024,531.938,837.334,581.61,815.387,634.933C793.441,688.255,817.749,794.627,705.972,777.774C594.195,760.921,233.449,605.296,144.725,533.818C56.002,462.339,63.218,389.123,173.631,348.902C284.045,308.682,690.697,271.39,807.206,292.493C923.715,313.597,889.3,388.078,872.687,475.523C856.074,562.968,824.174,778.534,707.528,817.164C590.883,855.794,272.375,757.805,172.813,707.302C73.251,656.798,113.331,579.638,110.157,514.144C106.984,448.65,90.232,383.08,153.771,314.338C217.31,245.595,365.904,71.217,491.392,101.689C616.88,132.162,846.091,396.788,906.699,497.174C967.306,597.56,993.357,705.113,855.039,704.006C716.72,702.899,133.298,596.421,76.788,490.532C20.278,384.643,372.22,63.307,515.978,68.673C659.737,74.039,880.293,410.395,939.34,522.728C998.386,635.061,910.377,680.003,870.257,742.671C830.136,805.339,765.279,864.639,698.617,898.735C631.955,932.83,570.737,981.377,470.284,947.246C369.832,913.115,48.639,827.238,95.901,693.948C143.164,560.659,620.772,209.046,753.86,147.509C886.949,85.971,865.701,258.107,894.432,324.725C923.163,391.343,934.975,475.662,926.247,547.216C917.519,618.769,921.844,692.373,842.065,754.048C762.287,815.724,546.919,904.326,447.577,917.269C348.235,930.213,301.282,875.033,246.014,831.711C190.746,788.39,141.677,722.189,115.969,657.34C90.261,592.492,81.335,511.125,91.768,442.622C102.201,374.119,48.373,260.123,178.567,246.324C308.76,232.525,754.358,306.461,872.931,359.828C991.503,413.195,930.177,481.977,890.002,566.527C849.827,651.077,708.67,814.748,631.883,867.13C555.096,919.512,438.203,1002.4,429.28,880.82C420.356,759.24,522.947,159.997,578.343,137.651C633.739,115.305,788.872,629.058,761.657,746.745C734.442,864.432,514.629,869.312,415.053,843.772C315.477,818.233,112.716,611.22,164.2,593.506C215.684,575.792,651.547,801.045,723.957,737.487C796.367,673.928,589.56,235.058,598.659,212.154C607.758,189.25,812.218,513.331,778.553,600.06C744.889,686.79,477.137,724.694,396.672,732.532C316.208,740.371,315.787,703.052,295.766,647.09C275.745,591.128,245.753,461.244,276.546,396.758C307.34,332.272,410.836,264.923,480.528,260.174C550.22,255.426,657.212,311.239,694.701,368.267C732.19,425.295,754.837,547.626,705.464,602.343C656.092,657.059,463.455,694.109,398.468,696.564C333.481,699.018,334.548,648.498,315.545,617.068C296.541,585.639,284.993,544.246,284.447,507.987C283.901,471.729,277.115,435.405,312.268,399.517C347.42,363.628,447.537,305.738,495.359,292.656C543.181,279.573,582.353,258.496,599.199,321.024C616.044,383.552,628.955,611.042,596.434,667.822C563.912,724.602,447.137,674.688,404.072,661.706C361.007,648.724,352.462,617.539,338.043,589.932C323.624,562.324,316.101,526.706,317.56,496.059C319.019,465.413,315.338,434.407,346.797,406.053C378.256,377.699,465.49,334.411,506.313,325.937C547.137,317.462,567.828,339.114,591.738,355.206C615.648,371.298,642.315,383.472,649.773,422.488C657.231,461.505,649.514,552.474,636.485,589.303C623.456,626.132,596.068,632.141,571.599,643.462C547.131,654.783,516.049,659.76,489.675,657.23C463.301,654.699,434.469,643.503,413.354,628.279C392.239,613.056,373.344,589.263,362.988,565.89C352.632,542.516,348.411,512.98,351.216,488.037C354.021,463.094,365.084,435.976,379.818,416.232C394.551,396.488,417.359,378.999,439.615,369.573C461.871,360.147,489.846,356.637,513.356,359.675C536.865,362.713,562.28,373.595,580.673,387.801C599.066,402.007,615.181,423.795,623.712,444.912C632.243,466.029,635.089,492.428,631.859,514.503C628.63,536.578,617.976,560.301,604.333,577.362C590.691,594.424,569.959,609.199,550.002,616.871C530.046,624.542,505.235,626.772,484.595,623.392C463.954,620.012,441.911,609.634,426.16,596.591C410.41,583.547,396.939,563.905,390.091,545.13C383.243,526.354,381.583,503.143,385.072,483.937C388.561,464.731,398.616,444.353,411.025,429.892C423.434,415.431,441.953,403.23,459.528,397.169C477.103,391.108,498.702,389.97,516.476,393.527C534.25,397.083,552.975,406.769,566.17,418.509C579.364,430.249,590.331,447.611,595.641,463.967C600.952,480.323,601.616,500.301,598.033,516.645C594.45,532.988,585.179,550.078,574.142,562.028C563.106,573.978,546.932,583.749,531.813,588.346C516.695,592.943,498.347,593.181,483.43,589.612C468.513,586.043,453.043,577.234,442.313,566.935C431.583,556.635,422.973,541.68,419.051,527.816C415.13,513.952,415.271,497.242,418.784,483.748C422.297,470.254,430.6,456.385,440.129,446.852C449.658,437.318,463.363,429.829,475.957,426.545C488.551,423.261,503.616,423.733,515.692,427.149C527.769,430.566,540.054,438.318,548.417,447.043C556.78,455.769,563.186,468.196,565.87,479.504C568.554,490.812,567.8,504.226,564.521,514.891C561.242,525.556,554.085,536.277,546.195,543.495C538.304,550.713,527.185,556.076,517.178,558.198C507.17,560.321,495.412,559.334,486.151,556.232C476.89,553.131,467.713,546.614,461.614,539.59C455.514,532.566,451.155,522.782,449.555,514.089C447.954,505.396,449.127,495.296,452.011,487.432C454.894,479.568,460.727,471.913,466.854,466.905C472.98,461.897,481.403,458.501,488.769,457.384C496.134,456.267,504.573,457.577,511.048,460.202C517.524,462.827,523.679,467.934,527.624,473.133C531.568,478.331,534.042,485.366,534.716,491.393C535.389,497.419,533.989,504.195,531.663,509.292C529.337,514.389,524.998,519.068,520.757,521.977C516.516,524.887,510.893,526.48,506.217,526.749C501.541,527.018,496.429,525.578,492.7,523.59C488.971,521.602,485.745,518.074,483.841,514.82C481.938,511.565,481.183,507.379,481.279,504.063C481.374,500.747,482.806,497.299,484.416,494.926C486.027,492.553,488.702,490.755,490.942,489.828C493.181,488.9,495.908,488.941,497.854,489.362C499.8,489.782,501.587,491.157,502.615,492.35C503.643,493.544,504.04,495.326,504.022,496.523C504.003,497.72,503.21,498.966,502.505,499.533C501.8,500.1,499.937,499.523,499.793,499.926C499.648,500.329,501.454,501.066,501.638,501.952C501.822,502.837,501.644,504.303,500.898,505.24C500.152,506.176,498.714,507.301,497.162,507.57C495.61,507.839,493.356,507.765,491.586,506.854C489.816,505.943,487.684,504.243,486.543,502.104C485.402,499.965,484.477,496.877,484.74,494.021C485.003,491.166,486.088,487.593,488.12,484.971C490.152,482.349,493.394,479.595,496.931,478.29C500.469,476.986,505.201,476.31,509.344,477.142C513.487,477.975,518.35,480.11,521.791,483.288C525.232,486.465,528.564,491.267,529.991,496.208C531.419,501.149,531.799,507.518,530.358,512.933C528.918,518.348,525.696,524.47,521.348,528.697C517,532.924,510.621,536.787,504.273,538.297C497.924,539.807,489.926,539.843,483.257,537.757C476.588,535.672,469.238,531.325,464.258,525.783C459.278,520.242,454.929,512.27,453.378,504.51C451.827,496.751,452.183,487.133,454.951,479.228C457.718,471.323,463.226,462.776,469.984,457.078C476.741,451.38,486.323,446.592,495.495,445.04C504.667,443.489,515.895,444.284,525.018,447.77C534.14,451.256,543.85,457.962,550.232,465.957C556.613,473.953,561.796,485.157,563.306,495.744C564.816,506.331,563.535,519.157,559.294,529.477C555.053,539.798,547.116,550.638,537.861,557.668C528.605,564.697,515.765,570.227,503.763,571.655C491.762,573.083,477.349,571.268,465.851,566.237C454.353,561.206,442.417,552.002,434.775,541.467C427.133,530.932,421.304,516.442,419.999,503.026C418.694,489.61,421.089,473.625,426.946,460.97C432.803,448.316,443.307,435.32,455.141,427.102C466.976,418.884,483.125,412.801,497.954,411.661C512.784,410.52,530.328,413.541,544.116,420.259C557.905,426.977,571.926,438.813,580.684,451.967C589.442,465.12,595.729,482.939,596.664,499.179C597.599,515.419,593.905,534.507,586.293,549.407C578.68,564.307,565.479,579.316,550.989,588.577C536.499,597.837,517.001,604.282,499.353,604.97C481.705,605.658,461.089,601.246,445.102,592.705C429.114,584.164,413.154,569.566,403.428,553.722C393.703,537.878,387.148,516.693,386.748,497.641C386.347,478.59,391.523,456.464,401.027,439.413C410.53,422.362,426.555,405.488,443.769,395.335C460.983,385.182,483.863,378.566,504.313,378.495C524.763,378.424,548.381,384.408,566.47,394.907C584.56,405.406,602.308,422.886,612.85,441.486C623.392,460.087,630.021,484.667,629.723,506.51C629.425,528.353,622.586,553.443,611.06,572.545C599.534,591.648,580.569,610.231,560.567,621.123C540.566,632.016,514.281,638.61,491.051,637.901C467.822,637.192,441.28,629.455,421.191,616.87C401.103,604.285,381.724,583.807,370.52,562.39C359.316,540.974,352.807,512.98,353.967,488.372C355.127,463.764,363.805,435.791,377.481,414.743C391.156,393.696,413.175,373.563,436.019,362.086C458.864,350.61,488.57,344.233,514.548,345.885C540.526,347.537,569.907,357.201,591.886,371.997C613.865,386.794,634.712,410.379,646.421,434.664C658.13,458.949,690.062,478.467,662.141,517.707C634.22,556.947,533.191,661.834,478.896,670.105C424.6,678.377,362.517,599.811,336.367,567.337C310.218,534.863,318.628,505.289,321.997,475.261C325.365,445.234,338.242,411.769,356.579,387.171C374.917,362.573,388.093,333.568,432.022,327.673C475.95,321.777,576.556,317.624,620.149,351.798C663.742,385.971,688.137,486.741,693.579,532.713C699.02,578.686,691.237,599.544,652.799,627.632C614.361,655.721,521.533,711.109,462.949,701.246C404.365,691.382,329.924,608.929,301.295,568.452C272.666,527.974,284.96,493.634,291.174,458.38C297.388,423.126,315.128,384.586,338.578,356.926C362.029,329.267,379.805,296.15,431.879,292.423C483.953,288.695,603.59,311.221,651.023,334.56C698.457,357.898,704.368,396.308,716.481,432.456C728.595,468.603,731.573,513.669,723.703,551.446C715.832,589.224,715.993,629.196,669.26,659.12C622.526,689.044,482.232,798.065,443.3,730.99C404.369,663.915,384.189,282.871,435.67,256.672C487.151,230.473,775.075,502.368,752.185,573.797C729.295,645.225,349.789,744.082,298.332,685.243C246.875,626.404,373.24,283.324,443.446,220.763C513.652,158.202,663.691,246.731,719.568,309.876C775.445,373.02,833.071,520.443,778.707,599.63C724.344,678.817,490.848,793.585,393.386,784.995C295.924,776.405,183.627,648.083,193.934,548.091C204.242,448.099,350.251,199.921,455.232,185.04C560.213,170.159,783.301,361.946,823.82,458.805C864.339,555.665,746.087,703.891,698.345,766.197C650.603,828.503,616.396,843.794,537.371,832.642C458.345,821.49,282.778,778.818,224.193,699.285C165.607,619.753,173.219,436.242,185.856,355.445C198.493,274.647,222.202,243.654,300.014,214.499C377.826,185.344,570.183,166.34,652.726,180.516C735.269,194.692,764.887,279.611,795.273,299.556C825.659,319.502,818.779,267.389,835.042,300.189C851.305,332.99,915.52,405.537,892.85,496.36C870.181,587.183,798.761,786.567,699.027,845.129C599.293,903.69,265.007,937.774,294.445,847.728C323.882,757.682,770.466,359.303,875.653,304.853C980.841,250.403,955.952,424.186,925.567,521.027C895.181,617.868,768.9,817.153,693.34,885.899C617.78,954.644,570.457,965.938,472.206,933.501C373.954,901.063,130.689,831.267,103.83,691.273C76.972,551.279,177.249,155.724,311.054,93.538C444.859,31.353,941.246,223.167,906.66,318.162C872.075,413.157,241.661,642.922,103.539,663.507C-34.584,684.092,1.306,537.752,77.925,441.673C154.544,345.594,469.998,14.007,563.25,87.034C656.503,160.062,691.255,760.646,637.442,879.839C583.629,999.031,311.969,908.585,240.373,802.191C168.777,695.797,121.731,338.869,207.867,241.475C294.002,144.08,648.207,193.6,757.186,217.825C866.164,242.051,843.475,325.791,861.736,386.828C879.997,447.865,911.464,621.632,866.751,584.046C822.038,546.46,613.002,215.892,593.46,161.315C573.919,106.737,710.195,184.117,749.502,256.579C788.81,329.042,858.071,500.748,829.307,596.089C800.542,691.429,685.401,832.917,576.916,828.622C468.431,824.326,227.155,665.317,178.399,570.317C129.643,475.316,241.437,322.747,284.38,258.618C327.324,194.489,438.679,113.805,436.06,185.541C433.44,257.277,306.734,628.93,268.665,689.035C230.595,749.139,199.165,615.603,207.643,546.168C216.122,476.733,277.594,327.584,319.536,272.426C361.479,217.268,411.32,221.271,459.297,215.219C507.274,209.167,644.2,184.364,607.4,236.112C570.601,287.86,281.023,516.82,238.5,525.707C195.977,534.594,312.208,335.981,352.262,289.434C392.315,242.888,436.135,249.192,478.821,246.427C521.506,243.661,570.539,253.906,608.376,272.84C646.213,291.775,701.843,288.685,705.841,360.034C709.839,431.383,699.314,656.785,632.365,700.935C565.416,745.086,364.436,656.923,304.147,624.939C243.859,592.955,271.357,547.613,270.636,509.031C269.914,470.449,281.205,426.72,299.817,393.448C318.429,360.177,349.855,328.506,382.308,309.403C414.761,290.3,457.344,278.952,494.537,278.83C531.73,278.708,569.068,272.168,605.465,308.673C641.863,345.179,700.075,448.618,712.922,497.863C725.769,547.108,700.743,573.857,682.547,604.143C664.351,634.43,634.328,662.836,603.746,679.583C573.164,696.33,533.443,705.582,499.054,704.626C464.665,703.67,426.227,691.777,397.413,673.848C368.598,655.92,341.783,626.659,326.167,597.054C310.55,567.448,289.833,540.379,303.713,496.215C317.593,452.051,375.668,362.76,409.446,332.072C443.224,301.385,474.824,310.221,506.38,312.089C537.936,313.958,572.868,326.007,598.783,343.284C624.698,360.561,648.417,388.177,661.87,415.752C675.324,443.326,681.765,478.599,679.502,508.73C677.239,538.861,693.886,574.666,648.291,596.538C602.696,618.411,455.532,644.018,405.931,639.967C356.329,635.917,362.105,597.678,350.681,572.234C339.258,546.79,323.592,523.149,337.39,487.305C351.188,451.46,403.982,380.74,433.469,357.167C462.955,333.593,488.477,342.664,514.31,345.863C540.143,349.061,568.149,360.841,588.467,376.358C608.784,391.875,626.684,415.745,636.215,438.965C645.746,462.186,649.082,491.283,645.654,515.679C642.227,540.075,630.634,566.374,615.65,585.339C600.665,604.303,577.822,620.829,555.747,629.467C533.672,638.105,506.155,640.781,483.197,637.166C460.24,633.551,435.636,622.193,418.004,607.777C400.371,593.361,385.185,571.581,377.405,550.671C369.624,529.761,367.562,503.838,371.323,482.319C375.084,460.8,386.16,437.878,399.971,421.557C413.783,405.237,434.467,391.354,454.191,384.396C473.915,377.437,498.233,375.94,518.314,379.806C538.396,383.672,559.65,394.419,574.681,407.591C589.711,420.763,608.499,458.836,608.499,458.836"></path>
      </svg>
      