<?xml version="1.0" encoding="UTF-8" standalone="no"?>
    <!-- Created with Inkscape (https://labs.original.art.br/draw) -->
    
    <svg
       xmlns:dc="http://purl.org/dc/elements/1.1/"
       xmlns:cc="http://creativecommons.org/ns#"
       xmlns:rdf="http://www.w3.org/1999/02/22-rdf-syntax-ns#"
       xmlns:svg="http://www.w3.org/2000/svg"
       xmlns="http://www.w3.org/2000/svg"
       xmlns:sodipodi="http://sodipodi.sourceforge.net/DTD/sodipodi-0.dtd"
       xmlns:inkscape="http://www.inkscape.org/namespaces/inkscape"
       id="P3sQQ"
       version="1.1"
       inkscape:version="0.91 r13725"
       width="undefined"
       height="undefined"
       viewBox="0 0 undefined undefined"
       sodipodi:docname="_paths3.svg">
      <metadata
         id="metadata3404">
        <rdf:RDF>
          <cc:Work
             rdf:about="">
            <dc:format>image/svg+xml</dc:format>
            <dc:type
               rdf:resource="http://purl.org/dc/dcmitype/StillImage" />
            <dc:title></dc:title>
          </cc:Work>
        </rdf:RDF>
      </metadata>
      undefined<path fill="none" stroke-width="1" style="stroke: rgb(0, 71, 171);" d="M980,700C980,700,981.07,701.408,980.957,708.395C980.843,715.382,1046.023,741.91,979.32,741.922C912.616,741.934,647.214,713.575,580.736,708.467C514.258,703.359,514.683,700.143,580.452,711.273C646.22,722.403,975.412,774.78,975.348,775.245C975.284,775.71,646.029,723.8,580.069,714.066C514.11,704.331,514.758,701.152,579.59,716.841C644.422,732.53,969.158,807.742,969.062,808.201C968.966,808.661,580.442,714.191,579.014,719.596C577.586,725.001,960.732,839.725,960.493,840.631C960.253,841.537,579.377,719.74,577.576,725.03C575.774,730.321,949.984,871.49,949.682,872.375C949.38,873.26,638.256,753.581,575.762,730.343C513.268,707.105,514.563,704.123,574.717,732.946C634.871,761.768,937.077,902.432,936.684,903.279C936.291,904.126,574.879,733.042,572.359,738.027C569.838,743.013,921.781,932.781,921.562,933.193C921.344,933.606,573.91,735.704,571.048,740.5C568.186,745.296,904.87,961.172,904.391,961.971C903.911,962.77,624.469,781.021,568.172,745.295C511.875,709.568,567.431,746.482,566.61,747.611C565.79,748.739,513.644,707.407,563.25,752.066C612.855,796.725,864.544,1015.209,864.245,1015.564C863.946,1015.92,612.231,797.416,561.455,754.2C510.678,710.983,560.556,755.268,559.587,756.267C558.617,757.267,512.732,709.07,555.64,760.195C598.548,811.319,777.797,1009.024,817.034,1063.015C856.272,1117.007,835.697,1133.725,791.063,1084.144C746.429,1034.563,589.912,818.362,549.231,765.53C508.549,712.698,511.233,710.84,546.975,767.152C582.716,823.464,732.34,1044.477,763.681,1103.401C795.023,1162.324,772.322,1176.006,735.023,1120.692C697.724,1065.378,572.82,829.5,539.887,771.519C506.955,713.537,509.871,712.066,537.428,772.802C564.985,833.538,682.393,1073.226,705.229,1135.934C728.066,1198.642,704.559,1208.731,674.445,1149.052C644.331,1089.374,535.202,774.592,524.547,777.862C513.891,781.132,611.406,1168.444,610.511,1168.672C609.617,1168.9,535.768,843.916,519.181,779.23C502.593,714.544,506.772,713.9,510.987,780.556C515.202,847.213,544.931,1179.129,544.472,1179.17C544.012,1179.211,514.731,847.173,508.23,780.803C501.729,714.433,504.994,714.263,505.467,780.951C505.939,847.638,511.987,1180.927,511.065,1180.927C510.142,1180.927,502.249,847.638,499.933,780.951C497.617,714.263,506.443,714.725,497.17,780.803C487.896,846.88,445.663,1177.587,444.291,1177.415C442.918,1177.242,494.441,780.645,488.934,779.769C483.428,778.894,429.63,1108.023,411.251,1172.163C392.871,1236.303,367.058,1230.327,378.658,1164.61C390.258,1098.894,486.184,779.498,480.853,777.862C475.522,776.226,347.978,1155.254,346.672,1154.794C345.366,1154.334,478.221,777.107,473.017,775.102C467.813,773.097,315.872,1142.947,315.448,1142.763C315.025,1142.579,445.054,835.657,470.474,773.997C495.895,712.337,498.861,713.706,467.972,772.802C437.083,831.898,285.953,1129.017,285.141,1128.574C284.329,1128.132,467.974,772.861,463.1,770.148C458.226,767.435,295.103,1058.32,255.897,1112.297C216.69,1166.275,194.481,1151.807,227.86,1094.012C261.239,1036.218,460.618,768.898,456.169,765.53C451.721,762.163,201.889,1074.387,201.167,1073.807C200.444,1073.227,411.06,814.973,451.834,762.05C492.609,709.126,499.382,716.158,445.813,756.267C392.245,796.376,186.335,966.099,130.423,1002.703C74.51,1039.307,116.713,985.052,110.338,975.89C103.963,966.729,97.893,957.32,92.173,947.733C86.452,938.147,19.408,953.74,76.016,918.369C132.623,882.999,434.162,740.579,431.818,735.508C429.473,730.437,62.31,888.802,61.947,887.942C61.584,887.081,368.515,757.049,429.638,730.343C490.761,703.637,491.952,706.661,428.685,727.704C365.418,748.746,50.179,857.044,50.036,856.598C49.892,856.153,429.44,730.381,427.824,725.03C426.208,719.679,106.159,813.367,40.34,824.492C-25.48,835.617,-31.258,810.184,32.907,791.779C97.072,773.375,359.99,727.483,425.331,714.066C490.671,700.648,491.207,703.847,424.948,711.273C358.689,718.699,27.854,759.556,27.775,758.619C27.697,757.682,424.945,711.225,424.477,705.65C424.01,700.076,24.984,725.644,24.969,725.174C24.955,724.703,424.467,708.422,424.389,702.827C424.312,697.232,90.838,699.064,24.503,691.605C-41.832,684.147,-40.373,658.09,26.38,658.078C93.134,658.066,424.322,697.087,425.024,691.533C425.726,685.979,30.341,626.151,30.592,624.755C30.843,623.359,425.442,688.652,426.53,683.159C427.618,677.666,100.552,612.43,37.118,591.799C-26.316,571.167,-19.534,545.953,45.927,559.369C111.389,572.786,428.043,677.587,429.885,672.296C431.727,667.006,116.923,556.888,56.978,527.625C-2.967,498.362,7.259,474.329,70.216,496.721C133.173,519.112,432.161,666.958,434.721,661.973C437.282,656.987,85.339,467.219,85.578,466.807C85.816,466.394,377.47,627.788,436.152,659.5C494.834,691.212,493.195,693.988,437.668,657.077C382.141,620.165,102.723,438.424,102.989,438.029C103.256,437.633,436.038,659.289,439.268,654.705C442.497,650.122,121.792,411.289,122.366,410.527C122.94,409.765,439.17,654.48,442.711,650.131C446.253,645.783,142.658,385.502,143.615,384.436C144.572,383.369,440.505,651.641,448.453,643.733C456.402,635.824,189.866,338.245,191.306,336.985C192.745,335.724,412.407,586.59,457.091,636.171C501.775,685.752,458.627,635.023,459.409,634.47C460.192,633.916,497.497,689.16,461.785,632.848C426.074,576.536,271.424,358.063,245.139,296.599C218.853,235.136,289.078,271.675,304.071,264.066C319.063,256.457,324.614,254.956,335.095,250.948C345.576,246.94,356.224,243.287,366.959,240.017C377.695,236.747,382.997,234.526,399.509,231.328C416.02,228.13,449.334,222.873,466.028,220.83C482.723,218.788,492.663,152.712,499.675,219.073C506.687,285.435,502.485,618.902,508.1,619C513.715,619.098,532.402,219.626,533.364,219.659C534.325,219.692,508.276,618.71,513.87,619.197C519.465,619.685,565.972,222.487,566.929,222.585C567.886,222.684,527.024,553.514,519.613,619.788C512.202,686.062,509.033,685.556,522.466,620.231C535.898,554.905,599.737,227.747,600.209,227.837C600.682,227.927,537.316,555.175,525.301,620.77C513.285,686.365,510.159,685.636,528.116,621.406C546.073,557.176,631.661,234.977,633.042,235.39C634.423,235.803,525.789,620.244,536.404,623.885C547.019,627.526,695.401,256.685,696.732,257.237C698.062,257.789,539.297,624.833,544.388,627.198C549.479,629.562,726.85,271.212,727.279,271.426C727.709,271.64,576.597,568.744,546.967,628.481C517.337,688.219,514.534,686.648,549.5,629.852C584.466,573.055,756.349,287.46,756.763,287.703C757.177,287.945,547.271,628.261,551.983,631.308C556.696,634.356,783.111,304.572,785.04,305.988C786.97,307.404,554.828,632.767,563.56,639.805C572.291,646.844,787.809,392.86,837.431,348.219C887.053,303.578,905.907,322.362,861.291,371.959C816.675,421.556,618.008,599.805,569.735,645.8C521.461,691.796,519.366,689.351,571.65,647.934C623.933,606.517,828.085,434.601,883.437,397.297C938.789,359.993,954.58,380.813,903.762,424.11C852.945,467.406,575.464,652.384,578.532,657.077C581.599,661.769,862.162,481.508,922.167,452.267C982.173,423.026,995.122,446.26,938.564,481.631C882.007,517.001,641.903,633.588,582.822,664.492C523.741,695.396,522.402,692.46,584.077,667.054C645.752,641.649,889.382,532.667,952.873,512.058C1016.364,491.45,961.343,532.827,965.024,543.402C968.706,553.977,1037.635,552.674,974.96,575.508C912.285,598.342,587.695,674.952,588.974,680.404C590.253,685.856,982.417,607.299,982.633,608.221C982.849,609.143,589.374,680.408,590.269,685.934C591.165,691.461,987.854,640.448,988.005,641.381C988.156,642.314,590.551,680.364,591.176,691.533C591.802,702.702,925.266,699.996,991.757,708.395C1058.247,716.793,991.054,730.78,990.12,741.922C989.185,753.064,1052.77,779.425,986.148,775.245C919.526,771.065,591.438,711.348,590.39,716.841C589.342,722.334,979.958,807.742,979.862,808.201C979.766,808.661,591.242,714.191,589.814,719.596C588.386,725.001,909.515,815.168,971.293,840.631C1033.071,866.094,964.45,861.934,960.482,872.375C956.514,882.816,1010.167,926.091,947.484,903.279C884.801,880.468,645.103,763.05,584.382,735.508C523.661,707.966,583.581,737.195,583.159,738.027C582.736,738.859,526.509,703.176,581.848,740.5C637.187,777.824,915.67,961.172,915.191,961.971C914.711,962.77,582.162,740.711,578.972,745.295C575.783,749.878,896.588,988.711,896.054,989.473C895.52,990.235,629.436,789.436,575.769,749.869C522.102,710.301,524.17,707.783,574.05,752.066C623.929,796.348,875.656,1014.864,875.045,1015.564C874.435,1016.265,574.183,752.175,570.387,756.267C566.59,760.36,813.689,985.472,852.268,1040.118C890.848,1094.764,850.945,1129.638,801.863,1084.144C752.781,1038.649,562.338,763.943,557.775,767.152C553.211,770.362,743.14,1044.477,774.481,1103.401C805.823,1162.324,783.532,1175.792,745.823,1120.692C708.115,1065.592,553.194,770.262,548.228,772.802C543.262,775.343,716.446,1135.735,716.029,1135.934C715.612,1136.133,556.127,769.989,545.726,773.997C535.324,778.005,655.796,1159.216,653.621,1159.983C651.446,1160.749,538.061,777.146,532.676,778.594C527.291,780.042,612.012,1102.591,621.311,1168.672C630.611,1234.753,605.062,1239.764,588.475,1175.078C571.888,1110.392,527.321,779.874,521.787,780.556C516.253,781.238,555.731,1179.129,555.272,1179.17C554.812,1179.211,524.598,780.51,519.03,780.803C513.462,781.096,526.967,1114.337,521.865,1180.927C516.762,1247.516,499.545,1180.926,488.416,1180.341C477.287,1179.755,452.749,1244.103,455.091,1177.415C457.433,1110.727,496.814,846.942,502.467,780.212C508.12,713.482,491.688,777.718,489.01,777.036C486.331,776.353,513.523,715.161,486.396,776.115C459.269,837.07,327.102,1143.116,326.248,1142.763C325.395,1142.41,486.326,776.362,481.274,773.997C476.223,771.632,297.17,1129.216,295.941,1128.574C294.712,1127.933,478.774,772.861,473.9,770.148C469.026,767.435,305.903,1058.32,266.697,1112.297C227.49,1166.275,205.647,1152.09,238.66,1094.012C271.672,1035.934,469.22,767.196,464.771,763.829C460.323,760.461,258.304,1025.815,211.967,1073.807C165.63,1121.799,146.286,1105.049,186.749,1051.781C227.212,998.513,462.333,762.379,454.745,754.2C447.158,746.02,141.808,1003.425,141.223,1002.703C140.637,1001.981,457.606,759.03,451.231,749.869C444.856,740.707,163.708,919.65,102.973,947.733C42.237,975.817,91.853,928.335,86.816,918.369C81.778,908.404,13.969,919.719,72.747,887.942C131.525,856.164,441.47,732.928,439.485,727.704C437.5,722.48,61.107,857.494,60.836,856.598C60.564,855.702,439.474,727.678,437.858,722.327C436.242,716.976,116.831,812.917,51.14,824.492C-14.552,836.067,45.801,802.758,43.707,791.779C41.613,780.8,39.898,769.72,38.575,758.619C37.252,747.518,-30.333,734.472,35.769,725.174C101.872,715.875,434.954,714.009,435.189,702.827C435.425,691.644,102.813,671.09,37.18,658.078C-28.453,645.066,-25.548,621.489,41.392,624.755C108.331,628.021,436.262,688.571,438.818,677.673C441.374,666.776,118.567,584.377,56.727,559.369C-5.113,534.361,63.73,538.066,67.778,527.625C71.826,517.184,18.059,474.329,81.016,496.721C143.973,519.112,384.532,634.843,445.521,661.973C506.511,689.103,446.461,660.316,446.952,659.5C447.443,658.684,503.995,693.988,448.468,657.077C392.941,620.165,113.523,438.424,113.789,438.029C114.056,437.633,446.838,659.289,450.068,654.705C453.297,650.122,132.286,411.656,133.166,410.527C134.047,409.398,451.809,652.283,455.35,647.934C458.892,643.586,200.734,432.444,154.415,384.436C108.095,336.427,125.927,317.32,177.432,359.882C228.936,402.443,459.328,643.621,463.44,639.805C467.553,635.989,201.74,337.294,202.106,336.985C202.471,336.676,456.662,644.681,465.634,637.95C474.606,631.22,286.072,356.373,255.939,296.599C225.806,236.826,247.488,223.994,284.837,279.308C322.186,334.622,475.027,631.022,480.033,628.481C485.038,625.941,313.56,264.663,314.871,264.066C316.181,263.469,482.726,627.084,487.897,624.898C493.068,622.712,344.99,251.27,345.895,250.948C346.8,250.626,488.019,624.786,493.33,622.964C498.64,621.143,377.299,240.155,377.759,240.017C378.22,239.88,490.668,623.586,496.093,622.138C501.518,620.69,409.374,231.556,410.309,231.328C411.243,231.1,485.995,555.953,501.699,620.77C517.403,685.587,514.254,686.205,504.534,620.231C494.815,554.256,441.952,225.094,443.385,224.922C444.818,224.75,501.948,620.172,513.13,619.197C524.311,618.223,499.709,285.175,510.475,219.073C521.242,152.971,560.974,221.125,577.729,222.585C594.485,224.046,599.99,225.703,611.009,227.837C622.028,229.971,655.392,169.673,643.842,235.39C632.292,301.106,536.336,620.502,541.707,622.138C547.078,623.774,648.431,306.022,676.068,245.206C703.706,184.389,697.196,252.867,707.532,257.237C717.867,261.607,728.074,266.348,738.079,271.426C748.085,276.503,757.937,281.942,767.563,287.703C777.19,293.463,786.639,299.573,795.84,305.988C805.042,312.403,814.041,319.154,822.773,326.193C831.505,333.231,889.279,295.629,848.231,348.219C807.184,400.809,572.511,637.777,576.487,641.733C580.464,645.69,819.133,412.698,872.091,371.959C925.049,331.219,941.911,350.558,894.237,397.297C846.564,444.035,582.663,647.921,586.05,652.389C589.438,656.858,914.015,423.329,914.562,424.11C915.109,424.891,586.264,652.384,589.332,657.077C592.399,661.769,872.962,481.508,932.967,452.267C992.973,423.026,942.221,466.441,949.364,481.631C956.507,496.82,969.758,527.755,975.824,543.402C981.89,559.048,1048.319,552.215,985.76,575.508C923.201,598.801,599.191,677.707,600.47,683.159C601.749,688.611,927.044,615.184,993.433,608.221C1059.822,601.258,997.402,630.28,998.805,641.381C1000.208,652.482,1001.225,663.657,1001.851,674.826C1002.476,685.995,1069.097,703.728,1002.557,708.395C936.017,713.061,669.361,702.347,602.611,702.827C535.86,703.307,536.329,699.203,602.052,711.273C667.775,723.343,997.188,773.858,996.948,775.245C996.708,776.632,603.09,708.698,600.614,719.596C598.138,730.493,920.315,815.168,982.093,840.631C1043.871,866.094,975.25,861.934,971.282,872.375C967.314,882.816,965.833,888.347,958.284,903.279C950.735,918.212,934.562,947.606,925.991,961.971C917.419,976.337,913.545,980.541,906.854,989.473C900.163,998.405,940.123,1054.432,885.845,1015.564C831.567,976.697,584.983,752.175,581.187,756.267C577.39,760.36,820.16,988.994,863.068,1040.118C905.976,1091.243,847.035,1055.678,838.634,1063.015C830.234,1070.353,826.332,1074.531,812.663,1084.144C798.995,1093.756,770.929,1112.06,756.623,1120.692C742.318,1129.324,760.179,1193.717,726.829,1135.934C693.48,1078.152,561.656,771.811,556.526,773.997C551.395,776.184,678.062,1084.721,696.045,1149.052C714.028,1213.383,675.076,1156.713,664.421,1159.983C653.765,1163.253,642.969,1166.156,632.111,1168.672C621.254,1171.188,615.862,1239.764,599.275,1175.078C582.688,1110.392,538.121,779.874,532.587,780.556C527.053,781.238,567.453,1179.096,566.072,1179.17C564.691,1179.244,535.443,780.805,524.3,781C513.157,781.195,500.598,1180.415,499.216,1180.341C497.835,1180.267,521.567,781.044,516.013,780.556C510.459,780.069,466.349,1177.472,465.891,1177.415C465.433,1177.357,505.826,846.486,513.267,780.212C520.708,713.938,511.892,780.039,510.534,779.769C509.177,779.5,523.504,714.454,505.124,778.594C486.745,842.734,423.067,1101.91,400.258,1164.61C377.449,1227.31,352.115,1219.544,368.272,1154.794C384.428,1090.045,476.139,839.397,497.196,776.115C518.254,712.833,521.308,713.994,494.617,775.102C467.926,836.21,368.361,1083.851,337.048,1142.763C305.736,1201.675,316.666,1133.652,306.741,1128.574C296.815,1123.497,287.043,1118.058,277.497,1112.297C267.95,1106.537,258.581,1100.427,249.46,1094.012C240.338,1087.597,185.438,1129.134,222.767,1073.807C260.096,1018.48,477.637,765.721,473.434,762.05C469.231,758.379,247.466,1007.449,197.549,1051.781C147.631,1096.113,129.263,1077.638,173.929,1028.041C218.595,978.444,469.196,758.423,465.545,754.2C461.894,749.977,207.624,965.755,152.023,1002.703C96.422,1039.652,138.313,985.052,131.938,975.89C125.563,966.729,59.77,986.965,113.773,947.733C167.775,908.502,458.645,745.394,455.952,740.5C453.259,735.606,159.683,893.796,97.616,918.369C35.548,942.943,24.61,919.279,83.547,887.942C142.484,856.604,453.223,735.567,451.238,730.343C449.253,725.119,136.519,840.907,71.636,856.598C6.752,872.29,-0.689,847.785,61.94,824.492C124.569,801.199,448.649,722.293,447.41,716.841C446.171,711.389,120.846,784.816,54.507,791.779C-11.832,798.742,50.698,769.72,49.375,758.619C48.052,747.518,-19.588,735.885,46.569,725.174C112.726,714.462,379.574,700.424,446.317,694.35C513.06,688.275,512.716,700.326,447.028,688.727C381.341,677.128,116.91,640.91,52.192,624.755C-12.526,608.6,56.162,602.696,58.718,591.799C61.274,580.901,2.23,545.507,67.527,559.369C132.825,573.231,448.663,680.26,450.504,674.97C452.346,669.679,138.359,557.333,78.578,527.625C18.796,497.917,28.859,474.329,91.816,496.721C154.773,519.112,453.761,666.958,456.321,661.973C458.882,656.987,162.467,504.131,107.178,466.807C51.889,429.483,118.458,447.409,124.589,438.029C130.721,428.649,137.195,419.459,143.966,410.527C150.737,401.595,157.837,392.876,165.215,384.436C172.592,375.995,180.283,367.79,188.232,359.882C196.18,351.973,163.713,291.49,212.906,336.985C262.098,382.479,474.413,639.579,483.385,632.848C492.358,626.117,266.333,296.856,266.739,296.599C267.144,296.343,470.824,638.917,485.817,631.308C500.809,623.699,354.098,252.185,356.695,250.948C359.292,249.711,485.148,628.223,501.396,623.885C517.645,619.547,451.387,225.605,454.185,224.922C456.983,224.239,512.613,620.47,518.187,619.788C523.761,619.106,487.113,287.616,487.628,220.83C488.143,154.045,510.053,219.268,521.275,219.073C532.498,218.878,552.118,152.931,554.964,219.659C557.809,286.388,532.753,618.956,538.347,619.444C543.941,619.931,569.147,286.594,588.529,222.585C607.912,158.576,638.252,231.62,654.642,235.39C671.032,239.16,676.253,241.564,686.868,245.206C697.483,248.847,707.996,252.867,718.332,257.237C728.667,261.607,738.874,266.348,748.879,271.426C758.885,276.503,807.579,227.722,778.363,287.703C749.147,347.683,568.871,628.261,573.583,631.308C578.296,634.356,763.309,356.84,806.64,305.988C849.972,255.135,870.132,270.235,833.573,326.193C797.014,382.15,579.068,634.106,587.287,641.733C595.507,649.361,882.217,371.281,882.891,371.959C883.566,372.637,587.644,641.577,591.335,645.8C595.026,650.023,849.366,434.245,905.037,397.297C960.708,360.348,916.174,410.054,925.362,424.11C934.55,438.165,951.979,466.972,960.164,481.631C968.349,496.289,1033.181,480.281,974.473,512.058C915.765,543.836,605.89,667.072,607.915,672.296C609.94,677.52,986.461,542.956,986.624,543.402C986.788,543.847,607.24,669.619,608.896,674.97C610.552,680.321,996.281,574.602,996.56,575.508C996.84,576.414,609.295,674.952,610.574,680.404C611.853,685.856,937.728,614.725,1004.233,608.221C1070.738,601.717,1008.202,630.28,1009.605,641.381C1011.008,652.482,1012.025,663.657,1012.651,674.826C1013.276,685.995,1079.942,702.788,1013.357,708.395C946.771,714.001,679.887,707.987,613.136,708.467C546.385,708.947,547.083,700.143,612.852,711.273C678.62,722.403,942.98,759.09,1007.748,775.245C1072.516,791.4,1067.63,817.021,1001.462,808.201C935.294,799.382,612.17,716.922,610.742,722.327C609.314,727.732,931.003,815.623,992.893,840.631C1054.783,865.639,1046.204,890.756,982.082,872.375C917.96,853.994,610.328,725.192,608.162,730.343C605.996,735.494,969.651,901.999,969.084,903.279C968.517,904.56,610.141,728.245,604.759,738.027C599.377,747.809,884.641,920.064,936.791,961.971C988.94,1003.879,974.224,1024.823,917.654,989.473C861.083,954.123,600.87,745.52,597.369,749.869C593.867,754.217,850.562,967.189,896.645,1015.564C942.729,1063.939,925.303,1082.68,873.868,1040.118C822.434,997.557,592.112,756.379,588.04,760.195C583.967,764.011,810.197,1009.024,849.434,1063.015C888.672,1117.007,832.355,1077.413,823.463,1084.144C814.571,1090.875,837.148,1155.976,796.081,1103.401C755.015,1050.825,613.96,824.234,577.063,768.692C540.167,713.15,542.973,711.481,574.7,770.148C606.427,828.815,767.826,1120.464,767.423,1120.692C767.021,1120.921,577.253,768.978,572.287,771.519C567.322,774.059,715.203,1073.012,737.629,1135.934C760.056,1198.856,722.631,1143.596,706.845,1149.052C691.059,1154.509,668.789,1230.309,642.911,1168.672C617.034,1107.035,557.054,778.162,551.581,779.23C546.108,780.298,605.86,1108.421,610.075,1175.078C614.29,1241.735,587.974,1178.195,576.872,1179.17C565.77,1180.144,550.427,1247.288,543.465,1180.927C536.503,1114.565,540.675,781.098,535.1,781C529.525,780.902,511.398,1180.415,510.016,1180.341C508.635,1180.267,532.367,781.044,526.813,780.556C521.259,780.069,477.604,1177.546,476.691,1177.415C475.778,1177.284,532.273,781.903,521.334,779.769C510.396,777.635,412.846,1165.066,411.058,1164.61C409.271,1164.155,515.941,778.672,510.61,777.036C505.279,775.4,406.199,1093.84,379.072,1154.794C351.945,1215.749,358.104,1147.133,347.848,1142.763C337.593,1138.393,327.466,1133.652,317.541,1128.574C307.615,1123.497,297.843,1118.058,288.297,1112.297C278.75,1106.537,269.381,1100.427,260.26,1094.012C251.138,1087.597,242.219,1080.846,233.567,1073.807C224.915,1066.769,216.488,1059.409,208.349,1051.781C200.209,1044.153,192.317,1036.221,184.729,1028.041C177.141,1019.862,172.849,1016.088,162.823,1002.703C152.797,989.318,133.64,961.789,124.573,947.733C115.505,933.678,51.997,954.167,108.416,918.369C164.834,882.571,465.428,738.017,463.083,732.946C460.738,727.874,94.68,888.815,94.347,887.942C94.014,887.068,463.07,732.928,461.085,727.704C459.1,722.48,82.579,857.044,82.436,856.598C82.292,856.153,461.84,730.381,460.224,725.03C458.608,719.679,139.415,818.894,72.74,824.492C6.065,830.09,62.737,775.172,60.175,758.619C57.614,742.066,-8.733,734.472,57.369,725.174C123.472,715.875,456.867,708.422,456.789,702.827C456.712,697.232,123.238,699.064,56.903,691.605C-9.432,684.147,-7.973,658.09,58.78,658.078C125.534,658.066,455.634,702.58,457.424,691.533C459.213,680.487,69.151,593.653,69.518,591.799C69.885,589.944,458.158,685.809,459.626,680.404C461.094,674.999,78.048,560.275,78.327,559.369C78.607,558.463,459.463,680.26,461.304,674.97C463.146,669.679,88.841,528.944,89.378,527.625C89.914,526.306,462.316,672.205,464.523,667.054C466.729,661.904,160.373,530.095,102.616,496.721C44.858,463.346,56.989,439.677,117.978,466.807C178.967,493.936,465.65,664.296,468.552,659.5C471.454,654.704,134.87,438.828,135.389,438.029C135.909,437.23,468.438,659.289,471.668,654.705C474.897,650.122,154.192,411.289,154.766,410.527C155.34,409.765,471.57,654.48,475.111,650.131C478.653,645.783,175.058,385.502,176.015,384.436C176.972,383.369,472.905,651.641,480.853,643.733C488.802,635.824,262.195,391.631,223.706,336.985C185.216,282.339,204.018,267.045,249.917,315.856C295.816,364.668,489.68,635.943,499.1,629.852C508.52,623.761,333.541,340.272,306.437,279.308C279.332,218.344,303.071,206.283,336.471,264.066C369.87,321.848,501.664,628.189,506.834,626.003C512.005,623.816,385.408,315.279,367.495,250.948C349.582,186.617,383.111,244.355,399.359,240.017C415.608,235.68,442.866,228.413,464.985,224.922C487.104,221.431,515.279,219.95,532.075,219.073C548.872,218.196,554.555,219.074,565.764,219.659C576.973,220.245,601.621,155.897,599.329,222.585C597.037,289.273,559.424,553.514,552.013,619.788C544.602,686.062,541.433,685.556,554.866,620.231C568.298,554.905,614.18,291.977,632.609,227.837C651.039,163.697,654.599,232.495,665.442,235.39C676.285,238.284,687.053,241.564,697.668,245.206C708.283,248.847,749.278,193.572,729.132,257.237C708.985,320.903,571.697,624.833,576.788,627.198C581.879,629.562,719.571,324.961,759.679,271.426C799.788,217.891,799.082,293.189,817.44,305.988C835.799,318.787,857.123,337.224,869.831,348.219C882.54,359.214,879.568,354.617,893.691,371.959C907.814,389.3,941.689,433.988,954.567,452.267C967.446,470.545,1027.522,446.26,970.964,481.631C914.407,517.001,607.878,643.394,615.222,664.492C622.567,685.59,946.995,606.498,1015.033,608.221C1083.071,609.943,1022.203,652.543,1023.451,674.826C1024.699,697.11,1023.337,725.185,1022.52,741.922C1021.703,758.658,1020.258,764.198,1018.548,775.245C1016.838,786.292,1078.318,817.476,1012.262,808.201C946.206,798.927,623.642,714.191,622.214,719.596C620.786,725.001,1003.932,839.725,1003.693,840.631C1003.453,841.537,622.577,719.74,620.776,725.03C618.974,730.321,933.031,842.667,992.882,872.375C1052.734,902.083,984.571,893.143,979.884,903.279C975.197,913.416,1025.701,960.323,964.762,933.193C903.823,906.064,617.11,735.704,614.248,740.5C611.386,745.296,948.07,961.172,947.591,961.971C947.111,962.77,614.562,740.711,611.372,745.295C608.183,749.878,928.988,988.711,928.454,989.473C927.92,990.235,611.67,745.52,608.169,749.869C604.667,754.217,861.362,967.189,907.445,1015.564C953.529,1063.939,892.537,1032.21,884.668,1040.118C876.8,1048.027,868.635,1055.678,860.234,1063.015C851.834,1070.353,843.155,1077.413,834.263,1084.144C825.371,1090.875,816.221,1097.309,806.881,1103.401C797.541,1109.492,793.096,1113.083,778.223,1120.692C763.351,1128.301,733.012,1142.504,717.645,1149.052C702.278,1155.601,702.149,1155.645,686.021,1159.983C669.892,1164.32,637.266,1171.88,620.875,1175.078C604.483,1178.276,598.774,1178.195,587.672,1179.17C576.57,1180.144,561.227,1247.288,554.265,1180.927C547.303,1114.565,551.475,781.098,545.9,781C540.325,780.902,530.551,1114.272,520.816,1180.341C511.082,1246.41,498.552,1178.778,487.491,1177.415C476.43,1176.052,465.39,1174.297,454.451,1172.163C443.512,1170.029,437.825,1169.51,421.858,1164.61C405.891,1159.71,374.235,1148.769,358.648,1142.763C343.062,1136.757,338.266,1133.652,328.341,1128.574C318.415,1123.497,308.643,1118.058,299.097,1112.297C289.55,1106.537,280.181,1100.427,271.06,1094.012C261.938,1087.597,207.383,1129.443,244.367,1073.807C281.35,1018.171,497.163,763.866,492.96,760.195C488.757,756.524,268.721,1007.14,219.149,1051.781C169.577,1096.422,203.117,1036.221,195.529,1028.041C187.941,1019.862,183.649,1016.088,173.623,1002.703C163.597,989.318,144.44,961.789,135.373,947.733C126.305,933.678,124.253,928.335,119.216,918.369C114.178,908.404,109.477,898.237,105.147,887.942C100.817,877.646,96.837,867.173,93.236,856.598C89.634,846.023,86.394,835.295,83.54,824.492C80.685,813.689,78.201,802.758,76.107,791.779C74.013,780.8,72.376,775.315,70.975,758.619C69.575,741.924,67.936,708.362,67.703,691.605C67.471,674.849,67.478,674.713,69.58,658.078C71.683,641.444,13.378,588.533,80.318,591.799C147.258,595.064,469.75,683.078,471.218,677.673C472.686,672.268,150.967,584.377,89.127,559.369C27.287,534.361,96.13,538.066,100.178,527.625C104.226,517.184,108.649,506.857,113.416,496.721C118.183,486.584,123.316,476.589,128.778,466.807C134.24,457.025,86.961,407.098,146.189,438.029C205.418,468.959,480.92,656.973,484.15,652.389C487.379,647.806,215.122,455.186,165.566,410.527C116.01,365.868,132.798,345.223,186.815,384.436C240.831,423.648,481.717,653.709,489.665,645.8C497.614,637.892,272.664,391.975,234.506,336.985C196.348,281.994,251.745,322.587,260.717,315.856C269.689,309.125,268.742,307.418,288.339,296.599C307.935,285.781,352.567,261.826,378.295,250.948C404.023,240.069,416.741,169.691,442.709,231.328C468.676,292.965,528.586,621.838,534.099,620.77C539.612,619.702,479.93,291.579,475.785,224.922C471.64,158.265,498.046,221.805,509.228,220.83C520.41,219.856,531.653,219.268,542.875,219.073C554.098,218.878,565.355,219.074,576.564,219.659C587.773,220.245,598.988,221.222,610.129,222.585C621.27,223.948,632.39,225.703,643.409,227.837C654.428,229.971,665.399,232.495,676.242,235.39C687.085,238.284,724.125,180.287,708.468,245.206C692.812,310.124,602.887,561.432,582.303,624.898C561.719,688.364,553.603,684.915,584.966,626.003C616.328,567.091,734.646,327.809,770.479,271.426C806.312,215.042,790.337,281.942,799.963,287.703C809.59,293.463,814.796,295.902,828.24,305.988C841.685,316.074,867.923,337.224,880.631,348.219C893.34,359.214,896.823,363.779,904.491,371.959C912.159,380.138,919.559,388.605,926.637,397.297C933.716,405.989,940.507,414.948,946.962,424.11C953.417,433.271,959.567,442.68,965.367,452.267C971.168,461.853,976.647,471.665,981.764,481.631C986.882,491.596,1054.47,479.385,996.073,512.058C937.676,544.732,627.701,667.098,631.382,677.673C635.063,688.248,952.419,587.083,1018.16,575.508C1083.902,563.933,1023.659,597.242,1025.833,608.221C1028.007,619.2,1031.205,641.381,1031.205,641.381" transform="translate(-2.2737367544323206e-13, 1.1368683772161603e-13) rotate(-1.4033418597069752e-14)"></path><path fill="none" stroke-width="1" style="stroke: rgb(255, 71, 171);" d="M980,700C980,700,1048.16,707.501,980.957,708.395C913.753,709.288,577.053,699.773,576.78,705.361C576.507,710.948,979.393,741.033,979.32,741.922C979.246,742.811,643.563,715.458,576.34,710.695C509.116,705.932,576.115,712.464,575.98,713.344C575.845,714.225,510.014,700.168,575.528,715.977C641.042,731.787,969.258,807.334,969.062,808.201C968.866,809.069,575.779,715.777,574.35,721.182C572.922,726.587,960.613,840.203,960.493,840.631C960.372,841.058,577.594,713.306,573.626,723.747C569.658,734.189,937.713,900.833,936.684,903.279C935.655,905.725,572.834,728.642,567.452,738.424C562.07,748.206,905.35,960.49,904.391,961.971C903.431,963.453,568.387,738.38,561.697,747.312C555.006,756.244,864.8,1014.88,864.245,1015.564C863.691,1016.249,609.643,795.118,558.369,751.421C507.094,707.724,509.416,705.266,556.599,753.383C603.783,801.499,841.774,1039.802,841.468,1040.118C841.162,1040.434,602.864,802.448,554.763,755.279C506.661,708.111,518.041,699.089,552.861,757.109C587.681,815.129,765.788,1101.827,763.681,1103.401C761.575,1104.974,545,763.67,540.224,766.552C535.447,769.434,735.404,1120.475,735.023,1120.692C734.642,1120.909,571.97,826.092,537.938,767.852C503.905,709.612,532.833,770.379,530.828,771.252C528.822,772.124,507.242,708.298,525.907,773.086C544.573,837.875,643.66,1159.736,642.821,1159.983C641.981,1160.229,541.622,838.7,520.871,774.565C500.121,710.429,514.384,707.734,518.317,775.168C522.251,842.602,545.681,1111.543,544.472,1179.17C543.263,1246.796,518.027,1247.98,511.065,1180.927C504.103,1113.873,504.531,844.202,502.7,776.847C500.869,709.493,504.259,709.552,500.078,776.801C495.897,844.05,478.488,1180.403,477.616,1180.341C476.745,1180.278,505.908,777.789,494.847,776.426C483.786,775.063,412.545,1172.372,411.251,1172.163C409.957,1171.953,492.515,776.427,487.083,775.168C481.65,773.909,402.06,1101.339,378.658,1164.61C355.256,1227.881,357.207,1158.436,346.672,1154.794C336.137,1151.153,325.704,1147.133,315.448,1142.763C305.193,1138.393,259.805,1191.059,285.141,1128.574C310.476,1066.089,472.336,770.565,467.462,767.852C462.588,765.139,257.016,1112.988,255.897,1112.297C254.778,1111.607,465.42,766.757,460.747,763.709C456.075,760.662,228.216,1094.269,227.86,1094.012C227.504,1093.756,463.059,765.538,458.61,762.171C454.161,758.803,202.179,1074.651,201.167,1073.807C200.155,1072.964,456.742,760.78,452.539,757.109C448.336,753.438,176.572,1052.402,175.949,1051.781C175.326,1051.16,452.737,757.339,448.801,753.383C444.864,749.426,205.392,986.488,152.329,1028.041C99.266,1069.595,137.421,1011.395,130.423,1002.703C123.424,994.011,116.713,985.052,110.338,975.89C103.963,966.729,37.778,987.702,92.173,947.733C146.568,907.765,439.401,740.972,436.708,736.078C434.015,731.184,138.476,893.059,76.016,918.369C13.556,943.68,66.277,898.237,61.947,887.942C57.617,877.646,-11.602,883.964,50.036,856.598C111.673,829.233,368.271,746.317,431.774,723.747C495.276,701.178,431.276,722.041,431.05,721.182C430.823,720.323,497.628,712.352,430.415,718.591C363.203,724.831,28.075,760.824,27.775,758.619C27.476,756.414,429.087,710.935,428.62,705.361C428.152,699.786,92.322,727.466,24.969,725.174C-42.384,722.881,24.268,702.788,24.503,691.605C24.738,680.423,25.366,669.22,26.38,658.078C27.395,646.936,-36.681,619.992,30.592,624.755C97.865,629.518,363.353,676.778,430.02,686.656C496.687,696.534,496.076,699.832,430.592,684.023C365.108,668.213,101.229,612.574,37.118,591.799C-26.993,571.023,42.617,570.065,45.927,559.369C49.237,548.674,52.93,538.066,56.978,527.625C61.026,517.184,65.449,506.857,70.216,496.721C74.983,486.584,23.749,439.714,85.578,466.807C147.407,493.899,438.288,664.073,441.19,659.277C444.092,654.481,101.899,439.474,102.989,438.029C104.08,436.583,440.961,659.536,447.731,650.603C454.502,641.671,190.465,432.889,143.615,384.436C96.765,335.982,114.664,316.806,166.632,359.882C218.599,402.958,451.307,646.707,455.419,642.891C459.531,639.075,190.958,337.278,191.306,336.985C191.653,336.691,412.78,590.722,457.503,641.131C502.227,691.541,499.646,693.656,459.648,639.443C419.65,585.231,216.774,316.382,217.517,315.856C218.26,315.331,459.504,639.5,464.107,636.291C468.711,633.081,244.754,296.843,245.139,296.599C245.524,296.356,461.601,637.712,466.417,634.83C471.233,631.948,301.094,341.102,274.037,279.308C246.979,217.514,269.968,205.826,304.071,264.066C338.173,322.306,448.695,568.274,478.652,628.748C508.609,689.223,502.428,691.702,483.813,626.914C465.197,562.125,381.01,305.948,366.959,240.017C352.908,174.086,378.708,167.192,399.509,231.328C420.309,295.464,486.25,625.9,491.763,624.832C497.275,623.764,430.776,225.171,432.585,224.922C434.395,224.673,491.438,624.315,502.619,623.34C513.801,622.365,498.305,219.097,499.675,219.073C501.046,219.05,505.227,623.102,510.842,623.199C516.457,623.297,532.452,219.597,533.364,219.659C534.275,219.722,510.718,623.086,516.313,623.574C521.907,624.061,566.024,222.461,566.929,222.585C567.834,222.71,528.826,557.279,521.744,624.32C514.662,691.361,495.273,686.012,524.437,624.832C553.602,563.651,694.125,256.41,696.732,257.237C699.338,258.065,534.985,627.432,540.077,629.796C545.168,632.161,691.165,328.442,727.279,271.426C763.394,214.41,786.346,227.135,756.763,287.703C727.181,348.27,583.895,576.732,549.783,634.83C515.671,692.928,551.331,635.791,552.093,636.291C552.854,636.791,511.036,689.512,554.35,637.829C597.663,586.146,810.901,325.349,811.973,326.193C813.045,327.036,556.538,639.22,560.781,642.891C565.024,646.562,787.346,393.374,837.431,348.219C887.516,303.063,853.623,363.779,861.291,371.959C868.959,380.138,876.359,388.605,883.437,397.297C890.516,405.989,897.307,414.948,903.762,424.11C910.217,433.271,916.367,442.68,922.167,452.267C927.968,461.853,933.447,471.665,938.564,481.631C943.682,491.596,1012.231,480.044,952.873,512.058C893.514,544.073,580.388,668.493,582.413,673.717C584.438,678.941,964.728,542.551,965.024,543.402C965.321,544.252,582.534,673.467,584.19,678.818C585.846,684.169,908.553,587.274,974.96,575.508C1041.367,563.742,1047.349,589.255,982.633,608.221C917.916,627.187,652.542,674.902,586.66,689.305C520.777,703.708,519.942,697.052,587.34,694.639C654.739,692.226,923.648,672.534,991.051,674.826C1058.454,677.119,1058.988,703.752,991.757,708.395C924.525,713.037,655.097,702.299,587.661,702.682C520.224,703.065,520.725,698.601,587.14,710.695C653.554,722.789,986.208,774.803,986.148,775.245C986.088,775.687,587.828,707.852,586.78,713.344C585.732,718.837,915.777,786.987,979.862,808.201C1043.947,829.416,974.523,829.935,971.293,840.631C968.063,851.326,964.45,861.934,960.482,872.375C956.514,882.816,952.171,893.143,947.484,903.279C942.797,913.416,940.934,918.828,932.362,933.193C923.79,947.559,905.606,975.745,896.054,989.473C886.501,1003.202,929.821,1054.913,875.045,1015.564C820.27,976.216,571.196,749.29,567.399,753.383C563.603,757.475,808.863,988.513,852.268,1040.118C895.674,1091.724,836.235,1055.678,827.834,1063.015C819.434,1070.353,815.532,1074.531,801.863,1084.144C788.195,1093.756,770.53,1108.052,745.823,1120.692C721.116,1133.332,688.891,1217.786,653.621,1159.983C618.351,1102.179,539.587,772.422,534.202,773.87C528.817,775.319,622.159,1168.456,621.311,1168.672C620.464,1168.888,534.59,774.1,529.117,775.168C523.645,776.236,584.116,1107.745,588.475,1175.078C592.834,1242.412,566.374,1178.195,555.272,1179.17C544.17,1180.144,529.264,1247.988,521.865,1180.927C514.466,1113.865,516.453,776.898,510.878,776.801C505.303,776.703,488.853,1180.364,488.416,1180.341C487.98,1180.317,513.814,777.148,508.259,776.66C502.705,776.173,469.459,1111.498,455.091,1177.415C440.723,1243.332,414.919,1239.204,422.051,1172.163C429.183,1105.122,503.315,776.427,497.883,775.168C492.45,773.909,390.723,1164.957,389.458,1164.61C388.193,1164.263,500.828,776.727,490.293,773.086C479.758,769.445,327.47,1143.243,326.248,1142.763C325.027,1142.282,488.015,772.568,482.963,770.204C477.912,767.839,296.724,1128.966,295.941,1128.574C295.157,1128.182,448.256,828.189,478.262,767.852C508.268,707.515,511.237,709.144,475.976,766.552C440.715,823.959,267.435,1112.771,266.697,1112.297C265.959,1111.824,480.669,770.124,471.547,763.709C462.426,757.294,259.433,1025.795,211.967,1073.807C164.5,1121.819,194.888,1059.409,186.749,1051.781C178.609,1044.153,117.948,1078.101,163.129,1028.041C208.309,977.981,461.482,755.644,457.831,751.421C454.18,747.198,142.283,1004.111,141.223,1002.703C140.163,1001.295,399.996,786.636,451.471,742.973C502.945,699.309,508.153,706.596,450.07,740.723C391.987,774.85,163.515,918.126,102.973,947.733C42.43,977.341,91.853,928.335,86.816,918.369C81.778,908.404,77.077,898.237,72.747,887.942C68.417,877.646,-0.681,884.392,60.836,856.598C122.353,828.805,443.466,726.533,441.85,721.182C440.234,715.831,117.497,812.726,51.14,824.492C-15.217,836.258,-21.079,810.745,43.707,791.779C108.494,772.813,441.183,721.796,439.86,710.695C438.537,699.594,103.195,728.355,35.769,725.174C-31.657,721.992,-31.978,696.248,35.303,691.605C102.585,686.963,372.067,696.812,439.459,697.318C506.852,697.824,506.706,701.179,439.66,694.639C372.613,688.099,37.067,658.967,37.18,658.078C37.294,657.189,439.639,694.859,440.34,689.305C441.042,683.751,106.796,641.006,41.392,624.755C-24.012,608.504,-18.859,582.356,47.918,591.799C114.695,601.241,440.587,686.814,442.055,681.409C443.524,676.004,55.951,561.48,56.727,559.369C57.504,557.258,440.108,684.17,446.716,668.743C453.325,653.316,151.866,505.259,96.378,466.807C40.89,428.354,54.267,406.325,113.789,438.029C173.312,469.732,442.904,670.052,453.511,657.027C464.118,644.003,175.651,361.933,177.432,359.882C179.213,357.83,460.085,648.537,464.197,644.721C468.31,640.904,201.421,337.583,202.106,336.985C202.79,336.387,463.935,644.653,468.303,641.131C472.672,637.61,263.711,373.278,228.317,315.856C192.923,258.434,214.455,243.437,255.939,296.599C297.422,349.762,472.401,637.712,477.217,634.83C482.033,631.948,306.724,343.288,284.837,279.308C262.95,215.328,330.408,257.496,345.895,250.948C361.382,244.399,367.024,243.287,377.759,240.017C388.495,236.747,399.371,233.844,410.309,231.328C421.246,228.812,432.298,226.672,443.385,224.922C454.472,223.172,465.646,221.805,476.828,220.83C488.01,219.856,499.253,219.268,510.475,219.073C521.698,218.878,541.846,152.281,544.164,219.659C546.481,287.037,518.786,622.852,524.381,623.34C529.975,623.827,576.82,222.492,577.729,222.585C578.638,222.679,524.288,623.025,529.835,623.9C535.382,624.776,592.008,292.589,611.009,227.837C630.01,163.086,632.999,232.495,643.842,235.39C654.685,238.284,665.453,241.564,676.068,245.206C686.683,248.847,728.397,193.139,707.532,257.237C686.666,321.336,576.571,567.514,550.877,629.796C525.183,692.079,522.167,690.658,553.368,630.93C584.568,571.202,737.671,271.223,738.079,271.426C738.488,271.629,550.904,629.435,555.818,632.148C560.732,634.861,727.56,342.063,767.563,287.703C807.567,233.343,828.504,246.79,795.84,305.988C763.177,365.186,608.621,586.436,571.581,642.891C534.541,699.347,572.94,644.1,573.603,644.721C574.266,645.342,525.811,692.078,575.559,646.617C625.307,601.157,871.182,370.947,872.091,371.959C873.001,372.971,573.938,643.996,581.017,652.688C588.095,661.38,853.171,452.619,914.562,424.11C975.953,395.6,941.179,466.972,949.364,481.631C957.549,496.289,959.263,501.763,963.673,512.058C968.083,522.354,1037.271,515.608,975.824,543.402C914.377,571.195,593.334,673.467,594.99,678.818C596.646,684.169,985.635,575.076,985.76,575.508C985.886,575.94,660.637,663.323,595.745,681.409C530.853,699.495,530.127,696.221,596.408,684.023C662.689,671.825,993.337,607.782,993.433,608.221C993.528,608.66,662.975,673.142,596.98,686.656C530.984,700.17,530.489,696.851,597.46,689.305C664.43,681.759,998.74,640.937,998.805,641.381C998.869,641.825,597.339,686.393,597.846,691.967C598.354,697.542,934.399,672.089,1001.851,674.826C1069.303,677.564,1002.712,697.212,1002.557,708.395C1002.402,719.577,1001.854,730.78,1000.92,741.922C999.985,753.064,998.658,764.198,996.948,775.245C995.238,786.292,1057.751,816.362,990.662,808.201C923.573,800.041,597.643,715.588,594.413,726.283C591.183,736.979,910.637,842.876,971.282,872.375C1031.927,901.874,962.971,893.143,958.284,903.279C953.597,913.416,948.544,923.411,943.162,933.193C937.78,942.975,985.463,993.675,925.991,961.971C866.518,930.268,589.519,738.389,586.329,742.973C583.14,747.556,856.934,944.041,906.854,989.473C956.773,1034.905,940.326,1055.24,885.845,1015.564C831.364,975.889,583.765,747.329,579.969,751.421C576.173,755.513,828.85,981.455,863.068,1040.118C897.287,1098.782,835.489,1148.995,785.281,1103.401C735.074,1057.806,566.6,763.67,561.824,766.552C557.047,769.434,729.122,1059.128,756.623,1120.692C784.124,1182.256,761.269,1194.014,726.829,1135.934C692.389,1077.854,560.385,768.205,549.983,772.213C539.582,776.221,665.251,1159.706,664.421,1159.983C663.591,1160.259,561.393,770.673,545.002,773.87C528.611,777.068,568.649,1178.705,566.072,1179.17C563.495,1179.635,540.683,776.465,529.541,776.66C518.398,776.855,500.963,1180.341,499.216,1180.341C497.47,1180.341,530.12,778.023,519.059,776.66C507.998,775.297,434.58,1172.411,432.851,1172.163C431.121,1171.914,519.446,778.063,508.683,775.168C497.919,772.273,396.877,1093.529,368.272,1154.794C339.666,1216.06,347.304,1147.133,337.048,1142.763C326.793,1138.393,281.405,1191.059,306.741,1128.574C332.076,1066.089,493.936,770.565,489.062,767.852C484.188,765.139,317.43,1057.937,277.497,1112.297C237.563,1166.657,258.581,1100.427,249.46,1094.012C240.338,1087.597,185.637,1130.263,222.767,1073.807C259.896,1017.352,480.377,762.907,472.237,755.279C464.098,747.652,174.53,1028.684,173.929,1028.041C173.328,1027.398,419.797,797.862,468.631,751.421C517.465,704.98,519.7,707.516,466.931,749.397C414.163,791.277,207.855,964.954,152.023,1002.703C96.191,1040.452,138.313,985.052,131.938,975.89C125.563,966.729,119.493,957.32,113.773,947.733C108.052,938.147,102.653,928.335,97.616,918.369C92.578,908.404,87.877,898.237,83.547,887.942C79.217,877.646,9.998,883.964,71.636,856.598C133.273,829.233,454.99,729.098,453.374,723.747C451.758,718.396,62.166,825.351,61.94,824.492C61.713,823.633,453.254,724.043,452.015,718.591C450.777,713.139,54.673,792.654,54.507,791.779C54.341,790.905,385.068,727.748,451.02,713.344C516.972,698.941,517.628,703.389,450.22,705.361C382.811,707.332,46.58,726.067,46.569,725.174C46.558,724.28,450.23,705.595,450.153,700C450.075,694.405,112.43,704.146,46.103,691.605C-20.224,679.065,50.089,641.389,52.192,624.755C54.294,608.121,-8.059,582.356,58.718,591.799C125.495,601.241,451.387,686.814,452.855,681.409C454.324,676.004,127.701,590.151,67.527,559.369C7.354,528.588,82.306,516.944,91.816,496.721C101.326,476.497,112.356,456.743,124.589,438.029C136.823,419.314,107.14,349.671,165.215,384.436C223.29,419.2,469.204,650.71,473.041,646.617C476.877,642.525,231.587,411.487,188.232,359.882C144.876,308.276,163.326,290.917,212.906,336.985C262.485,383.053,471.919,645.903,485.707,636.291C499.496,626.678,294.457,279.998,295.637,279.308C296.816,278.617,487.777,634.688,492.782,632.148C497.788,629.607,348.352,327.599,325.671,264.066C302.989,200.533,346.214,254.956,356.695,250.948C367.176,246.94,377.824,243.287,388.559,240.017C399.295,236.747,410.171,233.844,421.109,231.328C432.046,228.812,437.455,159.548,454.185,224.922C470.915,290.296,515.913,624.255,521.487,623.574C527.061,622.892,482.049,288.149,487.628,220.83C493.207,153.511,547.038,152.574,554.964,219.659C562.889,286.744,529.586,622.852,535.181,623.34C540.775,623.827,587.62,222.492,588.529,222.585C589.438,222.679,535.088,623.025,540.635,623.9C546.182,624.776,602.808,292.589,621.809,227.837C640.81,163.086,638.555,230.49,654.642,235.39C670.729,240.29,702.625,251.231,718.332,257.237C734.038,263.243,734.161,263.301,748.879,271.426C763.598,279.551,792.525,296.86,806.64,305.988C820.756,315.116,824.841,319.154,833.573,326.193C842.305,333.231,850.812,340.591,859.031,348.219C867.251,355.847,875.223,363.779,882.891,371.959C890.559,380.138,897.959,388.605,905.037,397.297C912.116,405.989,977.02,380.821,925.362,424.11C873.704,467.398,592.022,652.335,595.089,657.027C598.157,661.72,882.922,481.5,943.767,452.267C1004.613,423.034,955.047,471.665,960.164,481.631C965.282,491.596,970.063,501.763,974.473,512.058C978.883,522.354,982.943,532.827,986.624,543.402C990.306,553.977,1059.907,552.507,996.56,575.508C933.214,598.509,605.266,675.957,606.545,681.409C607.823,686.861,1003.947,606.905,1004.233,608.221C1004.518,609.537,607.364,683.778,608.26,689.305C609.155,694.832,1009.54,640.937,1009.605,641.381C1009.669,641.825,608.139,686.393,608.646,691.967C609.154,697.542,945.199,672.089,1012.651,674.826C1080.103,677.564,1013.512,697.212,1013.357,708.395C1013.202,719.577,1012.654,730.78,1011.72,741.922C1010.785,753.064,1009.458,764.198,1007.748,775.245C1006.038,786.292,1068.189,817.644,1001.462,808.201C934.735,798.759,608.813,713.186,607.385,718.591C605.956,723.996,993.119,839.771,992.893,840.631C992.666,841.49,607.828,718.456,606.026,723.747C604.225,729.038,924.093,837.467,982.082,872.375C1040.071,907.283,1017.667,955.519,953.962,933.193C890.257,910.868,602.714,733.627,599.852,738.424C596.99,743.22,883.824,920.13,936.791,961.971C989.758,1003.813,924.345,980.541,917.654,989.473C910.963,998.405,903.943,1007.124,896.645,1015.564C889.348,1024.005,925.449,1083.499,873.868,1040.118C822.288,996.738,635.264,802.448,587.163,755.279C539.061,708.111,541.549,705.819,585.261,757.109C628.973,808.398,850.802,1061.915,849.434,1063.015C848.066,1064.115,585.945,756.979,577.053,763.709C568.16,770.44,769.319,1041.363,796.081,1103.401C822.844,1165.438,752.502,1128.325,737.629,1135.934C722.757,1143.543,717.246,1145.044,706.845,1149.052C696.444,1153.06,700.395,1222.513,675.221,1159.983C650.047,1097.452,561.187,772.422,555.802,773.87C550.417,775.319,633.866,1101.804,642.911,1168.672C651.957,1235.54,621.082,1173.328,610.075,1175.078C599.068,1176.828,587.974,1178.195,576.872,1179.17C565.77,1180.144,554.607,1180.732,543.465,1180.927C532.322,1181.122,512.719,1247.758,510.016,1180.341C507.314,1112.924,532.802,776.914,527.247,776.426C521.693,775.939,496.056,1112.717,476.691,1177.415C457.326,1242.112,432.532,1170.386,411.058,1164.61C389.584,1158.835,363.435,1148.769,347.848,1142.763C332.262,1136.757,327.466,1133.652,317.541,1128.574C307.615,1123.497,297.843,1118.058,288.297,1112.297C278.75,1106.537,269.381,1100.427,260.26,1094.012C251.138,1087.597,242.219,1080.846,233.567,1073.807C224.915,1066.769,216.488,1059.409,208.349,1051.781C200.209,1044.153,192.317,1036.221,184.729,1028.041C177.141,1019.862,169.821,1011.395,162.823,1002.703C155.824,994.011,91.263,1019.554,142.738,975.89C194.212,932.227,474.697,745.416,471.67,740.723C468.642,736.03,185.115,918.126,124.573,947.733C64.03,977.341,51.186,954.044,108.416,918.369C165.645,882.695,472.28,743.983,467.95,733.688C463.62,723.392,148.304,841.464,82.436,856.598C16.567,871.732,76.45,840.822,72.74,824.492C69.03,808.162,62.737,775.172,60.175,758.619C57.614,742.066,57.915,736.343,57.369,725.174C56.824,714.005,56.668,702.788,56.903,691.605C57.138,680.423,-8.661,658.018,58.78,658.078C126.222,658.138,460.852,697.521,461.554,691.967C462.255,686.413,128.331,641.45,62.992,624.755C-2.347,608.06,66.962,602.696,69.518,591.799C72.074,580.901,75.017,570.065,78.327,559.369C81.637,548.674,85.33,538.066,89.378,527.625C93.426,517.184,39.261,473.606,102.616,496.721C165.971,519.835,466.95,671.298,469.51,666.312C472.07,661.327,173.665,504.854,117.978,466.807C62.291,428.759,129.258,447.409,135.389,438.029C141.521,428.649,147.995,419.459,154.766,410.527C161.537,401.595,121.484,344.76,176.015,384.436C230.546,424.111,478.115,652.671,481.951,648.579C485.787,644.487,242.073,411.814,199.032,359.882C155.991,307.949,215.225,344.322,223.706,336.985C232.186,329.647,236.128,325.469,249.917,315.856C263.705,306.244,292.011,287.94,306.437,279.308C320.862,270.676,326.294,268.793,336.471,264.066C346.647,259.339,357.014,254.956,367.495,250.948C377.976,246.94,388.624,243.287,399.359,240.017C410.095,236.747,420.971,233.844,431.909,231.328C442.846,228.812,448.709,159.493,464.985,224.922C481.261,290.351,518.348,557.459,529.565,623.9C540.782,690.342,537.477,690.752,532.287,623.574C527.098,556.395,497.516,220.893,498.428,220.83C499.34,220.768,532.15,623.492,537.758,623.199C543.366,622.907,531.618,219.081,532.075,219.073C532.532,219.065,534.885,623.055,540.5,623.153C546.115,623.25,564.395,219.589,565.764,219.659C567.132,219.729,543.118,623.086,548.713,623.574C554.307,624.061,585.346,288.541,599.329,222.585C613.312,156.629,616.219,224.067,632.609,227.837C648.999,231.607,708.112,178.387,697.668,245.206C687.225,312.024,559.612,624.378,569.948,628.748C580.283,633.118,723.143,328.267,759.679,271.426C796.215,214.585,818.361,226.892,789.163,287.703C759.965,348.513,579.78,633.243,584.493,636.291C589.205,639.338,774.127,357.671,817.44,305.988C860.754,254.305,831.665,315.198,844.373,326.193C857.082,337.188,881.78,360.108,893.691,371.959C905.602,383.809,908.759,388.605,915.837,397.297C922.916,405.989,926.974,410.054,936.162,424.11C945.35,438.165,959.098,456.398,970.964,481.631C982.831,506.864,999.12,548.883,1007.36,575.508C1015.6,602.133,1017.723,624.828,1020.405,641.381C1023.086,657.934,1023.098,658.07,1023.451,674.826C1023.803,691.583,1023.337,725.185,1022.52,741.922C1021.703,758.658,1020.258,764.198,1018.548,775.245C1016.838,786.292,1014.738,797.304,1012.262,808.201C1009.786,819.099,1006.923,829.935,1003.693,840.631C1000.463,851.326,996.85,861.934,992.882,872.375C988.914,882.816,984.571,893.143,979.884,903.279C975.197,913.416,970.144,923.411,964.762,933.193C959.38,942.975,1007.063,993.675,947.591,961.971C888.118,930.268,614.62,734.04,607.929,742.973C601.239,751.905,861.322,966.04,907.445,1015.564C953.568,1065.089,936.566,1083.194,884.668,1040.118C832.771,997.042,644.49,803.984,596.061,757.109C547.632,710.234,554.396,704.363,594.097,758.869C633.797,813.374,836.423,1082.646,834.263,1084.144C832.103,1085.641,595.443,759.221,581.138,767.852C566.832,776.484,730.949,1070.579,748.429,1135.934C765.91,1201.289,701.807,1154.526,686.021,1159.983C670.234,1165.439,664.569,1166.156,653.711,1168.672C642.854,1171.188,631.882,1173.328,620.875,1175.078C609.868,1176.828,598.774,1178.195,587.672,1179.17C576.57,1180.144,565.407,1180.732,554.265,1180.927C543.122,1181.122,531.945,1180.926,520.816,1180.341C509.687,1179.755,498.552,1178.778,487.491,1177.415C476.43,1176.052,447.745,1239.304,454.451,1172.163C461.157,1105.021,533.161,775.823,527.729,774.565C522.297,773.306,422.28,1164.726,421.858,1164.61C421.436,1164.495,530.529,775.506,525.198,773.87C519.867,772.234,417.63,1093.312,389.872,1154.794C362.113,1216.276,368.904,1147.133,358.648,1142.763C348.393,1138.393,338.266,1133.652,328.341,1128.574C318.415,1123.497,308.643,1118.058,299.097,1112.297C289.55,1106.537,280.181,1100.427,271.06,1094.012C261.938,1087.597,253.019,1080.846,244.367,1073.807C235.715,1066.769,227.288,1059.409,219.149,1051.781C211.009,1044.153,203.117,1036.221,195.529,1028.041C187.941,1019.862,180.621,1011.395,173.623,1002.703C166.624,994.011,159.913,985.052,153.538,975.89C147.163,966.729,141.093,957.32,135.373,947.733C129.652,938.147,124.253,928.335,119.216,918.369C114.178,908.404,109.477,898.237,105.147,887.942C100.817,877.646,96.837,867.173,93.236,856.598C89.634,846.023,86.394,835.295,83.54,824.492C80.685,813.689,78.201,802.758,76.107,791.779C74.013,780.8,72.298,769.72,70.975,758.619C69.652,747.518,68.715,736.343,68.169,725.174C67.624,714.005,67.468,702.788,67.703,691.605C67.938,680.423,67.478,674.713,69.58,658.078C71.683,641.444,77.06,608.25,80.318,591.799C83.576,575.347,81.051,580.201,89.127,559.369C97.204,538.537,119.268,487.03,128.778,466.807C138.288,446.583,136.517,451.757,146.189,438.029C155.862,424.3,129.054,349.344,186.815,384.436C244.575,419.527,488.915,652.671,492.751,648.579C496.587,644.487,252.873,411.814,209.832,359.882C166.791,307.949,226.025,344.322,234.506,336.985C242.986,329.647,251.745,322.587,260.717,315.856C269.689,309.125,278.919,302.691,288.339,296.599C297.759,290.508,307.415,284.73,317.237,279.308C327.059,273.886,331.784,270.614,347.271,264.066C362.758,257.518,394.253,245.474,410.159,240.017C426.066,234.561,431.771,233.844,442.709,231.328C453.646,228.812,447.882,226.379,475.785,224.922C503.688,223.465,576.72,220.841,610.129,222.585C643.539,224.33,659.852,231.62,676.242,235.39C692.632,239.16,692.762,239.2,708.468,245.206C724.175,251.212,750.517,261.295,770.479,271.426C790.441,281.556,814.125,296.86,828.24,305.988C842.356,315.116,842.465,315.198,855.173,326.193C867.882,337.188,892.58,360.108,904.491,371.959C916.402,383.809,913.758,379.018,926.637,397.297C939.516,415.576,970.192,462.504,981.764,481.631C993.337,500.757,1055.135,479.194,996.073,512.058C937.011,544.923,623.709,668.243,627.39,678.818C631.072,689.393,951.753,587.274,1018.16,575.508C1084.567,563.742,1023.659,597.242,1025.833,608.221C1028.007,619.2,1031.205,641.381,1031.205,641.381" transform="translate(-2.2737367544323206e-13, 1.1368683772161603e-13) rotate(-1.4033418597069752e-14)"></path>
      </svg>
      