<?xml version="1.0" encoding="UTF-8" standalone="no"?>
    <!-- Created with Inkscape (https://labs.original.art.br/draw) -->
    
    <svg
       xmlns:dc="http://purl.org/dc/elements/1.1/"
       xmlns:cc="http://creativecommons.org/ns#"
       xmlns:rdf="http://www.w3.org/1999/02/22-rdf-syntax-ns#"
       xmlns:svg="http://www.w3.org/2000/svg"
       xmlns="http://www.w3.org/2000/svg"
       xmlns:sodipodi="http://sodipodi.sourceforge.net/DTD/sodipodi-0.dtd"
       xmlns:inkscape="http://www.inkscape.org/namespaces/inkscape"
       id="mtEDd"
       version="1.1"
       inkscape:version="0.91 r13725"
       width="undefined"
       height="undefined"
       viewBox="0 0 undefined undefined"
       sodipodi:docname="_paths6.svg">
      <metadata
         id="metadata3404">
        <rdf:RDF>
          <cc:Work
             rdf:about="">
            <dc:format>image/svg+xml</dc:format>
            <dc:type
               rdf:resource="http://purl.org/dc/dcmitype/StillImage" />
            <dc:title></dc:title>
          </cc:Work>
        </rdf:RDF>
      </metadata>
      undefined<path fill="none" stroke-width="1" style="stroke: rgb(0, 71, 171);" d="M5.915,500L4.705,498.221C3.494,496.442,1.073,492.884,3.376,490.807C5.68,488.731,12.708,488.137,17.158,485.368C21.609,482.599,23.482,477.655,24.652,474.744C25.822,471.833,26.289,470.954,25.472,470.273C24.655,469.592,22.555,469.109,24.021,469.114C25.487,469.12,30.519,469.614,32.899,470.867C35.279,472.12,35.006,474.132,36.055,474.133C37.104,474.135,39.475,472.127,40.607,471.198C41.74,470.268,41.636,470.417,41.599,470.561C41.561,470.704,41.592,470.843,41.887,470.49C42.183,470.137,42.745,469.292,43.491,468.165C44.236,467.037,45.166,465.626,46.395,466.072C47.623,466.517,49.151,468.818,50.253,468.255C51.355,467.691,52.031,464.263,53.932,464.048C55.833,463.833,58.96,466.832,60.554,467.47C62.149,468.108,62.211,466.386,63.582,466.837C64.952,467.288,67.632,469.912,69.21,470.451C70.788,470.99,71.265,469.443,70.889,469.21C70.513,468.976,69.283,470.056,70.811,471.627C72.339,473.198,76.624,475.26,78.932,476.073C81.24,476.885,81.572,476.449,83.478,475.069C85.385,473.689,88.867,471.366,91.746,470.146C94.625,468.925,96.901,468.808,98.14,468.94C99.378,469.073,99.581,469.455,100.71,468.434C101.84,467.413,103.897,464.99,105.913,465.488C107.93,465.986,109.907,469.405,110.72,470.801C111.532,472.197,111.182,471.57,111.925,471.073C112.668,470.577,114.505,470.211,116.041,470.876C117.578,471.54,118.813,473.233,120.425,472.393C122.036,471.553,124.023,468.178,126.346,466.979C128.67,465.779,131.33,466.754,133.02,468.589C134.71,470.423,135.431,473.117,136.991,473.072C138.551,473.027,140.949,470.242,142.43,469.102C143.911,467.962,144.474,468.467,145.649,469.831C146.823,471.194,148.608,473.417,149.626,473.237C150.643,473.056,150.894,470.473,151.089,469.967C151.283,469.462,151.421,471.034,153.655,471.863C155.889,472.692,160.218,472.777,162.803,472.443C165.389,472.11,166.231,471.358,166.135,470.689C166.039,470.02,165.006,469.435,165.354,469.116C165.703,468.798,167.434,468.747,169.164,469.221C170.893,469.695,172.621,470.694,173.863,470.685C175.105,470.677,175.861,469.66,176.322,469.224C176.784,468.788,176.952,468.933,178.656,469.377C180.361,469.82,183.603,470.563,186.392,470.553C189.181,470.543,191.517,469.782,193.944,469.227C196.371,468.672,198.888,468.323,200.309,467.811C201.73,467.298,202.054,466.621,202.223,466.946C202.391,467.27,202.404,468.596,203.836,469.435C205.269,470.275,208.122,470.628,209.754,470.764C211.386,470.899,211.798,470.817,212.967,470.173C214.137,469.529,216.063,468.323,217.389,468.821C218.714,469.318,219.44,471.52,220.443,472.193C221.446,472.866,222.726,472.01,223.72,470.4C224.715,468.79,225.423,466.427,226.503,466.232C227.584,466.038,229.038,468.013,228.309,468.922C227.58,469.83,224.667,469.672,225.349,470.375C226.03,471.079,230.306,472.645,233.86,471.68C237.415,470.715,240.249,467.219,243.405,466.156C246.56,465.093,250.038,466.461,251.981,467.656C253.924,468.85,254.332,469.871,254.103,468.909C253.875,467.947,253.009,465.004,255.85,465.962C258.691,466.919,265.241,471.778,270.031,473.433C274.821,475.087,277.852,473.536,278.564,471.947C279.275,470.358,277.667,468.73,278.62,469.832C279.574,470.934,283.088,474.766,286.458,476.629C289.828,478.492,293.053,478.387,296.286,476.945C299.519,475.504,302.76,472.727,305.215,472.277C307.671,471.828,309.34,473.705,311.566,474.5C313.792,475.296,316.573,475.011,318.146,474.079C319.719,473.147,320.084,471.569,319.73,470.325C319.376,469.08,318.304,468.169,319.372,468.114C320.44,468.06,323.649,468.863,325.755,470.269C327.861,471.675,328.864,473.684,329.428,472.8C329.993,471.916,330.12,468.139,331.843,467.503C333.565,466.867,336.884,469.372,339.065,470.472C341.245,471.571,342.286,471.266,342.067,471.704C341.848,472.143,340.369,473.325,341.545,473.147C342.722,472.969,346.554,471.432,349.772,470.175C352.99,468.919,355.593,467.945,356.627,468.258C357.661,468.572,357.126,470.173,357.676,470.706C358.226,471.239,359.862,470.703,360.225,469.94C360.588,469.177,359.679,468.187,359.408,469.287C359.137,470.387,359.504,473.578,361.766,474.377C364.028,475.177,368.184,473.584,372.138,472.64C376.092,471.697,379.842,471.401,381.946,471.211C384.05,471.02,384.507,470.934,384.023,471.1C383.54,471.266,382.114,471.683,383.348,471.796C384.582,471.908,388.476,471.715,389.53,471.393C390.585,471.07,388.8,470.618,390.845,469.365C392.89,468.111,398.764,466.056,401.779,466.09C404.793,466.124,404.948,468.247,405.705,470.05C406.462,471.853,407.822,473.336,409.022,473.045C410.223,472.754,411.264,470.688,412.541,470.504C413.819,470.32,415.331,472.019,416.653,472.076C417.974,472.133,419.105,470.548,419.97,469.929C420.836,469.311,421.436,469.659,420.471,470.425C419.505,471.192,416.974,472.377,418.838,472.549C420.702,472.721,426.961,471.88,431.067,472.374C435.172,472.868,437.123,474.698,437.651,473.627C438.18,472.556,437.285,468.585,438.797,468.115C440.309,467.645,444.228,470.677,446.949,470.704C449.669,470.731,451.193,467.753,452.193,467.438C453.193,467.124,453.67,469.473,455.496,470.553C457.321,471.634,460.495,471.445,461.948,470.501C463.401,469.557,463.132,467.857,464.486,468.836C465.84,469.815,468.816,473.474,470.729,475.152C472.642,476.83,473.493,476.528,476.956,476.039C480.42,475.55,486.497,474.873,488.839,473.672C491.181,472.47,489.788,470.744,490.656,468.824C491.524,466.904,494.654,464.79,498.725,465.736C502.795,466.681,507.805,470.686,511.816,471.541C515.826,472.396,518.837,470.102,520.589,469.229C522.341,468.355,522.833,468.902,523.119,469.559C523.404,470.217,523.481,470.984,522.889,470.557C522.297,470.13,521.034,468.508,521.886,469.11C522.737,469.712,525.702,472.537,529.17,473.186C532.638,473.835,536.609,472.306,538.192,472.383C539.776,472.46,538.972,474.143,538.589,473.345C538.207,472.546,538.248,469.266,541.224,468.334C544.199,467.402,550.111,468.818,552.801,469.679C555.492,470.539,554.961,470.845,554.853,471.325C554.745,471.806,555.06,472.462,557.055,473.261C559.05,474.059,562.725,475.001,565.514,474.592C568.302,474.183,570.204,472.423,572.125,471.945C574.047,471.467,575.99,472.271,576.912,471.428C577.835,470.585,577.738,468.096,578.8,468.694C579.862,469.293,582.083,472.979,583.627,474.629C585.17,476.278,586.036,475.89,588.135,473.945C590.235,472,593.568,468.498,595.861,467.397C598.155,466.296,599.41,467.596,600.901,468.241C602.393,468.885,604.121,468.874,605.732,469.206C607.344,469.537,608.84,470.211,608.06,470.213C607.279,470.215,604.223,469.545,605.412,469.201C606.602,468.857,612.038,468.839,615.498,469.07C618.959,469.301,620.445,469.782,620.988,470.29C621.53,470.799,621.128,471.335,622.964,471.166C624.799,470.998,628.872,470.125,629.491,469.487C630.11,468.849,627.276,468.446,627.761,468.852C628.246,469.258,632.051,470.474,635.526,470.14C639.001,469.807,642.147,467.924,646.125,467.904C650.104,467.884,654.915,469.728,657.55,470.181C660.185,470.635,660.644,469.698,660.613,470.624C660.583,471.551,660.062,474.342,661.703,475.291C663.344,476.24,667.147,475.348,669.572,473.784C671.996,472.22,673.042,469.985,674.756,469.82C676.47,469.655,678.852,471.561,680.398,471.41C681.945,471.259,682.655,469.051,684.51,468.08C686.365,467.109,689.365,467.375,689.844,467.698C690.324,468.022,688.283,468.402,688.72,470.167C689.157,471.932,692.073,475.08,697.369,474.862C702.665,474.643,710.342,471.057,714.454,469.526C718.566,467.996,719.113,468.52,719.465,468.997C719.817,469.473,719.973,469.901,720.727,470.739C721.482,471.578,722.834,472.826,723.14,473.813C723.447,474.799,722.708,475.524,725.612,475.403C728.517,475.282,735.066,474.316,738.847,473.535C742.628,472.753,743.642,472.156,743.167,472.741C742.693,473.327,740.73,475.095,742.395,474.351C744.061,473.606,749.355,470.347,752.754,470.368C756.152,470.389,757.655,473.689,758.68,474.58C759.706,475.471,760.253,473.953,761.024,473.094C761.795,472.236,762.789,472.037,765.094,471.641C767.398,471.245,771.013,470.653,771.405,470.944C771.797,471.234,768.967,472.407,770.654,472.386C772.34,472.365,778.544,471.151,780.574,470.33C782.603,469.51,780.459,469.083,781.578,469.728C782.696,470.372,787.076,472.088,790.362,471.655C793.648,471.223,795.839,468.642,797.609,468.323C799.38,468.003,800.729,469.945,802.151,470.393C803.572,470.84,805.066,469.794,805.038,468.491C805.01,467.188,803.462,465.628,805.086,466.193C806.711,466.758,811.509,469.447,813.711,469.718C815.914,469.989,815.521,467.841,817.795,467.601C820.069,467.361,825.012,469.029,827.277,469.656C829.542,470.284,829.131,469.87,830.496,470.662C831.861,471.453,835.002,473.45,836.796,472.264C838.589,471.077,839.034,466.707,840.841,465.364C842.647,464.021,845.815,465.704,848.789,466.421C851.764,467.137,854.544,466.886,855.615,467.985C856.686,469.083,856.046,471.532,857.113,472.116C858.18,472.7,860.952,471.421,862.686,469.985C864.42,468.55,865.115,466.958,865.279,465.424C865.442,463.89,865.074,462.413,866.011,462.396C866.947,462.379,869.188,463.821,872.474,466.464C875.76,469.107,880.092,472.951,884.393,473.144C888.694,473.338,892.965,469.88,896.657,467.902C900.349,465.924,903.463,465.426,905.371,466.302C907.28,467.179,907.983,469.431,908.519,470.233C909.054,471.036,909.423,470.39,909.856,470.129C910.289,469.868,910.787,469.992,910.632,468.557C910.477,467.121,909.671,464.125,910.313,464.455C910.955,464.785,913.046,468.44,916.921,469.176C920.795,469.911,926.452,467.726,929.793,467.575C933.133,467.424,934.157,469.308,933.85,470.418C933.542,471.529,931.904,471.867,932.513,470.956C933.122,470.045,935.978,467.884,938.079,467.519C940.181,467.154,941.529,468.584,942.39,469.285C943.251,469.985,943.626,469.957,946.741,469.48C949.855,469.004,955.709,468.078,957.911,467.009C960.114,465.939,958.666,464.726,960.182,465.84C961.699,466.953,966.18,470.394,968.141,471.421C970.102,472.448,969.543,471.061,972.398,470.138C975.252,469.215,981.52,468.757,985.975,467.768C990.429,466.78,993.071,465.262,990.993,461.327C988.915,457.392,982.117,451.04,978.367,449.239C974.617,447.439,973.914,450.19,974.441,451.523C974.968,452.856,976.725,452.771,974.83,452.621C972.936,452.471,967.389,452.256,964.082,453.152C960.775,454.048,959.707,456.054,956.443,454.931C953.179,453.808,947.719,449.556,944.637,448.33C941.555,447.104,940.85,448.905,941.743,449.777C942.637,450.65,945.128,450.593,943.888,450.372C942.648,450.15,937.676,449.763,934.261,448.84C930.846,447.916,928.988,446.457,929.288,446.406C929.587,446.354,932.044,447.712,930.5,449.61C928.956,451.508,923.411,453.946,918.285,454.546C913.158,455.146,908.451,453.909,907.44,452.914C906.43,451.918,909.118,451.166,907.78,450.497C906.443,449.829,901.079,449.246,897.168,448.155C893.257,447.064,890.797,445.464,889.7,444.834C888.603,444.204,888.869,444.543,887.178,445.552C885.486,446.562,881.837,448.241,879.994,449.3C878.152,450.359,878.116,450.798,878.319,450.156C878.521,449.515,878.961,447.793,879.039,447.133C879.117,446.474,878.834,446.875,874.928,447.759C871.022,448.643,863.494,450.008,860.244,450.048C856.994,450.089,858.023,448.803,857.702,447.989C857.38,447.175,855.71,446.832,854.083,446.949C852.456,447.065,850.872,447.642,848.274,447.658C845.677,447.673,842.065,447.129,839.948,447.344C837.832,447.56,837.211,448.535,835.994,449.848C834.777,451.162,832.963,452.813,831.572,452.247C830.181,451.681,829.212,448.898,828.554,448.725C827.897,448.551,827.552,450.987,825.873,450.831C824.194,450.676,821.18,447.928,818.185,447.784C815.191,447.641,812.214,450.1,810.197,449.767C808.179,449.434,807.121,446.308,805.173,446.014C803.225,445.72,800.387,448.257,799.331,447.876C798.275,447.495,799.001,444.195,796.963,442.658C794.926,441.121,790.125,441.346,787.031,443.91C783.938,446.473,782.552,451.374,779.362,453.459C776.172,455.544,771.177,454.812,768.023,453.544C764.869,452.277,763.556,450.472,762.005,449.563C760.455,448.653,758.667,448.638,758.125,448.419C757.583,448.2,758.288,447.776,757.968,448.363C757.647,448.951,756.302,450.549,753.435,450.575C750.567,450.602,746.178,449.056,743.931,448.489C741.684,447.922,741.58,448.333,741.539,449.295C741.498,450.257,741.52,451.769,740.747,451.692C739.974,451.615,738.407,449.948,737.986,448.448C737.566,446.948,738.292,445.614,736.793,446.424C735.293,447.233,731.568,450.185,729.334,451.403C727.099,452.622,726.354,452.107,726.134,452.437C725.915,452.768,726.22,453.945,723.8,453.049C721.379,452.152,716.233,449.183,714.401,449.137C712.568,449.092,714.048,451.971,713.702,452.774C713.356,453.578,711.184,452.307,707.916,451.484C704.649,450.66,700.286,450.284,697.212,449.35C694.138,448.416,692.353,446.924,691.412,447.515C690.47,448.106,690.372,450.781,689.459,451.54C688.545,452.3,686.816,451.144,685.892,450.577C684.968,450.01,684.849,450.032,684.811,450.074C684.772,450.116,684.815,450.178,684.626,450.304C684.437,450.43,684.016,450.62,683.777,450.497C683.538,450.373,683.482,449.936,683.351,449.758C683.221,449.58,683.016,449.661,683.003,450.681C682.99,451.701,683.17,453.659,682.09,453.662C681.01,453.664,678.671,451.71,677.82,451.895C676.969,452.079,677.607,454.402,675.231,454.106C672.855,453.811,667.464,450.896,665.738,450.073C664.011,449.25,665.949,450.52,664.278,450.998C662.607,451.477,657.328,451.164,654.832,451.048C652.336,450.933,652.623,451.014,652.348,452.308C652.074,453.603,651.238,456.11,649.178,455.899C647.117,455.689,643.832,452.761,641.862,451.24C639.892,449.719,639.236,449.605,640.28,449.553C641.324,449.502,644.066,449.512,642.2,451.175C640.335,452.838,633.861,456.153,628.349,457.038C622.836,457.923,618.285,456.378,616.599,453.726C614.913,451.073,616.091,447.314,615.584,446.202C615.076,445.091,612.881,446.629,608.968,447.922C605.056,449.214,599.425,450.263,596.466,450.642C593.506,451.022,593.218,450.733,593.451,450.816C593.684,450.899,594.437,451.354,593.709,451.379C592.981,451.404,590.772,451,590.409,451.29C590.046,451.58,591.53,452.565,590.787,453.814C590.043,455.063,587.073,456.577,584.558,456.054C582.043,455.53,579.983,452.969,576.863,452.033C573.743,451.097,569.563,451.785,567.447,451.856C565.331,451.926,565.278,451.379,564.906,450.206C564.534,449.033,563.843,447.235,562.918,446.587C561.994,445.94,560.837,446.442,558.397,448.201C555.957,449.96,552.234,452.975,549.235,453.857C546.235,454.739,543.96,453.487,543.624,452.861C543.287,452.235,544.889,452.234,542.224,452.085C539.559,451.937,532.626,451.641,530.07,451.958C527.514,452.274,529.334,453.202,527.435,452.596C525.536,451.989,519.919,449.848,516.376,447.654C512.834,445.459,511.366,443.21,509.658,443.788C507.949,444.366,505.999,447.772,503.692,450.063C501.384,452.354,498.719,453.531,497.574,452.015C496.429,450.499,496.805,446.291,495.671,446.415C494.536,446.54,491.891,450.998,488.108,452.095C484.324,453.193,479.401,450.93,477.131,448.805C474.861,446.679,475.244,444.69,474.157,445.018C473.069,445.347,470.51,447.992,468.626,450.812C466.743,453.632,465.533,456.628,464.009,456.565C462.485,456.503,460.645,453.383,458,453.072C455.354,452.761,451.903,455.259,449.262,455.032C446.622,454.804,444.792,451.851,444.414,450.59C444.035,449.329,445.109,449.759,445.07,450.751C445.031,451.742,443.879,453.295,441.174,451.983C438.47,450.672,434.211,446.498,431.71,445.442C429.208,444.387,428.464,446.451,426.097,447.694C423.73,448.937,419.74,449.359,417.407,449.653C415.074,449.947,414.398,450.112,414.001,450.841C413.605,451.569,413.488,452.861,412.094,452.154C410.701,451.447,408.03,448.742,405.956,449.39C403.882,450.037,402.406,454.036,400.801,455.559C399.197,457.082,397.465,456.128,396.967,453.954C396.469,451.78,397.205,448.386,394.243,447.872C391.281,447.358,384.622,449.722,382.245,449.581C379.869,449.439,381.777,446.791,379.9,446.647C378.024,446.502,372.363,448.861,370.066,450.052C367.768,451.243,368.834,451.267,367.126,451.027C365.417,450.787,360.935,450.282,358.41,450.112C355.884,449.942,355.316,450.107,355.153,450.457C354.99,450.806,355.233,451.342,354.798,451.389C354.362,451.437,353.247,450.996,352.482,451.048C351.716,451.101,351.298,451.647,351.012,451.307C350.725,450.966,350.569,449.74,349.41,450.613C348.251,451.485,346.089,454.457,343.092,455.571C340.095,456.685,336.263,455.94,333.405,455.107C330.547,454.273,328.663,453.35,327.93,452.414C327.198,451.478,327.616,450.529,326.08,451.276C324.545,452.023,321.057,454.466,318.632,454.942C316.208,455.417,314.847,453.926,314.024,452.973C313.202,452.021,312.919,451.606,313.023,451.639C313.127,451.672,313.619,452.152,311.051,452.488C308.483,452.824,302.856,453.015,299.902,452.518C296.949,452.021,296.669,450.835,296.324,448.909C295.979,446.983,295.569,444.318,295.147,444.179C294.724,444.04,294.29,446.426,291.188,448.215C288.087,450.003,282.317,451.193,279.914,450.135C277.51,449.077,278.471,445.771,278.382,444.785C278.294,443.798,277.155,445.13,273.822,446.967C270.488,448.804,264.96,451.145,261.709,450.264C258.458,449.383,257.484,445.28,255.361,444.83C253.238,444.381,249.965,447.585,247.975,448.236C245.986,448.887,245.281,446.984,244.244,446.721C243.207,446.458,241.839,447.834,239.509,448.006C237.178,448.177,233.886,447.143,232.818,447.026C231.751,446.91,232.908,447.712,231.05,448.42C229.192,449.129,224.318,449.744,222.409,450.427C220.5,451.11,221.556,451.86,220.829,451.796C220.103,451.732,217.595,450.853,217.437,450.628C217.279,450.402,219.47,450.829,219.279,451.816C219.088,452.802,216.514,454.348,213.202,454.462C209.89,454.576,205.841,453.258,201.913,452.461C197.985,451.664,194.179,451.387,192.587,451.073C190.994,450.759,191.616,450.407,192.571,450.683C193.527,450.958,194.815,451.86,194.269,452.069C193.723,452.279,191.343,451.796,187.107,451.542C182.872,451.289,176.781,451.264,172.871,451.631C168.961,451.999,167.232,452.76,165.185,453.074C163.138,453.387,160.773,453.254,160.306,453.195C159.838,453.135,161.268,453.149,159.916,453.828C158.565,454.508,154.433,455.853,149.929,455.794C145.426,455.735,140.552,454.272,137.043,452.627C133.534,450.982,131.391,449.155,130.202,447.129C129.013,445.102,128.778,442.876,126.567,443.32C124.355,443.764,120.167,446.878,116.987,448.694C113.807,450.511,111.636,451.03,110.755,450.485C109.873,449.94,110.281,448.331,108.662,447.059C107.043,445.786,103.398,444.85,100.49,446.062C97.582,447.273,95.411,450.634,94.111,451.689C92.81,452.744,92.379,451.493,91.56,451.054C90.741,450.616,89.533,450.99,89.232,449.625C88.932,448.26,89.538,445.156,88.086,443.453C86.635,441.75,83.126,441.448,79.676,442.78C76.226,444.111,72.834,447.076,71.874,448.135C70.914,449.195,72.385,448.35,72.217,449.357C72.05,450.364,70.243,453.224,67.305,454.629C64.368,456.033,60.299,455.983,56.259,454.185C52.219,452.386,48.207,448.84,45.278,448.603C42.35,448.366,40.505,451.438,39.209,452.442C37.913,453.446,37.167,452.381,36.639,451.491C36.11,450.602,35.798,449.888,35.766,449.755C35.734,449.621,35.981,450.069,36.259,448.725C36.538,447.381,36.846,444.244,34.617,443.296C32.387,442.348,27.62,443.588,24.866,444.837C22.112,446.086,21.372,447.342,19.875,448.228C18.377,449.114,16.123,449.629,14.6,447.128C13.077,444.627,12.286,439.112,12.438,436.625C12.589,434.138,13.683,434.681,16.183,430.939C18.683,427.197,22.589,419.171,27.146,416.418C31.702,413.665,36.909,416.186,39.183,417.881C41.457,419.577,40.799,420.446,40.242,421.521C39.685,422.597,39.229,423.878,42.382,424.925C45.534,425.972,52.294,426.786,55.81,427.023C59.327,427.26,59.599,426.92,62.858,425.696C66.117,424.473,72.363,422.365,75.524,420.883C78.685,419.402,78.762,418.547,79.534,417.882C80.306,417.216,81.773,416.74,82.895,416.009C84.018,415.278,84.796,414.292,85.716,413.946C86.637,413.6,87.698,413.895,89.882,415.954C92.066,418.013,95.372,421.837,97.841,422.886C100.31,423.936,101.943,422.211,102.905,422.552C103.866,422.893,104.156,425.3,105.718,425.221C107.281,425.142,110.117,422.577,111.478,421.275C112.838,419.973,112.725,419.935,111.916,419.543C111.108,419.15,109.605,418.405,111.12,418.464C112.635,418.523,117.168,419.388,119.284,420.037C121.4,420.687,121.099,421.122,122.123,422.513C123.147,423.904,125.495,426.252,128.117,424.966C130.74,423.679,133.636,418.758,134.291,417.097C134.947,415.437,133.36,417.037,135.342,417.934C137.323,418.831,142.873,419.024,145.061,419.129C147.25,419.234,146.078,419.252,147.88,420.705C149.683,422.159,154.46,425.047,157.371,424.564C160.281,424.08,161.325,420.224,163.587,417.658C165.85,415.093,169.33,413.818,172.049,414.888C174.769,415.958,176.728,419.373,178.414,419.324C180.099,419.276,181.512,415.763,183.533,415.81C185.554,415.856,188.183,419.462,189.711,420.573C191.239,421.684,191.665,420.301,192.35,419.624C193.036,418.947,193.98,418.976,193.72,418.073C193.46,417.17,191.996,415.335,193.623,415.865C195.25,416.395,199.968,419.291,202.582,420.424C205.197,421.558,205.707,420.929,204.812,420.958C203.917,420.987,201.616,421.673,203.016,422.316C204.416,422.959,209.517,423.559,212.476,421.703C215.434,419.846,216.249,415.533,216.866,414.996C217.482,414.46,217.898,417.7,220.336,418.639C222.774,419.577,227.233,418.212,230.672,416.888C234.11,415.563,236.526,414.279,238.835,414.793C241.143,415.307,243.343,417.619,245.011,418.766C246.678,419.912,247.813,419.894,248.174,420.228C248.535,420.563,248.123,421.251,247.723,421.918C247.323,422.585,246.936,423.231,249.28,422.878C251.623,422.526,256.696,421.174,258.376,421.12C260.056,421.066,258.343,422.308,259.911,421.254C261.48,420.2,266.331,416.85,268.669,415.948C271.007,415.047,270.833,416.594,273.486,417.666C276.139,418.739,281.62,419.336,285.576,420.052C289.532,420.768,291.962,421.604,293.25,421.499C294.537,421.394,294.683,420.348,296.02,419.201C297.357,418.054,299.886,416.806,301.167,416.967C302.448,417.127,302.481,418.696,302.82,418.023C303.159,417.349,303.804,414.432,305.476,414.487C307.149,414.541,309.848,417.566,311.81,418.484C313.772,419.403,314.997,418.214,315.842,417.8C316.687,417.386,317.153,417.747,318.32,417.482C319.488,417.217,321.358,416.326,323.19,417.525C325.022,418.724,326.817,422.014,328.932,422.186C331.046,422.358,333.482,419.413,335.98,417.595C338.479,415.776,341.04,415.085,342.617,415.706C344.193,416.328,344.784,418.263,345.502,419.43C346.219,420.597,347.064,420.996,347.618,420.775C348.173,420.554,348.438,419.713,349.522,418.155C350.607,416.597,352.511,414.323,354.185,415.599C355.86,416.876,357.305,421.703,358.373,422.207C359.441,422.711,360.131,418.891,361.325,417.833C362.518,416.775,364.214,418.478,368.144,420.186C372.073,421.894,378.235,423.607,382.96,422.767C387.686,421.927,390.975,418.534,393.007,419.035C395.039,419.536,395.813,423.931,397.789,425.119C399.764,426.306,402.941,424.287,404.847,421.483C406.752,418.679,407.387,415.09,408.436,416.204C409.485,417.318,410.947,423.135,413.604,424.816C416.261,426.497,420.113,424.042,421.793,423.941C423.472,423.84,422.979,426.093,424.102,424.504C425.225,422.916,427.964,417.487,431.922,416.004C435.88,414.52,441.056,416.983,443.486,418.252C445.916,419.522,445.6,419.599,445.877,420.102C446.154,420.604,447.024,421.533,448.947,422.114C450.87,422.695,453.845,422.929,454.648,423.086C455.452,423.242,454.083,423.32,454.976,421.459C455.87,419.598,459.025,415.798,462.122,415.315C465.219,414.832,468.256,417.666,470.128,418.907C471.999,420.149,472.704,419.798,471.537,420.025C470.37,420.252,467.331,421.057,468.805,420.782C470.279,420.507,476.267,419.151,480.016,418.813C483.765,418.475,485.275,419.155,485.646,421.047C486.017,422.938,485.249,426.041,487.182,426.593C489.114,427.144,493.748,425.144,495.402,423.253C497.056,421.361,495.731,419.579,496.234,419.087C496.738,418.595,499.07,419.394,502.847,419.98C506.625,420.566,511.849,420.939,514.258,421.485C516.668,422.031,516.264,422.75,517.937,423.606C519.609,424.463,523.358,425.456,525.831,425.096C528.304,424.737,529.501,423.023,529.854,421.733C530.207,420.444,529.716,419.578,529.714,419.178C529.711,418.779,530.197,418.846,531.637,418.565C533.077,418.285,535.471,417.657,536.695,418.269C537.918,418.881,537.971,420.734,539.835,420.833C541.7,420.933,545.374,419.281,546.834,418.244C548.293,417.208,547.538,416.787,548.096,417.269C548.654,417.752,550.527,419.137,551.685,419.114C552.844,419.091,553.288,417.661,554.261,417.526C555.233,417.391,556.734,418.552,557.783,418.963C558.832,419.373,559.43,419.034,561.02,417.992C562.611,416.95,565.193,415.205,567.015,415.62C568.836,416.035,569.896,418.61,571.704,419.501C573.512,420.393,576.067,419.601,577.363,419.093C578.659,418.585,578.696,418.362,579.538,419.452C580.38,420.542,582.028,422.945,582.593,423.902C583.157,424.858,582.637,424.368,584.391,422.66C586.145,420.953,590.172,418.028,592.321,417.782C594.471,417.535,594.744,419.968,597.365,420.338C599.986,420.707,604.954,419.014,607.022,417.655C609.089,416.295,608.255,415.268,608.55,416.944C608.845,418.619,610.269,422.997,613.052,423.829C615.835,424.661,619.976,421.947,622.166,419.594C624.356,417.241,624.595,415.248,626.796,416.956C628.996,418.663,633.158,424.07,635.049,425.7C636.94,427.33,636.561,425.182,639.366,423.601C642.171,422.019,648.159,421.005,651.55,419.656C654.94,418.307,655.732,416.624,656.414,417.963C657.095,419.302,657.666,423.663,659.03,424.441C660.394,425.219,662.55,422.414,665.515,421.5C668.479,420.585,672.252,421.563,674.861,422.368C677.471,423.173,678.917,423.805,679.785,422.853C680.653,421.9,680.942,419.362,680.659,418.327C680.376,417.292,679.52,417.759,681.16,418.161C682.799,418.562,686.934,418.898,689.644,419.056C692.354,419.214,693.639,419.194,694.608,419.169C695.576,419.144,696.228,419.115,696.982,418.58C697.736,418.045,698.594,417.005,700.043,417.513C701.492,418.021,703.533,420.078,703.517,421.645C703.5,423.213,701.426,424.291,703.157,423.582C704.889,422.873,710.425,420.376,713.34,419.344C716.255,418.313,716.547,418.747,716.081,419.124C715.615,419.502,714.39,419.824,714.94,419.845C715.489,419.867,717.813,419.589,720.479,420.774C723.144,421.959,726.151,424.606,727.984,424.894C729.817,425.183,730.476,423.113,731.721,421.948C732.966,420.782,734.796,420.52,736.564,418.921C738.332,417.322,740.038,414.386,742.25,414.159C744.462,413.931,747.181,416.413,747.743,418.908C748.306,421.402,746.712,423.909,747.736,425.334C748.759,426.759,752.401,427.102,757.114,426.714C761.827,426.326,767.611,425.209,771.34,423.125C775.068,421.042,776.741,417.992,778.532,418.636C780.322,419.28,782.23,423.617,784.81,423.64C787.391,423.662,790.644,419.371,791.886,416.947C793.128,414.523,792.359,413.968,794.038,415.217C795.718,416.467,799.846,419.521,801.617,421.201C803.388,422.88,802.802,423.184,803.792,423.847C804.781,424.511,807.346,425.534,809.777,425.34C812.208,425.146,814.504,423.736,816.849,422.401C819.194,421.067,821.588,419.808,823.22,419.188C824.852,418.567,825.721,418.585,826.466,418.766C827.211,418.948,827.831,419.293,828.23,419.54C828.629,419.787,828.807,419.935,828.039,421.108C827.27,422.281,825.556,424.477,826.297,425.601C827.039,426.726,830.237,426.778,833.885,425.419C837.533,424.059,841.629,421.288,843.557,419.952C845.485,418.615,845.244,418.713,846.58,418.407C847.915,418.1,850.827,417.388,853.781,417.3C856.734,417.211,859.729,417.747,861.376,417.25C863.022,416.753,863.32,415.224,864.145,414.651C864.97,414.077,866.321,414.458,869.311,415.174C872.3,415.889,876.927,416.939,879.105,417.931C881.283,418.923,881.011,419.857,881.298,420.201C881.585,420.546,882.431,420.301,881.869,419.132C881.308,417.963,879.339,415.871,879.711,414.773C880.083,413.675,882.797,413.572,886.686,413.804C890.575,414.035,895.638,414.602,898.296,416.051C900.954,417.501,901.207,419.833,902.9,420.649C904.592,421.465,907.724,420.765,908.496,421.11C909.268,421.455,907.679,422.845,909.646,422.768C911.613,422.691,917.135,421.146,919.924,420.481C922.713,419.815,922.768,420.027,923.526,419.973C924.283,419.919,925.743,419.598,927.062,418.746C928.38,417.893,929.557,416.509,929.27,416.266C928.983,416.023,927.232,416.921,929.71,418.252C932.188,419.584,938.896,421.35,942.373,421.753C945.85,422.156,946.095,421.197,946.65,420.313C947.205,419.43,948.069,418.622,948.79,418.711C949.511,418.8,950.089,419.786,950.308,420.202C950.526,420.618,950.385,420.464,950.448,420.619C950.512,420.774,950.781,421.238,951.341,422.004C951.902,422.77,952.755,423.839,952.967,423.771C953.18,423.703,952.752,422.498,955.475,421.247C958.198,419.997,964.071,418.701,967.39,418.989C970.709,419.278,971.475,421.152,971.305,422.229C971.136,423.306,970.031,423.587,970.437,424.06C970.842,424.534,972.757,425.201,976.292,424.056C979.826,422.912,984.981,419.956,987.767,417.337C990.553,414.717,990.971,412.435,991.999,408.225C993.028,404.016,994.667,397.88,994.386,395.154C994.105,392.429,991.904,393.113,987.388,390.386C982.873,387.659,976.043,381.52,971.717,379.336C967.391,377.152,965.569,378.923,965.238,380.649C964.907,382.375,966.067,384.055,964.354,383.29C962.641,382.526,958.056,379.317,955.475,378.12C952.895,376.924,952.32,377.74,953.06,377.849C953.799,377.957,955.853,377.357,954.745,376.677C953.638,375.997,949.369,375.237,945.899,375.426C942.428,375.614,939.754,376.752,938.149,377.994C936.543,379.235,936.005,380.58,934.367,379.451C932.729,378.323,929.992,374.721,927.567,374.024C925.142,373.327,923.03,375.535,922.664,376.376C922.299,377.216,923.679,376.69,921.218,376.752C918.757,376.815,912.456,377.467,908.743,377.416C905.03,377.366,903.907,376.613,902.694,376.479C901.481,376.344,900.178,376.828,899.233,377.525C898.289,378.221,897.702,379.131,897.568,379.743C897.434,380.355,897.753,380.669,896.272,380.65C894.792,380.632,891.511,380.28,889.994,379.185C888.477,378.089,888.723,376.249,888.747,376.34C888.771,376.432,888.571,378.454,886.704,378.033C884.837,377.611,881.303,374.744,879.539,374.287C877.775,373.829,877.78,375.78,874.625,377.056C871.47,378.332,865.155,378.933,861.421,378.015C857.687,377.098,856.535,374.662,854.807,373.685C853.079,372.708,850.775,373.19,848.929,374.339C847.084,375.487,845.696,377.302,846.29,378.004C846.884,378.706,849.46,378.295,847.253,377.311C845.046,376.327,838.056,374.77,832.258,374.597C826.461,374.424,821.856,375.636,819.515,376.506C817.174,377.376,817.096,377.904,815.926,379.239C814.755,380.575,812.493,382.719,809.791,383.386C807.089,384.053,803.948,383.243,801.625,381.475C799.301,379.706,797.795,376.979,796.32,377.188C794.844,377.396,793.398,380.541,792.401,382.045C791.405,383.549,790.858,383.411,790.154,381.271C789.449,379.131,788.587,374.988,785.849,374.317C783.111,373.647,778.498,376.449,775.566,378.678C772.634,380.907,771.383,382.563,769.242,382.212C767.101,381.861,764.071,379.503,762.01,379.367C759.949,379.232,758.858,381.319,757.611,382.369C756.365,383.42,754.962,383.432,753.849,382.592C752.735,381.752,751.91,380.059,751.374,380.628C750.839,381.197,750.593,384.028,750.151,384.438C749.71,384.849,749.072,382.839,746.858,382.674C744.644,382.509,740.853,384.19,738.353,383.349C735.852,382.508,734.641,379.145,733.682,377.031C732.722,374.918,732.014,374.053,728.955,375.931C725.895,377.808,720.484,382.427,716.846,383.947C713.208,385.466,711.343,383.888,709.705,382.937C708.067,381.987,706.655,381.666,706.424,380.197C706.192,378.728,707.14,376.112,706.1,375.832C705.06,375.552,702.031,377.608,699.563,378.385C697.095,379.161,695.188,378.66,694.285,378.656C693.382,378.653,693.484,379.149,691.607,379.6C689.73,380.051,685.874,380.458,684.552,381.515C683.229,382.571,684.441,384.277,682.072,383.905C679.702,383.533,673.753,381.083,670.194,379.398C666.634,377.712,665.465,376.791,664.646,376.911C663.826,377.031,663.356,378.192,663.494,379.407C663.632,380.622,664.379,381.891,663.168,382.357C661.957,382.824,658.788,382.488,656.985,383.045C655.183,383.601,654.748,385.051,653.037,384.163C651.325,383.275,648.338,380.051,646.497,378.305C644.656,376.559,643.961,376.291,643,376.775C642.04,377.258,640.813,378.493,640.078,379.052C639.343,379.612,639.1,379.497,637.847,380.178C636.595,380.859,634.333,382.335,632.629,382.255C630.924,382.176,629.775,380.54,629.12,380.454C628.465,380.369,628.302,381.833,626.714,382.548C625.126,383.262,622.112,383.226,619.851,382.556C617.59,381.886,616.082,380.581,614.877,380.608C613.672,380.634,612.769,381.992,612.181,381.073C611.594,380.154,611.321,376.958,610.022,376.049C608.723,375.141,606.399,376.519,604.288,377.845C602.176,379.17,600.277,380.442,598.901,379.423C597.526,378.404,596.674,375.094,595.025,374.653C593.375,374.212,590.929,376.639,590.752,377.627C590.575,378.615,592.669,378.163,592.275,378.208C591.881,378.253,589,378.795,585.566,378.226C582.133,377.658,578.146,375.98,576.03,376.458C573.914,376.936,573.669,379.57,572.751,380.942C571.833,382.315,570.243,382.424,567.57,380.641C564.897,378.857,561.14,375.18,558.807,375.026C556.474,374.871,555.563,378.24,554.128,379.997C552.693,381.754,550.734,381.899,550.483,382.771C550.233,383.643,551.691,385.241,549.783,385.071C547.874,384.901,542.6,382.963,539.948,381.848C537.296,380.733,537.267,380.441,536.91,380.236C536.552,380.031,535.866,379.913,535.102,379.732C534.339,379.55,533.497,379.304,534.233,379.277C534.968,379.25,537.279,379.442,535.485,380.011C533.692,380.58,527.793,381.525,524.846,381.634C521.899,381.743,521.905,381.016,521.684,379.839C521.463,378.662,521.016,377.034,518.493,377.368C515.97,377.702,511.37,379.998,507.479,381.344C503.588,382.69,500.406,383.087,498.772,381.441C497.138,379.796,497.052,376.109,495.637,374.297C494.221,372.486,491.477,372.551,488.029,373.208C484.581,373.864,480.431,375.113,477.444,377.024C474.457,378.935,472.633,381.509,470.891,380.899C469.148,380.288,467.485,376.493,466.581,374.95C465.676,373.406,465.529,374.113,463.478,375.479C461.427,376.845,457.472,378.87,455.852,378.417C454.233,377.963,454.948,375.031,453.98,374.921C453.012,374.811,450.36,377.524,448.09,378.645C445.82,379.766,443.931,379.295,444.052,379.773C444.172,380.25,446.302,381.676,444.764,381.939C443.225,382.203,438.018,381.304,435.31,380.288C432.602,379.272,432.392,378.14,431.55,377.809C430.708,377.478,429.235,377.948,427.925,378.091C426.616,378.233,425.471,378.048,425.157,378.093C424.844,378.138,425.363,378.413,424.739,378.513C424.116,378.613,422.35,378.538,420.616,378.782C418.883,379.026,417.181,379.589,414.808,379.251C412.435,378.913,409.39,377.673,407.88,378.487C406.37,379.301,406.394,382.168,405.353,383.249C404.311,384.33,402.202,383.623,400.115,382.72C398.028,381.816,395.963,380.716,393.767,380.737C391.57,380.758,389.242,381.902,387.613,382.159C385.984,382.415,385.052,381.785,384.732,380.078C384.411,378.371,384.702,375.587,382.442,375.887C380.182,376.188,375.372,379.573,372.134,381.663C368.897,383.753,367.231,384.548,364.943,385.262C362.655,385.977,359.744,386.611,356.652,386.752C353.56,386.893,350.287,386.541,348.651,386.365L347.015,386.188"></path>
      </svg>
      