<?xml version="1.0" encoding="UTF-8" standalone="no"?>
    <!-- Created with Inkscape (https://labs.original.art.br/draw) -->
    
    <svg
       xmlns:dc="http://purl.org/dc/elements/1.1/"
       xmlns:cc="http://creativecommons.org/ns#"
       xmlns:rdf="http://www.w3.org/1999/02/22-rdf-syntax-ns#"
       xmlns:svg="http://www.w3.org/2000/svg"
       xmlns="http://www.w3.org/2000/svg"
       xmlns:sodipodi="http://sodipodi.sourceforge.net/DTD/sodipodi-0.dtd"
       xmlns:inkscape="http://www.inkscape.org/namespaces/inkscape"
       id="1GqPx"
       version="1.1"
       inkscape:version="0.91 r13725"
       width="undefined"
       height="undefined"
       viewBox="0 0 undefined undefined"
       sodipodi:docname="_paths6.svg">
      <metadata
         id="metadata3404">
        <rdf:RDF>
          <cc:Work
             rdf:about="">
            <dc:format>image/svg+xml</dc:format>
            <dc:type
               rdf:resource="http://purl.org/dc/dcmitype/StillImage" />
            <dc:title></dc:title>
          </cc:Work>
        </rdf:RDF>
      </metadata>
      undefined<path fill="none" stroke-width="1" style="stroke: rgb(0, 71, 171);" d="M2.202,500L3.668,497.886C5.134,495.771,8.066,491.543,10.783,489.032C13.5,486.522,16.002,485.729,17.645,483.084C19.289,480.439,20.074,475.94,21.652,474.088C23.229,472.236,25.598,473.031,26.494,473.192C27.39,473.354,26.813,472.882,27.428,472.405C28.044,471.927,29.852,471.444,31.281,471.005C32.71,470.567,33.76,470.172,34.065,469.833C34.371,469.494,33.932,469.21,34.217,469.178C34.502,469.145,35.511,469.365,37.414,469.316C39.317,469.268,42.113,468.952,43.866,469.359C45.619,469.766,46.328,470.896,47.124,469.633C47.92,468.37,48.801,464.714,50.627,464.274C52.453,463.834,55.224,466.609,56.266,468.381C57.308,470.152,56.622,470.92,57.086,471.343C57.55,471.767,59.162,471.845,59.848,471.232C60.533,470.618,60.292,469.313,61.576,468.76C62.86,468.207,65.671,468.406,67.737,469.675C69.804,470.944,71.127,473.282,72.217,474.304C73.307,475.325,74.166,475.029,74.931,475.149C75.696,475.268,76.368,475.804,78.531,476.583C80.694,477.361,84.349,478.381,87.976,477.35C91.602,476.318,95.2,473.234,95.561,471.798C95.921,470.362,93.044,470.573,95.136,469.803C97.228,469.032,104.289,467.279,108.161,467.024C112.032,466.769,112.714,468.012,113.305,469.011C113.895,470.01,114.393,470.764,114.994,470.498C115.594,470.231,116.297,468.944,115.8,469.857C115.304,470.771,113.609,473.886,115.803,473.787C117.997,473.687,124.079,470.374,128.054,467.851C132.029,465.328,133.897,463.596,137.039,463.474C140.18,463.351,144.595,464.838,148.095,466.723C151.595,468.608,154.179,470.892,154.07,470.87C153.962,470.848,151.16,468.521,153.32,466.776C155.479,465.032,162.6,463.869,165.983,464.756C169.367,465.642,169.014,468.577,170.624,470.445C172.233,472.313,175.805,473.114,178.734,471.267C181.662,469.42,183.949,464.926,186.357,464.449C188.766,463.971,191.297,467.51,193.393,467.787C195.49,468.063,197.152,465.076,199.244,465.734C201.336,466.391,203.858,470.692,206.575,472.897C209.293,475.102,212.206,475.211,214.36,474.819C216.514,474.428,217.91,473.535,218.895,473.839C219.881,474.143,220.457,475.642,222.186,474.902C223.916,474.163,226.799,471.183,227.738,468.811C228.678,466.439,227.674,464.675,228.616,465.198C229.559,465.721,232.448,468.531,234.927,469.85C237.406,471.169,239.475,470.996,240.368,470.803C241.262,470.609,240.98,470.396,240.895,470.294C240.81,470.193,240.922,470.203,243.116,469.473C245.311,468.742,249.588,467.27,252.057,466.962C254.525,466.655,255.186,467.512,254.439,468.51C253.693,469.508,251.54,470.648,252.442,470.48C253.344,470.313,257.302,468.838,260.735,468.825C264.167,468.811,267.074,470.258,268.627,470.097C270.181,469.936,270.382,468.167,271.251,468.321C272.121,468.474,273.659,470.55,274.851,471.17C276.042,471.789,276.887,470.952,277.512,470.256C278.138,469.561,278.543,469.006,278.93,469.174C279.317,469.343,279.686,470.234,279.683,471.105C279.679,471.977,279.302,472.828,280.179,472.657C281.056,472.486,283.185,471.292,284.656,470.875C286.126,470.458,286.936,470.817,287.593,470.195C288.251,469.573,288.756,467.969,290.04,466.431C291.324,464.893,293.386,463.422,294.827,462.443C296.267,461.463,297.085,460.977,300.662,462.957C304.239,464.937,310.575,469.385,314.072,472.325C317.569,475.264,318.226,476.696,319.765,476.074C321.303,475.452,323.723,472.775,324.477,471.003C325.231,469.231,324.319,468.364,324.396,467.818C324.474,467.273,325.541,467.048,327.405,467.583C329.269,468.118,331.93,469.413,333.233,470.231C334.537,471.05,334.483,471.393,334.859,472.086C335.234,472.78,336.038,473.824,337.176,473.557C338.314,473.291,339.785,471.713,340.329,470.712C340.873,469.71,340.489,469.283,342.868,468.464C345.247,467.645,350.39,466.432,353.203,466.548C356.016,466.664,356.5,468.109,355.275,469.577C354.051,471.044,351.117,472.535,352.815,470.951C354.512,469.366,360.84,464.706,366.733,463.602C372.626,462.497,378.084,464.948,380.373,465.638C382.662,466.327,381.782,465.255,382.92,466.014C384.058,466.774,387.215,469.365,390.083,469.848C392.951,470.33,395.531,468.703,396.67,468.136C397.81,467.569,397.509,468.062,398.337,468.236C399.164,468.41,401.121,468.266,401.667,468.853C402.214,469.44,401.352,470.758,401.117,471.368C400.882,471.978,401.275,471.88,402.123,470.7C402.971,469.521,404.273,467.26,408.456,465.98C412.639,464.7,419.703,464.4,423.811,465.285C427.919,466.171,429.071,468.243,429.658,469.774C430.245,471.305,430.267,472.295,430.924,472.123C431.58,471.95,432.872,470.615,433.24,471.202C433.608,471.79,433.052,474.3,433.779,473.747C434.506,473.194,436.516,469.578,438.984,468.265C441.452,466.951,444.377,467.94,445.963,468.583C447.55,469.225,447.797,469.522,448.018,470.236C448.24,470.95,448.435,472.081,447.934,472.596C447.434,473.111,446.236,473.009,449.349,472.369C452.462,471.728,459.885,470.549,463.482,471.024C467.08,471.5,466.852,473.63,468.576,473.75C470.301,473.871,473.978,471.98,475.983,471.118C477.989,470.256,478.322,470.423,480.099,470.658C481.875,470.894,485.093,471.197,486.17,470.377C487.246,469.558,486.181,467.615,486.705,468.208C487.228,468.801,489.341,471.929,491.435,472.364C493.528,472.798,495.601,470.538,497.185,468.733C498.77,466.928,499.866,465.578,501.654,466.728C503.441,467.877,505.92,471.526,508.758,473.003C511.595,474.479,514.792,473.783,516.11,474.24C517.428,474.698,516.868,476.308,518.173,474.504C519.478,472.7,522.647,467.482,525.115,467.542C527.582,467.601,529.347,472.938,531.914,473.858C534.48,474.778,537.848,471.28,540.799,470.731C543.75,470.182,546.285,472.581,549.08,472.305C551.876,472.028,554.932,469.074,556.764,466.723C558.596,464.373,559.204,462.625,560.793,462.661C562.382,462.697,564.953,464.517,568.326,465.187C571.699,465.857,575.874,465.378,576.937,465.475C577.999,465.571,575.95,466.244,577.783,468.2C579.617,470.157,585.335,473.398,588.796,473.707C592.256,474.016,593.46,471.394,595.899,470.974C598.337,470.554,602.01,472.337,604.474,473.725C606.938,475.112,608.194,476.104,610.663,476.437C613.133,476.771,616.816,476.446,618.019,474.315C619.221,472.184,617.941,468.247,619.997,467.471C622.053,466.694,627.443,469.076,630.114,469.699C632.784,470.322,632.734,469.185,632.854,469.595C632.975,470.006,633.266,471.964,633.904,472.42C634.541,472.876,635.526,471.829,636.815,471.103C638.104,470.377,639.697,469.971,642.019,470.237C644.341,470.503,647.391,471.442,648.994,471.487C650.596,471.532,650.752,470.683,650.303,469.994C649.854,469.304,648.799,468.774,648.189,468.51C647.579,468.247,647.414,468.251,651.154,468.642C654.894,469.034,662.539,469.813,666.261,469.978C669.984,470.143,669.783,469.694,669.277,469.151C668.771,468.607,667.96,467.969,669.446,467.357C670.933,466.745,674.716,466.16,677.936,465.385C681.155,464.611,683.81,463.647,686.308,465.166C688.807,466.686,691.15,470.689,693.998,471.718C696.847,472.747,700.201,470.801,701.554,469.006C702.908,467.212,702.261,465.567,703.474,464.873C704.688,464.178,707.761,464.434,710.07,465.856C712.379,467.279,713.922,469.869,714.869,471.333C715.816,472.796,716.167,473.134,717.218,472.971C718.27,472.807,720.022,472.142,722.514,471.168C725.007,470.193,728.24,468.908,730.043,467.971C731.846,467.034,732.219,466.444,734.291,466.611C736.364,466.778,740.136,467.701,741.053,469.281C741.97,470.862,740.033,473.099,741.354,471.938C742.674,470.778,747.254,466.219,750.88,465.406C754.507,464.594,757.181,467.528,759.438,469.478C761.694,471.428,763.533,472.395,764.773,473.847C766.012,475.299,766.651,477.236,768.362,476.072C770.072,474.908,772.854,470.644,774.714,468.37C776.573,466.096,777.511,465.811,777.791,465.572C778.071,465.333,777.694,465.139,779.604,466.645C781.514,468.15,785.71,471.353,789.532,472.587C793.353,473.821,796.798,473.085,797.977,471.178C799.156,469.271,798.069,466.193,799.002,464.732C799.934,463.27,802.886,463.424,806.416,464.833C809.946,466.241,814.054,468.904,815.816,470.166C817.577,471.427,816.992,471.288,819.094,470.487C821.196,469.687,825.986,468.226,828.468,468.025C830.95,467.824,831.125,468.884,831.392,468.946C831.658,469.009,832.017,468.075,832.73,468.697C833.443,469.32,834.509,471.498,836.138,472.037C837.767,472.575,839.959,471.473,841.974,470.326C843.989,469.179,845.828,467.985,847.701,467.214C849.574,466.442,851.481,466.092,853.247,466.45C855.012,466.807,856.637,467.872,856.884,469.413C857.132,470.955,856.002,472.972,857.15,472.637C858.298,472.302,861.723,469.615,863.233,469.47C864.742,469.326,864.336,471.724,866.173,471.957C868.01,472.189,872.091,470.256,875.143,470.361C878.195,470.467,880.218,472.612,880.051,472.667C879.883,472.722,877.525,470.687,879.898,469.348C882.271,468.01,889.375,467.367,893.632,467.186C897.889,467.006,899.3,467.287,899.356,467.978C899.412,468.67,898.114,469.771,898.997,469.107C899.881,468.443,902.947,466.014,905.145,466.791C907.342,467.568,908.672,471.551,910.807,472.75C912.941,473.949,915.881,472.363,918.735,470.536C921.589,468.709,924.358,466.64,926.171,467.133C927.983,467.627,928.839,470.682,929.168,471.722C929.498,472.761,929.301,471.784,931.502,470.574C933.703,469.364,938.304,467.922,940.915,467.634C943.527,467.346,944.151,468.212,943.779,468.455C943.407,468.697,942.039,468.316,943.555,468.621C945.071,468.926,949.47,469.916,951.931,469.981C954.393,470.046,954.917,469.184,955.113,468.911C955.308,468.638,955.175,468.954,956.097,468.093C957.018,467.232,958.993,465.195,960.717,465.444C962.44,465.694,963.911,468.23,964.26,470.381C964.609,472.533,963.836,474.3,964.221,473.637C964.605,472.973,966.148,469.879,968.726,469.299C971.305,468.719,974.92,470.655,977.646,471.563C980.373,472.47,982.212,472.35,982.424,469.805C982.636,467.259,981.221,462.289,980.821,458.847C980.421,455.406,981.036,453.494,979.476,452.241C977.916,450.988,974.181,450.395,973.057,450.117C971.934,449.84,973.421,449.879,972.734,449.867C972.048,449.855,969.187,449.792,966.758,449.252C964.329,448.712,962.332,447.696,960.952,446.741C959.573,445.787,958.811,444.894,957.729,445.813C956.648,446.732,955.248,449.461,954.18,450.519C953.112,451.577,952.377,450.964,952.022,450.684C951.667,450.404,951.692,450.459,950.397,451.796C949.101,453.134,946.484,455.755,944.419,456.893C942.354,458.03,940.839,457.683,938.651,456.664C936.462,455.646,933.6,453.955,931.386,452.261C929.172,450.568,927.607,448.87,926.938,447.478C926.269,446.085,926.495,444.997,924.997,444.907C923.499,444.818,920.275,445.727,918.31,446.821C916.344,447.914,915.635,449.191,916.152,450.429C916.669,451.666,918.41,452.862,916.97,452.237C915.529,451.611,910.907,449.164,908.841,447.178C906.775,445.192,907.265,443.669,905.168,445.236C903.071,446.804,898.385,451.461,896.114,453.6C893.842,455.738,893.984,455.357,891.789,454.646C889.594,453.935,885.061,452.894,881.763,451.637C878.465,450.38,876.402,448.908,875.626,447.077C874.85,445.247,875.362,443.059,872.611,442.719C869.861,442.379,863.848,443.888,860.978,446.992C858.109,450.097,858.384,454.798,857.458,456.659C856.533,458.519,854.407,457.54,849.919,455.744C845.431,453.948,838.582,451.335,835.653,449.618C832.724,447.901,833.715,447.079,832.73,448.384C831.744,449.69,828.782,453.122,827.722,454.384C826.663,455.647,827.506,454.738,825.312,453.583C823.119,452.427,817.89,451.025,815.004,451.081C812.118,451.138,811.575,452.653,810.954,452.827C810.333,453,809.633,451.832,809.433,451.657C809.233,451.482,809.533,452.3,806.016,453.497C802.499,454.693,795.164,456.268,790.386,454.917C785.608,453.566,783.387,449.289,782.372,448.183C781.356,447.076,781.546,449.14,781.24,448.798C780.934,448.455,780.132,445.705,777.023,445.282C773.915,444.859,768.499,446.763,764.735,446.875C760.971,446.987,758.858,445.308,757.016,443.977C755.173,442.645,753.6,441.661,752.205,443.332C750.809,445.004,749.59,449.33,747.466,450.802C745.342,452.275,742.312,450.893,741.247,450.754C740.183,450.616,741.083,451.72,739.868,451.776C738.653,451.833,735.323,450.842,734.287,449.013C733.252,447.184,734.511,444.518,732.938,444.462C731.364,444.406,726.957,446.962,723.676,448.032C720.394,449.102,718.239,448.687,717.666,450.115C717.094,451.542,718.104,454.813,716.492,455.371C714.881,455.929,710.648,453.775,708.354,452.243C706.061,450.712,705.707,449.803,704.179,449.753C702.651,449.703,699.949,450.513,698.485,450.568C697.021,450.623,696.795,449.923,697.701,449.385C698.607,448.847,700.644,448.471,698.645,447.871C696.646,447.271,690.61,446.447,688.812,446.217C687.014,445.988,689.452,446.353,688.716,447.749C687.98,449.145,684.068,451.572,679.682,451.976C675.296,452.379,670.435,450.759,667.917,449.355C665.398,447.951,665.222,446.764,664.558,446.957C663.894,447.151,662.742,448.726,661.97,449.106C661.197,449.486,660.804,448.671,660.682,449.958C660.56,451.246,660.71,454.637,658.422,455.314C656.133,455.99,651.407,453.953,648.844,453.452C646.28,452.952,645.879,453.988,644.117,453.765C642.354,453.542,639.23,452.061,637.722,451.238C636.215,450.414,636.324,450.249,634.776,450.644C633.229,451.038,630.025,451.993,628.322,451.896C626.619,451.799,626.416,450.651,627.149,450.661C627.881,450.672,629.548,451.841,627.309,452.832C625.07,453.823,618.925,454.636,616.918,454.792C614.911,454.949,617.043,454.45,614.828,453.163C612.613,451.875,606.053,449.799,603.12,449.613C600.187,449.427,600.883,451.132,599.863,451.305C598.842,451.478,596.106,450.118,593.462,449.918C590.817,449.718,588.264,450.677,586.755,450.906C585.246,451.135,584.78,450.634,584.174,449.713C583.567,448.791,582.819,447.449,582.815,446.774C582.811,446.099,583.55,446.09,582.212,446.718C580.875,447.345,577.462,448.608,574.26,448.752C571.059,448.896,568.07,447.92,566.818,446.889C565.567,445.859,566.052,444.774,566.134,444.924C566.216,445.074,565.894,446.459,562.509,447.308C559.123,448.158,552.673,448.472,549.244,448.899C545.815,449.326,545.407,449.865,544.962,448.956C544.518,448.046,544.038,445.689,543.072,447.211C542.107,448.733,540.656,454.135,538.118,455.348C535.579,456.56,531.953,453.584,530.61,453.053C529.267,452.521,530.207,454.434,528.523,454.145C526.838,453.857,522.529,451.367,519.321,450.282C516.113,449.197,514.007,449.517,513.51,449.983C513.013,450.449,514.124,451.061,513.345,452.406C512.566,453.751,509.897,455.829,506.478,455.73C503.06,455.631,498.892,453.353,495.916,451.533C492.94,449.712,491.155,448.349,490.193,448.734C489.23,449.118,489.09,451.251,488.282,452.535C487.475,453.818,486.001,454.251,484.563,453.813C483.126,453.374,481.726,452.062,480.975,451.277C480.224,450.493,480.123,450.234,480.236,449.655C480.35,449.075,480.679,448.174,479.812,448.191C478.944,448.207,476.881,449.142,475.867,449.614C474.853,450.087,474.888,450.098,475.592,450.255C476.297,450.412,477.671,450.716,477.701,452.136C477.731,453.557,476.417,456.094,473.554,455.666C470.691,455.238,466.279,451.845,462.556,450.181C458.833,448.517,455.797,448.583,454.526,448.35C453.254,448.117,453.745,447.585,451.919,447.253C450.093,446.922,445.949,446.79,443.537,446.903C441.125,447.016,440.444,447.372,439.203,447.33C437.961,447.289,436.159,446.848,433.642,447.65C431.125,448.451,427.894,450.495,427.237,451.917C426.581,453.339,428.499,454.139,426.487,454.972C424.475,455.804,418.534,456.667,415.511,455.027C412.488,453.387,412.382,449.243,409.741,447.566C407.1,445.889,401.923,446.678,399.395,447.292C396.868,447.906,396.991,448.344,397.009,448.908C397.027,449.473,396.941,450.162,397.116,449.229C397.29,448.295,397.724,445.738,395.372,445.558C393.02,445.378,387.882,447.576,386.2,448.041C384.518,448.506,386.291,447.238,385.618,447.037C384.945,446.837,381.826,447.704,378.607,448.708C375.388,449.712,372.07,450.852,370.084,451.218C368.097,451.584,367.442,451.175,367.06,450.851C366.678,450.526,366.569,450.285,365.286,449.984C364.003,449.682,361.546,449.32,361.656,449.221C361.766,449.122,364.443,449.286,363.005,449.712C361.566,450.139,356.011,450.828,352.018,450.154C348.026,449.481,345.596,447.446,344.724,448.634C343.852,449.822,344.538,454.233,344.135,455.18C343.732,456.128,342.241,453.61,338.699,453.33C335.157,453.05,329.565,455.007,325.633,455.257C321.702,455.507,319.431,454.05,317.534,454.471C315.637,454.891,314.113,457.189,312.165,456.756C310.218,456.324,307.847,453.162,306.627,451.51C305.406,449.857,305.336,449.714,304.962,448.959C304.587,448.204,303.907,446.836,302.589,446.822C301.272,446.808,299.315,448.148,298.265,449.027C297.215,449.906,297.07,450.324,297.338,449.276C297.606,448.229,298.287,445.715,297.244,444.055C296.2,442.396,293.433,441.59,291.582,442.809C289.73,444.027,288.795,447.27,286.293,447.754C283.791,448.238,279.722,445.963,276.157,446.508C272.591,447.053,269.529,450.419,266.343,451.498C263.156,452.578,259.845,451.372,258.438,451.98C257.03,452.588,257.526,455.01,256.853,455.919C256.18,456.828,254.338,456.225,250.45,455.519C246.562,454.812,240.628,454.001,237.826,452.325C235.023,450.648,235.353,448.106,234.41,448.259C233.467,448.412,231.251,451.261,228.627,452.053C226.004,452.844,222.973,451.577,220.442,451.055C217.912,450.532,215.881,450.754,214.793,450.751C213.705,450.749,213.559,450.522,213.507,450.682C213.455,450.842,213.496,451.389,214.255,452.017C215.015,452.644,216.493,453.353,213.93,454.33C211.366,455.308,204.762,456.555,202.101,456.406C199.44,456.257,200.722,454.712,198.202,453.938C195.682,453.163,189.36,453.158,186.542,452.735C183.723,452.312,184.409,451.47,184.153,450.599C183.898,449.728,182.703,448.828,180.927,448.929C179.151,449.03,176.796,450.132,175.913,449.739C175.03,449.345,175.62,447.457,173.963,447.582C172.305,447.708,168.4,449.847,166.058,449.174C163.716,448.501,162.937,445.016,161.748,443.247C160.56,441.479,158.96,441.427,156.714,443.446C154.467,445.465,151.572,449.554,147.908,451.148C144.244,452.741,139.811,451.839,138.414,450.353C137.016,448.868,138.655,446.799,137.651,447.464C136.647,448.129,132.999,451.528,128.673,452.759C124.346,453.989,119.34,453.051,117.318,452.517C115.296,451.983,116.258,451.852,115.894,452.286C115.529,452.719,113.839,453.717,111.408,452.128C108.977,450.539,105.806,446.364,102.784,447.105C99.762,447.846,96.89,453.504,94.126,456.195C91.362,458.885,88.707,458.608,85.605,457.448C82.504,456.288,78.956,454.244,76.908,451.996C74.861,449.748,74.314,447.296,73.78,446.867C73.246,446.438,72.725,448.031,73.139,448.721C73.552,449.411,74.9,449.197,72.182,450.184C69.463,451.17,62.678,453.357,59.312,452.864C55.947,452.372,56.001,449.2,54.18,449.473C52.36,449.745,48.664,453.461,47.04,453.72C45.417,453.979,45.867,450.78,42.092,449.344C38.317,447.908,30.317,448.235,25.575,448.207C20.833,448.18,19.349,447.798,19.28,447.495C19.21,447.192,20.555,446.968,21.008,445.761C21.461,444.554,21.022,442.364,22.437,441.152C23.852,439.94,27.121,439.706,27.601,440.614C28.081,441.522,25.773,443.573,27.488,444.517C29.203,445.461,34.941,445.297,37.797,445.104C40.653,444.91,40.628,444.686,42.701,443.921C44.773,443.156,48.943,441.85,51.064,440.965C53.185,440.08,53.258,439.617,54.11,440.144C54.962,440.671,56.594,442.189,59.017,443.229C61.44,444.269,64.654,444.832,65.977,444.836C67.299,444.839,66.73,444.283,68.223,441.906C69.715,439.528,73.269,435.329,75.885,435.133C78.501,434.937,80.179,438.744,80.92,441.61C81.662,444.476,81.466,446.401,84.251,446.966C87.036,447.53,92.802,446.735,96.104,445.4C99.406,444.064,100.245,442.19,101.225,441.43C102.204,440.669,103.324,441.024,105.589,441.511C107.853,441.998,111.262,442.618,114.094,442.257C116.926,441.895,119.183,440.552,120.985,439.166C122.788,437.78,124.137,436.352,124.431,436.194C124.725,436.036,123.963,437.147,125.042,438.143C126.12,439.14,129.039,440.022,131.877,440.984C134.716,441.947,137.473,442.99,139.31,443.896C141.147,444.801,142.064,445.57,143.409,445.377C144.754,445.183,146.527,444.029,149.165,442.65C151.804,441.272,155.308,439.669,156.046,440.204C156.783,440.74,154.755,443.413,157.719,443.163C160.683,442.913,168.638,439.738,173.631,439.616C178.624,439.493,180.655,442.423,182.107,443.53C183.559,444.636,184.432,443.919,184.802,442.719C185.172,441.518,185.04,439.834,185.788,440.065C186.536,440.296,188.164,442.442,190.835,442.789C193.505,443.136,197.218,441.683,198.759,442.491C200.301,443.3,199.671,446.37,202.029,445.588C204.387,444.807,209.734,440.173,212.772,440.172C215.809,440.172,216.537,444.804,218.292,445.975C220.047,447.147,222.828,444.857,223.51,443.765C224.191,442.673,222.774,442.778,224.303,443.034C225.832,443.29,230.308,443.697,235.266,443.501C240.225,443.304,245.665,442.505,247.761,441.732C249.858,440.958,248.609,440.212,249.022,441.408C249.435,442.604,251.509,445.743,254.02,445.654C256.531,445.566,259.478,442.251,261.501,441.296C263.524,440.341,264.623,441.746,265.613,442.113C266.603,442.48,267.483,441.809,267.158,441.383C266.833,440.958,265.302,440.777,266.744,441.61C268.186,442.444,272.601,444.291,276.108,444.203C279.616,444.114,282.216,442.088,283.848,439.979C285.48,437.87,286.144,435.677,287.63,435.78C289.115,435.883,291.423,438.281,292.695,438.757C293.967,439.233,294.203,437.786,296.5,437.596C298.798,437.407,303.157,438.475,303.964,439.771C304.77,441.067,302.023,442.59,304.108,442.662C306.193,442.734,313.11,441.354,316.474,442.309C319.839,443.264,319.651,446.555,321.39,446.812C323.129,447.069,326.794,444.293,327.899,443.99C329.004,443.687,327.549,445.857,329.91,445.291C332.271,444.724,338.449,441.421,341.891,439.214C345.333,437.007,346.04,435.895,347.2,435.444C348.36,434.993,349.974,435.203,352.605,435.481C355.236,435.759,358.884,436.106,360.942,436.319C363,436.533,363.467,436.613,364.417,437.017C365.367,437.42,366.799,438.147,367.622,438.137C368.445,438.126,368.659,437.378,368.219,437.66C367.78,437.942,366.688,439.254,367.768,440.039C368.847,440.824,372.099,441.082,375.052,441.333C378.004,441.585,380.658,441.829,382.652,441.335C384.647,440.841,385.983,439.608,385.575,440.425C385.167,441.241,383.015,444.106,383.647,444.985C384.28,445.863,387.697,444.755,392.996,444.349C398.294,443.942,405.474,444.238,408.552,442.426C411.631,440.614,410.607,436.695,412.014,434.488C413.421,432.281,417.258,431.786,420.138,433.727C423.017,435.669,424.939,440.047,427.928,440.929C430.918,441.811,434.975,439.198,437.299,438.488C439.623,437.777,440.214,438.97,440.499,438.435C440.785,437.901,440.764,435.641,442.52,434.628C444.276,433.616,447.809,433.852,449.279,434.529C450.75,435.206,450.159,436.325,451.733,437.396C453.307,438.467,457.046,439.491,457.748,439.076C458.45,438.661,456.116,436.808,457.884,436.262C459.653,435.717,465.524,436.48,469.166,435.715C472.808,434.95,474.221,432.658,476.287,433.093C478.353,433.528,481.072,436.689,482.894,438.129C484.717,439.569,485.644,439.287,485.149,438.896C484.653,438.504,482.737,438.002,482.78,438.135C482.823,438.267,484.825,439.033,488.153,440.316C491.48,441.6,496.132,443.401,500.416,443.881C504.699,444.36,508.614,443.519,511.346,441.559C514.077,439.599,515.626,436.52,515.822,435.213C516.019,433.905,514.863,434.368,517.05,435.361C519.237,436.354,524.768,437.877,526.082,438.152C527.396,438.426,524.494,437.452,527.349,436.977C530.204,436.502,538.816,436.527,542.446,437.957C546.076,439.387,544.723,442.223,544.754,442.295C544.784,442.367,546.198,439.676,549.11,439.372C552.021,439.067,556.43,441.149,559.094,441.607C561.758,442.065,562.676,440.899,564.704,440.276C566.731,439.653,569.866,439.573,571.255,439.435C572.645,439.298,572.287,439.104,572.4,439.431C572.513,439.758,573.096,440.607,572.623,440.576C572.149,440.545,570.62,439.635,571.469,438.055C572.319,436.474,575.548,434.221,579.553,434.773C583.558,435.324,588.339,438.679,591.911,439.723C595.483,440.767,597.847,439.5,598.801,439.206C599.755,438.913,599.299,439.593,599.659,439.981C600.02,440.369,601.197,440.465,601.582,440.915C601.967,441.365,601.561,442.171,603.61,442.33C605.66,442.488,610.164,442.001,612.432,441.607C614.699,441.212,614.729,440.91,614.667,441.854C614.605,442.798,614.451,444.988,615.711,444.882C616.972,444.776,619.648,442.374,621.629,441.204C623.611,440.034,624.898,440.096,624.319,438.976C623.741,437.855,621.296,435.552,622.955,435.526C624.615,435.501,630.377,437.754,633.2,438.615C636.022,439.475,635.904,438.943,635.698,438.881C635.491,438.819,635.196,439.226,635.013,440.422C634.831,441.617,634.763,443.601,635.799,443.144C636.835,442.688,638.977,439.791,642.797,439.15C646.618,438.508,652.118,440.123,655.015,440.729C657.911,441.335,658.204,440.933,658.953,440.106C659.702,439.28,660.908,438.028,662.061,436.75C663.214,435.472,664.314,434.167,664.935,434.911C665.556,435.655,665.696,438.449,667.405,439.414C669.115,440.378,672.392,439.514,675.627,439.886C678.862,440.259,682.053,441.868,684.633,443.351C687.213,444.834,689.181,446.19,691.015,445.133C692.85,444.075,694.551,440.604,695.466,439.032C696.381,437.46,696.509,437.786,697.187,438.189C697.866,438.592,699.094,439.071,700.537,438.955C701.981,438.839,703.639,438.128,704.786,438.482C705.933,438.837,706.568,440.257,707.584,441.421C708.6,442.585,709.996,443.494,710.88,443.156C711.765,442.819,712.138,441.234,712.422,439.076C712.707,436.918,712.905,434.186,714.489,433.59C716.074,432.993,719.046,434.533,721.952,435.407C724.858,436.282,727.698,436.493,727.847,437.557C727.995,438.621,725.452,440.538,728.204,440.905C730.955,441.273,739.001,440.09,742.977,439.026C746.953,437.962,746.86,437.017,747.523,437.091C748.186,437.164,749.605,438.256,751.252,439.59C752.899,440.924,754.772,442.5,756.136,442.872C757.5,443.244,758.354,442.413,757.698,441.443C757.042,440.473,754.876,439.365,756.234,439.034C757.592,438.703,762.473,439.149,764.574,438.657C766.674,438.165,765.994,436.735,766.366,438.233C766.738,439.73,768.162,444.156,771.487,444.837C774.812,445.518,780.037,442.453,782.591,441.076C785.145,439.699,785.028,440.009,784.662,441.046C784.295,442.084,783.679,443.849,784.872,444.268C786.065,444.687,789.066,443.759,790.951,443.482C792.837,443.206,793.607,443.582,794.837,442.932C796.066,442.282,797.754,440.606,797.167,440.247C796.579,439.888,793.716,440.847,793.823,441.161C793.929,441.475,797.007,441.145,802.192,439.725C807.378,438.306,814.671,435.798,818.586,435.915C822.501,436.033,823.038,438.776,824.357,439.744C825.677,440.712,827.778,439.904,829.178,440.761C830.578,441.618,831.275,444.141,832.035,443.584C832.794,443.026,833.616,439.388,835.67,438.057C837.723,436.727,841.009,437.704,843.978,439.045C846.946,440.386,849.598,442.091,850.637,441.616C851.676,441.142,851.102,438.488,852.202,438.005C853.303,437.523,856.078,439.211,857.642,439.578C859.206,439.945,859.559,438.989,859.914,437.802C860.27,436.615,860.629,435.196,862.674,436.785C864.719,438.373,868.451,442.969,871.117,444.032C873.783,445.095,875.384,442.625,877.182,441.296C878.979,439.967,880.972,439.777,882.607,440.857C884.241,441.936,885.517,444.284,885.827,443.113C886.136,441.942,885.48,437.252,887.324,435.417C889.169,433.583,893.516,434.604,897.298,436.089C901.079,437.575,904.296,439.524,905.145,440.218C905.995,440.911,904.476,440.348,905.723,439.822C906.97,439.296,910.983,438.807,912.899,438.584C914.816,438.36,914.637,438.402,915.045,438.644C915.453,438.886,916.448,439.329,916.868,439.448C917.288,439.568,917.132,439.364,916.684,440.167C916.235,440.969,915.494,442.777,918.276,442.807C921.057,442.837,927.361,441.088,932.015,440.107C936.669,439.126,939.672,438.913,941.381,439.284C943.09,439.655,943.505,440.611,943.199,440.913C942.892,441.216,941.864,440.866,942.967,439.035C944.069,437.204,947.302,433.894,950.695,433.202C954.089,432.511,957.642,434.439,959.668,436.068C961.694,437.697,962.191,439.028,962.003,440.487C961.815,441.947,960.942,443.535,962.376,443.926C963.81,444.316,967.552,443.508,969.62,442.734C971.688,441.96,972.084,441.219,971.906,440.305C971.729,439.39,970.98,438.302,971.468,437.768C971.955,437.234,973.679,437.255,975.507,437.683C977.335,438.11,979.266,438.943,979.89,439.174C980.513,439.405,979.828,439.033,979.186,437.699C978.544,436.365,977.944,434.069,976.027,433.5C974.11,432.931,970.876,434.089,967.342,433.763C963.807,433.437,959.972,431.627,958.671,431.207C957.37,430.787,958.604,431.757,958.132,431.797C957.661,431.837,955.484,430.946,954.194,430.829C952.905,430.711,952.503,431.366,951.406,431.376C950.31,431.386,948.517,430.751,947.305,429.477C946.092,428.202,945.459,426.289,945.443,425.347C945.426,424.405,946.026,424.436,944.853,425.812C943.68,427.189,940.734,429.911,937.971,431.12C935.209,432.33,932.629,432.026,929.637,432.781C926.645,433.536,923.24,435.349,920.966,436.698C918.691,438.048,917.547,438.933,914.564,438.588C911.582,438.243,906.76,436.668,903.314,434.994C899.868,433.321,897.797,431.55,896.762,430.708C895.727,429.867,895.727,429.955,895.764,430.814C895.801,431.674,895.874,433.304,895.959,433.248C896.045,433.193,896.144,431.452,894.475,430.672C892.806,429.893,889.37,430.074,888.682,430.386C887.994,430.699,890.053,431.142,888.694,431.041C887.334,430.939,882.555,430.292,879.338,430.478C876.121,430.664,874.465,431.683,873.424,431.758C872.383,431.834,871.956,430.965,871.204,431.754C870.451,432.543,869.373,434.99,867.77,435.181C866.166,435.372,864.036,433.308,864.177,431.273C864.318,429.237,866.729,427.229,866.246,427.589C865.763,427.949,862.386,430.677,858.602,432.179C854.818,433.681,850.629,433.958,848.655,433.963C846.682,433.967,846.925,433.7,844.749,433.326C842.574,432.952,837.979,432.472,834.508,430.974C831.038,429.476,828.691,426.961,827.899,426.229C827.106,425.498,827.866,426.551,826.56,428.519C825.253,430.487,821.881,433.369,818.659,434.325C815.437,435.282,812.367,434.312,810.984,433.218C809.601,432.125,809.906,430.907,809.638,429.913C809.37,428.919,808.53,428.149,807.172,428.51C805.814,428.871,803.937,430.363,802.658,429.563C801.378,428.763,800.695,425.672,800.102,424.493C799.509,423.314,799.005,424.047,795.732,424.461C792.459,424.875,786.418,424.969,784.136,424.819C781.854,424.669,783.331,424.274,782.006,425.234C780.68,426.195,776.553,428.512,771.756,429.727C766.958,430.941,761.492,431.054,759.238,429.49C756.985,427.925,757.946,424.682,755.324,423.701C752.702,422.719,746.498,423.999,742.903,426.923C739.308,429.847,738.323,434.415,735.947,433.713C733.571,433.011,729.804,427.039,726.894,425.595C723.983,424.152,721.929,427.236,720.828,428.644C719.727,430.052,719.579,429.783,719.447,429.703C719.315,429.623,719.198,429.732,718.871,429.825C718.544,429.917,718.005,429.995,716.734,430.164C715.462,430.333,713.458,430.593,713.248,430.593C713.038,430.593,714.622,430.333,713.773,431.252C712.924,432.171,709.642,434.269,707.029,433.942C704.417,433.615,702.474,430.862,701.545,431.071C700.617,431.281,700.703,434.455,698.221,434.205C695.739,433.955,690.689,430.282,686.875,429.377C683.061,428.473,680.482,430.337,679.15,430.967C677.818,431.598,677.732,430.995,676.739,429.854C675.745,428.712,673.844,427.031,672.574,426.952C671.304,426.874,670.664,428.397,671.559,428.726C672.455,429.055,674.885,428.189,673.493,429.26C672.101,430.332,666.887,433.342,663.593,433.814C660.3,434.286,658.928,432.22,658.006,430.685C657.083,429.15,656.61,428.147,654.977,427.084C653.344,426.02,650.551,424.897,648.461,424.313C646.37,423.729,644.982,423.684,643.494,424.717C642.006,425.75,640.418,427.86,639.073,429.825C637.727,431.79,636.625,433.609,636.291,433.7C635.957,433.791,636.392,432.154,634.144,431.096C631.896,430.037,626.965,429.557,624.302,429.002C621.639,428.448,621.245,427.819,620.675,427.946C620.105,428.073,619.361,428.956,618.439,430.435C617.517,431.914,616.419,433.988,615.234,434.034C614.05,434.08,612.779,432.098,612.34,430.825C611.9,429.552,612.291,428.989,613.162,429.92C614.032,430.852,615.383,433.278,611.997,433.409C608.612,433.54,600.492,431.376,597.843,430.266C595.194,429.155,598.016,429.1,596.952,429.841C595.888,430.583,590.938,432.122,588.106,432.178C585.274,432.233,584.561,430.805,582.591,430.64C580.621,430.476,577.394,431.576,575.247,432.004C573.101,432.431,572.034,432.185,570.915,431.062C569.796,429.938,568.624,427.936,566.967,427.249C565.31,426.561,563.167,427.187,560.74,427.24C558.312,427.294,555.599,426.775,553.188,427.552C550.776,428.329,548.665,430.403,547.441,431.027C546.216,431.651,545.878,430.824,545.772,430.167C545.666,429.51,545.793,429.022,545.158,430.474C544.524,431.925,543.129,435.317,542.154,435.926C541.18,436.535,540.626,434.362,537.198,433.489C533.771,432.616,527.47,433.042,524.609,433.381C521.748,433.721,522.326,433.973,520.368,433.196C518.409,432.418,513.915,430.611,511.775,429.564C509.635,428.517,509.849,428.231,509.295,428.388C508.741,428.546,507.418,429.148,506.399,428.516C505.381,427.884,504.667,426.018,502.383,425.496C500.099,424.973,496.244,425.793,495.166,426.829C494.088,427.865,495.787,429.116,495.905,430.422C496.023,431.727,494.559,433.087,490.406,433.733C486.252,434.379,479.408,434.311,474.973,434.79C470.538,435.269,468.51,436.296,466.457,436.655C464.404,437.015,462.325,436.707,461.681,436.635C461.038,436.563,461.829,436.728,459.044,434.119C456.258,431.51,449.895,426.128,446.937,425.333C443.979,424.538,444.425,428.329,441.624,428.542C438.824,428.755,432.776,425.39,427.775,424.171C422.775,422.953,418.823,423.882,416.413,425.175C414.003,426.468,413.135,428.125,412.642,428.593C412.149,429.061,412.031,428.341,412.55,428.257C413.069,428.174,414.227,428.728,413.404,428.811C412.58,428.893,409.777,428.505,408.661,427.908C407.546,427.311,408.118,426.505,404.979,426.791C401.84,427.077,394.988,428.456,391.53,429.003C388.073,429.549,388.01,429.264,386.303,428.802C384.596,428.34,381.245,427.701,379.827,428.695C378.41,429.688,378.927,432.315,377.644,433.7C376.36,435.084,373.277,435.226,372.079,434.416C370.882,433.605,371.57,431.842,370.142,430.833C368.715,429.824,365.17,429.568,363.091,429.699C361.011,429.829,360.395,430.346,361.151,430.67C361.907,430.994,364.033,431.126,363.654,430.542C363.276,429.957,360.392,428.657,356.069,428.794C351.747,428.931,345.986,430.505,342.269,430.981C338.552,431.457,336.878,430.833,334.563,430.235C332.247,429.637,329.29,429.063,327.744,427.647C326.197,426.231,326.06,423.973,323.661,424.181C321.262,424.389,316.6,427.063,314.045,427.582C311.489,428.102,311.04,426.466,308.894,425.676C306.748,424.887,302.904,424.943,300.444,427.365C297.983,429.787,296.906,434.574,296.58,434.968C296.254,435.361,296.68,431.36,294.73,430.894C292.78,430.428,288.455,433.496,284.797,432.662C281.14,431.828,278.15,427.091,274.07,426.176C269.989,425.261,264.818,428.168,262.653,430.216C260.487,432.265,261.328,433.455,260.611,433.246C259.894,433.037,257.62,431.43,255.902,430.684C254.185,429.938,253.025,430.053,252.308,430.297C251.592,430.541,251.319,430.914,249.9,430.041C248.481,429.167,245.915,427.048,245.467,427.153C245.019,427.258,246.69,429.589,245.25,429.899C243.811,430.208,239.262,428.497,236.445,428.495C233.629,428.494,232.545,430.203,232.003,431.057L231.461,431.911"></path>
      </svg>
      