<?xml version="1.0" encoding="UTF-8" standalone="no"?>
    <!-- Created with Inkscape (https://labs.original.art.br/draw) -->
    
    <svg
       xmlns:dc="http://purl.org/dc/elements/1.1/"
       xmlns:cc="http://creativecommons.org/ns#"
       xmlns:rdf="http://www.w3.org/1999/02/22-rdf-syntax-ns#"
       xmlns:svg="http://www.w3.org/2000/svg"
       xmlns="http://www.w3.org/2000/svg"
       xmlns:sodipodi="http://sodipodi.sourceforge.net/DTD/sodipodi-0.dtd"
       xmlns:inkscape="http://www.inkscape.org/namespaces/inkscape"
       id="8bx2Z"
       version="1.1"
       inkscape:version="0.91 r13725"
       width="undefined"
       height="undefined"
       viewBox="0 0 undefined undefined"
       sodipodi:docname="_paths6.svg">
      <metadata
         id="metadata3404">
        <rdf:RDF>
          <cc:Work
             rdf:about="">
            <dc:format>image/svg+xml</dc:format>
            <dc:type
               rdf:resource="http://purl.org/dc/dcmitype/StillImage" />
            <dc:title></dc:title>
          </cc:Work>
        </rdf:RDF>
      </metadata>
      undefined<path fill="none" stroke-width="1" style="stroke: rgb(0, 71, 171);" d="M6.932,500L6.458,497.069C5.985,494.138,5.037,488.276,7.278,484.14C9.518,480.004,14.947,477.594,17.905,477.339C20.863,477.084,21.35,478.985,22.576,480.007C23.802,481.03,25.767,481.175,27.394,482.079C29.022,482.982,30.312,484.645,31.901,484.797C33.491,484.95,35.379,483.593,37.475,482.315C39.571,481.037,41.874,479.838,43.645,480.431C45.417,481.025,46.657,483.411,48.801,484.106C50.945,484.8,53.993,483.803,55.625,482.808C57.258,481.813,57.474,480.821,58.194,480.928C58.913,481.035,60.136,482.242,60.917,482.677C61.698,483.111,62.036,482.773,64.117,482.1C66.198,481.428,70.02,480.421,71.497,479.42C72.974,478.419,72.105,477.424,73.254,477.736C74.403,478.047,77.57,479.666,78.361,480.874C79.151,482.082,77.566,482.88,79.69,481.708C81.813,480.536,87.645,477.394,91.709,477.158C95.772,476.921,98.067,479.59,99.255,480.571C100.442,481.553,100.521,480.847,100.783,480.527C101.044,480.206,101.487,480.272,102.142,480.159C102.797,480.046,103.665,479.755,104.634,478.214C105.603,476.673,106.672,473.882,108.682,472.522C110.692,471.163,113.641,471.234,116.677,474.281C119.713,477.327,122.836,483.349,126.404,484.717C129.973,486.085,133.989,482.799,137.347,481.387C140.706,479.975,143.407,480.437,144.014,480.21C144.62,479.984,143.131,479.069,143.869,478.195C144.607,477.32,147.573,476.486,149.298,477.03C151.024,477.574,151.51,479.495,153.982,480.809C156.454,482.124,160.912,482.832,162.311,481.414C163.711,479.996,162.051,476.452,163.352,476.118C164.654,475.785,168.915,478.663,171.144,478.792C173.372,478.922,173.567,476.303,174.651,475.535C175.736,474.767,177.71,475.85,179.411,476.943C181.111,478.036,182.539,479.139,186.551,478.937C190.562,478.735,197.157,477.227,201.122,476.527C205.087,475.826,206.421,475.934,208.05,477.038C209.679,478.141,211.603,480.241,212.605,481.816C213.606,483.391,213.685,484.44,214.377,484.126C215.068,483.813,216.371,482.136,217.806,481.218C219.24,480.301,220.806,480.143,223.234,480.186C225.662,480.229,228.953,480.474,230.524,480.466C232.095,480.458,231.945,480.197,232.988,480.013C234.031,479.829,236.267,479.72,237.276,478.895C238.285,478.069,238.067,476.526,238.672,476.713C239.277,476.899,240.704,478.816,241.791,479.547C242.877,480.278,243.623,479.822,245.851,479.867C248.078,479.912,251.788,480.456,253.841,479.95C255.894,479.443,256.291,477.886,257.789,478.542C259.288,479.199,261.887,482.071,263.805,483.642C265.723,485.213,266.959,485.483,268.273,484.62C269.587,483.757,270.98,481.761,271.733,480.833C272.487,479.904,272.602,480.043,272.773,479.56C272.945,479.077,273.174,477.972,273.711,477.497C274.247,477.022,275.091,477.177,276.43,478.837C277.769,480.497,279.604,483.661,281.271,484.065C282.938,484.469,284.437,482.112,285.484,481.242C286.53,480.373,287.125,480.991,287.595,480.376C288.064,479.761,288.408,477.914,290.442,477.647C292.475,477.38,296.197,478.695,299.229,480.266C302.261,481.837,304.602,483.665,305.767,482.992C306.933,482.319,306.923,479.145,306.704,478.914C306.485,478.683,306.057,481.395,308.604,481.394C311.15,481.393,316.671,478.68,320.591,476.975C324.511,475.271,326.829,474.575,328.541,475.312C330.252,476.049,331.357,478.219,332.394,477.671C333.43,477.124,334.398,473.858,335.27,474.444C336.141,475.029,336.915,479.467,340.607,481.597C344.299,483.728,350.909,483.55,354.615,483.438C358.322,483.326,359.125,483.28,359.645,481.362C360.165,479.443,360.402,475.653,362.026,473.727C363.65,471.8,366.66,471.738,369.448,474.066C372.236,476.394,374.801,481.113,376.696,482.479C378.59,483.845,379.813,481.858,381.739,481.307C383.664,480.755,386.292,481.64,388.008,480.673C389.725,479.706,390.529,476.888,392.219,476.797C393.91,476.706,396.486,479.343,397.337,481.436C398.188,483.53,397.313,485.08,397.83,484.208C398.346,483.336,400.254,480.041,401.682,477.959C403.11,475.876,404.059,475.005,408.797,474.803C413.535,474.601,422.063,475.068,426.46,476.54C430.857,478.011,431.123,480.486,432.684,481.323C434.244,482.16,437.099,481.359,437.724,480.604C438.349,479.848,436.744,479.138,437.611,479.051C438.478,478.965,441.816,479.502,443.598,480.067C445.38,480.632,445.607,481.226,444.604,480.71C443.601,480.193,441.369,478.567,443.074,477.208C444.78,475.85,450.423,474.759,454.22,475.037C458.016,475.315,459.965,476.962,460.052,477.397C460.139,477.832,458.363,477.054,458.325,477.426C458.286,477.797,459.985,479.317,463.091,479.739C466.198,480.161,470.713,479.484,475.186,478.409C479.659,477.334,484.089,475.862,486.693,476.049C489.298,476.235,490.076,478.082,491.59,479.871C493.105,481.659,495.356,483.39,496.564,483.686C497.773,483.982,497.938,482.844,498.576,481.849C499.214,480.854,500.325,480.002,500.527,478.806C500.73,477.611,500.024,476.072,501.65,474.841C503.277,473.61,507.236,472.688,509.902,473.339C512.569,473.99,513.943,476.214,517.562,478.368C521.181,480.523,527.044,482.607,531.661,483.463C536.278,484.319,539.649,483.947,540.287,483.783C540.925,483.62,538.83,483.666,539.628,483.665C540.425,483.665,544.115,483.619,548.72,484.058C553.325,484.496,558.845,485.419,561.073,484.009C563.302,482.598,562.238,478.855,563.513,478.474C564.789,478.094,568.402,481.077,570.887,481.878C573.371,482.679,574.726,481.299,576.606,480.725C578.485,480.152,580.888,480.384,582.799,480.326C584.709,480.267,586.127,479.917,586.576,480.441C587.024,480.965,586.503,482.363,587,482.582C587.497,482.801,589.012,481.841,588.803,480.879C588.593,479.917,586.66,478.953,587.328,478.802C587.996,478.651,591.265,479.313,595.293,479.732C599.322,480.151,604.109,480.327,606.648,479.706C609.188,479.084,609.48,477.664,609.518,477.909C609.556,478.154,609.341,480.064,610.43,479.697C611.518,479.33,613.91,476.685,616.137,475.737C618.364,474.789,620.427,475.538,622.268,475.893C624.109,476.248,625.729,476.209,626.812,475.945C627.894,475.681,628.439,475.192,629.236,475.474C630.033,475.755,631.083,476.808,632.84,478.172C634.597,479.536,637.062,481.211,641.103,481.715C645.143,482.22,650.76,481.553,653.872,481.252C656.984,480.95,657.592,481.014,657.292,481.321C656.993,481.628,655.788,482.178,656.665,482.128C657.543,482.079,660.504,481.429,663.318,481.125C666.133,480.821,668.802,480.863,669.859,481.185C670.917,481.508,670.363,482.112,670.989,481.753C671.616,481.395,673.421,480.075,673.647,479.577C673.873,479.079,672.519,479.404,674.805,478.882C677.09,478.36,683.014,476.992,686.732,477.784C690.45,478.575,691.962,481.525,693.153,482.24C694.344,482.955,695.214,481.435,696.924,480.455C698.634,479.474,701.185,479.033,702.314,479.051C703.443,479.068,703.149,479.543,703.352,481.311C703.554,483.079,704.252,486.139,706.381,484.783C708.511,483.426,712.072,477.654,713.518,476.345C714.964,475.036,714.294,478.19,717.508,479.623C720.721,481.057,727.816,480.769,730.982,481.879C734.147,482.989,733.382,485.495,734.597,485.629C735.811,485.763,739.005,483.524,741.179,481.947C743.353,480.371,744.508,479.458,744.922,479.974C745.336,480.491,745.01,482.438,745.106,483.036C745.202,483.634,745.72,482.882,748.524,482.859C751.327,482.837,756.416,483.543,759.216,483.155C762.016,482.766,762.528,481.284,763.184,481.031C763.839,480.779,764.638,481.758,765.486,481.682C766.334,481.606,767.231,480.475,767.101,479.17C766.971,477.864,765.813,476.384,768.514,476.62C771.214,476.856,777.774,478.808,781.514,479.465C785.254,480.122,786.175,479.484,786.861,479.896C787.547,480.308,787.997,481.768,788.801,481.74C789.605,481.713,790.762,480.198,791.907,480.739C793.051,481.28,794.183,483.877,796.153,483.414C798.123,482.952,800.932,479.43,802.372,478.305C803.812,477.18,803.882,478.451,805.23,479.425C806.578,480.399,809.204,481.076,810.109,479.932C811.014,478.788,810.198,475.823,811.488,475.554C812.778,475.284,816.175,477.71,817.03,479.879C817.886,482.047,816.201,483.959,817.495,482.782C818.789,481.605,823.063,477.34,824.988,476.284C826.913,475.227,826.49,477.378,828.185,478.484C829.88,479.59,833.694,479.65,837.766,479.162C841.837,478.674,846.166,477.639,848.788,477.547C851.41,477.455,852.324,478.306,854.319,478.734C856.314,479.163,859.39,479.169,860.713,479.41C862.036,479.651,861.608,480.127,863.027,481.162C864.445,482.197,867.711,483.79,869.614,483.66C871.517,483.53,872.056,481.675,872.841,480.318C873.627,478.96,874.657,478.099,876.937,477.678C879.217,477.257,882.747,477.276,883.989,477.988C885.23,478.699,884.184,480.105,885.065,480.095C885.946,480.086,888.753,478.662,890.452,478.312C892.151,477.961,892.741,478.684,893.94,479.32C895.14,479.956,896.949,480.506,897.696,480.894C898.443,481.283,898.128,481.511,898.416,481.49C898.705,481.469,899.597,481.199,899.448,482.346C899.3,483.494,898.11,486.059,900.187,485.239C902.264,484.419,907.607,480.213,911.33,478.424C915.053,476.635,917.156,477.262,918.987,477.657C920.817,478.053,922.376,478.217,923.619,478.772C924.862,479.327,925.789,480.272,924.853,480.058C923.917,479.844,921.119,478.471,923.727,477.193C926.336,475.915,934.351,474.733,938.964,475.374C943.578,476.015,944.79,478.479,945.458,479.465C946.125,480.451,946.248,479.958,946.648,479.819C947.047,479.679,947.723,479.892,947.258,479.564C946.793,479.236,945.188,478.368,945.179,477.512C945.171,476.655,946.761,475.811,948.981,476.649C951.2,477.486,954.049,480.006,957.904,479.903C961.759,479.801,966.619,477.076,969.743,476.54C972.866,476.005,974.253,477.658,975.667,478.138C977.08,478.619,978.521,477.925,980.454,478.409C982.388,478.892,984.815,480.552,985.32,480.395C985.825,480.238,984.407,478.264,982.678,473.392C980.948,468.521,978.907,460.752,977.326,457.839C975.745,454.927,974.625,456.871,972.937,459.246C971.25,461.62,968.995,464.425,966.948,464.098C964.901,463.771,963.061,460.311,961.305,457.884C959.55,455.457,957.88,454.063,956.028,455.25C954.177,456.438,952.144,460.207,949.752,462.466C947.36,464.726,944.609,465.475,942.947,465.181C941.284,464.887,940.712,463.55,940.994,461.949C941.276,460.348,942.414,458.483,939.602,459.293C936.791,460.102,930.031,463.585,926.328,464.092C922.626,464.599,921.98,462.131,921.669,462.346C921.358,462.562,921.381,465.46,919.524,465.437C917.666,465.413,913.929,462.468,911.997,462.549C910.064,462.63,909.935,465.738,908.229,464.924C906.523,464.11,903.24,459.374,900.382,458.566C897.523,457.757,895.091,460.876,892.751,461.225C890.412,461.573,888.166,459.151,887.531,458.619C886.896,458.086,887.872,459.443,886.066,459.581C884.261,459.719,879.672,458.639,876.546,458.124C873.419,457.609,871.755,457.658,871.687,456.743C871.62,455.827,873.149,453.947,872.967,453.745C872.784,453.542,870.889,455.018,866.934,455.63C862.979,456.243,856.965,455.992,852.145,456.934C847.324,457.876,843.697,460.009,841.912,460.516C840.126,461.023,840.182,459.904,839.383,460.944C838.583,461.984,836.928,465.184,835.811,465.679C834.693,466.174,834.114,463.964,831.943,462.116C829.771,460.267,826.007,458.781,823.761,458.602C821.515,458.423,820.788,459.552,819.411,460.134C818.033,460.717,816.005,460.753,815.75,460.306C815.496,459.859,817.015,458.928,816.178,459.148C815.341,459.367,812.146,460.736,810.152,460.959C808.157,461.183,807.362,460.26,807.112,460.794C806.861,461.328,807.156,463.319,806.245,463.002C805.333,462.686,803.215,460.063,800.076,459.614C796.938,459.165,792.781,460.89,790.743,461.146C788.705,461.402,788.786,460.189,788.429,460.212C788.071,460.234,787.274,461.494,787.075,460.979C786.877,460.465,787.277,458.177,786.507,459.023C785.737,459.869,783.796,463.848,779.717,465.326C775.638,466.804,769.422,465.782,766.393,464.797C763.363,463.812,763.521,462.865,763.078,461.97C762.634,461.075,761.589,460.233,759.75,460.782C757.912,461.331,755.28,463.272,753.086,462.731C750.892,462.191,749.136,459.17,747.351,458.455C745.566,457.74,743.752,459.331,742.514,458.619C741.275,457.907,740.612,454.893,740.838,454.912C741.064,454.931,742.179,457.983,739.032,459.872C735.884,461.761,728.473,462.488,723.061,461.98C717.648,461.472,714.234,459.728,713.152,460.233C712.069,460.738,713.318,463.491,712.059,463.143C710.801,462.795,707.035,459.345,704.869,458.404C702.703,457.463,702.136,459.031,702.338,460.101C702.539,461.172,703.508,461.745,701.252,461.435C698.997,461.125,693.516,459.933,690.939,459.291C688.362,458.65,688.687,458.56,688.039,458.581C687.391,458.602,685.77,458.733,684.784,459.253C683.799,459.773,683.449,460.681,682.277,461.317C681.105,461.953,679.111,462.317,677.801,462.35C676.491,462.384,675.866,462.088,673.916,461.726C671.966,461.363,668.69,460.936,667.493,460.478C666.297,460.021,667.178,459.534,666.614,459.338C666.05,459.141,664.04,459.235,663.367,460.114C662.693,460.993,663.356,462.657,663.602,462.97C663.847,463.284,663.675,462.246,661.376,461.938C659.077,461.63,654.652,462.051,651.657,461.291C648.663,460.531,647.099,458.589,646.018,457.103C644.938,455.618,644.34,454.587,642.838,455.355C641.335,456.123,638.928,458.689,637.837,460.404C636.746,462.12,636.972,462.985,635.864,462.812C634.757,462.639,632.316,461.428,631.491,460.829C630.667,460.231,631.457,460.245,630.8,460.294C630.142,460.343,628.036,460.428,627.093,460.418C626.151,460.408,626.373,460.304,626.14,460.597C625.907,460.89,625.219,461.581,624.951,461.433C624.683,461.284,624.834,460.297,624.798,460.174C624.762,460.051,624.539,460.792,622.998,460.689C621.458,460.587,618.601,459.64,615.764,459.325C612.928,459.009,610.113,459.325,608.924,460.028C607.735,460.731,608.172,461.82,607.782,461.71C607.393,461.6,606.176,460.289,604.718,459.79C603.26,459.29,601.56,459.601,601.732,459.139C601.903,458.677,603.946,457.441,603.943,457.853C603.939,458.264,601.889,460.322,598.211,460.915C594.533,461.508,589.227,460.636,585.881,461.575C582.534,462.514,581.147,465.263,579.742,465.708C578.336,466.153,576.913,464.294,574.858,463.835C572.804,463.377,570.118,464.318,568.38,463.944C566.641,463.57,565.849,461.881,564.676,460.367C563.502,458.853,561.948,457.513,560.556,456.616C559.164,455.718,557.935,455.264,557.764,456.68C557.594,458.095,558.482,461.382,557.129,460.698C555.776,460.015,552.182,455.363,547.771,454.582C543.361,453.802,538.135,456.894,535.885,458.416C533.635,459.937,534.362,459.889,535.531,460.429C536.7,460.969,538.311,462.097,535.582,461.688C532.853,461.278,525.784,459.332,520.853,458.698C515.922,458.063,513.129,458.74,511.898,457.881C510.668,457.021,511.001,454.625,508.634,453.962C506.267,453.298,501.2,454.368,497.639,456.228C494.077,458.087,492.021,460.737,491.812,460.825C491.602,460.914,493.241,458.443,492.593,457.447C491.944,456.451,489.01,456.93,486.661,457.476C484.312,458.022,482.55,458.636,480.004,459.478C477.459,460.32,474.131,461.391,472.278,461.509C470.426,461.627,470.049,460.792,469.66,460.28C469.27,459.768,468.868,459.578,468.154,458.571C467.441,457.564,466.416,455.74,465.931,455.895C465.446,456.051,465.5,458.185,465.032,459.117C464.564,460.048,463.575,459.776,460.752,460.192C457.93,460.609,453.275,461.714,451.011,461.83C448.747,461.946,448.873,461.072,447.686,461.004C446.499,460.937,443.998,461.675,442.56,461.483C441.121,461.292,440.745,460.171,441.56,458.761C442.375,457.351,444.381,455.651,442.725,456.055C441.069,456.458,435.752,458.965,431.762,460.481C427.771,461.997,425.108,462.521,423.561,462.544C422.014,462.568,421.583,462.089,419.986,461.386C418.388,460.682,415.624,459.755,414.793,460.887C413.961,462.019,415.062,465.211,414.28,465.288C413.497,465.365,410.833,462.327,407.178,461.32C403.524,460.312,398.88,461.335,394.821,461.675C390.761,462.015,387.286,461.673,385.29,461.265C383.294,460.858,382.777,460.384,382.828,458.596C382.88,456.807,383.5,453.703,380.703,453.502C377.905,453.3,371.689,456.001,369.053,456.469C366.417,456.938,367.361,455.174,366.816,456.282C366.271,457.39,364.238,461.369,361.435,462.635C358.632,463.901,355.059,462.453,352.837,461.071C350.615,459.689,349.744,458.372,349.055,458.891C348.365,459.411,347.858,461.767,347.242,461.83C346.626,461.894,345.902,459.664,344.317,457.508C342.733,455.352,340.288,453.269,336.922,453.061C333.555,452.853,329.267,454.52,326.925,455.968C324.582,457.416,324.185,458.645,323.66,459.471C323.136,460.298,322.485,460.722,321.388,462.017C320.291,463.313,318.747,465.479,316.517,464.89C314.286,464.3,311.369,460.955,309.844,459.703C308.319,458.45,308.188,459.291,307.582,459.953C306.976,460.614,305.896,461.097,305.574,460.255C305.251,459.413,305.686,457.247,303.262,456.7C300.837,456.153,295.552,457.225,293.763,458.685C291.974,460.145,293.681,461.993,292.569,462.289C291.457,462.586,287.526,461.331,285.067,461.99C282.608,462.65,281.621,465.225,281.363,465.192C281.106,465.158,281.579,462.518,279.267,462.673C276.956,462.828,271.86,465.779,267.386,466.557C262.912,467.335,259.059,465.94,256.795,464.464C254.531,462.989,253.855,461.434,254.846,461.232C255.836,461.03,258.494,462.181,257.852,462.001C257.21,461.82,253.268,460.307,249.338,459.923C245.408,459.538,241.489,460.281,238.597,460.585C235.705,460.888,233.84,460.753,232.386,460.315C230.932,459.877,229.888,459.138,229.283,458.482C228.678,457.827,228.513,457.255,226.411,457.088C224.308,456.921,220.269,457.157,218.264,458.497C216.259,459.837,216.288,462.28,216.112,463.092C215.937,463.905,215.555,463.087,214.344,462.203C213.132,461.32,211.09,460.372,209.105,459.387C207.12,458.401,205.191,457.377,204.392,456.635C203.593,455.893,203.924,455.433,202.001,456.142C200.078,456.85,195.901,458.726,192.611,459.755C189.322,460.783,186.92,460.965,186.943,461.322C186.966,461.679,189.414,462.211,186.786,462.669C184.159,463.126,176.456,463.509,173.726,463.988C170.995,464.467,173.237,465.042,170.571,465.18C167.905,465.318,160.333,465.019,156.597,464.83C152.861,464.641,152.962,464.563,152.815,462.567C152.668,460.571,152.274,456.656,150.166,456.021C148.058,455.385,144.236,458.029,141.184,460.064C138.131,462.099,135.847,463.526,134.771,462.851C133.694,462.175,133.825,459.397,130.897,457.408C127.969,455.419,121.982,454.221,117.612,454.163C113.242,454.105,110.489,455.189,108.94,456.282C107.39,457.376,107.043,458.481,105.665,458.293C104.286,458.105,101.876,456.624,100.732,457.704C99.587,458.784,99.708,462.424,98.508,463.325C97.307,464.226,94.785,462.387,92.577,462.335C90.37,462.282,88.478,464.016,86.835,463.97C85.191,463.924,83.795,462.097,82.007,461.687C80.22,461.276,78.041,462.281,77.193,462.164C76.345,462.046,76.827,460.805,76.634,460.198C76.44,459.591,75.571,459.618,73.6,458.503C71.629,457.387,68.556,455.129,65.986,454.708C63.416,454.287,61.35,455.703,61.416,457.611C61.481,459.518,63.679,461.917,62.21,462.555C60.74,463.194,55.605,462.072,53.967,460.672C52.33,459.272,54.19,457.594,51.912,457.371C49.633,457.149,43.215,458.383,39.495,458.919C35.775,459.454,34.752,459.291,34.395,459.897C34.039,460.504,34.349,461.879,33.38,461.903C32.411,461.928,30.163,460.602,28.986,459.164C27.81,457.727,27.705,456.178,27.778,457.127C27.852,458.075,28.102,461.519,25.105,463.153C22.108,464.786,15.864,464.608,12.061,462.846C8.259,461.084,6.898,457.738,8.049,452.15C9.2,446.563,12.861,438.734,15.464,436.118C18.067,433.503,19.611,436.1,21.251,435.867C22.892,435.634,24.629,432.57,27.607,431.067C30.586,429.563,34.808,429.62,37.914,430.045C41.021,430.471,43.012,431.266,43.86,430.681C44.707,430.096,44.409,428.131,43.998,428.642C43.588,429.154,43.066,432.141,45.329,431.188C47.592,430.235,52.642,425.342,57.9,423.486C63.158,421.63,68.624,422.812,72.098,423.985C75.572,425.159,77.053,426.325,78.366,428.299C79.679,430.273,80.822,433.055,82.02,433.408C83.219,433.761,84.473,431.686,85.277,431.526C86.081,431.366,86.434,433.123,86.942,432.287C87.45,431.452,88.111,428.025,90.314,425.643C92.516,423.261,96.259,421.924,98.868,422.297C101.476,422.669,102.95,424.75,105.449,425.714C107.948,426.678,111.472,426.524,113.785,426.919C116.098,427.313,117.199,428.254,117.217,429.389C117.235,430.523,116.17,431.851,116.066,433.008C115.963,434.164,116.821,435.15,119.46,434.707C122.099,434.264,126.519,432.391,128.57,431.803C130.621,431.215,130.302,431.911,132.097,431.409C133.892,430.906,137.801,429.204,139.885,429.997C141.969,430.79,142.228,434.079,142.123,434.373C142.017,434.667,141.546,431.966,144.956,429.861C148.365,427.755,155.655,426.245,160.134,426.798C164.613,427.352,166.281,429.97,167.3,430.96C168.319,431.949,168.69,431.31,169.168,432.014C169.647,432.717,170.232,434.763,170.791,435.214C171.349,435.665,171.879,434.521,172.621,432.812C173.362,431.103,174.315,428.83,176.993,429.611C179.671,430.393,184.075,434.23,188.006,434.444C191.938,434.658,195.397,431.249,196.357,430.177C197.318,429.106,195.779,430.37,195.653,430.891C195.528,431.412,196.817,431.189,198.625,431.464C200.433,431.74,202.761,432.513,206.048,431.112C209.335,429.711,213.581,426.135,217.906,425.397C222.23,424.658,226.633,426.757,229.736,426.514C232.84,426.272,234.645,423.688,236.16,424.357C237.675,425.027,238.901,428.951,241.283,430.426C243.666,431.902,247.207,430.929,250.301,430.392C253.396,429.856,256.044,429.756,257.847,430.011C259.649,430.265,260.606,430.873,260.391,432.207C260.176,433.542,258.789,435.603,259.798,434.603C260.806,433.603,264.21,429.541,267.636,427.693C271.061,425.845,274.508,426.21,277.438,425.79C280.368,425.371,282.782,424.168,283.904,425.524C285.026,426.881,284.856,430.797,286.138,431.886C287.421,432.975,290.157,431.236,292.13,429.746C294.104,428.256,295.316,427.014,296.702,427.874C298.088,428.734,299.648,431.695,301.456,433.185C303.265,434.674,305.322,434.693,306.149,434.829C306.976,434.965,306.574,435.219,308.375,434.528C310.176,433.837,314.18,432.201,315.605,432.406C317.031,432.61,315.878,434.656,317.152,434.65C318.426,434.645,322.128,432.588,324.733,433.098C327.338,433.607,328.846,436.683,330.914,436.376C332.982,436.068,335.609,432.377,338.417,431.201C341.225,430.025,344.212,431.363,344.777,431.362C345.342,431.36,343.485,430.017,345.605,428.432C347.725,426.846,353.823,425.016,357.311,425.368C360.799,425.72,361.678,428.252,362.055,428.939C362.431,429.626,362.305,428.466,362.42,428.279C362.535,428.092,362.891,428.878,364.6,428.964C366.308,429.051,369.37,428.438,371.288,428.41C373.207,428.382,373.983,428.939,374.397,429.234C374.811,429.53,374.862,429.565,375.606,429.919C376.349,430.273,377.785,430.945,378.194,429.432C378.604,427.918,377.987,424.218,379.719,423.64C381.45,423.061,385.529,425.604,387.928,427.263C390.326,428.923,391.043,429.699,391.448,430.005C391.854,430.311,391.948,430.147,391.853,430.351C391.758,430.555,391.475,431.126,390.639,430.873C389.803,430.62,388.414,429.543,388.917,428.907C389.42,428.272,391.816,428.078,395.359,428.87C398.901,429.662,403.59,431.44,405.198,431.141C406.806,430.843,405.334,428.468,406.874,427.753C408.414,427.037,412.966,427.982,414.476,428.82C415.986,429.658,414.452,430.389,417.805,430.142C421.158,429.895,429.396,428.669,434.26,429.878C439.124,431.087,440.613,434.731,442.034,434.303C443.456,433.875,444.81,429.376,446.517,426.563C448.223,423.75,450.282,422.624,451.358,422.983C452.434,423.343,452.528,425.188,455.524,426.398C458.521,427.607,464.42,428.181,466.401,429.378C468.383,430.576,466.445,432.396,468.291,432.706C470.137,433.017,475.765,431.817,479.214,430.081C482.663,428.345,483.931,426.072,485.09,425.938C486.249,425.804,487.299,427.808,488.601,429.066C489.904,430.324,491.46,430.837,491.685,429.414C491.911,427.991,490.806,424.633,490.826,424.574C490.846,424.516,491.992,427.757,495.57,428.838C499.147,429.919,505.156,428.84,508.27,430.219C511.383,431.599,511.6,435.437,513.856,435.464C516.112,435.491,520.405,431.706,521.634,431.127C522.864,430.548,521.028,433.173,523.023,433.529C525.017,433.885,530.84,431.972,533.974,429.676C537.107,427.379,537.55,424.701,538.667,424.133C539.784,423.564,541.575,425.106,543.362,426.395C545.148,427.683,546.931,428.718,548.023,430.225C549.115,431.731,549.516,433.709,551.153,434.224C552.789,434.738,555.661,433.789,557.152,433.26C558.642,432.731,558.752,432.623,559.278,433.549C559.803,434.475,560.745,436.437,562.596,434.721C564.447,433.005,567.207,427.612,569.891,426.144C572.576,424.675,575.186,427.132,576.665,428.379C578.144,429.626,578.493,429.664,578.462,429.855C578.431,430.046,578.02,430.39,578.861,430.372C579.701,430.353,581.793,429.972,581.944,430.871C582.096,431.77,580.307,433.949,582.281,433.884C584.255,433.819,589.99,431.509,594.09,430.917C598.189,430.325,600.651,431.451,602.145,430.246C603.639,429.04,604.163,425.504,605.665,425.244C607.168,424.984,609.648,428,611.251,429.665C612.855,431.33,613.581,431.644,613.265,432.067C612.948,432.49,611.588,433.021,611.279,432.579C610.97,432.136,611.712,430.72,614.367,430.11C617.022,429.5,621.589,429.695,624.044,429.071C626.498,428.447,626.839,427.004,629.799,426.708C632.76,426.413,638.34,427.265,641.406,427.949C644.472,428.633,645.023,429.15,644.716,429.435C644.409,429.721,643.244,429.775,643.877,429.761C644.509,429.746,646.939,429.663,648.14,429.556C649.341,429.449,649.314,429.319,649.155,429.491C648.996,429.664,648.706,430.139,650.166,429.461C651.627,428.782,654.837,426.951,657.941,426.299C661.045,425.646,664.043,426.173,665.333,427.335C666.623,428.498,666.206,430.297,666.879,432.335C667.553,434.374,669.318,436.654,672.278,437.462C675.238,438.271,679.394,437.609,683.709,436.461C688.023,435.312,692.495,433.678,694.561,431.744C696.626,429.81,696.286,427.576,697.088,426.335C697.89,425.094,699.834,424.846,700.351,424.862C700.867,424.877,699.957,425.157,702.053,426.072C704.149,426.988,709.252,428.54,712.295,430.006C715.338,431.473,716.321,432.853,717.096,433.355C717.87,433.857,718.436,433.48,721.56,431.457C724.683,429.433,730.363,425.762,733.005,425.954C735.647,426.145,735.251,430.199,737.769,431.922C740.288,433.646,745.722,433.038,748.165,430.904C750.609,428.77,750.063,425.109,751.752,425.759C753.441,426.409,757.365,431.37,761.927,432.713C766.489,434.056,771.69,431.781,773.742,431.808C775.795,431.835,774.699,434.163,774.84,434.003C774.981,433.844,776.359,431.196,778.476,430.594C780.594,429.993,783.45,431.437,785.15,432.128C786.849,432.82,787.391,432.76,789.696,431.073C792.001,429.387,796.069,426.075,800.409,425.519C804.749,424.963,809.363,427.163,811.157,429.564C812.952,431.965,811.929,434.566,813.772,434.173C815.614,433.779,820.323,430.391,823.131,428.943C825.939,427.495,826.846,427.988,827.474,428.92C828.102,429.853,828.45,431.225,829.199,432.099C829.948,432.973,831.097,433.348,832.47,432.382C833.844,431.416,835.441,429.108,836.334,429.511C837.227,429.915,837.415,433.03,837.827,432.96C838.24,432.89,838.876,429.636,841.188,428.478C843.5,427.321,847.489,428.261,849.876,428.417C852.264,428.574,853.051,427.947,854.074,427.778C855.098,427.609,856.358,427.899,856.66,428.064C856.963,428.228,856.307,428.268,856.899,428.181C857.49,428.094,859.329,427.879,859.527,427.952C859.725,428.024,858.281,428.384,860.345,428.076C862.408,427.768,867.978,426.792,869.652,426.485C871.326,426.178,869.104,426.54,870.129,426.993C871.155,427.447,875.428,427.991,880.535,427.509C885.642,427.027,891.584,425.52,894.389,425.335C897.194,425.151,896.863,426.29,897.827,427.102C898.792,427.914,901.052,428.399,903.714,429.329C906.376,430.259,909.439,431.634,911.36,432.369C913.281,433.104,914.059,433.198,915.59,432.426C917.121,431.655,919.404,430.018,920.793,428.804C922.182,427.589,922.677,426.797,922.357,426.857C922.037,426.917,920.902,427.83,923.673,428.445C926.444,429.059,933.121,429.376,936.211,431.08C939.302,432.784,938.807,435.876,940.761,435.558C942.716,435.239,947.121,431.51,949.212,429.904C951.303,428.298,951.08,428.815,950.841,430.361C950.602,431.907,950.348,434.482,952.647,433C954.946,431.518,959.799,425.978,963.513,424.978C967.228,423.979,969.804,427.52,970.301,429.68C970.798,431.84,969.216,432.619,970.434,432.455C971.652,432.292,975.67,431.186,977.386,429.87C979.101,428.553,978.514,427.025,978.524,427.857C978.534,428.69,979.141,431.882,981.255,432.355C983.369,432.828,986.99,430.582,989.628,426.519C992.266,422.456,993.92,416.576,992.802,413.414C991.684,410.252,987.794,409.807,985.605,409.113C983.417,408.419,982.932,407.475,981.645,404.254C980.358,401.032,978.268,395.531,977.322,392.652C976.375,389.772,976.572,389.513,976.866,390.123C977.16,390.732,977.552,392.21,976.505,392.54C975.457,392.871,972.97,392.054,970.448,391.922C967.925,391.79,965.367,392.344,963.442,392.949C961.518,393.553,960.227,394.209,959.39,393.755C958.554,393.301,958.171,391.737,958.738,390.398C959.306,389.06,960.823,387.947,960.093,386.932C959.364,385.917,956.388,384.999,952.231,385.981C948.074,386.964,942.736,389.848,939.245,390.658C935.755,391.467,934.111,390.202,932.886,389.467C931.66,388.732,930.852,388.527,929.154,389.167C927.455,389.808,924.866,391.293,922.519,390.375C920.172,389.456,918.068,386.132,916.566,385.912C915.064,385.692,914.164,388.576,913.189,391.36C912.214,394.145,911.163,396.831,909.012,396.725C906.861,396.62,903.609,393.722,900.634,391.112C897.659,388.502,894.961,386.181,894.663,386.156C894.365,386.131,896.468,388.403,894.955,388.956C893.441,389.509,888.311,388.343,884.451,387.032C880.59,385.72,878,384.263,875.377,384.553C872.754,384.844,870.098,386.881,868.763,388.143C867.427,389.405,867.411,389.891,867.804,390.195C868.196,390.498,868.997,390.619,869.126,391.743C869.255,392.867,868.713,394.994,866.363,394.842C864.013,394.69,859.855,392.258,857.377,390.257C854.899,388.256,854.1,386.685,852.936,387.219C851.772,387.753,850.244,390.394,848.666,391.608C847.089,392.823,845.462,392.612,843.865,392.543C842.268,392.474,840.7,392.548,839.868,392.153C839.036,391.759,838.94,390.898,838.714,392.119C838.489,393.341,838.134,396.645,836.624,395.15C835.113,393.654,832.446,387.358,828.831,385.433C825.217,383.508,820.655,385.954,819.233,386.712C817.812,387.469,819.532,386.538,818.413,386.474C817.293,386.41,813.334,387.213,811.542,387.328C809.75,387.443,810.125,386.87,807.775,386.356C805.424,385.841,800.348,385.386,797.762,386.78C795.175,388.174,795.078,391.416,794.046,391.501C793.014,391.586,791.047,388.514,789.495,388.235C787.944,387.956,786.81,390.469,786.128,390.261C785.446,390.052,785.218,387.121,782.771,386.52C780.324,385.919,775.659,387.647,772.738,388.119C769.816,388.59,768.638,387.805,768.749,387.179C768.86,386.554,770.26,386.089,767.745,387.269C765.229,388.45,758.798,391.275,756.373,393.107C753.949,394.938,755.531,395.775,753.277,395.337C751.023,394.898,744.934,393.184,741.279,391.197C737.624,389.209,736.403,386.949,734.946,386.953C733.49,386.957,731.798,389.226,732.147,390.977C732.496,392.728,734.886,393.959,733.459,393.466C732.032,392.972,726.787,390.753,723.471,390.238C720.155,389.723,718.768,390.913,717.775,391.11C716.782,391.307,716.183,390.512,717.054,389.852C717.925,389.193,720.266,388.67,718.829,388.848C717.392,389.027,712.177,389.907,708.389,390.832C704.601,391.757,702.239,392.728,700.807,392.374C699.376,392.019,698.873,390.34,698.501,391.224C698.13,392.108,697.888,395.557,695.934,395.894C693.98,396.231,690.314,393.457,688.01,391.091C685.705,388.726,684.764,386.768,684.384,386.791C684.005,386.815,684.187,388.819,682.82,391.246C681.453,393.673,678.536,396.524,676.048,396.247C673.56,395.97,671.501,392.565,670.772,390.73C670.044,388.895,670.646,388.629,668.974,388.824C667.302,389.018,663.355,389.674,661.187,389.518C659.018,389.362,658.628,388.395,658.029,388.43C657.431,388.465,656.625,389.502,657.159,390.287C657.692,391.072,659.566,391.605,657.458,391.709C655.35,391.813,649.261,391.487,645.394,391.45C641.528,391.413,639.883,391.664,638.618,390.341C637.352,389.018,636.467,386.12,636.529,385.565C636.591,385.01,637.602,386.797,635.354,387.751C633.106,388.704,627.6,388.824,625.645,388.308C623.689,387.793,625.285,386.641,624.027,386.821C622.769,387.002,618.657,388.514,615.359,388.662C612.061,388.81,609.578,387.593,608.345,387.681C607.112,387.769,607.129,389.163,607.286,390.177C607.442,391.191,607.738,391.825,606.9,391.655C606.061,391.485,604.088,390.509,601.729,390.636C599.37,390.763,596.625,391.993,595.398,392.559C594.17,393.124,594.459,393.026,594.819,391.577C595.178,390.128,595.607,387.327,592.342,387.373C589.076,387.419,582.116,390.312,577.556,391.509C572.995,392.706,570.834,392.207,568.396,392.043C565.958,391.879,563.243,392.05,563.262,392.246C563.282,392.442,566.036,392.663,563.509,392.998C560.981,393.333,553.172,393.782,550.101,393.443C547.03,393.103,548.697,391.976,547.494,391.482C546.291,390.989,542.216,391.131,540.288,390.92C538.359,390.709,538.576,390.144,536.869,388.583C535.162,387.021,531.531,384.463,528.815,384.445C526.1,384.427,524.3,386.949,523.329,388.273C522.359,389.597,522.217,389.722,522.332,390.798C522.448,391.875,522.823,393.903,522.632,394.045C522.441,394.188,521.686,392.444,519.233,391.715C516.78,390.985,512.629,391.27,510.014,390.718C507.4,390.166,506.321,388.777,505.803,388.491C505.285,388.204,505.328,389.021,505.811,389.735C506.295,390.45,507.22,391.063,505.964,391.72C504.708,392.378,501.272,393.08,498.711,393.29C496.149,393.501,494.462,393.22,492.479,394.015C490.496,394.81,488.218,396.681,487.443,397.273C486.667,397.866,487.396,397.179,484.791,396.772C482.186,396.365,476.247,396.237,472.356,394.861C468.464,393.485,466.621,390.861,465.554,389.843C464.487,388.825,464.197,389.412,464.75,390.26C465.304,391.107,466.7,392.215,465.812,391.99C464.925,391.765,461.752,390.208,459.328,389.805C456.904,389.403,455.228,390.156,453.327,390.121C451.427,390.086,449.301,389.263,448.226,389.305C447.151,389.347,447.127,390.254,447.814,390.279C448.501,390.304,449.899,389.448,448.184,390.255C446.47,391.062,441.641,393.533,438.183,393.705C434.726,393.876,432.638,391.748,431.78,391.183C430.922,390.618,431.294,391.617,431.512,390.843C431.731,390.069,431.796,387.524,429.946,386.555C428.097,385.587,424.333,386.197,422.879,387.675C421.426,389.153,422.282,391.501,419.539,391.847C416.795,392.192,410.453,390.536,406.23,389.159C402.007,387.783,399.904,386.685,399.479,385.673C399.054,384.661,400.307,383.734,398.127,384.056C395.948,384.378,390.335,385.949,387.644,387.343C384.953,388.737,385.183,389.956,384.714,390.366C384.245,390.777,383.076,390.38,381.119,389.774C379.162,389.168,376.418,388.352,375.918,387.47C375.417,386.589,377.161,385.642,375.074,386.515C372.987,387.389,367.071,390.082,363.068,391.628C359.065,393.173,356.976,393.569,355.107,392.794C353.238,392.019,351.589,390.072,351.26,390.035C350.93,389.999,351.919,391.874,351.261,391.072C350.603,390.27,348.297,386.792,344.727,385.306C341.157,383.819,336.322,384.324,333.627,385.391C330.933,386.458,330.378,388.088,328.993,389.423C327.607,390.758,325.391,391.798,324.433,392.02C323.474,392.241,323.774,391.644,322.493,389.789C321.212,387.935,318.35,384.824,316.269,383.457C314.187,382.09,312.885,382.468,312.234,382.656L311.583,382.845"></path>
      </svg>
      