<?xml version="1.0" encoding="UTF-8" standalone="no"?>
    <!-- Created with Inkscape (https://labs.original.art.br/draw) -->
    
    <svg
       xmlns:dc="http://purl.org/dc/elements/1.1/"
       xmlns:cc="http://creativecommons.org/ns#"
       xmlns:rdf="http://www.w3.org/1999/02/22-rdf-syntax-ns#"
       xmlns:svg="http://www.w3.org/2000/svg"
       xmlns="http://www.w3.org/2000/svg"
       xmlns:sodipodi="http://sodipodi.sourceforge.net/DTD/sodipodi-0.dtd"
       xmlns:inkscape="http://www.inkscape.org/namespaces/inkscape"
       id="wJFTL"
       version="1.1"
       inkscape:version="0.91 r13725"
       width="undefined"
       height="undefined"
       viewBox="0 0 undefined undefined"
       sodipodi:docname="_paths6.svg">
      <metadata
         id="metadata3404">
        <rdf:RDF>
          <cc:Work
             rdf:about="">
            <dc:format>image/svg+xml</dc:format>
            <dc:type
               rdf:resource="http://purl.org/dc/dcmitype/StillImage" />
            <dc:title></dc:title>
          </cc:Work>
        </rdf:RDF>
      </metadata>
      undefined<path fill="none" stroke-width="1" style="stroke: rgb(0, 71, 171);" d="M6.932,500L6.458,497.069C5.985,494.138,5.037,488.276,7.278,484.14C9.518,480.004,14.947,477.594,17.905,477.339C20.863,477.084,21.35,478.985,22.576,480.007C23.802,481.03,25.767,481.175,27.394,482.079C29.022,482.982,30.312,484.645,31.901,484.797C33.491,484.95,35.379,483.593,37.475,482.315C39.571,481.037,41.874,479.838,43.645,480.431C45.417,481.025,46.657,483.411,48.801,484.106C50.945,484.8,53.993,483.803,55.625,482.808C57.258,481.813,57.474,480.821,58.194,480.928C58.913,481.035,60.136,482.242,60.917,482.677C61.698,483.111,62.036,482.773,64.117,482.1C66.198,481.428,70.02,480.421,71.497,479.42C72.974,478.419,72.105,477.424,73.254,477.736C74.403,478.047,77.57,479.666,78.361,480.874C79.151,482.082,77.566,482.88,79.69,481.708C81.813,480.536,87.645,477.394,91.709,477.158C95.772,476.921,98.067,479.59,99.255,480.571C100.442,481.553,100.521,480.847,100.783,480.527C101.044,480.206,101.487,480.272,102.142,480.159C102.797,480.046,103.665,479.755,104.634,478.214C105.603,476.673,106.672,473.882,108.682,472.522C110.692,471.163,113.641,471.234,116.677,474.281C119.713,477.327,122.836,483.349,126.404,484.717C129.973,486.085,133.989,482.799,137.347,481.387C140.706,479.975,143.407,480.437,144.014,480.21C144.62,479.984,143.131,479.069,143.869,478.195C144.607,477.32,147.573,476.486,149.298,477.03C151.024,477.574,151.51,479.495,153.982,480.809C156.454,482.124,160.912,482.832,162.311,481.414C163.711,479.996,162.051,476.452,163.352,476.118C164.654,475.785,168.915,478.663,171.144,478.792C173.372,478.922,173.567,476.303,174.651,475.535C175.736,474.767,177.71,475.85,179.411,476.943C181.111,478.036,182.539,479.139,186.551,478.937C190.562,478.735,197.157,477.227,201.122,476.527C205.087,475.826,206.421,475.934,208.05,477.038C209.679,478.141,211.603,480.241,212.605,481.816C213.606,483.391,213.685,484.44,214.377,484.126C215.068,483.813,216.371,482.136,217.806,481.218C219.24,480.301,220.806,480.143,223.234,480.186C225.662,480.229,228.953,480.474,230.524,480.466C232.095,480.458,231.945,480.197,232.988,480.013C234.031,479.829,236.267,479.72,237.276,478.895C238.285,478.069,238.067,476.526,238.672,476.713C239.277,476.899,240.704,478.816,241.791,479.547C242.877,480.278,243.623,479.822,245.851,479.867C248.078,479.912,251.788,480.456,253.841,479.95C255.894,479.443,256.291,477.886,257.789,478.542C259.288,479.199,261.887,482.071,263.805,483.642C265.723,485.213,266.959,485.483,268.273,484.62C269.587,483.757,270.98,481.761,271.733,480.833C272.487,479.904,272.602,480.043,272.773,479.56C272.945,479.077,273.174,477.972,273.711,477.497C274.247,477.022,275.091,477.177,276.43,478.837C277.769,480.497,279.604,483.661,281.271,484.065C282.938,484.469,284.437,482.112,285.484,481.242C286.53,480.373,287.125,480.991,287.595,480.376C288.064,479.761,288.408,477.914,290.442,477.647C292.475,477.38,296.197,478.695,299.229,480.266C302.261,481.837,304.602,483.665,305.767,482.992C306.933,482.319,306.923,479.145,306.704,478.914C306.485,478.683,306.057,481.395,308.604,481.394C311.15,481.393,316.671,478.68,320.591,476.975C324.511,475.271,326.829,474.575,328.541,475.312C330.252,476.049,331.357,478.219,332.394,477.671C333.43,477.124,334.398,473.858,335.27,474.444C336.141,475.029,336.915,479.467,340.607,481.597C344.299,483.728,350.909,483.55,354.615,483.438C358.322,483.326,359.125,483.28,359.645,481.362C360.165,479.443,360.402,475.653,362.026,473.727C363.65,471.8,366.66,471.738,369.448,474.066C372.236,476.394,374.801,481.113,376.696,482.479C378.59,483.845,379.813,481.858,381.739,481.307C383.664,480.755,386.292,481.64,388.008,480.673C389.725,479.706,390.529,476.888,392.219,476.797C393.91,476.706,396.486,479.343,397.337,481.436C398.188,483.53,397.313,485.08,397.83,484.208C398.346,483.336,400.254,480.041,401.682,477.959C403.11,475.876,404.059,475.005,408.797,474.803C413.535,474.601,422.063,475.068,426.46,476.54C430.857,478.011,431.123,480.486,432.684,481.323C434.244,482.16,437.099,481.359,437.724,480.604C438.349,479.848,436.744,479.138,437.611,479.051C438.478,478.965,441.816,479.502,443.598,480.067C445.38,480.632,445.607,481.226,444.604,480.71C443.601,480.193,441.369,478.567,443.074,477.208C444.78,475.85,450.423,474.759,454.22,475.037C458.016,475.315,459.965,476.962,460.052,477.397C460.139,477.832,458.363,477.054,458.325,477.426C458.286,477.797,459.985,479.317,463.091,479.739C466.198,480.161,470.713,479.484,475.186,478.409C479.659,477.334,484.089,475.862,486.693,476.049C489.298,476.235,490.076,478.082,491.59,479.871C493.105,481.659,495.356,483.39,496.564,483.686C497.773,483.982,497.938,482.844,498.576,481.849C499.214,480.854,500.325,480.002,500.527,478.806C500.73,477.611,500.024,476.072,501.65,474.841C503.277,473.61,507.236,472.688,509.902,473.339C512.569,473.99,513.943,476.214,517.562,478.368C521.181,480.523,527.044,482.607,531.661,483.463C536.278,484.319,539.649,483.947,540.287,483.783C540.925,483.62,538.83,483.666,539.628,483.665C540.425,483.665,544.115,483.619,548.72,484.058C553.325,484.496,558.845,485.419,561.073,484.009C563.302,482.598,562.238,478.855,563.513,478.474C564.789,478.094,568.402,481.077,570.887,481.878C573.371,482.679,574.726,481.299,576.606,480.725C578.485,480.152,580.888,480.384,582.799,480.326C584.709,480.267,586.127,479.917,586.576,480.441C587.024,480.965,586.503,482.363,587,482.582C587.497,482.801,589.012,481.841,588.803,480.879C588.593,479.917,586.66,478.953,587.328,478.802C587.996,478.651,591.265,479.313,595.293,479.732C599.322,480.151,604.109,480.327,606.648,479.706C609.188,479.084,609.48,477.664,609.518,477.909C609.556,478.154,609.341,480.064,610.43,479.697C611.518,479.33,613.91,476.685,616.137,475.737C618.364,474.789,620.427,475.538,622.268,475.893C624.109,476.248,625.729,476.209,626.812,475.945C627.894,475.681,628.439,475.192,629.236,475.474C630.033,475.755,631.083,476.808,632.84,478.172C634.597,479.536,637.062,481.211,641.103,481.715C645.143,482.22,650.76,481.553,653.872,481.252C656.984,480.95,657.592,481.014,657.292,481.321C656.993,481.628,655.788,482.178,656.665,482.128C657.543,482.079,660.504,481.429,663.318,481.125C666.133,480.821,668.802,480.863,669.859,481.185C670.917,481.508,670.363,482.112,670.989,481.753C671.616,481.395,673.421,480.075,673.647,479.577C673.873,479.079,672.519,479.404,674.805,478.882C677.09,478.36,683.014,476.992,686.732,477.784C690.45,478.575,691.962,481.525,693.153,482.24C694.344,482.955,695.214,481.435,696.924,480.455C698.634,479.474,701.185,479.033,702.314,479.051C703.443,479.068,703.149,479.543,703.352,481.311C703.554,483.079,704.252,486.139,706.381,484.783C708.511,483.426,712.072,477.654,713.518,476.345C714.964,475.036,714.294,478.19,717.508,479.623C720.721,481.057,727.816,480.769,730.982,481.879C734.147,482.989,733.382,485.495,734.597,485.629C735.811,485.763,739.005,483.524,741.179,481.947C743.353,480.371,744.508,479.458,744.922,479.974C745.336,480.491,745.01,482.438,745.106,483.036C745.202,483.634,745.72,482.882,748.524,482.859C751.327,482.837,756.416,483.543,759.216,483.155C762.016,482.766,762.528,481.284,763.184,481.031C763.839,480.779,764.638,481.758,765.486,481.682C766.334,481.606,767.231,480.475,767.101,479.17C766.971,477.864,765.813,476.384,768.514,476.62C771.214,476.856,777.774,478.808,781.514,479.465C785.254,480.122,786.175,479.484,786.861,479.896C787.547,480.308,787.997,481.768,788.801,481.74C789.605,481.713,790.762,480.198,791.907,480.739C793.051,481.28,794.183,483.877,796.153,483.414C798.123,482.952,800.932,479.43,802.372,478.305C803.812,477.18,803.882,478.451,805.23,479.425C806.578,480.399,809.204,481.076,810.109,479.932C811.014,478.788,810.198,475.823,811.488,475.554C812.778,475.284,816.175,477.71,817.03,479.879C817.886,482.047,816.201,483.959,817.495,482.782C818.789,481.605,823.063,477.34,824.988,476.284C826.913,475.227,826.49,477.378,828.185,478.484C829.88,479.59,833.694,479.65,837.766,479.162C841.837,478.674,846.166,477.639,848.788,477.547C851.41,477.455,852.324,478.306,854.319,478.734C856.314,479.163,859.39,479.169,860.713,479.41C862.036,479.651,861.608,480.127,863.027,481.162C864.445,482.197,867.711,483.79,869.614,483.66C871.517,483.53,872.056,481.675,872.841,480.318C873.627,478.96,874.657,478.099,876.937,477.678C879.217,477.257,882.747,477.276,883.989,477.988C885.23,478.699,884.184,480.105,885.065,480.095C885.946,480.086,888.753,478.662,890.452,478.312C892.151,477.961,892.741,478.684,893.94,479.32C895.14,479.956,896.949,480.506,897.696,480.894C898.443,481.283,898.128,481.511,898.416,481.49C898.705,481.469,899.597,481.199,899.448,482.346C899.3,483.494,898.11,486.059,900.187,485.239C902.264,484.419,907.607,480.213,911.33,478.424C915.053,476.635,917.156,477.262,918.987,477.657C920.817,478.053,922.376,478.217,923.619,478.772C924.862,479.327,925.789,480.272,924.853,480.058C923.917,479.844,921.119,478.471,923.727,477.193C926.336,475.915,934.351,474.733,938.964,475.374C943.578,476.015,944.79,478.479,945.458,479.465C946.125,480.451,946.248,479.958,946.648,479.819C947.047,479.679,947.723,479.892,947.258,479.564C946.793,479.236,945.188,478.368,945.179,477.512C945.171,476.655,946.761,475.811,948.981,476.649C951.2,477.486,954.049,480.006,957.904,479.903C961.759,479.801,966.619,477.076,969.743,476.54C972.866,476.005,974.253,477.658,975.667,478.138C977.08,478.619,978.521,477.925,980.454,478.409C982.388,478.892,984.815,480.552,985.32,480.395C985.825,480.238,984.407,478.264,982.678,473.392C980.948,468.521,978.907,460.752,977.326,457.839C975.745,454.927,974.625,456.871,972.937,459.246C971.25,461.62,968.995,464.425,966.948,464.098C964.901,463.771,963.061,460.311,961.305,457.884C959.55,455.457,957.88,454.063,956.028,455.25C954.177,456.438,952.144,460.207,949.752,462.466C947.36,464.726,944.609,465.475,942.947,465.181C941.284,464.887,940.712,463.55,940.994,461.949C941.276,460.348,942.414,458.483,939.602,459.293C936.791,460.102,930.031,463.585,926.328,464.092C922.626,464.599,921.98,462.131,921.669,462.346C921.358,462.562,921.381,465.46,919.524,465.437C917.666,465.413,913.929,462.468,911.997,462.549C910.064,462.63,909.935,465.738,908.229,464.924C906.523,464.11,903.24,459.374,900.382,458.566C897.523,457.757,895.091,460.876,892.751,461.225C890.412,461.573,888.166,459.151,887.531,458.619C886.896,458.086,887.872,459.443,886.066,459.581C884.261,459.719,879.672,458.639,876.546,458.124C873.419,457.609,871.755,457.658,871.687,456.743C871.62,455.827,873.149,453.947,872.967,453.745C872.784,453.542,870.889,455.018,866.934,455.63C862.979,456.243,856.965,455.992,852.145,456.934C847.324,457.876,843.697,460.009,841.912,460.516C840.126,461.023,840.182,459.904,839.383,460.944C838.583,461.984,836.928,465.184,835.811,465.679C834.693,466.174,834.114,463.964,831.943,462.116C829.771,460.267,826.007,458.781,823.761,458.602C821.515,458.423,820.788,459.552,819.411,460.134C818.033,460.717,816.005,460.753,815.75,460.306C815.496,459.859,817.015,458.928,816.178,459.148C815.341,459.367,812.146,460.736,810.152,460.959C808.157,461.183,807.362,460.26,807.112,460.794C806.861,461.328,807.156,463.319,806.245,463.002C805.333,462.686,803.215,460.063,800.076,459.614C796.938,459.165,792.781,460.89,790.743,461.146C788.705,461.402,788.786,460.189,788.429,460.212C788.071,460.234,787.274,461.494,787.075,460.979C786.877,460.465,787.277,458.177,786.507,459.023C785.737,459.869,783.796,463.848,779.717,465.326C775.638,466.804,769.422,465.782,766.393,464.797C763.363,463.812,763.521,462.865,763.078,461.97C762.634,461.075,761.589,460.233,759.75,460.782C757.912,461.331,755.28,463.272,753.086,462.731C750.892,462.191,749.136,459.17,747.351,458.455C745.566,457.74,743.752,459.331,742.514,458.619C741.275,457.907,740.612,454.893,740.838,454.912C741.064,454.931,742.179,457.983,739.032,459.872C735.884,461.761,728.473,462.488,723.061,461.98C717.648,461.472,714.234,459.728,713.152,460.233C712.069,460.738,713.318,463.491,712.059,463.143C710.801,462.795,707.035,459.345,704.869,458.404C702.703,457.463,702.136,459.031,702.338,460.101C702.539,461.172,703.508,461.745,701.252,461.435C698.997,461.125,693.516,459.933,690.939,459.291C688.362,458.65,688.687,458.56,688.039,458.581C687.391,458.602,685.77,458.733,684.784,459.253C683.799,459.773,683.449,460.681,682.277,461.317C681.105,461.953,679.111,462.317,677.801,462.35C676.491,462.384,675.866,462.088,673.916,461.726C671.966,461.363,668.69,460.936,667.493,460.478C666.297,460.021,667.178,459.534,666.614,459.338C666.05,459.141,664.04,459.235,663.367,460.114C662.693,460.993,663.356,462.657,663.602,462.97C663.847,463.284,663.675,462.246,661.376,461.938C659.077,461.63,654.652,462.051,651.657,461.291C648.663,460.531,647.099,458.589,646.018,457.103C644.938,455.618,644.34,454.587,642.838,455.355C641.335,456.123,638.928,458.689,637.837,460.404C636.746,462.12,636.972,462.985,635.864,462.812C634.757,462.639,632.316,461.428,631.491,460.829C630.667,460.231,631.457,460.245,630.8,460.294C630.142,460.343,628.036,460.428,627.093,460.418C626.151,460.408,626.373,460.304,626.14,460.597C625.907,460.89,625.219,461.581,624.951,461.433C624.683,461.284,624.834,460.297,624.798,460.174C624.762,460.051,624.539,460.792,622.998,460.689C621.458,460.587,618.601,459.64,615.764,459.325C612.928,459.009,610.113,459.325,608.924,460.028C607.735,460.731,608.172,461.82,607.782,461.71C607.393,461.6,606.176,460.289,604.718,459.79C603.26,459.29,601.56,459.601,601.732,459.139C601.903,458.677,603.946,457.441,603.943,457.853C603.939,458.264,601.889,460.322,598.211,460.915C594.533,461.508,589.227,460.636,585.881,461.575C582.534,462.514,581.147,465.263,579.742,465.708C578.336,466.153,576.913,464.294,574.858,463.835C572.804,463.377,570.118,464.318,568.38,463.944C566.641,463.57,565.849,461.881,564.676,460.367C563.502,458.853,561.948,457.513,560.556,456.616C559.164,455.718,557.935,455.264,557.764,456.68C557.594,458.095,558.482,461.382,557.129,460.698C555.776,460.015,552.182,455.363,547.771,454.582C543.361,453.802,538.135,456.894,535.885,458.416C533.635,459.937,534.362,459.889,535.531,460.429C536.7,460.969,538.311,462.097,535.582,461.688C532.853,461.278,525.784,459.332,520.853,458.698C515.922,458.063,513.129,458.74,511.898,457.881C510.668,457.021,511.001,454.625,508.634,453.962C506.267,453.298,501.2,454.368,497.639,456.228C494.077,458.087,492.021,460.737,491.812,460.825C491.602,460.914,493.241,458.443,492.593,457.447C491.944,456.451,489.01,456.93,486.661,457.476C484.312,458.022,482.55,458.636,480.004,459.478C477.459,460.32,474.131,461.391,472.278,461.509C470.426,461.627,470.049,460.792,469.66,460.28C469.27,459.768,468.868,459.578,468.154,458.571C467.441,457.564,466.416,455.74,465.931,455.895C465.446,456.051,465.5,458.185,465.032,459.117C464.564,460.048,463.575,459.776,460.752,460.192C457.93,460.609,453.275,461.714,451.011,461.83C448.747,461.946,448.873,461.072,447.686,461.004C446.499,460.937,443.998,461.675,442.56,461.483C441.121,461.292,440.745,460.171,441.56,458.761C442.375,457.351,444.381,455.651,442.725,456.055C441.069,456.458,435.752,458.965,431.762,460.481C427.771,461.997,425.108,462.521,423.561,462.544C422.014,462.568,421.583,462.089,419.986,461.386C418.388,460.682,415.624,459.755,414.793,460.887C413.961,462.019,415.062,465.211,414.28,465.288C413.497,465.365,410.833,462.327,407.178,461.32C403.524,460.312,398.88,461.335,394.821,461.675C390.761,462.015,387.286,461.673,385.29,461.265C383.294,460.858,382.777,460.384,382.828,458.596C382.88,456.807,383.5,453.703,380.703,453.502C377.905,453.3,371.689,456.001,369.053,456.469C366.417,456.938,367.361,455.174,366.816,456.282C366.271,457.39,364.238,461.369,361.435,462.635C358.632,463.901,355.059,462.453,352.837,461.071C350.615,459.689,349.744,458.372,349.055,458.891C348.365,459.411,347.858,461.767,347.242,461.83C346.626,461.894,345.902,459.664,344.317,457.508C342.733,455.352,340.288,453.269,336.922,453.061C333.555,452.853,329.267,454.52,326.925,455.968C324.582,457.416,324.185,458.645,323.66,459.471C323.136,460.298,322.485,460.722,321.388,462.017C320.291,463.313,318.747,465.479,316.517,464.89C314.286,464.3,311.369,460.955,309.844,459.703C308.319,458.45,308.188,459.291,307.582,459.953C306.976,460.614,305.896,461.097,305.574,460.255C305.251,459.413,305.686,457.247,303.262,456.7C300.837,456.153,295.552,457.225,293.763,458.685C291.974,460.145,293.681,461.993,292.569,462.289C291.457,462.586,287.526,461.331,285.067,461.99C282.608,462.65,281.621,465.225,281.363,465.192C281.106,465.158,281.579,462.518,279.267,462.673C276.956,462.828,271.86,465.779,267.386,466.557C262.912,467.335,259.059,465.94,256.795,464.464C254.531,462.989,253.855,461.434,254.846,461.232C255.836,461.03,258.494,462.181,257.852,462.001C257.21,461.82,253.268,460.307,249.338,459.923C245.408,459.538,241.489,460.281,238.597,460.585C235.705,460.888,233.84,460.753,232.386,460.315C230.932,459.877,229.888,459.138,229.283,458.482C228.678,457.827,228.513,457.255,226.411,457.088C224.308,456.921,220.269,457.157,218.264,458.497C216.259,459.837,216.288,462.28,216.112,463.092C215.937,463.905,215.555,463.087,214.344,462.203C213.132,461.32,211.09,460.372,209.105,459.387C207.12,458.401,205.191,457.377,204.392,456.635C203.593,455.893,203.924,455.433,202.001,456.142C200.078,456.85,195.901,458.726,192.611,459.755C189.322,460.783,186.92,460.965,186.943,461.322C186.966,461.679,189.414,462.211,186.786,462.669C184.159,463.126,176.456,463.509,173.726,463.988C170.995,464.467,173.237,465.042,170.571,465.18C167.905,465.318,160.333,465.019,156.597,464.83C152.861,464.641,152.962,464.563,152.815,462.567C152.668,460.571,152.274,456.656,150.166,456.021C148.058,455.385,144.236,458.029,141.184,460.064C138.131,462.099,135.847,463.526,134.771,462.851C133.694,462.175,133.825,459.397,130.897,457.408C127.969,455.419,121.982,454.221,117.612,454.163C113.242,454.105,110.489,455.189,108.94,456.282C107.39,457.376,107.043,458.481,105.665,458.293C104.286,458.105,101.876,456.624,100.732,457.704C99.587,458.784,99.708,462.424,98.508,463.325C97.307,464.226,94.785,462.387,92.577,462.335C90.37,462.282,88.478,464.016,86.835,463.97C85.191,463.924,83.795,462.097,82.007,461.687C80.22,461.276,78.041,462.281,77.193,462.164C76.345,462.046,76.827,460.805,76.634,460.198C76.44,459.591,75.571,459.618,73.6,458.503C71.629,457.387,68.556,455.129,65.986,454.708C63.416,454.287,61.35,455.703,61.416,457.611C61.481,459.518,63.679,461.917,62.21,462.555C60.74,463.194,55.605,462.072,53.967,460.672C52.33,459.272,54.19,457.594,51.912,457.371C49.633,457.149,43.215,458.383,39.495,458.919C35.775,459.454,34.752,459.291,34.395,459.897C34.039,460.504,34.349,461.879,33.38,461.903C32.411,461.928,30.163,460.602,28.986,459.164C27.81,457.727,27.705,456.178,27.778,457.127C27.852,458.075,28.102,461.519,25.105,463.153C22.108,464.786,15.864,464.608,12.061,462.846C8.259,461.084,6.898,457.738,8.049,452.15C9.2,446.563,12.861,438.734,15.464,436.118C18.067,433.503,19.611,436.1,21.251,435.867C22.892,435.634,24.629,432.57,27.607,431.067C30.586,429.563,34.808,429.62,37.914,430.045C41.021,430.471,43.012,431.266,43.86,430.681C44.707,430.096,44.409,428.131,43.998,428.642C43.588,429.154,43.066,432.141,45.329,431.188C47.592,430.235,52.642,425.342,57.9,423.486C63.158,421.63,68.624,422.812,72.098,423.985C75.572,425.159,77.053,426.325,78.366,428.299C79.679,430.273,80.822,433.055,82.02,433.408C83.219,433.761,84.473,431.686,85.277,431.526C86.081,431.366,86.434,433.123,86.942,432.287C87.45,431.452,88.111,428.025,90.314,425.643C92.516,423.261,96.259,421.924,98.868,422.297C101.476,422.669,102.95,424.75,105.449,425.714C107.948,426.678,111.472,426.524,113.785,426.919C116.098,427.313,117.199,428.254,117.217,429.389C117.235,430.523,116.17,431.851,116.066,433.008C115.963,434.164,116.821,435.15,119.46,434.707C122.099,434.264,126.519,432.391,128.57,431.803C130.621,431.215,130.302,431.911,132.097,431.409C133.892,430.906,137.801,429.204,139.885,429.997C141.969,430.79,142.228,434.079,142.123,434.373C142.017,434.667,141.546,431.966,144.956,429.861C148.365,427.755,155.655,426.245,160.134,426.798C164.613,427.352,166.281,429.97,167.3,430.96C168.319,431.949,168.69,431.31,169.168,432.014C169.647,432.717,170.232,434.763,170.791,435.214C171.349,435.665,171.879,434.521,172.621,432.812C173.362,431.103,174.315,428.83,176.993,429.611C179.671,430.393,184.075,434.23,188.006,434.444C191.938,434.658,195.397,431.249,196.357,430.177C197.318,429.106,195.779,430.37,195.653,430.891C195.528,431.412,196.817,431.189,198.625,431.464C200.433,431.74,202.761,432.513,206.048,431.112C209.335,429.711,213.581,426.135,217.906,425.397C222.23,424.658,226.633,426.757,229.736,426.514C232.84,426.272,234.645,423.688,236.16,424.357C237.675,425.027,238.901,428.951,241.283,430.426C243.666,431.902,247.207,430.929,250.301,430.392C253.396,429.856,256.044,429.756,257.847,430.011C259.649,430.265,260.606,430.873,260.391,432.207C260.176,433.542,258.789,435.603,259.798,434.603C260.806,433.603,264.21,429.541,267.636,427.693C271.061,425.845,274.508,426.21,277.438,425.79C280.368,425.371,282.782,424.168,283.904,425.524C285.026,426.881,284.856,430.797,286.138,431.886C287.421,432.975,290.157,431.236,292.13,429.746C294.104,428.256,295.316,427.014,296.702,427.874C298.088,428.734,299.648,431.695,301.456,433.185C303.265,434.674,305.322,434.693,306.149,434.829C306.976,434.965,306.574,435.219,308.375,434.528C310.176,433.837,314.18,432.201,315.605,432.406C317.031,432.61,315.878,434.656,317.152,434.65C318.426,434.645,322.128,432.588,324.733,433.098C327.338,433.607,328.846,436.683,330.914,436.376C332.982,436.068,335.609,432.377,338.417,431.201C341.225,430.025,344.212,431.363,344.777,431.362C345.342,431.36,343.485,430.017,345.605,428.432C347.725,426.846,353.823,425.016,357.311,425.368C360.799,425.72,361.678,428.252,362.055,428.939C362.431,429.626,362.305,428.466,362.42,428.279C362.535,428.092,362.891,428.878,364.6,428.964C366.308,429.051,369.37,428.438,371.288,428.41C373.207,428.382,373.983,428.939,374.397,429.234C374.811,429.53,374.862,429.565,375.606,429.919C376.349,430.273,377.785,430.945,378.194,429.432C378.604,427.918,377.987,424.218,379.719,423.64C381.45,423.061,385.529,425.604,387.928,427.263C390.326,428.923,391.043,429.699,391.448,430.005C391.854,430.311,391.948,430.147,391.853,430.351C391.758,430.555,391.475,431.126,390.639,430.873C389.803,430.62,388.414,429.543,388.917,428.907C389.42,428.272,391.816,428.078,395.359,428.87C398.901,429.662,403.59,431.44,405.198,431.141C406.806,430.843,405.334,428.468,406.874,427.753C408.414,427.037,412.966,427.982,414.476,428.82C415.986,429.658,414.452,430.389,417.805,430.142C421.158,429.895,429.396,428.669,434.26,429.878C439.124,431.087,440.613,434.731,442.034,434.303C443.456,433.875,444.81,429.376,446.517,426.563C448.223,423.75,450.282,422.624,451.358,422.983C452.434,423.343,452.528,425.188,455.524,426.398C458.521,427.607,464.42,428.181,466.401,429.378C468.383,430.576,466.445,432.396,468.291,432.706C470.137,433.017,475.765,431.817,479.214,430.081C482.663,428.345,483.931,426.072,485.09,425.938C486.249,425.804,487.299,427.808,488.601,429.066C489.904,430.324,491.46,430.837,491.685,429.414C491.911,427.991,490.806,424.633,490.826,424.574C490.846,424.516,491.992,427.757,495.57,428.838C499.147,429.919,505.156,428.84,508.27,430.219C511.383,431.599,511.6,435.437,513.856,435.464C516.112,435.491,520.405,431.706,521.634,431.127C522.864,430.548,521.028,433.173,523.023,433.529C525.017,433.885,530.84,431.972,533.974,429.676C537.107,427.379,537.55,424.701,538.667,424.133C539.784,423.564,541.575,425.106,543.362,426.395C545.148,427.683,546.931,428.718,548.023,430.225C549.115,431.731,549.516,433.709,551.153,434.224C552.789,434.738,555.661,433.789,557.152,433.26C558.642,432.731,558.752,432.623,559.278,433.549C559.803,434.475,560.745,436.437,562.596,434.721C564.447,433.005,567.207,427.612,569.891,426.144C572.576,424.675,575.186,427.132,576.665,428.379C578.144,429.626,578.493,429.664,578.462,429.855C578.431,430.046,578.02,430.39,578.861,430.372C579.701,430.353,581.793,429.972,581.944,430.871C582.096,431.77,580.307,433.949,582.281,433.884C584.255,433.819,589.99,431.509,594.09,430.917C598.189,430.325,600.651,431.451,602.145,430.246C603.639,429.04,604.163,425.504,605.665,425.244C607.168,424.984,609.648,428,611.251,429.665C612.855,431.33,613.581,431.644,613.265,432.067C612.948,432.49,611.588,433.021,611.279,432.579C610.97,432.136,611.712,430.72,614.367,430.11C617.022,429.5,621.589,429.695,624.044,429.071C626.498,428.447,626.839,427.004,629.799,426.708C632.76,426.413,638.34,427.265,641.406,427.949C644.472,428.633,645.023,429.15,644.716,429.435C644.409,429.721,643.244,429.775,643.877,429.761C644.509,429.746,646.939,429.663,648.14,429.556C649.341,429.449,649.314,429.319,649.155,429.491C648.996,429.664,648.706,430.139,650.166,429.461C651.627,428.782,654.837,426.951,657.941,426.299C661.045,425.646,664.043,426.173,665.333,427.335C666.623,428.498,666.206,430.297,666.879,432.335C667.553,434.374,669.318,436.654,672.278,437.462C675.238,438.271,679.394,437.609,683.709,436.461C688.023,435.312,692.495,433.678,694.561,431.744C696.626,429.81,696.286,427.576,697.088,426.335C697.89,425.094,699.834,424.846,700.351,424.862C700.867,424.877,699.957,425.157,702.053,426.072C704.149,426.988,709.252,428.54,712.295,430.006C715.338,431.473,716.321,432.853,717.096,433.355C717.87,433.857,718.436,433.48,721.56,431.457C724.683,429.433,730.363,425.762,733.005,425.954C735.647,426.145,735.251,430.199,737.769,431.922C740.288,433.646,745.722,433.038,748.165,430.904C750.609,428.77,750.063,425.109,751.752,425.759C753.441,426.409,757.365,431.37,761.927,432.713C766.489,434.056,771.69,431.781,773.742,431.808C775.795,431.835,774.699,434.163,774.84,434.003C774.981,433.844,776.359,431.196,778.476,430.594C780.594,429.993,783.45,431.437,785.15,432.128C786.849,432.82,787.391,432.76,789.696,431.073C792.001,429.387,796.069,426.075,800.409,425.519C804.749,424.963,809.363,427.163,811.157,429.564C812.952,431.965,811.929,434.566,813.772,434.173C815.614,433.779,820.323,430.391,823.131,428.943C825.939,427.495,826.846,427.988,827.474,428.92C828.102,429.853,828.45,431.225,829.199,432.099C829.948,432.973,831.097,433.348,832.47,432.382C833.844,431.416,835.441,429.108,836.334,429.511C837.227,429.915,837.415,433.03,837.827,432.96C838.24,432.89,838.876,429.636,841.188,428.478C843.5,427.321,847.489,428.261,849.876,428.417C852.264,428.574,853.051,427.947,854.074,427.778C855.098,427.609,856.358,427.899,856.66,428.064C856.963,428.228,856.307,428.268,856.899,428.181C857.49,428.094,859.329,427.879,859.527,427.952C859.725,428.024,858.281,428.384,860.345,428.076C862.408,427.768,867.978,426.792,869.652,426.485C871.326,426.178,869.104,426.54,870.129,426.993C871.155,427.447,875.428,427.991,880.535,427.509C885.642,427.027,891.584,425.52,894.389,425.335C897.194,425.151,896.863,426.29,897.827,427.102C898.792,427.914,901.052,428.399,903.714,429.329C906.376,430.259,909.439,431.634,911.36,432.369C913.281,433.104,914.059,433.198,915.59,432.426C917.121,431.655,919.404,430.018,920.793,428.804C922.182,427.589,922.677,426.797,922.357,426.857C922.037,426.917,920.902,427.83,923.673,428.445C926.444,429.059,933.121,429.376,936.211,431.08C939.302,432.784,938.807,435.876,940.761,435.558C942.716,435.239,947.121,431.51,949.212,429.904C951.303,428.298,951.08,428.815,950.841,430.361C950.602,431.907,950.348,434.482,952.647,433C954.946,431.518,959.799,425.978,963.513,424.978C967.228,423.979,969.804,427.52,970.301,429.68C970.798,431.84,969.216,432.619,970.434,432.455C971.652,432.292,975.67,431.186,977.386,429.87C979.101,428.553,978.514,427.025,978.524,427.857C978.534,428.69,979.141,431.882,981.255,432.355C983.369,432.828,986.99,430.582,989.628,426.519C992.266,422.456,993.92,416.576,992.802,413.414C991.684,410.252,987.794,409.807,985.605,409.113C983.417,408.419,982.932,407.475,981.645,404.254C980.358,401.032,978.268,395.531,977.322,392.652C976.375,389.772,976.572,389.513,976.866,390.123C977.16,390.732,977.552,392.21,976.505,392.54C975.457,392.871,972.97,392.054,970.448,391.922C967.925,391.79,965.367,392.344,963.442,392.949C961.518,393.553,960.227,394.209,959.39,393.755C958.554,393.301,958.171,391.737,958.738,390.398C959.306,389.06,960.823,387.947,960.093,386.932C959.364,385.917,956.388,384.999,952.231,385.981C948.074,386.964,942.736,389.848,939.245,390.658C935.755,391.467,934.111,390.202,932.886,389.467C931.66,388.732,930.852,388.527,929.154,389.167C927.455,389.808,924.866,391.293,922.519,390.375C920.172,389.456,918.068,386.132,916.566,385.912C915.064,385.692,914.164,388.576,913.189,391.36C912.214,394.145,911.163,396.831,909.012,396.725C906.861,396.62,903.609,393.722,900.634,391.112C897.659,388.502,894.961,386.181,894.663,386.156C894.365,386.131,896.468,388.403,894.955,388.956C893.441,389.509,888.311,388.343,884.451,387.032C880.59,385.72,878,384.263,875.377,384.553C872.754,384.844,870.098,386.881,868.763,388.143C867.427,389.405,867.411,389.891,867.804,390.195C868.196,390.498,868.997,390.619,869.126,391.743C869.255,392.867,868.713,394.994,866.363,394.842C864.013,394.69,859.855,392.258,857.377,390.257C854.899,388.256,854.1,386.685,852.936,387.219C851.772,387.753,850.244,390.394,848.666,391.608C847.089,392.823,845.462,392.612,843.865,392.543C842.268,392.474,840.7,392.548,839.868,392.153C839.036,391.759,838.94,390.898,838.714,392.119C838.489,393.341,838.134,396.645,836.624,395.15C835.113,393.654,832.446,387.358,828.831,385.433C825.217,383.508,820.655,385.954,819.233,386.712C817.812,387.469,819.532,386.538,818.413,386.474C817.293,386.41,813.334,387.213,811.542,387.328C809.75,387.443,810.125,386.87,807.775,386.356C805.424,385.841,800.348,385.386,797.762,386.78C795.175,388.174,795.078,391.416,794.046,391.501C793.014,391.586,791.047,388.514,789.495,388.235C787.944,387.956,786.81,390.469,786.128,390.261C785.446,390.052,785.218,387.121,782.771,386.52C780.324,385.919,775.659,387.647,772.738,388.119C769.816,388.59,768.638,387.805,768.749,387.179C768.86,386.554,770.26,386.089,767.745,387.269C765.229,388.45,758.798,391.275,756.373,393.107C753.949,394.938,755.531,395.775,753.277,395.337C751.023,394.898,744.934,393.184,741.279,391.197C737.624,389.209,736.403,386.949,734.946,386.953C733.49,386.957,731.798,389.226,732.147,390.977C732.496,392.728,734.886,393.959,733.459,393.466C732.032,392.972,726.787,390.753,723.471,390.238C720.155,389.723,718.768,390.913,717.775,391.11C716.782,391.307,716.183,390.512,717.054,389.852C717.925,389.193,720.266,388.67,718.829,388.848C717.392,389.027,712.177,389.907,708.389,390.832C704.601,391.757,702.239,392.728,700.807,392.374C699.376,392.019,698.873,390.34,698.501,391.224C698.13,392.108,697.888,395.557,695.934,395.894C693.98,396.231,690.314,393.457,688.01,391.091C685.705,388.726,684.764,386.768,684.384,386.791C684.005,386.815,684.187,388.819,682.82,391.246C681.453,393.673,678.536,396.524,676.048,396.247C673.56,395.97,671.501,392.565,670.772,390.73C670.044,388.895,670.646,388.629,668.974,388.824C667.302,389.018,663.355,389.674,661.187,389.518C659.018,389.362,658.628,388.395,658.029,388.43C657.431,388.465,656.625,389.502,657.159,390.287C657.692,391.072,659.566,391.605,657.458,391.709C655.35,391.813,649.261,391.487,645.394,391.45C641.528,391.413,639.883,391.664,638.618,390.341C637.352,389.018,636.467,386.12,636.529,385.565C636.591,385.01,637.602,386.797,635.354,387.751C633.106,388.704,627.6,388.824,625.645,388.308C623.689,387.793,625.285,386.641,624.027,386.821C622.769,387.002,618.657,388.514,615.359,388.662C612.061,388.81,609.578,387.593,608.345,387.681C607.112,387.769,607.129,389.163,607.286,390.177C607.442,391.191,607.738,391.825,606.9,391.655C606.061,391.485,604.088,390.509,601.729,390.636C599.37,390.763,596.625,391.993,595.398,392.559C594.17,393.124,594.459,393.026,594.819,391.577C595.178,390.128,595.607,387.327,592.342,387.373C589.076,387.419,582.116,390.312,577.556,391.509C572.995,392.706,570.834,392.207,568.396,392.043C565.958,391.879,563.243,392.05,563.262,392.246C563.282,392.442,566.036,392.663,563.509,392.998C560.981,393.333,553.172,393.782,550.101,393.443C547.03,393.103,548.697,391.976,547.494,391.482C546.291,390.989,542.216,391.131,540.288,390.92C538.359,390.709,538.576,390.144,536.869,388.583C535.162,387.021,531.531,384.463,528.815,384.445C526.1,384.427,524.3,386.949,523.329,388.273C522.359,389.597,522.217,389.722,522.332,390.798C522.448,391.875,522.823,393.903,522.632,394.045C522.441,394.188,521.686,392.444,519.233,391.715C516.78,390.985,512.629,391.27,510.014,390.718C507.4,390.166,506.321,388.777,505.803,388.491C505.285,388.204,505.328,389.021,505.811,389.735C506.295,390.45,507.22,391.063,505.964,391.72C504.708,392.378,501.272,393.08,498.711,393.29C496.149,393.501,494.462,393.22,492.479,394.015C490.496,394.81,488.218,396.681,487.443,397.273C486.667,397.866,487.396,397.179,484.791,396.772C482.186,396.365,476.247,396.237,472.356,394.861C468.464,393.485,466.621,390.861,465.554,389.843C464.487,388.825,464.197,389.412,464.75,390.26C465.304,391.107,466.7,392.215,465.812,391.99C464.925,391.765,461.752,390.208,459.328,389.805C456.904,389.403,455.228,390.156,453.327,390.121C451.427,390.086,449.301,389.263,448.226,389.305C447.151,389.347,447.127,390.254,447.814,390.279C448.501,390.304,449.899,389.448,448.184,390.255C446.47,391.062,441.641,393.533,438.183,393.705C434.726,393.876,432.638,391.748,431.78,391.183C430.922,390.618,431.294,391.617,431.512,390.843C431.731,390.069,431.796,387.524,429.946,386.555C428.097,385.587,424.333,386.197,422.879,387.675C421.426,389.153,422.282,391.501,419.539,391.847C416.795,392.192,410.453,390.536,406.23,389.159C402.007,387.783,399.904,386.685,399.479,385.673C399.054,384.661,400.307,383.734,398.127,384.056C395.948,384.378,390.335,385.949,387.644,387.343C384.953,388.737,385.183,389.956,384.714,390.366C384.245,390.777,383.076,390.38,381.119,389.774C379.162,389.168,376.418,388.352,375.918,387.47C375.417,386.589,377.161,385.642,375.074,386.515C372.987,387.389,367.071,390.082,363.068,391.628C359.065,393.173,356.976,393.569,355.107,392.794C353.238,392.019,351.589,390.072,351.26,390.035C350.93,389.999,351.919,391.874,351.261,391.072C350.603,390.27,348.297,386.792,344.727,385.306C341.157,383.819,336.322,384.324,333.627,385.391C330.933,386.458,330.378,388.088,328.993,389.423C327.607,390.758,325.391,391.798,324.433,392.02C323.474,392.241,323.774,391.644,322.493,389.789C321.212,387.935,318.35,384.824,316.269,383.457C314.187,382.09,312.885,382.468,312.234,382.656L311.583,382.845"></path><path fill="none" stroke-width="1" style="stroke: rgb(0, 71, 171);" d="M3.246,500L2.981,498.47C2.717,496.94,2.187,493.879,1.657,490.073C1.127,486.267,0.598,481.715,1.651,477.068C2.704,472.421,5.341,467.679,8.353,465.168C11.365,462.656,14.752,462.376,17.436,460.905C20.119,459.433,22.1,456.771,23.564,454.823C25.027,452.875,25.975,451.642,26.068,452.339C26.16,453.037,25.398,455.665,25.888,456.557C26.378,457.448,28.121,456.604,32.125,455.825C36.13,455.045,42.396,454.33,46.667,452.031C50.939,449.731,53.215,445.846,55.195,445.511C57.175,445.177,58.86,448.392,59.689,449.757C60.519,451.121,60.494,450.634,60.814,450.349C61.135,450.063,61.801,449.978,61.205,450.49C60.608,451.002,58.749,452.11,59.948,452.23C61.147,452.349,65.404,451.48,68.736,450.794C72.069,450.108,74.478,449.605,76.708,448.587C78.938,447.569,80.99,446.036,82.527,446.18C84.063,446.324,85.086,448.146,84.512,448.715C83.939,449.285,81.77,448.602,82.153,449.399C82.537,450.197,85.473,452.476,88.691,453.675C91.91,454.874,95.411,454.994,97.866,454.152C100.321,453.311,101.729,451.508,102.578,450.767C103.426,450.027,103.714,450.349,103.861,449.044C104.008,447.739,104.013,444.806,107.352,444.325C110.69,443.843,117.363,445.812,121.739,446.102C126.114,446.392,128.192,445.004,130.02,445.32C131.847,445.637,133.423,447.659,134.216,448.58C135.009,449.502,135.02,449.322,135.799,448.579C136.577,447.836,138.125,446.529,139.881,446.168C141.638,445.806,143.604,446.39,144.504,446.93C145.403,447.469,145.236,447.965,145.278,448.642C145.321,449.319,145.573,450.178,147.022,450.497C148.471,450.816,151.117,450.597,152.156,450.518C153.195,450.439,152.627,450.502,153.089,451.374C153.552,452.245,155.043,453.927,156.724,452.918C158.405,451.91,160.275,448.211,161.922,447.522C163.569,446.833,164.995,449.155,165.716,449.584C166.437,450.014,166.455,448.553,166.524,448.944C166.593,449.335,166.713,451.58,167.364,451.368C168.014,451.156,169.196,448.487,173.597,449.147C177.999,449.807,185.621,453.794,189.441,454.688C193.26,455.582,193.277,453.382,194.573,452.026C195.868,450.669,198.442,450.157,200.048,449.683C201.655,449.21,202.294,448.775,203.146,448.072C203.998,447.37,205.064,446.4,206.867,447.934C208.671,449.469,211.213,453.509,213.504,455.074C215.794,456.639,217.834,455.729,219.237,454.196C220.641,452.662,221.408,450.506,222.43,449.304C223.453,448.102,224.73,447.854,224.116,447.732C223.503,447.61,220.998,447.613,223.052,446.457C225.105,445.301,231.717,442.984,235.967,442.893C240.217,442.802,242.104,444.935,244.828,445.861C247.552,446.787,251.114,446.506,253.154,447.14C255.195,447.774,255.715,449.323,255.818,450.213C255.92,451.102,255.605,451.331,256.218,450.766C256.832,450.2,258.374,448.838,259.206,448.316C260.038,447.793,260.16,448.109,259.512,448.775C258.865,449.441,257.448,450.457,259.105,450.726C260.762,450.994,265.491,450.516,267.694,449.959C269.896,449.403,269.571,448.768,270.634,447.615C271.696,446.461,274.148,444.789,277.304,445.583C280.46,446.376,284.322,449.635,287.034,451.037C289.746,452.44,291.308,451.985,291.429,452.032C291.55,452.079,290.23,452.628,291.024,452.176C291.818,451.725,294.724,450.273,296.729,450.138C298.733,450.004,299.835,451.186,300.255,451.501C300.675,451.816,300.413,451.264,301.29,450.734C302.167,450.205,304.183,449.697,305.768,449.332C307.353,448.967,308.506,448.744,309.353,448.143C310.199,447.542,310.738,446.562,312.137,447.532C313.536,448.502,315.795,451.423,317.387,451.199C318.98,450.975,319.906,447.607,321.541,446.957C323.176,446.308,325.52,448.377,327.396,449.186C329.272,449.994,330.68,449.541,330.069,450.103C329.458,450.664,326.827,452.239,327.231,452.63C327.636,453.02,331.075,452.227,334.243,451C337.412,449.774,340.308,448.113,342.745,449.256C345.182,450.399,347.158,454.344,348.929,455.232C350.7,456.119,352.265,453.948,356.186,452.825C360.108,451.702,366.386,451.627,369.928,451.489C373.469,451.35,374.273,451.148,373.541,451.242C372.808,451.336,370.539,451.726,371.023,451.438C371.507,451.15,374.744,450.184,379.077,450.139C383.409,450.095,388.837,450.971,390.449,450.904C392.061,450.838,389.856,449.828,391.649,450.174C393.442,450.52,399.233,452.221,401.266,453.021C403.299,453.822,401.574,453.722,404.074,452.617C406.575,451.512,413.3,449.402,417.956,447.821C422.612,446.241,425.198,445.19,427.043,445.677C428.888,446.165,429.992,448.19,430.537,448.282C431.082,448.373,431.068,446.531,432.461,445.968C433.854,445.404,436.654,446.119,438.13,447.327C439.607,448.536,439.76,450.238,439.984,452.033C440.208,453.828,440.504,455.717,443.173,455.64C445.843,455.562,450.887,453.519,454.555,451.377C458.222,449.235,460.513,446.995,461.614,447.76C462.716,448.526,462.629,452.296,463.568,452.807C464.507,453.318,466.471,450.57,468.805,449.81C471.139,449.05,473.842,450.278,475.314,450.415C476.787,450.552,477.027,449.598,476.246,448.876C475.465,448.155,473.661,447.664,475.523,447.674C477.384,447.684,482.91,448.195,486.177,447.901C489.445,447.608,490.454,446.512,491.349,447.019C492.245,447.526,493.028,449.637,494.177,451.107C495.326,452.577,496.841,453.407,497.25,451.968C497.658,450.528,496.96,446.819,498.658,445.759C500.357,444.698,504.453,446.286,506.221,447.127C507.989,447.968,507.429,448.063,508.287,448.393C509.146,448.724,511.423,449.292,513.147,449.508C514.872,449.725,516.044,449.592,516.794,449.594C517.545,449.596,517.874,449.733,518.316,449.728C518.758,449.722,519.312,449.572,519.655,449.916C519.999,450.26,520.131,451.098,520.052,450.369C519.972,449.641,519.681,447.346,520.26,447.833C520.839,448.32,522.286,451.59,524.968,452.321C527.651,453.052,531.567,451.245,533.477,450.395C535.388,449.546,535.293,449.655,536.075,450.318C536.857,450.981,538.516,452.198,539.721,452.664C540.926,453.129,541.677,452.843,543.777,452.823C545.876,452.802,549.323,453.048,551.188,452.591C553.053,452.134,553.335,450.975,553.2,449.142C553.064,447.31,552.51,444.805,554.252,444.222C555.994,443.639,560.033,444.978,562.33,446.095C564.627,447.212,565.182,448.108,566.131,448.515C567.08,448.922,568.423,448.841,569.512,448.424C570.6,448.007,571.434,447.254,571.165,448.45C570.896,449.646,569.524,452.791,570.969,454.149C572.414,455.506,576.677,455.076,579.516,454.269C582.354,453.462,583.768,452.278,583.89,451.659C584.012,451.04,582.843,450.985,585.644,451.554C588.445,452.122,595.216,453.313,598.991,453.725C602.767,454.137,603.547,453.771,605.597,453.081C607.648,452.391,610.969,451.378,612.596,451.285C614.223,451.191,614.154,452.018,615.154,450.95C616.154,449.882,618.221,446.919,619.909,446.425C621.597,445.931,622.904,447.907,623.63,447.799C624.355,447.691,624.498,445.5,625.207,444.574C625.917,443.649,627.193,443.988,629.386,444.875C631.578,445.761,634.686,447.194,636.131,448.486C637.577,449.777,637.36,450.927,639.056,450.103C640.751,449.28,644.359,446.482,646.388,445.951C648.418,445.42,648.869,447.155,649.565,448.204C650.261,449.252,651.201,449.613,650.033,449.555C648.865,449.496,645.589,449.017,648.575,448.83C651.561,448.643,660.809,448.746,666.666,448.099C672.524,447.451,674.99,446.052,675.897,447.425C676.804,448.797,676.152,452.942,677.946,453.855C679.741,454.769,683.983,452.451,685.826,450.9C687.669,449.348,687.114,448.563,686.316,447.758C685.518,446.952,684.477,446.126,686.744,447.869C689.011,449.612,694.586,453.924,699.619,455.363C704.653,456.802,709.146,455.368,713.02,454C716.893,452.631,720.148,451.326,722.294,451.557C724.44,451.787,725.477,453.552,726.499,453.838C727.521,454.123,728.528,452.93,729.523,452.59C730.518,452.25,731.501,452.765,731.377,453.21C731.253,453.655,730.022,454.031,731.564,452.887C733.107,451.742,737.423,449.077,739.861,447.017C742.299,444.958,742.858,443.504,743.953,444.762C745.048,446.019,746.679,449.987,748.564,451.325C750.449,452.662,752.587,451.369,756.967,451.55C761.346,451.731,767.966,453.387,772.195,453.095C776.424,452.802,778.263,450.562,778.756,448.99C779.25,447.419,778.399,446.515,779.743,448.171C781.087,449.827,784.627,454.043,787.49,454.765C790.354,455.488,792.542,452.718,792.993,451.292C793.444,449.866,792.157,449.785,793.186,450.03C794.216,450.276,797.562,450.849,799.122,450.765C800.681,450.68,800.454,449.939,799.946,449.476C799.438,449.012,798.65,448.827,799.763,449.076C800.876,449.324,803.891,450.008,806.337,451.247C808.782,452.486,810.659,454.28,812.416,454.585C814.173,454.889,815.811,453.704,815.574,452.904C815.337,452.104,813.226,451.69,815.371,452.095C817.516,452.5,823.917,453.724,826.516,454.583C829.116,455.442,827.913,455.935,828.932,454.841C829.951,453.747,833.191,451.066,836.534,451.639C839.876,452.213,843.319,456.04,846.981,455.241C850.642,454.441,854.52,449.014,855.887,447.943C857.254,446.871,856.11,450.157,858.514,451.127C860.919,452.097,866.873,450.753,869.45,449.405C872.027,448.056,871.226,446.704,872.588,447.031C873.951,447.358,877.477,449.364,880.182,449.203C882.887,449.043,884.772,446.716,885.032,446.172C885.292,445.628,883.927,446.867,885.63,447.588C887.333,448.309,892.103,448.512,894.901,448.463C897.698,448.414,898.523,448.113,899.105,448.325C899.686,448.536,900.025,449.261,900.204,449.025C900.383,448.789,900.403,447.592,901.037,446.742C901.671,445.891,902.919,445.387,904.492,446.192C906.065,446.998,907.964,449.113,909.527,449.937C911.091,450.761,912.319,450.293,912.949,450.123C913.578,449.953,913.609,450.08,913.619,449.266C913.629,448.451,913.618,446.696,915.653,447.183C917.687,447.67,921.766,450.399,924.537,449.929C927.308,449.459,928.771,445.79,930.169,445.259C931.566,444.728,932.899,447.337,935.451,448.845C938.004,450.354,941.776,450.762,942.764,451.233C943.751,451.704,941.954,452.239,943.147,452.261C944.34,452.284,948.524,451.795,950.136,452.541C951.748,453.287,950.789,455.268,952.261,454.009C953.734,452.749,957.637,448.25,960.527,447.009C963.416,445.769,965.292,447.787,965.117,448.624C964.943,449.46,962.72,449.116,964.294,449.156C965.867,449.195,971.238,449.62,974.893,449.008C978.547,448.396,980.485,446.748,980.95,445.175C981.415,443.602,980.407,442.104,980.325,441.883C980.243,441.662,981.088,442.719,980.822,440.12C980.556,437.522,979.181,431.268,978.524,428.642C977.868,426.015,977.931,427.016,974.343,428.043C970.756,429.071,963.517,430.126,960.072,430.146C956.627,430.167,956.974,429.154,957.209,429.097C957.443,429.04,957.563,429.94,957.414,429.201C957.264,428.461,956.844,426.083,954.064,426.196C951.285,426.31,946.146,428.914,942.84,430.875C939.533,432.836,938.058,434.153,936.074,433.782C934.09,433.412,931.596,431.354,930.395,430.523C929.193,429.692,929.283,430.088,928.929,431.622C928.575,433.157,927.777,435.829,925.582,435.478C923.387,435.127,919.796,431.753,916.507,429.907C913.218,428.062,910.232,427.745,907.704,427.044C905.176,426.344,903.106,425.259,901.081,425.852C899.055,426.445,897.074,428.717,895.682,428.168C894.291,427.618,893.488,424.248,892.703,425.391C891.917,426.534,891.149,432.19,889.381,433.486C887.613,434.782,884.845,431.718,881.221,430.745C877.596,429.772,873.115,430.889,870.655,431.294C868.195,431.698,867.757,431.39,867.096,430.406C866.435,429.423,865.552,427.765,865.522,426.639C865.492,425.512,866.315,424.918,865.112,425.155C863.909,425.391,860.679,426.459,858.308,427.98C855.937,429.501,854.424,431.476,852.481,431.207C850.537,430.938,848.163,428.426,846.227,428.595C844.291,428.764,842.792,431.615,840.163,431.881C837.534,432.146,833.774,429.826,832.125,428.672C830.476,427.518,830.938,427.53,829.682,427.839C828.426,428.148,825.453,428.754,824.196,429.145C822.94,429.537,823.401,429.715,823.1,430.53C822.798,431.346,821.734,432.799,820.519,432.472C819.304,432.145,817.938,430.037,816.436,429.328C814.933,428.618,813.294,429.308,812.585,428.335C811.875,427.362,812.096,424.727,809.822,423.831C807.549,422.935,802.782,423.778,799.744,424.824C796.707,425.87,795.4,427.117,793.406,427.115C791.413,427.112,788.734,425.859,786.787,426.266C784.84,426.673,783.625,428.741,782.528,429.227C781.43,429.713,780.45,428.617,779.952,428.227C779.454,427.836,779.439,428.15,780.05,428.133C780.66,428.115,781.895,427.765,780.294,427.945C778.694,428.124,774.258,428.833,773.46,428.96C772.662,429.086,775.503,428.631,773.902,428.623C772.302,428.616,766.26,429.056,763.249,429.284C760.238,429.512,760.259,429.527,761.022,429.237C761.786,428.948,763.293,428.354,761.619,427.784C759.945,427.214,755.089,426.669,752.708,428.141C750.326,429.614,750.418,433.105,748.78,433.947C747.143,434.788,743.775,432.98,740.938,431.597C738.1,430.214,735.793,429.255,734.535,429.124C733.277,428.993,733.068,429.69,734.6,429.926C736.132,430.163,739.404,429.939,737.687,429.856C735.97,429.774,729.264,429.833,726.678,429.065C724.091,428.298,725.624,426.703,724.189,426.498C722.754,426.294,718.351,427.479,716.307,427.019C714.264,426.56,714.581,424.455,714.157,424.515C713.733,424.574,712.568,426.798,710.058,428.203C707.548,429.609,703.691,430.196,701.816,430.151C699.94,430.106,700.046,429.429,701.098,430.132C702.151,430.835,704.15,432.918,703.522,433.314C702.893,433.71,699.636,432.419,695.035,431.495C690.433,430.571,684.487,430.013,682.119,430.989C679.75,431.964,680.96,434.472,679.348,433.519C677.736,432.566,673.302,428.152,671.108,426.947C668.914,425.743,668.961,427.749,666.511,428.775C664.061,429.8,659.115,429.845,656.254,430.055C653.393,430.266,652.617,430.641,652.767,431.975C652.917,433.308,653.993,435.598,652.286,435.865C650.579,436.132,646.088,434.376,642.92,432.119C639.752,429.863,637.908,427.106,635.648,426.24C633.389,425.375,630.714,426.401,629.235,427.31C627.755,428.22,627.471,429.013,627.305,429.576C627.139,430.139,627.092,430.473,626.575,431.639C626.059,432.806,625.074,434.805,623.33,434.749C621.586,434.692,619.083,432.579,616.323,431.301C613.563,430.023,610.546,429.579,609.294,429.365C608.042,429.152,608.555,429.168,608.165,429.636C607.776,430.103,606.484,431.021,605.918,431.523C605.351,432.024,605.508,432.11,604.702,432.103C603.895,432.096,602.125,431.995,599.797,431.637C597.469,431.28,594.584,430.664,592.629,431.387C590.674,432.109,589.65,434.17,587.423,434.234C585.197,434.298,581.768,432.366,579.845,430.496C577.921,428.625,577.503,426.817,576.699,426.574C575.895,426.33,574.704,427.651,574.116,428.827C573.527,430.003,573.541,431.033,572.559,431.519C571.576,432.005,569.596,431.946,569.731,431.225C569.867,430.505,572.117,429.122,571.985,428.843C571.852,428.564,569.337,429.389,566.465,428.648C563.594,427.907,560.366,425.6,554.978,425.457C549.589,425.313,542.039,427.334,539.675,428.038C537.311,428.742,540.133,428.129,538.404,426.805C536.676,425.482,530.397,423.448,526.135,423.665C521.874,423.882,519.63,426.349,518.379,428.463C517.128,430.577,516.87,432.338,515.652,432.406C514.434,432.473,512.255,430.847,511.909,429.306C511.563,427.765,513.05,426.31,512.013,426.315C510.976,426.32,507.416,427.785,504.731,428.119C502.047,428.453,500.237,427.654,498.592,426.924C496.947,426.195,495.466,425.534,494.384,426.177C493.303,426.82,492.62,428.765,491.959,429.641C491.297,430.517,490.657,430.323,489.818,430.036C488.979,429.749,487.941,429.368,487.473,429.365C487.005,429.363,487.106,429.738,487.442,429.656C487.778,429.575,488.349,429.037,486.192,428.756C484.035,428.475,479.15,428.452,477.266,427.597C475.382,426.743,476.499,425.058,476.44,426.39C476.38,427.722,475.144,432.072,471.556,432.712C467.968,433.353,462.027,430.283,458.726,429.23C455.425,428.177,454.763,429.14,454.867,428.314C454.971,427.488,455.841,424.873,454.362,424.07C452.884,423.267,449.056,424.275,446.923,426.376C444.79,428.477,444.352,431.671,443.409,431.694C442.466,431.717,441.019,428.571,438.046,428.802C435.073,429.034,430.574,432.642,427.959,432.587C425.344,432.532,424.612,428.812,422.248,428.893C419.885,428.974,415.89,432.856,411.869,433.672C407.848,434.488,403.801,432.237,402.618,430.979C401.435,429.721,403.116,429.455,402.708,429.811C402.3,430.167,399.803,431.143,398.055,432.752C396.306,434.361,395.306,436.603,393.078,436.357C390.851,436.111,387.395,433.378,384.938,431.849C382.482,430.32,381.023,429.995,380.265,431.002C379.507,432.008,379.451,434.346,379.476,434.564C379.502,434.782,379.609,432.881,378.66,431.991C377.712,431.1,375.707,431.221,372.026,430.802C368.345,430.383,362.988,429.424,361.276,429.379C359.564,429.334,361.496,430.203,360.777,429.882C360.058,429.562,356.689,428.053,352.186,427.575C347.682,427.096,342.044,427.649,339.521,428.589C336.999,429.53,337.592,430.859,337.454,431.299C337.317,431.739,336.448,431.29,335.032,431.204C333.615,431.119,331.651,431.397,331.256,430.633C330.86,429.869,332.032,428.063,330.719,428.118C329.406,428.173,325.607,430.089,324.614,430.676C323.62,431.264,325.431,430.522,324.145,430.694C322.859,430.865,318.476,431.949,315.595,431.475C312.714,431.002,311.336,428.971,309.523,427.869C307.709,426.766,305.46,426.593,305.764,427.148C306.067,427.702,308.924,428.984,308.543,429.417C308.162,429.85,304.544,429.434,299.865,428.169C295.186,426.903,289.447,424.789,285.046,424.801C280.645,424.814,277.583,426.953,275.166,427.995C272.749,429.037,270.977,428.982,269.365,428.642C267.753,428.303,266.301,427.678,265.403,427.887C264.506,428.096,264.162,429.137,263.869,429.521C263.576,429.905,263.334,429.632,262.49,429.889C261.646,430.145,260.2,430.932,259.855,432.428C259.509,433.924,260.262,436.13,257.757,436.222C255.253,436.314,249.489,434.293,245.961,432.96C242.432,431.628,241.138,430.985,240.052,430.914C238.967,430.844,238.089,431.345,237.128,431.196C236.166,431.046,235.12,430.245,233.652,430.543C232.184,430.84,230.294,432.237,228.339,430.954C226.383,429.67,224.361,425.707,222.819,425.166C221.277,424.624,220.214,427.505,219.399,428.158C218.584,428.811,218.015,427.237,216.678,426.998C215.341,426.759,213.235,427.856,212.111,428.518C210.987,429.181,210.845,429.409,209.929,429.446C209.014,429.483,207.326,429.328,206.288,428.782C205.251,428.235,204.864,427.296,204.408,426.534C203.952,425.771,203.426,425.184,202.122,425.567C200.818,425.951,198.736,427.304,197.618,428.784C196.5,430.265,196.346,431.874,196.237,431.862C196.128,431.851,196.064,430.219,194.382,429.75C192.701,429.281,189.402,429.975,188.378,430.575C187.354,431.175,188.606,431.681,187.441,432.109C186.276,432.537,182.694,432.887,180.497,432.281C178.3,431.675,177.488,430.114,177.298,429.538C177.108,428.961,177.54,429.369,176.614,429.304C175.688,429.24,173.404,428.705,170.858,427.698C168.312,426.692,165.504,425.214,163.767,425.686C162.03,426.158,161.364,428.579,160.046,430.572C158.728,432.564,156.759,434.128,156.155,432.68C155.55,431.232,156.311,426.772,154.016,424.334C151.721,421.896,146.37,421.479,141.711,423.127C137.051,424.775,133.082,428.487,131.08,429.688C129.078,430.889,129.042,429.579,129.043,428.741C129.043,427.902,129.079,427.535,128.145,427.783C127.21,428.03,125.306,428.891,124.284,429.352C123.263,429.813,123.126,429.873,122.566,430.031C122.006,430.189,121.025,430.445,120.758,429.059C120.491,427.673,120.939,424.644,119.48,424.422C118.021,424.199,114.654,426.782,113.106,426.603C111.557,426.424,111.827,423.483,109.946,422.06C108.066,420.637,104.036,420.733,100.66,422.384C97.283,424.035,94.56,427.242,92.413,427.397C90.266,427.553,88.695,424.657,86.467,425.779C84.238,426.902,81.352,432.042,78.606,433.624C75.859,435.205,73.252,433.229,72.299,433.136C71.346,433.044,72.048,434.836,70.673,434.427C69.299,434.017,65.847,431.405,64.026,430.262C62.204,429.119,62.012,429.444,61.676,430.199C61.34,430.954,60.86,432.139,59.912,432.558C58.963,432.976,57.547,432.629,57.496,431.537C57.445,430.446,58.76,428.61,57.148,427.453C55.536,426.295,50.998,425.816,49.58,426.543C48.162,427.27,49.865,429.202,48.231,430.675C46.597,432.147,41.626,433.161,38.868,433.963C36.109,434.765,35.563,435.356,33.139,433.959C30.714,432.562,26.412,429.178,23.693,428.904C20.975,428.629,19.839,431.463,18.523,432.149C17.207,432.835,15.71,431.372,16.182,428.124C16.653,424.876,19.092,419.843,22.653,417.87C26.213,415.896,30.895,416.982,33.962,415.854C37.028,414.726,38.479,411.385,39.046,409.814C39.613,408.243,39.296,408.442,39.706,409.379C40.116,410.316,41.253,411.992,43.014,412.906C44.775,413.82,47.161,413.973,48.965,412.871C50.769,411.769,51.991,409.413,53.757,408.767C55.523,408.121,57.833,409.185,60.15,410.207C62.466,411.229,64.789,412.208,65.819,412.615C66.85,413.023,66.588,412.86,67.26,412.339C67.933,411.819,69.539,410.94,70.164,410.018C70.788,409.096,70.432,408.13,69.958,408.131C69.484,408.132,68.892,409.099,70.844,409.489C72.796,409.879,77.292,409.691,79.028,411.24C80.764,412.788,79.741,416.073,82.528,415.335C85.315,414.598,91.914,409.838,95.179,408.898C98.444,407.958,98.376,410.837,99.34,411.637C100.304,412.438,102.3,411.16,101.994,410.597C101.688,410.034,99.081,410.187,101.669,409.858C104.257,409.528,112.04,408.717,116.205,408.952C120.37,409.188,120.917,410.469,122.057,410.732C123.197,410.995,124.929,410.239,126.079,408.365C127.228,406.491,127.796,403.499,129.12,402.716C130.444,401.933,132.525,403.359,134.751,406.343C136.978,409.327,139.351,413.868,140.97,415.923C142.589,417.978,143.455,417.547,147.043,415.413C150.632,413.278,156.945,409.439,159.736,407.433C162.527,405.427,161.796,405.253,162.873,406.122C163.95,406.991,166.834,408.902,169.134,409.636C171.435,410.37,173.151,409.927,174.06,409.66C174.968,409.393,175.068,409.302,175.763,410.398C176.458,411.495,177.746,413.78,178.532,414.371C179.317,414.962,179.599,413.858,181.242,412.767C182.884,411.677,185.887,410.6,186.362,410.068C186.836,409.536,184.782,409.55,185.021,410.206C185.26,410.863,187.792,412.163,190.224,413.559C192.656,414.954,194.988,416.444,199.43,415.396C203.872,414.347,210.423,410.759,214.876,408.926C219.329,407.093,221.684,407.015,222.291,408.992C222.898,410.969,221.758,415.001,224.416,416.602C227.075,418.204,233.533,417.374,236.969,415.768C240.405,414.161,240.819,411.779,241.48,412.19C242.14,412.6,243.048,415.802,244.664,415.965C246.28,416.127,248.604,413.249,250.573,412.079C252.541,410.91,254.152,411.448,254.732,411.291C255.311,411.135,254.859,410.283,256.357,409.855C257.855,409.427,261.305,409.423,262.087,408.643C262.869,407.864,260.983,406.309,263.078,406.078C265.172,405.848,271.245,406.941,273.717,406.409C276.189,405.877,275.06,403.72,277.542,404.463C280.024,405.205,286.119,408.847,289.697,410.006C293.276,411.165,294.34,409.842,293.673,409.252C293.006,408.662,290.608,408.805,292.606,409.134C294.604,409.462,300.998,409.976,305.373,409.112C309.749,408.248,312.107,406.007,313.716,404.971C315.324,403.934,316.185,404.102,317.947,406.643C319.709,409.185,322.373,414.1,325.051,414.909C327.729,415.718,330.42,412.422,331.148,410.74C331.876,409.058,330.641,408.989,331.113,407.652C331.584,406.315,333.762,403.708,336.931,402.585C340.101,401.461,344.263,401.822,347.187,401.977C350.11,402.132,351.796,402.082,353.72,402.6C355.645,403.119,357.809,404.204,361.653,404.987C365.496,405.769,371.019,406.248,373.94,406.979C376.861,407.71,377.18,408.693,377.262,409.069C377.345,409.445,377.192,409.213,377.463,409.395C377.735,409.576,378.432,410.171,379.274,411.491C380.117,412.811,381.105,414.856,381.42,413.823C381.735,412.79,381.377,408.68,383.466,407.73C385.555,406.781,390.091,408.993,393.567,409.363C397.042,409.734,399.458,408.263,400.805,408.505C402.152,408.747,402.43,410.703,402.586,410.62C402.742,410.538,402.774,408.418,403.793,408.022C404.812,407.625,406.817,408.952,407.102,409.909C407.386,410.865,405.949,411.452,407.916,411.761C409.882,412.069,415.251,412.1,418.19,411.805C421.129,411.509,421.637,410.886,422.773,409.467C423.909,408.048,425.672,405.833,427.496,406.094C429.32,406.355,431.205,409.092,432.545,409.773C433.884,410.454,434.679,409.079,435.568,409.771C436.457,410.462,437.44,413.221,439.243,413.938C441.046,414.656,443.67,413.334,444.303,413.787C444.936,414.24,443.58,416.468,446.039,415.667C448.498,414.865,454.773,411.033,457.696,408.774C460.62,406.516,460.193,405.832,461.234,406.404C462.275,406.976,464.784,408.805,466.11,409.605C467.435,410.405,467.577,410.175,466.066,410.191C464.555,410.208,461.391,410.47,463.227,409.06C465.064,407.651,471.9,404.571,476.163,405.529C480.426,406.487,482.116,411.482,483.491,412.744C484.865,414.007,485.924,411.537,488.721,410.731C491.517,409.925,496.05,410.784,497.811,410.805C499.571,410.826,498.559,410.01,499.375,409.496C500.191,408.982,502.836,408.772,504.656,409.318C506.476,409.864,507.471,411.167,509.194,411.186C510.918,411.204,513.37,409.938,514.037,409.851C514.704,409.763,513.585,410.854,514.287,412.291C514.989,413.727,517.511,415.508,519.758,415.213C522.006,414.917,523.979,412.545,525.667,411.914C527.356,411.282,528.758,412.392,529.327,411.121C529.896,409.85,529.631,406.199,531.435,405.657C533.239,405.115,537.113,407.683,539.028,408.873C540.943,410.063,540.9,409.875,540.752,410.108C540.605,410.341,540.353,410.994,540.922,411.09C541.492,411.186,542.882,410.726,543.356,410.945C543.83,411.164,543.388,412.063,543.377,411.823C543.366,411.584,543.786,410.206,543.956,408.91C544.126,407.615,544.045,406.401,546.965,407.155C549.884,407.909,555.804,410.631,559.077,411.55C562.35,412.468,562.976,411.583,563.599,411.024C564.222,410.466,564.843,410.234,565.186,409.932C565.53,409.63,565.596,409.258,565.268,410.614C564.939,411.97,564.214,415.052,566.839,414.796C569.464,414.541,575.439,410.946,577.294,409.935C579.15,408.923,576.887,410.495,577.82,410.252C578.753,410.01,582.882,407.953,586.754,408.317C590.626,408.68,594.239,411.464,596.236,412.003C598.233,412.542,598.614,410.836,599.27,409.901C599.927,408.966,600.86,408.803,601.285,409.301C601.71,409.799,601.628,410.958,602.303,410.98C602.977,411.002,604.407,409.885,604.969,409.62C605.53,409.355,605.223,409.942,605.106,410.104C604.99,410.265,605.064,410.001,605.18,410.248C605.296,410.494,605.454,411.25,607.562,411.281C609.671,411.312,613.731,410.618,616.191,411.781C618.651,412.943,619.51,415.963,621.247,416.413C622.985,416.863,625.601,414.742,626.472,412.712C627.343,410.682,626.469,408.743,626.921,407.417C627.373,406.092,629.151,405.38,632.143,404.337C635.136,403.294,639.343,401.921,643.3,403.403C647.258,404.886,650.965,409.223,652.865,410.874C654.766,412.525,654.859,411.489,656.167,410.469C657.476,409.45,660,408.447,661.442,408.641C662.885,408.835,663.246,410.226,663.214,409.127C663.183,408.029,662.759,404.441,664.515,403.936C666.27,403.432,670.204,406.012,672.104,407.096C674.003,408.181,673.868,407.77,675.191,408.953C676.514,410.136,679.296,412.911,681.115,414.495C682.935,416.079,683.79,416.472,685.574,416.242C687.357,416.012,690.068,415.16,691.969,413.785C693.869,412.41,694.959,410.512,695.163,410.247C695.367,409.982,694.685,411.35,695.729,411.715C696.772,412.079,699.542,411.44,700.196,411.485C700.851,411.529,699.392,412.257,699.515,411.847C699.639,411.437,701.345,409.889,704.115,409.329C706.884,408.769,710.717,409.197,715.313,409.15C719.908,409.104,725.266,408.584,728.405,408.537C731.544,408.489,732.463,408.915,732.811,409.433C733.158,409.951,732.934,410.562,732.575,409.887C732.216,409.212,731.722,407.25,733.037,405.946C734.351,404.642,737.474,403.994,740.145,404.643C742.816,405.292,745.036,407.237,746.036,407.958C747.037,408.679,746.819,408.176,746.46,409.022C746.1,409.868,745.599,412.062,747.075,411.597C748.55,411.133,752.003,408.011,754.752,407.574C757.501,407.136,759.546,409.384,760.795,411.078C762.044,412.771,762.496,413.911,765.089,415.109C767.683,416.307,772.416,417.563,775.795,416.418C779.174,415.273,781.199,411.727,782.767,410.56C784.335,409.394,785.447,410.607,786.532,412.096C787.617,413.586,788.674,415.353,790.763,414.233C792.851,413.114,795.971,409.109,798.596,406.34C801.221,403.57,803.351,402.036,806.474,402.582C809.596,403.127,813.712,405.752,817.121,406.458C820.531,407.165,823.233,405.954,825.923,405.193C828.612,404.432,831.289,404.121,833.115,405.039C834.94,405.957,835.916,408.105,836.799,409.361C837.683,410.616,838.476,410.981,838.906,411.079C839.337,411.177,839.406,411.009,838.915,411.288C838.425,411.568,837.375,412.294,838.216,412.097C839.057,411.9,841.79,410.779,843.655,409.923C845.52,409.067,846.517,408.476,847.066,408.928C847.615,409.379,847.716,410.873,847.851,410.131C847.986,409.389,848.155,406.41,849.554,405.828C850.952,405.246,853.58,407.062,856.7,408.936C859.819,410.811,863.43,412.745,865.241,413.789C867.051,414.833,867.061,414.987,868.527,414.212C869.993,413.436,872.915,411.731,872.746,410.688C872.576,409.645,869.315,409.265,871.872,410.348C874.43,411.431,882.806,413.977,888.856,414.854C894.906,415.73,898.629,414.937,900.616,415.156C902.604,415.374,902.856,416.603,903.485,415.143C904.115,413.683,905.122,409.534,907.66,408.026C910.197,406.518,914.265,407.652,916.291,409.345C918.316,411.037,918.299,413.288,919.747,412.353C921.196,411.417,924.111,407.296,925.464,406.818C926.817,406.339,926.608,409.503,927.13,411.374C927.652,413.245,928.906,413.823,932.649,412.806C936.391,411.789,942.623,409.178,945.636,409.518C948.648,409.858,948.443,413.148,950.121,413.558C951.799,413.968,955.36,411.499,958.072,409.129C960.783,406.76,962.644,404.49,964.447,404.565C966.249,404.64,967.994,407.06,969.238,408.422C970.483,409.784,971.227,410.088,971.356,410.162C971.485,410.235,970.999,410.077,970.387,410.966C969.775,411.855,969.037,413.79,969.432,414.453C969.827,415.115,971.355,414.504,975.266,412.791C979.177,411.078,985.47,408.263,989.161,405.559C992.853,402.856,993.943,400.265,993.632,397.996C993.321,395.727,991.609,393.779,991.83,390.009C992.05,386.24,994.203,380.649,992.067,376.861C989.932,373.074,983.508,371.091,980.259,371.876C977.009,372.662,976.934,376.216,974.323,375.501C971.712,374.785,966.565,369.799,963.032,368.385C959.499,366.97,957.58,369.126,956.815,370.067C956.051,371.008,956.441,370.733,956.219,368.899C955.997,367.064,955.164,363.67,953.137,363.122C951.11,362.574,947.889,364.872,945.186,366.289C942.484,367.706,940.299,368.241,940.063,368.76C939.827,369.278,941.539,369.78,941.09,368.479C940.642,367.177,938.034,364.072,933.516,364.053C928.999,364.035,922.571,367.105,919.25,368.559C915.929,370.013,915.715,369.852,916.466,370.492C917.217,371.131,918.934,372.571,918.558,372.44C918.182,372.309,915.713,370.606,912.555,369.379C909.397,368.151,905.551,367.398,903.246,367.618C900.94,367.838,900.176,369.03,900.034,369.802C899.891,370.574,900.371,370.926,900.766,370.889C901.162,370.853,901.473,370.429,900.218,371.008C898.963,371.587,896.142,373.169,895.394,372.512C894.646,371.855,895.971,368.959,894.073,367.59C892.174,366.22,887.052,366.377,882.575,367.511C878.099,368.644,874.269,370.755,872.322,370.685C870.375,370.615,870.312,368.364,868.226,367.31C866.141,366.257,862.033,366.401,859.314,367.047C856.594,367.694,855.263,368.843,854.57,368.121C853.877,367.399,853.822,364.807,852.551,364.961C851.279,365.114,848.789,368.013,846.662,368.128C844.534,368.242,842.767,365.573,840.707,365.092C838.646,364.611,836.292,366.319,835.26,367.702C834.229,369.086,834.521,370.145,834.015,369.927C833.51,369.709,832.208,368.215,830.554,368.357C828.9,368.499,826.896,370.277,826.716,371.778C826.536,373.279,828.181,374.502,825.53,374.698C822.878,374.894,815.93,374.064,812.716,373.503C809.502,372.942,810.022,372.65,809.345,373.536C808.668,374.422,806.794,376.485,804.168,375.705C801.542,374.925,798.164,371.301,795.632,370.54C793.101,369.778,791.416,371.878,790.168,372.159C788.921,372.439,788.11,370.899,787.579,369.856C787.048,368.812,786.797,368.265,787.761,368.631C788.726,368.997,790.906,370.277,789.798,371.387C788.689,372.497,784.292,373.437,779.93,374.487C775.568,375.537,771.241,376.697,768.367,377.502C765.492,378.308,764.071,378.759,762.306,377.179C760.541,375.6,758.432,371.989,756.114,370.486C753.795,368.983,751.267,369.587,751.339,369.492C751.412,369.397,754.086,368.601,752.482,369.305C750.877,370.009,744.995,372.212,741.295,372.949C737.596,373.686,736.079,372.957,735.409,371.079C734.739,369.2,734.915,366.171,733.058,366.582C731.201,366.992,727.311,370.842,725.067,370.571C722.824,370.3,722.227,365.91,720.081,365.057C717.936,364.203,714.241,366.886,712.245,368.919C710.25,370.951,709.953,372.332,708.034,372.592C706.114,372.853,702.571,371.992,700.824,371.398C699.077,370.804,699.126,370.476,698.586,370.548C698.046,370.62,696.916,371.09,696.757,372.338C696.597,373.587,697.407,375.612,696.078,375.309C694.748,375.005,691.28,372.372,688.65,369.981C686.019,367.591,684.227,365.444,683.176,364.875C682.124,364.306,681.812,365.315,680.028,367.131C678.245,368.947,674.989,371.571,673.006,372.191C671.023,372.811,670.313,371.427,669.217,369.722C668.122,368.016,666.642,365.988,666.241,364.998C665.839,364.009,666.516,364.056,665.472,364.572C664.427,365.088,661.661,366.071,657.797,365.901C653.932,365.731,648.97,364.407,645.102,363.698C641.233,362.989,638.46,362.894,635.768,365.094C633.076,367.294,630.467,371.789,627.072,373.156C623.678,374.523,619.498,372.762,618.345,370.81C617.192,368.858,619.066,366.715,616.909,366.664C614.751,366.613,608.562,368.653,604.919,368.393C601.277,368.133,600.181,365.574,598.304,365.098C596.427,364.622,593.769,366.23,591.988,367.761C590.207,369.293,589.303,370.747,588.46,371.702C587.618,372.657,586.836,373.112,585.521,372.286C584.206,371.46,582.357,369.353,581.045,368.534C579.733,367.716,578.957,368.187,576.896,369.126C574.835,370.065,571.489,371.472,568.665,370.842C565.841,370.212,563.538,367.544,561.803,367.071C560.068,366.597,558.901,368.317,558.302,369.167C557.703,370.018,557.672,369.998,557.515,370.063C557.359,370.129,557.077,370.278,556.134,370.034C555.191,369.79,553.586,369.151,552.957,367.776C552.328,366.4,552.675,364.288,550.543,364.478C548.41,364.669,543.797,367.162,542.033,368.776C540.27,370.39,541.354,371.125,541.701,371.03C542.047,370.934,541.654,370.009,540.885,369.95C540.115,369.891,538.97,370.698,536.654,370.914C534.338,371.13,530.851,370.756,526.218,370.696C521.586,370.636,515.806,370.89,513.748,369.914C511.69,368.938,513.352,366.732,512.434,367.4C511.516,368.068,508.017,371.611,505.051,372.444C502.084,373.278,499.649,371.401,499.167,370.82C498.686,370.238,500.157,370.952,499.205,370.724C498.253,370.497,494.879,369.329,491.894,369.199C488.908,369.069,486.311,369.976,484.112,369.711C481.913,369.446,480.112,368.01,478.953,367.645C477.793,367.281,477.274,367.989,476.802,369.199C476.331,370.408,475.906,372.119,475.184,371.908C474.461,371.696,473.441,369.563,473.548,368.441C473.654,367.319,474.888,367.207,473.25,368.084C471.613,368.962,467.105,370.829,464.472,371.364C461.839,371.898,461.08,371.099,460.583,369.26C460.085,367.42,459.849,364.54,458.847,364.849C457.845,365.157,456.077,368.655,454.044,368.598C452.012,368.54,449.716,364.927,448.568,363.121L447.42,361.314"></path>
      </svg>
      