<?xml version="1.0" encoding="UTF-8" standalone="no"?>
    <!-- Created with Inkscape (https://labs.original.art.br/draw) -->
    
    <svg
       xmlns:dc="http://purl.org/dc/elements/1.1/"
       xmlns:cc="http://creativecommons.org/ns#"
       xmlns:rdf="http://www.w3.org/1999/02/22-rdf-syntax-ns#"
       xmlns:svg="http://www.w3.org/2000/svg"
       xmlns="http://www.w3.org/2000/svg"
       xmlns:sodipodi="http://sodipodi.sourceforge.net/DTD/sodipodi-0.dtd"
       xmlns:inkscape="http://www.inkscape.org/namespaces/inkscape"
       id="X3zIB"
       version="1.1"
       inkscape:version="0.91 r13725"
       width="undefined"
       height="undefined"
       viewBox="0 0 undefined undefined"
       sodipodi:docname="_paths6.svg">
      <metadata
         id="metadata3404">
        <rdf:RDF>
          <cc:Work
             rdf:about="">
            <dc:format>image/svg+xml</dc:format>
            <dc:type
               rdf:resource="http://purl.org/dc/dcmitype/StillImage" />
            <dc:title></dc:title>
          </cc:Work>
        </rdf:RDF>
      </metadata>
      undefined<path fill="none" stroke-width="1" style="stroke: rgb(0, 71, 171);" d="M8.313,500L9.691,499.131C11.069,498.262,13.825,496.524,14.234,494.031C14.643,491.538,12.704,488.29,14.332,483.63C15.959,478.969,21.152,472.897,24.556,469.718C27.96,466.539,29.575,466.254,30.391,466.907C31.206,467.56,31.223,469.151,31.721,468.874C32.219,468.597,33.199,466.452,35.574,465.666C37.948,464.881,41.717,465.455,44.21,466.599C46.702,467.743,47.919,469.456,48.093,470.648C48.267,471.84,47.399,472.51,48.181,472.267C48.963,472.024,51.394,470.867,52.758,470.827C54.121,470.788,54.416,471.866,56.06,472.538C57.704,473.211,60.696,473.479,62.616,471.689C64.535,469.9,65.382,466.052,67.915,464.768C70.448,463.485,74.668,464.764,76.669,466.384C78.669,468.004,78.45,469.964,79.064,471.09C79.677,472.216,81.122,472.508,82.602,472.072C84.081,471.637,85.595,470.474,86.182,469.833C86.77,469.193,86.43,469.075,87.056,468.254C87.682,467.433,89.274,465.908,90.908,466.362C92.542,466.816,94.219,469.247,94.119,469.533C94.018,469.818,92.142,467.956,92.796,468.007C93.451,468.057,96.636,470.02,99.336,470.583C102.035,471.146,104.248,470.309,105.467,469.326C106.687,468.342,106.911,467.212,108.869,467.319C110.827,467.426,114.517,468.77,116.651,469.403C118.785,470.035,119.363,469.957,120.841,469.165C122.319,468.374,124.697,466.869,125.537,467.089C126.377,467.31,125.68,469.256,125.637,469.882C125.593,470.509,126.204,469.815,128.65,469.47C131.095,469.124,135.376,469.125,137.861,468.952C140.345,468.779,141.032,468.431,141.225,468.495C141.417,468.559,141.114,469.034,140.287,468.42C139.461,467.805,138.111,466.1,140.253,466.095C142.395,466.09,148.03,467.786,151.461,468.541C154.893,469.296,156.121,469.11,156.852,469.195C157.584,469.279,157.818,469.634,159.02,469.398C160.222,469.163,162.392,468.337,163.238,468.023C164.084,467.708,163.607,467.904,164.11,468.053C164.612,468.202,166.095,468.303,167.165,468.539C168.235,468.775,168.894,469.146,169.525,468.952C170.156,468.758,170.758,467.999,171.58,469.116C172.401,470.232,173.441,473.224,175.558,474.545C177.675,475.866,180.869,475.516,183.291,473.9C185.713,472.284,187.362,469.402,188.361,468.834C189.361,468.267,189.71,470.014,190.438,470.95C191.167,471.887,192.274,472.013,192.689,471.912C193.105,471.81,192.828,471.481,192.826,472.516C192.825,473.55,193.099,475.949,195.256,475.425C197.413,474.9,201.453,471.451,203.209,469.451C204.964,467.45,204.436,466.897,206.529,468.508C208.622,470.118,213.337,473.891,215.775,474.093C218.212,474.294,218.373,470.924,219.885,469.538C221.397,468.152,224.259,468.751,225.047,468.402C225.836,468.053,224.552,466.756,226.186,467.09C227.82,467.423,232.374,469.387,235.719,471.24C239.064,473.094,241.201,474.835,243.194,474.869C245.186,474.903,247.032,473.229,250.91,472.114C254.787,470.998,260.695,470.441,263.562,470.177C266.43,469.913,266.256,469.941,267.343,468.648C268.43,467.354,270.778,464.739,271.873,466.045C272.969,467.352,272.812,472.581,274.386,474.85C275.959,477.12,279.263,476.43,283.631,474.299C288,472.169,293.433,468.598,295.203,467.055C296.972,465.511,295.077,465.995,297.289,468.118C299.5,470.241,305.819,474.002,309.845,474.546C313.87,475.091,315.603,472.418,316.589,471.081C317.575,469.743,317.814,469.74,318.554,469.816C319.294,469.891,320.535,470.043,321.745,468.625C322.956,467.207,324.135,464.218,325.153,463.022C326.17,461.827,327.027,462.424,329.112,463.204C331.198,463.983,334.512,464.943,336.918,465.246C339.324,465.548,340.823,465.193,342.544,465.755C344.265,466.317,346.21,467.797,348.658,468.532C351.105,469.266,354.056,469.255,354.821,469.133C355.587,469.011,354.167,468.779,355.484,468.394C356.8,468.01,360.852,467.474,361.697,467.842C362.542,468.21,360.179,469.482,362.514,469.604C364.85,469.726,371.883,468.698,375.657,469.8C379.432,470.902,379.947,474.134,381.548,476.081C383.15,478.027,385.837,478.688,387.293,478.011C388.749,477.334,388.974,475.318,391.196,473.474C393.419,471.629,397.64,469.955,401.788,468.683C405.937,467.41,410.014,466.539,413.459,467.968C416.905,469.398,419.72,473.129,422.299,473.742C424.877,474.356,427.22,471.852,428.62,470.791C430.021,469.731,430.479,470.114,430.362,469.703C430.245,469.292,429.553,468.086,430.554,468.597C431.556,469.107,434.252,471.332,436.606,472.601C438.96,473.87,440.972,474.183,441.76,473.089C442.548,471.995,442.112,469.495,443.647,469.783C445.183,470.071,448.69,473.146,451.638,473.218C454.587,473.29,456.976,470.359,457.49,470.243C458.003,470.127,456.64,472.827,457.949,474.072C459.258,475.316,463.239,475.105,465.398,475.444C467.557,475.783,467.894,476.673,470.237,476.238C472.579,475.803,476.927,474.043,479.525,472.842C482.123,471.64,482.971,470.996,483.773,470.536C484.576,470.075,485.334,469.797,486.599,470.19C487.864,470.583,489.637,471.647,490.066,471.332C490.494,471.018,489.578,469.325,491.439,468.569C493.301,467.813,497.941,467.994,500.152,468.319C502.363,468.644,502.144,469.113,501.705,470.945C501.266,472.777,500.606,475.972,501.232,476.019C501.858,476.065,503.769,472.963,507.721,471.347C511.672,469.73,517.663,469.599,521.216,470.302C524.768,471.005,525.882,472.542,526.436,473.662C526.99,474.782,526.983,475.485,528.367,474.711C529.75,473.937,532.524,471.685,534.116,471.988C535.708,472.292,536.119,475.149,536.755,474.326C537.39,473.502,538.251,468.997,540.158,466.429C542.064,463.861,545.015,463.23,548.198,462.87C551.38,462.51,554.792,462.422,557.67,463.327C560.547,464.232,562.889,466.13,564.585,468.926C566.282,471.722,567.334,475.417,569.519,475.901C571.705,476.385,575.024,473.657,576.79,472.667C578.556,471.676,578.769,472.423,579.586,473.528C580.403,474.633,581.825,476.097,584.267,475.165C586.71,474.233,590.174,470.904,592.138,469.11C594.102,467.315,594.566,467.055,595.441,467.352C596.317,467.649,597.604,468.503,597.943,469.637C598.282,470.772,597.672,472.188,598.111,472.652C598.549,473.117,600.036,472.63,601.806,472.026C603.577,471.422,605.631,470.7,607.088,470.43C608.545,470.16,609.405,470.342,610.664,469.326C611.924,468.31,613.581,466.097,614.841,465.95C616.101,465.804,616.963,467.725,617.265,467.625C617.566,467.525,617.307,465.404,619.161,463.949C621.014,462.494,624.98,461.705,628.349,461.599C631.718,461.493,634.489,462.07,637.194,463.613C639.898,465.157,642.534,467.668,643.736,468.917C644.937,470.166,644.703,470.154,644.869,471.164C645.035,472.173,645.6,474.204,646.237,475.062C646.875,475.921,647.586,475.607,648.612,474.019C649.639,472.431,650.98,469.568,654.333,468.897C657.687,468.227,663.053,469.75,665.784,469.746C668.514,469.742,668.611,468.212,669.027,467.883C669.444,467.554,670.182,468.426,670.952,469.318C671.722,470.211,672.525,471.125,673.363,472.166C674.201,473.206,675.074,474.375,675.931,474.064C676.788,473.753,677.629,471.963,678.164,470.156C678.7,468.349,678.93,466.525,679.79,467.198C680.651,467.872,682.142,471.042,685.767,472.321C689.392,473.6,695.15,472.988,698.066,472.422C700.981,471.857,701.055,471.338,702.399,472.258C703.743,473.178,706.358,475.537,708.822,475.717C711.286,475.898,713.6,473.9,714.92,472.546C716.24,471.192,716.566,470.482,716.64,468.759C716.714,467.037,716.537,464.301,717.182,465.133C717.828,465.965,719.297,470.365,720.938,471.415C722.579,472.465,724.393,470.166,727.735,469.64C731.078,469.115,735.95,470.364,737.764,470.728C739.578,471.093,738.333,470.573,740.213,469.387C742.093,468.201,747.098,466.348,749.039,467.468C750.979,468.589,749.854,472.683,752.62,473.705C755.386,474.728,762.043,472.679,765.406,471.678C768.77,470.676,768.841,470.721,769.182,471.502C769.523,472.283,770.133,473.8,771.193,473.166C772.253,472.533,773.763,469.749,775.383,468.663C777.002,467.578,778.731,468.19,779.125,469.321C779.52,470.453,778.579,472.103,779.163,473.574C779.747,475.044,781.855,476.335,784.372,477.261C786.889,478.187,789.816,478.75,793.216,477.181C796.617,475.613,800.491,471.913,803.91,469.671C807.329,467.429,810.294,466.644,811.339,468.001C812.384,469.358,811.51,472.858,813.094,474.389C814.679,475.921,818.723,475.484,820.662,473.612C822.602,471.74,822.438,468.433,823.637,467.412C824.835,466.39,827.396,467.654,830.1,469.446C832.803,471.238,835.649,473.558,836.806,474.221C837.962,474.884,837.43,473.89,839.269,472.886C841.109,471.882,845.32,470.867,847.196,469.728C849.073,468.59,848.614,467.327,849.529,467.46C850.445,467.593,852.735,469.121,853.994,470.242C855.252,471.362,855.48,472.076,857.066,472.472C858.652,472.867,861.596,472.945,863.078,472.251C864.56,471.556,864.58,470.089,864.969,469.519C865.359,468.949,866.119,469.277,866.333,470.523C866.546,471.769,866.212,473.935,868.874,474.295C871.535,474.654,877.192,473.208,880.158,472.8C883.124,472.393,883.399,473.024,883.286,472.508C883.173,471.992,882.671,470.33,884.194,469.522C885.716,468.714,889.263,468.76,891.75,467.776C894.236,466.792,895.664,464.777,896.586,464.781C897.508,464.786,897.926,466.81,898.067,467.335C898.209,467.859,898.074,466.885,900.238,467.536C902.402,468.186,906.865,470.46,911.091,471.407C915.317,472.353,919.306,471.971,921.312,471.46C923.319,470.949,923.345,470.309,923.397,470.059C923.45,469.808,923.53,469.948,923.57,471.522C923.609,473.095,923.609,476.102,924.849,475.674C926.089,475.247,928.57,471.386,931.654,469.274C934.737,467.162,938.424,466.799,940.067,468.683C941.709,470.567,941.307,474.699,942.673,474.33C944.038,473.962,947.171,469.092,950.171,467.604C953.172,466.116,956.04,468.01,956.953,469.708C957.867,471.406,956.827,472.909,957.551,473.711C958.276,474.513,960.767,474.613,962.832,473.319C964.898,472.025,966.539,469.337,968.291,468.456C970.042,467.575,971.904,468.5,972.693,470.044C973.483,471.588,973.2,473.75,973.053,473.233C972.907,472.716,972.897,469.519,975.09,469.166C977.282,468.813,981.677,471.303,985.933,471.256C990.189,471.209,994.306,468.625,994.13,464.869C993.954,461.113,989.486,456.185,986.478,452.797C983.471,449.409,981.924,447.563,979.37,444.373C976.816,441.184,973.254,436.653,970.574,434.7C967.894,432.747,966.097,433.372,965.017,432.491C963.938,431.61,963.577,429.224,963.623,427.886C963.67,426.548,964.124,426.258,963.059,426.562C961.993,426.867,959.407,427.765,955.987,427.973C952.566,428.181,948.311,427.699,946.026,427.405C943.742,427.11,943.428,427.004,942.85,427.391C942.272,427.779,941.43,428.661,941.137,429.487C940.843,430.314,941.098,431.085,940.63,431.892C940.162,432.698,938.973,433.539,936.994,432.839C935.015,432.14,932.246,429.899,931.311,429.705C930.376,429.511,931.274,431.364,929.545,432.538C927.816,433.712,923.461,434.207,921.257,433.595C919.053,432.982,918.999,431.263,918.173,430.992C917.346,430.72,915.746,431.897,914.799,430.815C913.852,429.734,913.557,426.394,911.694,425.267C909.832,424.141,906.4,425.227,905.335,427.371C904.269,429.516,905.568,432.719,903.699,433.629C901.83,434.539,896.792,433.155,893.877,432.688C890.962,432.22,890.17,432.669,888.698,433.262C887.226,433.854,885.075,434.591,882.038,434.654C879.001,434.717,875.079,434.107,872.277,433.926C869.476,433.744,867.794,433.993,865.902,433.122C864.01,432.251,861.908,430.261,860.721,429.778C859.534,429.296,859.264,430.322,858.127,430.592C856.989,430.863,854.985,430.378,854.027,428.507C853.07,426.637,853.159,423.38,850.855,423.45C848.55,423.519,843.852,426.914,842.526,428.527C841.201,430.14,843.248,429.97,842.212,429.898C841.177,429.826,837.057,429.852,835.594,431.084C834.132,432.317,835.326,434.755,833.234,435.005C831.141,435.254,825.763,433.315,823.746,430.925C821.73,428.534,823.075,425.692,821.663,425.821C820.252,425.951,816.084,429.053,813.362,431.026C810.639,432.998,809.362,433.842,808.906,432.849C808.451,431.857,808.817,429.028,807.149,427.74C805.481,426.453,801.78,426.706,797.916,427.581C794.052,428.456,790.025,429.953,789.309,429.626C788.593,429.298,791.187,427.146,789.853,426.989C788.518,426.833,783.255,428.671,780.315,429.346C777.375,430.02,776.758,429.529,776.553,429.477C776.348,429.426,776.555,429.813,775.6,430.804C774.645,431.795,772.528,433.391,770.582,433.303C768.637,433.214,766.862,431.441,767.038,430.12C767.214,428.8,769.341,427.93,768.628,428.525C767.915,429.12,764.362,431.179,760.889,431.143C757.416,431.108,754.024,428.978,753.106,428.11C752.187,427.243,753.743,427.637,752.497,428.194C751.25,428.752,747.202,429.472,746.363,429.245C745.524,429.018,747.895,427.844,746.118,429.084C744.342,430.323,738.418,433.978,732.729,434.31C727.039,434.642,721.585,431.651,719.522,430.391C717.459,429.131,718.789,429.602,717.145,428.57C715.501,427.539,710.884,425.006,706.48,424.953C702.076,424.9,697.886,427.326,695.794,429.249C693.703,431.173,693.709,432.592,692.102,433.535C690.495,434.478,687.273,434.944,686.116,434.419C684.958,433.894,685.864,432.377,684.338,432.584C682.813,432.79,678.856,434.719,674.806,435.272C670.755,435.824,666.611,435,664.141,435.532C661.671,436.063,660.875,437.951,659.03,436.888C657.185,435.826,654.291,431.813,652.769,430.148C651.248,428.483,651.099,429.166,650.444,429.523C649.788,429.879,648.625,429.909,647.965,429.743C647.305,429.578,647.146,429.218,647.001,429.226C646.855,429.235,646.721,429.612,646.202,430.557C645.683,431.502,644.779,433.014,643.409,432.902C642.039,432.789,640.204,431.051,640.282,430.673C640.36,430.295,642.351,431.277,640.412,432.158C638.473,433.04,632.604,433.821,628.731,434.293C624.859,434.764,622.982,434.925,623.105,433.775C623.227,432.626,625.35,430.164,623.435,428.838C621.52,427.513,615.568,427.322,610.61,426.915C605.651,426.509,601.687,425.886,599.616,425.895C597.546,425.904,597.368,426.544,597.835,428.246C598.302,429.948,599.414,432.712,597.498,431.924C595.582,431.136,590.637,426.796,586.539,426.22C582.441,425.643,579.19,428.831,577.483,429.069C575.776,429.308,575.613,426.597,574.403,426.263C573.193,425.93,570.937,427.973,570.283,427.436C569.628,426.9,570.575,423.784,569.334,422.986C568.093,422.189,564.664,423.71,561.661,425.344C558.657,426.977,556.078,428.723,555.446,429.627C554.814,430.53,556.129,430.592,555.344,430.395C554.558,430.199,551.673,429.743,550.35,429.493C549.028,429.243,549.267,429.198,548.058,429.839C546.848,430.481,544.19,431.809,542.951,431.882C541.712,431.955,541.893,430.772,541.483,428.722C541.073,426.671,540.071,423.752,537.7,422.926C535.33,422.101,531.59,423.369,529.349,425.033C527.107,426.696,526.365,428.755,525.429,429.718C524.493,430.681,523.364,430.547,522.733,430.486C522.103,430.426,521.97,430.437,521.756,430.265C521.543,430.092,521.248,429.735,521.006,429.619C520.763,429.503,520.574,429.628,520.105,429.324C519.636,429.02,518.888,428.286,518.849,429.358C518.809,430.43,519.479,433.307,518.832,434.106C518.186,434.906,516.224,433.627,512.65,432.838C509.075,432.049,503.888,431.748,500.619,430.448C497.349,429.147,495.997,426.845,496.104,427.092C496.211,427.339,497.776,430.134,495.648,432.219C493.519,434.303,487.697,435.678,484.133,434.153C480.568,432.628,479.261,428.204,477.276,428.167C475.29,428.13,472.626,432.481,470.749,432.383C468.872,432.285,467.783,427.739,464.462,426.404C461.141,425.07,455.589,426.947,451.66,427.13C447.731,427.313,445.425,425.8,444.785,427.259C444.144,428.718,445.168,433.147,443.598,434.652C442.028,436.158,437.865,434.738,433.512,433.567C429.16,432.396,424.618,431.472,422.188,430.851C419.757,430.23,419.438,429.911,420.262,429.858C421.085,429.804,423.05,430.017,423.322,429.285C423.595,428.553,422.174,426.876,418.691,427.842C415.209,428.808,409.666,432.417,405.638,433.954C401.611,435.491,399.1,434.956,397.755,434.872C396.41,434.788,396.232,435.156,394.701,434.393C393.169,433.629,390.285,431.735,389.989,431.294C389.692,430.853,391.985,431.866,390.317,432.066C388.65,432.267,383.022,431.655,379.897,431.257C376.773,430.859,376.15,430.674,375.739,430.649C375.328,430.624,375.128,430.76,374.939,430.677C374.75,430.595,374.571,430.294,374.297,429.41C374.024,428.527,373.656,427.06,372.821,427.673C371.986,428.286,370.683,430.978,369.556,432.787C368.428,434.597,367.476,435.524,365.83,434.893C364.183,434.262,361.843,432.073,360.324,432.029C358.805,431.985,358.108,434.086,356.619,434.162C355.131,434.238,352.851,432.29,351.927,430.892C351.003,429.495,351.434,428.648,350.962,427.99C350.49,427.331,349.114,426.86,347.488,426.778C345.862,426.696,343.986,427.003,343.269,428.804C342.552,430.605,342.994,433.902,341.312,435.052C339.629,436.202,335.823,435.206,332.541,432.746C329.259,430.287,326.502,426.363,323.027,425.506C319.553,424.65,315.36,426.86,313.252,428.206C311.145,429.552,311.122,430.034,310.808,430.776C310.493,431.518,309.887,432.519,309.211,432.401C308.535,432.282,307.789,431.044,307.309,430.305C306.828,429.567,306.613,429.328,307.466,428.827C308.32,428.326,310.242,427.563,308.803,427.76C307.365,427.957,302.566,429.116,300.561,428.318C298.557,427.521,299.346,424.768,297.993,424.713C296.641,424.658,293.146,427.3,291.553,428.244C289.96,429.187,290.268,428.432,290.029,427.923C289.789,427.414,289.001,427.151,286.894,426.99C284.787,426.829,281.36,426.769,279.085,426.835C276.81,426.902,275.687,427.095,275.019,428.322C274.35,429.55,274.135,431.812,273.114,432.482C272.092,433.151,270.264,432.229,270.644,430.874C271.024,429.519,273.613,427.732,271.656,426.359C269.699,424.987,263.196,424.028,258.145,423.416C253.095,422.804,249.498,422.539,245.924,422.799C242.35,423.06,238.799,423.847,236.918,424.745C235.038,425.643,234.827,426.652,234.248,427.994C233.669,429.336,232.723,431.011,231.317,431.09C229.912,431.169,228.048,429.651,227.255,429.684C226.463,429.717,226.741,431.301,226.578,431.581C226.414,431.862,225.808,430.839,224.492,430.271C223.176,429.702,221.149,429.588,219.849,430.072C218.549,430.557,217.976,431.64,216.837,431.513C215.699,431.386,213.996,430.048,212.939,429.315C211.883,428.582,211.473,428.453,211.193,428.666C210.912,428.88,210.762,429.437,211.12,428.353C211.477,427.269,212.344,424.545,210.995,424.633C209.646,424.721,206.081,427.623,203.444,428.757C200.807,429.891,199.098,429.259,198.103,428.836C197.108,428.413,196.829,428.199,197.293,429.492C197.757,430.785,198.964,433.584,197.605,434.829C196.246,436.073,192.319,435.763,188.966,434.658C185.613,433.552,182.833,431.651,182.422,431.397C182.012,431.143,183.971,432.536,183.67,431.515C183.369,430.494,180.808,427.06,176.293,427.079C171.778,427.098,165.31,430.57,162.433,432.485C159.556,434.401,160.269,434.761,158.13,434.345C155.99,433.929,150.997,432.738,148.014,432.027C145.031,431.317,144.058,431.086,144.963,431.422C145.868,431.759,148.651,432.661,146.666,432.263C144.681,431.865,137.927,430.166,134.914,428.215C131.901,426.264,132.629,424.06,131.955,425.267C131.281,426.473,129.205,431.09,125.994,432.219C122.783,433.348,118.437,430.989,115.687,430.567C112.938,430.144,111.786,431.659,111.855,431.49C111.924,431.322,113.214,429.469,111.961,428.957C110.708,428.444,106.912,429.27,106.141,430.194C105.37,431.117,107.624,432.137,106.244,431.922C104.865,431.708,99.851,430.26,97.068,428.718C94.285,427.177,93.732,425.542,91.889,425.921C90.046,426.301,86.913,428.694,85.091,429.368C83.27,430.042,82.761,428.998,81.771,430.044C80.78,431.09,79.309,434.227,76.722,434.392C74.135,434.556,70.432,431.748,67.882,430.626C65.332,429.503,63.934,430.066,64.736,430.285C65.538,430.504,68.54,430.38,65.929,429.164C63.318,427.947,55.095,425.638,51.295,426.672C47.496,427.705,48.12,432.08,46.177,433.128C44.234,434.175,39.722,431.894,36.979,429.38C34.235,426.866,33.259,424.119,31.819,424.076C30.378,424.032,28.473,426.692,27.086,426.501C25.699,426.309,24.829,423.266,22.279,423.156C19.728,423.047,15.497,425.872,13.544,425.368C11.591,424.863,11.917,421.03,12.888,417.689C13.859,414.347,15.475,411.498,16.354,408.637C17.234,405.777,17.376,402.905,18.488,399.895C19.6,396.885,21.683,393.735,22.678,392.081C23.674,390.427,23.583,390.269,23.169,389.235C22.755,388.2,22.019,386.29,23.147,386.248C24.275,386.206,27.267,388.033,28.309,390.196C29.351,392.359,28.443,394.857,29.973,394.518C31.504,394.18,35.473,391.004,38.607,388.542C41.74,386.08,44.038,384.331,45.692,385.785C47.345,387.238,48.356,391.892,49.153,393.411C49.95,394.93,50.535,393.312,53.032,390.64C55.53,387.968,59.94,384.242,64.035,384.719C68.131,385.197,71.911,389.879,74.465,391.476C77.019,393.074,78.347,391.587,78.842,389.792C79.338,387.996,79.001,385.89,78.692,386.029C78.383,386.167,78.101,388.548,80.863,389.735C83.625,390.922,89.431,390.914,92.293,391.245C95.155,391.575,95.074,392.243,94.358,392.196C93.642,392.149,92.293,391.387,95.148,391.769C98.003,392.15,105.062,393.674,108.173,393.297C111.284,392.92,110.446,390.641,110.154,389.962C109.861,389.283,110.113,390.202,111.686,390.312C113.26,390.422,116.155,389.723,119.94,390.629C123.725,391.534,128.4,394.046,132.291,394.328C136.182,394.611,139.289,392.664,141.301,390.708C143.312,388.751,144.228,386.784,145.123,386.192C146.017,385.601,146.89,386.385,147.935,387.061C148.98,387.738,150.197,388.306,151.139,388.773C152.081,389.24,152.747,389.605,153.119,389.758C153.49,389.911,153.566,389.853,152.166,389.325C150.766,388.798,147.889,387.801,148.926,387.869C149.963,387.938,154.914,389.073,158.307,388.852C161.701,388.631,163.537,387.055,165.565,387.014C167.594,386.973,169.814,388.468,170.656,389.048C171.497,389.629,170.961,389.295,171.047,388.183C171.132,387.071,171.839,385.179,172.478,384.806C173.116,384.433,173.686,385.578,176.665,385.139C179.644,384.7,185.034,382.677,187.711,383.487C190.387,384.297,190.352,387.94,191.292,389.499C192.233,391.057,194.15,390.531,198.624,390.844C203.098,391.157,210.129,392.31,214.579,392.904C219.03,393.498,220.9,393.533,222.562,391.614C224.223,389.695,225.676,385.822,227.746,386.658C229.817,387.493,232.505,393.037,235.889,393.78C239.273,394.522,243.354,390.464,245.921,388.667C248.488,386.87,249.543,387.335,250.88,389.146C252.217,390.956,253.836,394.112,255.024,395.502C256.212,396.892,256.969,396.516,258.557,395.55C260.144,394.583,262.563,393.027,263.728,392.508C264.893,391.989,264.804,392.508,265.773,393.71C266.741,394.912,268.766,396.796,271.834,396.406C274.902,396.015,279.013,393.35,281.018,393.3C283.023,393.25,282.921,395.815,284.125,395.641C285.329,395.466,287.839,392.55,289.673,391.105C291.506,389.659,292.664,389.684,292.452,389.39C292.241,389.097,290.661,388.487,292.614,388.032C294.567,387.577,300.053,387.279,303.138,387.556C306.222,387.834,306.905,388.689,306.571,390.658C306.236,392.627,304.885,395.71,305.382,395.675C305.879,395.64,308.224,392.486,310.109,390.8C311.994,389.115,313.419,388.898,317.185,389.066C320.951,389.233,327.059,389.785,330.057,390.35C333.055,390.914,332.943,391.493,335.073,390.773C337.204,390.053,341.577,388.035,344.098,388.104C346.62,388.172,347.289,390.327,348.816,390.781C350.343,391.235,352.727,389.989,355.024,390.213C357.321,390.437,359.53,392.131,359.809,391.937C360.088,391.743,358.438,389.659,359.725,388.433C361.012,387.208,365.235,386.839,369.236,387.807C373.237,388.776,377.014,391.082,379.5,392.948C381.986,394.814,383.18,396.24,383.835,395.547C384.489,394.855,384.605,392.043,386.835,390.704C389.065,389.364,393.409,389.495,395.712,388.693C398.015,387.89,398.278,386.153,397.569,386.032C396.86,385.912,395.18,387.408,398.56,387.9C401.939,388.392,410.379,387.88,414.696,387.487C419.014,387.095,419.21,386.821,419.401,386.526C419.592,386.23,419.778,385.912,421.509,386.517C423.24,387.122,426.517,388.65,427.023,390.008C427.529,391.367,425.266,392.557,425.566,392.691C425.866,392.826,428.729,391.905,431.862,392.051C434.995,392.197,438.398,393.41,441.351,394.026C444.303,394.642,446.806,394.662,450.053,394.503C453.299,394.345,457.29,394.008,459.518,393.595C461.746,393.181,462.211,392.691,462.358,391.188C462.504,389.684,462.331,387.168,463.992,387.079C465.653,386.989,469.147,389.328,470.101,390.079C471.054,390.829,469.466,389.992,470.052,390.069C470.638,390.146,473.398,391.139,475.043,392.429C476.689,393.72,477.22,395.31,479.705,395.428C482.189,395.545,486.627,394.191,490.602,392.519C494.577,390.847,498.09,388.857,501.434,388.098C504.778,387.338,507.954,387.81,510.62,389.278C513.286,390.747,515.443,393.212,516.533,394.115C517.623,395.017,517.648,394.355,518.686,393.44C519.724,392.525,521.776,391.357,524.411,390.161C527.047,388.965,530.267,387.741,530.709,387.844C531.151,387.947,528.816,389.376,529.89,390.503C530.964,391.629,535.449,392.453,540.205,392.163C544.962,391.873,549.991,390.469,553.131,390.132C556.271,389.795,557.522,390.526,558.681,390.522C559.84,390.518,560.908,389.779,562.443,390.288C563.977,390.798,565.979,392.556,568.245,392.72C570.511,392.884,573.041,391.453,574.271,391.062C575.5,390.672,575.427,391.321,575.483,392.503C575.538,393.684,575.722,395.397,578.688,394.621C581.655,393.845,587.405,390.58,591.308,388.45C595.212,386.319,597.269,385.324,598.774,385.011C600.279,384.699,601.232,385.07,602.402,385.998C603.571,386.926,604.958,388.41,606.858,388.783C608.757,389.157,611.17,388.419,613.382,388.25C615.594,388.081,617.606,388.481,617.431,389.463C617.256,390.445,614.893,392.009,616.468,391.072C618.043,390.135,623.556,386.697,626.55,385.602C629.544,384.508,630.019,385.758,631.417,387.826C632.815,389.894,635.135,392.78,637.408,392.942C639.682,393.104,641.909,390.542,643.183,390.441C644.456,390.339,644.777,392.698,645.7,394.416C646.624,396.133,648.15,397.208,650.347,395.49C652.544,393.772,655.412,389.26,658.393,388.396C661.374,387.531,664.469,390.314,668.283,391.528C672.097,392.741,676.63,392.383,680.449,392.484C684.268,392.585,687.373,393.144,689.93,392.631C692.488,392.119,694.497,390.534,695.497,389.981C696.496,389.427,696.486,389.903,696.557,389.996C696.627,390.088,696.779,389.797,697.436,389.115C698.092,388.433,699.254,387.362,699.14,388.126C699.027,388.891,697.637,391.492,698.422,392.391C699.207,393.289,702.167,392.483,706.044,391.49C709.921,390.497,714.716,389.316,717.189,389.035C719.662,388.754,719.813,389.373,720.515,389.921C721.217,390.469,722.47,390.945,723.401,391.069C724.331,391.192,724.938,390.963,726.565,391.359C728.191,391.754,730.835,392.774,731.897,393.096C732.959,393.418,732.438,393.043,732.131,391.973C731.824,390.903,731.731,389.137,733.946,388.382C736.161,387.627,740.685,387.882,743.539,389.106C746.392,390.33,747.576,392.523,748.104,392.392C748.633,392.26,748.505,389.803,748.886,388.853C749.266,387.902,750.156,388.458,752.839,389.61C755.521,390.762,759.998,392.511,763.019,393.239C766.039,393.968,767.604,393.676,768.989,392.386C770.374,391.096,771.58,388.808,772.272,388.016C772.963,387.224,773.139,387.93,773.715,390.165C774.291,392.401,775.267,396.166,777.809,395.729C780.352,395.292,784.462,390.651,788.194,388.036C791.926,385.421,795.281,384.832,796.711,384.082C798.142,383.333,797.648,382.423,799.985,382.285C802.323,382.146,807.492,382.78,809.894,384.472C812.296,386.164,811.93,388.914,813.741,389.179C815.552,389.443,819.54,387.221,822.436,385.381C825.332,383.542,827.137,382.084,829.061,383.163C830.986,384.242,833.029,387.856,834.186,389.209C835.343,390.561,835.612,389.651,836.733,389.676C837.853,389.702,839.825,390.664,842.422,389.903C845.02,389.142,848.243,386.658,851.105,384.959C853.967,383.259,856.468,382.345,857.391,384.408C858.314,386.471,857.66,391.512,860.16,393.019C862.66,394.527,868.314,392.502,871.892,390.52C875.469,388.538,876.97,386.6,878.696,386.793C880.422,386.987,882.372,389.312,884.055,391.548C885.738,393.784,887.153,395.932,889.333,396.638C891.513,397.344,894.458,396.609,896.818,395.653C899.179,394.696,900.954,393.517,902.659,391.471C904.365,389.426,906.001,386.514,907.949,386.614C909.897,386.713,912.158,389.823,913.326,391.099C914.494,392.375,914.57,391.816,916.268,391.301C917.966,390.785,921.286,390.313,922.393,390.068C923.5,389.823,922.395,389.805,922.262,390.753C922.129,391.7,922.968,393.614,925.207,393.701C927.446,393.788,931.085,392.05,934.113,391.518C937.141,390.985,939.558,391.659,940.073,391.634C940.587,391.609,939.199,390.884,939.458,390.707C939.716,390.531,941.621,390.901,943.771,392.067C945.922,393.233,948.319,395.194,949.569,395.103C950.82,395.012,950.925,392.869,954.419,392.741C957.912,392.613,964.795,394.5,969.563,395.648C974.331,396.796,976.984,397.206,977.94,396.026C978.897,394.846,978.157,392.076,979.317,390.976C980.477,389.875,983.538,390.442,986.037,388.532C988.535,386.622,990.472,382.235,990.952,378.586C991.431,374.938,990.453,372.03,991.288,369.043C992.123,366.057,994.771,362.993,993.83,359.092C992.888,355.192,988.357,350.455,985.755,347.01C983.154,343.565,982.481,341.412,981.541,338.502C980.6,335.592,979.392,331.925,975.647,331.717C971.903,331.51,965.621,334.763,962.563,335.658C959.504,336.553,959.67,335.09,957.417,334.548C955.164,334.006,950.492,334.385,947.162,333.985C943.831,333.585,941.843,332.406,941.642,330.365C941.44,328.323,943.026,325.421,941.691,324.61C940.357,323.8,936.102,325.082,933.524,325.613C930.946,326.145,930.045,325.926,927.436,326.852C924.828,327.778,920.511,329.848,918.335,330.59C916.159,331.332,916.122,330.746,915.898,330.391C915.674,330.036,915.262,329.912,914.698,328.92C914.133,327.928,913.416,326.068,911.786,325.699C910.155,325.331,907.611,326.455,905.903,327.481C904.195,328.508,903.323,329.437,902.143,330.241C900.964,331.044,899.476,331.722,899.544,330.273C899.611,328.825,901.233,325.251,898.567,324.917C895.901,324.584,888.947,327.49,886.336,329.327C883.724,331.165,885.454,331.933,883.071,331.034C880.688,330.135,874.192,327.569,871.585,326.926C868.979,326.282,870.264,327.561,870.455,328.781C870.645,330.002,869.742,331.164,867.709,330.53C865.676,329.896,862.515,327.466,858.513,327.048C854.511,326.63,849.669,328.224,846.166,329.243C842.662,330.262,840.498,330.706,839.884,331.744C839.27,332.782,840.207,334.414,839.325,334.142C838.443,333.87,835.742,331.695,834.366,331.064C832.99,330.434,832.939,331.349,831.573,330.99C830.207,330.631,827.524,328.998,825.096,328.153C822.667,327.307,820.492,327.248,820.037,327.825C819.582,328.401,820.847,329.612,819.835,329.696C818.823,329.779,815.533,328.735,813.67,328.075C811.806,327.415,811.37,327.141,810.917,327.824C810.464,328.508,809.994,330.15,807.417,330.244C804.839,330.339,800.153,328.887,797.34,328.588C794.526,328.288,793.585,329.142,792.465,329.068C791.345,328.995,790.045,327.993,789.316,328.076C788.587,328.159,788.428,329.327,788.809,329.763C789.191,330.199,790.111,329.902,788.536,330.72C786.961,331.538,782.89,333.472,779.378,333.031C775.867,332.591,772.914,329.776,772.713,328.526C772.512,327.277,775.061,327.592,772.473,328.286C769.884,328.98,762.159,330.052,758.78,330.759C755.401,331.465,756.369,331.806,756.148,331.626C755.927,331.445,754.516,330.743,753.384,331.187C752.252,331.631,751.397,333.22,749.207,333.671C747.016,334.122,743.489,333.436,742.619,331.961C741.749,330.485,743.536,328.222,742.04,327.926C740.544,327.631,735.765,329.302,733.984,330.454C732.202,331.605,733.417,332.236,732.414,332.082C731.411,331.928,728.189,330.988,726.109,330.811C724.028,330.634,723.087,331.219,722.677,331.236C722.266,331.253,722.385,330.701,722.039,331.216C721.693,331.731,720.881,333.312,718.559,333.948C716.236,334.585,712.403,334.277,710.114,333.575C707.825,332.872,707.082,331.775,706.316,330.723C705.551,329.671,704.762,328.664,703.656,327.041C702.55,325.418,701.126,323.178,699.859,324.269C698.592,325.36,697.483,329.781,696.708,330.958C695.934,332.135,695.493,330.069,692.201,329.928C688.909,329.787,682.764,331.571,679.28,331.649C675.795,331.726,674.969,330.098,673.344,330.261C671.719,330.423,669.294,332.378,668.357,333.072C667.421,333.765,667.972,333.198,666.247,331.521C664.522,329.844,660.519,327.058,657.91,326.228C655.301,325.399,654.084,326.525,653.09,328.372C652.095,330.218,651.322,332.784,649.969,332.153C648.615,331.522,646.68,327.694,645.212,328.239C643.744,328.784,642.743,333.702,640.394,334.725C638.045,335.748,634.35,332.875,632.604,331.875C630.858,330.875,631.062,331.748,629.442,331.769C627.822,331.79,624.378,330.961,623.15,330.247C621.921,329.533,622.908,328.936,622.537,327.898C622.166,326.86,620.437,325.383,618.484,326.99C616.531,328.597,614.355,333.29,610.946,333.82C607.537,334.35,602.896,330.717,600.731,329.535C598.565,328.352,598.876,329.62,598.217,330.673C597.557,331.726,595.928,332.564,594.31,332.656C592.692,332.747,591.084,332.092,589.315,330.846C587.545,329.6,585.614,327.763,584.228,328.104C582.842,328.446,582,330.965,580.287,330.6C578.573,330.236,575.987,326.987,574.084,326.485C572.181,325.983,570.96,328.228,571.074,329.991C571.187,331.754,572.635,333.035,570.661,333.614C568.688,334.194,563.292,334.072,561.205,333.973C559.118,333.875,560.341,333.8,559.005,333.779C557.668,333.757,553.773,333.789,551.181,332.952C548.588,332.115,547.298,330.409,546.286,330.086C545.275,329.763,544.541,330.824,544.035,331.083C543.53,331.341,543.253,330.798,543.452,330.847C543.651,330.895,544.326,331.534,543.432,331.817C542.538,332.1,540.075,332.026,539.446,332.475C538.817,332.924,540.023,333.897,538.771,333.572C537.518,333.247,533.808,331.624,531.985,330.785C530.161,329.946,530.224,329.89,529.985,329.722C529.747,329.555,529.206,329.275,529.119,329.571C529.032,329.866,529.398,330.737,527.603,331.134C525.808,331.532,521.853,331.458,519.888,331.822C517.922,332.186,517.948,332.988,517.571,331.433C517.195,329.878,516.418,325.965,515.117,326.143C513.816,326.321,511.991,330.59,508.836,332.924C505.682,335.259,501.197,335.658,497.897,334.382C494.597,333.106,492.482,330.155,491.994,328.133C491.506,326.111,492.646,325.019,490.218,324.14C487.79,323.262,481.795,322.596,478.24,325.025C474.686,327.455,473.572,332.978,472.095,334.956C470.618,336.935,468.777,335.368,465.706,332.807C462.634,330.246,458.332,326.691,455.324,326.149C452.316,325.607,450.603,328.078,451.179,328.437C451.754,328.796,454.617,327.044,453.568,328.393C452.52,329.742,447.559,334.192,444.411,334.699C441.263,335.206,439.929,331.77,436.252,330.274C432.575,328.777,426.556,329.221,423.031,330.093C419.506,330.965,418.477,332.266,418.032,332.808C417.586,333.349,417.726,333.131,415.793,332.371C413.86,331.611,409.855,330.31,406.553,329.587C403.252,328.865,400.655,328.721,400.521,330.012C400.387,331.304,402.716,334.032,400.335,335.696C397.955,337.36,390.864,337.96,386.916,336.049C382.969,334.138,382.166,329.715,380.881,328.555C379.596,327.396,377.828,329.5,376.141,330.728C374.453,331.957,372.846,332.31,371.475,331.976C370.104,331.643,368.97,330.624,367.962,330.361C366.954,330.097,366.072,330.589,365.254,330.487C364.436,330.384,363.682,329.688,363.413,328.38C363.144,327.072,363.36,325.152,362.024,325.717C360.688,326.281,357.8,329.328,355.255,331.285C352.71,333.242,350.508,334.107,348.838,334.449C347.169,334.792,346.032,334.61,345.463,334.52L344.895,334.429"></path>
      </svg>
      