<?xml version="1.0" encoding="UTF-8" standalone="no"?>
    <!-- Created with Inkscape (https://labs.original.art.br/draw) -->
    
    <svg
       xmlns:dc="http://purl.org/dc/elements/1.1/"
       xmlns:cc="http://creativecommons.org/ns#"
       xmlns:rdf="http://www.w3.org/1999/02/22-rdf-syntax-ns#"
       xmlns:svg="http://www.w3.org/2000/svg"
       xmlns="http://www.w3.org/2000/svg"
       xmlns:sodipodi="http://sodipodi.sourceforge.net/DTD/sodipodi-0.dtd"
       xmlns:inkscape="http://www.inkscape.org/namespaces/inkscape"
       id="s0g1c"
       version="1.1"
       inkscape:version="0.91 r13725"
       width="undefined"
       height="undefined"
       viewBox="0 0 undefined undefined"
       sodipodi:docname="_paths4.svg">
      <metadata
         id="metadata3404">
        <rdf:RDF>
          <cc:Work
             rdf:about="">
            <dc:format>image/svg+xml</dc:format>
            <dc:type
               rdf:resource="http://purl.org/dc/dcmitype/StillImage" />
            <dc:title></dc:title>
          </cc:Work>
        </rdf:RDF>
      </metadata>
      undefined<path fill="none" stroke-width="1" style="stroke: rgb(0, 71, 171);" d="M922.521,657.723C922.521,657.723,647.157,886.897,561.424,930.542C475.691,974.188,484.518,972.083,408.124,919.595C331.729,867.107,148.72,713.594,103.056,615.614C57.393,517.634,114.672,397.949,134.143,331.712C153.614,265.476,185.85,249.663,219.882,218.197C253.914,186.732,232.123,108.611,338.335,142.918C444.547,177.224,778.515,335.946,857.155,424.037C935.795,512.127,865.847,706.982,810.176,671.46C754.506,635.938,554.745,282.463,523.133,210.904C491.52,139.346,582.656,212.508,620.503,242.111C658.349,271.714,725.621,348.308,750.211,388.522C774.801,428.736,767.779,452.047,768.042,483.397C768.305,514.747,788.137,533.524,751.789,576.623C715.441,619.721,611.184,720.398,549.954,741.989C488.725,763.58,422.122,721.624,384.415,706.169C346.707,690.715,339.828,670.895,323.707,649.261C307.586,627.627,295.015,601.683,287.689,576.366C280.364,551.05,277.771,523.014,279.754,497.359C281.738,471.705,288.985,445.196,299.59,422.439C310.194,399.681,325.902,377.958,343.38,360.813C360.858,343.669,382.64,329.228,404.458,319.572C426.275,309.915,451.088,304.209,474.284,302.873C497.481,301.537,522.047,304.836,543.637,311.555C565.226,318.274,586.467,329.689,603.822,343.189C621.177,356.689,636.596,374.344,647.766,392.555C658.936,410.766,666.913,432.09,670.841,452.455C674.769,472.82,681.093,487.535,671.334,514.744C661.576,541.952,630.415,594.371,612.289,615.706C594.163,637.042,579.894,636.995,562.58,642.755C545.265,648.516,533.092,655.639,508.404,650.268C483.716,644.898,436.939,631.355,414.45,610.532C391.961,589.709,376.354,553.497,373.471,525.33C370.588,497.162,388.141,460.188,397.153,441.527C406.164,422.867,416.365,420.53,427.539,413.368C438.713,406.206,451.814,401.151,464.197,398.557C476.58,395.964,489.955,395.918,501.838,397.807C513.721,399.697,525.604,404.199,535.494,409.896C545.384,415.592,554.368,423.611,561.175,431.988C567.983,440.365,573.182,450.485,576.34,460.159C579.499,469.834,580.629,480.488,580.128,490.035C579.627,499.583,576.997,509.284,573.333,517.445C569.669,525.606,564.083,533.155,558.145,539C552.207,544.845,544.804,549.479,537.705,552.513C530.606,555.547,522.659,557.009,515.551,557.205C508.443,557.401,501.161,555.933,495.056,553.688C488.951,551.443,483.293,547.701,478.922,543.735C474.551,539.768,471.106,534.681,468.831,529.888C466.556,525.094,465.481,519.687,465.274,514.975C465.067,510.264,466.104,505.48,467.589,501.618C469.074,497.756,471.632,494.307,474.185,491.805C476.737,489.302,480.024,487.563,482.905,486.604C485.785,485.644,488.968,485.614,491.468,486.049C493.969,486.484,496.331,487.813,497.908,489.214C499.484,490.615,500.557,492.695,500.927,494.456C501.297,496.217,500.939,498.313,500.127,499.779C499.316,501.246,496.041,503.233,496.06,503.256C496.079,503.279,498.648,500.437,500.241,499.917C501.834,499.396,503.96,499.44,505.619,500.135C507.279,500.83,509.119,502.276,510.198,504.088C511.277,505.9,512.137,508.471,512.092,511.009C512.048,513.547,511.418,516.666,509.933,519.315C508.448,521.963,506.12,524.863,503.181,526.898C500.243,528.933,496.373,530.794,492.301,531.524C488.228,532.255,483.335,532.371,478.747,531.28C474.158,530.188,469.05,528.113,464.772,524.975C460.493,521.838,456.147,517.495,453.076,512.455C450.004,507.415,447.397,501.153,446.343,494.734C445.289,488.315,445.22,480.887,446.753,473.943C448.285,466.999,451.219,459.471,455.537,453.071C459.855,446.672,465.802,440.275,472.661,435.545C479.521,430.815,487.988,426.753,496.693,424.693C505.399,422.634,515.422,421.88,524.893,423.188C534.364,424.495,544.613,427.614,553.519,432.54C562.424,437.466,571.382,444.479,578.326,452.744C585.269,461.009,591.45,471.344,595.18,482.13C598.91,492.916,601.091,505.435,600.707,517.461C600.322,529.487,597.755,542.614,592.873,554.286C587.992,565.958,580.557,577.871,571.417,587.495C562.277,597.118,550.555,606.006,538.034,612.027C525.514,618.047,510.754,622.375,496.294,623.618C481.833,624.861,465.831,623.613,451.27,619.484C436.708,615.355,421.583,608.228,408.925,598.844C396.267,589.459,381.542,594.379,375.322,563.177C369.101,531.974,366.233,444.173,371.603,411.629C376.972,379.084,393.101,380.062,407.539,367.91C421.976,355.759,429.666,343.175,458.226,338.721C486.786,334.267,539.723,315.528,578.901,341.186C618.079,366.845,674.985,455.801,693.293,492.674C711.6,529.546,694.429,539.891,688.744,562.419C683.058,584.948,672.777,608.24,659.18,627.845C645.583,647.451,627.295,666.12,607.163,680.052C587.031,693.984,562.736,705.315,538.387,711.439C514.038,717.563,486.639,719.683,461.07,716.794C435.502,713.905,415.865,717.798,384.976,694.106C354.087,670.414,296.827,608.443,275.736,574.643C254.646,540.844,259.092,519.528,258.431,491.308C257.769,463.087,250.699,442.316,271.768,405.319C292.837,368.321,351.435,297.162,384.844,269.323C418.253,241.483,426.92,237.285,472.221,238.28C517.523,239.275,603.976,226.375,656.651,275.293C709.327,324.21,869.818,504.633,788.273,531.786C706.727,558.939,264.524,473.004,167.377,438.21C70.23,403.417,186.195,358.231,205.39,323.024C224.584,287.817,177.223,225.119,282.542,226.971C387.86,228.823,737.833,294.958,837.3,334.135C936.768,373.312,1004.104,457.973,879.347,462.035C754.59,466.097,208.639,398.811,88.759,358.507C-31.121,318.203,128.744,260.905,160.066,220.213C191.388,179.521,232.574,141.837,276.69,114.355C320.806,86.873,373.542,63.986,424.763,55.32C475.984,46.654,514.509,33.061,584.016,62.357C653.523,91.654,787.616,179.949,841.805,231.097C895.995,282.245,1019.562,288.434,909.151,369.246C798.74,450.059,193.978,683.565,179.341,715.971C164.705,748.378,787.925,553.735,821.331,563.687C854.738,573.638,480.595,782.135,379.781,775.679C278.966,769.223,221.186,608.169,216.442,524.949C211.697,441.729,314.032,323.234,351.314,276.36C388.596,229.487,395.735,243.658,440.135,243.709C484.535,243.76,577.007,261.366,617.714,276.666C658.422,291.966,667.749,285.324,684.381,335.508C701.014,385.691,742.689,514.967,717.51,577.766C692.331,640.564,595.842,705.087,533.307,712.299C470.771,719.51,378.671,646.974,342.295,621.036C305.92,595.098,309.897,597.511,315.056,556.669C320.214,515.826,354.605,411.37,373.246,375.982C391.887,340.594,398.466,349.531,426.902,344.342C455.338,339.152,508.091,324.263,543.862,344.845C579.633,365.427,625.751,438.868,641.528,467.835C657.305,496.802,642.356,502.721,638.522,518.645C634.688,534.57,627.389,550.355,618.523,563.381C609.656,576.408,597.717,588.114,585.324,596.803C572.932,605.493,558.231,611.935,544.166,615.518C530.102,619.101,514.74,619.87,500.936,618.304C487.132,616.737,473.138,612.2,461.341,606.119C449.544,600.038,438.604,591.233,430.154,581.817C421.704,572.4,414.962,560.849,410.643,549.619C406.324,538.389,404.265,525.849,404.239,514.436C404.213,503.023,406.65,491.23,410.488,481.141C414.326,471.052,420.479,461.482,427.268,453.9C434.057,446.319,442.71,440.002,451.224,435.652C459.737,431.301,469.451,428.716,478.349,427.797C487.247,426.878,496.58,427.929,504.613,430.139C512.647,432.349,520.367,436.433,526.55,441.056C532.733,445.679,537.98,451.823,541.712,457.876C545.443,463.93,547.822,470.967,548.938,477.375C550.055,483.784,549.652,490.555,548.41,496.325C547.167,502.095,544.492,507.626,541.483,511.996C538.475,516.367,534.334,520.007,530.361,522.547C526.387,525.087,521.727,526.587,517.641,527.237C513.555,527.887,509.289,527.402,505.844,526.447C502.4,525.492,499.247,523.519,496.974,521.507C494.7,519.495,493.079,516.756,492.202,514.374C491.326,511.992,491.292,509.282,491.714,507.215C492.137,505.149,493.399,503.178,494.738,501.976C496.076,500.773,498.069,500.033,499.745,500C501.421,499.968,504.781,501.806,504.792,501.778C504.802,501.75,501.056,500.951,499.807,499.833C498.559,498.715,497.531,496.854,497.301,495.07C497.071,493.285,497.4,490.968,498.427,489.126C499.455,487.284,501.249,485.252,503.467,484.019C505.685,482.785,508.701,481.767,511.737,481.725C514.773,481.684,518.449,482.245,521.683,483.768C524.916,485.292,528.466,487.707,531.139,490.866C533.812,494.024,536.365,498.201,537.719,502.718C539.074,507.235,539.837,512.696,539.266,517.971C538.695,523.245,537.115,529.183,534.292,534.366C531.47,539.55,527.357,544.945,522.331,549.073C517.304,553.202,510.91,556.983,504.133,559.137C497.356,561.29,489.371,562.524,481.669,561.994C473.967,561.464,465.451,559.523,457.921,555.957C450.391,552.391,442.632,547.099,436.488,540.598C430.343,534.097,424.668,525.801,421.054,516.949C417.44,508.098,415.002,497.666,414.802,487.491C414.603,477.315,416.183,466.049,419.856,455.898C423.529,445.748,429.375,435.22,436.84,426.587C444.305,417.954,454.046,409.794,464.646,404.1C475.246,398.406,487.891,394.05,500.439,392.426C512.986,390.801,527.021,391.265,539.929,394.352C552.837,397.44,566.403,403.13,577.887,410.948C589.371,418.767,600.512,429.37,608.834,441.262C617.156,453.153,624.095,467.626,627.819,482.296C631.543,496.966,632.955,513.627,631.176,529.284C629.398,544.941,624.632,561.666,617.15,576.236C609.667,590.807,598.889,605.301,586.281,616.707C573.672,628.112,575.65,644.626,541.497,644.669C507.345,644.713,417.776,639.196,381.365,616.969C344.953,594.741,332.403,539.607,323.027,511.303C313.652,482.999,320.556,468.018,325.113,447.146C329.67,426.274,338.423,404.529,350.371,386.071C362.319,367.613,378.622,349.846,396.8,336.399C414.977,322.951,437.091,311.754,459.436,305.385C481.781,299.016,507.09,296.242,530.869,298.184C554.649,300.126,579.969,306.597,602.114,317.038C624.259,327.478,646.24,342.824,663.74,360.827C681.241,378.829,696.806,401.478,707.118,425.052C717.431,448.627,730.64,463.669,725.616,502.272C720.592,540.875,709.173,616.223,676.975,656.67C644.778,697.117,571.342,730.056,532.433,744.954C493.524,759.852,472.578,751.009,443.519,746.058C414.461,741.108,384.095,730.393,358.081,715.248C332.066,700.103,306.876,678.98,287.432,655.189C267.988,631.397,251.48,602.19,241.415,572.498C231.35,542.807,152.795,529.528,227.042,477.039C301.29,424.549,597.334,281.169,686.901,257.562C776.467,233.955,748.076,268.099,764.44,335.398C780.804,402.698,889.26,648.101,785.084,661.359C680.909,674.617,238.992,476.635,139.385,414.945C39.778,353.255,78.982,323.591,187.439,291.221C295.897,258.851,669.225,189.494,790.132,220.724C911.04,251.953,894.67,411.058,912.884,478.597C931.097,546.136,930.762,561.386,899.414,625.956C868.067,690.525,777.427,815.878,724.796,866.016C672.165,916.155,674.126,1035.88,583.63,926.785C493.134,817.691,228.21,345.385,181.819,211.448C135.429,77.511,236.036,142.04,305.286,123.162C374.537,104.284,526.752,91.701,597.32,98.18C667.888,104.658,680.938,112.173,728.692,162.032C776.446,211.89,878.171,294.96,883.846,397.33C889.521,499.699,802.142,701.511,762.74,776.248C723.338,850.986,688.398,830.108,647.435,845.754C606.472,861.399,578.712,880.7,516.962,870.121C455.213,859.543,336.22,853.646,276.937,782.282C217.653,710.917,159.255,531.903,161.261,441.935C163.266,351.967,250.164,284.46,288.969,242.473C327.775,200.485,339.072,196.026,394.092,190.011C449.113,183.996,551.638,160.403,619.092,206.383C686.545,252.363,770.883,405.08,798.811,465.892C826.74,526.703,841.11,520.15,786.663,571.251C732.217,622.353,561.954,782.701,472.134,772.5C382.314,762.3,282.222,568.318,247.742,510.046C213.263,451.774,254.672,449.709,265.256,422.867C275.84,396.025,292.332,369.952,311.244,348.995C330.156,328.038,354.216,309.824,378.726,297.125C403.235,284.426,431.514,276.014,458.302,272.801C485.089,269.589,513.848,271.6,539.452,277.849C565.056,284.097,585.387,284.362,611.925,310.295C638.463,336.229,686.705,389.194,698.679,433.448C710.653,477.703,693.263,542.79,683.77,575.823C674.276,608.857,658.292,616.271,641.717,631.651C625.142,647.031,604.669,659.771,584.321,668.103C563.974,676.434,556.497,693.828,519.632,681.642C482.766,669.455,392.439,618.623,363.126,594.981C333.813,571.34,346.767,558.42,343.752,539.792C340.737,521.164,327.876,511.382,345.037,483.214C362.199,455.046,421.651,390.372,446.721,370.782C471.791,351.191,479.741,364.526,495.457,365.672C511.173,366.817,527.286,371.283,541.015,377.653C554.745,384.023,567.687,393.516,577.836,403.892C587.984,414.268,596.347,427.176,601.909,439.907C607.471,452.638,610.557,467.022,611.206,480.278C611.855,493.535,609.718,507.414,605.803,519.445C601.888,531.476,595.271,543.099,587.717,552.464C580.163,561.829,570.343,569.895,560.479,575.636C550.616,581.378,539.189,585.179,528.535,586.913C517.88,588.647,506.516,588.118,496.553,586.042C486.59,583.966,476.787,579.643,468.756,574.455C460.725,569.268,453.62,562.158,448.366,554.918C443.112,547.678,439.345,539.075,437.232,531.016C435.118,522.956,434.784,514.228,435.687,506.561C436.589,498.894,439.276,491.274,442.645,485.012C446.013,478.749,450.912,473.164,455.898,468.987C460.884,464.81,466.945,461.765,472.561,459.948C478.177,458.132,484.304,457.676,489.594,458.09C494.883,458.503,500.108,460.262,504.298,462.428C508.487,464.594,512.12,467.875,514.73,471.085C517.34,474.295,519.059,478.23,519.958,481.69C520.858,485.149,520.73,488.866,520.128,491.842C519.527,494.817,517.969,497.593,516.347,499.545C514.725,501.497,512.396,502.885,510.396,503.555C508.396,504.224,506.058,504.119,504.347,503.564C502.636,503.008,500.996,501.654,500.128,500.22C499.26,498.787,499.167,494.957,499.138,494.962C499.108,494.967,500.294,498.61,499.952,500.25C499.61,501.891,498.515,503.713,497.086,504.807C495.657,505.9,493.487,506.776,491.378,506.81C489.269,506.843,486.612,506.309,484.433,505.008C482.254,503.706,479.861,501.607,478.304,499C476.747,496.394,475.39,492.932,475.088,489.37C474.786,485.808,475.098,481.526,476.491,477.63C477.885,473.734,480.22,469.432,483.451,465.996C486.681,462.56,491.024,459.163,495.875,457.014C500.726,454.865,506.656,453.258,512.556,453.103C518.456,452.948,525.186,453.803,531.277,456.084C537.369,458.365,543.846,462.004,549.105,466.789C554.365,471.575,559.433,477.867,562.834,484.798C566.235,491.728,568.823,500.07,569.511,508.374C570.198,516.677,569.506,526.043,566.959,534.619C564.412,543.194,560.077,552.262,554.228,559.825C548.38,567.389,540.573,574.726,531.868,579.997C523.162,585.269,512.62,589.547,501.996,591.455C491.371,593.363,479.331,593.579,468.12,591.445C456.908,589.311,444.964,584.971,434.726,578.651C424.487,572.331,414.38,563.571,406.687,553.527C398.994,543.483,392.362,531.104,388.566,518.387C384.769,505.67,382.895,491.078,383.906,477.222C384.917,463.366,388.511,448.411,394.631,435.251C400.751,422.09,409.799,408.833,420.628,398.259C431.458,387.685,445.168,378.114,459.608,371.808C474.049,365.501,490.911,361.244,507.269,360.418C523.628,359.592,532.207,345.994,557.76,366.851C583.313,387.708,643.436,456.027,660.587,485.56C677.739,515.094,664.191,524.878,660.672,544.051C657.153,563.225,649.841,583.36,639.473,600.599C629.105,617.838,614.726,634.614,598.464,647.486C582.201,660.358,562.244,671.315,541.898,677.83C521.552,684.346,498.348,687.667,476.388,686.577C454.428,685.487,430.883,680.282,410.136,671.29C389.39,662.298,368.619,648.772,351.91,632.626C335.201,616.481,320.118,595.969,309.882,574.418C299.647,552.866,286.918,539.332,290.497,503.316C294.075,467.299,302.476,396.894,331.353,358.32C360.23,319.745,427.837,286.864,463.761,271.867C499.685,256.87,519.559,264.515,546.896,268.34C574.234,272.164,602.983,281.339,627.788,294.814C652.593,308.288,676.819,327.391,695.727,349.185C714.635,370.979,741.806,369.199,741.238,425.576C740.67,481.953,713.039,633.755,692.318,687.446C671.596,741.137,661.782,733.283,616.91,747.72C572.039,762.156,471.086,776.32,423.09,774.067C375.094,771.813,366.693,786.583,328.935,734.197C291.177,681.81,203.024,538.328,196.541,459.746C190.057,381.165,189.434,283.901,290.034,262.707C390.635,241.512,810.399,247.159,800.144,332.58C789.888,418.001,333.205,787.776,228.501,775.235C123.798,762.693,141.864,371.332,171.923,257.332C201.981,143.332,285.526,76.716,408.851,91.235C532.176,105.755,840.391,227.868,911.873,344.449C983.356,461.029,895.879,693.076,837.746,790.718C779.613,888.361,687.211,983.515,563.075,930.304C438.938,877.093,150.307,589.957,92.928,471.452C35.549,352.947,198.168,188.919,218.803,219.274C239.438,249.629,220.562,618.005,216.74,653.579C212.918,689.153,191.475,486.06,195.87,432.718C200.264,379.376,222.294,362.56,243.107,333.525C263.92,304.489,258.013,273.817,320.747,258.505C383.481,243.193,556.553,234.146,619.512,241.651C682.472,249.155,676.407,247.867,698.502,303.535C720.597,359.202,762.648,507.368,752.081,575.656C741.514,643.945,668.635,685.576,635.102,713.266C601.568,740.956,579.414,737.504,550.882,741.796C522.35,746.088,501.677,754.326,463.91,739.016C426.143,723.706,353.602,676.909,324.281,649.936C294.96,622.963,292.148,614.968,287.984,577.18C283.819,539.392,290.15,459.169,299.294,423.208C308.438,387.247,325.436,378.627,342.848,361.415C360.26,344.204,353.015,314.844,403.766,319.94C454.517,325.035,602.871,370.013,647.352,391.989C691.834,413.966,666.651,431.451,670.657,451.8C674.663,472.15,674.702,494.244,671.389,514.086C668.077,533.929,660.56,553.988,650.784,570.853C641.008,587.718,627.342,603.331,612.732,615.275C598.123,627.218,580.419,636.687,563.127,642.514C545.835,648.341,526.594,650.861,508.98,650.235C491.367,649.609,473.131,645.322,457.446,638.759C441.762,632.196,426.777,622.111,414.875,610.859C402.972,599.607,392.915,585.419,386.031,571.244C379.146,557.07,374.937,540.889,373.569,525.815C372.202,510.741,373.932,494.785,377.826,480.803C381.719,466.82,388.699,453.115,396.929,441.922C405.159,430.73,416.061,420.851,427.207,413.647C438.354,406.442,451.435,401.336,463.808,398.696C476.182,396.055,489.556,395.957,501.446,397.801C513.336,399.645,525.237,404.101,535.148,409.76C545.059,415.419,554.074,423.403,560.914,431.754C567.754,440.105,572.991,450.205,576.187,459.867C579.383,469.529,580.554,480.178,580.089,489.728C579.624,499.277,577.032,508.989,573.399,517.163C569.767,525.338,564.21,532.909,558.294,538.777C552.379,544.644,544.993,549.307,537.906,552.368C530.818,555.429,522.878,556.922,515.771,557.145C508.663,557.368,501.375,555.928,495.262,553.706C489.148,551.485,483.476,547.765,479.09,543.815C474.704,539.865,471.239,534.792,468.946,530.007C466.653,525.223,465.557,519.819,465.332,515.108C465.107,510.397,466.126,505.61,467.596,501.742C469.066,497.875,471.61,494.416,474.153,491.904C476.696,489.392,479.976,487.64,482.853,486.669C485.73,485.699,488.913,485.656,491.415,486.082C493.917,486.507,496.285,487.827,497.867,489.222C499.448,490.617,500.529,492.693,500.906,494.452C501.282,496.212,500.932,498.309,500.126,499.779C499.321,501.248,496.053,503.248,496.072,503.271C496.092,503.294,498.649,500.442,500.241,499.916C501.832,499.389,503.958,499.424,505.62,500.113C507.282,500.802,509.128,502.241,510.214,504.049C511.3,505.857,512.169,508.424,512.135,510.962C512.1,513.5,511.482,516.622,510.007,519.276C508.532,521.93,506.215,524.839,503.285,526.885C500.354,528.931,496.491,530.808,492.422,531.554C488.352,532.3,483.459,532.435,478.867,531.361C474.274,530.287,469.158,528.231,464.868,525.11C460.578,521.989,456.215,517.663,453.124,512.635C450.033,507.606,447.401,501.354,446.323,494.94C445.244,488.525,445.147,481.097,446.653,474.147C448.159,467.198,451.064,459.658,455.357,453.242C459.651,446.826,465.573,440.406,472.414,435.65C479.256,430.894,487.707,426.8,496.405,424.707C505.102,422.614,515.122,421.821,524.598,423.093C534.074,424.364,544.335,427.443,553.259,432.335C562.184,437.227,571.169,444.206,578.144,452.444C585.119,460.682,591.339,470.993,595.111,481.765C598.882,492.537,601.111,505.048,600.773,517.075C600.435,529.102,597.918,542.238,593.081,553.929C588.244,565.62,580.855,577.561,571.752,587.22C562.649,596.878,550.961,605.812,538.464,611.88C525.966,617.949,511.224,622.333,496.768,623.631C482.312,624.929,471.929,629.666,451.729,619.67C431.528,609.674,391.548,580.81,375.565,563.655C359.582,546.499,359.447,533.35,355.831,516.737C352.215,500.124,336.909,493.619,353.871,463.977C370.834,434.334,411.104,353.773,457.608,338.882C504.112,323.991,593.621,349.122,632.896,374.63C672.172,400.138,683.916,460.755,693.263,491.932C702.611,523.11,694.581,539.145,688.982,561.695C683.383,584.245,673.191,607.576,659.669,627.234C646.148,646.891,627.931,665.63,607.853,679.64C587.774,693.649,563.523,705.073,539.198,711.29C514.873,717.507,487.481,719.732,461.902,716.942C436.323,714.151,416.701,718.119,385.721,694.546C354.742,670.973,295.077,623.562,276.024,575.503C256.972,527.445,264.959,447.357,271.407,406.195C277.854,365.033,281.407,356.498,314.708,328.53C348.01,300.563,402.145,236.422,471.218,238.389C540.291,240.356,758.069,254.936,729.148,340.335C700.226,425.735,372.298,769.54,297.69,750.786C223.081,732.031,245.492,329.524,281.496,227.807C317.5,126.09,421.186,122.978,513.714,140.484C606.241,157.99,846.547,205.337,836.662,332.843C826.776,460.348,541.671,816.198,454.4,905.516C367.129,994.834,370.903,909.653,313.036,868.749C255.169,827.844,144.669,744.865,107.2,660.088C69.73,575.311,-15.169,449.587,88.219,360.086C191.607,270.585,602.102,144.799,727.528,123.082C852.953,101.366,810.585,189.022,840.771,229.788C870.958,270.554,901.189,295.372,908.647,367.678C916.104,439.984,903.615,594.169,885.517,663.627C867.418,733.085,919.216,839.952,800.055,784.426C680.894,728.9,201.514,432.844,170.55,330.471C139.586,228.098,510.508,170.085,614.272,170.19C718.037,170.295,757.449,285.272,793.137,331.101C828.825,376.93,844.695,375.442,828.401,445.166C812.107,514.89,734.41,690.823,695.372,749.446C656.335,808.069,646.599,792.457,594.177,796.905C541.755,801.354,443.778,821.283,380.839,776.138C317.899,730.993,221.603,609.237,216.54,526.036C211.476,442.835,272.589,308.805,350.458,276.932C428.326,245.06,621.338,312.381,683.749,334.802C746.161,357.223,716.164,384.625,724.926,411.459C733.688,438.294,737.509,468.228,736.322,495.807C735.136,523.385,728.355,552.098,717.806,576.931C707.258,601.763,703.648,622.261,673.034,644.8C642.419,667.34,589.166,716.029,534.121,712.169C479.075,708.309,379.235,647.439,342.761,621.64C306.287,595.841,320.363,579.409,315.274,557.378C310.186,535.346,302.648,519.605,312.231,489.453C321.813,459.302,343.85,402.376,372.771,376.469C401.692,350.561,457.34,339.307,485.756,334.009C514.172,328.71,519.974,330.856,543.266,344.678C566.559,358.501,609.155,396.509,625.511,416.945C641.867,437.38,639.224,450.431,641.404,467.292C643.584,484.154,642.366,502.175,638.593,518.114C634.819,534.053,627.581,549.866,618.765,562.926C609.949,575.986,598.054,587.738,585.695,596.475C573.336,605.212,558.66,611.71,544.609,615.348C530.558,618.985,515.2,619.813,501.39,618.299C487.58,616.785,473.568,612.302,461.748,606.266C449.928,600.23,438.954,591.468,430.468,582.084C421.983,572.7,415.196,561.175,410.834,549.961C406.472,538.748,404.364,526.216,404.295,514.803C404.225,503.39,406.617,491.588,410.416,481.484C414.216,471.381,420.331,461.787,427.092,454.18C433.852,446.572,442.481,440.223,450.977,435.839C459.474,431.456,469.178,428.834,478.072,427.881C486.967,426.928,496.303,427.943,504.345,430.122C512.387,432.301,520.123,436.356,526.324,440.955C532.524,445.554,537.795,451.678,541.55,457.717C545.304,463.756,547.71,470.784,548.851,477.188C549.992,483.592,549.616,490.364,548.395,496.139C547.175,501.914,544.52,507.455,541.529,511.837C538.538,516.219,534.411,519.875,530.447,522.43C526.483,524.986,521.829,526.504,517.746,527.169C513.662,527.835,509.394,527.366,505.946,526.424C502.497,525.483,499.338,523.522,497.056,521.519C494.775,519.515,493.143,516.782,492.257,514.404C491.372,512.025,491.327,509.315,491.742,507.247C492.157,505.179,493.412,503.204,494.745,501.996C496.079,500.788,498.07,500.041,499.745,500.001C501.421,499.962,504.788,501.788,504.799,501.76C504.809,501.732,501.059,500.947,499.806,499.834C498.554,498.721,497.519,496.864,497.282,495.08C497.045,493.296,497.365,490.978,498.386,489.132C499.406,487.287,501.192,485.248,503.406,484.006C505.619,482.764,508.631,481.734,511.667,481.681C514.703,481.627,518.381,482.174,521.62,483.685C524.86,485.196,528.419,487.598,531.104,490.746C533.789,493.894,536.358,498.061,537.729,502.573C539.101,507.086,539.886,512.543,539.335,517.82C538.784,523.097,537.227,529.04,534.424,534.235C531.621,539.429,527.53,544.839,522.519,548.987C517.508,553.135,511.128,556.941,504.36,559.121C497.591,561.3,489.611,562.564,481.907,562.064C474.203,561.563,465.68,559.655,458.136,556.118C450.592,552.581,442.813,547.319,436.644,540.841C430.474,534.364,424.768,526.089,421.119,517.252C417.471,508.415,414.994,497.992,414.755,487.817C414.516,477.643,416.053,466.371,419.687,456.206C423.321,446.041,429.127,435.492,436.559,426.83C443.991,418.168,453.701,409.97,464.279,404.236C474.856,398.502,487.485,394.097,500.026,392.425C512.567,390.752,526.603,391.162,539.523,394.2C552.443,397.238,566.031,402.876,577.545,410.65C589.059,418.424,600.241,428.985,608.608,440.845C616.976,452.704,623.97,467.15,627.75,481.806C631.53,496.462,633.006,513.117,631.288,528.78C629.57,544.444,624.868,561.187,617.441,575.787C610.014,590.386,599.293,604.921,586.728,616.375C574.163,627.829,558.43,637.998,542.052,644.509C525.674,651.02,506.706,655.116,488.462,655.442C470.217,655.768,450.36,652.802,432.586,646.466C414.811,640.129,396.691,630.019,381.814,617.423C366.937,604.827,353.114,588.462,343.323,570.888C333.533,553.315,326.14,532.493,323.072,511.982C320.003,491.47,320.434,468.706,324.911,447.817C329.389,426.928,338.058,405.15,349.935,386.646C361.812,368.142,378.047,350.313,396.173,336.796C414.299,323.278,436.369,311.997,458.69,305.542C481.01,299.087,506.308,296.216,530.095,298.067C553.882,299.918,568.824,282.757,601.412,316.647C634,350.537,706.542,457.16,725.623,501.407C744.704,545.654,723.907,556.367,715.899,582.131C707.891,607.895,756.609,657.43,677.575,655.99C598.541,654.55,304.527,633.343,241.695,573.49C178.864,513.636,213.568,336.721,300.586,296.87C387.605,257.019,677.503,292.296,763.806,334.385C850.109,376.474,814.756,495.093,818.405,549.406C822.055,603.719,890.995,703.095,785.701,660.264C680.407,617.433,271.613,370.532,186.641,292.422C101.669,214.311,240.902,219.084,275.868,191.601C310.834,164.117,353.464,141.209,396.436,127.522C439.409,113.834,488.032,107.218,533.7,109.478C579.369,111.737,613.768,103.28,670.447,141.076C727.127,178.872,846.291,233.15,873.778,336.254C901.266,439.359,859.969,671.553,835.373,759.702C810.776,847.852,818.818,843.877,726.198,865.151C633.579,886.425,387.399,923.503,279.655,887.347C171.911,851.19,75.704,775.452,79.735,648.213C83.766,520.974,217.835,215.646,303.842,123.912C389.85,32.178,525.186,91.602,595.778,97.809C666.37,104.017,679.449,111.482,727.394,161.157C775.339,210.832,863.31,311.395,883.449,395.858C903.589,480.321,868.171,604.704,848.229,667.934C828.287,731.164,818.772,741.552,763.797,775.239C708.823,808.925,619.461,904.863,518.382,870.054C417.303,835.244,178.237,679.653,157.324,566.381C136.411,453.108,334.491,255.17,392.904,190.419C451.317,125.669,470.293,175.294,507.803,177.879C545.313,180.464,591.836,113.532,617.965,205.928C644.093,298.325,672.306,638.251,664.575,732.256C656.845,826.26,630.863,778.506,571.584,769.958C512.305,761.41,360.005,738.668,308.901,680.97C257.798,623.271,264.668,478.976,264.962,423.768C265.256,368.56,278.588,374.855,310.666,349.72C342.744,324.586,398.123,270.558,457.43,272.963C516.738,275.368,626.345,337.532,666.51,364.153C706.676,390.774,702.471,388.195,698.423,432.687C694.374,477.179,661.13,591.925,642.221,631.106C623.311,670.288,605.281,659.368,584.966,667.778C564.65,676.188,541.68,680.861,520.328,681.565C498.976,682.269,482.993,686.348,456.853,672.004C430.714,657.661,382.316,617.441,363.491,595.506C344.667,573.57,346.992,559.007,343.906,540.391C340.82,521.775,341.42,501.706,344.974,483.809C348.528,465.911,355.92,447.969,365.231,433.004C374.541,418.039,387.338,404.357,400.837,394.021C414.336,383.685,430.542,375.709,446.226,370.987C461.91,366.265,479.222,364.605,494.942,365.69C510.662,366.775,526.792,371.179,540.546,377.496C554.3,383.814,567.278,393.258,577.466,403.594C587.655,413.931,596.067,426.807,601.678,439.517C607.288,452.226,610.43,466.598,611.13,479.852C611.829,493.106,609.746,506.993,605.877,519.039C602.008,531.085,595.436,542.733,587.917,552.127C580.399,561.521,570.61,569.625,560.769,575.404C550.927,581.183,539.516,585.028,528.868,586.803C518.22,588.578,506.854,588.093,496.883,586.055C486.912,584.017,477.093,579.731,469.042,574.575C460.991,569.418,453.859,562.335,448.577,555.115C443.295,547.896,439.495,539.307,437.351,531.256C435.207,523.205,434.84,514.478,435.712,506.808C436.585,499.137,439.243,491.507,442.588,485.232C445.932,478.957,450.809,473.352,455.779,469.156C460.749,464.96,466.799,461.892,472.408,460.054C478.017,458.216,484.142,457.737,489.433,458.13C494.724,458.523,499.956,460.262,504.154,462.412C508.351,464.562,511.997,467.828,514.619,471.029C517.242,474.229,518.975,478.157,519.888,481.613C520.801,485.069,520.688,488.786,520.097,491.764C519.506,494.743,517.959,497.524,516.345,499.483C514.73,501.441,512.407,502.837,510.41,503.515C508.412,504.192,506.074,504.096,504.36,503.547C502.647,502.998,501.003,501.65,500.129,500.22C499.255,498.79,499.148,494.96,499.118,494.966C499.089,494.971,500.289,498.609,499.953,500.251C499.618,501.893,498.529,503.719,497.104,504.818C495.679,505.916,493.513,506.801,491.404,506.843C489.295,506.885,486.636,506.361,484.452,505.068C482.268,503.774,479.868,501.684,478.3,499.084C476.733,496.483,475.363,493.026,475.047,489.466C474.732,485.905,475.027,481.621,476.406,477.72C477.785,473.819,480.103,469.508,483.32,466.06C486.538,462.612,490.867,459.198,495.71,457.031C500.553,454.863,506.476,453.233,512.376,453.055C518.276,452.877,525.008,453.707,531.108,455.965C537.209,458.222,543.699,461.836,548.977,466.601C554.255,471.367,559.348,477.639,562.775,484.557C566.203,491.474,568.823,499.806,569.542,508.107C570.262,516.408,569.606,525.777,567.092,534.362C564.578,542.947,560.277,552.031,554.457,559.617C548.638,567.202,540.859,574.57,532.174,579.875C523.489,585.18,512.964,589.498,502.347,591.447C491.729,593.396,479.69,593.658,468.471,591.567C457.251,589.476,445.291,585.181,435.028,578.901C424.765,572.62,414.625,563.899,406.893,553.884C399.161,543.87,392.482,531.517,388.637,518.814C384.791,506.111,382.862,491.527,383.82,477.667C384.777,463.808,381.834,453.273,394.384,435.655C406.933,418.038,440.392,384.507,459.117,371.963C477.842,359.419,490.379,361.28,506.734,360.391C523.089,359.502,541.041,361.497,557.249,366.631C573.458,371.765,590.142,380.284,603.984,391.194C617.825,402.105,630.874,416.467,640.299,432.092C649.723,447.717,657.107,466.387,660.531,484.944C663.954,503.502,664.285,524.248,660.84,543.435C657.394,562.621,650.159,582.785,639.857,600.063C629.556,617.342,615.242,634.173,599.029,647.107C582.816,660.041,573.952,673.581,542.58,677.668C511.207,681.756,442.487,679.046,410.794,671.633C379.101,664.221,369.191,649.275,352.42,633.194C335.649,617.112,313.771,620.851,310.169,575.146C306.568,529.442,305.358,409.491,330.811,358.968C356.264,308.444,427.02,287.142,462.886,272.008C498.752,256.873,518.655,264.442,546.008,268.161C573.36,271.881,602.144,280.946,627,294.325C651.857,307.704,676.155,326.714,695.147,348.435C714.139,370.156,730.568,397.063,740.951,424.651C751.334,452.24,765.431,470.289,757.445,513.965C749.459,557.641,748.586,643.308,693.035,686.707C637.485,730.106,497.318,778.231,424.142,774.36C350.965,770.489,291.937,715.722,253.978,663.481C216.019,611.239,201.304,512.375,196.388,460.911C191.473,409.447,155.188,400.429,224.484,354.697C293.78,308.964,508.377,150.452,612.165,186.514C715.953,222.576,828.866,470.535,847.213,571.069C865.56,671.603,805.875,743.481,722.244,789.719C638.614,835.958,448.474,891.396,345.43,848.502C242.386,805.608,142.8,608.714,103.98,532.357C65.159,455.999,61.957,463.818,112.508,390.357C163.058,316.895,274.156,99.502,407.284,91.588C540.411,83.674,839.345,226.565,911.274,342.87C983.203,459.176,896.617,691.556,838.859,789.421C781.101,887.285,635.977,908.248,564.725,930.059C493.473,951.87,469.178,1038.571,411.345,920.287C353.513,802.003,230.352,349.708,217.728,220.355C205.104,91.001,236.717,131.118,335.6,144.168C434.484,157.218,724.252,230.981,811.028,298.656C897.804,366.331,927.413,464.639,856.256,550.216C785.099,635.793,473.491,860.622,384.085,812.118C294.679,763.615,297.017,359.425,319.822,259.194C342.627,158.964,471.131,213.735,520.914,210.735C570.697,207.735,589.049,225.854,618.521,241.194C647.993,256.534,675.942,278.539,697.747,302.775C719.551,327.01,759.653,318.277,749.349,386.606C739.044,454.934,693.631,723.796,635.919,712.746C578.207,701.697,408.627,382.035,403.076,320.31C397.526,258.585,558.05,320.591,602.616,342.397C647.182,364.203,659,422.641,670.471,451.146C681.942,479.651,674.678,493.574,671.442,513.429C668.206,533.284,660.766,553.372,651.055,570.274C641.343,587.176,627.737,602.842,613.174,614.842C598.61,626.841,580.942,636.378,563.673,642.271C546.403,648.164,534.285,655.381,509.557,650.2C484.828,645.019,435.843,624.271,415.301,611.185C394.759,598.098,393.243,585.829,386.305,571.681C379.366,557.534,375.095,541.368,373.669,526.3C372.244,511.231,373.913,495.268,377.753,481.271C381.593,467.274,388.52,453.542,396.707,442.318C404.894,431.094,415.758,421.174,426.876,413.926C437.995,406.679,451.057,401.523,463.42,398.835C475.783,396.147,489.157,395.998,501.054,397.796C512.951,399.595,524.869,404.005,534.802,409.626C544.735,415.247,553.78,423.196,560.652,431.521C567.524,439.845,572.8,449.925,576.033,459.575C579.265,469.225,580.477,479.87,580.049,489.421C579.621,498.972,577.066,508.693,573.464,516.882C569.863,525.07,564.335,532.663,558.442,538.553C552.549,544.443,545.182,549.134,538.106,552.222C531.031,555.311,523.096,556.834,515.99,557.084C508.883,557.334,501.59,555.922,495.468,553.724C489.346,551.526,483.659,547.828,479.258,543.895C474.857,539.962,471.373,534.902,469.061,530.126C466.75,525.35,465.633,519.951,465.39,515.241C465.147,510.531,466.147,505.739,467.603,501.866C469.058,497.993,471.589,494.525,474.122,492.003C476.656,489.481,479.929,487.717,482.802,486.735C485.675,485.754,488.858,485.699,491.362,486.115C493.866,486.531,496.238,487.841,497.825,489.23C499.412,490.619,500.501,492.691,500.885,494.449C501.268,496.207,500.926,498.305,500.126,499.778C499.326,501.251,496.066,503.263,496.085,503.286C496.104,503.308,498.651,500.447,500.24,499.915C501.829,499.382,503.955,499.409,505.62,500.092C507.285,500.774,509.136,502.206,510.229,504.01C511.322,505.814,512.201,508.378,512.177,510.916C512.152,513.454,511.546,516.578,510.081,519.238C508.616,521.897,506.311,524.815,503.388,526.872C500.465,528.93,496.61,530.821,492.543,531.583C488.476,532.344,483.583,532.498,478.987,531.442C474.391,530.385,469.267,528.349,464.965,525.245C460.662,522.14,456.283,517.831,453.173,512.814C450.063,507.798,447.407,501.556,446.304,495.146C445.201,488.735,445.075,481.307,446.554,474.352C448.034,467.397,450.91,459.846,455.178,453.414C459.447,446.981,465.345,440.539,472.168,435.757C478.991,430.975,487.427,426.847,496.116,424.721C504.805,422.595,514.822,421.764,524.303,422.999C533.783,424.234,544.056,427.274,553,432.131C561.943,436.989,570.954,443.933,577.961,452.145C584.968,460.356,591.228,470.643,595.04,481.4C598.853,492.158,601.13,504.66,600.838,516.688C600.545,528.717,598.079,541.862,593.287,553.572C588.495,565.281,581.152,577.251,572.086,586.944C563.021,596.637,551.367,605.615,538.892,611.732C526.418,617.848,511.693,622.289,497.242,623.642C482.791,624.996,466.781,623.872,452.188,619.855C437.595,615.837,422.415,608.827,409.686,599.54C396.956,590.252,384.775,577.84,375.81,564.132C366.845,550.423,359.575,533.888,355.896,517.289C352.217,500.69,351.229,481.983,353.734,464.537C356.24,447.092,362.13,428.602,370.929,412.616C379.728,396.631,392.184,380.885,406.528,368.623C420.872,356.362,438.66,345.679,456.99,339.046C475.32,332.413,496.395,328.57,516.51,328.827C536.625,329.084,558.363,333.037,577.68,340.586C596.998,348.135,616.526,359.84,632.415,374.121C648.303,388.403,662.876,406.763,673.012,426.274C683.148,445.786,690.53,468.742,693.231,491.191C695.932,513.64,694.73,538.398,689.217,560.97C683.705,583.541,685.024,601.592,660.156,626.62C635.288,651.649,572.911,696.061,540.008,711.138C507.104,726.216,499.186,727.881,462.734,717.086C426.283,706.291,352.367,669.82,321.297,646.366C290.227,622.912,286.803,601.896,276.316,576.362C265.828,550.827,240.578,544.186,258.371,493.161C276.165,442.136,347.77,312.656,383.078,270.213C418.385,227.769,497.597,172.201,470.215,238.501C442.833,304.801,250.412,669.654,218.785,668.012C187.158,666.37,210.36,312.9,280.454,228.647C350.548,144.394,586.211,52.221,639.351,162.492C692.49,272.763,653.441,772.445,599.291,890.273C545.141,1008.102,402.55,932.106,314.452,869.463C226.354,806.82,26.339,649.039,70.706,514.416C115.073,379.793,441.084,86.443,580.656,61.726C720.228,37.008,850.941,290.219,908.136,366.112C965.331,442.004,1014.359,550.345,923.826,517.083C833.292,483.821,386.824,197.722,364.934,166.537C343.044,135.353,715.278,283.75,792.487,329.978C869.696,376.206,879.297,364.605,828.189,443.907C777.08,523.209,560.22,750.342,485.838,805.79C411.457,861.238,426.765,823.037,381.899,776.593C337.033,730.149,222.024,610.304,216.642,527.123C211.259,443.942,297.227,324.689,349.603,277.508C401.979,230.326,486.499,244.324,530.898,244.035C575.297,243.745,583.717,248.009,615.998,275.769C648.279,303.53,714.987,349.203,724.585,410.597C734.183,471.992,692.76,597.388,673.588,644.136C654.415,690.884,632.659,679.769,609.551,691.086C586.442,702.403,559.924,709.618,534.934,712.037C509.944,714.456,491.56,720.565,459.609,705.6C427.658,690.634,367.798,658.146,343.229,622.242C318.659,586.338,313.995,522.672,312.191,490.174C310.388,457.675,322.392,446.12,332.41,427.25C342.427,408.381,356.748,390.682,372.298,376.958C387.848,363.234,406.907,352.056,425.71,344.907C444.514,337.758,465.626,334.13,485.12,334.065C504.613,333.999,524.988,337.923,542.67,344.513C560.352,351.104,577.459,361.614,591.212,373.606C604.966,385.597,616.848,400.94,625.192,416.464C633.536,431.988,642.308,442.416,641.277,466.75C640.246,491.084,628.207,540.904,619.005,562.47C609.803,584.036,598.39,587.362,586.065,596.146C573.739,604.93,559.088,611.485,545.051,615.176C531.014,618.867,515.659,619.753,501.844,618.293C488.028,616.832,473.999,612.403,462.156,606.412C450.313,600.422,439.305,591.702,430.784,582.35C422.262,572.999,415.431,561.5,411.026,550.303C406.621,539.106,404.466,526.583,404.352,515.17C404.239,503.758,406.585,491.947,410.346,481.828C414.107,471.71,420.185,462.093,426.916,454.46C433.647,446.826,442.252,440.444,450.732,436.028C459.212,431.612,468.905,428.952,477.796,427.965C486.687,426.978,496.027,427.958,504.077,430.106C512.127,432.254,519.879,436.279,526.097,440.854C532.315,445.43,537.609,451.533,541.387,457.558C545.165,463.582,547.598,470.601,548.763,477.001C549.929,483.4,549.578,490.174,548.38,495.954C547.182,501.733,544.549,507.284,541.574,511.678C538.6,516.071,534.487,519.743,530.533,522.313C526.579,524.884,521.931,526.42,517.85,527.101C513.769,527.782,509.499,527.33,506.047,526.401C502.595,525.473,499.428,523.524,497.139,521.53C494.85,519.535,493.207,516.809,492.313,514.433C491.418,512.058,491.363,509.348,491.77,507.279C492.177,505.209,493.424,503.229,494.753,502.016C496.082,500.803,498.07,500.048,499.745,500.002C501.42,499.957,504.795,501.769,504.805,501.741C504.815,501.713,501.063,500.943,499.806,499.835C498.549,498.726,497.507,496.873,497.263,495.09C497.019,493.308,497.33,490.988,498.344,489.139C499.358,487.289,501.136,485.243,503.345,483.993C505.553,482.742,508.561,481.701,511.596,481.636C514.632,481.571,518.312,482.104,521.557,483.602C524.803,485.101,528.371,487.489,531.068,490.627C533.765,493.765,536.35,497.922,537.739,502.429C539.128,506.936,539.934,512.39,539.403,517.669C538.872,522.948,537.338,528.897,534.555,534.102C531.772,539.308,527.701,544.734,522.707,548.9C517.712,553.067,511.347,556.898,504.587,559.103C497.826,561.309,489.851,562.603,482.145,562.133C474.439,561.662,465.909,559.786,458.352,556.278C450.794,552.77,442.995,547.538,436.801,541.084C430.607,534.63,424.868,526.378,421.186,517.555C417.504,508.731,414.987,498.318,414.709,488.145C414.431,477.971,415.925,466.693,419.52,456.514C423.115,446.336,428.88,435.764,436.279,427.074C443.677,418.384,453.356,410.149,463.911,404.374C474.467,398.599,487.079,394.146,499.613,392.425C512.148,390.705,526.186,391.061,539.117,394.049C552.049,397.037,565.658,402.624,577.202,410.353C588.746,418.083,599.967,428.601,608.38,440.428C616.793,452.256,623.843,466.675,627.679,481.316C631.516,495.957,633.055,512.607,631.397,528.277C629.739,543.947,625.102,560.708,617.731,575.335C610.36,589.963,599.694,604.54,587.173,616.041C574.653,627.543,558.959,637.773,542.606,644.347C526.253,650.921,507.301,655.089,489.058,655.485C470.815,655.881,450.947,652.991,433.148,646.723C415.349,640.455,397.191,630.414,382.265,617.875C367.34,605.336,353.454,589.025,343.596,571.489C333.738,553.953,326.266,533.16,323.119,512.66C319.972,492.16,312.641,477.733,324.713,448.489C336.784,419.245,373.342,360.993,395.548,337.195C417.753,313.397,435.649,312.242,457.944,305.702C480.24,299.162,505.526,296.193,529.32,297.953C553.114,299.712,578.483,305.989,600.708,316.26C622.932,326.53,641.848,328.861,662.668,359.575C683.488,390.289,733.544,441.716,725.627,500.541C717.709,559.367,661.867,671.539,615.164,712.529C568.461,753.52,487.98,745.851,445.409,746.484C402.837,747.118,396.158,760.889,359.736,716.331C323.314,671.772,223.327,559.27,226.874,479.133C230.422,398.996,338.718,281.158,381.019,235.51C423.32,189.862,446.428,209.171,480.679,205.247C514.929,201.322,552.464,203.482,586.523,211.963C620.583,220.444,699.937,150.851,685.035,256.135C670.134,361.419,548.756,748.695,497.115,843.668C445.474,938.64,413.79,838.953,375.191,825.969C336.593,812.984,305.04,812,265.525,765.761C226.009,719.522,93.65,657.937,138.096,548.535C182.543,439.134,423.888,164.356,532.202,109.351C640.516,54.346,726.62,132.917,787.981,218.506C849.342,304.096,892.305,532.903,900.369,622.888C908.433,712.872,973.043,753.925,836.366,758.414C699.689,762.903,209.738,693.948,80.307,649.824C-49.125,605.699,57.364,544.959,59.778,493.665C62.192,442.371,74.818,388.688,94.791,342.06C114.764,295.432,74.398,244.193,179.615,213.897C284.832,183.602,618.316,151.945,726.093,160.287C833.869,168.63,800.113,224.936,826.273,263.953C852.432,302.97,893.284,309.343,883.047,394.388C872.81,479.434,825.392,694.959,764.851,774.225C704.31,853.49,582.149,857.614,519.801,869.98C457.454,882.347,444.349,879.088,390.767,848.422C337.185,817.757,229.055,772.042,198.31,685.986C167.565,599.93,174.064,414.611,206.298,332.085C238.533,249.559,293.01,168.913,391.717,190.832C490.424,212.752,768.391,367.125,798.541,463.6C828.691,560.075,626.671,718.164,572.619,769.682C518.566,821.199,525.827,800.732,474.225,772.706C422.623,744.68,297.934,659.533,263.008,601.527C228.082,543.521,206.761,473.351,264.671,424.67C322.581,375.989,537.23,295.99,610.466,309.442C683.703,322.895,691.779,461.223,704.092,505.385C716.406,549.546,694.574,553.549,684.346,574.411C674.118,595.274,659.179,615.053,642.723,630.56C626.267,646.067,605.892,658.963,585.608,667.451C565.325,675.938,542.374,680.699,521.024,681.486C499.675,682.272,483.708,686.411,457.513,672.169C431.319,657.926,382.767,617.892,363.858,596.029C344.95,574.165,347.219,559.594,344.062,540.989C340.904,522.385,341.427,502.315,344.913,484.403C348.398,466.492,355.722,448.522,364.975,433.521C374.228,418.521,386.972,404.79,400.431,394.402C413.89,384.015,422.457,374.038,445.731,371.194C469.005,368.351,518.182,371.991,540.076,377.342C561.97,382.692,566.868,393,577.096,403.298C587.324,413.596,595.786,426.439,601.445,439.127C607.104,451.815,610.301,466.175,611.051,479.426C611.802,492.677,609.772,506.572,605.949,518.632C602.127,530.693,595.599,542.367,588.117,551.79C580.635,561.212,570.877,569.353,561.058,575.17C551.238,580.987,539.842,584.875,529.201,586.691C518.56,588.507,507.192,588.066,497.213,586.066C487.234,584.066,477.399,579.818,469.328,574.693C461.258,569.567,454.098,562.512,448.789,555.312C443.48,548.113,439.646,539.539,437.471,531.496C435.296,523.453,434.896,514.728,435.739,507.054C436.582,499.38,439.211,491.74,442.532,485.452C445.852,479.164,450.707,473.541,455.661,469.326C460.615,465.111,466.653,462.019,472.255,460.16C477.857,458.301,483.98,457.798,489.273,458.171C494.565,458.543,499.804,460.262,504.01,462.396C508.215,464.53,511.874,467.783,514.508,470.973C517.143,474.163,518.891,478.085,519.817,481.537C520.743,484.99,520.644,488.707,520.065,491.687C519.486,494.668,517.95,497.455,516.343,499.42C514.736,501.384,512.418,502.79,510.423,503.475C508.428,504.16,506.09,504.073,504.374,503.53C502.659,502.988,501.009,501.646,500.13,500.219C499.251,498.793,499.128,494.964,499.099,494.969C499.07,494.974,500.284,498.608,499.954,500.251C499.625,501.894,498.543,503.725,497.123,504.829C495.702,505.933,493.539,506.826,491.43,506.876C489.322,506.926,486.66,506.412,484.472,505.127C482.283,503.842,479.874,501.761,478.297,499.167C476.72,496.573,475.337,493.121,475.007,489.561C474.678,486.002,474.957,481.717,476.32,477.811C477.684,473.905,479.986,469.585,483.19,466.124C486.395,462.664,490.711,459.233,495.545,457.047C500.38,454.861,506.297,453.208,512.196,453.008C518.095,452.807,524.83,453.611,530.939,455.846C537.048,458.08,543.553,461.669,548.849,466.414C554.145,471.159,559.262,477.412,562.716,484.316C566.17,491.221,568.822,499.542,569.573,507.84C570.324,516.138,569.704,525.509,567.223,534.104C564.742,542.699,560.476,551.8,554.686,559.408C548.895,567.015,541.145,574.412,532.48,579.751C523.816,585.089,513.307,589.448,502.697,591.437C492.088,593.427,480.05,593.735,468.822,591.687C457.594,589.639,445.618,585.39,435.331,579.149C425.044,572.908,414.871,564.226,407.1,554.241C399.33,544.256,392.604,531.929,388.71,519.241C384.816,506.553,382.83,491.977,383.735,478.113C384.64,464.25,388.118,449.268,394.138,436.061C400.157,422.854,409.102,409.527,419.85,398.871C430.598,388.214,444.235,378.539,458.626,372.121C473.018,365.704,489.847,361.318,506.198,360.366C522.55,359.415,540.51,361.34,556.737,366.412C572.965,371.484,586.276,371.144,603.565,390.796C620.855,410.449,650.899,458.992,660.472,484.329C670.045,509.666,664.377,523.618,661.005,542.818C657.633,562.017,659.864,577.078,640.24,599.526C620.616,621.974,581.392,665.429,543.261,677.504C505.13,689.578,443.174,679.265,411.453,671.974C379.731,664.683,344.505,700.396,352.932,633.759C361.358,567.122,405.073,319.83,462.012,272.152C518.951,224.473,647.962,292.324,694.564,347.688C741.166,403.052,741.761,547.957,741.625,604.337C741.489,660.716,729.774,657.001,693.75,685.965C657.726,714.93,577.429,859.092,525.478,778.123C473.528,697.154,387.251,301.092,382.049,200.149C376.847,99.207,438.412,165.727,494.267,172.468C550.122,179.21,665.274,154.397,717.181,240.6C769.089,326.802,804.684,598.306,805.712,689.684C806.741,781.062,833.339,792.497,723.354,788.865C613.369,785.232,238.015,756.058,145.801,667.89C53.588,579.721,42.593,314.288,170.071,259.856C297.548,205.423,784.962,275.794,910.668,341.294C1036.374,406.793,1060.633,630.638,924.308,652.851C787.984,675.065,210.663,546.477,92.721,474.575C-25.221,402.673,153.886,281.434,216.658,221.439C279.429,161.445,370.417,101.938,469.349,114.609C568.282,127.28,753.123,205.253,810.253,297.465C867.383,389.676,894.021,674.142,812.129,667.879C730.236,661.616,384.948,335.057,318.899,259.887C252.851,184.717,344.167,195.898,415.836,216.858C487.505,237.819,712.096,303.09,748.912,385.65C785.728,468.211,669.43,652.932,636.734,712.223C604.038,771.515,581.234,736.888,552.736,741.398C524.237,745.909,493.401,744.938,465.744,739.286C438.087,733.634,410.179,722.153,386.795,707.486C363.41,692.818,341.805,672.726,325.436,651.28C309.068,629.833,275.757,633.904,288.582,578.804C301.407,523.705,371.815,366.62,402.388,320.683C432.96,274.746,448.838,304.785,472.018,303.182C495.197,301.579,519.8,304.595,541.465,311.065C563.131,317.536,584.501,328.705,602.011,342.005C619.52,355.304,635.141,372.781,646.52,390.862C657.898,408.943,666.12,430.174,670.283,450.492C674.445,470.811,674.652,492.904,671.492,512.771C668.333,532.638,660.97,552.755,651.323,569.694C641.677,586.634,628.131,602.351,613.613,614.407C599.096,626.462,581.465,636.066,564.218,642.026C546.971,647.985,527.75,650.653,510.133,650.162C492.515,649.671,474.246,645.523,458.512,639.081C442.778,632.639,427.716,622.67,415.728,611.509C403.739,600.348,393.573,586.237,386.581,572.117C379.588,557.996,375.254,541.847,373.771,526.784C372.288,511.721,373.896,495.752,377.682,481.74C381.468,467.729,388.343,453.97,396.487,442.715C404.631,431.459,415.456,421.497,426.547,414.208C437.638,406.918,450.68,401.712,463.032,398.976C475.385,396.24,488.758,396.04,500.662,397.793C512.566,399.546,524.5,403.911,534.455,409.493C544.409,415.076,553.485,422.99,560.389,431.288C567.292,439.587,572.607,449.646,575.877,459.284C579.147,468.921,580.399,479.561,580.008,489.114C579.617,498.667,577.098,508.397,573.529,516.6C569.959,524.802,564.46,532.416,558.59,538.328C552.719,544.241,545.37,548.96,538.306,552.076C531.243,555.191,523.314,556.745,516.208,557.022C509.103,557.3,501.804,555.916,495.674,553.741C489.543,551.567,483.843,547.89,479.426,543.974C475.01,540.058,471.507,535.011,469.177,530.244C466.847,525.478,465.71,520.083,465.449,515.374C465.188,510.665,466.17,505.869,467.61,501.991C469.051,498.112,471.568,494.634,474.092,492.102C476.616,489.571,479.882,487.794,482.751,486.801C485.621,485.809,488.803,485.742,491.308,486.148C493.814,486.554,496.191,487.856,497.784,489.239C499.376,490.622,500.473,492.689,500.863,494.446C501.253,496.202,500.919,498.302,500.125,499.778C499.331,501.253,496.078,503.278,496.098,503.301C496.117,503.323,498.653,500.452,500.24,499.914C501.827,499.375,503.953,499.394,505.621,500.07C507.288,500.746,509.145,502.171,510.244,503.97C511.344,505.77,512.233,508.331,512.218,510.869C512.203,513.407,511.609,516.534,510.155,519.199C508.7,521.864,506.406,524.79,503.491,526.859C500.576,528.928,496.728,530.834,492.664,531.611C488.6,532.388,483.708,532.561,479.108,531.522C474.507,530.483,469.376,528.467,465.062,525.379C460.747,522.291,456.351,517.998,453.222,512.994C450.093,507.989,447.413,501.758,446.286,495.352C445.158,488.946,445.004,481.518,446.456,474.557C447.909,467.596,450.756,460.035,455,453.586C459.244,447.137,465.117,440.672,471.922,435.864C478.726,431.056,487.146,426.896,495.827,424.736C504.508,422.577,514.522,421.708,524.007,422.906C533.492,424.105,543.777,427.105,552.739,431.928C561.7,436.752,570.739,443.661,577.777,451.846C584.815,460.03,591.114,470.293,594.968,481.036C598.822,491.779,601.147,504.272,600.901,516.301C600.655,528.331,598.239,541.486,593.492,553.213C588.745,564.941,581.448,576.939,572.419,586.667C563.391,596.395,551.771,605.418,539.321,611.582C526.87,617.746,524.927,631.481,497.716,623.652C470.506,615.823,400.076,591.033,376.057,564.607C352.037,538.182,354.51,490.348,353.599,465.099C352.689,439.85,361.857,429.132,370.595,413.112C379.332,397.093,391.728,381.3,406.025,368.983C420.321,356.666,418.722,338.44,456.373,339.212C494.024,339.984,595.872,359.214,631.931,373.614C667.99,388.014,663.141,394.506,672.728,425.611C682.314,456.716,700.033,518.044,689.45,560.243C678.866,602.443,659.6,656.278,609.228,678.807C558.856,701.336,435.112,700.71,387.217,695.417C339.322,690.124,340.294,666.75,321.859,647.051C303.425,627.351,287.196,602.713,276.61,577.219C266.025,551.725,252.215,535.298,258.347,494.088C264.478,452.878,292.757,367.194,313.398,329.957C334.04,292.719,356.228,285.886,382.197,270.663C408.166,255.44,405.368,178.734,469.212,238.617C533.055,298.501,757.874,534.537,765.258,629.966C772.641,725.395,604.484,804.67,513.513,811.19C422.542,817.711,271.122,749.884,219.432,669.089C167.742,588.295,193.376,399.692,203.373,326.426C213.37,253.159,188.111,245.955,279.415,229.491C370.718,213.027,658.536,210.847,751.195,227.642C843.854,244.438,814.741,269.179,835.369,330.265C855.998,391.35,877.065,528.802,874.967,594.155C872.869,659.509,868.477,673.099,822.78,722.388C777.084,771.677,723.391,949.746,600.787,889.89C478.184,830.033,161.144,474.206,87.158,363.249C13.171,252.291,101.454,275.315,156.869,224.143C212.285,172.97,349.301,83.336,419.651,56.215C490.002,29.095,509.135,32.925,578.974,61.42C648.814,89.914,787.391,127.308,838.688,227.182C889.986,327.056,912.86,554.329,886.76,660.665C860.66,767,739.496,825.225,682.088,865.194C624.68,905.163,589.172,897.211,542.311,900.477C495.45,903.743,445.361,897.962,400.923,884.789C356.484,871.617,312.194,848.965,275.681,821.442C239.169,793.918,185.763,817.917,181.848,719.647C177.932,621.377,145.488,258.433,252.187,231.823C358.887,205.213,734.719,487.613,822.043,559.985C909.367,632.357,849.311,629.88,776.131,666.056C702.95,702.233,462.791,768.934,382.961,777.044C303.13,785.154,324.851,756.191,297.149,714.718C269.446,673.246,227.946,575.873,216.748,528.21C205.549,480.547,207.956,470.426,229.957,428.739C251.957,387.052,298.758,308.89,348.751,278.086C398.744,247.283,485.519,244.378,529.916,243.918C574.314,243.458,580.742,233.647,615.137,275.326C649.531,317.005,719.074,444.005,736.283,493.994C753.492,543.982,789.078,575.774,718.39,575.258C647.702,574.741,376.532,515.455,312.155,490.894C247.779,466.333,322.186,446.801,332.132,427.894C342.077,408.986,356.33,391.232,371.827,377.449C387.325,363.665,406.34,352.414,425.116,345.193C443.892,337.972,464.99,334.263,484.483,334.123C503.976,333.982,524.366,337.829,542.073,344.351C559.781,350.873,576.927,361.318,590.727,373.257C604.526,385.195,616.467,400.492,624.87,415.984C633.274,431.476,638.839,449.364,641.149,466.208C643.458,483.053,647.847,495.449,638.727,517.05C629.608,538.651,601.972,579.49,586.433,595.815C570.894,612.14,559.515,611.257,545.493,615.002C531.47,618.747,516.119,619.693,502.297,618.285C488.476,616.877,474.431,612.502,462.564,606.557C450.698,600.612,439.658,591.934,431.1,582.615C422.543,573.296,415.668,561.824,411.22,550.644C406.772,539.464,404.568,526.949,404.411,515.537C404.254,504.125,406.555,492.305,410.277,482.172C413.999,472.04,420.041,462.4,426.742,454.74C433.444,447.081,442.024,440.666,450.487,436.217C458.95,431.769,468.633,429.072,477.52,428.051C486.407,427.03,495.751,427.973,503.809,430.091C511.868,432.208,519.634,436.203,525.87,440.755C532.106,445.306,537.423,451.389,541.224,457.399C545.025,463.409,547.485,470.419,548.675,476.814C549.865,483.209,549.54,489.984,548.364,495.768C547.188,501.552,544.576,507.113,541.619,511.518C538.661,515.923,534.562,519.61,530.618,522.196C526.674,524.782,522.032,526.335,517.953,527.032C513.875,527.729,509.603,527.293,506.148,526.378C502.693,525.463,499.518,523.526,497.221,521.541C494.925,519.555,493.272,516.835,492.368,514.463C491.464,512.091,491.399,509.381,491.798,507.31C492.197,505.239,493.436,503.254,494.761,502.036C496.085,500.818,498.07,500.056,499.745,500.003C501.42,499.951,504.802,501.751,504.812,501.723C504.822,501.695,501.066,500.939,499.805,499.836C498.544,498.732,497.495,496.883,497.244,495.101C496.994,493.319,497.296,490.998,498.302,489.145C499.309,487.291,501.079,485.239,503.283,483.98C505.487,482.721,508.491,481.668,511.526,481.592C514.561,481.515,518.243,482.034,521.494,483.52C524.745,485.006,528.323,487.381,531.032,490.508C533.741,493.635,536.342,497.782,537.748,502.284C539.154,506.785,539.981,512.237,539.47,517.518C538.96,522.799,537.448,528.754,534.685,533.97C531.923,539.185,527.873,544.627,522.894,548.813C517.915,552.999,511.565,556.854,504.813,559.085C498.062,561.317,490.091,562.642,482.384,562.201C474.676,561.759,466.139,559.917,458.568,556.438C450.997,552.959,443.178,547.756,436.959,541.326C430.74,534.896,424.97,526.666,421.254,517.857C417.538,509.048,414.981,498.644,414.664,488.472C414.347,478.3,415.798,467.015,419.354,456.823C422.909,446.631,428.634,436.037,436,427.319C443.365,418.601,453.011,410.328,463.545,404.513C474.078,398.698,486.673,394.197,499.201,392.428C511.728,390.659,525.768,390.962,538.71,393.9C551.653,396.838,565.284,402.372,576.857,410.058C588.431,417.744,599.693,428.218,608.151,440.013C616.609,451.808,623.715,466.2,627.607,480.826C631.499,495.453,633.103,512.096,631.505,527.772C629.907,543.449,625.334,560.228,618.019,574.883C610.705,589.539,600.095,604.156,587.618,615.706C575.141,627.256,559.487,637.546,543.159,644.182C526.832,650.819,507.896,655.06,489.654,655.526C471.413,655.992,451.534,653.178,433.711,646.978C415.889,640.778,397.692,630.808,382.718,618.326C367.745,605.844,353.796,589.586,343.872,572.088C333.947,554.59,326.395,533.826,323.169,513.338C319.943,492.851,320.199,470.085,324.516,449.162C328.833,428.239,315.065,413.021,349.07,387.801C383.075,362.581,486.723,309.83,528.545,297.842C570.367,285.854,577.738,305.69,600.002,315.875C622.266,326.06,644.421,341.152,662.128,358.952C679.835,376.752,695.659,399.22,706.242,422.674C716.825,446.128,723.914,473.376,725.627,499.676C727.341,525.976,724.333,554.648,716.523,580.472C708.713,606.297,695.524,632.688,678.766,654.623C662.009,676.559,654.713,696.741,615.978,712.086C577.243,727.431,511.218,785.343,446.354,746.692C381.491,708.041,221.264,570.409,226.796,480.181C232.329,389.953,390.259,229.959,479.548,205.323C568.837,180.687,707.482,294.313,762.528,332.366C817.574,370.419,805.757,379.355,809.822,433.639C813.888,487.922,838.82,589.728,786.922,658.068C735.024,726.407,584.002,921.133,498.433,843.676C412.864,766.22,268.13,315.737,273.508,193.329C278.887,70.922,445.138,105.218,530.704,109.23C616.269,113.243,729.932,180.043,786.9,217.404C843.867,254.764,864.102,243.439,872.511,333.392C880.92,423.345,884.684,658.388,837.355,757.122C790.026,855.856,718.135,969.423,588.535,925.795C458.936,882.167,59.064,633.472,59.757,495.354C60.449,357.236,465.089,135.861,592.69,97.086C720.291,58.311,777.04,213.397,825.365,262.703C873.69,312.009,892.55,307.836,882.639,392.92C872.729,478.004,847.657,697.22,765.901,773.207C684.145,849.193,473.054,846.902,392.104,848.839C311.154,850.776,227.555,881.617,280.2,784.83C332.844,688.043,631.157,288.721,707.972,268.117C784.787,247.513,763.476,577.659,741.089,661.206C718.702,744.754,617.955,750.802,573.652,769.401C529.349,788,506.921,777.355,475.271,772.803C443.621,768.252,421.65,785.401,383.751,742.091C345.852,698.782,260.247,578.1,247.875,512.948C235.503,447.796,288.098,386.913,309.519,351.177C330.94,315.442,352.037,311.514,376.399,298.534C400.761,285.554,407.513,262.572,455.69,273.296C503.867,284.021,625.095,336.568,665.463,362.88C705.832,389.191,701.607,386.645,697.9,431.167C694.194,475.689,661.831,590.686,643.223,630.012C624.614,669.337,606.501,658.556,586.25,667.121C566,675.687,543.066,680.536,521.72,681.404C500.374,682.272,477.868,678.834,458.174,672.33C438.48,665.826,419.215,655.008,403.557,642.378C387.9,629.748,374.117,613.349,364.228,596.55C354.338,579.752,347.449,560.179,344.22,541.587C340.991,522.995,341.438,502.923,344.854,484.998C348.271,467.074,355.525,449.075,364.721,434.04C373.916,419.004,386.607,405.225,400.027,394.785C413.446,384.346,429.59,376.245,445.238,371.403C460.885,366.561,478.184,364.768,493.911,365.733C509.639,366.697,525.803,370.977,539.605,377.189C553.407,383.401,566.457,392.745,576.724,403.003C586.992,413.261,595.503,426.072,601.211,438.739C606.919,451.405,610.17,465.752,610.972,479C611.773,492.248,609.796,506.151,606.02,518.226C602.244,530.301,595.761,542,588.315,551.451C580.869,560.903,571.142,569.081,561.346,574.936C551.549,580.79,540.167,584.722,529.533,586.579C518.899,588.435,507.529,588.038,497.543,586.076C487.557,584.115,477.705,579.905,469.615,574.81C461.525,569.715,454.339,562.687,449.002,555.508C443.664,548.329,439.798,539.77,437.593,531.736C435.387,523.701,434.953,514.978,435.766,507.301C436.58,499.624,439.18,491.974,442.476,485.673C445.772,479.372,450.606,473.731,455.544,469.496C460.481,465.262,466.507,462.148,472.102,460.267C477.697,458.386,483.818,457.86,489.112,458.212C494.406,458.564,499.651,460.263,503.865,462.381C508.079,464.499,511.75,467.737,514.397,470.917C517.044,474.097,518.807,478.012,519.746,481.461C520.686,484.91,520.601,488.628,520.033,491.61C519.466,494.593,517.94,497.386,516.34,499.357C514.741,501.328,512.428,502.742,510.436,503.435C508.444,504.127,506.105,504.049,504.388,503.514C502.67,502.978,501.015,501.642,500.131,500.219C499.246,498.795,499.109,494.967,499.08,494.972C499.051,494.978,500.278,498.606,499.955,500.251C499.632,501.896,498.558,503.73,497.141,504.84C495.725,505.949,493.565,506.851,491.457,506.909C489.349,506.966,486.685,506.463,484.491,505.187C482.297,503.91,479.881,501.838,478.294,499.25C476.707,496.662,475.31,493.215,474.967,489.657C474.624,486.099,474.887,481.814,476.235,477.902C477.584,473.991,479.87,469.662,483.061,466.189C486.251,462.716,490.555,459.269,495.381,457.065C500.206,454.86,506.117,453.184,512.016,452.961C517.914,452.738,524.652,453.516,530.77,455.727C536.887,457.938,543.405,461.502,548.72,466.227C554.034,470.951,559.175,477.185,562.655,484.076C566.136,490.967,568.819,499.278,569.602,507.573C570.385,515.868,569.802,525.242,567.353,533.846C564.905,542.45,560.674,551.568,554.913,559.197C549.152,566.827,541.43,574.254,532.786,579.625C524.142,584.997,513.65,589.396,503.048,591.426C492.446,593.456,480.409,593.811,469.174,591.806C457.938,589.801,445.946,585.598,435.635,579.397C425.324,573.195,415.117,564.552,407.309,554.597C399.501,544.642,392.727,532.341,388.784,519.668C384.842,506.995,382.8,492.426,383.652,478.559C384.503,464.693,381.479,454.18,393.893,436.467C406.307,418.754,439.508,384.968,458.136,372.281C476.764,359.594,489.315,361.358,505.663,360.343C522.011,359.329,533.732,326.422,556.225,366.196C578.718,405.97,633.299,552.296,640.621,598.987C647.943,645.679,627.168,631.701,600.154,646.343C573.14,660.985,509.876,682.508,478.536,686.837C447.196,691.165,432.962,681.065,412.113,672.313C391.265,663.56,372.682,674.644,353.446,634.322C334.21,593.999,300.648,476.052,296.696,430.377C292.744,384.702,314.74,381.181,329.734,360.27C344.727,339.358,364.756,319.57,386.656,304.908C408.557,290.246,421.344,274.224,461.138,272.299C500.932,270.374,586.612,280.916,625.419,293.357C664.225,305.797,674.821,325.368,693.979,346.943C713.137,368.518,732.358,380.061,740.366,422.805C748.373,465.549,762.125,549.484,742.023,603.409C721.921,657.335,700.884,736.032,619.753,746.358C538.623,756.684,323.924,694.659,255.24,665.363C186.555,636.068,117.155,626.621,207.648,570.583C298.141,514.546,692.069,350.344,798.197,329.137C904.325,307.93,875.587,355.958,844.416,443.341C813.246,530.724,733.299,861.771,611.176,853.437C489.053,845.102,146.182,520.187,111.678,393.332C77.174,266.478,330.523,144.665,404.153,92.311C477.783,39.958,469.141,37.978,553.459,79.212C637.776,120.447,882.868,205.704,910.056,339.72C937.245,473.736,822.333,796.604,716.588,883.308C610.844,970.013,366.999,881.252,275.589,859.944C184.18,838.637,198.626,819.429,168.132,755.462C137.639,691.494,98.714,545.824,92.626,476.138C86.538,406.452,46.511,394.537,131.604,337.345C216.697,280.154,504.809,156.448,603.184,132.987C701.559,109.526,686.922,107.631,721.853,196.58C756.784,285.529,829.213,562.637,812.77,666.681C796.328,770.724,722.237,822.482,623.196,820.84C524.155,819.198,291.265,702.355,218.526,656.828C145.786,611.302,136.73,622.055,186.758,547.681C236.787,473.307,421.862,221.983,518.694,210.584C615.527,199.184,776.428,391.148,767.756,479.287C759.084,567.425,546.474,722.694,466.662,739.416C386.851,756.137,320.039,619.394,288.886,579.615C257.732,539.835,278.15,526.421,279.74,500.739C281.329,475.057,278.096,455.469,298.423,425.522C318.75,395.576,361.315,340.161,401.701,321.059C442.087,301.956,500.007,299.367,540.74,310.908C581.474,322.448,624.3,356.767,646.1,390.301C667.9,423.835,670.625,482.311,671.54,512.113C672.455,541.915,669.386,547.503,651.589,569.113C633.793,590.724,588.243,628.277,564.762,641.778C541.282,655.28,528.328,650.545,510.708,650.122C493.089,649.699,474.805,645.621,459.046,639.239C443.287,632.858,428.187,622.946,416.156,611.831C404.125,600.717,393.905,586.645,386.858,572.551C379.811,558.457,375.416,542.325,373.875,527.268C372.334,512.211,373.881,496.236,377.613,482.21C381.345,468.184,382.096,456.961,396.268,443.112C410.44,429.264,445.311,406.672,462.645,399.119C479.979,391.565,488.36,396.084,500.27,397.791C512.18,399.498,524.132,403.817,534.107,409.362C544.083,414.906,553.189,422.785,560.125,431.057C567.06,439.329,572.413,449.368,575.72,458.993C579.027,468.618,579.966,488.807,579.966,488.807"></path>
      </svg>
      