<?xml version="1.0" encoding="UTF-8" standalone="no"?>
    <!-- Created with Inkscape (https://labs.original.art.br/draw) -->
    
    <svg
       xmlns:dc="http://purl.org/dc/elements/1.1/"
       xmlns:cc="http://creativecommons.org/ns#"
       xmlns:rdf="http://www.w3.org/1999/02/22-rdf-syntax-ns#"
       xmlns:svg="http://www.w3.org/2000/svg"
       xmlns="http://www.w3.org/2000/svg"
       xmlns:sodipodi="http://sodipodi.sourceforge.net/DTD/sodipodi-0.dtd"
       xmlns:inkscape="http://www.inkscape.org/namespaces/inkscape"
       id="HDJkT"
       version="1.1"
       inkscape:version="0.91 r13725"
       width="undefined"
       height="undefined"
       viewBox="0 0 undefined undefined"
       sodipodi:docname="_paths6.svg">
      <metadata
         id="metadata3404">
        <rdf:RDF>
          <cc:Work
             rdf:about="">
            <dc:format>image/svg+xml</dc:format>
            <dc:type
               rdf:resource="http://purl.org/dc/dcmitype/StillImage" />
            <dc:title></dc:title>
          </cc:Work>
        </rdf:RDF>
      </metadata>
      undefined<path fill="none" stroke-width="1" style="stroke: rgb(0, 71, 171);" d="M5.803,500L7.02,497.216C8.236,494.431,10.669,488.863,12.063,485.996C13.457,483.13,13.813,482.965,14.763,481.121C15.713,479.277,17.258,475.753,18.852,472.048C20.447,468.344,22.091,464.459,22.583,463.182C23.074,461.905,22.413,463.234,22.745,463.209C23.077,463.184,24.402,461.805,25.506,461.003C26.61,460.202,27.492,459.978,30.18,460.199C32.868,460.419,37.362,461.084,39.868,461.597C42.375,462.109,42.893,462.47,44.086,462.974C45.279,463.478,47.147,464.127,48.646,465.18C50.145,466.233,51.276,467.691,53.361,467.965C55.447,468.24,58.487,467.331,61.265,465.515C64.044,463.699,66.561,460.976,67.606,459.847C68.651,458.718,68.226,459.182,68.725,459.49C69.224,459.799,70.649,459.951,70.929,459.81C71.21,459.668,70.347,459.233,70.841,459.21C71.334,459.187,73.185,459.576,73.886,459.584C74.586,459.592,74.137,459.219,74.605,459.193C75.074,459.166,76.46,459.487,75.977,459.103C75.493,458.719,73.141,457.631,73.631,456.225C74.12,454.819,77.452,453.094,81.055,454.245C84.657,455.395,88.531,459.42,90.836,461.5C93.141,463.579,93.877,463.713,96.711,462.978C99.546,462.242,104.479,460.637,107.792,460.043C111.105,459.449,112.798,459.866,112.901,461.265C113.003,462.664,111.514,465.045,112.988,464.794C114.462,464.542,118.898,461.658,121.21,460.462C123.522,459.265,123.709,459.755,124.05,459.995C124.392,460.235,124.888,460.223,124.468,459.591C124.048,458.959,122.712,457.706,123.595,456.392C124.479,455.078,127.582,453.703,130.15,454.15C132.718,454.597,134.75,456.866,136.955,457.724C139.159,458.581,141.537,458.028,142.027,456.843C142.518,455.658,141.122,453.841,143.56,452.939C145.999,452.037,152.273,452.05,156.202,453.411C160.131,454.773,161.716,457.482,163.468,459.45C165.22,461.417,167.139,462.644,168.385,462.789C169.631,462.935,170.203,462,169.605,461.521C169.008,461.041,167.24,461.017,168.871,460.268C170.502,459.518,175.531,458.043,178.145,457.718C180.759,457.392,180.959,458.216,181.862,458.969C182.764,459.722,184.371,460.405,184.543,460.742C184.716,461.08,183.454,461.073,183.627,459.884C183.799,458.694,185.405,456.323,186.993,455.376C188.58,454.429,190.149,454.907,192.692,454.517C195.234,454.127,198.751,452.869,202.758,454.199C206.764,455.529,211.26,459.448,212.969,460.633C214.677,461.818,213.599,460.27,214.286,459.114C214.973,457.959,217.424,457.196,218.232,456.873C219.04,456.55,218.205,456.669,220.925,457.338C223.646,458.008,229.922,459.228,233.343,459.91C236.764,460.591,237.33,460.734,237.43,461.065C237.53,461.395,237.164,461.914,237.585,461.672C238.006,461.431,239.214,460.429,240.411,460.252C241.609,460.074,242.794,460.721,243.245,462.065C243.695,463.41,243.411,465.452,244.505,466.795C245.598,468.137,248.069,468.779,252.386,467.69C256.703,466.602,262.865,463.782,265.901,461.584C268.937,459.385,268.846,457.807,268.13,457.008C267.415,456.209,266.075,456.19,268.156,456.131C270.237,456.071,275.739,455.972,280.74,456.863C285.742,457.754,290.243,459.636,293.216,460.243C296.189,460.85,297.634,460.182,298.513,459.291C299.393,458.4,299.708,457.285,299.712,456.574C299.716,455.864,299.409,455.558,301.301,455.869C303.193,456.179,307.283,457.105,310.248,457.02C313.212,456.935,315.051,455.839,316.461,457.782C317.872,459.725,318.854,464.707,319.976,464.975C321.099,465.243,322.363,460.798,324.944,459.017C327.525,457.235,331.424,458.116,333.691,458.856C335.959,459.595,336.595,460.192,336.476,460.175C336.357,460.157,335.483,459.526,335.223,460.478C334.963,461.431,335.318,463.968,338.446,465.134C341.573,466.3,347.475,466.095,350.907,465.723C354.34,465.351,355.304,464.811,357.006,464.549C358.709,464.287,361.149,464.304,362.569,463.708C363.99,463.112,364.39,461.905,365.037,460.963C365.683,460.022,366.575,459.347,365.875,459.658C365.174,459.97,362.881,461.267,364.336,462.257C365.792,463.246,370.996,463.927,373.761,462.839C376.526,461.752,376.851,458.896,378.279,457.982C379.706,457.068,382.235,458.096,384.91,458.577C387.585,459.058,390.407,458.991,393.15,460.038C395.894,461.086,398.561,463.247,400.129,461.918C401.698,460.589,402.169,455.77,403.516,455.388C404.862,455.006,407.085,459.061,409.873,459.727C412.66,460.393,416.013,457.671,417.78,456.545C419.548,455.419,419.731,455.89,421.092,456.79C422.452,457.689,424.991,459.018,426.695,459.836C428.4,460.653,429.27,460.958,429.314,460.864C429.359,460.769,428.578,460.274,430.148,459.973C431.718,459.672,435.64,459.565,437.676,459.415C439.711,459.265,439.861,459.073,440.942,459.867C442.023,460.661,444.035,462.443,446.519,463.417C449.003,464.392,451.958,464.559,453.2,463.886C454.441,463.212,453.968,461.697,454.026,460.538C454.085,459.378,454.675,458.575,455.862,460.07C457.05,461.564,458.836,465.356,461.049,464.361C463.263,463.367,465.905,457.587,470.202,455.171C474.499,452.755,480.452,453.703,483.597,455.599C486.742,457.495,487.079,460.338,488.977,460.485C490.874,460.631,494.332,458.08,496.847,456.549C499.361,455.017,500.933,454.504,502.712,456.113C504.491,457.722,506.477,461.453,506.849,461.876C507.222,462.299,505.982,459.414,507.075,459.587C508.168,459.759,511.595,462.99,515.346,464.249C519.098,465.509,523.174,464.799,526.34,464.871C529.506,464.944,531.763,465.8,532.951,463.63C534.138,461.459,534.257,456.263,536.121,455.207C537.986,454.152,541.596,457.237,543.479,458.825C545.362,460.414,545.517,460.504,546.513,460.024C547.508,459.543,549.345,458.49,552.267,458.722C555.189,458.953,559.197,460.469,563.142,461.436C567.088,462.404,570.971,462.825,572.462,461.842C573.954,460.859,573.053,458.473,573.179,458.058C573.305,457.644,574.458,459.202,576.91,459.734C579.362,460.265,583.113,459.772,584.943,458.646C586.773,457.52,586.682,455.763,588.247,455.476C589.813,455.189,593.034,456.374,595.374,456.405C597.713,456.437,599.171,455.316,601.872,455.299C604.573,455.282,608.518,456.369,610.614,457.301C612.71,458.233,612.957,459.01,613.23,459.477C613.503,459.943,613.802,460.099,612.931,460.03C612.06,459.962,610.019,459.669,611.283,460.263C612.547,460.858,617.116,462.341,619.863,462.443C622.61,462.546,623.535,461.269,623.02,459.578C622.505,457.887,620.55,455.783,622.609,455.248C624.667,454.712,630.739,455.745,635.131,457.738C639.522,459.731,642.233,462.685,642.673,464.216C643.112,465.747,641.28,465.856,643.409,464.84C645.538,463.823,651.628,461.68,654.249,460.496C656.871,459.311,656.025,459.086,657.484,459.561C658.943,460.037,662.706,461.213,664.118,462.582C665.531,463.95,664.591,465.511,665.331,466.3C666.071,467.089,668.49,467.107,671.832,465.898C675.175,464.69,679.442,462.255,682.127,459.72C684.813,457.186,685.917,454.553,687.967,455.166C690.017,455.78,693.014,459.639,693.922,460.583C694.831,461.527,693.652,459.556,694.563,460.097C695.473,460.637,698.473,463.69,700.911,463.559C703.35,463.428,705.226,460.115,706.912,458.131C708.599,456.148,710.095,455.494,711.394,454.818C712.693,454.142,713.796,453.444,716.253,455.273C718.709,457.103,722.521,461.461,726.551,463.013C730.581,464.565,734.83,463.311,736.693,461.327C738.557,459.343,738.036,456.628,738.917,456.533C739.797,456.438,742.08,458.963,743.287,459.129C744.493,459.295,744.622,457.104,747.207,457.889C749.791,458.675,754.83,462.439,757.577,464.855C760.325,467.271,760.78,468.34,762.898,467.614C765.016,466.888,768.795,464.367,771.698,462.848C774.6,461.33,776.624,460.813,777.61,460.52C778.596,460.227,778.542,460.157,778.518,460.079C778.494,460.001,778.499,459.913,778.841,459.839C779.182,459.765,779.86,459.704,780.359,459.756C780.858,459.807,781.177,459.971,781.4,460.921C781.622,461.872,781.747,463.609,781.391,463.09C781.034,462.571,780.196,459.795,782.503,459.452C784.811,459.108,790.264,461.197,792.091,462.013C793.918,462.83,792.119,462.374,793.164,462.199C794.21,462.024,798.099,462.131,801.509,461.799C804.918,461.467,807.847,460.696,809.869,461.403C811.891,462.11,813.006,464.295,814.037,463.849C815.069,463.404,816.018,460.329,817.295,459.208C818.571,458.087,820.174,458.92,819.774,459.126C819.374,459.332,816.969,458.911,819.425,459.874C821.881,460.837,829.197,463.183,834.624,463.669C840.05,464.155,843.587,462.78,845.239,460.638C846.89,458.495,846.657,455.583,847.898,455.373C849.139,455.163,851.853,457.653,852.853,457.499C853.852,457.345,853.137,454.546,854.662,454.639C856.188,454.731,859.954,457.716,861.85,459.819C863.746,461.921,863.771,463.142,864.814,463.221C865.858,463.3,867.92,462.237,869.177,459.946C870.433,457.655,870.884,454.137,872.887,454.948C874.89,455.759,878.446,460.899,880.081,462.91C881.716,464.92,881.431,463.8,882.871,462.613C884.311,461.426,887.477,460.172,891.221,459.459C894.966,458.745,899.289,458.572,902.035,458.856C904.781,459.139,905.95,459.878,905.987,460.02C906.024,460.163,904.93,459.71,905.729,459.448C906.527,459.186,909.22,459.115,909.979,459.775C910.739,460.435,909.566,461.825,910.692,462.004C911.818,462.183,915.244,461.151,917.62,460.201C919.996,459.251,921.323,458.382,921.32,457.513C921.317,456.644,919.985,455.775,921.362,456.43C922.738,457.085,926.824,459.264,929.067,459.786C931.31,460.307,931.71,459.17,932.211,460.36C932.712,461.549,933.313,465.065,934.342,465.638C935.37,466.211,936.826,463.842,939.095,462.488C941.365,461.135,944.449,460.797,945.648,461.069C946.847,461.341,946.162,462.223,948.006,461.444C949.849,460.666,954.22,458.227,955.229,458.295C956.239,458.363,953.886,460.937,955.13,461.473C956.375,462.009,961.216,460.507,965.251,458.682C969.287,456.858,972.515,454.711,976.057,454.707C979.599,454.704,983.454,456.844,984.795,456.546C986.135,456.248,984.962,453.512,983.084,450.784C981.206,448.056,978.623,445.336,976.616,444.435C974.609,443.533,973.176,444.451,973.147,444.658C973.118,444.866,974.491,444.363,972.518,443.178C970.545,441.993,965.227,440.125,962.892,438.904C960.556,437.683,961.205,437.108,959.709,436.866C958.214,436.623,954.575,436.713,952.606,436.886C950.636,437.06,950.335,437.318,950.842,438.951C951.349,440.585,952.664,443.594,951.04,443.62C949.416,443.645,944.852,440.688,940.971,440.352C937.089,440.016,933.889,442.302,930.496,443.294C927.104,444.286,923.519,443.984,920.801,443.269C918.083,442.555,916.231,441.428,915.675,440.69C915.119,439.951,915.859,439.6,914.863,438.399C913.867,437.198,911.135,435.147,909.189,435.816C907.242,436.486,906.081,439.875,903.345,440.87C900.609,441.866,896.298,440.467,894.677,439.62C893.056,438.773,894.125,438.477,893.85,440.048C893.576,441.619,891.956,445.057,889.097,445.398C886.239,445.74,882.14,442.985,880.007,441.395C877.873,439.805,877.704,439.381,876.88,438.524C876.056,437.666,874.578,436.376,874.751,436.702C874.925,437.028,876.752,438.97,876.169,440.406C875.587,441.842,872.595,442.771,867.206,443.358C861.816,443.945,854.028,444.191,850.716,443.848C847.405,443.506,848.57,442.576,846.326,441.513C844.083,440.45,838.431,439.255,835.629,438.521C832.828,437.788,832.877,437.516,832.391,437.729C831.906,437.942,830.886,438.64,830.357,440.329C829.827,442.018,829.788,444.698,828.36,443.35C826.933,442.002,824.116,436.626,821.711,435.718C819.305,434.809,817.311,438.367,814.992,440.758C812.673,443.149,810.031,444.373,807.884,444.474C805.738,444.574,804.088,443.55,802.416,443.315C800.744,443.081,799.05,443.636,798.093,443.198C797.135,442.76,796.914,441.33,796.34,441.689C795.767,442.048,794.841,444.195,793.402,445.851C791.963,447.508,790.011,448.674,786.91,447.649C783.81,446.623,779.562,443.406,778.398,441.215C777.233,439.024,779.152,437.859,777.937,437.79C776.723,437.721,772.373,438.747,770.594,438.913C768.815,439.079,769.606,438.385,769.274,437.937C768.941,437.489,767.486,437.286,765.149,437.249C762.812,437.212,759.595,437.34,759.22,437.709C758.845,438.077,761.313,438.685,760.745,438.892C760.177,439.099,756.572,438.906,753.374,438.954C750.176,439.003,747.384,439.295,744.364,439.15C741.344,439.006,738.095,438.427,736.058,437.875C734.021,437.323,733.196,436.799,732.042,437.198C730.888,437.597,729.405,438.919,728.806,439.524C728.207,440.129,728.491,440.018,727.698,440.918C726.906,441.819,725.036,443.731,723.51,443.655C721.985,443.578,720.803,441.514,720.135,440.563C719.468,439.613,719.316,439.776,718.647,441.34C717.979,442.903,716.795,445.866,714.626,446.177C712.457,446.489,709.302,444.148,707.57,442.426C705.837,440.703,705.527,439.598,705.913,440.405C706.3,441.212,707.384,443.932,706.338,444.503C705.292,445.074,702.116,443.495,700.026,442.575C697.937,441.654,696.935,441.391,695.488,441.184C694.042,440.976,692.151,440.823,690.926,440.638C689.7,440.454,689.142,440.238,687.955,440.096C686.768,439.954,684.954,439.886,684.025,439.853C683.095,439.821,683.052,439.824,681.526,440.271C680,440.717,676.993,441.606,676.626,441.814C676.259,442.022,678.532,441.549,678.79,440.839C679.048,440.13,677.291,439.185,673.273,438.809C669.256,438.433,662.978,438.627,658.669,440.118C654.36,441.609,652.021,444.397,650.203,444.626C648.384,444.854,647.087,442.523,646.249,442.733C645.41,442.942,645.031,445.691,644.179,447.206C643.326,448.72,642,449.001,637.711,447.519C633.422,446.038,626.171,442.795,623.203,441.557C620.234,440.319,621.549,441.086,620.991,442.35C620.433,443.613,618.002,445.374,616.333,444.422C614.664,443.471,613.758,439.808,612.125,438.051C610.491,436.294,608.13,436.443,605.1,437.32C602.069,438.198,598.369,439.804,596.267,440.493C594.165,441.182,593.662,440.954,592.822,441.073C591.982,441.192,590.805,441.657,588.902,441.444C586.998,441.231,584.367,440.34,582.369,439.617C580.372,438.895,579.007,438.34,579.177,437.682C579.348,437.024,581.052,436.262,579.517,436.76C577.982,437.259,573.206,439.018,570.622,439.689C568.037,440.36,567.644,439.942,567.239,440.148C566.833,440.353,566.416,441.182,566.334,441.386C566.252,441.59,566.505,441.169,567.273,440.242C568.041,439.315,569.323,437.882,566.55,437.834C563.777,437.787,556.949,439.125,552.339,439.248C547.73,439.371,545.338,438.278,542.713,437.687C540.088,437.096,537.23,437.007,535.835,437.478C534.44,437.949,534.507,438.98,534.166,438.134C533.826,437.288,533.078,434.565,531.89,434.435C530.703,434.306,529.075,436.771,527.137,437.651C525.199,438.53,522.951,437.825,520.618,437.612C518.285,437.398,515.867,437.675,513.562,439.369C511.257,441.063,509.066,444.174,506.183,444.101C503.301,444.029,499.727,440.774,497.472,439.445C495.216,438.116,494.279,438.712,494.953,438.96C495.626,439.207,497.912,439.106,496.49,440.336C495.067,441.567,489.938,444.13,485.541,445.32C481.144,446.51,477.481,446.326,475.993,444.44C474.505,442.553,475.194,438.963,474.065,436.624C472.936,434.284,469.99,433.194,467.405,433.88C464.82,434.567,462.596,437.029,460.027,438.579C457.457,440.13,454.542,440.768,452.623,441.028C450.703,441.288,449.779,441.169,449.348,440.368C448.916,439.566,448.979,438.082,447.28,437.368C445.582,436.654,442.122,436.71,440.048,437.575C437.974,438.441,437.284,440.117,435.817,440.824C434.35,441.53,432.106,441.267,431.355,442.005C430.605,442.744,431.349,444.483,429.172,445.011C426.995,445.538,421.897,444.853,419.253,442.594C416.608,440.334,416.416,436.499,415.353,435.311C414.29,434.123,412.355,435.581,410.539,435.805C408.722,436.028,407.023,435.016,403.618,435.716C400.214,436.416,395.103,438.827,391.629,441.161C388.154,443.494,386.315,445.749,384.603,444.14C382.891,442.531,381.306,437.059,379.187,436.088C377.069,435.117,374.417,438.648,372.618,439.363C370.82,440.078,369.875,437.977,368.672,437.618C367.468,437.258,366.006,438.641,365.235,439.26C364.464,439.88,364.383,439.737,364.479,439.606C364.574,439.475,364.845,439.356,363.897,439.277C362.948,439.198,360.78,439.16,360.567,438.896C360.355,438.632,362.099,438.142,361.845,438.074C361.59,438.006,359.337,438.36,356.314,439.005C353.291,439.65,349.498,440.586,348.943,441.284C348.388,441.982,351.07,442.443,349.204,443.748C347.338,445.054,340.924,447.204,336.014,446.546C331.104,445.888,327.699,442.423,326.411,440.13C325.124,437.837,325.955,436.717,324.746,438.203C323.538,439.69,320.289,443.783,316.243,444.634C312.198,445.485,307.355,443.095,304.913,441.689C302.471,440.283,302.431,439.861,302.491,439.713C302.551,439.565,302.711,439.691,301.413,439.876C300.114,440.062,297.358,440.307,296.194,440.24C295.031,440.173,295.46,439.793,295.465,440.527C295.471,441.26,295.052,443.108,292.298,442.948C289.544,442.787,284.454,440.62,282.155,439.416C279.856,438.212,280.348,437.972,279.636,439.768C278.923,441.565,277.006,445.399,275.899,446.824C274.792,448.25,274.494,447.267,270.203,446.377C265.912,445.488,257.627,444.691,253.619,444.625C249.611,444.559,249.879,445.224,248.211,445.294C246.543,445.364,242.939,444.84,240.358,443.177C237.778,441.514,236.221,438.712,235.487,438.535C234.754,438.358,234.843,440.807,233.762,441.489C232.681,442.171,230.428,441.086,229.263,440.416C228.097,439.746,228.018,439.491,227.881,439.482C227.743,439.472,227.547,439.708,228.368,439.825C229.189,439.943,231.027,439.941,230.071,439.951C229.114,439.962,225.363,439.983,222.835,439.33C220.306,438.676,219.002,437.347,216.829,438.384C214.656,439.422,211.615,442.824,209.65,442.932C207.684,443.04,206.793,439.852,205.769,439.02C204.745,438.188,203.587,439.712,202.974,439.601C202.361,439.489,202.294,437.742,201.604,437.754C200.914,437.766,199.601,439.535,197.323,439.129C195.045,438.722,191.802,436.138,189.038,436.149C186.275,436.16,183.989,438.764,181.653,440.222C179.317,441.679,176.93,441.989,175.102,441.082C173.273,440.174,172.004,438.049,171.131,437.571C170.259,437.094,169.784,438.263,170.376,438.773C170.968,439.282,172.626,439.133,171.839,439.274C171.051,439.414,167.816,439.844,165.061,438.454C162.305,437.063,160.028,433.851,157.583,433.932C155.139,434.013,152.528,437.387,151.605,437.643C150.682,437.9,151.448,435.038,149.295,435.237C147.142,435.435,142.07,438.693,139.421,439.584C136.772,440.476,136.546,439,135.539,439.275C134.532,439.549,132.745,441.573,130.997,442.837C129.249,444.101,127.541,444.604,125.881,445.129C124.221,445.654,122.61,446.199,120.6,446.235C118.59,446.271,116.18,445.796,113.906,443.378C111.631,440.96,109.491,436.599,107.503,435.702C105.515,434.805,103.68,437.371,103.681,437.885C103.682,438.398,105.519,436.859,104.983,436.702C104.446,436.545,101.536,437.77,99.15,438.543C96.763,439.315,94.901,439.635,93.833,439.16C92.766,438.684,92.493,437.413,91.206,437.507C89.919,437.602,87.616,439.062,84.617,439.204C81.618,439.346,77.923,438.17,75.952,439.663C73.982,441.156,73.736,445.319,71.968,444.99C70.2,444.661,66.909,439.841,63.211,438.912C59.513,437.983,55.407,440.945,52.804,442.004C50.2,443.063,49.098,442.22,47.894,441.805C46.69,441.39,45.385,441.403,44.431,439.624C43.477,437.844,42.873,434.271,41.515,433.942C40.157,433.612,38.045,436.527,36.905,438.284C35.764,440.04,35.595,440.638,34.571,440.738C33.547,440.839,31.669,440.442,30.456,438.807C29.243,437.172,28.695,434.299,27.641,433.53C26.587,432.762,25.028,434.097,23.533,435.57C22.039,437.043,20.61,438.652,17.406,436.989C14.202,435.326,9.224,430.391,9.602,427.006C9.981,423.621,15.716,421.786,19.605,422.031C23.495,422.277,25.538,424.602,27.133,424.44C28.728,424.277,29.874,421.627,30.188,421.622C30.502,421.617,29.984,424.257,31.899,424.255C33.814,424.254,38.162,421.61,40.505,419.252C42.848,416.894,43.186,414.821,43.476,414.051C43.767,413.281,44.011,413.814,45.815,415.344C47.618,416.873,50.982,419.4,54.402,420.966C57.823,422.533,61.3,423.141,63.36,422.78C65.419,422.42,66.061,421.092,66.386,420.465C66.711,419.837,66.72,419.91,67.064,420.284C67.409,420.658,68.089,421.333,68.733,421.287C69.377,421.241,69.986,420.473,69.007,420.972C68.027,421.471,65.461,423.237,67.064,423.319C68.668,423.402,74.442,421.8,77.331,420.891C80.22,419.982,80.225,419.765,80.096,419.279C79.968,418.792,79.706,418.034,79.481,418.196C79.257,418.358,79.068,419.439,80.998,418.959C82.928,418.479,86.975,416.438,89.549,416.182C92.123,415.925,93.223,417.452,94.216,419.339C95.209,421.225,96.095,423.47,97.915,423.884C99.735,424.297,102.49,422.88,104.66,420.63C106.829,418.379,108.413,415.295,110.285,415.817C112.157,416.34,114.317,420.468,116.404,421.233C118.492,421.997,120.507,419.397,120.438,418.833C120.369,418.27,118.214,419.743,119.758,420.228C121.302,420.713,126.543,420.211,128.831,419.784C131.118,419.356,130.451,419.003,131.133,419.137C131.814,419.272,133.845,419.893,136.206,419.709C138.566,419.524,141.258,418.533,142.264,419.307C143.27,420.08,142.591,422.618,144.152,422.748C145.713,422.877,149.512,420.599,151.642,420.136C153.771,419.673,154.231,421.026,153.521,421.176C152.811,421.326,150.933,420.274,151.649,420.035C152.364,419.795,155.674,420.368,158.883,420.364C162.092,420.359,165.2,419.776,165.943,419.978C166.687,420.18,165.066,421.167,166.088,422.055C167.111,422.944,170.778,423.734,174.585,423.918C178.391,424.102,182.337,423.68,185.208,423.311C188.079,422.943,189.875,422.629,191.986,422.472C194.096,422.315,196.521,422.314,196.851,421.962C197.18,421.611,195.414,420.908,196.612,420.553C197.81,420.198,201.971,420.191,203.898,421.498C205.824,422.806,205.516,425.429,206.88,425.364C208.243,425.299,211.277,422.546,213.519,421.195C215.76,419.844,217.209,419.896,217.682,420.071C218.155,420.246,217.652,420.545,217.605,422.178C217.558,423.811,217.965,426.778,220.355,427.603C222.746,428.428,227.119,427.111,228.99,425.238C230.861,423.365,230.23,420.936,232.779,418.729C235.329,416.523,241.058,414.539,245.045,415.534C249.032,416.529,251.276,420.501,253.087,421.457C254.897,422.413,256.274,420.353,257.213,420.873C258.153,421.393,258.656,424.495,259.524,425.596C260.392,426.697,261.625,425.799,264.515,424.805C267.404,423.811,271.951,422.721,274.433,422.028C276.915,421.334,277.332,421.037,278.675,420.155C280.019,419.272,282.289,417.804,283.35,417.824C284.41,417.844,284.262,419.352,285.654,419.313C287.046,419.274,289.978,417.689,291.697,417.955C293.416,418.221,293.921,420.338,294.006,420.61C294.091,420.882,293.756,419.31,294.891,420.325C296.025,421.34,298.629,424.942,301.234,425.318C303.839,425.694,306.446,422.843,307.287,422.54C308.128,422.237,307.204,424.481,309.196,424.235C311.187,423.988,316.094,421.252,318.663,420.072C321.232,418.893,321.464,419.271,322.269,418.185C323.073,417.099,324.451,414.549,325.974,412.999C327.498,411.449,329.166,410.899,331.82,411.146C334.473,411.393,338.112,412.437,340.961,414.324C343.81,416.21,345.87,418.939,347.38,420.991C348.89,423.043,349.852,424.417,351.427,423.965C353.001,423.513,355.189,421.234,356.363,419.066C357.537,416.897,357.698,414.84,359.134,415.952C360.571,417.064,363.283,421.346,366.088,423.043C368.894,424.74,371.793,423.852,374.13,424.01C376.468,424.169,378.244,425.375,380.404,424.231C382.564,423.087,385.109,419.592,386.043,417.82C386.977,416.047,386.301,415.995,388.292,417.442C390.284,418.889,394.943,421.834,397.579,422.503C400.216,423.171,400.829,421.563,400.166,422.05C399.504,422.538,397.565,425.121,399.258,424.525C400.951,423.93,406.275,420.156,408.134,418.964C409.993,417.772,408.386,419.161,410.666,420.413C412.946,421.665,419.113,422.78,422.927,422.132C426.741,421.484,428.203,419.074,428.283,418.25C428.363,417.427,427.062,418.19,428.727,417.746C430.393,417.302,435.025,415.65,438.408,416.792C441.792,417.933,443.925,421.868,446.153,422.982C448.381,424.096,450.703,422.388,451.557,420.392C452.411,418.395,451.797,416.11,453.569,415.798C455.342,415.486,459.501,417.147,460.547,418.269C461.593,419.391,459.527,419.974,460.302,420.675C461.077,421.376,464.695,422.194,468.02,422.477C471.345,422.759,474.378,422.504,474.775,420.972C475.172,419.439,472.934,416.627,474.435,416.213C475.936,415.798,481.177,417.781,483.419,419.97C485.662,422.159,484.906,424.555,487.422,423.544C489.937,422.532,495.723,418.114,499.164,417.096C502.605,416.077,503.7,418.458,503.953,419.804C504.205,421.149,503.615,421.458,504.527,421.346C505.44,421.235,507.856,420.702,508.951,420.887C510.046,421.072,509.82,421.973,511.165,420.54C512.509,419.107,515.425,415.34,516.907,415.544C518.389,415.748,518.437,419.924,520.22,421.728C522.003,423.532,525.522,422.964,528.909,422.549C532.297,422.134,535.553,421.872,538.565,421.301C541.576,420.73,544.343,419.849,546.4,419.702C548.457,419.555,549.803,420.14,549.967,419.16C550.13,418.18,549.111,415.635,550.383,416.21C551.655,416.785,555.218,420.48,557.656,421.691C560.094,422.901,561.408,421.626,562.364,419.811C563.321,417.995,563.922,415.638,564.887,415.402C565.853,415.165,567.184,417.049,568.356,418.129C569.528,419.209,570.54,419.486,572.049,418.862C573.558,418.238,575.563,416.715,577.243,416.898C578.922,417.082,580.277,418.973,580.844,419.621C581.411,420.268,581.191,419.672,582.251,419.214C583.311,418.755,585.651,418.433,588.076,418.482C590.501,418.532,593.011,418.952,595.022,420.045C597.033,421.137,598.544,422.902,599.307,423.048C600.07,423.193,600.084,421.719,600.419,421.455C600.753,421.192,601.407,422.138,602.388,420.555C603.369,418.973,604.678,414.861,606.112,414.736C607.547,414.612,609.107,418.475,612.113,419.321C615.118,420.168,619.569,417.998,622.013,417.394C624.457,416.79,624.894,417.752,626.775,418.547C628.656,419.341,631.981,419.969,634.341,420.076C636.701,420.183,638.096,419.769,639.534,419.009C640.972,418.25,642.452,417.146,643.013,417.9C643.574,418.654,643.214,421.267,643.584,422.908C643.954,424.548,645.054,425.217,648.845,424.966C652.637,424.716,659.119,423.547,662.283,422.196C665.447,420.845,665.293,419.311,666.353,418.857C667.412,418.404,669.686,419.031,671.08,418.044C672.474,417.057,672.989,414.456,673.31,414.112C673.631,413.767,673.759,415.678,676.494,415.983C679.229,416.289,684.572,414.989,687.685,415.984C690.798,416.979,691.682,420.27,693.7,421.118C695.719,421.966,698.872,420.372,701.285,419.217C703.699,418.061,705.372,417.344,706.209,417.931C707.045,418.519,707.044,420.411,708.286,421.116C709.528,421.821,712.013,421.34,713.335,419.348C714.657,417.356,714.816,413.853,717.433,413.318C720.05,412.783,725.124,415.215,728.73,417.437C732.337,419.66,734.475,421.672,736.907,422.61C739.339,423.547,742.065,423.41,744.701,422.483C747.336,421.556,749.883,419.84,752.346,420.364C754.809,420.887,757.188,423.651,758.941,423.839C760.693,424.027,761.818,421.641,761.971,420.752C762.124,419.864,761.306,420.474,762.316,419.544C763.327,418.614,766.165,416.144,767.867,416.316C769.569,416.489,770.133,419.304,771.446,419.234C772.759,419.164,774.821,416.209,776.539,416.176C778.258,416.144,779.633,419.034,781.692,419.798C783.751,420.563,786.493,419.201,787.982,418.183C789.471,417.165,789.707,416.492,790.863,417.756C792.02,419.02,794.098,422.22,797.13,422.436C800.162,422.652,804.149,419.883,806.28,419.212C808.412,418.54,808.688,419.967,808.171,419.545C807.654,419.124,806.344,416.855,808.234,417.323C810.124,417.79,815.213,420.993,818.347,422.115C821.481,423.237,822.66,422.277,823.404,421.21C824.148,420.143,824.458,418.97,823.407,418.227C822.357,417.485,819.946,417.174,822.041,417.342C824.135,417.511,830.733,418.16,835.738,419.059C840.743,419.958,844.153,421.107,846.389,421.536C848.625,421.966,849.687,421.676,850.299,421.72C850.911,421.765,851.073,422.145,851.154,421.88C851.235,421.616,851.235,420.707,851.457,421.185C851.679,421.663,852.123,423.529,854.662,424.107C857.202,424.685,861.838,423.974,863.291,424.341C864.744,424.708,863.014,426.153,864.844,425.392C866.673,424.63,872.061,421.664,875.741,420.637C879.421,419.61,881.393,420.522,883.251,420.174C885.108,419.827,886.85,418.219,887.89,417.957C888.929,417.696,889.266,418.779,890.064,418.843C890.862,418.907,892.122,417.95,893.125,417.042C894.129,416.133,894.876,415.272,896.387,414.869C897.898,414.466,900.172,414.521,902.988,416.128C905.804,417.734,909.162,420.894,910.17,421.381C911.179,421.869,909.838,419.684,911.915,418.208C913.992,416.731,919.486,415.962,921.339,416.193C923.191,416.425,921.402,417.657,921.813,418.002C922.224,418.347,924.835,417.803,928.229,416.547C931.623,415.291,935.799,413.321,940.32,413.435C944.842,413.548,949.71,415.743,951.401,416.753C953.093,417.763,951.608,417.588,951.579,417.849C951.551,418.111,952.978,418.809,956.179,418.361C959.38,417.913,964.354,416.318,967.695,414.96C971.035,413.601,972.741,412.478,974.607,414.876C976.472,417.274,978.498,423.191,980.604,423.143C982.71,423.094,984.896,417.079,984.775,411.063C984.654,405.048,982.226,399.032,979.207,396.332C976.188,393.631,972.579,394.246,969.842,394.807C967.104,395.369,965.239,395.877,963.923,396.373C962.608,396.869,961.843,397.352,961.219,397.937C960.595,398.522,960.113,399.208,958.914,400.415C957.716,401.622,955.801,403.349,954.501,403.411C953.201,403.472,952.515,401.867,951.885,401.109C951.255,400.351,950.68,400.438,950.632,399.805C950.584,399.172,951.061,397.817,950.927,398.93C950.792,400.042,950.046,403.622,946.848,404.227C943.65,404.832,938.001,402.463,934.483,400.647C930.965,398.832,929.579,397.569,928.185,397.872C926.79,398.175,925.387,400.044,924.221,401.01C923.055,401.976,922.126,402.04,920.551,400.452C918.977,398.865,916.758,395.625,915.066,394.597C913.374,393.569,912.209,394.753,911.468,395.086C910.727,395.419,910.41,394.902,909.843,394.493C909.277,394.085,908.46,393.786,905.142,394.928C901.824,396.069,896.005,398.652,892.007,398.862C888.009,399.072,885.832,396.909,883.417,395.82C881.002,394.731,878.347,394.717,876.791,396.011C875.234,397.306,874.776,399.909,873.973,400.152C873.171,400.396,872.025,398.279,870.812,397.125C869.598,395.97,868.317,395.776,867.288,395.476C866.258,395.177,865.479,394.771,864.151,396.159C862.824,397.546,860.948,400.726,860.072,400.548C859.196,400.37,859.32,396.835,856.702,395.713C854.085,394.592,848.727,395.884,843.987,397.712C839.246,399.539,835.124,401.9,833.288,402.784C831.453,403.667,831.905,403.072,831.018,401.053C830.131,399.034,827.905,395.591,825.173,394.556C822.442,393.521,819.204,394.893,817.546,396.633C815.888,398.372,815.808,400.479,813.885,400.867C811.961,401.256,808.193,399.926,807.134,400.093C806.075,400.26,807.725,401.924,807.259,401.758C806.792,401.593,804.21,399.598,801.075,400.028C797.94,400.458,794.254,403.314,792.062,404.294C789.87,405.274,789.172,404.379,786.299,403.64C783.425,402.901,778.376,402.318,774.936,401.941C771.497,401.564,769.667,401.393,768.777,401.386C767.887,401.379,767.937,401.537,768.2,401.75C768.463,401.962,768.939,402.229,768.757,401.313C768.575,400.398,767.735,398.299,765.034,397.888C762.333,397.477,757.773,398.753,755.018,399.563C752.264,400.373,751.316,400.717,751.518,401.379C751.72,402.041,753.072,403.022,753.008,401.838C752.944,400.654,751.464,397.306,748.719,396.165C745.974,395.025,741.965,396.092,740.334,396.141C738.704,396.19,739.452,395.219,738.385,395.253C737.317,395.286,734.433,396.322,730.686,397.699C726.938,399.076,722.326,400.793,718.769,401.448C715.211,402.102,712.708,401.694,711.511,401.242C710.314,400.789,710.423,400.293,709.272,399.072C708.121,397.85,705.71,395.904,704.218,396.092C702.725,396.28,702.152,398.602,701.33,399.599C700.507,400.596,699.436,400.268,697.432,400.046C695.429,399.825,692.493,399.711,690.166,400.342C687.84,400.973,686.121,402.349,684.003,401.31C681.885,400.271,679.367,396.817,677.773,395.019C676.179,393.221,675.509,393.08,673.969,394.037C672.429,394.993,670.019,397.048,668.887,398.054C667.755,399.061,667.9,399.02,667.252,398.22C666.603,397.42,665.16,395.86,662.768,396.569C660.377,397.278,657.036,400.256,655.153,400.485C653.271,400.714,652.847,398.194,652.014,398.208C651.18,398.222,649.936,400.77,649.322,401.419C648.708,402.068,648.724,400.818,646.568,400.754C644.412,400.689,640.083,401.809,637.78,401.882C635.476,401.955,635.198,400.982,634.539,401.83C633.881,402.677,632.841,405.347,631.854,406.55C630.866,407.754,629.931,407.493,627.895,406.256C625.858,405.019,622.72,402.805,621.593,400.436C620.466,398.067,621.349,395.542,618.565,396.564C615.782,397.586,609.332,402.154,606.351,402.65C603.369,403.145,603.857,399.567,602.147,399.104C600.437,398.642,596.53,401.295,594.122,403.114C591.714,404.933,590.805,405.918,588.666,405.471C586.527,405.025,583.158,403.148,582.324,403.208C581.49,403.268,583.19,405.266,580.65,404.278C578.111,403.289,571.33,399.315,567.067,398.819C562.804,398.323,561.06,401.306,559.503,401.993C557.946,402.679,556.577,401.069,556.38,400.726C556.183,400.382,557.158,401.305,556.184,401.307C555.209,401.309,552.286,400.391,551.367,398.531C550.447,396.672,551.533,393.872,551.081,394.401C550.628,394.93,548.638,398.787,545.155,400.028C541.673,401.268,536.699,399.891,533.848,398.964C530.997,398.038,530.268,397.562,528.852,396.324C527.435,395.087,525.329,393.089,522.278,394.835C519.227,396.581,515.23,402.07,511.516,402.943C507.801,403.817,504.37,400.075,502.312,399.044C500.255,398.013,499.571,399.694,498.84,400.448C498.11,401.202,497.333,401.028,496.832,400.782C496.332,400.536,496.107,400.218,496.097,400.001C496.087,399.784,496.291,399.667,495.919,399.645C495.546,399.623,494.596,399.695,493.38,399.89C492.164,400.084,490.683,400.401,490.063,401.495C489.443,402.59,489.685,404.462,488.566,404.18C487.447,403.898,484.966,401.463,482.696,399.414C480.426,397.366,478.365,395.706,477.878,394.822C477.391,393.939,478.477,393.832,476.501,394.819C474.526,395.806,469.49,397.886,465.678,398.762C461.867,399.639,459.28,399.312,457.64,397.728C456,396.144,455.306,393.302,452.801,393.417C450.296,393.532,445.98,396.604,443.735,396.829C441.49,397.055,441.317,394.434,439.435,394.759C437.553,395.084,433.963,398.355,431.962,399.534C429.96,400.712,429.547,399.798,428.322,399.469C427.096,399.139,425.058,399.394,422.867,399.028C420.677,398.662,418.333,397.675,417.505,397.428C416.677,397.182,417.366,397.675,416.857,399.02C416.349,400.365,414.643,402.561,412.257,402.605C409.871,402.649,406.806,400.542,405.711,400.259C404.616,399.976,405.493,401.518,403.969,401.721C402.444,401.925,398.518,400.789,397.263,400.702C396.007,400.615,397.421,401.576,395.988,402.915C394.555,404.253,390.275,405.969,387.598,406.07C384.92,406.172,383.846,404.659,382.893,402.973C381.939,401.287,381.108,399.427,380.061,399.666C379.014,399.904,377.751,402.241,375.967,401.632C374.183,401.022,371.878,397.465,369.039,395.315C366.2,393.165,362.826,392.421,361.179,393.6C359.532,394.78,359.612,397.884,358.2,398.452C356.788,399.021,353.883,397.054,350.514,398.421C347.144,399.789,343.309,404.491,339.867,404.536C336.425,404.582,333.376,399.971,329.905,398.023C326.433,396.074,322.538,396.788,321.786,397.755C321.034,398.721,323.424,399.94,320.631,400.156C317.839,400.372,309.864,399.585,306.3,399.283C302.735,398.982,303.581,399.165,303.04,399.132C302.499,399.098,300.571,398.847,299.134,399.962C297.698,401.078,296.753,403.56,295.885,403.259C295.018,402.958,294.227,399.873,293.832,398.331L293.437,396.789"></path>
      </svg>
      