<?xml version="1.0" encoding="UTF-8" standalone="no"?>
    <!-- Created with Inkscape (https://labs.original.art.br/draw) -->
    
    <svg
       xmlns:dc="http://purl.org/dc/elements/1.1/"
       xmlns:cc="http://creativecommons.org/ns#"
       xmlns:rdf="http://www.w3.org/1999/02/22-rdf-syntax-ns#"
       xmlns:svg="http://www.w3.org/2000/svg"
       xmlns="http://www.w3.org/2000/svg"
       xmlns:sodipodi="http://sodipodi.sourceforge.net/DTD/sodipodi-0.dtd"
       xmlns:inkscape="http://www.inkscape.org/namespaces/inkscape"
       id="qMgjn"
       version="1.1"
       inkscape:version="0.91 r13725"
       width="undefined"
       height="undefined"
       viewBox="0 0 undefined undefined"
       sodipodi:docname="_paths6.svg">
      <metadata
         id="metadata3404">
        <rdf:RDF>
          <cc:Work
             rdf:about="">
            <dc:format>image/svg+xml</dc:format>
            <dc:type
               rdf:resource="http://purl.org/dc/dcmitype/StillImage" />
            <dc:title></dc:title>
          </cc:Work>
        </rdf:RDF>
      </metadata>
      undefined<path fill="none" stroke-width="1" style="stroke: rgb(0, 71, 171);" d="M3.25,500L2.78,497.331C2.31,494.662,1.371,489.324,2.201,485.659C3.031,481.995,5.631,480.005,7.74,477.718C9.85,475.432,11.469,472.85,10.848,469.593C10.227,466.336,7.367,462.405,9.113,459.101C10.859,455.796,17.213,453.119,20.099,450.897C22.985,448.675,22.403,446.909,23.302,446.87C24.202,446.831,26.583,448.519,26.866,449.284C27.15,450.05,25.336,449.893,25.602,450.774C25.869,451.655,28.214,453.575,31.122,453.93C34.029,454.285,37.498,453.075,39.748,451.577C41.997,450.078,43.027,448.291,45.573,447.597C48.119,446.904,52.181,447.304,53.173,448.62C54.166,449.936,52.088,452.167,54.802,452.248C57.516,452.329,65.021,450.26,69.476,449.791C73.931,449.322,75.336,450.454,75.833,449.554C76.33,448.653,75.919,445.72,77.967,445.852C80.014,445.984,84.52,449.182,87.239,448.946C89.958,448.71,90.889,445.041,93.566,445.27C96.242,445.499,100.664,449.626,103.113,451.234C105.562,452.842,106.039,451.93,105.381,450.395C104.723,448.86,102.931,446.701,104.185,446.476C105.439,446.25,109.738,447.956,113.005,450.085C116.272,452.214,118.507,454.765,120.108,455.008C121.709,455.251,122.677,453.186,122.518,452.987C122.358,452.788,121.071,454.454,124.294,455.114C127.516,455.773,135.247,455.426,139.749,454.623C144.251,453.82,145.522,452.561,146.265,451.8C147.008,451.038,147.222,450.772,148.418,450.229C149.615,449.686,151.793,448.865,153.041,447.812C154.289,446.76,154.606,445.476,156.144,445.972C157.682,446.469,160.441,448.747,162.797,450.729C165.152,452.711,167.104,454.397,168.516,454.235C169.928,454.073,170.8,452.062,171.026,451.331C171.251,450.599,170.83,451.147,172.122,450.611C173.414,450.074,176.419,448.454,176.586,447.917C176.753,447.381,174.082,447.927,175.394,447.886C176.706,447.845,182,447.215,184.724,446.993C187.448,446.771,187.602,446.956,189.675,447.881C191.747,448.806,195.738,450.472,197.968,451.165C200.198,451.859,200.667,451.58,200.643,451.336C200.62,451.093,200.104,450.886,201.233,451.216C202.362,451.545,205.135,452.412,206.854,452.306C208.573,452.201,209.238,451.123,210.401,450.507C211.565,449.891,213.228,449.737,215.55,449.615C217.871,449.493,220.852,449.402,223.006,449.438C225.16,449.474,226.487,449.637,228.34,449.579C230.193,449.521,232.572,449.243,233.93,448.056C235.289,446.869,235.628,444.773,236.519,443.996C237.41,443.219,238.853,443.762,241.98,444.21C245.107,444.658,249.917,445.012,252.055,446.323C254.194,447.634,253.662,449.901,254.376,450.733C255.09,451.564,257.05,450.959,259.222,449.962C261.393,448.966,263.775,447.578,264.818,446.658C265.86,445.737,265.563,445.285,266.591,445.622C267.619,445.959,269.973,447.086,271.558,448.07C273.144,449.055,273.961,449.898,274.865,449.889C275.769,449.881,276.76,449.021,277.418,448.717C278.077,448.413,278.402,448.664,277.493,448.193C276.584,447.722,274.44,446.529,275.668,445.952C276.895,445.374,281.494,445.412,285.209,446.135C288.924,446.857,291.756,448.264,292.512,449.734C293.269,451.203,291.95,452.736,292.88,452.694C293.81,452.652,296.989,451.035,298.769,450.34C300.55,449.644,300.934,449.87,301.145,449.806C301.356,449.742,301.396,449.387,302.179,449.123C302.961,448.86,304.488,448.688,305.16,449.183C305.833,449.678,305.651,450.841,307.611,450.674C309.57,450.508,313.671,449.013,315.562,447.659C317.454,446.305,317.136,445.092,318.808,446.53C320.481,447.969,324.142,452.06,326.586,453.555C329.03,455.051,330.257,453.95,332.226,453.86C334.195,453.77,336.906,454.69,338.937,454.214C340.968,453.738,342.318,451.865,343.415,449.652C344.511,447.439,345.354,444.885,346.858,445.883C348.363,446.881,350.529,451.431,351.587,454.039C352.646,456.647,352.596,457.314,354.697,456.98C356.799,456.646,361.051,455.312,364.425,452.988C367.799,450.665,370.296,447.352,372.415,446.581C374.535,445.809,376.277,447.58,376.889,447.158C377.5,446.736,376.982,444.121,378.095,443.965C379.208,443.809,381.951,446.112,383.207,448.141C384.464,450.171,384.233,451.928,386.341,452.115C388.45,452.303,392.898,450.921,394.692,451.811C396.486,452.701,395.626,455.863,397.848,455.727C400.07,455.59,405.374,452.155,407.45,451.278C409.526,450.401,408.373,452.083,408.7,453.677C409.026,455.271,410.832,456.777,413.506,454.776C416.179,452.775,419.721,447.266,424.207,444.907C428.694,442.547,434.126,443.335,437.219,444.599C440.311,445.863,441.065,447.602,441.371,449.517C441.678,451.431,441.537,453.521,442.408,453.169C443.279,452.816,445.162,450.022,447.065,448.889C448.968,447.756,450.891,448.286,452.035,448.319C453.179,448.353,453.544,447.89,453.327,448.145C453.11,448.399,452.312,449.371,453.361,449.797C454.411,450.223,457.308,450.103,459.324,450.847C461.34,451.59,462.474,453.198,463.039,452.097C463.605,450.997,463.602,447.188,464.048,445.871C464.494,444.553,465.389,445.725,467.882,447.876C470.375,450.026,474.465,453.154,478.561,453.33C482.658,453.507,486.761,450.732,489.18,450.488C491.599,450.244,492.334,452.531,494.41,451.67C496.485,450.81,499.902,446.801,503.443,446.884C506.984,446.967,510.649,451.14,512.734,452.324C514.82,453.509,515.325,451.706,515.491,450.939C515.658,450.172,515.486,450.443,515.633,450.487C515.781,450.531,516.248,450.35,515.821,449.069C515.393,447.788,514.071,445.408,516.035,446.292C517.999,447.175,523.248,451.322,527.37,453.707C531.491,456.093,534.485,456.715,535.405,455.861C536.326,455.006,535.173,452.673,536.979,451.555C538.785,450.436,543.55,450.531,547.436,450.303C551.321,450.074,554.327,449.523,555.388,450.446C556.449,451.37,555.564,453.769,555.174,454.361C554.783,454.952,554.886,453.736,558.214,453.361C561.543,452.986,568.098,453.451,572.876,454.338C577.655,455.224,580.658,456.531,582.402,456.745C584.147,456.958,584.634,456.077,586.019,455.069C587.404,454.06,589.687,452.923,591.662,452.038C593.637,451.154,595.304,450.522,596.368,450.413C597.432,450.305,597.893,450.72,598.351,449.433C598.808,448.146,599.263,445.158,600.294,446.467C601.325,447.776,602.931,453.382,606.738,454.572C610.545,455.762,616.553,452.536,619.094,450.994C621.634,449.452,620.707,449.594,620.372,448.638C620.038,447.683,620.296,445.631,622.732,446.404C625.168,447.177,629.781,450.775,632.619,451.301C635.458,451.826,636.521,449.28,637.622,448.526C638.723,447.773,639.862,448.813,639.104,449.096C638.345,449.378,635.688,448.904,637.328,448.471C638.968,448.038,644.904,447.648,646.781,448.28C648.658,448.913,646.476,450.568,647.944,450.581C649.411,450.593,654.528,448.962,657.149,449.241C659.77,449.519,659.894,451.707,662.009,450.625C664.124,449.543,668.23,445.191,671.801,443.727C675.372,442.262,678.408,443.686,680.039,443.929C681.67,444.173,681.896,443.236,684.078,443.087C686.26,442.939,690.398,443.578,692.95,443.868C695.503,444.158,696.468,444.098,699.309,445.066C702.149,446.033,706.864,448.026,708.505,449.064C710.146,450.101,708.713,450.183,710.006,449.642C711.298,449.101,715.316,447.937,718.501,448.428C721.686,448.918,724.038,451.062,725.132,451.279C726.226,451.497,726.061,449.788,726.474,450.376C726.887,450.965,727.877,453.851,728.369,455.208C728.862,456.565,728.858,456.393,731.747,455.318C734.637,454.243,740.421,452.265,744.391,451.431C748.361,450.597,750.518,450.906,751.701,451.819C752.883,452.732,753.092,454.249,753.962,453.89C754.832,453.53,756.364,451.295,758.169,450.706C759.973,450.117,762.05,451.173,762.657,452.625C763.263,454.076,762.399,455.923,764.493,456.903C766.587,457.883,771.64,457.997,773.737,456.351C775.834,454.705,774.976,451.299,776.917,449.061C778.859,446.823,783.599,445.754,786.193,446.29C788.787,446.827,789.235,448.969,792.65,448.803C796.065,448.637,802.449,446.163,804.473,445.652C806.497,445.142,804.162,446.594,807.587,448.351C811.012,450.108,820.198,452.168,825.825,451.76C831.453,451.351,833.523,448.473,834.203,448.172C834.883,447.872,834.173,450.148,835.27,450.679C836.367,451.21,839.271,449.997,841.626,448.659C843.982,447.321,845.79,445.858,846.855,446.31C847.92,446.762,848.242,449.129,848.857,449.634C849.471,450.14,850.378,448.785,851.757,449.424C853.137,450.063,854.989,452.697,857.203,454.151C859.417,455.605,861.993,455.88,863.426,453.872C864.86,451.865,865.151,447.577,866.593,446.806C868.035,446.035,870.629,448.782,871.23,450.138C871.83,451.494,870.438,451.46,873.408,452.645C876.378,453.83,883.709,456.234,888.503,456.908C893.296,457.583,895.552,456.527,897.497,455.306C899.443,454.085,901.078,452.697,903.157,452.256C905.236,451.814,907.759,452.317,909.047,450.924C910.335,449.532,910.389,446.242,911.587,445.748C912.785,445.253,915.127,447.553,915.302,448.918C915.478,450.283,913.487,450.713,914.917,451.128C916.347,451.543,921.198,451.944,924.546,453.208C927.893,454.472,929.738,456.601,931.558,456.457C933.378,456.313,935.173,453.898,937.725,453.278C940.277,452.658,943.585,453.833,945.027,453.22C946.468,452.608,946.042,450.209,946.877,447.793C947.712,445.377,949.806,442.944,953.211,443.481C956.616,444.018,961.33,447.524,964.316,448.828C967.301,450.132,968.556,449.233,969.727,449.791C970.897,450.349,971.981,452.363,971.599,451.725C971.218,451.087,969.37,447.797,971.379,446.94C973.388,446.083,979.255,447.66,981.507,446.385C983.76,445.109,982.398,440.982,982.355,438.131C982.312,435.28,983.589,433.707,983.715,430.922C983.842,428.137,982.818,424.14,979.733,419.957C976.647,415.774,971.5,411.406,968.626,409.752C965.752,408.098,965.15,409.159,965.014,409.625C964.878,410.09,965.208,409.961,964.44,410.575C963.672,411.189,961.806,412.545,960.001,413.812C958.195,415.078,956.449,416.255,955.019,415.484C953.589,414.714,952.475,411.996,952.249,411.035C952.023,410.075,952.687,410.872,951.263,410.945C949.84,411.018,946.33,410.367,944.988,409.662C943.646,408.958,944.473,408.2,943.834,408.101C943.196,408.001,941.092,408.56,940.092,409.194C939.091,409.828,939.194,410.537,938.913,410.172C938.632,409.807,937.967,408.367,936.893,408.797C935.818,409.227,934.333,411.526,933.222,412.172C932.111,412.818,931.373,411.811,930.919,410.795C930.465,409.78,930.295,408.755,929.211,408.141C928.126,407.527,926.126,407.324,925.882,407.864C925.638,408.403,927.151,409.687,926.117,410.522C925.084,411.356,921.505,411.743,919.102,411.43C916.7,411.116,915.473,410.102,914.102,409.108C912.731,408.113,911.215,407.137,909.053,406.985C906.891,406.834,904.082,407.506,902.425,409.371C900.768,411.237,900.263,414.295,897.772,415.686C895.281,417.077,890.805,416.801,887.247,416.027C883.689,415.253,881.05,413.981,879.204,412.616C877.358,411.251,876.305,409.793,876.613,409.553C876.921,409.313,878.591,410.291,876.747,410.036C874.902,409.782,869.542,408.294,867.208,407.393C864.874,406.491,865.565,406.175,865.189,407.496C864.813,408.817,863.37,411.774,860.873,412.899C858.376,414.023,854.826,413.314,853.512,412.371C852.199,411.427,853.123,410.247,851.328,409.719C849.532,409.19,845.017,409.313,843.256,409.411C841.496,409.508,842.49,409.581,842.16,408.335C841.829,407.089,840.174,404.524,837.034,403.821C833.893,403.117,829.268,404.276,825.308,406.358C821.349,408.441,818.055,411.448,816.829,411.255C815.603,411.062,816.443,407.67,815.251,406.675C814.059,405.68,810.834,407.083,808.799,408.076C806.765,409.069,805.921,409.652,805.475,409.936C805.029,410.22,804.981,410.205,805.06,410.36C805.139,410.515,805.344,410.839,805.161,410.588C804.978,410.336,804.406,409.509,803.633,409.538C802.86,409.567,801.886,410.452,802.225,411.254C802.563,412.056,804.215,412.775,803.048,411.715C801.881,410.654,797.896,407.814,793.761,407.44C789.625,407.066,785.34,409.158,783.42,409.585C781.5,410.012,781.947,408.774,780.957,408.62C779.967,408.467,777.542,409.397,776.576,409.135C775.61,408.874,776.104,407.419,776.961,407.203C777.819,406.986,779.04,408.008,777.247,408.096C775.455,408.185,770.651,407.342,766.261,407.059C761.87,406.776,757.895,407.055,754.087,407.795C750.278,408.536,746.636,409.738,744.87,408.724C743.104,407.71,743.214,404.48,742.319,404.564C741.424,404.648,739.524,408.046,736.899,408.766C734.274,409.485,730.925,407.526,728.835,406.422C726.744,405.319,725.913,405.071,725.581,406.903C725.25,408.736,725.418,412.648,724.389,412.938C723.359,413.228,721.132,409.895,718.924,409.349C716.716,408.804,714.527,411.046,710.604,411.5C706.682,411.954,701.025,410.619,696.834,409.554C692.643,408.489,689.918,407.693,687.547,406.387C685.175,405.081,683.158,403.264,682.381,404.805C681.604,406.346,682.067,411.245,679.658,412.934C677.249,414.623,671.967,413.103,669.178,412.974C666.389,412.844,666.092,414.105,663.832,412.98C661.572,411.855,657.349,408.345,654.903,407.734C652.456,407.124,651.787,409.414,651.814,409.948C651.84,410.481,652.564,409.259,650.993,407.763C649.423,406.267,645.559,404.497,643.537,403.949C641.515,403.4,641.335,404.073,639.936,405.369C638.536,406.664,635.916,408.583,634.065,409.308C632.215,410.033,631.133,409.564,630.422,409.688C629.71,409.812,629.37,410.529,629.507,411.155C629.645,411.781,630.26,412.315,629.083,412.58C627.906,412.845,624.936,412.841,620.158,412.189C615.38,411.538,608.793,410.24,604.994,410.059C601.194,409.878,600.182,410.814,598.056,411.281C595.93,411.747,592.69,411.743,591.138,411.59C589.585,411.436,589.719,411.133,590.173,410.608C590.627,410.082,591.402,409.334,590.161,408.716C588.919,408.099,585.662,407.611,582.746,408.866C579.83,410.121,577.254,413.119,576.835,413.96C576.416,414.801,578.152,413.486,576.257,412.641C574.363,411.797,568.836,411.423,566.53,410.691C564.224,409.959,565.139,408.868,563.817,408.063C562.495,407.257,558.936,406.737,556.769,407.884C554.603,409.03,553.829,411.843,552.707,412.722C551.585,413.6,550.115,412.544,549.49,411.648C548.864,410.752,549.083,410.016,548.416,409.786C547.749,409.556,546.196,409.831,545.319,409.895C544.443,409.958,544.244,409.809,543.646,409.537C543.047,409.265,542.049,408.869,540.675,407.689C539.302,406.51,537.554,404.547,536.142,405.62C534.731,406.693,533.656,410.803,532.267,412.291C530.877,413.779,529.172,412.647,527.867,411.68C526.562,410.713,525.658,409.911,524.64,408.623C523.621,407.336,522.49,405.561,521.105,405.381C519.721,405.2,518.082,406.614,517.963,408.288C517.843,409.963,519.242,411.899,518.785,412.199C518.328,412.499,516.015,411.163,511.846,410.586C507.678,410.008,501.655,410.189,498.3,410.227C494.946,410.265,494.26,410.159,495.035,409.156C495.809,408.154,498.042,406.255,496.671,406.88C495.301,407.505,490.325,410.654,486.515,412.233C482.705,413.813,480.059,413.823,478.073,413.723C476.086,413.622,474.759,413.411,475.01,412.547C475.261,411.682,477.09,410.163,476.151,409.6C475.211,409.038,471.504,409.431,469.183,409.421C466.863,409.41,465.93,408.995,464.423,409.2C462.916,409.406,460.835,410.232,458.65,411.616C456.465,413,454.176,414.942,451.438,414.297C448.701,413.651,445.515,410.417,442.673,410.328C439.831,410.238,437.332,413.293,436.449,413.824C435.565,414.355,436.297,412.363,436.105,410.894C435.913,409.425,434.797,408.479,432.11,408.567C429.424,408.655,425.166,409.778,423.698,410.146C422.231,410.514,423.553,410.128,423.466,409.547C423.379,408.966,421.883,408.19,419.274,408.168C416.665,408.146,412.944,408.878,410.981,408.643C409.017,408.408,408.812,407.206,408.2,407.066C407.587,406.926,406.567,407.849,405.334,408.59C404.101,409.331,402.656,409.891,402.318,409.013C401.981,408.135,402.752,405.819,401.295,405.522C399.838,405.224,396.153,406.946,394.669,409.424C393.185,411.902,393.902,415.137,391.926,414.936C389.949,414.734,385.28,411.096,382.903,410.275C380.526,409.453,380.443,411.447,379.658,411.555C378.874,411.664,377.39,409.888,377.23,410.097C377.071,410.305,378.237,412.497,375.567,411.842C372.897,411.187,366.391,407.684,362.085,406.896C357.779,406.107,355.674,408.034,354.576,410.3C353.478,412.566,353.388,415.173,351.879,415.281C350.37,415.388,347.442,412.997,346.558,411.036C345.674,409.075,346.834,407.544,345.087,406.77C343.341,405.995,338.687,405.976,335.636,405.394C332.585,404.813,331.137,403.67,329.028,402.779C326.919,401.888,324.149,401.249,322.051,402.978C319.952,404.708,318.525,408.806,317.121,409.562C315.717,410.318,314.335,407.732,312.568,407.503C310.801,407.275,308.649,409.404,307.338,410.303C306.027,411.203,305.557,410.873,305.037,411.158C304.518,411.442,303.95,412.341,302.196,412.942C300.442,413.543,297.502,413.847,295.34,413.453C293.178,413.059,291.793,411.968,291.392,410.075C290.991,408.182,291.573,405.486,290.536,405.369C289.498,405.252,286.839,407.714,286.515,409.687C286.191,411.659,288.202,413.142,284.81,412.067C281.418,410.992,272.623,407.36,268.135,406.096C263.647,404.833,263.465,405.938,262.448,406.855C261.43,407.772,259.578,408.501,258.191,409.993C256.805,411.485,255.886,413.739,255.399,414.162C254.913,414.585,254.859,413.177,253.428,412.147C251.997,411.116,249.19,410.464,247.505,410.75C245.82,411.037,245.257,412.263,244.553,412.729C243.849,413.195,243.003,412.901,242.692,411.185C242.381,409.47,242.604,406.333,241.98,406.038C241.356,405.743,239.885,408.29,237.107,409.242C234.328,410.193,230.242,409.55,227.595,408.072C224.947,406.594,223.737,404.281,222.24,405.176C220.743,406.071,218.959,410.173,216.829,410.362C214.698,410.552,212.221,406.828,209.884,404.532C207.546,402.235,205.348,401.365,202.127,402.368C198.906,403.371,194.663,406.246,192.771,408.034C190.88,409.821,191.34,410.521,190.778,409.48C190.217,408.438,188.634,405.655,187.463,404.958C186.292,404.262,185.532,405.651,183.777,406.925C182.021,408.199,179.268,409.359,177.143,410.222C175.018,411.086,173.52,411.654,171.785,412.923C170.05,414.192,168.078,416.162,165.275,416.332C162.472,416.503,158.838,414.874,155.586,413.549C152.335,412.223,149.465,411.201,147.418,411.258C145.371,411.314,144.146,412.45,143.05,412.395C141.954,412.341,140.985,411.095,140.43,411.9C139.875,412.704,139.732,415.559,139.75,416.047C139.768,416.535,139.947,414.655,137.013,413.305C134.079,411.955,128.032,411.134,126.307,411.115C124.582,411.096,127.179,411.878,125.337,410.618C123.495,409.358,117.215,406.056,114.088,405.269C110.961,404.482,110.988,406.211,109.211,409.065C107.434,411.92,103.853,415.901,100.225,414.637C96.597,413.374,92.922,406.866,89.202,405.16C85.483,403.453,81.72,406.547,79.917,408.146C78.114,409.745,78.273,409.848,78.164,410.199C78.056,410.55,77.681,411.149,76.992,410.875C76.302,410.601,75.297,409.453,73.307,409.374C71.316,409.295,68.339,410.285,66.792,410.55C65.244,410.816,65.126,410.357,64.428,409.274C63.73,408.191,62.452,406.485,60.231,406.769C58.01,407.053,54.845,409.327,53.75,410.977C52.654,412.627,53.628,413.652,53.667,412.658C53.706,411.664,52.809,408.652,51.112,408.206C49.415,407.759,46.917,409.88,42.763,410.676C38.609,411.471,32.797,410.943,29.117,410.839C25.436,410.736,23.885,411.058,23.574,410.648C23.263,410.238,24.191,409.096,23.826,408.579C23.461,408.062,21.804,408.171,20.017,408.774C18.23,409.376,16.313,410.472,15.175,408.891C14.037,407.309,13.677,403.05,12.553,400.194C11.428,397.337,9.539,395.883,10.321,392.705C11.104,389.527,14.559,384.625,18.274,380.711C21.99,376.796,25.967,373.87,26.581,372.026C27.196,370.182,24.447,369.42,25.294,368.427C26.141,367.433,30.583,366.209,35.382,365.814C40.181,365.419,45.335,365.853,48.358,365.876C51.38,365.899,52.271,365.511,54.524,364.969C56.778,364.428,60.394,363.732,62.691,364.614C64.988,365.496,65.964,367.955,65.673,369.018C65.381,370.081,63.82,369.747,64.366,369.984C64.911,370.221,67.562,371.029,69.945,371.17C72.328,371.311,74.443,370.785,73.87,370.805C73.298,370.825,70.038,371.391,71.126,372.445C72.213,373.499,77.646,375.041,82.421,374.556C87.195,374.072,91.31,371.562,94.611,369.515C97.913,367.469,100.401,365.886,102.815,365.147C105.228,364.409,107.567,364.515,110.217,365.723C112.868,366.932,115.83,369.242,117.011,369.865C118.193,370.487,117.593,369.422,117.475,368.813C117.356,368.204,117.719,368.051,118.94,367.597C120.162,367.144,122.243,366.388,124.366,366.577C126.488,366.765,128.653,367.896,129.996,369.896C131.34,371.896,131.863,374.764,132.502,375.373C133.141,375.982,133.895,374.331,134.744,372.344C135.593,370.357,136.535,368.035,138.607,366.673C140.678,365.312,143.88,364.911,147.419,366.306C150.958,367.701,154.835,370.892,158.36,372.939C161.884,374.986,165.056,375.89,167.319,375.144C169.582,374.397,170.936,372.001,171.804,372.013C172.672,372.025,173.054,374.445,174.017,374.394C174.98,374.343,176.525,371.819,177.416,370.008C178.307,368.197,178.544,367.099,180.203,368.308C181.862,369.517,184.942,373.034,185.65,373.562C186.358,374.091,184.694,371.632,186.587,370.814C188.48,369.996,193.929,370.82,198.244,369.477C202.558,368.133,205.737,364.624,207.31,364.059C208.883,363.495,208.85,365.876,210.742,367.108C212.633,368.34,216.449,368.423,218.694,368.692C220.939,368.962,221.614,369.417,222.02,369.656C222.425,369.895,222.561,369.919,223.525,369.16C224.488,368.402,226.28,366.86,227.772,366.57C229.265,366.279,230.459,367.238,229.678,367.708C228.898,368.177,226.142,368.156,228.678,368.225C231.213,368.294,239.039,368.453,244.385,368.906C249.731,369.359,252.597,370.106,255.464,370.652C258.331,371.198,261.198,371.544,262.169,372.039C263.141,372.535,262.217,373.179,263.684,373.062C265.151,372.946,269.009,372.068,270.729,371.777C272.449,371.487,272.031,371.785,272.145,372.837C272.258,373.89,272.902,375.697,274.558,375.47C276.213,375.243,278.88,372.983,280.969,371.818C283.057,370.652,284.568,370.58,284.63,369.044C284.692,367.508,283.306,364.507,284.402,365.182C285.498,365.856,289.077,370.206,292.149,371.553C295.221,372.9,297.786,371.246,299.429,370.349C301.071,369.452,301.789,369.313,302.484,368.907C303.179,368.5,303.85,367.826,304.564,367.901C305.278,367.975,306.035,368.799,306.534,369.261C307.032,369.724,307.273,369.826,306.87,369.495C306.468,369.164,305.423,368.4,307.289,368.451C309.155,368.501,313.931,369.366,315.333,370.347C316.735,371.328,314.761,372.426,316.003,371.903C317.246,371.381,321.704,369.238,323.8,368.713C325.896,368.187,325.63,369.277,326.291,369.068C326.952,368.86,328.539,367.352,329.93,366.017C331.32,364.683,332.513,363.523,336.282,363.595C340.051,363.667,346.395,364.971,349.195,366.811C351.995,368.65,351.251,371.026,351.691,371.055C352.131,371.084,353.755,368.768,356.548,367.363C359.341,365.958,363.303,365.463,365.699,366.053C368.095,366.643,368.925,368.319,368.918,369.728C368.91,371.137,368.065,372.281,368.76,372.334C369.454,372.388,371.688,371.352,374.173,370.619C376.658,369.886,379.394,369.456,381.051,369.861C382.708,370.265,383.287,371.505,383.24,371.855C383.194,372.205,382.523,371.666,383.432,371.23C384.341,370.794,386.831,370.461,389.351,369.549C391.871,368.637,394.421,367.146,394.575,367.278C394.729,367.41,392.488,369.165,393.335,370.211C394.182,371.256,398.117,371.592,401.187,371.527C404.257,371.462,406.462,370.997,409.687,371.058C412.912,371.119,417.158,371.705,419.162,372.007C421.165,372.308,420.927,372.324,421.766,372.067C422.605,371.81,424.521,371.281,425.21,370.278C425.899,369.275,425.361,367.799,425.482,367.431C425.603,367.064,426.382,367.806,428.041,369.967C429.701,372.128,432.24,375.709,434.052,375.416C435.864,375.123,436.947,370.956,439.537,369.293C442.127,367.631,446.224,368.472,446.969,369.075C447.714,369.678,445.107,370.042,447.267,369.253C449.427,368.464,456.355,366.522,460.358,365.608C464.362,364.695,465.441,364.809,466.602,366.939C467.763,369.069,469.007,373.215,470.657,374.933C472.308,376.651,474.365,375.941,476.295,374.184C478.224,372.427,480.026,369.623,481.9,369.294C483.774,368.965,485.72,371.111,487.331,371.643C488.942,372.176,490.218,371.095,491.576,370.405C492.934,369.715,494.374,369.415,495.83,369.231C497.285,369.047,498.756,368.979,499.55,369.377C500.344,369.776,500.46,370.642,500.256,371.405C500.051,372.168,499.525,372.827,501.001,371.575C502.477,370.322,505.954,367.157,507.866,366.166C509.778,365.176,510.124,366.359,511.057,366.006C511.99,365.653,513.509,363.763,515.555,363.79C517.601,363.816,520.174,365.76,523.212,367.192C526.25,368.625,529.753,369.546,532.185,369.959C534.616,370.373,535.977,370.278,536.361,369.99C536.745,369.702,536.153,369.22,537.002,370.476C537.851,371.731,540.141,374.724,542.53,376.065C544.918,377.405,547.405,377.093,549.794,376.335C552.183,375.577,554.476,374.373,556.078,371.783C557.681,369.193,558.595,365.217,560.546,364.758C562.498,364.299,565.489,367.357,566.559,369.022C567.63,370.686,566.781,370.958,567.422,372.54C568.063,374.122,570.194,377.014,571.938,376.124C573.682,375.234,575.039,370.561,576.417,369.107C577.795,367.652,579.193,369.417,581.937,369.422C584.682,369.427,588.772,367.671,592.052,368.186C595.332,368.701,597.802,371.488,600.411,373.017C603.021,374.547,605.771,374.821,606.17,373.614C606.568,372.407,604.615,369.719,607.042,367.417C609.469,365.115,616.277,363.198,620.864,364.035C625.45,364.872,627.815,368.463,629.631,369.353C631.447,370.242,632.715,368.43,633.341,366.926C633.967,365.421,633.951,364.224,635.6,365.026C637.249,365.827,640.561,368.627,643.586,369.569C646.611,370.511,649.347,369.594,651.089,370.417C652.832,371.239,653.58,373.801,654.329,374.092C655.077,374.382,655.826,372.403,656.003,370.25C656.179,368.098,655.784,365.774,658.447,365.603C661.11,365.431,666.831,367.413,670.64,369.53C674.45,371.646,676.348,373.897,677.781,374.108C679.213,374.319,680.18,372.49,680.355,370.675C680.53,368.86,679.913,367.059,681.134,366.733C682.354,366.406,685.412,367.554,686.805,367.928C688.198,368.303,687.927,367.903,688.469,367.842C689.01,367.78,690.363,368.057,691.486,367.658C692.609,367.258,693.502,366.181,695.587,367.015C697.673,367.848,700.951,370.591,702.17,370.851C703.389,371.111,702.549,368.888,703.732,367.062C704.914,365.237,708.12,363.808,711.962,364.246C715.804,364.685,720.283,366.991,722.579,369.055C724.874,371.118,724.986,372.939,725.773,373.107C726.56,373.275,728.023,371.789,728.389,370.803C728.754,369.817,728.022,369.33,727.179,368.48C726.337,367.629,725.385,366.415,727.822,367.205C730.259,367.994,736.086,370.788,739.052,370.896C742.017,371.004,742.12,368.426,744.127,368.155C746.135,367.883,750.045,369.918,753.512,370.328C756.979,370.738,760.002,369.524,761.492,369.247C762.983,368.969,762.94,369.629,763.555,369.288C764.17,368.948,765.443,367.608,766.527,367.517C767.61,367.426,768.503,368.585,769.503,368.174C770.504,367.763,771.612,365.782,771.954,366.778C772.297,367.774,771.874,371.748,773.526,372.414C775.177,373.079,778.903,370.437,782.125,369.706C785.347,368.975,788.065,370.156,789.214,369.685C790.364,369.214,789.945,367.091,792.065,367.764C794.184,368.436,798.842,371.905,802.004,372.364C805.167,372.822,806.835,370.271,808.113,368.667C809.391,367.063,810.279,366.407,811.334,366.892C812.388,367.378,813.608,369.005,814.372,369.27C815.136,369.534,815.445,368.434,814.91,367.916C814.375,367.398,812.998,367.461,813.69,367.457C814.382,367.453,817.144,367.383,820.367,367.813C823.59,368.243,827.274,369.175,829.242,369.094C831.21,369.013,831.461,367.918,832.57,366.347C833.68,364.775,835.649,362.727,838.801,362.935C841.953,363.143,846.288,365.608,848.479,367.227C850.67,368.846,850.717,369.619,851.978,369.425C853.239,369.231,855.715,368.069,856.835,366.702C857.955,365.335,857.719,363.764,860.548,365.095C863.377,366.426,869.271,370.66,872.632,372.516C875.993,374.371,876.82,373.849,877.632,372.932C878.444,372.015,879.241,370.704,879.59,370.455C879.939,370.206,879.84,371.019,881.106,371.636C882.373,372.252,885.004,372.672,885.218,372.259C885.432,371.846,883.227,370.6,885.334,369.676C887.442,368.753,893.861,368.15,896.352,368.582C898.842,369.014,897.403,370.48,899.294,371.704C901.186,372.928,906.408,373.91,907.935,373.056C909.462,372.203,907.294,369.514,908.855,368.116C910.416,366.719,915.707,366.614,917.989,367.898C920.272,369.182,919.547,371.856,922.416,373.251C925.285,374.646,931.748,374.764,934.671,373.539C937.595,372.314,936.979,369.746,939.026,369.129C941.073,368.511,945.783,369.843,947.906,370.992C950.029,372.14,949.566,373.106,950.312,372.911C951.058,372.716,953.014,371.36,955.103,370.498C957.192,369.636,959.414,369.268,960.549,369.331C961.685,369.393,961.734,369.887,962.572,368.647C963.41,367.406,965.037,364.431,966.79,364.723C968.544,365.015,970.425,368.575,971.797,369.704C973.169,370.834,974.032,369.533,974.235,369.805C974.437,370.077,973.978,371.922,974.992,372.043C976.006,372.164,978.493,370.563,979.779,368.294C981.064,366.025,981.149,363.089,980.514,359.718C979.879,356.346,978.525,352.539,977.653,350.265C976.78,347.991,976.39,347.249,975.902,347.588C975.414,347.927,974.829,349.347,972.979,350.109C971.129,350.871,968.013,350.975,966.273,350.012C964.532,349.049,964.166,347.019,962.022,347.038C959.878,347.057,955.958,349.125,953.884,350.029C951.811,350.933,951.585,350.674,950.191,350.927C948.797,351.18,946.236,351.945,944.38,351.714C942.523,351.484,941.372,350.258,941.12,349.052C940.868,347.845,941.517,346.658,939.8,347.96C938.082,349.261,933.999,353.051,932.962,354.033C931.926,355.015,933.936,353.189,931.208,352.12C928.479,351.052,921.013,350.742,917.103,350.767C913.192,350.791,912.838,351.148,912.141,350.055C911.444,348.962,910.404,346.418,909.702,347.076C909,347.734,908.635,351.594,907.063,353.655C905.49,355.715,902.711,355.976,900.414,353.968C898.117,351.961,896.304,347.686,894.118,345.481C891.932,343.276,889.373,343.14,885.706,345.122C882.039,347.105,877.264,351.206,875.084,352.594C872.904,353.983,873.319,352.659,872.793,350.66C872.267,348.662,870.801,345.989,868.553,345.756C866.305,345.524,863.275,347.731,861.694,348.704C860.113,349.676,859.98,349.414,860.036,350.769C860.091,352.125,860.335,355.099,858.754,355.172C857.173,355.244,853.766,352.415,851.283,350.756C848.8,349.097,847.24,348.609,846.44,350.135C845.639,351.662,845.598,355.202,844.208,355.208C842.818,355.215,840.08,351.686,837.694,350.56C835.308,349.434,833.274,350.71,832.237,351.19C831.201,351.67,831.161,351.355,830.619,352.241C830.077,353.127,829.032,355.215,827.26,354.832C825.487,354.448,822.988,351.593,821.562,350.378C820.136,349.164,819.783,349.591,819.666,349.792C819.55,349.993,819.669,349.968,819.401,349.858C819.134,349.749,818.479,349.553,818.061,349.556C817.643,349.559,817.461,349.76,817.453,349.821C817.446,349.882,817.614,349.802,817.573,349.666C817.532,349.53,817.282,349.338,817.318,349.992C817.355,350.647,817.678,352.148,816.767,352.296C815.855,352.444,813.708,351.239,812.656,350.409C811.604,349.58,811.647,349.125,812.943,349.614C814.239,350.102,816.787,351.534,815.205,351.017C813.623,350.501,807.91,348.037,803.703,346.654C799.497,345.27,796.798,344.966,794.207,346.922C791.616,348.877,789.133,353.092,787.221,353.555C785.309,354.019,783.968,350.731,782.27,350.836C780.571,350.941,778.516,354.44,775.947,355.388C773.377,356.337,770.293,354.734,768.692,354.267C767.092,353.799,766.974,354.467,766.136,353.722C765.298,352.977,763.74,350.819,762.192,350.735C760.645,350.651,759.109,352.64,756.819,351.543C754.53,350.446,751.486,346.262,749.749,344.006C748.011,341.749,747.579,341.42,744.628,342.21C741.678,343,736.209,344.909,733.674,346.718C731.139,348.528,731.538,350.238,730.881,350.761C730.224,351.284,728.512,350.619,727.483,349.521C726.454,348.423,726.11,346.892,724.316,346.682C722.522,346.472,719.279,347.584,718.016,348.285C716.752,348.986,717.467,349.276,716.094,349.682C714.72,350.088,711.257,350.609,709.41,351.283C707.562,351.957,707.331,352.784,705.749,351.832C704.166,350.879,701.233,348.148,699.452,347.092C697.671,346.035,697.043,346.654,696.355,347.442C695.666,348.23,694.915,349.187,693.375,349.057C691.834,348.927,689.503,347.709,688.328,347.985C687.152,348.26,687.131,350.029,687.386,350.086C687.641,350.143,688.172,348.488,686.115,347.266C684.058,346.044,679.414,345.254,676.393,345.458C673.372,345.662,671.974,346.861,670.76,348.55C669.546,350.24,668.517,352.421,667.078,352.888C665.638,353.355,663.789,352.109,663.925,351.438C664.062,350.767,666.185,350.671,666.039,351.672C665.892,352.673,663.475,354.771,659.942,355.457C656.409,356.142,651.759,355.415,648.597,353.365C645.434,351.315,643.759,347.941,641.381,347.145C639.004,346.348,635.925,348.129,633.632,348.885C631.338,349.641,629.83,349.373,629.52,350.735C629.21,352.098,630.1,355.09,628.606,355.109C627.113,355.127,623.238,352.173,620.994,351.228C618.751,350.284,618.14,351.35,618.53,350.918C618.919,350.487,620.31,348.557,618.257,348.051C616.203,347.545,610.707,348.463,608.677,347.667C606.648,346.872,608.086,344.364,608.065,344.661C608.045,344.957,606.566,348.058,603.409,348.474C600.253,348.889,595.42,346.618,591.466,346.564C587.513,346.509,584.439,348.671,583.196,349.876C581.953,351.081,582.541,351.331,580.991,350.366C579.442,349.402,575.755,347.225,572.117,347.643C568.479,348.062,564.889,351.078,562.831,351.486C560.774,351.895,560.248,349.696,558.534,350.068C556.82,350.439,553.918,353.38,551.428,355.114C548.937,356.849,546.86,357.377,545.076,357.759C543.292,358.14,541.803,358.375,539.466,357.765C537.129,357.155,533.945,355.701,530.624,353.494C527.303,351.287,523.846,348.328,520.539,348.545C517.233,348.762,514.079,352.156,512.392,352.944C510.704,353.732,510.483,351.915,508.503,351.444C506.523,350.972,502.784,351.847,501.586,351.726C500.387,351.605,501.73,350.489,500.884,350.021C500.038,349.554,497.003,349.736,495.654,349.858C494.304,349.98,494.64,350.043,494.783,351.254C494.926,352.465,494.876,354.825,493.357,355.414C491.838,356.004,488.85,354.824,486.164,353.274C483.478,351.724,481.094,349.804,480.252,350.125C479.409,350.447,480.107,353.01,479.013,353.094C477.919,353.178,475.033,350.782,472.561,349.382C470.089,347.982,468.031,347.577,465.695,348.732C463.359,349.887,460.745,352.602,458.811,352.88C456.877,353.158,455.624,351,455.923,349.939C456.222,348.878,458.075,348.914,457.069,348.999C456.064,349.083,452.202,349.218,449.198,349.499C446.195,349.781,444.05,350.211,442.222,350.486C440.394,350.762,438.881,350.884,437.517,350.848C436.153,350.812,434.937,350.619,433.504,350.733C432.07,350.847,430.419,351.269,429.401,350.975C428.382,350.681,427.994,349.672,428.679,349.888C429.363,350.104,431.119,351.545,429.315,350.547C427.511,349.55,422.147,346.113,417.65,346.242C413.153,346.371,409.523,350.067,407.345,351.067C405.168,352.067,404.443,350.372,403.17,349.809C401.897,349.246,400.075,349.816,397.914,350.849C395.753,351.882,393.252,353.377,392.946,352.654C392.64,351.931,394.529,348.99,392.925,348.08C391.32,347.171,386.221,348.293,383.541,348.967C380.861,349.641,380.598,349.867,379.981,350.137C379.363,350.407,378.39,350.721,378.528,351.769C378.665,352.816,379.914,354.596,377.56,353.735C375.206,352.873,369.25,349.369,365.952,347.145C362.653,344.921,362.012,343.976,361.14,345.11C360.268,346.244,359.165,349.456,356.751,349.785C354.338,350.113,350.613,347.557,348.751,346.28L346.889,345.002"></path>
      </svg>
      