<?xml version="1.0" encoding="UTF-8" standalone="no"?>
    <!-- Created with Inkscape (https://labs.original.art.br/draw) -->
    
    <svg
       xmlns:dc="http://purl.org/dc/elements/1.1/"
       xmlns:cc="http://creativecommons.org/ns#"
       xmlns:rdf="http://www.w3.org/1999/02/22-rdf-syntax-ns#"
       xmlns:svg="http://www.w3.org/2000/svg"
       xmlns="http://www.w3.org/2000/svg"
       xmlns:sodipodi="http://sodipodi.sourceforge.net/DTD/sodipodi-0.dtd"
       xmlns:inkscape="http://www.inkscape.org/namespaces/inkscape"
       id="nHNrU"
       version="1.1"
       inkscape:version="0.91 r13725"
       width="undefined"
       height="undefined"
       viewBox="0 0 undefined undefined"
       sodipodi:docname="_paths6.svg">
      <metadata
         id="metadata3404">
        <rdf:RDF>
          <cc:Work
             rdf:about="">
            <dc:format>image/svg+xml</dc:format>
            <dc:type
               rdf:resource="http://purl.org/dc/dcmitype/StillImage" />
            <dc:title></dc:title>
          </cc:Work>
        </rdf:RDF>
      </metadata>
      undefined<path fill="none" stroke-width="1" style="stroke: rgb(0, 71, 171);" d="M6.636,500L7.525,498.654C8.414,497.308,10.192,494.616,11.551,491.041C12.91,487.466,13.849,483.009,14.099,478.048C14.35,473.087,13.913,467.622,15.34,464.132C16.768,460.642,20.061,459.125,22.653,459.881C25.244,460.637,27.135,463.664,29.651,465.339C32.166,467.014,35.306,467.336,37.513,467.582C39.72,467.828,40.995,467.999,43.58,467.881C46.164,467.763,50.06,467.357,52.052,466.442C54.044,465.527,54.133,464.103,55.538,463.129C56.943,462.154,59.663,461.629,60.194,461.101C60.726,460.573,59.068,460.043,60.243,459.1C61.418,458.158,65.424,456.804,69.183,456.333C72.941,455.862,76.451,456.275,78.715,456.66C80.978,457.045,81.994,457.402,81.358,458.497C80.721,459.593,78.432,461.427,79.639,461.891C80.847,462.355,85.552,461.449,87.613,460.106C89.674,458.763,89.091,456.983,91.8,457.053C94.508,457.123,100.508,459.042,102.997,460.118C105.485,461.194,104.463,461.428,104.415,461.237C104.366,461.047,105.29,460.431,106.383,460.965C107.476,461.498,108.737,463.179,111.667,462.384C114.596,461.588,119.193,458.314,120.95,457.499C122.706,456.683,121.622,458.325,123.207,458.955C124.791,459.584,129.044,459.201,130.142,459.883C131.241,460.564,129.184,462.31,130.431,462.717C131.678,463.123,136.229,462.189,138.66,460.575C141.091,458.961,141.401,456.667,143.52,457.654C145.64,458.64,149.569,462.907,152.713,464.753C155.857,466.599,158.218,466.025,159.347,464.722C160.476,463.418,160.373,461.386,161.269,460.596C162.164,459.806,164.057,460.258,166.779,460.468C169.502,460.679,173.054,460.647,173.877,461.553C174.701,462.458,172.797,464.301,174.483,464.467C176.169,464.632,181.446,463.121,183.995,461.687C186.544,460.253,186.364,458.897,187.168,458.035C187.972,457.173,189.761,456.804,190.491,456.472C191.221,456.139,190.893,455.842,192.384,456.493C193.876,457.144,197.187,458.743,197.916,459.381C198.645,460.019,196.792,459.696,197.37,459.376C197.949,459.055,200.96,458.737,202.365,460.045C203.769,461.354,203.566,464.289,205.58,465.702C207.594,467.115,211.824,467.007,215.505,465.851C219.185,464.695,222.315,462.492,225.192,461.841C228.069,461.19,230.692,462.091,232.476,463.216C234.259,464.341,235.203,465.69,235.022,465.433C234.842,465.175,233.538,463.312,236.843,462.305C240.147,461.297,248.06,461.145,252.933,460.38C257.807,459.614,259.642,458.236,261.24,458.114C262.838,457.992,264.2,459.127,264.934,460.603C265.668,462.079,265.773,463.895,266.19,463.416C266.607,462.937,267.335,460.162,269.305,458.854C271.276,457.545,274.488,457.703,276.142,458.289C277.795,458.876,277.889,459.891,278.866,458.81C279.842,457.729,281.701,454.553,283.115,454.249C284.529,453.946,285.499,456.516,288.096,458.229C290.694,459.943,294.92,460.8,297.276,461.847C299.633,462.894,300.12,464.13,302.56,463.144C305,462.158,309.393,458.95,311.329,456.727C313.264,454.504,312.741,453.265,315.504,454.026C318.266,454.787,324.315,457.548,326.6,460.343C328.885,463.139,327.406,465.97,328.062,464.691C328.718,463.412,331.508,458.023,335.544,455.348C339.581,452.674,344.863,452.713,348.286,454.254C351.708,455.795,353.27,458.837,354.748,459.958C356.226,461.078,357.62,460.278,359.589,460.333C361.557,460.389,364.099,461.301,365.958,461.711C367.817,462.121,368.992,462.028,369.694,461.623C370.396,461.218,370.625,460.501,370.98,461.532C371.334,462.563,371.815,465.342,372.571,465.945C373.327,466.548,374.359,464.973,376.588,464.291C378.817,463.61,382.245,463.821,383.018,462.945C383.792,462.069,381.913,460.107,383.805,459.325C385.697,458.543,391.361,458.941,394.475,458.289C397.588,457.637,398.152,455.937,399.446,455.823C400.74,455.709,402.765,457.181,403.692,458.02C404.618,458.858,404.447,459.062,405.539,460.255C406.63,461.447,408.984,463.629,410.65,464.31C412.317,464.992,413.296,464.174,414.237,462.991C415.179,461.809,416.082,460.262,416.906,458.683C417.729,457.105,418.472,455.494,418.756,455.82C419.041,456.146,418.866,458.408,420.78,460.004C422.694,461.601,426.697,462.531,430.492,461.787C434.288,461.042,437.877,458.622,440.417,458.394C442.957,458.166,444.448,460.129,446.182,460.417C447.916,460.704,449.892,459.315,452.375,458.724C454.857,458.134,457.847,458.34,460.565,458.162C463.283,457.984,465.729,457.422,467.132,457.625C468.536,457.828,468.896,458.796,469.089,459.312C469.282,459.828,469.308,459.892,468.335,460.125C467.363,460.359,465.392,460.762,466.537,461.316C467.682,461.87,471.944,462.574,474.422,463.983C476.899,465.391,477.594,467.503,480.499,466.338C483.405,465.174,488.521,460.732,490.667,459.051C492.813,457.369,491.989,458.448,493.032,458.375C494.074,458.302,496.984,457.078,497.872,457.144C498.76,457.21,497.628,458.566,499.585,459.76C501.543,460.955,506.591,461.988,509.47,463.029C512.35,464.069,513.062,465.116,513.782,465.286C514.503,465.456,515.231,464.749,517.654,464.531C520.078,464.313,524.196,464.586,527.063,464.105C529.93,463.625,531.546,462.392,533.246,460.645C534.945,458.898,536.73,456.637,538.079,457.1C539.427,457.563,540.34,460.75,541.666,461.5C542.992,462.25,544.732,460.563,545.437,459.519C546.142,458.476,545.813,458.077,546.024,457.951C546.235,457.826,546.985,457.975,547.596,458.525C548.207,459.075,548.679,460.026,549.848,459.349C551.017,458.672,552.884,456.368,554.586,456.589C556.289,456.809,557.827,459.555,558.722,459.818C559.618,460.081,559.87,457.862,561.508,457.711C563.146,457.56,566.17,459.477,567.937,460.057C569.704,460.636,570.215,459.878,570.584,458.363C570.954,456.849,571.181,454.579,573.26,454.633C575.339,454.687,579.269,457.065,580.32,458.373C581.372,459.681,579.545,459.92,580.703,458.818C581.862,457.716,586.005,455.273,587.909,455.738C589.813,456.203,589.478,459.575,590.941,459.68C592.405,459.784,595.668,456.62,600.9,456.047C606.132,455.475,613.333,457.495,617.197,458.335C621.061,459.175,621.588,458.835,620.862,458.394C620.136,457.953,618.156,457.411,620.772,457.582C623.389,457.753,630.6,458.638,634.123,459.59C637.646,460.541,637.481,461.559,637.963,460.121C638.445,458.682,639.573,454.787,641.608,455.373C643.642,455.959,646.583,461.026,648.752,462.847C650.92,464.669,652.317,463.246,653.808,461.912C655.3,460.577,656.886,459.332,657.284,460.297C657.682,461.262,656.892,464.437,658.861,464.917C660.829,465.398,665.556,463.184,667.865,461.586C670.175,459.987,670.068,459.004,670.385,458.6C670.703,458.195,671.447,458.369,672.701,459.63C673.956,460.891,675.722,463.238,677.833,462.069C679.945,460.9,682.402,456.213,685.209,454.796C688.016,453.379,691.173,455.231,692.6,456.475C694.028,457.719,693.726,458.354,694.603,457.667C695.48,456.98,697.536,454.972,699.712,454.491C701.889,454.01,704.185,455.056,706.483,456.46C708.782,457.863,711.081,459.625,712.407,459.817C713.733,460.008,714.085,458.631,714.679,458.778C715.273,458.926,716.108,460.598,717.105,460.37C718.102,460.142,719.26,458.014,721.139,456.84C723.018,455.666,725.618,455.447,726.69,454.875C727.762,454.302,727.306,453.376,727.494,454.864C727.682,456.352,728.514,460.253,733.531,461.794C738.549,463.334,747.751,462.515,753.182,462.62C758.614,462.726,760.275,463.757,761.246,464.822C762.217,465.886,762.498,466.984,763.576,466.094C764.654,465.204,766.529,462.326,768.5,460.068C770.471,457.81,772.539,456.171,774.496,456.054C776.452,455.937,778.297,457.342,781.131,457.883C783.966,458.423,787.791,458.099,790.551,456.941C793.312,455.783,795.008,453.791,796.508,454.025C798.007,454.259,799.309,456.718,800.122,457.702C800.935,458.686,801.259,458.194,800.502,458.101C799.745,458.007,797.908,458.31,799.067,458.79C800.227,459.27,804.383,459.926,808.329,461.555C812.275,463.184,816.011,465.786,819.839,465.374C823.667,464.963,827.587,461.538,828.87,460.527C830.152,459.516,828.796,460.92,829.648,460.465C830.5,460.01,833.56,457.697,834.43,457.526C835.299,457.355,833.978,459.325,837.153,459.423C840.327,459.52,847.997,457.745,853.064,456.57C858.131,455.395,860.594,454.821,862.151,455.866C863.709,456.912,864.362,459.577,864.766,460.394C865.171,461.211,865.327,460.18,867.171,459.849C869.015,459.517,872.547,459.885,874.368,460.099C876.188,460.312,876.296,460.372,876.894,459.285C877.492,458.199,878.58,455.967,880.287,455.245C881.994,454.522,884.321,455.309,885.163,456.923C886.006,458.537,885.365,460.98,886.96,462.415C888.555,463.85,892.385,464.278,894.296,464.431C896.208,464.583,896.2,464.46,897.531,463.728C898.862,462.996,901.532,461.656,903,461.587C904.468,461.517,904.734,462.72,905.896,462.497C907.058,462.274,909.115,460.624,910.886,459.01C912.657,457.395,914.141,455.815,916.593,456.957C919.045,458.098,922.464,461.961,924.61,462.572C926.755,463.183,927.628,460.541,929.819,459.927C932.01,459.313,935.52,460.727,937.671,461.387C939.822,462.047,940.615,461.954,941.613,460.755C942.611,459.556,943.816,457.252,944.846,457.543C945.876,457.835,946.733,460.722,947.514,460.942C948.296,461.162,949.003,458.716,949.186,457.439C949.37,456.162,949.029,456.054,951.409,457.658C953.788,459.262,958.888,462.578,962.09,463.264C965.292,463.951,966.597,462.009,967.987,460.933C969.376,459.857,970.85,459.648,971.31,459.64C971.769,459.631,971.214,459.824,971.615,459.864C972.015,459.905,973.371,459.793,974.568,460.726C975.765,461.658,976.803,463.636,977.18,462.199C977.558,460.762,977.274,455.911,979.434,455.351C981.594,454.791,986.199,458.523,989.503,457.868C992.807,457.213,994.81,452.171,994.55,448.528C994.291,444.885,991.77,442.641,991.855,440.335C991.941,438.03,994.633,435.664,992.759,432.67C990.884,429.676,984.441,426.053,980.235,423.338C976.029,420.623,974.06,418.817,971.348,417.962C968.636,417.107,965.182,417.203,964.048,418.754C962.913,420.305,964.099,423.309,963.051,424.967C962.004,426.624,958.723,426.936,955.669,425.623C952.615,424.31,949.788,421.372,949.188,419.326C948.587,417.281,950.212,416.128,948.201,416.587C946.189,417.046,940.541,419.116,936.289,420.245C932.037,421.374,929.182,421.561,927.78,421.615C926.378,421.669,926.43,421.591,925.342,421.757C924.253,421.924,922.023,422.335,920.957,422.784C919.89,423.233,919.985,423.719,918.893,423.034C917.801,422.348,915.52,420.491,914.624,420.396C913.729,420.301,914.218,421.968,913.666,422.622C913.113,423.276,911.52,422.915,909.951,422.674C908.382,422.432,906.837,422.309,905.604,421.863C904.37,421.416,903.448,420.647,902.53,421.426C901.611,422.204,900.696,424.53,899.434,424.559C898.173,424.587,896.565,422.319,895.662,421.471C894.759,420.623,894.562,421.195,894.177,420.192C893.793,419.188,893.222,416.609,891.71,415.619C890.198,414.629,887.745,415.228,885.999,416.224C884.253,417.22,883.215,418.612,882.017,417.801C880.819,416.989,879.461,413.973,877.137,414.595C874.813,415.218,871.522,419.479,870.928,421.197C870.335,422.914,872.439,422.089,870.33,421.617C868.22,421.145,861.897,421.027,859.375,421.111C856.854,421.195,858.136,421.481,857.05,421.91C855.964,422.339,852.511,422.912,850.084,423.843C847.656,424.774,846.254,426.063,845.435,424.516C844.615,422.969,844.379,418.588,842.164,417.615C839.949,416.642,835.757,419.079,834.467,420.398C833.178,421.717,834.792,421.919,833.365,422.265C831.939,422.611,827.472,423.102,824.311,421.181C821.151,419.261,819.297,414.928,818.325,414.801C817.353,414.675,817.262,418.754,814.867,420.944C812.472,423.134,807.772,423.433,803.934,422.826C800.096,422.219,797.12,420.704,795.086,421.211C793.052,421.718,791.96,424.247,791.664,425.679C791.367,427.111,791.866,427.447,789.791,425.854C787.717,424.261,783.068,420.739,780.359,418.541C777.65,416.342,776.881,415.468,774.427,415.271C771.972,415.074,767.832,415.555,765.571,417.064C763.31,418.574,762.93,421.112,763.196,421.078C763.462,421.044,764.376,418.438,762.533,417.654C760.69,416.869,756.091,417.907,753.389,417.879C750.686,417.851,749.88,416.758,749.478,418.184C749.076,419.609,749.079,423.553,745.677,424.061C742.275,424.569,735.469,421.64,732.217,420.462C728.965,419.284,729.267,419.856,729.532,420.327C729.798,420.799,730.026,421.17,729.867,419.867C729.707,418.564,729.16,415.588,726.59,416.056C724.021,416.525,719.43,420.438,717.003,421.092C714.576,421.745,714.312,419.14,713.175,418.403C712.038,417.666,710.027,418.796,708.842,419.462C707.658,420.128,707.298,420.33,706.318,420.735C705.338,421.14,703.738,421.748,704.149,421.159C704.56,420.569,706.983,418.783,706.436,417.392C705.89,416.001,702.373,415.006,697.849,414.684C693.324,414.361,687.792,414.711,685.218,414.949C682.645,415.187,683.032,415.314,680.187,415.39C677.343,415.466,671.268,415.491,668.215,415.735C665.163,415.978,665.133,416.441,662.848,417.829C660.564,419.218,656.026,421.533,654.127,421.364C652.229,421.195,652.971,418.542,651.782,417.513C650.593,416.483,647.472,417.077,646.187,416.627C644.902,416.177,645.453,414.682,643.441,415.04C641.43,415.398,636.856,417.61,635.927,418.059C634.997,418.509,637.712,417.197,637.085,417.199C636.458,417.202,632.488,418.519,629.396,419.407C626.304,420.295,624.088,420.753,620.833,419.83C617.578,418.907,613.283,416.603,611.577,415.408C609.871,414.213,610.754,414.128,609.206,415.224C607.659,416.32,603.68,418.598,601.374,420.274C599.067,421.95,598.431,423.025,596.739,422.248C595.047,421.472,592.298,418.845,591.504,417.41C590.709,415.975,591.869,415.733,590.946,416.992C590.023,418.251,587.018,421.012,583.848,421.3C580.677,421.589,577.342,419.404,575.125,418.975C572.907,418.545,571.808,419.869,571.227,420.489C570.646,421.108,570.583,421.023,570.116,421.169C569.65,421.316,568.781,421.694,568.966,420.903C569.151,420.112,570.39,418.151,569.29,418.405C568.19,418.659,564.75,421.129,563.09,421.034C561.431,420.939,561.552,418.279,559.717,417.176C557.881,416.072,554.089,416.524,552.945,416.643C551.802,416.762,553.308,416.548,550.726,415.773C548.143,414.998,541.473,413.663,536.797,413.74C532.121,413.817,529.441,415.306,528.441,416.978C527.44,418.649,528.121,420.503,528.833,421.192C529.546,421.882,530.291,421.406,526.769,420.795C523.248,420.185,515.461,419.439,511.313,419.505C507.165,419.57,506.656,420.447,506.004,421.996C505.352,423.545,504.556,425.765,503.097,425.552C501.637,425.338,499.514,422.691,498.997,422.01C498.481,421.33,499.572,422.615,498.964,423.175C498.356,423.735,496.05,423.57,494.502,421.369C492.955,419.169,492.167,414.933,488.484,414.675C484.801,414.416,478.224,418.134,475.284,420.714C472.345,423.294,473.044,424.736,472.894,424.186C472.745,423.635,471.748,421.092,468.221,420.115C464.694,419.138,458.637,419.726,455.296,421.208C451.954,422.69,451.327,425.066,450.371,425.259C449.415,425.451,448.129,423.461,446.646,422.707C445.164,421.954,443.485,422.437,441.775,423.561C440.064,424.685,438.322,426.45,435.745,426.233C433.169,426.017,429.758,423.82,428.288,423.241C426.818,422.661,427.289,423.7,426.673,423.63C426.058,423.56,424.356,422.382,422.508,420.649C420.659,418.916,418.664,416.628,416.312,415.924C413.961,415.22,411.253,416.098,408.991,416.712C406.729,417.326,404.913,417.674,404.023,419.235C403.134,420.795,403.171,423.566,402.317,424.623C401.464,425.681,399.72,425.023,398.398,423.44C397.077,421.857,396.178,419.348,393.64,418.661C391.102,417.974,386.924,419.109,384.426,418.672C381.929,418.235,381.111,416.227,379.017,414.907C376.923,413.587,373.551,412.957,369.898,414.568C366.246,416.179,362.312,420.032,361.676,421.156C361.041,422.28,363.703,420.675,361.966,419.857C360.228,419.039,354.091,419.008,350.667,419.137C347.243,419.267,346.533,419.556,345.272,419.989C344.011,420.423,342.199,421,341.471,421.104C340.743,421.207,341.098,420.837,341.021,420.732C340.944,420.628,340.435,420.79,340.167,421.056C339.899,421.321,339.873,421.691,339.64,421.259C339.407,420.827,338.969,419.594,337.197,419.255C335.426,418.915,332.322,419.468,331.127,418.422C329.931,417.375,330.644,414.728,329.257,414.87C327.87,415.013,324.385,417.945,322.51,419.548C320.636,421.152,320.373,421.426,319.901,421.905C319.428,422.384,318.746,423.067,318.067,423.167C317.387,423.267,316.71,422.784,315.31,423.77C313.91,424.756,311.787,427.211,310.11,428.152C308.433,429.094,307.203,428.522,303.258,426.66C299.312,424.797,292.652,421.644,289.896,420.629C287.139,419.613,288.286,420.736,286.926,420.027C285.565,419.317,281.698,416.775,279.352,414.954C277.006,413.133,276.181,412.033,273.6,412.614C271.018,413.194,266.679,415.456,264.23,416.93C261.781,418.404,261.223,419.09,260.467,420.95C259.712,422.809,258.76,425.843,258.488,424.882C258.217,423.92,258.626,418.964,256.905,417.01C255.183,415.056,251.331,416.105,246.478,417.76C241.625,419.415,235.772,421.677,233.143,421.134C230.514,420.592,231.11,417.246,229.943,416.049C228.776,414.852,225.846,415.805,224.492,418.223C223.139,420.642,223.362,424.526,220.869,424.924C218.376,425.323,213.167,422.236,212.058,420.59C210.948,418.944,213.936,418.74,212.662,418.17C211.387,417.6,205.849,416.664,202.101,416.654C198.353,416.643,196.395,417.558,194.943,417.321C193.492,417.084,192.548,415.695,190.576,414.6C188.604,413.504,185.604,412.702,184.026,413.965C182.448,415.227,182.292,418.554,179.695,419.069C177.099,419.584,172.062,417.286,168.895,416.011C165.728,414.736,164.432,414.484,163.264,414.735C162.097,414.986,161.059,415.74,159.958,416.906C158.857,418.073,157.695,419.653,156.353,420.276C155.011,420.899,153.49,420.564,151.559,419.958C149.629,419.351,147.287,418.474,146.355,418.491C145.422,418.509,145.898,419.422,146.272,421.147C146.646,422.872,146.918,425.41,145.767,424.772C144.616,424.134,142.043,420.321,138.62,418.899C135.196,417.478,130.923,418.449,128.719,418.596C126.516,418.744,126.381,418.067,124.555,417.834C122.729,417.601,119.211,417.811,117.007,418.337C114.802,418.864,113.912,419.707,114.225,420.729C114.537,421.751,116.053,422.953,115.763,422.48C115.474,422.007,113.379,419.859,110.294,420.564C107.209,421.27,103.134,424.829,100.238,424.193C97.342,423.557,95.625,418.726,93.944,416.698C92.264,414.67,90.618,415.446,88.596,418.01C86.574,420.575,84.176,424.929,80.752,425.136C77.328,425.343,72.879,421.403,70.979,419.399C69.079,417.395,69.728,417.328,68.586,419.29C67.443,421.253,64.51,425.246,61.923,425.64C59.336,426.034,57.095,422.829,55.843,421.592C54.591,420.355,54.327,421.085,54.21,421.359C54.093,421.633,54.123,421.45,51.923,420.792C49.723,420.134,45.293,419,43.934,418.01C42.575,417.02,44.288,416.173,43.377,416.619C42.466,417.065,38.932,418.804,35.016,419.841C31.099,420.878,26.799,421.213,24.844,421.066C22.888,420.919,23.275,420.289,23.659,419.959C24.043,419.629,24.424,419.599,22.655,420.426C20.886,421.253,16.969,422.937,15.087,421.366C13.206,419.796,13.36,414.97,13.219,410.08C13.078,405.189,12.642,400.233,12.748,398.161C12.854,396.088,13.501,396.898,14.801,395.317C16.101,393.737,18.053,389.765,21.77,386.806C25.487,383.846,30.968,381.899,34.327,381.937C37.686,381.975,38.924,383.998,40.267,384.062C41.61,384.127,43.059,382.234,44.046,381.803C45.034,381.373,45.561,382.406,46.207,382.414C46.854,382.421,47.62,381.403,47.057,380.15C46.495,378.898,44.603,377.411,47.248,377.545C49.892,377.68,57.072,379.436,61.916,380.235C66.761,381.034,69.27,380.876,71.86,380.079C74.45,379.281,77.12,377.843,77.403,378.097C77.686,378.35,75.581,380.294,76.294,380.53C77.007,380.765,80.538,379.292,84.509,378.402C88.48,377.513,92.89,377.206,94.038,376.933C95.186,376.659,93.072,376.419,94.788,377.964C96.505,379.508,102.051,382.837,106.386,384.523C110.72,386.209,113.843,386.253,115.849,385.055C117.854,383.858,118.743,381.418,120.513,381.074C122.283,380.73,124.934,382.482,126.487,382.651C128.04,382.82,128.494,381.407,129.327,381.97C130.159,382.532,131.37,385.071,133.964,384.226C136.558,383.38,140.535,379.149,142.891,377.928C145.247,376.707,145.981,378.495,144.767,378.926C143.553,379.356,140.391,378.429,142.63,376.835C144.869,375.241,152.51,372.981,157.31,373.005C162.111,373.03,164.071,375.34,164.767,376.805C165.462,378.271,164.893,378.891,167.324,378.514C169.755,378.137,175.186,376.762,179.225,376.333C183.265,375.904,185.913,376.421,186.6,376.929C187.286,377.437,186.011,377.935,187.399,378.756C188.786,379.577,192.836,380.722,194.995,381.015C197.155,381.308,197.425,380.75,195.967,380.641C194.508,380.532,191.321,380.873,193.707,382.052C196.093,383.232,204.051,385.249,208.755,385.217C213.459,385.185,214.908,383.105,214.633,380.766C214.358,378.426,212.358,375.828,214.282,374.964C216.206,374.1,222.054,374.969,226.652,374.965C231.249,374.961,234.596,374.084,236.726,374.761C238.855,375.437,239.767,377.667,239.393,380.041C239.019,382.415,237.36,384.933,239.176,385.405C240.992,385.876,246.284,384.302,248.945,383.312C251.606,382.321,251.637,381.913,251.895,382.04C252.153,382.166,252.639,382.827,253.851,382.577C255.063,382.328,257.002,381.169,257.914,382.174C258.827,383.179,258.712,386.349,259.831,386.654C260.95,386.959,263.303,384.399,265.789,384.031C268.276,383.663,270.896,385.486,273.711,384.546C276.527,383.606,279.537,379.903,280.546,378.648C281.554,377.393,280.56,378.588,281.553,378C282.545,377.412,285.524,375.042,289.465,374.545C293.405,374.048,298.308,375.424,301.278,377.991C304.249,380.559,305.287,384.319,305.921,383.795C306.554,383.272,306.783,378.464,309.119,376.776C311.455,375.087,315.897,376.517,318.789,376.592C321.682,376.667,323.023,375.387,324.464,375.745C325.905,376.104,327.445,378.101,328.081,379.721C328.717,381.34,328.448,382.582,329.574,381.659C330.7,380.737,333.22,377.65,335.476,376.439C337.731,375.229,339.723,375.895,341.488,376.095C343.253,376.295,344.793,376.028,345.362,376.225C345.932,376.421,345.533,377.08,346.155,377.657C346.776,378.234,348.419,378.73,349.316,377.83C350.214,376.931,350.365,374.636,353.176,374.97C355.987,375.304,361.456,378.268,363.878,379.794C366.3,381.321,365.674,381.41,366.763,380.629C367.853,379.848,370.658,378.196,372.156,378.425C373.654,378.655,373.845,380.766,374.615,381.366C375.385,381.966,376.734,381.054,376.92,381.376C377.106,381.698,376.129,383.254,378.236,383.074C380.343,382.895,385.533,380.979,388.307,381.13C391.082,381.28,391.44,383.496,393.387,382.791C395.334,382.087,398.869,378.462,401.201,377.732C403.533,377.002,404.663,379.166,404.958,379.694C405.253,380.222,404.714,379.113,406.579,379.872C408.445,380.63,412.715,383.256,414.372,384.26C416.029,385.265,415.072,384.648,416.538,383.665C418.004,382.683,421.891,381.335,424.869,380.538C427.847,379.741,429.916,379.495,430.938,378.934C431.96,378.372,431.936,377.496,433.527,378.31C435.119,379.124,438.325,381.628,439.443,382.657C440.562,383.685,439.593,383.238,440.147,382.189C440.702,381.139,442.78,379.488,445.424,380.121C448.068,380.753,451.276,383.669,453.303,384.183C455.33,384.698,456.175,382.811,457.896,381.049C459.618,379.286,462.216,377.649,463.286,376.471C464.356,375.293,463.898,374.573,464.015,374.756C464.133,374.939,464.825,376.025,467.903,377.228C470.982,378.432,476.446,379.752,479.623,379.636C482.8,379.519,483.69,377.965,484.254,378.209C484.819,378.454,485.058,380.497,486.508,381.366C487.957,382.235,490.617,381.929,492.031,381.498C493.446,381.067,493.615,380.512,494.421,381.439C495.226,382.366,496.667,384.775,497.761,385.722C498.854,386.669,499.6,386.153,500.812,384.97C502.024,383.787,503.703,381.937,505.405,379.48C507.108,377.024,508.835,373.96,511.789,372.549C514.744,371.137,518.927,371.376,521.947,371.797C524.967,372.218,526.824,372.82,527.318,374.507C527.812,376.193,526.944,378.964,529.721,380.073C532.497,381.183,538.917,380.63,541.992,380.098C545.067,379.566,544.796,379.054,545.04,378.462C545.284,377.869,546.044,377.195,547.01,377.795C547.976,378.395,549.148,380.269,548.585,380.31C548.021,380.351,545.722,378.559,548.605,379.323C551.489,380.087,559.555,383.406,564.102,383.904C568.649,384.402,569.679,382.078,570.142,381.127C570.606,380.176,570.504,380.598,571.051,381.374C571.597,382.151,572.792,383.282,574.8,382.086C576.808,380.889,579.63,377.365,581.467,376.479C583.304,375.592,584.155,377.343,584.958,378.225C585.761,379.107,586.514,379.12,587.28,378.328C588.046,377.537,588.824,375.941,589.338,376.243C589.853,376.545,590.105,378.746,591.546,379.112C592.987,379.479,595.617,378.013,596.4,377.462C597.184,376.911,596.12,377.276,597.175,379.199C598.23,381.122,601.402,384.603,604.757,385.268C608.111,385.933,611.648,383.781,613.568,382.593C615.487,381.405,615.79,381.18,616.054,380.891C616.317,380.602,616.542,380.247,617.048,380.136C617.555,380.024,618.343,380.155,618.637,380.205C618.931,380.255,618.731,380.223,619.738,379.121C620.745,378.02,622.959,375.849,625.072,376.603C627.185,377.357,629.196,381.036,631.731,383.31C634.266,385.583,637.325,386.451,639.713,384.073C642.1,381.696,643.814,376.073,646.25,376.245C648.685,376.416,651.841,382.383,654.287,384.055C656.732,385.727,658.467,383.106,659.898,381.9C661.329,380.693,662.455,380.903,662.456,381.719C662.456,382.536,661.33,383.96,662.88,384.893C664.431,385.826,668.658,386.269,672.806,385.749C676.954,385.229,681.022,383.745,684.497,381.713C687.971,379.681,690.851,377.1,692.936,377.291C695.02,377.482,696.308,380.445,697.497,381.764C698.686,383.083,699.774,382.759,700.125,382.275C700.476,381.791,700.089,381.146,700.277,380.903C700.465,380.659,701.227,380.817,702.854,381.667C704.482,382.518,706.976,384.062,708.698,383.577C710.421,383.092,711.372,380.579,711.274,379.304C711.175,378.03,710.026,377.994,712.559,377.308C715.091,376.621,721.305,375.284,724.741,375.822C728.176,376.36,728.833,378.775,730.044,380.346C731.254,381.917,733.017,382.645,733.709,382.938C734.402,383.232,734.023,383.091,735.922,381.225C737.821,379.359,741.998,375.767,744.237,376.815C746.475,377.863,746.776,383.55,749.799,385.482C752.821,387.415,758.565,385.593,760.72,384.674C762.875,383.756,761.441,383.741,761.871,383.448C762.301,383.154,764.594,382.583,768.45,381.667C772.306,380.752,777.724,379.492,780.181,378.817C782.638,378.141,782.134,378.05,782.047,377.22C781.959,376.39,782.287,374.823,784.755,373.588C787.223,372.353,791.832,371.451,795.43,373.027C799.028,374.603,801.614,378.657,803.709,380.806C805.805,382.956,807.409,383.201,809.08,382.586C810.752,381.972,812.49,380.498,812.651,379.938C812.812,379.378,811.395,379.731,812.883,380.161C814.37,380.591,818.762,381.096,820.745,380.101C822.727,379.106,822.299,376.61,823.11,375.842C823.921,375.074,825.97,376.035,828.592,375.614C831.214,375.193,834.408,373.391,837.419,372.954C840.43,372.517,843.257,373.445,845.41,375.098C847.562,376.751,849.041,379.13,849.625,380.787C850.209,382.444,849.897,383.379,851.459,383.734C853.02,384.088,856.454,383.862,858.914,383.164C861.373,382.466,862.858,381.295,865.156,380.247C867.453,379.198,870.564,378.273,872.502,379.485C874.439,380.698,875.204,384.049,875.717,385.754C876.231,387.459,876.493,387.519,879.045,386.351C881.598,385.183,886.442,382.786,889.362,382.152C892.283,381.518,893.281,382.647,894.289,382.953C895.297,383.259,896.314,382.742,898.573,382.615C900.832,382.487,904.332,382.75,906.409,381.637C908.486,380.524,909.14,378.035,909.988,376.919C910.835,375.803,911.876,376.06,913.02,376.788C914.165,377.516,915.412,378.716,917.053,378.484C918.693,378.252,920.725,376.59,921.681,376.918C922.637,377.247,922.516,379.566,923.038,380.47C923.56,381.373,924.725,380.86,924.774,380.448C924.822,380.037,923.753,379.728,925.528,380.155C927.303,380.582,931.921,381.745,935.148,381.955C938.375,382.165,940.21,381.421,940.965,381.311C941.72,381.2,941.396,381.723,941.962,381.777C942.528,381.831,943.985,381.415,944.867,380.978C945.748,380.54,946.055,380.081,945.872,378.817C945.689,377.554,945.016,375.486,946.761,375.034C948.506,374.582,952.669,375.746,955.184,377.993C957.698,380.241,958.565,383.572,959.778,385.354C960.991,387.136,962.549,387.37,966.114,387.054C969.678,386.738,975.247,385.872,978.337,382.47C981.428,379.067,982.04,373.128,981.85,369.229C981.659,365.329,980.665,363.469,979.427,360.969C978.189,358.47,976.706,355.333,974.34,354.792C971.973,354.251,968.723,356.307,966.114,356.818C963.505,357.329,961.538,356.295,960.392,356.42C959.245,356.545,958.92,357.828,957.4,359.676C955.881,361.523,953.168,363.935,951.474,364.177C949.78,364.418,949.106,362.49,948.593,361.238C948.079,359.986,947.727,359.41,947.832,360.339C947.937,361.268,948.5,363.702,946.515,363.841C944.531,363.981,939.999,361.825,937.439,359.518C934.879,357.212,934.29,354.756,933.128,354.753C931.966,354.75,930.231,357.202,928.739,359.338C927.248,361.474,926,363.294,925.108,363.144C924.215,362.994,923.678,360.873,921.529,360.41C919.381,359.947,915.62,361.141,913.634,362.219C911.648,363.296,911.438,364.258,910.519,362.789C909.601,361.321,907.975,357.422,906.116,356.725C904.257,356.028,902.164,358.534,901.123,358.992C900.083,359.45,900.095,357.86,899.155,357.444C898.216,357.028,896.324,357.786,895.979,357.502C895.634,357.217,896.834,355.891,894.584,354.743C892.334,353.596,886.633,352.627,882,352.569C877.368,352.512,873.804,353.365,870.289,354.855C866.774,356.344,863.307,358.469,861.684,360.199C860.062,361.93,860.284,363.267,858.584,364.442C856.885,365.617,853.265,366.631,851.056,366.984C848.847,367.336,848.05,367.027,846.217,365.94C844.384,364.853,841.514,362.989,839.647,361.217C837.781,359.445,836.916,357.765,836.055,357.174C835.194,356.582,834.335,357.079,833.712,357.809C833.089,358.539,832.701,359.501,832.928,359.992C833.156,360.482,833.998,360.5,832.898,361.91C831.798,363.32,828.755,366.122,825.467,366.032C822.179,365.941,818.646,362.958,817.752,360.314C816.857,357.669,818.601,355.363,815.742,355.456C812.882,355.548,805.419,358.041,802.114,358.132C798.808,358.224,799.66,355.915,797.667,355.653C795.674,355.392,790.836,357.176,787.067,359.124C783.298,361.073,780.597,363.185,779.751,364.521C778.905,365.857,779.913,366.418,779.011,365.935C778.108,365.453,775.296,363.927,772.63,362.526C769.965,361.124,767.447,359.848,764.945,359.779C762.443,359.709,759.958,360.847,757.872,361.143C755.787,361.439,754.101,360.893,753.931,360.223C753.761,359.552,755.108,358.757,753.771,358.401C752.434,358.045,748.415,358.129,747.912,358.387C747.409,358.644,750.423,359.074,748.726,358.827C747.029,358.58,740.62,357.655,736.969,357.3C733.318,356.945,732.424,357.16,730.534,357.332C728.644,357.505,725.758,357.635,724.126,357.601C722.494,357.566,722.115,357.368,721.623,357.507C721.131,357.646,720.525,358.122,719.655,359.116C718.786,360.111,717.654,361.622,716.717,360.975C715.78,360.328,715.039,357.523,713.658,357.301C712.277,357.078,710.255,359.439,709.334,359.37C708.413,359.301,708.592,356.803,708.684,356.195C708.775,355.587,708.778,356.87,707.179,357.052C705.579,357.234,702.376,356.316,699.37,356.169C696.364,356.023,693.554,356.647,689.83,358.912C686.105,361.176,681.466,365.081,676.899,366.202C672.331,367.324,667.836,365.663,665.379,363.327C662.923,360.991,662.507,357.981,661.011,357.405C659.516,356.829,656.941,358.686,655.051,359.261C653.16,359.836,651.952,359.128,650.212,359.728C648.471,360.328,646.198,362.236,644.617,361.501C643.037,360.765,642.148,357.387,639.891,356.136C637.633,354.884,634.006,355.759,631.64,357.903C629.274,360.047,628.168,363.459,625.877,364.401C623.586,365.344,620.109,363.816,618.573,361.768C617.037,359.72,617.44,357.15,617.572,357.285C617.703,357.419,617.564,360.258,614.917,360.605C612.27,360.952,607.116,358.809,605.092,359.634C603.069,360.46,604.175,364.256,601.919,364.412C599.664,364.569,594.046,361.085,591.102,360.269C588.159,359.454,587.891,361.305,586.547,362.533C585.204,363.762,582.785,364.368,580.482,364.679C578.179,364.991,575.991,365.008,575.388,363.696C574.786,362.384,575.769,359.743,574.398,358.862C573.027,357.981,569.302,358.86,567.333,360.789C565.364,362.717,565.152,365.695,563.595,365.777C562.037,365.859,559.135,363.045,556.991,361.12C554.846,359.195,553.46,358.159,551.27,359.02C549.081,359.881,546.088,362.639,544.137,363.616C542.186,364.593,541.277,363.791,540.757,362.978C540.237,362.165,540.107,361.342,537.831,360.737C535.555,360.132,531.133,359.745,528.054,359.382C524.974,359.018,523.237,358.679,521.376,358.869C519.516,359.058,517.532,359.777,516.496,360.634C515.46,361.491,515.371,362.487,514.849,362.576C514.327,362.666,513.371,361.849,512.065,362.016C510.758,362.182,509.1,363.331,506.871,364.281C504.642,365.23,501.841,365.979,500.475,365.316C499.109,364.652,499.179,362.576,499.263,362.426C499.346,362.276,499.443,364.053,497.055,365.125C494.668,366.198,489.795,366.566,484.931,365.27C480.068,363.974,475.214,361.012,473.262,359.32C471.309,357.628,472.257,357.206,470.846,358.98C469.435,360.754,465.665,364.726,462.769,366.452C459.872,368.178,457.849,367.659,455.081,365.951C452.313,364.243,448.8,361.348,446.127,361.085C443.454,360.821,441.621,363.191,440.156,363.645C438.69,364.098,437.593,362.636,436.851,362.029C436.108,361.423,435.719,361.672,435.185,361.489C434.652,361.306,433.974,360.69,433.559,360.739C433.144,360.788,432.993,361.502,432.883,362.725C432.773,363.949,432.705,365.683,430.893,365.176C429.081,364.669,425.526,361.923,423.733,360.755C421.939,359.587,421.908,359.999,421.937,359.977C421.967,359.954,422.057,359.498,420.1,359.3C418.143,359.102,414.139,359.162,411.756,359.118C409.372,359.074,408.61,358.927,407.728,360.122C406.845,361.317,405.843,363.854,405.23,364.842C404.617,365.831,404.395,365.271,401.454,363.828C398.513,362.385,392.853,360.058,390.806,358.704C388.759,357.35,390.326,356.968,389.875,357.504C389.424,358.04,386.956,359.495,384.306,359.308C381.657,359.121,378.827,357.293,376.092,357.107C373.357,356.92,370.716,358.376,369.357,359.287C367.998,360.198,367.92,360.563,367.666,359.888C367.412,359.214,366.982,357.499,366.746,356.67C366.509,355.842,366.468,355.9,365.014,355.051C363.56,354.202,360.694,352.445,358.485,352.069C356.276,351.692,354.725,352.694,352.133,353.618C349.54,354.542,345.906,355.387,341.769,356.705C337.631,358.023,332.989,359.814,331.427,361.683C329.866,363.552,331.384,365.499,329.59,365.412C327.796,365.326,322.689,363.206,319.655,362.496C316.62,361.785,315.657,362.484,316.058,363.051C316.459,363.619,318.225,364.054,316.582,363.452C314.939,362.85,309.888,361.21,306.868,360.664C303.848,360.119,302.86,360.668,302,360.054C301.14,359.441,300.408,357.663,299.577,356.798C298.746,355.932,297.816,355.978,297.096,357.974C296.375,359.97,295.864,363.915,293.867,364.455C291.869,364.996,288.386,362.131,286.116,361.531C283.847,360.931,282.791,362.596,282.971,363.231C283.152,363.866,284.568,363.471,281.595,362.127C278.623,360.784,271.262,358.492,268.073,359.286C264.885,360.08,265.869,363.96,264.982,365.874C264.095,367.789,261.337,367.739,257.881,366.166C254.426,364.593,250.272,361.497,248.591,361.144C246.909,360.791,247.7,363.18,246.092,363.586C244.483,363.993,240.476,362.417,237.271,360.607C234.065,358.796,231.661,356.749,230.066,356.399C228.471,356.049,227.686,357.395,227.293,358.068L226.9,358.741"></path>
      </svg>
      