<?xml version="1.0" encoding="UTF-8" standalone="no"?>
    <!-- Created with Inkscape (https://labs.original.art.br/draw) -->
    
    <svg
       xmlns:dc="http://purl.org/dc/elements/1.1/"
       xmlns:cc="http://creativecommons.org/ns#"
       xmlns:rdf="http://www.w3.org/1999/02/22-rdf-syntax-ns#"
       xmlns:svg="http://www.w3.org/2000/svg"
       xmlns="http://www.w3.org/2000/svg"
       xmlns:sodipodi="http://sodipodi.sourceforge.net/DTD/sodipodi-0.dtd"
       xmlns:inkscape="http://www.inkscape.org/namespaces/inkscape"
       id="Wt1BB"
       version="1.1"
       inkscape:version="0.91 r13725"
       width="undefined"
       height="undefined"
       viewBox="0 0 undefined undefined"
       sodipodi:docname="_paths6.svg">
      <metadata
         id="metadata3404">
        <rdf:RDF>
          <cc:Work
             rdf:about="">
            <dc:format>image/svg+xml</dc:format>
            <dc:type
               rdf:resource="http://purl.org/dc/dcmitype/StillImage" />
            <dc:title></dc:title>
          </cc:Work>
        </rdf:RDF>
      </metadata>
      undefined<path fill="none" stroke-width="1" style="stroke: rgb(0, 71, 171);" d="M4.335,500L4.556,499.238C4.777,498.475,5.218,496.951,5.528,492.697C5.839,488.443,6.019,481.461,6.349,477.338C6.679,473.216,7.159,471.953,11.366,469.364C15.573,466.776,23.506,462.86,26.215,461.012C28.924,459.163,26.408,459.382,27.726,460.16C29.044,460.939,34.195,462.278,37.378,461.97C40.56,461.661,41.774,459.706,41.187,458.893C40.6,458.081,38.213,458.413,40.414,459.62C42.615,460.827,49.406,462.91,54.167,462.755C58.927,462.601,61.659,460.21,61.958,459.276C62.256,458.342,60.123,458.866,60.254,459.104C60.386,459.341,62.783,459.291,66.189,459.527C69.595,459.763,74.009,460.284,76.259,461.333C78.51,462.383,78.597,463.961,80.188,463.448C81.779,462.935,84.875,460.33,87.404,458.367C89.933,456.404,91.895,455.082,92.568,456.785C93.241,458.489,92.625,463.217,94.845,464.025C97.066,464.833,102.124,461.72,104.944,461.977C107.765,462.233,108.349,465.857,110.169,466.181C111.989,466.505,115.046,463.528,118.091,462.117C121.136,460.706,124.171,460.86,125.607,461.1C127.043,461.34,126.881,461.667,128.071,460.535C129.261,459.403,131.804,456.813,133.204,456.795C134.605,456.776,134.864,459.329,135.66,459.895C136.457,460.46,137.792,459.038,139.308,459.573C140.825,460.108,142.524,462.599,144.307,462.542C146.091,462.485,147.96,459.88,149.595,458.992C151.229,458.105,152.63,458.936,153.349,458.901C154.068,458.866,154.105,457.966,154.376,457.217C154.648,456.468,155.154,455.87,157.265,457.525C159.377,459.18,163.095,463.087,165.583,463.913C168.072,464.739,169.33,462.484,168.976,461.311C168.623,460.137,166.656,460.046,167.206,459.265C167.756,458.483,170.822,457.01,174.008,457.089C177.193,457.167,180.497,458.797,181.744,459.852C182.991,460.906,182.18,461.385,182.403,461.742C182.625,462.099,183.88,462.333,184.967,461.993C186.055,461.653,186.975,460.738,189.591,460.786C192.206,460.834,196.518,461.844,197.708,460.585C198.899,459.325,196.969,455.795,198.634,455.032C200.299,454.269,205.559,456.272,208.941,456.923C212.324,457.574,213.829,456.872,214.564,455.716C215.3,454.56,215.266,452.95,217.124,453.27C218.982,453.59,222.732,455.841,224.983,457.345C227.234,458.848,227.986,459.603,228.476,460.845C228.966,462.086,229.192,463.813,230.212,463.758C231.232,463.703,233.045,461.865,234.417,460.988C235.788,460.11,236.719,460.193,238.753,459.762C240.788,459.331,243.928,458.388,246.663,457.47C249.398,456.552,251.729,455.661,253.734,455.214C255.739,454.767,257.418,454.765,258.731,454.826C260.043,454.888,260.989,455.013,262.489,455.655C263.989,456.296,266.044,457.452,268.574,458.371C271.103,459.289,274.108,459.969,275.56,460.181C277.012,460.392,276.911,460.136,277.384,460.024C277.858,459.912,278.906,459.945,280.779,460.785C282.653,461.624,285.352,463.27,286.304,463.591C287.256,463.911,286.46,462.906,287.313,463.195C288.167,463.484,290.67,465.067,293.412,464.332C296.154,463.597,299.136,460.544,300.737,459.359C302.338,458.174,302.559,458.857,302.901,459.286C303.243,459.715,303.706,459.89,304.176,461.071C304.646,462.251,305.124,464.437,306.153,463.483C307.182,462.528,308.764,458.432,309.613,457.228C310.462,456.024,310.579,457.711,313.367,460.067C316.155,462.424,321.616,465.449,325.502,465.526C329.388,465.602,331.7,462.731,333.497,460.326C335.295,457.921,336.578,455.982,337.584,454.84C338.589,453.699,339.317,453.355,340.561,452.963C341.806,452.57,343.568,452.13,346.794,453.407C350.02,454.684,354.71,457.679,357.441,459.064C360.171,460.448,360.943,460.222,360.949,459.602C360.955,458.982,360.195,457.968,360.035,458.998C359.875,460.028,360.313,463.101,362.266,464.242C364.219,465.382,367.686,464.59,370.7,463.504C373.714,462.418,376.275,461.038,378.493,459.716C380.711,458.394,382.587,457.13,383.176,457.537C383.765,457.943,383.067,460.02,383.847,460.475C384.626,460.93,386.884,459.763,388.76,458.074C390.635,456.386,392.129,454.175,394.425,453.255C396.721,452.335,399.819,452.706,401.653,454.202C403.486,455.698,404.056,458.32,404.24,460.448C404.424,462.576,404.223,464.21,406.264,465.664C408.305,467.117,412.589,468.39,415.799,467.481C419.01,466.572,421.147,463.481,423.391,461.775C425.636,460.068,427.987,459.745,430.191,458.687C432.396,457.629,434.455,455.836,437.077,455.073C439.7,454.31,442.886,454.576,444.804,455.188C446.721,455.8,447.37,456.757,449.758,456.693C452.146,456.628,456.273,455.543,459.227,456.218C462.181,456.893,463.963,459.328,463.646,459.675C463.329,460.022,460.914,458.281,463.146,456.975C465.378,455.668,472.258,454.796,476.329,455.47C480.401,456.143,481.665,458.361,483.17,459.786C484.674,461.211,486.421,461.843,487.551,461.604C488.682,461.365,489.197,460.255,490.522,460.557C491.846,460.858,493.981,462.57,494.086,462.883C494.191,463.197,492.266,462.111,493.987,461.869C495.709,461.627,501.077,462.228,504.799,462.107C508.521,461.985,510.597,461.141,510.866,459.893C511.134,458.646,509.596,456.996,511.058,457.025C512.52,457.054,516.982,458.762,519.252,459.416C521.521,460.071,521.598,459.67,521.178,460.872C520.759,462.075,519.843,464.879,522.195,466.32C524.547,467.761,530.167,467.838,533.702,466.297C537.237,464.755,538.688,461.594,539.842,460.149C540.997,458.703,541.856,458.972,541.417,459.2C540.978,459.429,539.242,459.615,540.706,459.692C542.17,459.768,546.833,459.735,549.778,459.42C552.724,459.106,553.95,458.51,554.632,458.572C555.313,458.634,555.449,459.354,555.375,459.418C555.301,459.483,555.018,458.893,554.147,459.587C553.276,460.281,551.818,462.259,553.711,462.372C555.605,462.485,560.851,460.733,563.735,459.723C566.618,458.714,567.139,458.446,567.403,458.71C567.668,458.975,567.676,459.77,569.577,459.774C571.479,459.778,575.273,458.99,577.435,460.156C579.596,461.322,580.125,464.441,581.262,466.029C582.399,467.618,584.144,467.675,587.792,466.097C591.44,464.519,596.991,461.305,599.839,458.988C602.687,456.672,602.832,455.252,603.704,456.386C604.575,457.519,606.172,461.205,607.431,462.048C608.69,462.89,609.61,460.889,612.749,460.239C615.887,459.589,621.244,460.291,624.127,460.977C627.011,461.664,627.42,462.334,627.658,462.286C627.897,462.239,627.965,461.473,627.286,460.361C626.607,459.249,625.181,457.791,627.527,456.398C629.873,455.005,635.992,453.677,640.747,454.067C645.502,454.456,648.893,456.562,650.271,457.516C651.649,458.47,651.013,458.271,651.592,458.691C652.171,459.112,653.964,460.151,656.125,459.752C658.286,459.353,660.814,457.515,662.777,456.198C664.739,454.882,666.136,454.087,668.124,455.484C670.112,456.88,672.691,460.468,672.75,461.972C672.809,463.477,670.349,462.898,671.428,461.713C672.508,460.527,677.127,458.735,681.204,458.469C685.281,458.203,688.816,459.463,690.851,460.112C692.887,460.761,693.423,460.799,694.901,461.694C696.379,462.59,698.8,464.343,699.85,463.629C700.901,462.916,700.582,459.736,701.56,458.09C702.537,456.444,704.811,456.332,707.303,457.138C709.794,457.944,712.503,459.667,714.031,460.993C715.56,462.319,715.908,463.248,716.814,462.603C717.719,461.958,719.182,459.739,719.755,457.55C720.328,455.361,720.012,453.204,721.055,452.373C722.099,451.541,724.502,452.036,727.739,453.818C730.977,455.599,735.049,458.667,737.365,459.55C739.682,460.432,740.244,459.129,742.925,458.496C745.605,457.862,750.404,457.898,753.791,457.794C757.177,457.691,759.152,457.447,760.589,457.476C762.025,457.505,762.923,457.806,763.563,458.138C764.202,458.469,764.583,458.833,765.723,459.066C766.862,459.3,768.76,459.404,769.709,460.19C770.658,460.976,770.658,462.444,770.937,464.082C771.215,465.72,771.773,467.529,774.201,465.988C776.63,464.446,780.93,459.554,784.314,458.214C787.699,456.874,790.169,459.085,791.617,459.368C793.066,459.651,793.493,458.006,793.474,459.053C793.455,460.1,792.99,463.839,793.29,464.895C793.589,465.95,794.653,464.322,799.468,462.958C804.282,461.594,812.848,460.493,817.176,459.714C821.505,458.936,821.596,458.48,820.906,459.054C820.216,459.629,818.745,461.234,820.186,461.543C821.626,461.852,825.976,460.864,828.347,460.979C830.718,461.093,831.11,462.308,832.312,462.476C833.515,462.644,835.528,461.764,836.272,461.474C837.017,461.184,836.492,461.483,836.865,460.33C837.239,459.177,838.511,456.571,839.897,454.918C841.283,453.266,842.781,452.567,844.553,454.279C846.324,455.991,848.367,460.114,850.73,462.166C853.093,464.218,855.775,464.2,858.489,463.244C861.203,462.289,863.95,460.397,865.66,459.469C867.371,458.54,868.046,458.574,867.689,458.547C867.332,458.52,865.943,458.43,866.844,458.534C867.744,458.638,870.934,458.934,871.447,459.453C871.959,459.971,869.795,460.711,870.18,460.743C870.566,460.775,873.5,460.099,877.073,459.243C880.645,458.387,884.856,457.351,887.735,457.454C890.613,457.556,892.159,458.796,893.016,459.713C893.873,460.629,894.041,461.222,894.243,462.809C894.445,464.396,894.681,466.977,896.345,466.701C898.008,466.424,901.1,463.289,904.508,461.453C907.915,459.617,911.638,459.081,913.383,458.555C915.129,458.029,914.897,457.513,915.327,458.31C915.758,459.107,916.85,461.216,918.743,461.21C920.636,461.204,923.329,459.082,923.66,459.411C923.992,459.739,921.962,462.518,924.216,463.841C926.47,465.164,933.007,465.031,936.558,463.502C940.109,461.972,940.674,459.046,942.982,458.182C945.289,457.318,949.341,458.516,951.389,458.414C953.438,458.312,953.484,456.911,954.157,456.878C954.83,456.844,956.13,458.178,956.782,458.468C957.435,458.757,957.44,458.002,957.728,456.992C958.017,455.982,958.59,454.717,959.006,455.022C959.421,455.327,959.679,457.201,963.093,459.812C966.508,462.422,973.08,465.77,977.08,465.988C981.079,466.205,982.506,463.293,985.074,461.133C987.642,458.973,991.351,457.564,991.016,453.99C990.68,450.415,986.299,444.674,982.586,441.036C978.873,437.398,975.829,435.863,974.163,435.526C972.497,435.19,972.21,436.054,972.244,435.346C972.278,434.638,972.633,432.358,970.632,431.122C968.631,429.885,964.273,429.691,959.886,428.518C955.5,427.344,951.086,425.191,947.155,424.855C943.225,424.519,939.778,426,938.774,428.479C937.77,430.958,939.208,434.434,937.717,434.428C936.226,434.422,931.805,430.934,929.171,430.511C926.538,430.088,925.691,432.73,924.184,433.486C922.677,434.241,920.51,433.11,919.454,432.221C918.398,431.331,918.452,430.684,917.836,430.407C917.22,430.13,915.932,430.223,916.081,429.92C916.23,429.617,917.815,428.917,916.499,429.329C915.182,429.74,910.963,431.263,907.659,431.649C904.356,432.035,901.968,431.285,900.046,430.325C898.123,429.365,896.666,428.195,895.102,428.937C893.538,429.678,891.867,432.332,891.611,432.936C891.354,433.541,892.511,432.097,891.143,431.309C889.775,430.52,885.88,430.387,884.164,430.189C882.447,429.991,882.908,429.727,882.896,429.78C882.883,429.832,882.397,430.199,882.114,430.881C881.831,431.563,881.752,432.558,881.237,432.491C880.721,432.423,879.77,431.292,877.638,431.997C875.507,432.701,872.196,435.242,868.493,435.389C864.79,435.535,860.696,433.288,859.123,431.746C857.55,430.204,858.5,429.367,858.298,429.914C858.096,430.461,856.744,432.393,853.257,432.292C849.77,432.191,844.149,430.057,840.666,427.851C837.184,425.645,835.84,423.367,834.16,423.493C832.48,423.619,830.464,426.15,830.177,427.598C829.89,429.047,831.332,429.414,829.415,429.805C827.497,430.197,822.219,430.614,819.12,430.803C816.021,430.991,815.101,430.952,814.541,430.701C813.981,430.45,813.783,429.987,812.647,429.861C811.512,429.734,809.441,429.944,808.096,430.175C806.752,430.405,806.134,430.656,804.758,431.155C803.382,431.653,801.248,432.399,800.064,432.464C798.879,432.53,798.644,431.915,798.869,431.728C799.095,431.541,799.779,431.782,799.859,431.223C799.939,430.664,799.415,429.304,796.905,430.611C794.395,431.917,789.899,435.889,785.666,435.372C781.432,434.855,777.461,429.85,773.824,428.687C770.187,427.524,766.884,430.203,766.698,431.29C766.512,432.378,769.444,431.873,768.119,430.078C766.795,428.283,761.214,425.197,756.32,423.716C751.426,422.235,747.218,422.359,744.008,423.088C740.798,423.818,738.585,425.153,736.337,427.657C734.088,430.161,731.804,433.834,729.536,433.606C727.267,433.378,725.014,429.249,724.344,429.137C723.674,429.024,724.587,432.929,722.983,434.478C721.379,436.026,717.257,435.219,713.998,434.41C710.739,433.602,708.344,432.794,706.841,431.977C705.338,431.161,704.728,430.337,704.363,430.279C703.999,430.222,703.879,430.932,703.314,430.898C702.749,430.864,701.738,430.087,701.018,428.512C700.297,426.937,699.867,424.564,697.666,425.814C695.464,427.064,691.491,431.936,690.115,433.235C688.74,434.535,689.961,432.262,688.211,431.124C686.46,429.985,681.738,429.981,678.369,428.825C675,427.67,672.984,425.364,671.728,426.215C670.472,427.065,669.978,431.073,668.59,432.131C667.202,433.189,664.921,431.296,663.336,430.607C661.751,429.918,660.862,430.431,660.96,429.848C661.059,429.265,662.144,427.584,660.72,427.923C659.296,428.262,655.364,430.621,653.781,431.068C652.198,431.515,652.964,430.051,652.539,429.485C652.113,428.919,650.496,429.251,648.009,430.552C645.523,431.853,642.168,434.123,638.594,434.818C635.02,435.513,631.227,434.634,629.758,434.557C628.288,434.479,629.142,435.202,628.297,433.09C627.452,430.977,624.909,426.028,621.625,424.955C618.341,423.881,614.317,426.683,612.543,427.989C610.769,429.296,611.245,429.108,610.426,430.418C609.608,431.727,607.495,434.535,605.429,433.586C603.363,432.637,601.344,427.933,597.86,427.4C594.376,426.868,589.428,430.507,586.027,432.13C582.626,433.752,580.772,433.358,578.89,431.357C577.009,429.357,575.1,425.751,573.925,425.049C572.749,424.348,572.307,426.551,570.557,426.878C568.807,427.204,565.75,425.654,562.815,426.524C559.88,427.393,557.068,430.682,555.047,431.896C553.026,433.109,551.797,432.247,551.03,431.026C550.263,429.806,549.958,428.227,549.088,428.523C548.219,428.818,546.786,430.989,546.937,431.38C547.088,431.772,548.823,430.384,546.638,428.661C544.453,426.937,538.348,424.877,535.905,425.382C533.462,425.888,534.681,428.958,532.585,430.153C530.489,431.347,525.079,430.665,522.073,429.745C519.068,428.825,518.467,427.668,517.8,427.663C517.132,427.658,516.397,428.806,516.475,430.301C516.553,431.795,517.444,433.637,515.859,434.451C514.275,435.265,510.216,435.051,508.862,432.993C507.508,430.935,508.859,427.033,506.861,426.177C504.863,425.321,499.517,427.51,497.369,428.71C495.221,429.91,496.27,430.121,495.953,429.708C495.636,429.295,493.954,428.257,492.221,428.149C490.489,428.041,488.707,428.862,487.227,430.892C485.747,432.922,484.569,436.16,482.839,436.286C481.109,436.413,478.827,433.428,476.64,431.79C474.454,430.153,472.362,429.864,471.252,429.298C470.141,428.733,470.012,427.893,469.669,428.38C469.326,428.868,468.77,430.684,467.595,430.952C466.421,431.221,464.628,429.941,462.582,429.755C460.537,429.569,458.238,430.476,456.042,431.75C453.847,433.024,451.754,434.664,449.581,434.008C447.407,433.353,445.152,430.403,444.014,429.511C442.876,428.619,442.854,429.785,441.264,430.025C439.673,430.265,436.513,429.578,436.192,429.107C435.87,428.635,438.387,428.377,438.131,429.134C437.875,429.89,434.846,431.661,430.913,431.392C426.98,431.123,422.143,428.815,420.079,427.643C418.016,426.472,418.726,426.436,415.866,427.61C413.006,428.784,406.577,431.167,404.414,431.691C402.251,432.214,404.355,430.878,403.197,429.972C402.04,429.065,397.621,428.587,394.079,427.976C390.538,427.365,387.874,426.621,386.25,426.837C384.627,427.053,384.043,428.229,383.799,430.289C383.555,432.349,383.651,435.293,383.692,435.713C383.732,436.134,383.717,434.031,381.344,433.546C378.972,433.061,374.242,434.193,370.441,434.055C366.64,433.916,363.767,432.507,362.111,431.325C360.455,430.143,360.016,429.188,358.939,428.729C357.863,428.271,356.149,428.31,355.852,428.651C355.555,428.992,356.674,429.635,354.216,429.006C351.758,428.377,345.722,426.476,342.153,426.283C338.583,426.091,337.479,427.607,336.354,427.607C335.229,427.607,334.082,426.09,333.246,425.922C332.409,425.754,331.882,426.934,332.297,428.429C332.712,429.924,334.07,431.735,331.761,432.094C329.453,432.453,323.48,431.36,320.718,430.433C317.957,429.507,318.408,428.747,318.02,430.053C317.631,431.36,316.403,434.732,314.978,435.792C313.553,436.851,311.933,435.598,309.564,433.704C307.196,431.81,304.079,429.275,302.148,427.851C300.218,426.427,299.475,426.115,298.639,426.729C297.803,427.342,296.875,428.883,296.73,430.167C296.585,431.452,297.223,432.481,295.373,432.911C293.523,433.341,289.186,433.173,286.836,431.497C284.486,429.822,284.122,426.64,283.34,425.756C282.557,424.872,281.356,426.285,279.903,427.018C278.45,427.752,276.746,427.804,273.54,427.842C270.333,427.879,265.626,427.901,264.335,427.607C263.044,427.313,265.169,426.703,264.131,425.82C263.092,424.938,258.889,423.784,254.825,424.223C250.76,424.663,246.834,426.696,244.614,427.829C242.394,428.961,241.88,429.191,241.283,428.967C240.686,428.742,240.004,428.063,239.434,428.162C238.864,428.261,238.406,429.138,238.514,430.01C238.622,430.882,239.296,431.748,238.489,431.881C237.683,432.014,235.397,431.413,233.969,431.734C232.541,432.056,231.971,433.301,230.919,433.176C229.867,433.051,228.332,431.556,228.324,431.506C228.317,431.456,229.836,432.851,228.297,432.329C226.759,431.806,222.161,429.367,218.374,428.805C214.586,428.242,211.607,429.557,209.649,430.164C207.691,430.771,206.753,430.67,206.421,430.898C206.09,431.126,206.363,431.683,205.674,432.395C204.985,433.106,203.332,433.972,201.672,433.654C200.012,433.336,198.344,431.833,197.685,430.435C197.026,429.036,197.375,427.741,197.044,426.405C196.714,425.07,195.704,423.694,193.243,424.832C190.783,425.97,186.871,429.623,183.616,429.961C180.36,430.299,177.76,427.323,176.646,426.917C175.532,426.511,175.904,428.675,175.393,428.86C174.883,429.044,173.49,427.25,171.048,427.5C168.607,427.75,165.116,430.044,163.299,431.485C161.482,432.927,161.339,433.516,159.09,433.655C156.84,433.794,152.485,433.482,149.577,432.234C146.669,430.986,145.208,428.801,145.14,429.313C145.071,429.825,146.396,433.034,145.054,433.058C143.712,433.083,139.704,429.923,135.674,429.706C131.643,429.488,127.59,432.212,125.309,432.715C123.029,433.218,122.522,431.5,122.401,430.507C122.28,429.513,122.544,429.244,122.045,429.219C121.545,429.193,120.283,429.412,119.765,429.166C119.247,428.921,119.474,428.213,118.534,427.829C117.593,427.446,115.485,427.386,114.496,427.042C113.506,426.698,113.636,426.068,113.172,426.353C112.708,426.637,111.651,427.834,109.896,428.894C108.142,429.954,105.689,430.876,103.644,431.957C101.599,433.038,99.96,434.278,99.265,434.032C98.57,433.786,98.817,432.053,96.759,430.645C94.701,429.236,90.338,428.151,88.627,427.847C86.915,427.543,87.856,428.02,87.782,428.832C87.707,429.644,86.616,430.791,84.634,431.01C82.653,431.229,79.78,430.52,78.732,429.945C77.684,429.371,78.461,428.931,78.669,429.06C78.877,429.189,78.516,429.886,76.91,429.398C75.305,428.91,72.453,427.237,71.528,427.405C70.603,427.572,71.603,429.581,69.017,431.715C66.43,433.85,60.257,436.111,56.603,436.29C52.949,436.469,51.815,434.566,50.334,433.13C48.852,431.695,47.022,430.726,46.278,429.514C45.534,428.302,45.875,426.847,44.386,427.832C42.897,428.817,39.577,432.242,36.966,432.473C34.355,432.705,32.453,429.743,31.052,429.449C29.651,429.156,28.751,431.532,26.617,432.56C24.484,433.588,21.117,433.267,19.141,431.052C17.164,428.836,16.577,424.726,16.606,420.938C16.635,417.15,17.282,413.685,18.641,410.668C19.999,407.651,22.071,405.082,22.753,403.648C23.436,402.215,22.729,401.917,24.419,402.446C26.109,402.975,30.197,404.331,31.947,404.392C33.697,404.452,33.11,403.217,34.411,401.665C35.713,400.113,38.902,398.244,40.735,398.104C42.567,397.964,43.043,399.552,43.817,400.064C44.592,400.576,45.665,400.013,46.045,399.033C46.425,398.053,46.112,396.656,46.783,397.978C47.455,399.299,49.11,403.34,51.574,404.094C54.039,404.848,57.313,402.316,58.624,401.595C59.936,400.874,59.285,401.963,60.205,402.98C61.125,403.998,63.615,404.944,64.927,404.288C66.238,403.632,66.371,401.374,67.873,399.303C69.375,397.232,72.245,395.349,74.227,396.89C76.208,398.43,77.301,403.394,80.978,403.932C84.655,404.47,90.917,400.583,94.299,400.04C97.682,399.498,98.185,402.301,98.973,402.436C99.76,402.571,100.832,400.038,101.87,398.445C102.908,396.852,103.914,396.199,104.887,396.194C105.861,396.189,106.803,396.832,108.059,397.036C109.315,397.24,110.885,397.003,112.249,398.179C113.612,399.355,114.769,401.944,116.39,403.538C118.011,405.132,120.095,405.731,121.74,404.124C123.385,402.516,124.591,398.703,126.654,397.639C128.717,396.575,131.638,398.26,133.717,397.692C135.796,397.124,137.033,394.303,138.833,392.935C140.633,391.567,142.996,391.653,144.027,393.736C145.058,395.819,144.756,399.898,147.95,400.939C151.145,401.979,157.835,399.981,160.684,398.932C163.534,397.884,162.544,397.787,163.679,398.201C164.814,398.615,168.075,399.54,170.53,399.244C172.984,398.948,174.631,397.431,174.726,398.371C174.821,399.311,173.364,402.707,175.133,404.293C176.903,405.88,181.899,405.656,185.168,404.632C188.438,403.608,189.981,401.784,190.822,400.895C191.663,400.007,191.802,400.054,192.077,400.737C192.352,401.42,192.763,402.738,193.481,402.72C194.199,402.701,195.223,401.346,195.35,400.667C195.477,399.989,194.707,399.987,195.503,399.541C196.3,399.094,198.663,398.203,200.554,399.301C202.444,400.399,203.862,403.488,205.325,404.074C206.788,404.661,208.297,402.746,209.044,401.788C209.79,400.83,209.775,400.827,209.893,400.683C210.011,400.539,210.264,400.253,210.794,400.226C211.325,400.198,212.134,400.43,212.574,400.448C213.014,400.467,213.086,400.272,213.633,400.356C214.181,400.441,215.206,400.805,215.965,399.855C216.724,398.904,217.217,396.639,217.43,397.433C217.642,398.226,217.573,402.08,219.282,402.766C220.99,403.452,224.476,400.971,226.713,400.121C228.95,399.27,229.94,400.05,230.991,399.518C232.043,398.986,233.157,397.143,234.001,398.5C234.844,399.857,235.417,404.414,237.637,405.197C239.856,405.981,243.723,402.989,246.057,401.926C248.391,400.863,249.191,401.729,250.88,400.616C252.569,399.503,255.146,396.413,257.704,397.124C260.261,397.835,262.799,402.348,264.664,404.478C266.529,406.609,267.721,406.358,268.821,405.382C269.921,404.407,270.928,402.707,270.881,401.688C270.833,400.668,269.73,400.329,272.365,399.317C275,398.305,281.373,396.621,285.533,397.357C289.693,398.092,291.639,401.247,294.102,402.105C296.565,402.964,299.544,401.525,301.258,400.039C302.973,398.554,303.423,397.021,303.166,397.795C302.909,398.568,301.945,401.648,302.57,401.388C303.194,401.127,305.407,397.525,308.272,397.512C311.137,397.499,314.655,401.075,319.291,401.993C323.928,402.912,329.684,401.174,331.619,401.75C333.554,402.327,331.67,405.218,332.956,405.135C334.241,405.053,338.697,401.997,342.591,399.774C346.484,397.55,349.815,396.159,352.254,395.418C354.692,394.677,356.238,394.588,357.846,396.074C359.454,397.559,361.124,400.621,363.007,401.393C364.889,402.166,366.984,400.65,368.83,400.82C370.677,400.989,372.275,402.844,374.49,401.835C376.704,400.825,379.536,396.951,381.735,396.359C383.934,395.767,385.501,398.457,384.902,398.862C384.303,399.267,381.54,397.386,384.425,396.456C387.31,395.526,395.843,395.548,400.319,396.289C404.794,397.029,405.21,398.489,404.786,399.106C404.363,399.723,403.099,399.498,402.738,400.01C402.377,400.522,402.919,401.77,405.813,401.182C408.707,400.593,413.953,398.167,416.423,399.201C418.892,400.236,418.583,404.73,419.258,406.226C419.933,407.723,421.592,406.222,424.16,405.026C426.728,403.831,430.205,402.941,433.548,401.1C436.89,399.26,440.098,396.469,444.042,397.642C447.987,398.815,452.668,403.951,456.268,404.898C459.869,405.845,462.389,402.603,464.045,400.089C465.7,397.574,466.491,395.787,468.946,395.555C471.401,395.323,475.521,396.646,477.862,398.504C480.202,400.363,480.762,402.757,483.044,403.353C485.327,403.95,489.331,402.75,491.983,401.292C494.634,399.834,495.933,398.118,496.87,397.915C497.808,397.712,498.386,399.022,498.152,400.258C497.919,401.495,496.875,402.658,497.991,403.479C499.106,404.299,502.381,404.777,504.68,404.099C506.979,403.422,508.304,401.589,508.832,401.073C509.36,400.558,509.092,401.36,510.541,401.167C511.99,400.974,515.157,399.786,516.751,399.641C518.345,399.496,518.366,400.393,519.494,399.267C520.622,398.14,522.855,394.99,523.984,393.392C525.113,391.793,525.138,391.746,525.954,393.164C526.771,394.582,528.38,397.465,532.492,398.628C536.605,399.791,543.222,399.235,546.383,397.828C549.544,396.422,549.25,394.165,550.673,393.97C552.096,393.776,555.235,395.644,558.278,395.745C561.32,395.845,564.264,394.18,566.385,395.343C568.506,396.506,569.804,400.498,570.479,401.159C571.154,401.819,571.207,399.149,573.65,398.874C576.094,398.599,580.928,400.719,582.664,402.554C584.399,404.389,583.036,405.938,585.852,405.83C588.667,405.722,595.661,403.957,599.111,402.608C602.561,401.26,602.467,400.328,603.956,400.848C605.444,401.367,608.515,403.337,610.753,404.35C612.991,405.364,614.396,405.42,615.144,404.097C615.891,402.774,615.981,400.073,618.648,399.437C621.316,398.802,626.562,400.231,629.182,400.022C631.802,399.812,631.796,397.963,632.408,397.003C633.019,396.044,634.247,395.973,635.448,397.862C636.649,399.752,637.823,403.602,640.266,404.302C642.71,405.001,646.423,402.549,648.674,401.291C650.925,400.033,651.713,399.969,651.482,399.903C651.25,399.837,649.997,399.768,650.39,400.692C650.782,401.616,652.82,403.531,654.327,403.117C655.833,402.702,656.809,399.957,658.693,399.995C660.578,400.032,663.372,402.851,664.55,403.526C665.728,404.201,665.289,402.732,667.107,401.472C668.924,400.212,672.996,399.162,676.233,399.156C679.469,399.15,681.87,400.189,682.413,399.764C682.957,399.339,681.643,397.45,682.803,397.06C683.963,396.67,687.597,397.778,689.5,399.409C691.403,401.04,691.575,403.194,694,403.599C696.426,404.004,701.105,402.66,703.324,402.383C705.542,402.106,705.301,402.894,704.959,403.287C704.617,403.681,704.175,403.678,706.398,402.862C708.621,402.045,713.509,400.413,716.962,400.915C720.415,401.416,722.433,404.051,723.872,404.765C725.312,405.479,726.173,404.273,727.156,403.129C728.139,401.985,729.244,400.904,728.896,400.111C728.548,399.318,726.747,398.813,727.558,399.113C728.37,399.414,731.794,400.518,734.18,400.956C736.567,401.395,737.915,401.166,739.029,402.511C740.142,403.856,741.021,406.774,742.566,408.186C744.11,409.598,746.32,409.504,748.934,407.56C751.549,405.617,754.568,401.824,757.322,400.931C760.076,400.038,762.565,402.045,764.059,402.968C765.552,403.891,766.05,403.73,766.399,403.954C766.747,404.179,766.947,404.788,769.524,404.829C772.102,404.869,777.057,404.34,778.684,403.767C780.31,403.194,778.607,402.577,780.185,403.107C781.764,403.637,786.624,405.315,790.423,404.952C794.222,404.589,796.961,402.185,797.707,399.861C798.454,397.537,797.208,395.294,798.815,395.066C800.421,394.838,804.879,396.626,806.876,399.366C808.873,402.106,808.409,405.799,810.092,406.119C811.776,406.439,815.606,403.385,817.661,401.799C819.715,400.213,819.993,400.095,821.237,399.486C822.481,398.877,824.692,397.777,827.416,397.111C830.141,396.445,833.379,396.214,835.086,396.718C836.793,397.222,836.97,398.462,837.307,397.503C837.644,396.543,838.141,393.384,840.222,393.956C842.303,394.529,845.967,398.833,847.807,400.683C849.647,402.532,849.664,401.926,850.326,401.309C850.989,400.693,852.298,400.066,852.681,400.733C853.065,401.399,852.522,403.359,852.838,404.44C853.154,405.52,854.328,405.722,856.155,404.014C857.982,402.306,860.461,398.687,863.485,397.698C866.508,396.708,870.076,398.347,870.934,399.422C871.792,400.498,869.94,401.01,872.38,401.043C874.819,401.076,881.551,400.63,885.355,399.012C889.158,397.394,890.034,394.605,891.289,394.697C892.545,394.789,894.18,397.761,894.066,399.269C893.953,400.777,892.091,400.819,893.969,399.346C895.848,397.873,901.468,394.884,905.172,393.924C908.876,392.964,910.665,394.033,912.602,394.86C914.54,395.686,916.627,396.27,918.167,397.117C919.706,397.964,920.699,399.073,921.756,399.73C922.814,400.387,923.938,400.592,923.987,400.313C924.036,400.035,923.011,399.274,924.214,400.416C925.417,401.559,928.848,404.605,930.546,403.849C932.244,403.094,932.21,398.538,935.127,398.264C938.044,397.991,943.913,402,947.435,403.019C950.956,404.037,952.129,402.065,952.271,401.451C952.414,400.838,951.526,401.583,952.496,401.628C953.466,401.672,956.293,401.017,956.278,401.314C956.263,401.612,953.406,402.861,955.324,402.943C957.242,403.024,963.935,401.937,966.701,401.376C969.468,400.815,968.308,400.779,969.675,400.702C971.043,400.624,974.939,400.505,976.922,399.67C978.906,398.835,978.978,397.284,980.772,398.274C982.566,399.264,986.082,402.795,988.915,402.613C991.748,402.43,993.898,398.535,992.523,394.576C991.149,390.618,986.249,386.597,984.484,381.064C982.719,375.531,984.088,368.487,981.541,365.839C978.994,363.191,972.53,364.939,968.476,363.877C964.423,362.815,962.779,358.944,960.136,358.145C957.492,357.346,953.85,359.62,952.606,360.507C951.363,361.394,952.52,360.894,951.75,361.031C950.98,361.168,948.282,361.944,946.928,362.305C945.574,362.666,945.563,362.613,944.714,363.441C943.866,364.269,942.18,365.98,940.521,366.336C938.862,366.693,937.231,365.695,934.434,364.455C931.638,363.215,927.677,361.733,925.895,360.769C924.114,359.804,924.512,359.359,924.177,359.162C923.841,358.964,922.773,359.014,922.411,358.943C922.049,358.872,922.393,358.68,921.955,358.858C921.517,359.036,920.297,359.583,919.415,360.852C918.532,362.12,917.986,364.11,917.111,363.736C916.236,363.362,915.031,360.624,913.308,359.41C911.584,358.197,909.341,358.507,907.576,358.845C905.811,359.182,904.524,359.546,904.077,360.784C903.63,362.023,904.024,364.136,902.004,365.047C899.984,365.958,895.552,365.667,892.79,364.772C890.029,363.877,888.939,362.38,888.219,361.394C887.499,360.409,887.149,359.936,886.69,359.276C886.23,358.616,885.66,357.768,885.429,357.164C885.198,356.561,885.306,356.201,883.416,356.976C881.525,357.752,877.636,359.663,875.883,360.319C874.13,360.975,874.514,360.376,874.204,361.653C873.894,362.929,872.89,366.081,871.118,365.581C869.345,365.08,866.802,360.928,864.669,359.561C862.536,358.194,860.812,359.613,859.128,361.074C857.445,362.536,855.801,364.042,854.531,364.093C853.261,364.145,852.365,362.742,851.523,360.903C850.681,359.064,849.894,356.789,849.176,358.057C848.458,359.326,847.809,364.138,846.339,365.351C844.868,366.564,842.576,364.179,839.022,362.761C835.468,361.343,830.652,360.893,828.019,360.586C825.387,360.28,824.937,360.118,824.729,359.922C824.521,359.725,824.555,359.495,824.027,359.139C823.499,358.783,822.411,358.301,821.307,358.849C820.204,359.397,819.087,360.975,817.925,360.654C816.763,360.333,815.558,358.112,814.849,358.947C814.14,359.782,813.929,363.673,813.469,364.763C813.009,365.854,812.3,364.144,809.714,364.241C807.127,364.338,802.663,366.242,799.314,367.041C795.966,367.839,793.734,367.532,790.458,366.396C787.181,365.259,782.861,363.294,780.331,363.092C777.801,362.89,777.062,364.45,775.693,364.755C774.324,365.06,772.326,364.108,771.27,363.008C770.213,361.909,770.099,360.66,769.926,358.886C769.754,357.113,769.523,354.813,767.798,355.758C766.073,356.703,762.854,360.892,760.347,362.058C757.84,363.224,756.045,361.368,754.904,360.616C753.763,359.863,753.276,360.216,753.977,360.538C754.678,360.86,756.567,361.152,754.439,362.241C752.311,363.329,746.167,365.215,742.583,364.865C738.999,364.515,737.977,361.93,737.241,361.144C736.505,360.358,736.056,361.371,734.932,362.882C733.808,364.392,732.008,366.399,731.708,366.048C731.407,365.696,732.607,362.985,730.107,361.061C727.607,359.138,721.408,358.001,717.41,357.841C713.412,357.681,711.615,358.497,711.365,360.059C711.115,361.621,712.411,363.928,711.041,363.744C709.67,363.56,705.633,360.885,704.333,358.706C703.034,356.528,704.474,354.846,702.27,355.343C700.066,355.841,694.22,358.518,690.501,359.374C686.782,360.231,685.191,359.267,684.115,358.871C683.04,358.475,682.481,358.646,683.184,359.67C683.888,360.695,685.854,362.573,684.633,361.914C683.413,361.256,679.005,358.061,675.462,358.268C671.919,358.474,669.24,362.083,667.319,362.976C665.398,363.869,664.235,362.046,662.633,360.756C661.03,359.466,658.989,358.708,658.295,358.457C657.6,358.205,658.253,358.459,657.31,359.414C656.368,360.369,653.831,362.024,652.235,362.907C650.638,363.79,649.981,363.901,649.101,363.552C648.221,363.204,647.117,362.398,645.456,363.088C643.795,363.779,641.577,365.968,638.795,365.96C636.012,365.952,632.666,363.749,629.967,361.195C627.269,358.642,625.219,355.739,622.495,356.35C619.771,356.96,616.374,361.082,615.18,363.662C613.987,366.241,614.998,367.278,613.528,365.519C612.059,363.76,608.11,359.206,604.661,357.446C601.211,355.687,598.261,356.722,596.307,357.637C594.353,358.552,593.395,359.347,593.411,361.222C593.427,363.098,594.416,366.054,592.252,366.674C590.088,367.294,584.771,365.577,581.939,365.097C579.107,364.616,578.76,365.371,577.247,365.018C575.734,364.665,573.056,363.204,572.069,361.916C571.083,360.628,571.788,359.513,572.003,358.835C572.219,358.158,571.945,357.918,570.094,357.599C568.243,357.281,564.815,356.884,562.27,357.852C559.725,358.821,558.062,361.155,557.025,363.217C555.988,365.279,555.577,367.069,554.091,366.681C552.606,366.292,550.045,363.725,547.292,363.039C544.539,362.353,541.593,363.548,539.391,363.122C537.189,362.697,535.731,360.651,535.453,358.431C535.175,356.21,536.077,353.814,534.439,353.978C532.8,354.141,528.622,356.864,525.589,358.046C522.556,359.227,520.668,358.867,519.646,358.876C518.623,358.884,518.466,359.262,517.467,359.214C516.469,359.165,514.629,358.691,514.124,358.784C513.619,358.878,514.449,359.539,513.166,359.786C511.883,360.033,508.487,359.866,507.566,360.091C506.645,360.316,508.199,360.934,507.179,359.625C506.158,358.316,502.563,355.08,500.502,353.853C498.442,352.627,497.916,353.41,496.568,354.499C495.22,355.588,493.049,356.984,489.729,357.133C486.409,357.283,481.939,356.187,479.313,356.215C476.688,356.242,475.906,357.394,474.519,358.105C473.132,358.816,471.141,359.087,469.434,358.65C467.726,358.213,466.303,357.068,465.603,356.229C464.904,355.39,464.928,354.857,464.022,355.492C463.117,356.128,461.282,357.931,460.235,359.597C459.188,361.264,458.929,362.794,455.976,361.768C453.023,360.742,447.376,357.159,443.953,356.353C440.53,355.547,439.33,357.517,437.591,358.347C435.851,359.177,433.571,358.867,432.309,358.057C431.047,357.247,430.804,355.938,429.458,357.021C428.111,358.103,425.661,361.578,422.518,362.448C419.376,363.319,415.542,361.587,414.903,360.99C414.265,360.393,416.822,360.931,415.482,360.694C414.142,360.456,408.906,359.441,406.659,357.974C404.411,356.507,405.151,354.588,403.318,354.882C401.485,355.175,397.078,357.682,395.673,360.283C394.269,362.884,395.868,365.58,394.068,364.097C392.268,362.614,387.07,356.954,383.594,355.162C380.119,353.37,378.366,355.448,377.49,356.487L376.613,357.526"></path>
      </svg>
      