<?xml version="1.0" encoding="UTF-8" standalone="no"?>
    <!-- Created with Inkscape (https://labs.original.art.br/draw) -->
    
    <svg
       xmlns:dc="http://purl.org/dc/elements/1.1/"
       xmlns:cc="http://creativecommons.org/ns#"
       xmlns:rdf="http://www.w3.org/1999/02/22-rdf-syntax-ns#"
       xmlns:svg="http://www.w3.org/2000/svg"
       xmlns="http://www.w3.org/2000/svg"
       xmlns:sodipodi="http://sodipodi.sourceforge.net/DTD/sodipodi-0.dtd"
       xmlns:inkscape="http://www.inkscape.org/namespaces/inkscape"
       id="Vkt5r"
       version="1.1"
       inkscape:version="0.91 r13725"
       width="undefined"
       height="undefined"
       viewBox="0 0 undefined undefined"
       sodipodi:docname="_paths4.svg">
      <metadata
         id="metadata3404">
        <rdf:RDF>
          <cc:Work
             rdf:about="">
            <dc:format>image/svg+xml</dc:format>
            <dc:type
               rdf:resource="http://purl.org/dc/dcmitype/StillImage" />
            <dc:title></dc:title>
          </cc:Work>
        </rdf:RDF>
      </metadata>
      undefined<path fill="none" stroke-width="1" style="stroke: rgb(0, 71, 171);" d="M903.352,762.045C903.352,762.045,182.924,690.83,40.568,622.653C-101.788,554.475,22.153,434.725,49.215,352.982C76.278,271.239,92.128,177.436,202.94,132.196C313.752,86.956,601.853,-25.544,714.088,81.54C826.322,188.624,884.452,632.606,876.346,774.7C868.24,916.795,744.419,904.419,665.45,934.107C586.481,963.795,501.453,1052.821,402.531,952.827C303.61,852.832,100.31,471.476,71.919,334.14C43.528,196.804,164.553,177.134,232.184,128.81C299.816,80.485,394.915,47.86,477.706,44.194C560.498,40.528,657.727,64.908,728.936,106.813C800.145,148.718,868.19,221.912,904.962,295.625C941.734,369.337,958.865,467.489,949.57,549.089C940.275,630.688,997.496,782.153,849.193,785.221C700.889,788.288,185.398,645.478,59.748,567.493C-65.901,489.509,61.772,390.651,95.296,317.315C128.82,243.98,153.16,158.294,260.892,127.479C368.625,96.663,634.895,99.673,741.692,132.424C848.489,165.175,870.061,250.887,901.675,323.983C933.288,397.08,1021.077,473.172,931.374,571.005C841.671,668.838,506.73,915.816,363.454,910.981C220.179,906.146,112.432,643.404,71.722,541.995C31.013,440.585,82.995,371.5,119.196,302.523C155.397,233.546,183.401,152.184,288.929,128.134C394.457,104.083,651.097,121.017,752.366,158.222C853.635,195.427,889.43,244.407,896.543,351.363C903.656,458.319,847.18,706.698,795.044,799.96C742.908,893.222,689.435,920.608,583.725,910.934C478.016,901.259,243.889,807.402,160.788,741.913C77.688,676.424,59.226,619.871,85.122,518.002C111.019,416.132,203.523,186.353,316.166,130.696C428.808,75.039,685.614,71.798,760.976,184.058C836.339,296.318,801.992,684.936,768.34,804.256C734.688,923.575,563.444,899.59,559.066,899.975C554.688,900.36,745.94,808.632,742.071,806.569C738.202,804.505,606.273,881.465,535.851,887.595C465.43,893.724,381.715,876.454,319.542,843.345C257.37,810.235,154.78,805.963,162.816,688.937C170.852,571.912,297.513,234.614,367.757,141.192C438,47.77,516.882,112.727,584.278,128.405C651.674,144.083,724.332,185.574,772.134,235.26C819.936,284.946,858.12,359.056,871.089,426.519C884.057,493.983,875.731,576.632,849.944,640.039C824.158,703.446,772.336,767.981,716.372,806.961C660.408,845.94,582.078,871.728,514.161,873.917C446.244,876.107,358.392,921.811,308.87,820.095C259.348,718.38,203.193,375.486,217.029,263.625C230.866,151.764,298.931,149.478,391.888,148.931C484.844,148.384,696.813,210.346,774.769,260.344C852.724,310.341,850.722,383.556,859.62,448.916C868.518,514.276,856.197,593.073,828.155,652.504C800.114,711.935,747.053,771.073,691.371,805.501C635.69,839.93,559.266,860.533,494.066,859.073C428.865,857.613,357.453,866.837,300.168,796.739C242.883,726.641,160.166,528.13,150.357,438.484C140.548,348.839,197.245,305.581,241.314,258.865C285.384,212.15,352.609,173.296,414.774,158.19C476.938,143.085,549.082,84.092,614.301,168.232C679.52,252.373,829.198,550.54,806.086,663.033C782.973,775.527,561.07,824.796,475.625,843.194C390.18,861.592,328.479,871.283,293.416,773.42C258.353,675.557,209.735,353.438,265.247,256.016C320.76,158.595,541.626,180.091,626.491,188.89C711.356,197.688,748.207,228.349,774.439,308.806C800.671,389.264,805.629,590.211,783.881,671.635C762.134,753.059,698.117,771.555,643.952,797.352C589.787,823.149,534.937,860.258,458.89,826.416C382.843,792.575,232.813,663.821,187.67,594.302C142.526,524.784,171.192,465.852,188.029,409.306C204.866,352.76,243.957,293.107,288.694,255.024C333.431,216.941,398.435,188.338,456.451,180.809C514.467,173.28,584.263,184.663,636.79,209.85C689.318,235.037,741.42,282.405,771.616,331.932C801.811,381.458,819.617,449.274,817.962,507.007C816.307,564.74,794.385,631.022,761.685,678.328C728.985,725.634,674.724,769.083,621.76,790.842C568.796,812.6,514.587,845.081,443.901,808.878C373.214,772.675,237.02,642.191,197.642,573.623C158.264,505.055,188.654,450.435,207.634,397.469C226.615,344.503,266.951,289.749,311.526,255.826C356.101,221.902,419.474,198.071,475.087,193.928C530.7,189.785,596.53,204.264,645.204,230.97C693.877,257.675,740.98,305.468,767.128,354.161C793.276,402.855,806.674,468.299,802.092,523.129C797.51,577.959,773.199,639.856,739.637,683.141C706.075,726.426,652.21,764.909,600.719,782.839C549.228,800.769,495.993,828.806,430.689,790.719C365.385,752.632,242.75,621.524,208.895,554.317C175.041,487.11,206.775,436.808,227.562,387.48C248.35,338.152,289.518,288.249,333.619,258.35C377.719,228.45,439.142,209.125,492.164,208.085C545.185,207.044,606.93,224.224,651.747,252.107C696.564,279.991,750.044,303.051,761.065,375.385C772.086,447.719,747.898,619.767,717.875,686.111C687.851,752.456,630.689,759.123,580.923,773.451C531.156,787.779,468.575,787.108,419.275,772.081C369.974,757.055,313.721,748.749,285.12,683.292C256.519,617.834,210.586,456.027,247.671,379.337C284.755,302.646,439.498,240.85,507.627,223.148C575.756,205.446,615.462,244.397,656.445,273.123C697.428,301.848,734.902,349.314,753.526,395.499C772.149,441.685,777.683,501.605,768.184,550.236C758.685,598.867,730.82,651.861,696.532,687.286C662.244,722.712,610.267,751.82,562.457,762.79C514.646,773.759,455.503,769.869,409.669,753.104C363.834,736.34,316.602,701.034,287.45,662.203C258.299,623.372,238.032,568.315,234.76,520.12C231.488,471.924,244.425,415.008,267.818,373.028C291.212,331.048,332.854,290.58,375.122,268.24C417.391,245.899,474.062,234.712,521.431,238.985C568.799,243.258,622.136,264.642,659.333,293.879C696.53,323.116,729.431,369.861,744.612,414.409C759.794,458.956,761.903,515.778,750.424,561.164C738.945,606.55,709.909,655.087,675.738,686.722C641.567,718.357,591.044,743.105,545.4,750.973C499.756,758.841,444.205,752.102,401.872,733.929C359.539,715.757,316.861,680.033,291.402,641.937C265.943,603.84,249.708,550.92,249.119,505.352C248.53,459.784,263.667,406.852,287.867,368.531C312.067,330.21,353.372,294.27,394.318,275.425C435.263,256.579,489.183,248.99,533.539,255.459C577.895,261.929,626.971,284.816,660.454,314.244C693.936,343.671,722.459,389.346,734.435,432.026C746.412,474.705,745.448,528.244,732.312,570.321C719.175,612.397,689.365,656.517,655.617,684.484C621.868,712.451,573.11,733.087,529.82,738.123C486.53,743.158,434.697,733.949,395.876,714.696C357.055,695.443,318.829,659.686,296.892,622.604C274.955,585.523,262.456,535.004,264.254,492.206C266.052,449.408,282.998,400.521,307.68,365.815C332.362,331.109,372.97,299.534,412.344,283.971C451.718,268.407,502.673,264.082,543.926,272.434C585.179,280.787,629.997,304.781,659.861,334.087C689.725,363.393,714.088,407.668,723.109,448.271C732.13,488.873,728.458,538.973,713.987,577.702C699.517,616.431,669.322,656.2,636.287,680.644C603.252,705.088,556.548,721.882,515.777,724.365C475.006,726.848,426.986,715.552,391.661,695.543C356.336,675.534,322.433,640.115,303.829,604.311C285.224,568.507,276.15,520.631,280.032,480.719C283.915,440.807,302.278,395.996,327.125,364.838C351.971,333.68,391.537,306.282,429.112,293.771C466.687,281.26,514.491,279.853,552.575,289.772C590.659,299.691,631.254,324.401,657.617,353.285C683.98,382.168,704.425,424.735,710.753,463.073C717.082,501.412,711.071,547.946,695.589,583.315C680.107,618.683,649.907,654.199,617.862,675.284C585.817,696.37,541.431,709.609,503.32,709.829C465.209,710.049,421.066,697.051,389.198,676.605C357.331,656.16,327.594,621.437,312.114,587.156C296.634,552.875,290.658,507.855,296.318,470.921C301.978,433.987,321.368,393.253,346.072,365.551C370.776,337.85,408.973,314.417,444.541,304.714C480.109,295.011,524.606,296.166,559.48,307.333C594.355,318.501,630.788,343.544,653.79,371.717C676.792,399.89,693.581,440.463,697.492,476.372C701.403,512.282,693.428,555.154,677.254,587.174C661.08,619.194,631.241,650.58,600.447,668.493C569.653,686.405,527.824,696.393,492.491,694.647C457.158,692.901,416.925,678.586,388.45,658.016C359.976,637.446,334.223,603.759,321.644,571.228C309.064,538.697,305.849,496.718,312.974,462.83C320.1,428.941,340.133,392.253,364.397,367.895C388.661,343.537,425.184,323.833,458.559,316.681C491.934,309.529,532.995,312.883,564.645,324.982C596.296,337.08,628.659,362.083,648.461,389.272C668.262,416.461,681.676,454.776,683.452,488.115C685.228,521.455,675.67,560.599,659.118,589.307C642.566,618.015,613.441,645.423,584.141,660.364C554.842,675.305,515.782,682.363,483.32,678.953C450.859,675.543,414.539,660.294,389.37,639.903C364.201,619.513,342.226,587.185,332.308,556.611C322.39,526.036,321.586,487.256,329.864,456.454C338.143,425.653,358.44,392.953,381.98,371.802C405.52,350.652,440.085,334.421,471.102,329.551C502.119,324.681,539.648,329.865,568.083,342.58C596.518,355.295,624.933,379.895,641.713,405.841C658.493,431.788,668.831,467.608,668.764,498.259C668.697,528.911,657.934,564.291,641.313,589.748C624.692,615.205,596.618,638.812,569.037,651.001C541.457,663.19,505.352,667.649,475.83,662.881C446.307,658.113,413.874,642.311,391.901,622.393C369.928,602.476,351.501,571.81,343.992,543.377C336.484,514.944,337.732,479.49,346.851,451.794C355.97,424.097,376.163,395.297,398.708,377.198C421.252,359.099,453.598,346.066,482.116,343.199C510.634,340.331,544.562,346.973,569.816,359.994C595.07,373.015,619.683,396.862,633.64,421.325C647.598,445.788,655.172,478.902,653.56,506.771C651.948,534.641,640.358,566.251,623.968,588.541C607.578,610.831,580.875,630.839,555.218,640.51C529.562,650.181,496.57,652.386,470.03,646.569C443.49,640.751,414.889,624.768,395.98,605.605C377.071,586.442,361.939,557.721,356.576,531.593C351.213,505.465,354.15,473.437,363.799,448.838C373.448,424.239,393.178,399.222,414.471,383.998C435.764,368.774,465.655,358.647,491.556,357.496C517.457,356.345,547.747,364.068,569.878,377.09C592.009,390.113,612.992,412.874,624.342,435.63C635.691,458.386,640.83,488.609,637.975,513.627C635.119,538.645,623.077,566.51,607.208,585.74C591.339,604.969,566.308,621.603,542.76,629.005C519.213,636.407,489.461,636.709,465.923,630.151C442.385,623.592,417.53,607.793,401.532,589.654C385.534,571.514,373.429,544.996,369.936,521.315C366.443,497.634,370.702,469.1,380.574,447.567C390.446,426.033,409.368,404.656,429.17,392.113C448.972,379.571,476.197,372.04,499.387,372.311C522.576,372.582,549.22,381.015,568.309,393.741C587.398,406.468,604.95,427.826,613.922,448.672C622.895,469.517,625.937,496.691,622.142,518.813C618.347,540.936,606.223,565.108,591.154,581.406C576.085,597.704,553.005,611.211,531.73,616.603C510.455,621.996,484.044,620.755,463.501,613.763C442.959,606.77,421.737,591.51,408.478,574.648C395.218,557.786,385.851,533.706,383.946,512.589C382.04,491.473,387.25,466.473,397.044,447.949C406.838,429.425,424.619,411.519,442.709,401.446C460.799,391.373,485.172,386.116,505.581,387.511C525.99,388.907,549.009,397.678,565.161,409.821C581.313,421.964,595.655,441.621,602.494,460.372C609.333,479.122,610.626,503.119,606.198,522.325C601.769,541.532,589.923,562.094,575.921,575.611C561.919,589.128,541.048,599.772,522.186,603.427C503.324,607.082,480.323,604.661,462.747,597.538C445.171,590.416,427.441,576.038,416.729,560.691C406.017,545.344,399.083,523.912,398.475,505.455C397.866,486.997,403.658,465.541,413.079,449.947C422.5,434.354,438.828,419.724,455.002,411.893C471.176,404.062,492.542,400.744,510.124,402.963C527.706,405.182,547.152,413.925,560.493,425.208C573.835,436.491,585.208,454.168,590.172,470.662C595.136,487.155,595.035,507.874,590.276,524.169C585.517,540.464,574.303,557.526,561.62,568.431C548.936,579.337,530.509,587.405,514.177,589.602C497.846,591.798,478.296,588.564,463.632,581.61C448.967,574.656,434.564,561.489,426.191,547.878C417.818,534.266,412.998,515.667,413.392,499.939C413.786,484.211,419.791,466.278,428.554,453.512C437.317,440.747,451.894,429.175,465.969,423.345C480.045,417.515,498.274,415.792,513.008,418.532C527.742,421.272,543.695,429.628,554.374,439.786C565.052,449.945,573.72,465.386,577.077,479.481C580.433,493.577,579.298,510.947,574.511,524.359C569.724,537.771,559.48,551.471,548.352,559.954C537.225,568.437,521.45,574.23,507.744,575.255C494.039,576.281,477.951,572.6,466.12,566.107C454.29,559.614,443.022,547.971,436.762,536.296C430.503,524.622,427.466,509.013,428.564,496.061C429.661,483.11,435.518,468.649,443.347,458.587C451.177,448.525,463.726,439.772,475.541,435.688C487.356,431.605,502.347,431.124,514.237,434.084C526.126,437.043,538.695,444.663,546.878,453.445C555.06,462.228,561.306,475.2,563.332,486.779C565.358,498.358,563.554,512.339,559.035,522.921C554.515,533.503,545.57,544.005,536.217,550.271C526.864,556.538,513.926,560.371,502.917,560.519C491.909,560.666,479.263,556.904,470.166,551.156C461.069,545.407,452.721,535.583,448.336,526.028C443.951,516.474,442.356,503.983,443.857,493.83C445.358,483.676,450.709,472.611,457.342,465.107C463.975,457.602,474.241,451.408,483.654,448.804C493.068,446.2,504.75,446.605,513.823,449.484C522.895,452.364,532.215,458.909,538.089,466.08C543.963,473.252,548.085,483.545,549.066,492.513C550.047,501.481,547.937,512.06,543.976,519.888C540.016,527.717,532.68,535.21,525.303,539.483C517.927,543.755,507.982,545.959,499.717,545.525C491.452,545.091,482.201,541.608,475.714,536.878C469.228,532.148,463.562,524.418,460.799,517.145C458.036,509.873,457.533,500.603,459.137,493.244C460.742,485.886,465.239,478.109,470.425,472.997C475.612,467.884,483.362,463.968,490.256,462.569C497.15,461.17,505.481,462.098,511.788,464.602C518.096,467.106,524.329,472.251,528.099,477.592C531.869,482.934,534.18,490.365,534.408,496.651C534.635,502.936,532.582,510.131,529.463,515.305C526.344,520.479,520.911,525.177,515.693,527.694C510.475,530.211,503.654,531.123,498.155,530.406C492.657,529.689,486.723,526.841,482.702,523.392C478.682,519.943,475.439,514.562,474.034,509.712C472.629,504.863,472.861,498.884,474.271,494.295C475.681,489.705,478.987,485.082,482.492,482.176C485.998,479.269,491.023,477.335,495.302,476.857C499.581,476.379,504.548,477.468,508.166,479.307C511.783,481.146,515.118,484.58,517.005,487.891C518.892,491.201,519.72,495.613,519.489,499.168C519.258,502.724,517.621,506.582,515.617,509.223C513.612,511.865,510.359,514.004,507.462,515.016C504.564,516.028,500.967,515.998,498.234,515.297C495.5,514.596,492.777,512.729,491.058,510.81C489.339,508.891,488.241,506.092,487.919,503.784C487.597,501.476,488.206,498.832,489.127,496.96C490.047,495.089,491.838,493.458,493.443,492.555C495.048,491.651,497.165,491.387,498.757,491.539C500.349,491.692,501.97,492.581,502.995,493.473C504.021,494.364,504.67,495.794,504.911,496.891C505.152,497.987,504.835,499.25,504.443,500.052C504.051,500.854,503.186,501.452,502.558,501.705C501.93,501.957,501.11,501.794,500.674,501.565C500.239,501.336,499.939,500.718,499.944,500.33C499.948,499.943,500.746,499.281,500.702,499.24C500.657,499.199,500.061,500.047,499.675,500.083C499.29,500.118,498.649,499.869,498.386,499.453C498.123,499.037,497.896,498.233,498.097,497.586C498.298,496.94,498.825,496.03,499.594,495.575C500.362,495.121,501.596,494.704,502.708,494.857C503.82,495.01,505.297,495.542,506.268,496.494C507.239,497.445,508.253,498.99,508.533,500.565C508.812,502.14,508.717,504.271,507.944,505.942C507.171,507.614,505.689,509.529,503.897,510.596C502.105,511.663,499.518,512.481,497.191,512.344C494.865,512.207,491.987,511.336,489.937,509.775C487.888,508.215,485.81,505.65,484.893,502.98C483.976,500.311,483.659,496.728,484.437,493.759C485.215,490.791,487.088,487.377,489.561,485.168C492.034,482.959,495.75,481.021,499.275,480.507C502.801,479.993,507.265,480.466,510.715,482.084C514.165,483.701,517.854,486.752,519.976,490.211C522.097,493.67,523.579,498.535,523.444,502.838C523.308,507.142,521.781,512.305,519.163,516.031C516.546,519.756,512.201,523.421,507.739,525.192C503.276,526.963,497.335,527.672,492.389,526.658C487.443,525.644,481.82,522.84,478.062,519.108C474.303,515.375,470.991,509.687,469.838,504.263C468.685,498.839,469.05,491.966,471.143,486.565C473.236,481.163,477.486,475.373,482.395,471.851C487.304,468.33,494.312,465.709,500.596,465.435C506.879,465.16,514.471,466.872,520.096,470.204C525.721,473.536,531.347,479.34,534.345,485.427C537.344,491.515,538.934,499.745,538.089,506.729C537.244,513.712,533.958,521.75,529.275,527.328C524.592,532.905,517.199,538.008,509.992,540.194C502.785,542.38,493.504,542.618,486.035,540.443C478.565,538.269,470.408,533.237,465.176,527.148C459.944,521.06,455.734,512.115,454.643,503.911C453.551,495.707,454.955,485.619,458.626,477.925C462.297,470.231,469.181,462.321,476.669,457.749C484.157,453.177,494.533,450.23,503.551,450.493C512.569,450.756,523.158,454.044,530.775,459.328C538.392,464.611,545.659,473.38,549.253,482.194C552.846,491.008,554.181,502.621,552.336,512.212C550.491,521.803,545.135,532.531,538.183,539.741C531.232,546.951,520.628,553.167,510.627,555.472C500.625,557.778,488.047,557.184,478.174,553.575C468.3,549.966,457.841,542.427,451.386,533.817C444.93,525.208,440.172,512.902,439.441,501.917C438.71,490.932,441.501,477.729,447.001,467.906C452.502,458.083,462.258,448.329,472.446,442.981C482.634,437.632,496.426,434.719,508.13,435.815C519.833,436.912,533.262,442.104,542.669,449.56C552.076,457.016,560.674,468.938,564.572,480.553C568.469,492.169,569.186,507.151,566.057,519.254C562.928,531.357,555.203,544.564,545.798,553.171C536.392,561.777,522.444,568.768,509.622,570.895C496.799,573.021,480.997,571.239,468.861,565.93C456.724,560.621,444.22,550.317,436.804,539.042C429.389,527.767,424.437,512.024,424.367,498.28C424.296,484.537,428.814,468.35,436.382,456.581C443.951,444.813,456.791,433.51,469.778,427.668C482.766,421.827,499.99,419.311,514.308,421.533C528.627,423.755,544.71,431.165,555.687,440.999C566.664,450.833,576.265,466.07,580.171,480.538C584.078,495.007,583.813,513.315,579.124,527.811C574.435,542.307,564.062,557.76,552.036,567.512C540.009,577.265,522.612,584.681,506.966,586.328C491.32,587.974,472.395,584.653,458.159,577.391C443.923,570.13,429.65,556.822,421.549,542.759C413.448,528.695,408.666,509.466,409.553,493.011C410.441,476.557,417.014,457.544,426.874,444.032C436.734,430.52,452.847,417.981,468.711,411.938C484.575,405.896,505.219,404.143,522.056,407.776C538.893,411.409,557.42,421.337,569.731,433.736C582.042,446.136,592.307,464.823,595.921,482.172C599.535,499.521,597.93,521.084,591.414,537.831C584.898,554.578,571.616,572.019,556.823,582.654C542.03,593.288,521.104,600.772,502.657,601.637C484.21,602.502,462.293,597.299,446.141,587.845C429.989,578.39,414.243,561.863,405.742,544.911C397.241,527.959,392.994,505.224,395.133,486.13C397.272,467.037,406.22,445.384,418.577,430.349C430.935,415.314,450.487,401.866,469.279,395.92C488.072,389.974,512.095,389.35,531.331,394.673C550.567,399.996,571.305,412.724,584.697,427.857C598.09,442.989,608.667,465.236,611.686,485.468C614.704,505.701,611.407,530.416,602.808,549.251C594.209,568.086,577.777,587.239,560.093,598.479C542.409,609.718,517.904,616.905,496.703,616.689C475.502,616.473,450.752,609.055,432.886,597.182C415.02,585.31,398.117,565.371,389.509,545.452C380.901,525.533,377.559,499.305,381.238,477.667C384.917,456.03,396.541,431.946,411.586,415.626C426.631,399.306,449.759,385.293,471.509,379.747C493.258,374.2,520.588,375.066,542.083,382.348C563.577,389.63,586.266,405.423,600.474,423.437C614.683,441.451,625.212,467.337,627.332,490.431C629.451,513.526,624.114,541.264,613.19,562.003C602.266,582.742,582.466,603.308,561.788,614.866C541.11,626.423,513.007,632.943,489.122,631.349C465.238,629.755,437.839,619.803,418.482,605.302C399.125,590.802,381.395,567.285,372.981,544.344C364.566,521.404,362.496,491.723,367.997,467.661C373.497,443.598,388.083,417.32,405.986,399.969C423.889,382.617,450.705,368.392,475.416,363.551C500.127,358.71,530.663,361.423,554.252,370.922C577.84,380.421,602.202,399.523,616.947,420.546C631.693,441.568,641.806,471.145,642.724,497.056C643.641,522.966,635.929,553.569,622.451,576.008C608.974,598.447,585.609,620.109,561.858,631.688C538.106,643.268,506.414,648.75,479.942,645.486C453.47,642.223,423.633,629.43,403.024,612.109C382.415,594.788,364.202,567.551,356.287,541.56C348.372,515.568,347.94,482.505,355.535,456.16C363.13,429.814,380.945,401.601,401.858,383.486C422.77,365.371,453.356,351.297,481.008,347.468C508.66,343.64,542.272,348.55,567.77,360.513C593.268,372.475,619.002,395.108,633.995,419.244C648.988,443.38,658.312,476.67,657.728,505.326C657.143,533.982,646.731,567.264,630.487,591.18C614.243,615.095,587.144,637.52,560.262,648.818C533.381,660.117,498.14,664.187,469.199,658.97C440.257,653.752,408.22,637.827,386.615,617.512C365.009,597.197,346.671,566.128,339.564,537.079C332.458,508.031,334.025,471.685,343.976,443.221C353.927,414.756,375.221,384.89,399.272,366.292C423.322,347.694,457.732,334.144,488.28,331.634C518.828,329.124,555.359,336.573,582.561,351.231C609.763,365.889,636.549,392.253,651.491,419.584C666.433,446.914,674.592,483.91,672.21,515.217C669.828,546.524,656.405,582.273,637.199,607.424C617.992,632.575,587.015,655.415,556.971,666.123C526.928,676.831,488.207,679.12,456.939,671.671C425.671,664.223,391.694,644.894,369.362,621.431C347.03,597.969,328.934,562.98,322.947,530.894C316.959,498.807,320.881,459.309,333.438,428.911C345.996,398.514,370.994,367.296,398.291,348.509C425.589,329.721,463.846,317.072,497.221,316.184C530.596,315.297,569.859,325.614,598.54,343.184C627.221,360.755,654.724,391.022,669.307,421.607C683.891,452.192,690.508,492.855,686.04,526.694C681.571,560.533,664.841,598.511,642.495,624.639C620.149,650.768,585.176,673.662,551.963,683.467C518.75,693.272,476.648,693.413,443.218,683.467C409.788,673.521,374.155,650.536,351.38,623.792C328.606,597.048,311.129,558.084,306.571,523.003C302.014,487.922,308.636,445.43,324.036,413.306C339.436,381.182,368.343,348.936,398.971,330.26C429.6,311.585,471.7,300.218,507.807,301.253C543.914,302.288,585.696,315.789,615.613,336.472C645.531,357.154,673.399,391.475,687.311,425.348C701.223,459.222,705.923,503.485,699.086,539.713C692.25,575.942,671.936,615.886,646.293,642.719C620.649,669.553,581.591,692.129,545.225,700.715C508.86,709.302,463.507,706.934,428.101,694.237C392.695,681.539,355.712,654.665,332.79,624.529C309.869,594.393,293.393,551.426,290.574,513.419C287.755,475.412,297.413,430.112,315.877,396.488C334.341,362.864,367.336,329.928,401.357,311.676C435.379,293.424,481.286,283.722,520.007,286.974C558.728,290.226,602.789,307.212,633.682,331.188C664.576,355.165,692.444,393.66,705.367,430.832C718.291,468.004,720.7,515.768,711.224,554.221C701.748,592.674,677.592,634.298,648.514,661.549C619.436,688.801,576.232,710.678,536.756,717.73C497.281,724.782,448.834,719.554,411.661,703.863C374.487,688.172,336.478,657.201,313.717,623.584C290.955,589.967,275.866,543,275.091,502.161C274.316,461.322,287.333,413.427,309.065,378.549C330.798,343.67,368.033,310.401,405.485,292.889C442.937,275.377,492.585,267.722,533.777,273.477C574.97,279.232,621.046,299.988,652.64,327.42C684.234,354.853,711.724,397.616,723.339,438.071C734.954,478.527,734.705,529.664,722.33,570.154C709.955,610.644,681.718,653.64,649.091,681.01C616.463,708.38,569.083,729.169,526.564,734.374C484.046,739.578,432.691,731.147,393.979,712.236C355.266,693.325,316.575,658.072,294.288,620.909C272.002,583.747,258.69,532.813,260.258,489.259C261.826,445.706,278.509,395.458,303.697,359.587C328.884,323.716,370.487,290.483,411.382,274.034C452.277,257.585,505.569,252.356,549.068,260.892C592.566,269.427,640.369,294.218,672.373,325.248C704.376,356.278,731.103,403.373,741.088,447.072C751.074,490.771,747.807,545.124,732.286,587.441C716.765,629.759,684.233,673.799,647.963,700.976C611.693,728.154,560.136,747.464,514.667,750.509C469.197,753.555,415.15,741.59,375.146,719.25C335.141,696.909,296.128,657.215,274.639,616.465C253.149,575.716,242.003,520.88,246.206,474.754C250.41,428.627,271.051,376.292,299.861,339.708C328.671,303.124,374.74,270.31,419.066,255.25C463.392,240.189,520.201,237.76,565.817,249.342C611.433,260.924,660.652,289.994,692.762,324.741C724.872,359.489,750.44,410.951,758.476,457.828C766.512,504.705,759.878,562.088,740.979,606.003C722.079,649.918,685.06,694.654,645.079,721.32C605.097,747.986,549.394,765.419,501.091,765.999C452.788,766.58,396.29,750.768,355.259,724.805C314.228,698.842,275.268,654.574,254.903,610.222C234.538,565.87,225.944,507.226,233.067,458.693C240.19,410.16,265.062,356.028,297.641,319.025C330.22,282.022,380.824,250.02,428.543,236.674C476.262,223.329,536.432,224.068,583.956,238.95C631.479,253.832,681.781,287.402,713.683,325.965C745.584,364.527,787.577,401.002,775.363,470.325C763.148,539.649,688.644,690.176,640.396,741.906C592.148,793.637,536.87,782.893,485.874,780.71C434.879,778.527,376.199,758.567,334.423,728.809C292.647,699.051,254.13,650.106,235.221,602.16C216.312,554.215,210.653,491.887,220.968,441.136C231.283,390.385,260.637,334.771,297.111,297.657C333.585,260.542,388.763,229.753,439.812,218.449C490.861,207.145,554.206,211.41,603.405,229.831C652.604,248.251,703.638,286.521,735.006,328.972C766.373,371.424,788.421,431.603,791.611,484.538C794.801,537.474,780.434,600.243,754.146,646.586C727.858,692.93,681.396,737.946,633.882,762.6C586.369,787.253,522.586,799.746,469.064,794.508C415.542,789.271,354.972,764.883,312.75,731.177C270.528,697.47,232.852,643.773,215.732,592.268C198.612,540.764,196.264,474.908,210.031,422.151C223.799,369.394,257.865,312.633,298.337,275.727C338.808,238.821,398.57,209.652,452.861,200.714C507.151,191.775,565.04,172.143,624.078,222.096C683.115,272.049,784.693,426.047,807.084,500.432C829.475,574.818,788.685,621.269,758.423,668.407C728.162,715.545,676.798,760.118,625.514,783.261C574.229,806.404,506.576,815.837,450.717,807.265C394.858,798.693,332.715,769.617,290.358,731.83C248.002,694.044,211.575,635.549,196.578,580.546C181.581,525.543,182.91,456.345,200.377,401.815C217.843,347.285,227.126,284.36,301.377,253.365C375.627,222.371,593.562,124.119,645.879,215.85C698.196,307.58,651.107,703.247,615.277,803.747C579.447,904.248,488.883,831.029,430.899,818.854C372.914,806.68,307.169,803.807,267.372,730.7C227.575,657.593,185.633,463.545,192.118,380.212C198.602,296.88,226.847,258.876,306.279,230.706C385.71,202.536,586.413,191.458,668.705,211.192C750.998,230.925,772.292,294.794,800.036,349.108C827.779,403.422,841.519,476.167,835.167,537.074C828.815,597.982,800.589,666.747,761.923,714.554C723.256,762.361,689.503,821.722,603.169,823.917C516.835,826.112,313.554,805.472,243.92,727.725C174.286,649.979,173.836,444.078,185.363,357.438C196.89,270.799,207.044,207.524,313.083,207.886C419.122,208.249,732.527,301.309,821.599,359.612C910.671,417.915,886.251,477.035,847.517,557.704C808.783,638.373,665.922,796.902,589.195,843.626C512.469,890.35,448.667,858.175,387.158,838.047C325.648,817.918,260.906,773.437,220.137,722.853C179.368,672.269,149.197,599.419,142.543,534.543C135.889,469.666,150.335,391.843,180.214,333.594C210.093,275.345,264.813,217.738,321.819,185.048C378.825,152.358,456.389,133.793,522.25,137.452C588.112,141.111,663.551,167.903,716.987,206.999C770.423,246.096,819.27,309.903,842.867,372.032C866.464,434.162,872.685,514.58,858.571,579.779C844.457,644.978,805.716,716.066,758.183,763.225C710.65,810.383,639.168,849.031,573.373,862.731C507.578,876.43,437.95,903.261,363.411,845.422C288.873,787.582,157.251,605.133,126.144,515.694C95.036,426.256,142.372,367.683,176.766,308.789C211.16,249.896,271.358,193.093,332.507,162.334C393.657,131.575,475.379,116.686,543.662,124.234C611.944,131.783,688.11,127.796,742.201,207.626C796.293,287.456,935.485,495.958,868.209,603.216C800.933,710.474,454.559,833.834,338.546,851.174C222.534,868.514,210.096,766.592,172.135,707.257C134.174,647.922,110.285,565.85,110.781,495.164C111.276,424.478,136.045,342.353,175.108,283.141C214.171,223.928,246.349,152.054,345.158,139.891C443.966,127.728,701.033,97.916,767.961,210.162C834.888,322.407,785.333,698.633,746.722,813.365C708.112,928.097,608.641,891.582,536.299,898.555C463.957,905.528,377.353,888.883,312.671,855.203C247.988,821.523,184.217,760.174,148.203,696.475C112.19,632.776,92.07,546.294,96.589,473.01C101.108,399.726,131.456,315.962,175.319,256.771C219.183,197.58,238.416,90.544,359.77,117.866C481.124,145.188,877.547,287.849,903.441,420.703C929.334,553.558,618.055,842.206,515.132,914.992C412.209,987.778,351.004,895.97,285.901,857.419C220.797,818.867,158.213,751.702,124.513,683.683C90.813,615.663,41.729,547.182,83.699,449.303C125.67,351.423,287.526,155.812,376.334,96.406C465.143,37.001,525.593,35.495,616.55,92.869C707.506,150.244,876.911,342.671,922.071,440.651C967.231,538.631,919.988,610.219,887.51,680.752C855.033,751.285,793.079,822.263,727.208,863.848C661.337,905.433,570.425,931.281,492.283,930.262C414.142,929.244,323.537,901.301,258.359,857.736C193.18,814.172,114.002,778.101,101.213,668.877C88.425,559.653,132.694,301.262,181.63,202.392C230.566,103.523,317.863,95.13,394.83,75.66C471.797,56.19,568.048,59.886,643.433,85.571C718.817,111.256,797.762,166.968,847.137,229.772C896.512,292.576,1002.901,343.319,939.682,462.396C876.462,581.472,611.359,912.62,467.821,944.231C324.283,975.842,146.036,743.177,78.454,652.063C10.872,560.949,6.199,496.93,62.328,397.548C118.456,298.167,280,81.958,415.226,55.774C550.452,29.591,783.532,168.761,873.684,240.446C963.835,312.131,1028.109,366.496,956.132,485.883C884.155,605.27,567.595,895.685,441.82,956.768C316.045,1017.851,266.105,950.228,201.482,852.381C136.86,754.534,54.97,487.291,54.084,369.686C53.199,252.081,132.27,202.217,196.17,146.752C260.069,91.287,353.433,48.628,437.48,36.895C521.528,25.162,624.982,-45.293,700.455,76.356C775.928,198.005,893.311,623.246,890.316,766.791C887.322,910.336,761.814,904.136,682.489,937.629C603.164,971.121,522.255,1021.937,414.366,967.748C306.478,913.559,96.282,717.013,35.157,612.495C-25.967,507.976,-99.671,397.374,47.619,340.637C194.908,283.899,780.777,197.434,918.895,272.069C1057.013,346.703,1022.949,736.236,876.325,788.444C729.702,840.653,173.821,663.224,39.156,585.318C-95.509,507.411,35.475,399.248,68.334,321.005C101.193,242.762,166.333,163.431,236.308,115.86C306.284,68.29,368.165,-38.556,488.187,35.583C608.209,109.722,932.928,410.112,956.441,560.696C979.954,711.28,727.078,876.317,629.267,939.087C531.457,1001.857,448.886,961.368,369.58,937.317C290.273,913.266,170.79,931.842,153.429,794.782C136.068,657.722,205.484,238.976,265.414,114.96C325.345,-9.056,431.427,47.94,513.011,50.685C594.594,53.43,703.582,5.417,754.915,131.432C806.249,257.447,921.847,700.948,821.012,806.774C720.177,912.6,276.299,812.091,149.907,766.388C23.515,720.684,-1.714,649.108,62.662,532.555C127.037,416.002,419.046,129.537,536.159,67.068C653.273,4.598,703.422,109.249,765.342,157.737C827.261,206.225,902.975,248.821,907.677,357.995C912.379,467.17,889.072,723.648,793.555,812.784C698.038,901.92,454.067,943.536,334.575,892.811C215.082,842.087,108.776,611.049,76.6,508.436C44.423,405.823,25.334,331.196,141.516,277.132C257.698,223.068,669.538,94.115,773.69,184.051C877.841,273.987,803.592,695.858,766.424,816.75C729.256,937.642,625.078,900.58,550.684,909.404C476.29,918.228,384.092,976.827,320.061,869.695C256.031,762.563,89.846,376.525,166.501,266.613C243.156,156.702,659.187,186.354,779.991,210.227C900.794,234.099,875.326,338.7,891.324,409.849C907.322,480.999,936.647,556.011,875.98,637.123C815.313,718.236,622.059,861.679,527.321,896.525C432.583,931.372,370.235,881.485,307.552,846.202C244.868,810.919,184.447,748.346,151.22,684.829C117.994,621.313,101.475,536.218,108.194,465.101C114.913,393.984,147.308,313.907,191.533,258.127C235.758,202.346,306.304,153.019,373.543,130.417C440.782,107.815,526.512,104.897,594.969,122.514C663.426,140.131,741.094,147.968,784.286,236.121C827.478,324.275,865.886,554.325,854.121,651.433C842.355,748.542,806.539,790.265,713.693,818.773C620.846,847.281,390.098,849.064,297.043,822.481C203.988,795.899,168.793,754.419,155.364,659.279C141.934,564.14,176.042,338.426,216.467,251.644C256.892,164.861,302.886,136.928,397.913,138.587C492.939,140.245,708.133,208.628,786.627,261.596C865.122,314.564,861.34,389.362,868.878,456.395C876.417,523.427,895.784,595.348,831.858,663.79C767.932,732.232,575.879,844.564,485.323,867.045C394.766,889.527,342.538,837.396,288.52,798.68C234.502,759.963,185.327,696.409,161.213,634.745C137.099,573.081,130.513,493.296,143.838,428.693C157.162,364.09,194.965,293.864,241.16,247.126C287.355,200.389,318.59,109.88,421.008,148.27C523.426,186.659,815.193,366.608,855.67,477.461C896.147,588.314,728.678,751.179,663.869,813.387C599.06,875.595,530.465,857.116,466.814,850.708C403.162,844.301,331.649,814.837,281.958,774.941C232.268,735.045,188.524,671.625,168.669,611.334C148.814,551.043,146.694,474.33,162.828,413.196C178.962,352.062,186.442,282.66,265.474,244.528C344.506,206.396,574.541,90.471,637.021,184.403C699.5,278.335,700.298,713.621,640.349,808.122C580.4,902.622,354.445,787.903,277.325,751.407C200.204,714.911,193.446,647.79,177.626,589.146C161.806,530.501,134.84,469.113,182.407,399.541C229.973,329.968,385.555,204.004,463.025,171.711C540.496,139.419,593.974,178.709,647.231,205.788C700.487,232.867,752.785,282.678,782.567,334.186C812.348,385.693,828.994,455.662,825.919,514.831C822.843,574,798.782,641.458,764.113,689.198C729.444,736.937,672.753,780.212,617.904,801.267C563.056,822.322,492.241,827.701,435.019,815.526C377.798,803.351,315.749,769.424,274.575,728.215C233.401,687.006,199.997,625.017,187.973,568.272C175.949,511.527,181.687,441.647,202.43,387.744C223.174,333.841,236.916,271.594,312.434,244.855C387.953,218.116,577.984,208.67,655.541,227.31C733.097,245.95,752.091,306.077,777.775,356.695C803.458,407.314,839.832,458.317,809.642,531.022C779.453,603.727,661.276,748.602,596.636,792.925C531.996,837.248,475.631,811.532,421.801,796.961C367.972,782.39,310.692,746.861,273.657,705.5C236.622,664.139,208.075,603.411,199.592,548.796C191.109,494.182,200.216,428.004,222.756,377.811C245.295,327.619,288.791,277.316,334.829,247.641C380.866,217.967,444.457,199.567,498.98,199.765C553.503,199.962,616.564,219.092,661.969,248.827C707.374,278.562,749.636,328.729,771.41,378.174C793.184,427.618,801.253,492.413,792.614,545.492C783.974,598.571,755.569,657.03,719.573,696.649C683.577,736.267,628.166,769.656,576.637,783.204C525.108,796.751,471.111,820.003,410.398,777.934C349.686,735.866,240.221,598.826,212.362,530.793C184.502,462.76,219.244,416.192,243.241,369.738C267.237,323.285,311.126,277.827,356.341,252.071C401.557,226.314,446.661,190.789,514.533,215.197C582.405,239.605,720.167,341.349,763.573,398.518C806.98,455.687,785.917,508.355,774.971,558.21C764.026,608.064,734.065,661.98,697.902,697.648C661.739,733.316,607.506,762.061,557.992,772.218C508.478,782.375,456.125,801.571,400.819,758.589C345.513,715.607,249.002,580.173,226.156,514.326C203.311,448.48,238.626,406.223,263.744,363.511C288.861,320.798,332.751,280.074,376.862,258.054C420.972,236.033,465.489,204.791,528.407,231.388C591.324,257.985,716.293,361.34,754.368,417.635C792.443,473.929,769.783,522.608,756.856,569.153C743.928,615.698,712.816,665.082,676.803,696.904C640.79,728.726,588.068,753.059,540.778,760.086C493.487,767.113,436.319,758.835,393.061,739.065C349.804,719.296,306.602,681.405,281.233,641.47C255.864,601.535,240.364,546.514,240.846,499.453C241.328,452.392,258.219,398.097,284.126,359.104C310.033,320.111,353.547,283.979,396.287,265.495C439.028,247.011,482.632,219.877,540.569,248.201C598.505,276.524,710.934,380.418,743.907,435.437C776.88,490.455,752.991,535.136,738.406,578.311C723.821,621.485,691.957,666.38,656.399,694.484C620.841,722.587,569.941,742.761,525.06,746.931C480.179,751.101,426.801,740.344,387.115,719.504C347.428,698.664,308.745,660.771,286.942,621.89C265.14,583.009,253.414,530.452,256.298,486.218C259.183,441.984,277.881,391.807,304.252,356.486C330.622,321.165,373.398,289.456,414.522,274.292C455.645,259.127,508.49,255.863,550.994,265.498C593.497,275.132,639.325,301.04,669.544,332.098C699.763,363.156,723.936,409.583,732.306,451.847C740.675,494.11,735.679,545.912,719.762,585.681C703.846,625.45,671.62,665.929,636.809,690.462C601.998,714.996,553.206,731.284,510.897,732.881C468.589,734.477,419.092,721.627,382.958,700.042C346.824,678.457,312.524,640.935,294.094,603.371C275.665,565.807,267.397,515.953,272.379,474.66C277.361,433.366,297.471,387.333,323.988,355.612C350.504,323.892,392.197,296.414,431.477,284.336C470.757,272.257,520.388,271.935,559.668,283.14C598.948,294.344,640.486,320.954,667.156,351.563C693.825,382.173,714.034,426.844,719.685,466.795C725.337,506.747,717.988,554.918,701.064,591.272C684.141,627.627,651.932,663.791,618.145,684.923C584.357,706.055,537.936,718.75,498.338,718.066C458.741,717.381,413.185,702.825,380.561,680.816C347.936,658.806,317.858,622.012,302.59,586.01C287.322,550.008,282.182,503.066,288.951,464.803C295.72,426.54,316.851,384.647,343.205,356.432C369.559,328.217,409.845,304.754,447.075,295.513C484.305,286.273,530.569,288.534,566.587,300.989C602.606,313.444,639.922,340.371,663.186,370.243C686.45,400.116,702.96,442.747,706.17,480.223C709.381,517.7,700.058,562.148,682.448,595.103C664.838,628.058,633.015,660.036,600.511,677.955C568.006,695.874,524.193,705.285,487.422,702.618C450.65,699.952,409.066,684.078,379.883,661.957C350.7,639.837,324.658,604.111,312.323,569.896C299.989,535.681,297.635,491.835,305.878,456.666C314.121,421.497,335.887,383.71,361.781,358.883C387.675,334.056,426.248,314.368,461.244,307.705C496.24,301.042,539.011,305.52,571.756,318.906C604.502,332.293,637.693,359.163,657.715,388.025C677.737,416.888,690.834,457.217,691.89,492.08C692.946,526.942,682.031,567.605,664.05,597.2C646.069,626.796,614.984,654.743,584.006,669.655C553.027,684.568,512.032,691.017,478.177,686.674C444.321,682.33,406.708,665.523,380.875,643.596C355.043,621.668,332.825,587.333,323.183,555.109C313.541,522.886,313.62,482.29,323.022,450.255C332.424,418.22,354.445,384.475,379.595,362.898C404.746,341.32,441.323,325.147,473.922,320.79C506.521,316.433,545.707,322.754,575.191,336.756C604.676,350.758,633.865,377.209,650.829,404.803C667.793,432.398,677.779,470.19,676.974,502.323C676.17,534.457,664.044,571.301,646.001,597.602C627.959,623.902,597.949,648,568.72,660.128C539.49,672.255,501.496,676.079,470.622,670.367C439.749,664.655,406.075,647.296,383.48,625.855C360.885,604.415,342.258,571.771,335.053,541.723C327.847,511.676,329.998,474.455,340.246,445.568C350.493,416.68,372.4,386.886,396.535,368.398C420.671,349.91,454.993,336.972,485.057,334.64C515.12,332.307,550.655,340.097,576.917,354.403C603.178,368.71,628.517,394.391,642.624,420.478C656.731,446.564,663.923,481.61,661.557,510.923C659.192,540.236,646.235,573.26,628.431,596.353C610.627,619.446,582.012,639.901,554.735,649.481C527.458,659.062,492.619,660.606,464.769,653.835C436.918,647.064,407.124,629.527,387.631,608.855C368.139,588.183,352.848,557.512,347.812,529.802C342.775,502.091,346.633,468.341,357.414,442.591C368.194,416.841,389.629,390.877,412.494,375.3C435.359,359.722,467.193,349.723,494.605,349.126C522.017,348.529,553.868,357.411,576.967,371.716C600.066,386.022,621.732,410.6,633.199,434.957C644.667,459.314,649.395,491.431,645.773,517.856C642.15,544.282,628.738,573.514,611.464,593.51C594.189,613.505,567.268,630.546,542.126,637.83C516.985,645.113,485.427,644.734,460.615,637.214C435.803,629.694,409.801,612.345,393.254,592.709C376.707,573.073,364.479,544.633,361.335,519.399C358.191,494.164,363.386,463.951,374.392,441.303C385.398,418.655,406.014,396.375,427.371,383.51C448.728,370.646,477.864,363.274,502.533,364.117C527.202,364.959,555.363,374.559,575.385,388.566C595.407,402.573,613.601,425.733,622.663,448.157C631.725,470.581,634.331,499.615,629.757,523.112C625.183,546.608,611.686,572.105,595.219,589.135C578.753,606.165,553.804,620.041,530.959,625.292C508.115,630.542,479.935,628.6,458.152,620.639C436.37,612.677,414.042,595.872,400.266,577.525C386.49,559.179,377.032,533.202,375.495,510.56C373.959,487.918,380.119,461.277,391.048,441.672C401.978,422.068,421.445,403.297,441.073,392.932C460.701,382.566,486.957,377.496,508.816,379.478C530.674,381.461,555.172,391.407,572.224,404.828C589.276,418.248,604.222,439.692,611.126,460.002C618.029,480.312,618.863,506.137,613.644,526.686C608.425,547.236,595.205,569.085,579.812,583.302C564.42,597.519,541.699,608.5,521.29,611.991C500.881,615.481,476.146,612.341,457.36,604.243C438.575,596.146,419.777,580.225,408.578,563.405C397.378,546.585,390.383,523.28,390.162,503.322C389.941,483.364,396.695,460.302,407.254,443.658C417.813,427.014,435.817,411.556,453.515,403.459C471.212,395.363,494.434,392.257,513.439,395.077C532.445,397.898,553.334,407.823,567.545,420.381C581.756,432.939,593.701,452.39,598.706,470.425C603.71,488.46,603.129,510.977,597.57,528.588C592.011,546.199,579.419,564.512,565.352,576.09C551.285,587.667,531.024,596.041,513.167,598.053C495.31,600.064,474.055,596.095,458.21,588.16C442.364,580.225,426.927,565.518,418.093,550.443C409.258,535.368,404.405,514.916,405.203,497.711C406.001,480.505,412.981,460.997,422.883,447.209C432.786,433.421,449.032,421.055,464.618,414.983C480.204,408.911,500.266,407.424,516.399,410.778C532.533,414.133,549.897,423.679,561.418,435.11C572.939,446.541,582.149,463.746,585.524,479.366C588.899,494.987,587.265,514.131,581.667,528.834C576.07,543.537,564.447,558.457,551.941,567.585C539.434,576.714,521.841,582.785,506.628,583.607C491.415,584.429,473.649,579.997,460.662,572.517C447.676,565.037,435.405,551.855,428.709,538.726C422.013,525.597,418.967,508.153,420.485,493.743C422.003,479.334,428.844,463.327,437.816,452.268C446.787,441.208,461.001,431.69,474.315,427.387C487.629,423.083,504.433,422.861,517.7,426.447C530.968,430.033,544.919,438.85,553.92,448.905C562.921,458.96,569.68,473.686,571.705,486.777C573.73,499.868,571.407,515.6,566.069,527.451C560.73,539.302,550.402,550.995,539.674,557.884C528.946,564.773,514.202,568.858,501.701,568.785C489.201,568.711,474.901,564.183,464.671,557.441C454.44,550.699,445.117,539.336,440.317,528.334C435.518,517.332,433.937,503.021,435.873,491.427C437.809,479.832,444.157,467.246,451.935,458.766C459.714,450.287,471.64,443.354,482.544,440.551C493.447,437.749,506.925,438.431,517.357,441.95C527.789,445.469,538.466,453.219,545.136,461.663C551.806,470.108,556.416,482.148,557.377,492.617C558.338,503.085,555.692,515.396,550.903,524.474C546.114,533.552,537.39,542.211,528.641,547.085C519.892,551.959,508.15,554.39,498.407,553.718C488.663,553.047,477.779,548.783,470.178,543.053C462.578,537.323,455.962,528.053,452.805,519.337C449.647,510.621,449.18,499.543,451.234,490.759C453.288,481.974,458.794,472.698,465.13,466.63C471.467,460.562,480.876,455.932,489.253,454.353C497.63,452.774,507.742,454,515.393,457.156C523.044,460.311,530.613,466.67,535.159,473.286C539.705,479.903,542.481,489.077,542.671,496.854C542.861,504.631,540.255,513.542,536.297,519.949C532.338,526.356,525.513,532.197,518.922,535.296C512.332,538.395,503.721,539.513,496.754,538.542C489.787,537.571,482.237,533.927,477.12,529.47C472.003,525.013,467.833,518.089,466.052,511.798C464.271,505.508,464.56,497.731,466.434,491.727C468.308,485.723,472.636,479.619,477.296,475.775C481.957,471.931,488.642,469.305,494.4,468.665C500.158,468.025,506.895,469.431,511.843,471.934C516.791,474.438,521.441,479.096,524.087,483.685C526.733,488.273,528.004,494.426,527.718,499.467C527.432,504.508,525.226,510.07,522.371,513.93C519.517,517.79,514.862,521.052,510.59,522.629C506.319,524.205,500.936,524.36,496.742,523.389C492.547,522.418,488.224,519.74,485.423,516.804C482.622,513.868,480.618,509.52,479.937,505.771C479.257,502.022,479.942,497.586,481.342,494.309C482.741,491.033,485.567,487.937,488.335,486.112C491.103,484.286,494.883,483.35,497.952,483.358C501.021,483.366,504.403,484.59,506.749,486.159C509.094,487.729,511.042,490.394,512.026,492.775C513.01,495.156,513.115,498.161,512.652,500.445C512.188,502.729,510.736,505.021,509.246,506.48C507.755,507.939,505.525,508.882,503.711,509.201C501.897,509.52,499.812,509.066,498.362,508.393C496.911,507.72,495.677,506.343,495.006,505.161C494.335,503.979,494.198,502.415,494.335,501.301C494.472,500.186,495.19,499.101,495.827,498.475C496.463,497.848,497.478,497.572,498.154,497.542C498.83,497.513,499.549,497.939,499.884,498.3C500.219,498.66,500.296,499.343,500.163,499.707C500.03,500.071,499.057,500.43,499.086,500.484C499.114,500.538,499.958,499.935,500.334,500.03C500.709,500.125,501.231,500.573,501.34,501.053C501.45,501.532,501.398,502.366,500.993,502.909C500.588,503.451,499.789,504.134,498.913,504.308C498.037,504.482,496.735,504.465,495.737,503.951C494.739,503.437,493.523,502.444,492.923,501.225C492.324,500.005,491.88,498.21,492.14,496.632C492.399,495.054,493.197,493.076,494.482,491.756C495.766,490.435,497.8,489.122,499.845,488.711C501.89,488.3,504.602,488.388,506.751,489.29C508.9,490.193,511.324,491.97,512.739,494.123C514.154,496.276,515.261,499.386,515.239,502.209C515.217,505.031,514.326,508.516,512.605,511.057C510.885,513.599,507.984,516.196,504.918,517.458C501.851,518.719,497.703,519.313,494.206,518.627C490.71,517.94,486.657,516.01,483.941,513.338C481.224,510.667,478.758,506.563,477.906,502.596C477.055,498.628,477.274,493.547,478.831,489.534C480.389,485.52,483.545,481.157,487.252,478.513C490.959,475.869,496.274,473.856,501.072,473.668C505.869,473.48,511.708,474.786,516.036,477.385C520.364,479.985,524.736,484.498,527.041,489.267C529.345,494.037,530.58,500.502,529.865,506.001C529.151,511.5,526.522,517.861,522.753,522.26C518.985,526.66,513.052,530.709,507.252,532.399C501.452,534.09,493.971,534.232,487.954,532.404C481.936,530.575,475.344,526.438,471.146,521.426C466.947,516.415,463.57,509.071,462.764,502.333C461.958,495.595,463.194,487.304,466.311,480.998C469.428,474.692,475.198,468.203,481.468,464.498C487.738,460.793,496.407,458.437,503.931,458.77C511.454,459.102,520.287,461.962,526.61,466.494C532.933,471.027,538.955,478.484,541.866,485.965C544.778,493.446,545.776,503.281,544.08,511.381C542.384,519.482,537.708,528.531,531.689,534.568C525.67,540.605,516.548,545.778,507.967,547.602C499.386,549.427,488.619,548.758,480.201,545.514C471.783,542.27,462.888,535.65,457.459,528.136C452.031,520.622,448.09,509.937,447.629,500.43C447.168,490.922,449.768,479.525,454.695,471.092C459.622,462.659,468.238,454.321,477.19,449.83C486.143,445.34,498.209,443,508.409,444.148C518.608,445.297,530.274,450.036,538.387,456.721C546.501,463.406,553.861,473.991,557.089,484.257C560.317,494.522,560.716,507.71,557.755,518.313C554.794,528.917,547.776,540.443,539.324,547.88C530.872,555.317,518.43,561.276,507.043,562.935C495.657,564.595,481.681,562.76,471.006,557.837C460.332,552.914,449.391,543.555,442.996,533.397C436.601,523.239,432.453,509.138,432.636,496.887C432.819,484.636,437.121,470.267,444.093,459.892C451.066,449.516,462.74,439.626,474.471,434.633C486.202,429.641,501.68,427.681,514.481,429.936C527.282,432.191,541.593,439.122,551.276,448.162C560.959,457.201,569.33,471.075,572.578,484.173C575.826,497.272,575.265,513.766,570.765,526.752C566.265,539.738,556.626,553.505,545.577,562.09C534.528,570.675,518.662,577.07,504.472,578.264C490.281,579.458,473.199,576.108,460.433,569.255C447.666,562.402,434.959,550.069,427.873,537.146C420.787,524.223,416.794,506.663,417.917,491.718C419.04,476.773,425.373,459.593,434.612,447.479C443.851,435.365,458.769,424.236,473.352,419.034C487.936,413.831,506.809,412.617,522.114,416.263C537.418,419.908,554.163,429.329,565.178,440.908C576.192,452.487,585.233,469.781,588.201,485.737C591.169,501.693,589.29,521.419,582.986,536.644C576.682,551.869,564.165,567.617,550.375,577.085C536.586,586.554,517.222,593.026,500.252,593.455C483.282,593.883,463.228,588.677,448.555,579.656C433.882,570.635,419.705,555.115,412.214,539.33C404.722,523.545,401.249,502.508,403.605,484.944C405.961,467.38,414.639,447.576,426.349,433.945C438.059,420.315,456.382,408.277,473.868,403.162C491.354,398.047,513.578,397.941,531.264,403.255C548.951,408.568,567.893,420.757,579.987,435.041C592.08,449.326,601.439,470.145,603.825,488.959C606.211,507.773,602.662,530.627,594.301,547.925C585.939,565.223,570.305,582.673,553.654,592.748C537.003,602.823,514.094,609.01,494.394,608.374C474.693,607.738,451.828,600.345,435.453,588.933C419.078,577.521,403.748,558.626,396.144,539.903C388.541,521.18,385.956,496.683,389.831,476.597C393.707,456.511,405.029,434.295,419.397,419.387C433.766,404.479,455.628,391.875,476.042,387.149C496.456,382.424,521.956,383.788,541.881,391.036C561.806,398.284,582.685,413.504,595.591,430.638C608.497,447.773,617.815,472.194,619.315,493.842C620.816,515.49,615.254,541.338,604.594,560.524C593.935,579.71,574.97,598.563,555.357,608.957C535.744,619.351,509.273,624.883,486.917,622.888C464.56,620.893,439.071,610.995,421.217,596.985C403.363,582.976,387.21,560.541,379.795,538.829C372.379,517.118,371.049,489.204,376.723,466.717C382.398,444.231,396.648,419.841,413.842,403.91C431.036,387.979,456.545,375.161,479.888,371.131C503.231,367.1,531.904,370.288,553.902,379.727C575.9,389.167,598.436,407.657,611.875,427.766C625.314,447.874,634.223,475.946,634.537,500.379C634.851,524.811,626.942,553.494,613.759,574.362C600.575,595.23,578.087,615.168,555.436,625.585C532.785,636.003,502.766,640.51,477.85,636.865C452.935,633.221,425.035,620.515,405.943,603.718C386.851,586.921,370.22,560.81,363.297,536.083C356.374,511.356,356.663,480.098,364.407,455.355C372.15,430.612,389.593,404.31,409.76,387.624C429.928,370.938,459.162,358.27,485.412,355.24C511.662,352.21,543.374,357.57,567.258,369.444C591.142,381.317,615.033,403.297,628.716,426.482C642.399,449.667,650.527,481.407,649.357,508.552C648.186,535.696,637.608,567.025,621.691,589.35C605.774,611.675,579.596,632.366,553.853,642.504C528.11,652.641,494.586,655.753,467.233,650.176C439.879,644.6,409.808,628.8,389.734,609.045C369.659,589.29,352.908,559.392,346.786,531.647C340.664,503.901,342.93,469.403,353.003,442.57C363.075,415.736,383.955,387.804,407.222,370.645C430.49,353.485,463.5,341.338,492.608,339.614C521.716,337.889,556.308,345.759,581.871,360.296C607.434,374.833,632.36,400.498,645.989,426.838C659.617,453.177,666.59,488.575,663.641,518.334C660.692,548.094,647.138,581.853,628.294,605.394C609.451,628.935,579.443,650.03,550.579,659.58C521.716,669.13,484.759,670.477,455.112,662.694C425.466,654.912,393.485,635.748,372.699,612.885C351.913,590.021,335.408,556.256,330.396,525.513C325.385,494.77,329.981,457.165,342.629,428.429C355.278,399.692,379.817,370.434,406.289,353.093C432.761,335.753,469.567,324.503,501.462,324.386C533.356,324.269,570.638,334.975,597.655,352.389C624.672,369.804,650.296,399.324,663.563,428.874C676.831,458.424,682.273,497.437,677.259,529.69C672.245,561.943,655.423,597.894,633.479,622.392C611.535,646.89,577.584,668.028,545.595,676.679C513.606,685.329,473.319,684.548,441.546,674.296C409.773,664.044,376.168,641.267,354.955,615.166C333.741,589.064,317.857,551.377,314.265,517.685C310.672,483.992,317.941,443.44,333.399,413.008C348.858,382.577,377.255,352.315,407.013,335.096C436.772,317.876,477.365,307.903,511.949,309.691C546.532,311.479,586.289,325.334,614.515,345.823C642.742,366.311,668.713,399.83,681.308,432.622C693.902,465.413,697.44,507.971,690.083,542.573C682.725,577.175,662.361,615.053,637.162,640.235C611.963,665.417,573.984,686.227,538.891,693.665C503.797,701.102,460.312,697.835,426.6,684.861C392.888,671.888,357.966,645.272,336.621,615.824C315.275,586.376,300.393,544.745,298.527,508.174C296.66,471.602,306.934,428.293,325.42,396.394C343.905,364.495,376.337,333.57,409.439,316.781C442.542,299.993,486.882,291.677,524.034,295.661C561.187,299.646,603.177,316.948,632.352,340.688C661.527,364.428,687.48,402.064,699.086,438.104C710.692,474.143,711.956,520.144,701.987,556.928C692.017,593.712,667.856,633.23,639.269,658.808C610.682,684.387,568.619,704.489,530.466,710.4C492.312,716.311,445.79,710.209,410.349,694.276C374.909,678.343,338.994,647.682,317.823,614.803C296.651,581.924,283.157,536.357,283.318,497.003C283.48,457.648,297.078,411.798,318.792,378.678C340.506,345.558,377.12,314.325,413.6,298.283C450.081,282.241,498.099,275.962,537.675,282.427C577.252,288.892,621.209,309.92,651.057,337.071C680.905,364.222,706.464,406.062,716.762,445.332C727.061,484.602,725.687,533.914,712.849,572.69C700.011,611.467,671.82,652.316,639.733,677.992C607.647,703.668,561.473,722.675,520.33,726.748C479.187,730.822,429.816,721.546,392.877,702.431C355.937,683.315,319.374,648.429,298.69,612.058C278.006,575.687,266.286,526.22,268.773,484.203C271.26,442.187,288.486,394.037,313.611,359.96C338.736,325.882,379.655,294.711,419.523,279.737C459.391,264.762,510.986,260.897,552.819,270.115C594.651,279.334,640.286,304.349,670.516,335.049C700.746,365.748,725.525,411.854,734.198,454.31C742.871,496.767,738.503,549.229,722.553,589.788C706.603,630.346,674.171,672.196,638.496,697.66C602.821,723.124,552.54,740.646,508.503,742.573C464.466,744.499,412.464,731.724,374.273,709.22C336.082,686.717,299.232,647.452,279.356,607.551C259.481,567.65,249.921,514.351,255.023,469.817C260.124,425.282,281.265,375.103,309.964,340.346C338.664,305.59,383.981,274.862,427.221,261.279C470.46,247.696,525.503,246.615,569.402,258.85C613.3,271.085,660.301,300.328,690.609,334.691C720.918,369.054,744.526,419.456,751.255,465.031C757.985,510.605,750.277,566.029,730.986,608.138C711.695,650.247,674.838,692.751,635.509,717.684C596.18,742.617,541.827,758.26,495.015,757.737C448.203,757.214,393.814,740.629,354.638,714.548C315.462,688.468,278.698,644.696,259.958,601.254C241.217,557.812,234.201,500.778,242.197,453.894C250.193,407.01,275.516,355.092,307.933,319.951C340.35,284.81,390.13,254.917,436.7,243.05C483.27,231.183,541.601,233.249,587.353,248.75C633.105,264.252,681.139,297.938,711.212,336.059C741.286,374.18,763.323,428.877,767.795,477.476C772.267,526.075,760.887,584.243,738.043,627.652C715.199,671.061,673.754,713.854,630.731,737.93C587.708,762.005,529.346,775.375,479.904,772.108C430.462,768.84,375.657,774.259,334.077,718.324C292.497,662.388,234.836,506.401,230.422,436.496C226.007,366.591,244.894,331.654,307.59,298.894C370.285,266.133,535.825,233.213,606.593,239.931C677.36,246.65,702.68,297.257,732.195,339.205C761.709,381.154,781.776,440.116,783.68,491.62C785.585,543.125,770.213,603.792,743.621,648.232C717.03,692.672,695.951,746.222,624.131,758.26C552.311,770.299,379.805,749.635,312.703,720.462C245.601,691.29,237,633.689,221.52,583.227C206.039,532.765,205.239,468.68,219.819,417.692C234.399,366.704,268.805,312.275,308.998,277.299C349.191,242.323,407.97,215.301,460.976,207.835C513.982,200.369,578.291,209.779,627.033,232.502C675.774,255.225,724.799,298.353,753.423,344.173C782.047,389.994,821.731,435.032,798.775,507.426C775.82,579.819,700.379,742.959,615.688,778.537C530.998,814.114,359.455,755.397,290.634,720.889C221.813,686.382,216.116,625.379,202.762,571.491C189.407,517.602,165.011,460.953,210.506,397.56C256.002,334.166,402.722,219.628,475.734,191.129C548.746,162.63,598.738,199.922,648.576,226.566C698.414,253.211,747.365,301.284,774.76,350.997C802.155,400.71,817.077,467.986,812.946,524.846C808.816,581.707,784.57,646.532,749.977,692.161C715.385,737.789,659.492,779.118,605.392,798.618C551.291,818.118,495.521,849.271,425.372,809.16C355.223,769.049,202.514,653.974,184.5,557.95C166.485,461.927,266.002,296.811,317.284,233.02C368.567,169.229,433.224,177.007,492.196,175.207C551.168,173.407,620.474,191.472,671.119,222.221C721.764,252.97,770.241,306.1,796.065,359.701C821.889,413.301,833.642,484.562,826.063,543.826C818.483,603.089,820.874,669.405,750.589,715.28C680.305,761.155,488.632,818.898,404.353,819.076C320.075,819.253,284.499,762.42,244.919,716.346C205.339,670.271,174.995,603.075,166.875,542.629C158.754,482.182,108.247,407.514,196.193,353.668C284.139,299.823,694.55,219.555,694.55,219.555"></path>
      </svg>
      