<?xml version="1.0" encoding="UTF-8" standalone="no"?>
    <!-- Created with Inkscape (https://labs.original.art.br/draw) -->
    
    <svg
       xmlns:dc="http://purl.org/dc/elements/1.1/"
       xmlns:cc="http://creativecommons.org/ns#"
       xmlns:rdf="http://www.w3.org/1999/02/22-rdf-syntax-ns#"
       xmlns:svg="http://www.w3.org/2000/svg"
       xmlns="http://www.w3.org/2000/svg"
       xmlns:sodipodi="http://sodipodi.sourceforge.net/DTD/sodipodi-0.dtd"
       xmlns:inkscape="http://www.inkscape.org/namespaces/inkscape"
       id="QEmsQ"
       version="1.1"
       inkscape:version="0.91 r13725"
       width="undefined"
       height="undefined"
       viewBox="0 0 undefined undefined"
       sodipodi:docname="_paths6.svg">
      <metadata
         id="metadata3404">
        <rdf:RDF>
          <cc:Work
             rdf:about="">
            <dc:format>image/svg+xml</dc:format>
            <dc:type
               rdf:resource="http://purl.org/dc/dcmitype/StillImage" />
            <dc:title></dc:title>
          </cc:Work>
        </rdf:RDF>
      </metadata>
      undefined<path fill="none" stroke-width="1" style="stroke: rgb(0, 71, 171);" d="M3.972,500L3.984,498.599C3.997,497.199,4.023,494.398,3.964,490.227C3.905,486.056,3.762,480.515,4.482,477.34C5.203,474.165,6.787,473.356,7.772,471.09C8.756,468.823,9.14,465.098,11.893,460.558C14.646,456.017,19.767,450.662,23.645,450.018C27.522,449.374,30.155,453.442,32.851,454.524C35.548,455.606,38.308,453.702,39.953,452.277C41.598,450.853,42.129,449.907,42.741,449.175C43.353,448.443,44.047,447.925,43.976,446.957C43.904,445.99,43.067,444.574,43.873,444.49C44.678,444.406,47.127,445.655,49.612,446.298C52.097,446.941,54.618,446.979,56.681,448.971C58.743,450.963,60.348,454.909,62.801,455.53C65.254,456.15,68.555,453.445,70.173,450.787C71.79,448.129,71.722,445.518,73.345,444.909C74.967,444.3,78.279,445.693,80.614,446.387C82.948,447.081,84.304,447.075,85.233,447.537C86.162,448,86.664,448.931,86.909,449.349C87.155,449.768,87.144,449.673,87.375,449.129C87.607,448.585,88.081,447.591,88.692,447.333C89.304,447.075,90.053,447.553,90.814,448.189C91.575,448.824,92.347,449.617,93.85,449.98C95.353,450.343,97.588,450.276,98.9,450.23C100.212,450.185,100.601,450.16,100.564,449.564C100.527,448.968,100.063,447.8,99.591,446.553C99.118,445.306,98.637,443.98,100.889,444.468C103.141,444.957,108.126,447.259,111.647,447.971C115.167,448.684,117.224,447.807,118.777,447.177C120.331,446.546,121.382,446.162,121.972,447.363C122.562,448.564,122.691,451.349,123.929,452.075C125.168,452.801,127.515,451.468,128.785,450.89C130.054,450.312,130.246,450.49,129.404,451.286C128.561,452.083,126.684,453.498,128.091,453.623C129.498,453.747,134.19,452.582,135.932,453.179C137.674,453.775,136.465,456.134,138.425,455.426C140.384,454.719,145.512,450.945,148.151,448.575C150.79,446.206,150.94,445.24,152.45,445.392C153.96,445.545,156.829,446.817,158.164,448.507C159.5,450.197,159.302,452.306,159.283,453.65C159.264,454.993,159.423,455.572,162.475,455.785C165.527,455.999,171.471,455.846,174.036,455.584C176.6,455.322,175.785,454.95,177.598,454.229C179.412,453.507,183.855,452.436,186.422,451.716C188.989,450.996,189.681,450.628,190.967,451.492C192.253,452.356,194.133,454.452,195.2,455.284C196.266,456.116,196.518,455.685,198.81,455.524C201.101,455.363,205.431,455.472,207.891,454.581C210.352,453.689,210.942,451.797,211.717,450.751C212.491,449.705,213.45,449.505,214.517,449.924C215.583,450.342,216.757,451.38,217.745,450.331C218.733,449.282,219.535,446.147,220.879,445.696C222.224,445.245,224.111,447.479,225.627,447.588C227.144,447.696,228.289,445.68,229.237,445.803C230.185,445.925,230.937,448.187,231.855,449.253C232.772,450.319,233.857,450.189,233.293,450.063C232.73,449.937,230.518,449.814,232.291,450.9C234.063,451.986,239.819,454.281,244.354,453.517C248.888,452.753,252.201,448.931,254.036,448.223C255.87,447.515,256.227,449.922,256.002,450.963C255.777,452.004,254.971,451.679,255.401,450.371C255.832,449.063,257.5,446.773,260.563,446.531C263.626,446.289,268.084,448.095,270.226,449.021C272.368,449.947,272.194,449.992,273.886,451.179C275.579,452.366,279.137,454.695,282.313,454.314C285.488,453.933,288.28,450.842,289.148,449.662C290.017,448.481,288.961,449.211,289.395,450.495C289.829,451.778,291.753,453.616,293.836,453.533C295.918,453.449,298.16,451.445,298.903,449.491C299.645,447.538,298.889,445.636,299.121,446.291C299.353,446.946,300.573,450.158,303.552,451.648C306.53,453.139,311.266,452.909,313.125,452.431C314.984,451.953,313.967,451.228,315.724,451.957C317.482,452.686,322.014,454.868,324.123,454.82C326.231,454.771,325.916,452.492,327.728,452.414C329.541,452.336,333.481,454.459,336.747,455.531C340.012,456.603,342.602,456.624,344.275,454.75C345.948,452.875,346.704,449.105,348.848,447.412C350.992,445.719,354.523,446.103,357.408,447.252C360.293,448.4,362.531,450.313,363.911,450.909C365.291,451.506,365.813,450.786,366.787,450.423C367.761,450.061,369.187,450.057,370.04,450.079C370.892,450.1,371.172,450.148,371.371,450.153C371.57,450.159,371.689,450.121,371.76,450.1C371.831,450.078,371.853,450.073,371.641,448.738C371.429,447.403,370.983,444.737,372.282,444.718C373.58,444.699,376.623,447.326,378.087,448.626C379.552,449.926,379.439,449.899,379.789,448.486C380.139,447.073,380.952,444.274,383.149,445.852C385.346,447.431,388.926,453.386,392.016,454.851C395.105,456.316,397.702,453.291,399.012,452.252C400.322,451.214,400.344,452.162,400.728,452.61C401.113,453.057,401.861,453.005,403.817,452.04C405.773,451.075,408.938,449.197,410.306,447.498C411.674,445.798,411.246,444.276,412.679,445.517C414.112,446.757,417.407,450.76,419.845,451.917C422.284,453.073,423.866,451.384,423.835,449.569C423.805,447.755,422.162,445.815,423.647,445.895C425.131,445.976,429.743,448.076,431.706,449.4C433.668,450.723,432.983,451.268,432.754,450.867C432.525,450.465,432.753,449.117,434.086,448.781C435.419,448.446,437.856,449.124,439.462,450.471C441.067,451.818,441.841,453.834,443.279,453.878C444.718,453.921,446.822,451.991,447.264,451.744C447.705,451.496,446.484,452.93,447.811,451.304C449.138,449.678,453.012,444.992,456.729,443.67C460.447,442.347,464.007,444.387,464.961,446.13C465.915,447.872,464.262,449.317,465.548,450.271C466.834,451.225,471.059,451.689,473.048,450.988C475.036,450.286,474.788,448.42,475.619,447.971C476.451,447.522,478.362,448.492,481.939,448.621C485.515,448.75,490.755,448.038,492.525,447.886C494.294,447.734,492.591,448.143,492.956,449.761C493.32,451.38,495.752,454.209,499.156,454.615C502.559,455.022,506.934,453.005,507.883,451.068C508.831,449.13,506.354,447.271,507.028,447.896C507.702,448.522,511.527,451.633,515.465,452.853C519.402,454.072,523.451,453.401,526.711,453.781C529.97,454.161,532.441,455.592,533.762,455.92C535.082,456.248,535.254,455.472,536.79,453.209C538.326,450.946,541.226,447.195,543.671,447.528C546.116,447.862,548.106,452.28,552.01,453.758C555.914,455.236,561.733,453.774,565.658,453.127C569.583,452.48,571.615,452.647,571.373,452.078C571.13,451.509,568.614,450.204,569.752,451.084C570.889,451.963,575.68,455.027,578.497,454.857C581.313,454.687,582.154,451.282,585.519,449.864C588.884,448.446,594.772,449.014,597.982,449.619C601.192,450.224,601.724,450.866,602.629,451.62C603.534,452.375,604.813,453.243,605.627,452.881C606.441,452.519,606.789,450.926,607.312,451.398C607.834,451.869,608.53,454.405,610.056,454.327C611.583,454.25,613.938,451.559,614.792,449.627C615.646,447.694,614.997,446.519,616.765,446.801C618.532,447.083,622.716,448.823,623.514,449.2C624.312,449.577,621.724,448.592,623.167,447.999C624.609,447.407,630.083,447.208,632.965,447.25C635.847,447.292,636.138,447.576,637.177,447.78C638.217,447.984,640.004,448.108,641.75,447.36C643.496,446.613,645.199,444.994,646.613,445.459C648.027,445.925,649.152,448.474,649.878,449.541C650.603,450.609,650.93,450.195,652.388,449.679C653.847,449.164,656.438,448.546,657.783,448.586C659.129,448.626,659.23,449.323,660.69,449.833C662.149,450.343,664.968,450.666,665.988,450.186C667.007,449.706,666.227,448.424,665.66,448.722C665.094,449.02,664.741,450.897,667.369,450.963C669.997,451.029,675.606,449.285,679.127,449.155C682.647,449.025,684.08,450.51,685.501,450.414C686.922,450.317,688.331,448.638,689.403,449.834C690.475,451.031,691.209,455.103,693.011,455.789C694.814,456.475,697.684,453.773,699.195,452.219C700.706,450.665,700.858,450.257,701.146,449.437C701.434,448.617,701.859,447.384,703.469,447.353C705.08,447.323,707.877,448.495,709.498,449.212C711.12,449.928,711.566,450.188,711.889,450.118C712.211,450.047,712.409,449.646,712.376,451.002C712.342,452.358,712.077,455.471,712.024,455.451C711.97,455.432,712.128,452.279,715.41,450.981C718.692,449.683,725.098,450.239,727.397,450.696C729.696,451.152,727.887,451.508,728.636,451.909C729.386,452.309,732.692,452.755,735.074,452.134C737.456,451.514,738.913,449.827,740.994,450.134C743.074,450.44,745.777,452.739,748.181,453.269C750.585,453.799,752.689,452.559,753.787,452.571C754.885,452.582,754.977,453.844,756.098,452.83C757.219,451.816,759.37,448.526,761.847,447.576C764.324,446.627,767.126,448.019,768.756,449.535C770.386,451.05,770.844,452.69,771.362,452.532C771.88,452.374,772.457,450.418,772.769,449.269C773.08,448.12,773.126,447.778,773.908,446.545C774.689,445.312,776.206,443.187,779.006,443.811C781.807,444.436,785.89,447.81,786.826,449.733C787.761,451.657,785.549,452.131,787.286,451.73C789.024,451.33,794.71,450.055,797.236,450.093C799.761,450.131,799.125,451.483,800.98,450.388C802.835,449.293,807.18,445.751,811.132,444.638C815.083,443.525,818.641,444.841,820.878,445.316C823.115,445.791,824.03,445.425,825.458,447.503C826.885,449.58,828.823,454.101,830.004,455.414C831.185,456.727,831.609,454.833,833.427,453.534C835.245,452.236,838.457,451.534,840.457,452.628C842.457,453.721,843.244,456.609,846.755,456.964C850.267,457.32,856.502,455.142,859.72,453.559C862.938,451.976,863.138,450.989,863.447,450.722C863.755,450.454,864.172,450.908,864.661,451.766C865.15,452.624,865.711,453.886,867.157,453.533C868.602,453.179,870.933,451.209,870.846,449.768C870.76,448.327,868.256,447.415,869.608,446.879C870.959,446.343,876.165,446.183,879.217,445.636C882.268,445.089,883.165,444.154,885.234,444.796C887.304,445.438,890.547,447.657,892.602,448.737C894.657,449.818,895.524,449.76,895.407,448.483C895.289,447.206,894.187,444.709,895.873,444.751C897.558,444.792,902.033,447.372,904.271,448.663C906.509,449.954,906.511,449.958,906.991,448.906C907.471,447.855,908.43,445.748,909.423,447.306C910.417,448.863,911.446,454.084,913.893,455.048C916.341,456.013,920.207,452.721,921.03,451.485C921.854,450.25,919.635,451.07,920.267,450.907C920.898,450.743,924.381,449.596,927.993,449.963C931.606,450.33,935.348,452.212,937.92,453.658C940.492,455.105,941.892,456.116,943.944,455.74C945.996,455.363,948.699,453.598,950.685,453.539C952.672,453.481,953.942,455.129,955.976,453.74C958.009,452.35,960.806,447.923,964.107,446.102C967.409,444.28,971.215,445.063,973.28,446.151C975.345,447.239,975.668,448.632,975.563,449.594C975.458,450.555,974.925,451.086,974.866,450.929C974.808,450.772,975.224,449.928,975.625,450.58C976.026,451.232,976.411,453.38,978.231,454.714C980.051,456.049,983.306,456.571,986.225,455.312C989.145,454.053,991.728,451.012,992.906,445.308C994.084,439.605,993.855,431.238,991.245,426.361C988.635,421.485,983.644,420.099,980.62,419.447C977.597,418.796,976.543,418.879,976,419.06C975.456,419.241,975.424,419.519,976.331,418.476C977.239,417.433,979.087,415.067,978.134,414.042C977.181,413.017,973.428,413.333,970.798,413.517C968.167,413.701,966.66,413.753,963.931,412.312C961.202,410.872,957.252,407.938,954.787,406.724C952.323,405.51,951.344,406.014,949.928,406.863C948.513,407.712,946.66,408.904,946.083,408.96C945.506,409.015,946.203,407.933,945.361,407.95C944.518,407.967,942.134,409.083,941.372,408.961C940.611,408.839,941.471,407.478,942.308,407.062C943.146,406.646,943.96,407.175,941.048,407.844C938.137,408.513,931.499,409.323,927.846,409.246C924.194,409.168,923.526,408.204,923.705,409.19C923.884,410.176,924.908,413.112,922.702,413.096C920.495,413.079,915.058,410.11,911.192,410.339C907.325,410.568,905.03,413.995,903.233,413.84C901.437,413.686,900.14,409.95,898.078,408.366C896.015,406.781,893.188,407.348,891.873,408.1C890.559,408.851,890.758,409.788,889.94,410.532C889.121,411.275,887.286,411.826,886.318,412.457C885.35,413.088,885.25,413.801,884.119,412.411C882.987,411.022,880.824,407.53,879.033,407.054C877.242,406.579,875.823,409.12,874.291,411.576C872.76,414.031,871.116,416.4,869.134,415.854C867.152,415.308,864.832,411.847,864.264,409.532C863.697,407.216,864.881,406.047,861.981,405.735C859.082,405.422,852.098,405.968,849.388,407.549C846.678,409.131,848.242,411.749,846.849,412.41C845.455,413.071,841.105,411.775,838.46,412.624C835.814,413.474,834.872,416.468,832.283,416.082C829.694,415.696,825.457,411.93,822.794,411.599C820.13,411.268,819.039,414.372,817.075,415.228C815.11,416.083,812.272,414.69,810.898,414.407C809.524,414.125,809.612,414.953,808.147,415.387C806.681,415.821,803.66,415.861,801.965,414.646C800.27,413.432,799.902,410.964,799.148,409.046C798.395,407.128,797.256,405.76,795.112,405.58C792.967,405.399,789.817,406.406,788.374,406.154C786.932,405.902,787.197,404.392,784.478,404.24C781.759,404.088,776.054,405.293,772.287,407.357C768.519,409.42,766.688,412.343,766.569,413.426C766.451,414.51,768.045,413.754,767.366,411.968C766.687,410.181,763.734,407.364,759.611,406.366C755.488,405.368,750.193,406.188,747.114,407.553C744.034,408.918,743.168,410.827,740.867,411.602C738.566,412.378,734.829,412.019,733.04,412.322C731.25,412.624,731.409,413.587,730.615,412.255C729.82,410.923,728.073,407.294,726.208,406.464C724.343,405.633,722.36,407.599,722.125,409.931C721.89,412.262,723.402,414.96,723.009,416C722.616,417.04,720.318,416.422,715.622,416.376C710.926,416.329,703.831,416.853,698.926,416.227C694.021,415.601,691.305,413.824,689.506,412.646C687.707,411.468,686.824,410.888,687.931,410.554C689.039,410.22,692.137,410.132,689.656,409.486C687.176,408.841,679.117,407.638,674.893,407.602C670.669,407.566,670.281,408.696,670.355,409.231C670.429,409.765,670.967,409.704,671.052,410.614C671.136,411.524,670.768,413.406,669.371,414.752C667.974,416.097,665.55,416.907,662.077,415.184C658.604,413.462,654.083,409.207,652.504,407.35C650.926,405.493,652.289,406.035,650.644,406.331C648.998,406.627,644.343,406.679,641.557,407.227C638.77,407.775,637.853,408.818,637.241,409.353C636.629,409.888,636.322,409.914,636.56,409.731C636.799,409.549,637.584,409.159,637.927,408.922C638.27,408.685,638.171,408.601,635.886,408.613C633.601,408.625,629.129,408.732,627.441,408.406C625.752,408.08,626.847,407.321,626.751,407.731C626.654,408.14,625.366,409.718,622.826,410.407C620.285,411.096,616.491,410.896,614.73,411.751C612.969,412.606,613.24,414.515,613.323,414.433C613.405,414.35,613.299,412.276,611.418,410.997C609.536,409.719,605.88,409.236,604.278,408.8C602.677,408.364,603.129,407.975,600.25,408.383C597.37,408.791,591.16,409.997,588.168,410.213C585.177,410.43,585.405,409.657,584.693,409.466C583.982,409.274,582.331,409.664,581.978,409.066C581.626,408.468,582.573,406.881,582.26,407.606C581.948,408.332,580.376,411.37,578.878,410.967C577.38,410.565,575.955,406.722,572.476,406.145C568.997,405.568,563.465,408.258,562.013,409.78C560.561,411.301,563.19,411.654,561.389,412.591C559.587,413.527,553.354,415.047,548.653,414.993C543.952,414.939,540.781,413.312,539.011,412.836C537.241,412.359,536.872,413.033,535.943,414.068C535.013,415.103,533.524,416.499,531.791,415.825C530.057,415.15,528.08,412.405,527.997,411.989C527.913,411.574,529.724,413.488,527.402,412.185C525.08,410.882,518.627,406.362,514.777,405.184C510.927,404.006,509.68,406.171,507.631,406.479C505.582,406.786,502.73,405.236,501.651,406.393C500.571,407.549,501.263,411.411,498.05,412.855C494.837,414.298,487.718,413.322,484.338,412.109C480.957,410.896,481.315,409.445,482.442,409.515C483.569,409.585,485.465,411.175,483.117,411.49C480.77,411.805,474.178,410.844,471.569,411.404C468.959,411.964,470.332,414.044,470.539,413.758C470.747,413.471,469.789,410.817,465.962,410.941C462.135,411.065,455.438,413.966,451.432,414.593C447.426,415.221,446.111,413.575,446.088,413.263C446.066,412.95,447.335,413.971,443.876,413.958C440.417,413.946,432.231,412.899,428.685,411.762C425.14,410.625,426.235,409.398,424.45,409.642C422.664,409.886,417.997,411.602,415.251,411.949C412.504,412.297,411.677,411.278,411.268,410.794C410.858,410.311,410.866,410.364,411.332,409.33C411.799,408.295,412.724,406.173,411.529,406.086C410.334,405.999,407.02,407.948,404.612,409.384C402.203,410.82,400.701,411.744,399.655,412.106C398.609,412.467,398.019,412.266,397.535,410.24C397.051,408.214,396.673,404.363,394.473,404.079C392.273,403.795,388.251,407.079,387.697,408.446C387.143,409.812,390.057,409.262,388.379,408.824C386.702,408.385,380.434,408.059,376.907,409.734C373.38,411.409,372.595,415.085,371.732,414.663C370.869,414.241,369.928,409.721,367.822,408.271C365.715,406.821,362.443,408.441,360.647,409.047C358.852,409.652,358.533,409.244,357.254,409.24C355.974,409.236,353.734,409.636,352.703,409.567C351.673,409.497,351.852,408.958,350.932,407.944C350.013,406.929,347.996,405.44,346.822,406.55C345.649,407.66,345.319,411.369,342.911,412.7C340.502,414.03,336.015,412.982,332.905,412.587C329.795,412.192,328.063,412.451,325.867,411.579C323.672,410.707,321.013,408.704,320.806,407.232C320.599,405.761,322.844,404.821,320.974,405.641C319.103,406.461,313.117,409.041,309.827,410.622C306.538,412.204,305.945,412.788,305.319,412.485C304.694,412.182,304.036,410.991,304.381,409.052C304.726,407.113,306.073,404.424,304.287,403.802C302.501,403.179,297.582,404.623,294.251,405.332C290.92,406.041,289.176,406.015,287.922,406.666C286.668,407.317,285.903,408.644,284.68,408.786C283.458,408.928,281.778,407.884,281.692,407.574C281.606,407.264,283.113,407.688,281.43,408.512C279.747,409.336,274.873,410.559,271.827,410.546C268.782,410.532,267.565,409.28,265.978,408.834C264.39,408.388,262.432,408.748,259.967,409.3C257.501,409.853,254.528,410.6,253.292,410.633C252.057,410.667,252.559,409.989,252.482,411.159C252.406,412.329,251.75,415.347,249.153,415.011C246.555,414.676,242.016,410.987,238.598,409.483C235.18,407.979,232.883,408.66,231.526,408.902C230.168,409.144,229.75,408.946,230.538,408.932C231.325,408.918,233.319,409.089,231.699,409.308C230.079,409.527,224.845,409.795,223.304,409.638C221.763,409.48,223.914,408.896,223.91,408.755C223.906,408.615,221.748,408.917,217.659,409.449C213.571,409.98,207.552,410.74,205.608,411.314C203.664,411.889,205.794,412.278,204.997,412.314C204.2,412.351,200.475,412.035,197.88,411.56C195.285,411.084,193.82,410.45,192.407,410.378C190.993,410.307,189.631,410.798,188.305,411.812C186.979,412.826,185.688,414.361,182.948,414.667C180.209,414.973,176.02,414.05,173.032,414.265C170.043,414.481,168.255,415.835,168.073,415.55C167.892,415.266,169.318,413.342,166.127,411.838C162.936,410.333,155.129,409.248,150.767,410.038C146.405,410.828,145.489,413.494,144.044,414.036C142.6,414.578,140.626,412.996,139.047,412.88C137.467,412.764,136.281,414.113,135.31,414.236C134.338,414.359,133.58,413.254,132.889,412.464C132.198,411.674,131.574,411.198,130.775,411.207C129.976,411.215,129.003,411.707,128.122,410.087C127.242,408.467,126.454,404.734,124.18,403.669C121.905,402.603,118.144,404.204,117.078,406.031C116.012,407.858,117.642,409.911,115.973,410.516C114.304,411.121,109.337,410.278,106.877,409.423C104.416,408.568,104.462,407.701,103.158,408.823C101.853,409.945,99.198,413.058,97.304,413.599C95.411,414.141,94.279,412.112,93.024,410.142C91.768,408.172,90.389,406.261,90.176,406.39C89.964,406.52,90.917,408.69,88.807,409.256C86.696,409.821,81.522,408.782,78.786,407.496C76.049,406.209,75.75,404.676,73.072,405.391C70.393,406.107,65.336,409.07,63.658,409.783C61.981,410.496,63.684,408.958,62.347,408.94C61.01,408.921,56.632,410.421,55.707,411.45C54.782,412.48,57.31,413.039,55.28,413.313C53.249,413.586,46.661,413.575,42.789,411.884C38.917,410.192,37.761,406.821,36.362,406.203C34.962,405.584,33.318,407.719,31.834,408.473C30.349,409.227,29.025,408.6,28.543,408.093C28.061,407.586,28.421,407.199,28.048,408.312C27.676,409.426,26.57,412.041,25.413,412.682C24.255,413.322,23.045,411.987,21.496,411.116C19.947,410.246,18.058,409.839,18.067,408.879C18.076,407.919,19.983,406.407,21.032,403.871C22.08,401.335,22.271,397.775,22.711,397.164C23.152,396.553,23.842,398.889,25.597,399.879C27.351,400.868,30.17,400.511,30.802,401.217C31.435,401.924,29.882,403.693,30.464,402.718C31.045,401.744,33.762,398.025,36.8,397.547C39.837,397.07,43.195,399.833,46.907,400.761C50.619,401.69,54.685,400.783,56.708,400.357C58.731,399.93,58.711,399.984,59.307,400.892C59.902,401.8,61.113,403.562,62.17,403.561C63.226,403.56,64.13,401.795,65.847,400.562C67.565,399.328,70.097,398.627,71.568,397.92C73.039,397.213,73.45,396.501,74.221,396.785C74.993,397.07,76.126,398.351,76.527,399.223C76.928,400.094,76.597,400.556,76.944,400.63C77.291,400.704,78.317,400.391,78.775,399.734C79.233,399.078,79.124,398.078,79.911,397.84C80.698,397.603,82.382,398.127,82.434,397.469C82.487,396.811,80.907,394.97,82.498,396.455C84.088,397.939,88.849,402.749,92.267,403.651C95.685,404.553,97.76,401.548,99.071,400.326C100.383,399.103,100.931,399.664,102.054,399.798C103.177,399.933,104.875,399.642,106.498,398.837C108.121,398.032,109.668,396.713,110.14,396.974C110.611,397.235,110.007,399.075,111.678,399.626C113.348,400.178,117.294,399.44,119.841,400.186C122.389,400.932,123.539,403.162,124.139,403.087C124.739,403.011,124.789,400.628,125.115,400.713C125.441,400.797,126.044,403.349,128.12,403.636C130.197,403.922,133.748,401.945,136.01,401.232C138.272,400.52,139.246,401.072,141.393,400.745C143.54,400.417,146.862,399.21,147.772,399.102C148.682,398.995,147.18,399.987,147.45,400.071C147.719,400.155,149.76,399.33,150.368,398.877C150.976,398.423,150.153,398.342,152.524,400.124C154.896,401.906,160.464,405.552,164.722,405.343C168.98,405.134,171.929,401.07,173.29,398.778C174.65,396.486,174.423,395.967,177.708,395.684C180.993,395.401,187.792,395.355,192.367,395.876C196.943,396.397,199.296,397.484,200.862,398.83C202.429,400.176,203.209,401.78,203.766,401.454C204.323,401.128,204.656,398.873,206.174,397.832C207.691,396.792,210.393,396.965,211.839,397.441C213.284,397.916,213.473,398.693,213.975,400.545C214.477,402.398,215.292,405.327,215.912,405.091C216.533,404.855,216.958,401.455,218.955,399.877C220.951,398.298,224.52,398.542,226.774,397.807C229.029,397.071,229.969,395.357,231.196,395.954C232.424,396.551,233.939,399.459,235.145,400.704C236.351,401.948,237.249,401.529,238.706,401.36C240.162,401.191,242.179,401.272,242.185,400.639C242.191,400.005,240.187,398.657,241.47,398.706C242.752,398.755,247.321,400.201,250.297,399.27C253.274,398.339,254.657,395.03,255.861,394.264C257.066,393.499,258.093,395.275,260.073,397.068C262.054,398.861,264.989,400.671,268.126,400.765C271.264,400.86,274.605,399.24,277.042,397.402C279.479,395.565,281.012,393.511,282.645,392.323C284.277,391.134,286.008,390.813,289.621,391.952C293.235,393.091,298.73,395.691,301.737,397.231C304.745,398.772,305.264,399.252,305.427,398.538C305.589,397.824,305.395,395.914,307.341,396.143C309.287,396.372,313.375,398.739,316.885,400.462C320.394,402.185,323.326,403.264,325.047,403.239C326.768,403.214,327.279,402.084,328.09,402.144C328.901,402.203,330.012,403.45,331.376,403.99C332.739,404.53,334.354,404.362,335.275,403.797C336.195,403.233,336.423,402.272,337.35,402.488C338.277,402.705,339.903,404.099,340.088,403.95C340.273,403.802,339.017,402.111,341.799,400.774C344.58,399.438,351.401,398.455,353.824,399.222C356.247,399.989,354.273,402.505,355.341,402.209C356.408,401.912,360.518,398.802,363.592,398.153C366.665,397.503,368.703,399.314,369.078,400.972C369.453,402.63,368.166,404.136,371.169,402.64C374.172,401.145,381.466,396.649,385.996,395.728C390.525,394.807,392.29,397.461,392.043,397.863C391.796,398.266,389.538,396.416,391.385,396.732C393.232,397.047,399.184,399.526,403.177,399.253C407.17,398.98,409.203,395.954,410.91,395.685C412.617,395.416,413.996,397.905,413.831,397.961C413.665,398.017,411.954,395.641,412.902,394.744C413.85,393.848,417.457,394.43,420.805,395.643C424.152,396.855,427.241,398.697,429.467,399.566C431.693,400.435,433.056,400.331,433.746,400.837C434.435,401.342,434.45,402.457,434.364,403.289C434.279,404.121,434.092,404.67,436.039,403.781C437.985,402.892,442.065,400.564,445.04,400.248C448.015,399.932,449.885,401.628,450.841,400.708C451.797,399.788,451.838,396.253,454.383,395.601C456.928,394.949,461.977,397.181,465.911,398.689C469.844,400.198,472.662,400.982,472.928,401.172C473.194,401.361,470.908,400.956,472.899,401.152C474.891,401.348,481.16,402.147,484.353,401.886C487.546,401.625,487.663,400.303,488.869,400.483C490.075,400.662,492.371,402.341,493.856,402.397C495.342,402.454,496.017,400.886,497.828,400.959C499.638,401.032,502.584,402.745,505.363,401.955C508.141,401.166,510.752,397.873,512.109,397.769C513.466,397.665,513.568,400.751,515.667,400.834C517.765,400.916,521.859,397.997,524.763,396.855C527.666,395.713,529.379,396.349,530.423,397.171C531.467,397.994,531.842,399.003,531.852,399.719C531.861,400.435,531.506,400.858,531.636,401.075C531.766,401.292,532.382,401.304,533.236,400.983C534.09,400.662,535.183,400.009,535.948,400.464C536.713,400.92,537.152,402.484,538.976,403.461C540.8,404.438,544.011,404.829,546.193,404.086C548.376,403.343,549.53,401.467,549.222,399.615C548.913,397.763,547.142,395.935,548.036,396.579C548.929,397.223,552.487,400.339,554.786,401.24C557.084,402.142,558.123,400.83,561.146,401.22C564.169,401.611,569.177,403.703,572.419,404.268C575.662,404.834,577.14,403.873,577.843,403.837C578.547,403.801,578.476,404.69,579.665,404.223C580.853,403.756,583.301,401.933,585.078,400.674C586.855,399.415,587.962,398.719,589.803,399.089C591.645,399.458,594.222,400.892,596.7,400.93C599.178,400.968,601.558,399.609,602.145,398.23C602.732,396.852,601.526,395.455,602.693,395.689C603.86,395.923,607.4,397.789,609.948,397.953C612.495,398.118,614.048,396.58,615.81,397.387C617.572,398.193,619.542,401.343,619.932,401.446C620.322,401.548,619.133,398.603,620.112,398.045C621.09,397.486,624.237,399.314,626.305,399.73C628.374,400.146,629.363,399.15,632.074,399.735C634.785,400.319,639.217,402.484,640.986,403.735C642.755,404.987,641.861,405.324,643.236,403.29C644.611,401.256,648.255,396.849,652.294,396.308C656.332,395.766,660.766,399.09,661.567,400.853C662.369,402.616,659.539,402.818,661.113,402.533C662.687,402.248,668.665,401.476,672.212,400.549C675.758,399.623,676.874,398.542,676.656,399.643C676.439,400.744,674.889,404.027,675.177,404.909C675.466,405.791,677.592,404.27,681.723,402.946C685.854,401.622,691.99,400.493,693.712,400.58C695.434,400.666,692.742,401.968,694.193,402.124C695.644,402.28,701.239,401.289,705.126,400.4C709.014,399.511,711.195,398.723,712.523,399.17C713.85,399.618,714.323,401.3,715.28,402.491C716.238,403.681,717.678,404.38,718.411,403.351C719.144,402.323,719.169,399.568,720.72,398.71C722.271,397.852,725.348,398.891,726.934,399.45C728.519,400.01,728.612,400.089,728.602,398.995C728.592,397.901,728.478,395.633,729.878,396.421C731.277,397.208,734.19,401.049,737.555,401.491C740.92,401.934,744.737,398.976,745.814,398.361C746.892,397.745,745.23,399.471,747.059,401.143C748.887,402.814,754.207,404.43,757.298,404.202C760.389,403.974,761.251,401.903,762.634,402.132C764.017,402.36,765.919,404.889,768.514,403.791C771.109,402.693,774.396,397.968,776.264,397.094C778.131,396.221,778.58,399.199,778.41,400.342C778.24,401.485,777.451,400.794,779.296,401.244C781.141,401.693,785.619,403.283,788.557,403.77C791.495,404.258,792.893,403.643,793.704,403.059C794.515,402.475,794.739,401.922,796.719,400.562C798.698,399.202,802.434,397.035,804.589,397.064C806.745,397.092,807.32,399.317,806.718,400.135C806.116,400.954,804.336,400.367,804.975,399.531C805.615,398.695,808.674,397.609,813.07,397.615C817.465,397.621,823.197,398.719,826.551,398.685C829.904,398.652,830.879,397.488,831.963,397.427C833.048,397.365,834.242,398.407,833.578,399.625C832.913,400.843,830.39,402.238,831.851,401.468C833.312,400.697,838.757,397.762,842.216,396.601C845.674,395.44,847.146,396.054,849.57,398.111C851.994,400.167,855.371,403.668,858.558,405.219C861.744,406.771,864.74,406.375,867.506,405.483C870.272,404.591,872.807,403.204,872.766,402.948C872.725,402.692,870.109,403.566,871.822,404.318C873.535,405.071,879.578,405.701,883.757,403.477C887.935,401.253,890.248,396.176,892.312,393.577C894.376,390.979,896.191,390.859,900.223,391.9C904.256,392.942,910.506,395.143,915.027,395.784C919.548,396.424,922.339,395.504,924.292,397.103C926.246,398.702,927.361,402.82,928.396,404.816C929.431,406.813,930.386,406.688,932.49,405.355C934.593,404.023,937.845,401.482,939.474,399.862C941.103,398.243,941.108,397.545,941.848,397.763C942.587,397.981,944.061,399.115,943.78,398.68C943.499,398.245,941.464,396.24,943.326,394.829C945.188,393.418,950.947,392.6,954.84,393.689C958.733,394.778,960.761,397.774,962.002,399.077C963.244,400.38,963.699,399.992,965.056,399.227C966.414,398.463,968.673,397.323,969.967,397.384C971.262,397.446,971.59,398.709,971.561,398.963C971.532,399.218,971.146,398.464,970.994,399.162C970.842,399.861,970.924,402.011,972.932,402.403C974.939,402.795,978.872,401.429,981.385,398.818C983.898,396.208,984.993,392.353,983.78,388.383C982.567,384.413,979.046,380.328,977.114,378.901C975.182,377.473,974.839,378.703,975.959,379.973C977.078,381.243,979.661,382.553,977.972,381.059C976.283,379.566,970.322,375.268,967.367,373.345C964.413,371.421,964.464,371.871,964.054,372.047C963.644,372.223,962.772,372.126,961.156,371.105C959.539,370.084,957.178,368.14,954.308,367.045C951.438,365.951,948.061,365.707,946.038,366.978C944.015,368.249,943.347,371.036,941.849,372.495C940.352,373.953,938.024,374.084,936.484,373.899C934.944,373.713,934.192,373.211,933.088,372.754C931.985,372.296,930.532,371.882,928.363,371.427C926.193,370.972,923.308,370.477,920.849,369.366C918.389,368.255,916.355,366.528,914.52,366.93C912.686,367.332,911.052,369.863,909.956,370.777C908.86,371.69,908.303,370.986,906.466,370.448C904.629,369.91,901.513,369.538,899.397,369.911C897.281,370.284,896.166,371.403,893.927,371.598C891.689,371.793,888.327,371.065,886.46,370.51C884.593,369.956,884.219,369.574,882.669,369.454C881.119,369.335,878.392,369.478,876.855,368.207C875.317,366.937,874.97,364.253,873.832,365.139C872.694,366.024,870.765,370.48,867.017,371.608C863.269,372.735,857.702,370.534,855.01,369.709C852.319,368.883,852.505,369.434,853.774,370.572C855.042,371.71,857.394,373.437,854.445,373.884C851.496,374.332,843.245,373.5,839.095,372.623C834.945,371.746,834.896,370.824,835.139,370.215C835.382,369.606,835.918,369.311,835.339,369.247C834.759,369.182,833.064,369.348,833.212,368.727C833.36,368.106,835.351,366.697,833.584,366.942C831.817,367.186,826.291,369.084,822.639,370.705C818.986,372.325,817.206,373.667,816.567,374.624C815.928,375.582,816.429,376.154,815.359,375.232C814.289,374.309,811.646,371.891,810.057,369.465C808.468,367.039,807.932,364.606,805.671,364.387C803.41,364.167,799.423,366.161,797.244,366.958C795.065,367.755,794.694,367.355,793.147,367.824C791.601,368.292,788.879,369.629,788.188,370.157C787.496,370.686,788.835,370.408,787.164,371.637C785.493,372.867,780.812,375.604,777.803,374.893C774.795,374.182,773.458,370.024,772.104,369.339C770.751,368.655,769.38,371.445,767.498,372.777C765.616,374.108,763.221,373.981,761.203,372.909C759.185,371.836,757.544,369.819,756.041,367.963C754.538,366.107,753.174,364.414,753.233,364.608C753.293,364.802,754.775,366.883,752.033,369.603C749.29,372.324,742.322,375.683,737.391,375.699C732.459,375.715,729.564,372.388,727.436,372.154C725.308,371.92,723.946,374.779,721.364,373.944C718.781,373.11,714.978,368.581,712.207,366.809C709.436,365.038,707.697,366.023,706.706,366.411C705.715,366.799,705.472,366.59,703.605,366.176C701.737,365.762,698.245,365.143,696.203,365.078C694.162,365.013,693.571,365.502,692.659,366.45C691.747,367.399,690.513,368.807,690.436,369.739C690.359,370.67,691.439,371.124,689.13,371.686C686.821,372.248,681.124,372.918,678.78,373.539C676.436,374.16,677.445,374.732,675.808,374.107C674.172,373.482,669.89,371.658,667.896,369.255C665.902,366.852,666.196,363.869,664.4,364.08C662.604,364.292,658.718,367.699,656.486,369.155C654.254,370.612,653.676,370.118,653.065,368.715C652.454,367.312,651.809,365.002,649.651,364.687C647.492,364.372,643.819,366.054,643.476,367.701C643.132,369.349,646.118,370.962,643.276,371.049C640.434,371.135,631.765,369.696,626.506,368.232C621.246,366.769,619.396,365.28,619.182,364.98C618.967,364.679,620.387,365.567,617.524,367.532C614.662,369.496,607.516,372.539,603.602,373.072C599.688,373.604,599.005,371.628,598.665,369.916C598.324,368.203,598.327,366.755,597.536,365.626C596.745,364.498,595.162,363.689,593.189,365.309C591.217,366.928,588.855,370.974,586.791,372.604C584.727,374.235,582.962,373.449,581.884,372.362C580.805,371.275,580.413,369.888,579.66,369.477C578.907,369.067,577.793,369.635,578.074,370.089C578.355,370.544,580.032,370.886,579.339,370.58C578.646,370.274,575.584,369.321,572.91,368.97C570.235,368.619,567.948,368.872,566.8,368.857C565.653,368.842,565.644,368.559,563.965,368.028C562.285,367.498,558.934,366.718,557.127,367.156C555.32,367.594,555.058,369.249,554.753,369.895C554.449,370.54,554.102,370.175,553.656,371.051C553.209,371.927,552.663,374.045,551.93,373.967C551.197,373.889,550.277,371.617,548.136,371.201C545.996,370.785,542.633,372.227,541.161,372.966C539.688,373.706,540.106,373.743,538.033,373.18C535.959,372.616,531.394,371.452,528.871,371.886C526.348,372.319,525.868,374.35,525.863,374.494C525.858,374.637,526.329,372.892,525.171,370.84C524.014,368.788,521.228,366.43,517.283,366.023C513.338,365.616,508.232,367.161,505.706,367.204C503.18,367.247,503.232,365.789,502.978,364.751C502.723,363.714,502.161,363.098,501.008,363.115C499.854,363.133,498.109,363.785,495.175,364.111C492.24,364.438,488.117,364.439,484.824,364.209C481.531,363.979,479.068,363.519,474.999,364.859C470.93,366.198,465.255,369.338,461.852,371.519C458.449,373.701,457.319,374.925,455.982,373.748C454.645,372.57,453.101,368.992,451.113,367.841C449.124,366.689,446.69,367.965,446.191,367.528C445.692,367.091,447.128,364.943,445.743,364.994C444.359,365.045,440.153,367.296,438.484,368.539C436.816,369.781,437.684,370.014,436.935,370.119C436.186,370.224,433.821,370.2,433.239,370.546C432.657,370.892,433.858,371.607,434.71,371.553C435.562,371.499,436.063,370.675,431.715,370.47C427.367,370.264,418.169,370.677,414.384,370.196C410.599,369.716,412.227,368.342,410.997,368.113C409.767,367.884,405.68,368.801,403.323,369.039C400.966,369.277,400.34,368.837,399.778,368.597C399.216,368.358,398.718,368.318,399.716,367.832C400.715,367.346,403.21,366.412,401.705,367.101C400.201,367.791,394.697,370.102,391.395,370.65C388.092,371.197,386.991,369.979,385.428,368.902C383.864,367.826,381.839,366.89,381.334,368.075C380.829,369.26,381.844,372.565,380.413,373.158C378.982,373.751,375.104,371.631,374.19,370.911C373.275,370.191,375.322,370.871,373.468,370.758C371.614,370.645,365.858,369.74,362.78,369.042C359.701,368.344,359.3,367.854,358.96,369.472C358.62,371.091,358.341,374.819,357.015,376.253C355.69,377.687,353.319,376.827,348.721,375.476C344.124,374.126,337.3,372.285,333.888,371.365L330.476,370.444"></path>
      </svg>
      