<?xml version="1.0" encoding="UTF-8" standalone="no"?>
    <!-- Created with Inkscape (https://labs.original.art.br/draw) -->
    
    <svg
       xmlns:dc="http://purl.org/dc/elements/1.1/"
       xmlns:cc="http://creativecommons.org/ns#"
       xmlns:rdf="http://www.w3.org/1999/02/22-rdf-syntax-ns#"
       xmlns:svg="http://www.w3.org/2000/svg"
       xmlns="http://www.w3.org/2000/svg"
       xmlns:sodipodi="http://sodipodi.sourceforge.net/DTD/sodipodi-0.dtd"
       xmlns:inkscape="http://www.inkscape.org/namespaces/inkscape"
       id="C7z7t"
       version="1.1"
       inkscape:version="0.91 r13725"
       width="undefined"
       height="undefined"
       viewBox="0 0 undefined undefined"
       sodipodi:docname="_paths6.svg">
      <metadata
         id="metadata3404">
        <rdf:RDF>
          <cc:Work
             rdf:about="">
            <dc:format>image/svg+xml</dc:format>
            <dc:type
               rdf:resource="http://purl.org/dc/dcmitype/StillImage" />
            <dc:title></dc:title>
          </cc:Work>
        </rdf:RDF>
      </metadata>
      undefined<path fill="none" stroke-width="1" style="stroke: rgb(0, 71, 171);" d="M4.07,500L4.42,496.905C4.771,493.809,5.471,487.618,6.945,484.822C8.42,482.027,10.67,482.626,11.326,481.81C11.982,480.993,11.045,478.76,13.18,474.93C15.315,471.1,20.522,465.673,22.564,463.277C24.605,460.882,23.481,461.518,24.743,461.537C26.004,461.556,29.65,460.957,30.525,459.731C31.399,458.504,29.502,456.649,31.095,456.782C32.689,456.915,37.773,459.035,39.397,459.95C41.022,460.864,39.186,460.573,41.419,460.617C43.652,460.662,49.954,461.043,51.817,461.452C53.68,461.862,51.106,462.3,52.725,463.07C54.343,463.84,60.155,464.941,63.812,464.199C67.469,463.457,68.973,460.872,69.609,459.757C70.245,458.642,70.013,458.997,69.337,459.684C68.662,460.372,67.544,461.392,70.159,461.445C72.774,461.499,79.123,460.585,82.065,460.903C85.006,461.221,84.541,462.772,85.092,462.69C85.643,462.609,87.21,460.894,89.568,459.808C91.926,458.721,95.073,458.262,95.608,457.226C96.142,456.19,94.064,454.578,94.51,454.313C94.956,454.047,97.927,455.129,100.961,456.08C103.994,457.03,107.091,457.849,109.983,458.47C112.875,459.09,115.562,459.513,118.448,459.812C121.333,460.111,124.417,460.286,125.622,460.654C126.826,461.021,126.151,461.581,126.903,462.376C127.655,463.17,129.835,464.2,132.297,463.977C134.759,463.754,137.504,462.28,138.818,462.937C140.133,463.593,140.016,466.381,141.733,466.404C143.449,466.427,146.999,463.686,149.788,461.31C152.577,458.935,154.607,456.925,156.873,456.451C159.139,455.977,161.642,457.039,161.861,457.828C162.081,458.617,160.018,459.132,162.392,458.338C164.767,457.543,171.58,455.438,174.963,456.555C178.346,457.671,178.298,462.01,180.062,463.735C181.826,465.461,185.401,464.573,187.489,464.819C189.576,465.065,190.177,466.443,191.968,465.924C193.76,465.405,196.742,462.988,198.984,461.868C201.227,460.747,202.729,460.922,202.234,459.816C201.738,458.71,199.244,456.322,201.025,457.032C202.807,457.743,208.863,461.55,212.532,463.023C216.201,464.495,217.481,463.633,219.696,461.63C221.911,459.626,225.06,456.482,225.483,455.968C225.906,455.454,223.603,457.569,225.487,459.984C227.371,462.398,233.443,465.112,238.288,466.572C243.133,468.033,246.753,468.241,251.107,467.653C255.46,467.065,260.549,465.682,262.883,465.043C265.217,464.404,264.796,464.51,265.581,464.003C266.365,463.496,268.354,462.376,270.641,461.188C272.928,460.001,275.513,458.747,277.867,457.398C280.22,456.049,282.342,454.605,283.977,454.17C285.612,453.735,286.76,454.31,288.126,455.905C289.492,457.5,291.077,460.115,292.323,460.816C293.57,461.517,294.478,460.303,296.405,460.127C298.331,459.95,301.275,460.809,302.775,460.917C304.275,461.024,304.33,460.378,304.613,460.393C304.897,460.408,305.409,461.084,304.534,461.358C303.659,461.633,301.398,461.506,301.85,461.72C302.302,461.935,305.469,462.491,308.344,460.889C311.219,459.288,313.803,455.529,316.97,454.059C320.137,452.589,323.887,453.408,327.561,454.459C331.234,455.51,334.83,456.793,336.547,457.766C338.265,458.738,338.102,459.399,339.615,458.618C341.127,457.837,344.314,455.613,346.792,455.718C349.27,455.822,351.038,458.255,353.107,459.644C355.175,461.032,357.544,461.377,358.249,460.439C358.955,459.5,357.997,457.279,359.325,457.748C360.653,458.218,364.265,461.378,367.087,462.031C369.909,462.685,371.94,460.831,373.12,459.804C374.299,458.778,374.627,458.58,374.883,460.088C375.14,461.595,375.325,464.81,375.311,465.452C375.297,466.094,375.084,464.164,378.868,463.783C382.653,463.401,390.435,464.568,393.675,464.889C396.914,465.211,395.611,464.688,398.272,463.577C400.933,462.466,407.557,460.766,410.238,459.733C412.92,458.699,411.658,458.331,412.411,458.501C413.165,458.671,415.933,459.378,416.6,460.058C417.266,460.738,415.83,461.391,416.912,461.295C417.994,461.2,421.595,460.355,423.718,460.652C425.841,460.95,426.486,462.388,427.813,463.763C429.141,465.138,431.15,466.45,434.397,465.573C437.643,464.696,442.128,461.631,444.26,460.256C446.393,458.881,446.174,459.196,447.511,459.919C448.848,460.642,451.74,461.773,451.829,461.06C451.917,460.347,449.201,457.789,450.853,456.24C452.505,454.69,458.525,454.148,463.263,453.395C468.001,452.642,471.459,451.677,474.322,452.58C477.186,453.484,479.456,456.255,481.557,457.948C483.658,459.641,485.591,460.257,487.152,460.584C488.714,460.911,489.904,460.948,490.714,461.06C491.524,461.171,491.953,461.357,492.326,461.168C492.699,460.979,493.017,460.416,493.183,460.058C493.348,459.699,493.361,459.547,493.373,458.788C493.386,458.029,493.398,456.664,494.55,456.504C495.701,456.345,497.992,457.392,499.32,458.433C500.649,459.474,501.015,460.51,499.953,460.708C498.892,460.905,496.403,460.265,497.619,459.738C498.835,459.21,503.756,458.795,507,458.845C510.245,458.895,511.812,459.41,513.549,458.874C515.286,458.339,517.193,456.752,518.672,457.249C520.151,457.745,521.202,460.325,521.931,461.194C522.66,462.063,523.067,461.222,523.265,460.197C523.462,459.172,523.451,457.964,524.621,458.961C525.79,459.959,528.14,463.162,530.047,464.144C531.955,465.126,533.421,463.886,534.84,463.441C536.259,462.997,537.632,463.349,539.274,463.835C540.917,464.321,542.829,464.942,545.527,464.492C548.224,464.042,551.708,462.52,553.814,460.527C555.921,458.533,556.651,456.067,558.484,455.412C560.317,454.757,563.254,455.912,564.626,456.367C565.998,456.821,565.804,456.576,565.531,456.282C565.259,455.987,564.908,455.643,565.952,456.416C566.996,457.19,569.434,459.08,572.644,459.658C575.854,460.235,579.835,459.5,582.728,459.42C585.621,459.341,587.425,459.917,587.931,459.63C588.437,459.343,587.645,458.191,589.586,458C591.527,457.809,596.201,458.577,598.269,458.464C600.337,458.351,599.799,457.356,600.138,458.738C600.478,460.119,601.696,463.879,603.279,463.557C604.863,463.236,606.813,458.833,610.372,457.903C613.932,456.973,619.101,459.514,621.285,460.272C623.469,461.029,622.668,460.001,623.182,458.764C623.697,457.526,625.528,456.079,626.271,456.532C627.013,456.984,626.668,459.336,627.879,460.646C629.091,461.957,631.86,462.225,636.122,462.388C640.383,462.55,646.138,462.606,648.214,463.531C650.289,464.455,648.686,466.249,649.487,465.489C650.287,464.728,653.492,461.413,656.615,460.863C659.738,460.312,662.778,462.525,665.472,462.966C668.165,463.407,670.512,462.076,671.869,460.51C673.225,458.944,673.591,457.144,674.501,458.142C675.411,459.141,676.864,462.938,678.575,463.835C680.285,464.733,682.254,462.73,684.762,460.633C687.27,458.537,690.318,456.346,692.292,455.711C694.266,455.076,695.165,455.997,695.864,457.925C696.563,459.853,697.061,462.789,698.615,463.346C700.169,463.904,702.78,462.082,703.941,461.181C705.102,460.281,704.815,460.3,705.831,458.886C706.846,457.472,709.165,454.625,711.591,453.893C714.017,453.161,716.55,454.544,718.318,456.6C720.086,458.656,721.091,461.384,722.102,462.222C723.113,463.061,724.131,462.009,724.742,461.189C725.353,460.369,725.555,459.781,727.102,460.114C728.649,460.447,731.54,461.7,733.183,461.913C734.826,462.125,735.221,461.295,734.27,460.498C733.319,459.701,731.021,458.937,731.337,458.483C731.653,458.029,734.582,457.886,737.363,459.287C740.145,460.688,742.778,463.633,745.349,464.023C747.919,464.414,750.428,462.249,752.796,461.142C755.163,460.035,757.391,459.986,759.069,460.359C760.747,460.732,761.877,461.528,762.919,461.147C763.962,460.766,764.919,459.208,765.945,459.158C766.97,459.109,768.065,460.568,768.424,460.254C768.783,459.941,768.407,457.855,768.491,456.159C768.575,454.464,769.12,453.159,771.619,454.059C774.119,454.959,778.572,458.065,779.727,458.77C780.882,459.475,778.737,457.779,781.099,455.954C783.461,454.128,790.329,452.172,794.696,451.891C799.064,451.61,800.932,453.003,803.536,455.103C806.14,457.204,809.48,460.011,811.332,460.815C813.185,461.619,813.551,460.421,814.525,460.448C815.5,460.476,817.083,461.729,817.804,461.938C818.524,462.147,818.382,461.31,817.799,461.938C817.217,462.567,816.195,464.66,817.168,464.32C818.141,463.979,821.109,461.205,825.668,460.614C830.227,460.024,836.375,461.618,839.728,461.884C843.081,462.15,843.639,461.088,844.343,460.45C845.046,459.813,845.896,459.599,846.181,459.997C846.466,460.395,846.186,461.405,846.923,460.06C847.66,458.715,849.415,455.014,851.052,454.859C852.689,454.704,854.209,458.095,856.05,458.535C857.892,458.976,860.055,456.466,862.425,457.721C864.796,458.977,867.374,463.998,871.003,464.718C874.632,465.437,879.311,461.854,882.796,459.966C886.281,458.078,888.571,457.884,889.954,458.067C891.337,458.25,891.813,458.809,892.354,458.281C892.894,457.752,893.499,456.137,894.456,454.815C895.413,453.493,896.723,452.464,898.217,454.709C899.712,456.955,901.392,462.476,905.006,463.354C908.619,464.232,914.166,460.468,917.132,459.136C920.097,457.804,920.481,458.904,920.586,459.562C920.691,460.22,920.518,460.436,921.17,459.574C921.823,458.713,923.301,456.774,924.662,456.427C926.022,456.08,927.264,457.325,927.833,458.472C928.402,459.619,928.298,460.667,929.253,462.116C930.209,463.565,932.224,465.415,933.183,466.305C934.142,467.196,934.044,467.126,935.254,466.093C936.464,465.06,938.982,463.062,942.705,462.125C946.429,461.188,951.36,461.312,952.916,460.902C954.473,460.491,952.655,459.546,953.089,458.358C953.524,457.17,956.21,455.739,959.393,455.469C962.576,455.199,966.256,456.09,969.366,456.195C972.477,456.3,975.019,455.618,977.267,456.694C979.514,457.77,981.468,460.604,982.282,459.687C983.095,458.77,982.768,454.102,981.912,449.4C981.055,444.697,979.669,439.962,978.941,438.511C978.214,437.06,978.146,438.894,977.481,440.376C976.816,441.859,975.555,442.989,974.552,442.655C973.548,442.322,972.803,440.524,972.118,440.691C971.433,440.858,970.808,442.989,969.489,442.085C968.17,441.181,966.158,437.241,963.086,436.633C960.015,436.025,955.885,438.748,954.033,439.322C952.18,439.896,952.606,438.32,953.004,437.029C953.402,435.739,953.773,434.733,951.033,435.69C948.293,436.647,942.442,439.568,937.943,440.337C933.444,441.105,930.296,439.722,928.538,438.079C926.78,436.437,926.411,434.534,924.274,434.46C922.136,434.385,918.23,436.138,916.034,437.692C913.837,439.246,913.351,440.601,912.976,439.348C912.6,438.095,912.336,434.235,910.595,433.935C908.854,433.635,905.637,436.896,903.841,438.534C902.045,440.173,901.671,440.19,901.179,440.132C900.687,440.075,900.078,439.944,899.877,438.732C899.675,437.52,899.882,435.228,898.652,434.427C897.422,433.627,894.756,434.317,891.754,434.871C888.751,435.425,885.412,435.842,882.962,436.9C880.512,437.957,878.951,439.654,877.736,440.175C876.52,440.696,875.65,440.041,875.084,441.288C874.518,442.534,874.257,445.682,872.248,445.121C870.239,444.559,866.482,440.287,864.753,438.885C863.024,437.483,863.322,438.95,862.523,439.55C861.724,440.15,859.828,439.884,858.517,439.844C857.206,439.804,856.481,439.991,857.082,440.225C857.684,440.459,859.612,440.74,858.081,441.656C856.551,442.572,851.561,444.121,848.554,444.601C845.547,445.082,844.522,444.493,843.283,442.882C842.044,441.271,840.591,438.637,839.023,438.236C837.455,437.834,835.773,439.665,834.455,440.302C833.137,440.94,832.183,440.384,831.489,440.803C830.795,441.222,830.36,442.616,830.728,441.684C831.096,440.753,832.267,437.496,830.498,436.017C828.729,434.538,824.021,434.838,820.012,436.778C816.004,438.718,812.696,442.299,811.007,443.012C809.318,443.725,809.248,441.57,809.769,440.187C810.289,438.805,811.4,438.194,809.327,439.371C807.255,440.548,801.999,443.512,797.73,444.01C793.461,444.508,790.181,442.542,787.63,442.634C785.08,442.727,783.261,444.88,781.073,443.504C778.885,442.127,776.329,437.222,774.004,436.632C771.68,436.043,769.587,439.769,768.333,441.031C767.079,442.293,766.664,441.09,765.992,440.376C765.321,439.662,764.393,439.436,764.102,438.401C763.811,437.366,764.158,435.521,763.405,435.059C762.653,434.598,760.801,435.52,758.838,436.512C756.874,437.504,754.8,438.567,753.092,438.017C751.384,437.468,750.042,435.306,747.645,436.242C745.248,437.178,741.796,441.21,738.554,442.929C735.312,444.649,732.281,444.055,732.087,443.615C731.893,443.175,734.537,442.888,733.218,442.431C731.9,441.973,726.619,441.345,721.983,441.859C717.347,442.373,713.355,444.029,711.085,444.015C708.814,444.001,708.265,442.316,708.272,441.913C708.278,441.511,708.84,442.39,707.09,441.716C705.339,441.041,701.276,438.813,698.682,438.776C696.088,438.739,694.963,440.893,693.754,441.185C692.546,441.477,691.254,439.907,691.166,438.749C691.078,437.59,692.194,436.843,691.612,435.663C691.03,434.484,688.751,432.871,685.93,432.777C683.11,432.683,679.749,434.109,677.5,435.257C675.251,436.405,674.115,437.276,670.889,437.725C667.664,438.174,662.349,438.2,660.474,438.891C658.599,439.582,660.163,440.938,657.966,442.227C655.769,443.516,649.81,444.739,646.887,444.183C643.964,443.628,644.078,441.294,643.067,440.45C642.055,439.605,639.919,440.249,639.023,440.925C638.128,441.601,638.472,442.309,636.468,442.882C634.464,443.456,630.111,443.896,627.519,443.021C624.928,442.146,624.097,439.956,623.957,440.347C623.816,440.737,624.365,443.708,623.372,445.683C622.38,447.657,619.847,448.636,615.896,448.689C611.945,448.742,606.575,447.87,602.324,445.357C598.074,442.844,594.944,438.691,593.072,437.698C591.2,436.704,590.587,438.869,589.731,439.089C588.875,439.308,587.776,437.582,587.101,436.195C586.427,434.808,586.177,433.761,585.2,434.867C584.223,435.972,582.519,439.23,580.414,441.109C578.309,442.987,575.803,443.486,574.921,443.736C574.039,443.985,574.782,443.985,572.026,443.089C569.271,442.193,563.017,440.4,559.606,439.505C556.194,438.61,555.625,438.613,554.476,439.553C553.328,440.493,551.6,442.371,550.321,441.879C549.042,441.387,548.211,438.526,547.932,437.01C547.652,435.494,547.925,435.323,546.641,435.768C545.357,436.212,542.515,437.272,539.041,437.198C535.567,437.125,531.46,435.92,528.839,437.408C526.219,438.896,525.086,443.078,523.136,444.136C521.186,445.194,518.419,443.129,516.981,441.9C515.542,440.672,515.432,440.281,515.61,439.686C515.789,439.091,516.256,438.292,514.571,437.476C512.887,436.66,509.049,435.828,505.85,436.525C502.651,437.223,500.09,439.45,498.145,441.619C496.2,443.788,494.87,445.899,493.258,445.746C491.647,445.593,489.754,443.176,488.546,441.667C487.337,440.158,486.814,439.556,486.154,438.022C485.493,436.489,484.695,434.022,483.396,434.062C482.097,434.101,480.297,436.645,478.977,438.055C477.657,439.465,476.817,439.74,476.455,439.911C476.093,440.082,476.209,440.149,474.618,439.68C473.027,439.212,469.729,438.209,466.985,438.477C464.241,438.745,462.053,440.284,460.377,440.444C458.7,440.604,457.537,439.386,455.743,439.243C453.95,439.101,451.527,440.034,449.844,441.245C448.161,442.456,447.218,443.945,446.231,443.659C445.243,443.373,444.21,441.312,442.951,440.12C441.692,438.927,440.206,438.603,439.414,438.762C438.623,438.921,438.526,439.563,438.831,440.08C439.136,440.598,439.843,440.991,439.252,440.942C438.661,440.894,436.772,440.403,436.075,441.636C435.377,442.869,435.871,445.825,434.385,444.661C432.898,443.497,429.43,438.213,426.468,436.789C423.505,435.364,421.047,437.799,419.82,439.483C418.593,441.166,418.596,442.098,418.219,441.017C417.841,439.936,417.082,436.843,415.818,436.404C414.555,435.966,412.786,438.184,410.34,438.799C407.894,439.414,404.771,438.428,401.977,438.204C399.182,437.98,396.716,438.52,396.5,437.882C396.284,437.244,398.317,435.428,397.799,436.773C397.282,438.118,394.214,442.624,388.575,443.338C382.937,444.052,374.728,440.975,369.264,439.985C363.801,438.995,361.083,440.091,360.684,441.292C360.285,442.493,362.205,443.799,360.792,444.336C359.38,444.873,354.635,444.642,351.498,444.192C348.36,443.743,346.83,443.074,345.452,443.018C344.074,442.962,342.847,443.518,340.784,444.164C338.72,444.811,335.819,445.547,334.395,445.116C332.971,444.685,333.024,443.086,331.199,441.646C329.373,440.207,325.668,438.926,322.797,438.567C319.925,438.208,317.887,438.77,315.669,440.199C313.451,441.628,311.054,443.923,309.71,444.433C308.365,444.944,308.074,443.671,306.949,442.273C305.824,440.875,303.867,439.352,302.278,438.081C300.689,436.811,299.469,435.793,298.174,436.089C296.879,436.385,295.511,437.995,294.928,438.693C294.345,439.392,294.548,439.18,294.557,438.693C294.567,438.206,294.382,437.444,294.531,436.623C294.68,435.803,295.163,434.924,294.165,435.002C293.167,435.08,290.689,436.115,286.765,437.252C282.842,438.39,277.473,439.63,273.633,439.486C269.792,439.341,267.48,437.812,267.17,438.028C266.859,438.244,268.549,440.206,267.963,441.646C267.376,443.085,264.512,444.003,260.687,444.741C256.862,445.478,252.076,446.035,249.177,445.081C246.277,444.128,245.264,441.663,244.283,440.582C243.303,439.501,242.356,439.804,242.415,439.061C242.474,438.318,243.538,436.529,242.512,436.355C241.486,436.181,238.37,437.621,236.72,438.13C235.07,438.64,234.886,438.219,234.662,438.649C234.437,439.079,234.171,440.36,232.712,440.961C231.253,441.562,228.6,441.482,227.699,441.628C226.798,441.773,227.649,442.144,228.477,441.861C229.306,441.577,230.112,440.64,227.909,439.783C225.706,438.925,220.494,438.147,217.459,438.48C214.425,438.812,213.568,440.255,211.961,440.416C210.355,440.577,208,439.456,207.915,439.378C207.83,439.299,210.015,440.262,209.028,440.806C208.041,441.35,203.882,441.474,201.708,440.937C199.534,440.4,199.344,439.202,196.353,440.258C193.361,441.314,187.567,444.624,184.509,444.543C181.452,444.462,181.131,440.989,178.177,440.306C175.224,439.622,169.638,441.729,166.666,442.331C163.695,442.934,163.338,442.034,161.976,442.651C160.615,443.269,158.249,445.404,155.383,445.587C152.517,445.771,149.152,444.001,147.706,441.846C146.26,439.69,146.732,437.148,145.349,437.063C143.966,436.977,140.727,439.348,139.932,440.307C139.138,441.266,140.787,440.812,139.358,440.51C137.93,440.208,133.423,440.057,131.163,440.713C128.903,441.37,128.891,442.833,127.489,442.848C126.087,442.863,123.296,441.43,121.393,441.695C119.491,441.96,118.478,443.923,118.666,444.353C118.855,444.782,120.246,443.678,118.622,443.259C116.998,442.84,112.359,443.108,108.817,442.437C105.274,441.766,102.827,440.156,100.467,440.787C98.106,441.417,95.833,444.288,93.458,444.399C91.084,444.51,88.608,441.862,87.168,440.66C85.728,439.458,85.324,439.701,85.265,439.615C85.207,439.529,85.494,439.113,84.399,437.736C83.305,436.36,80.828,434.024,78.796,434.21C76.765,434.397,75.18,437.106,74.065,438.509C72.951,439.911,72.306,440.006,72.192,440.265C72.077,440.523,72.492,440.945,72.536,441.932C72.58,442.919,72.254,444.47,70.63,443.943C69.007,443.416,66.085,440.809,66.02,439.94C65.955,439.07,68.746,439.938,66.852,439.206C64.958,438.474,58.38,436.143,54.902,435.697C51.424,435.25,51.046,436.689,49.148,437.409C47.249,438.13,43.829,438.133,41.843,438.886C39.856,439.639,39.303,441.142,37.806,441.032C36.309,440.923,33.869,439.201,32.312,439.867C30.756,440.532,30.083,443.585,28.497,444.738C26.91,445.891,24.411,445.144,22.634,444.13C20.858,443.115,19.804,441.832,19.955,439.357C20.106,436.881,21.461,433.213,22.428,430.972C23.395,428.731,23.973,427.917,24.524,428.025C25.074,428.133,25.597,429.163,27.042,429.629C28.487,430.095,30.855,429.997,32.533,429.419C34.21,428.842,35.198,427.784,36.306,427.691C37.415,427.598,38.646,428.471,38.626,429.705C38.606,430.94,37.337,432.537,37.608,432.78C37.879,433.023,39.692,431.912,42.112,430.592C44.533,429.271,47.562,427.741,49.208,429.062C50.855,430.383,51.119,434.555,53.144,435.197C55.17,435.838,58.956,432.95,61.135,431.326C63.314,429.702,63.886,429.344,64.21,429.265C64.533,429.187,64.608,429.388,64.545,428.266C64.482,427.144,64.281,424.699,65.264,423.689C66.247,422.68,68.413,423.106,70.798,424.848C73.183,426.59,75.788,429.647,78.046,430.187C80.304,430.727,82.214,428.748,83.416,428.327C84.619,427.906,85.114,429.041,84.65,429.392C84.186,429.744,82.764,429.311,84.143,429.073C85.523,428.835,89.705,428.792,90.935,429.324C92.165,429.856,90.445,430.962,91.239,430.655C92.033,430.348,95.343,428.626,98.83,427.318C102.317,426.009,105.981,425.113,108.449,425.911C110.918,426.708,112.19,429.199,112.846,431.181C113.502,433.162,113.541,434.634,115.941,434.321C118.341,434.007,123.103,431.908,125.511,431.15C127.919,430.392,127.974,430.976,128.33,431.88C128.685,432.783,129.341,434.006,130.856,432.513C132.37,431.02,134.744,426.81,137.122,427.08C139.499,427.35,141.879,432.099,144.107,433.916C146.334,435.733,148.409,434.617,150.978,434.258C153.547,433.899,156.609,434.297,158.261,433.952C159.912,433.607,160.151,432.519,160.203,431.97C160.255,431.422,160.12,431.414,161.378,430.335C162.637,429.256,165.289,427.107,167.188,426.697C169.086,426.287,170.23,427.615,171.08,428.284C171.929,428.953,172.483,428.962,171.992,429.256C171.501,429.551,169.965,430.129,172.051,430.422C174.137,430.715,179.846,430.721,182.565,429.35C185.283,427.979,185.011,425.231,187.233,426.161C189.454,427.092,194.168,431.701,197.33,432.66C200.492,433.619,202.101,430.928,202.864,429.123C203.626,427.317,203.542,426.399,204.636,426.727C205.729,427.055,208.002,428.63,208.776,429.48C209.551,430.331,208.827,430.457,210.398,430.322C211.97,430.186,215.836,429.79,219.018,430.755C222.2,431.72,224.697,434.047,225.529,433.588C226.361,433.129,225.528,429.883,225.566,428.096C225.604,426.309,226.512,425.981,229.713,425.664C232.915,425.348,238.41,425.043,241.289,425.75C244.168,426.456,244.431,428.174,246.165,428.526C247.899,428.878,251.104,427.864,253.666,428.782C256.228,429.699,258.148,432.548,259.71,433.097C261.272,433.645,262.478,431.893,264.835,430.794C267.192,429.696,270.701,429.251,272.43,430.723C274.158,432.195,274.106,435.583,275.481,436.118C276.857,436.652,279.659,434.332,281.009,432.125C282.359,429.918,282.256,427.823,284.145,427.121C286.034,426.419,289.915,427.109,291.484,427C293.054,426.891,292.311,425.983,294.438,425.457C296.565,424.931,301.561,424.787,304.928,427.181C308.296,429.576,310.035,434.509,310.811,436.285C311.587,438.062,311.401,436.681,314.418,435.083C317.435,433.486,323.656,431.672,327.77,431.835C331.883,431.997,333.89,434.138,334.329,434.74C334.768,435.343,333.64,434.408,335.111,432.278C336.583,430.149,340.654,426.824,343.318,424.804C345.981,422.783,347.238,422.066,349.257,422.995C351.276,423.923,354.058,426.496,357.128,427.684C360.197,428.873,363.555,428.677,366.509,428.365C369.464,428.053,372.016,427.625,373.679,428.281C375.341,428.937,376.114,430.678,377.025,431.005C377.936,431.332,378.985,430.245,378.988,429.287C378.99,428.329,377.947,427.5,378.819,428.139C379.692,428.778,382.48,430.885,383.677,431.267C384.873,431.649,384.478,430.307,385.364,430.568C386.249,430.829,388.415,432.693,391.787,433.504C395.158,434.315,399.734,434.073,400.679,432.956C401.625,431.84,398.94,429.849,401.51,429.229C404.079,428.609,411.904,429.359,415.849,429.845C419.794,430.331,419.861,430.553,419.896,430.626C419.932,430.7,419.936,430.625,420.632,430.87C421.327,431.115,422.713,431.681,423.924,430.282C425.136,428.883,426.174,425.519,426.961,425.141C427.748,424.763,428.284,427.371,430.927,428.594C433.571,429.818,438.321,429.657,440.771,430.488C443.221,431.319,443.371,433.142,444.929,433.43C446.486,433.718,449.45,432.472,451.492,431.633C453.534,430.795,454.653,430.364,456.279,430.156C457.905,429.948,460.038,429.963,461.318,429.454C462.597,428.945,463.022,427.911,462.833,429.016C462.643,430.121,461.838,433.364,463.922,432.871C466.006,432.377,470.979,428.146,473.987,427.306C476.996,426.466,478.041,429.016,480.661,429.696C483.28,430.375,487.475,429.184,489.923,428.352C492.371,427.52,493.073,427.046,492.231,427.815C491.389,428.584,489.004,430.595,491.676,431.836C494.349,433.077,502.079,433.548,505.322,432.124C508.565,430.7,507.321,427.382,509.425,426.876C511.529,426.37,516.982,428.676,520.228,430.464C523.473,432.253,524.512,433.524,524.988,432.474C525.464,431.423,525.376,428.052,528.078,426.875C530.78,425.697,536.271,426.713,539.283,426.871C542.295,427.03,542.828,426.332,543.859,426.952C544.891,427.572,546.42,429.51,547.362,429.234C548.303,428.957,548.656,426.465,549.085,425.681C549.515,424.897,550.02,425.82,551.747,427.124C553.473,428.428,556.421,430.113,558.749,431.847C561.078,433.581,562.789,435.363,565.52,434.947C568.251,434.532,572.003,431.92,574.564,430.549C577.125,429.179,578.494,429.05,578.816,429.191C579.138,429.332,578.413,429.742,579.222,431.397C580.032,433.051,582.377,435.949,584.958,436.125C587.538,436.302,590.354,433.758,591.534,432.345C592.715,430.933,592.26,430.653,592.234,431.751C592.208,432.849,592.611,435.325,594.558,434.738C596.504,434.15,599.993,430.5,601.401,429.853C602.809,429.205,602.136,431.56,603.841,433.465C605.547,435.37,609.63,436.825,612.96,437.226C616.29,437.627,618.866,436.975,621.315,435.573C623.764,434.171,626.086,432.019,627.199,430.971C628.312,429.924,628.215,429.981,628.119,428.606C628.023,427.23,627.928,424.422,629.205,424.278C630.483,424.134,633.133,426.654,634.263,427.956C635.393,429.259,635.003,429.344,634.97,429.161C634.937,428.978,635.262,428.526,636.887,427.98C638.512,427.435,641.437,426.797,644.511,426.823C647.585,426.85,650.808,427.541,653.367,428.114C655.925,428.687,657.82,429.142,660.668,429.029C663.517,428.915,667.32,428.233,670.317,427.904C673.314,427.574,675.504,427.596,677.704,429.177C679.905,430.758,682.116,433.897,685.136,434.261C688.156,434.625,691.985,432.214,694.04,431.196C696.095,430.178,696.376,430.553,696.459,429.474C696.541,428.395,696.426,425.861,698.333,424.479C700.241,423.096,704.171,422.864,708.446,424.297C712.721,425.73,717.341,428.827,720.007,429.893C722.672,430.96,723.384,429.994,724.796,429.2C726.208,428.406,728.319,427.783,730.166,428.873C732.013,429.963,733.595,432.765,734.85,431.873C736.105,430.981,737.033,426.394,738.783,425.384C740.532,424.374,743.103,426.941,745.896,427.571C748.69,428.202,751.706,426.896,753.403,426.936C755.099,426.976,755.475,428.362,756.245,427.685C757.015,427.008,758.18,424.268,759.908,423.251C761.636,422.235,763.928,422.941,766.209,425.092C768.491,427.242,770.761,430.836,771.875,431.645C772.99,432.454,772.948,430.478,774.556,429.733C776.164,428.988,779.422,429.474,781.287,429.424C783.152,429.373,783.623,428.787,784.07,429.877C784.517,430.967,784.94,433.734,785.467,433.896C785.994,434.059,786.626,431.618,789.416,429.548C792.206,427.479,797.155,425.781,800.329,426.56C803.502,427.34,804.9,430.595,806.122,431.547C807.344,432.498,808.392,431.144,809.486,429.71C810.58,428.277,811.722,426.763,812.772,426.773C813.822,426.784,814.78,428.318,814.164,430.089C813.547,431.86,811.356,433.868,812.384,432.446C813.412,431.024,817.659,426.171,822.223,424.696C826.787,423.22,831.668,425.121,832.998,426.957C834.328,428.793,832.106,430.565,832.158,430.778C832.211,430.99,834.538,429.644,838.476,429.283C842.413,428.921,847.961,429.546,850.765,429.09C853.569,428.633,853.63,427.096,855.578,427.025C857.527,426.954,861.362,428.349,863.521,429.987C865.68,431.624,866.163,433.503,866.743,433.252C867.322,433.002,867.998,430.621,869.537,429.092C871.077,427.562,873.48,426.884,875.963,426.096C878.446,425.308,881.008,424.411,882.665,425.423C884.321,426.436,885.073,429.359,885.41,429.317C885.747,429.276,885.67,426.27,887.572,425.862C889.473,425.455,893.354,427.645,895.347,428.827C897.34,430.009,897.445,430.182,896.586,430.797C895.728,431.413,893.906,432.472,894.766,433.059C895.626,433.646,899.168,433.762,902.402,433.688C905.636,433.614,908.561,433.351,910.419,432.492C912.278,431.634,913.068,430.181,914.256,429.67C915.445,429.159,917.031,429.59,918.582,429.704C920.133,429.818,921.648,429.614,922.302,429.743C922.956,429.872,922.748,430.332,923.123,430.76C923.498,431.188,924.456,431.584,925.559,431.621C926.661,431.659,927.909,431.339,929.506,431.462C931.103,431.585,933.05,432.152,933.976,431.991C934.903,431.829,934.809,430.94,935.124,430.969C935.439,430.999,936.162,431.947,936.732,431.529C937.301,431.112,937.718,429.33,938.497,428.976C939.277,428.622,940.42,429.697,941.313,430.13C942.207,430.562,942.852,430.351,943.46,428.593C944.067,426.834,944.636,423.527,947.311,424.412C949.985,425.296,954.764,430.371,957.198,432.686C959.633,435,959.722,434.553,960.861,433.716C962,432.878,964.189,431.65,965.871,430.519C967.554,429.389,968.73,428.356,968.116,427.561C967.502,426.767,965.097,426.212,967.165,427.123C969.233,428.035,975.772,430.414,978.628,430.217C981.484,430.021,980.655,427.249,979.97,425.144C979.285,423.039,978.744,421.601,977.786,420.542C976.829,419.484,975.455,418.805,975.634,418.686C975.812,418.567,977.543,419.009,976.04,418.24C974.537,417.471,969.801,415.491,966.765,415.857C963.73,416.222,962.395,418.932,960.708,421.386C959.02,423.841,956.981,426.039,955.1,425.646C953.22,425.253,951.498,422.268,950.189,420.478C948.879,418.688,947.983,418.092,947.399,417.433C946.814,416.775,946.541,416.053,945.341,416.522C944.141,416.991,942.013,418.65,940.703,418.639C939.393,418.629,938.901,416.95,937.712,416.7C936.523,416.451,934.638,417.632,932.703,419.615C930.768,421.597,928.783,424.38,926.954,425.939C925.125,427.499,923.452,427.834,921.669,425.382C919.887,422.931,917.995,417.691,915.349,416.782C912.702,415.872,909.301,419.292,907.972,421.774C906.642,424.255,907.384,425.799,905.473,425.014C903.562,424.23,898.997,421.118,896.331,419.808C893.666,418.499,892.9,418.993,891.059,419.213C889.217,419.433,886.3,419.379,884.887,418.787C883.474,418.195,883.564,417.064,882.539,416.817C881.514,416.569,879.374,417.205,877.79,417.814C876.205,418.422,875.177,419.004,875.638,420.266C876.1,421.528,878.051,423.47,876.328,422.648C874.604,421.827,869.206,418.243,864.771,417.03C860.335,415.818,856.862,416.978,854.063,418.285C851.263,419.592,849.139,421.046,848.381,421.473C847.624,421.901,848.233,421.303,849.11,420.712C849.986,420.122,851.129,419.539,848.559,418.823C845.989,418.107,839.707,417.259,835.453,417.168C831.199,417.078,828.974,417.745,827.947,417.876C826.919,418.007,827.089,417.6,825.826,417.531C824.564,417.462,821.868,417.73,820.441,418.177C819.014,418.624,818.856,419.25,817.495,419.884C816.135,420.519,813.571,421.162,811.082,421.776C808.593,422.39,806.178,422.976,804.907,422.948C803.637,422.921,803.511,422.28,803.621,420.936C803.731,419.591,804.076,417.542,804.055,417.919C804.034,418.295,803.647,421.096,801.208,422.672C798.77,424.248,794.28,424.598,790.742,423.252C787.204,421.906,784.616,418.864,783.672,418.197C782.728,417.531,783.427,419.24,781.477,419.917C779.527,420.593,774.927,420.236,773.09,419.969C771.253,419.703,772.178,419.526,771.641,419.572C771.104,419.617,769.106,419.885,767.562,420.106C766.018,420.328,764.927,420.504,763.674,419.702C762.421,418.9,761.006,417.12,760.103,415.864C759.2,414.607,758.81,413.875,757.001,415.63C755.192,417.384,751.964,421.625,749.224,422.748C746.484,423.87,744.232,421.872,743.724,420.212C743.215,418.552,744.45,417.228,742.803,417.437C741.155,417.645,736.626,419.386,734.317,420.814C732.008,422.243,731.92,423.36,730.582,423.541C729.245,423.723,726.658,422.968,724.296,423.068C721.934,423.168,719.798,424.123,717.608,423.21C715.418,422.297,713.176,419.517,712.937,419.201C712.698,418.885,714.462,421.033,712.439,422.139C710.416,423.246,704.606,423.31,701.645,422.548C698.685,421.785,698.576,420.196,698.366,420.049C698.157,419.901,697.848,421.195,697.395,422.359C696.942,423.523,696.344,424.558,694.641,425.635C692.938,426.711,690.13,427.828,687.245,427.324C684.361,426.82,681.399,424.694,680.632,422.254C679.866,419.813,681.295,417.059,677.939,416.483C674.583,415.907,666.443,417.509,661.727,419.492C657.01,421.475,655.717,423.84,654.607,423.131C653.496,422.423,652.568,418.641,651.179,417.573C649.789,416.505,647.939,418.151,645.724,419.653C643.51,421.156,640.931,422.517,639.81,421.794C638.688,421.071,639.024,418.265,639.075,418.062C639.125,417.859,638.89,420.258,635.855,421.411C632.82,422.563,626.985,422.468,622.655,421.617C618.324,420.765,615.499,419.158,614.949,419.562C614.4,419.965,616.126,422.38,614.561,422.632C612.997,422.884,608.14,420.973,606.316,419.153C604.492,417.334,605.701,415.606,604.461,415.818C603.22,416.03,599.532,418.182,598.337,419.3C597.143,420.418,598.444,420.503,597.997,420.644C597.551,420.786,595.357,420.983,595.143,421.137C594.929,421.292,596.694,421.402,594.948,422.257C593.203,423.111,587.947,424.708,583.472,423.094C578.996,421.48,575.301,416.654,572.08,415.608C568.858,414.562,566.111,417.297,564.85,418.854C563.59,420.411,563.816,420.791,564.174,420.178C564.532,419.565,565.022,417.958,563.595,417.807C562.168,417.657,558.824,418.962,558.511,419.21C558.198,419.458,560.917,418.648,560.362,419.204C559.807,419.759,555.98,421.68,552.19,421.371C548.4,421.061,544.648,418.521,542.908,417.938C541.167,417.355,541.44,418.73,539.841,419.426C538.242,420.123,534.771,420.141,533.434,419.155C532.097,418.168,532.892,416.176,533,417.337C533.107,418.497,532.526,422.811,529.942,423.805C527.358,424.799,522.771,422.473,518.957,421.474C515.143,420.475,512.103,420.803,510.407,421.054C508.71,421.305,508.358,421.48,507.561,420.052C506.764,418.624,505.522,415.594,503.725,415.373C501.927,415.152,499.573,417.74,499.009,418.297C498.445,418.853,499.671,417.377,498.229,417.535C496.786,417.693,492.675,419.484,490.222,420.675C487.769,421.866,486.973,422.457,486.011,423.545C485.05,424.632,483.923,426.216,483.811,425.974C483.699,425.732,484.602,423.663,482.351,421.037C480.101,418.411,474.699,415.228,470.102,415.117C465.505,415.006,461.715,417.968,459.816,419.314C457.916,420.661,457.908,420.392,457.874,420.175C457.841,419.959,457.781,419.794,457.772,419.912C457.762,420.03,457.802,420.431,458.496,420.926C459.19,421.421,460.538,422.01,459.122,421.211C457.706,420.412,453.525,418.224,450.668,417.964C447.811,417.704,446.278,419.371,445.583,421.168C444.888,422.966,445.033,424.894,443.573,423.505C442.113,422.117,439.048,417.413,436.424,417.391C433.8,417.37,431.617,422.032,429.129,422.885C426.641,423.738,423.849,420.781,422.591,419.063C421.333,417.345,421.609,416.865,420.743,416.616C419.878,416.367,417.871,416.349,415.585,416.632C413.299,416.914,410.734,417.497,408.388,418.764C406.042,420.03,403.915,421.981,401.674,423.324C399.433,424.666,397.076,425.401,395.434,426.212C393.791,427.023,392.862,427.91,390.367,425.429C387.872,422.948,383.811,417.099,381.183,414.457C378.554,411.815,377.357,412.38,375.51,415.07C373.664,417.759,371.168,422.571,367.71,424.618C364.251,426.665,359.83,425.946,357.496,424.461C355.163,422.976,354.917,420.724,354.278,419.611C353.64,418.499,352.609,418.525,351.668,419.732C350.727,420.939,349.877,423.326,347.306,423.01C344.736,422.693,340.445,419.673,337.675,419.719C334.905,419.764,333.656,422.876,332.429,423.184C331.203,423.491,329.998,420.994,329.454,421.17C328.909,421.346,329.025,424.194,329.083,425.618L329.141,427.042"></path><path fill="none" stroke-width="1" style="stroke: rgb(0, 71, 171);" d="M6.528,500L6.658,498.117C6.788,496.234,7.047,492.468,7.317,488.672C7.587,484.876,7.868,481.05,8.496,478.791C9.123,476.532,10.098,475.838,11.245,473.152C12.392,470.467,13.712,465.788,13.971,462.537C14.229,459.285,13.426,457.459,14.817,454.332C16.208,451.205,19.792,446.776,22.691,445.055C25.589,443.333,27.801,444.32,29.314,444.273C30.828,444.226,31.642,443.146,32.721,442.32C33.8,441.494,35.143,440.922,35.388,441.728C35.632,442.534,34.778,444.718,35.915,445.067C37.052,445.417,40.18,443.934,42.347,442.841C44.514,441.748,45.72,441.046,47.02,441.68C48.32,442.315,49.714,444.286,51.378,443.752C53.041,443.217,54.973,440.178,54.983,439.28C54.992,438.382,53.081,439.625,54.467,440.007C55.854,440.388,60.539,439.908,62.95,439.558C65.361,439.207,65.499,438.987,66.177,439.088C66.855,439.189,68.074,439.611,69.737,440.357C71.401,441.103,73.508,442.174,74.364,441.524C75.22,440.873,74.825,438.502,74.942,437.303C75.06,436.105,75.691,436.081,76.942,437.149C78.194,438.217,80.067,440.378,82.516,441.433C84.964,442.488,87.987,442.436,90.244,442.801C92.501,443.166,93.99,443.947,95.716,443.455C97.442,442.964,99.404,441.2,99.174,439.41C98.944,437.621,96.521,435.805,98.048,435.796C99.574,435.786,105.049,437.583,107.31,440.104C109.57,442.625,108.617,445.87,111.182,447.025C113.747,448.18,119.83,447.244,124.482,444.821C129.134,442.398,132.355,438.488,134.693,437.044C137.031,435.6,138.486,436.621,139.277,437.562C140.067,438.503,140.194,439.363,139.875,441.08C139.556,442.796,138.792,445.369,140.624,445.332C142.457,445.295,146.885,442.648,147.79,441.919C148.694,441.191,146.075,442.381,147.642,442.372C149.209,442.363,154.963,441.156,157.577,441.156C160.19,441.157,159.664,442.364,158.925,443.12C158.187,443.876,157.236,444.18,159.7,443.649C162.163,443.118,168.039,441.751,171.749,441.759C175.458,441.767,177.001,443.15,177.144,443.85C177.288,444.55,176.032,444.568,177.526,443.766C179.019,442.963,183.261,441.34,185.599,441.082C187.936,440.823,188.368,441.93,187.838,441.483C187.308,441.035,185.816,439.032,188.474,439.275C191.131,439.518,197.938,442.006,201.387,443.521C204.836,445.035,204.927,445.575,205.536,444.126C206.144,442.677,207.269,439.239,208.674,438.835C210.08,438.431,211.765,441.061,215.783,442.025C219.8,442.99,226.15,442.289,228.624,442.614C231.098,442.939,229.696,444.289,231.294,443.361C232.893,442.433,237.492,439.227,240.741,439.082C243.991,438.937,245.89,441.854,248.041,442.688C250.193,443.522,252.595,442.272,254.376,442.633C256.156,442.994,257.314,444.964,258.577,444.796C259.84,444.627,261.209,442.32,263.044,441.237C264.879,440.153,267.18,440.295,268.476,440.03C269.772,439.765,270.062,439.094,269.263,440.013C268.464,440.932,266.576,443.441,268.201,443.355C269.826,443.269,274.964,440.588,277.581,439.387C280.198,438.185,280.295,438.464,280.866,438.538C281.437,438.612,282.483,438.481,283.999,439.023C285.515,439.566,287.502,440.782,289.814,441.154C292.126,441.525,294.762,441.052,296.334,440.662C297.906,440.273,298.414,439.967,298.814,440.04C299.214,440.113,299.506,440.564,299.984,441.408C300.462,442.251,301.125,443.486,301.366,444.423C301.608,445.36,301.428,446,303.929,444.738C306.431,443.477,311.615,440.315,314.279,439.137C316.943,437.959,317.087,438.765,317.759,439.506C318.431,440.247,319.631,440.923,319.95,439.884C320.27,438.845,319.709,436.091,321.035,436.506C322.361,436.921,325.575,440.504,328,441.677C330.426,442.85,332.062,441.611,332.936,440.912C333.81,440.213,333.922,440.053,333.725,439.886C333.528,439.719,333.024,439.544,332.642,440.023C332.261,440.502,332.003,441.635,334.7,442.049C337.397,442.462,343.051,442.158,344.657,440.889C346.263,439.621,343.822,437.389,345.073,436.875C346.323,436.361,351.265,437.564,353.838,438.599C356.412,439.634,356.616,440.5,357.418,441.327C358.22,442.153,359.619,442.941,361.801,443.429C363.984,443.917,366.95,444.106,368.548,444.283C370.146,444.46,370.377,444.627,372.325,442.404C374.273,440.181,377.938,435.569,379.635,435.961C381.332,436.353,381.06,441.748,383.123,442.852C385.187,443.956,389.587,440.769,393.061,438.193C396.535,435.617,399.084,433.652,401.148,433.547C403.211,433.442,404.79,435.197,406.134,437.06C407.479,438.923,408.589,440.895,410.276,441.673C411.963,442.452,414.227,442.036,416.915,441.636C419.604,441.236,422.717,440.851,423.623,441.574C424.529,442.297,423.228,444.128,425.396,443.547C427.565,442.966,433.204,439.973,436.162,438.974C439.121,437.975,439.398,438.97,439.485,439.645C439.572,440.32,439.467,440.676,440.113,439.794C440.76,438.911,442.157,436.791,443.718,436.66C445.278,436.529,447.002,438.388,447.613,438.088C448.224,437.788,447.723,435.329,449.304,434.749C450.885,434.17,454.547,435.47,456.187,437.031C457.827,438.592,457.444,440.415,458.332,440.948C459.221,441.481,461.381,440.726,462.732,439.623C464.084,438.519,464.626,437.069,465.693,438.047C466.76,439.024,468.351,442.43,469.424,443.104C470.497,443.779,471.051,441.721,472.335,439.638C473.618,437.555,475.63,435.447,477.073,434.31C478.516,433.173,479.39,433.007,481.801,435.16C484.212,437.314,488.16,441.788,491.103,442.852C494.045,443.915,495.982,441.569,498.328,440.391C500.674,439.214,503.428,439.205,504.194,440.503C504.959,441.801,503.734,444.405,505.852,444.922C507.97,445.439,513.431,443.868,517.179,443.326C520.927,442.785,522.963,443.272,524.36,444.198C525.757,445.123,526.515,446.487,528.627,444.41C530.739,442.332,534.205,436.814,536.18,435.391C538.156,433.968,538.642,436.641,539.871,437.333C541.101,438.024,543.074,436.734,544.993,435.965C546.912,435.196,548.777,434.948,551.202,436.031C553.628,437.114,556.614,439.529,557.538,439.918C558.462,440.307,557.324,438.669,558.648,438.101C559.971,437.533,563.757,438.035,564.538,438.77C565.32,439.506,563.098,440.474,564.301,440.748C565.504,441.021,570.131,440.599,572.923,440.313C575.714,440.027,576.668,439.876,576.99,438.776C577.312,437.676,577.002,435.626,578.912,436.595C580.822,437.564,584.953,441.552,588.123,441.346C591.293,441.141,593.502,436.741,595.577,435.308C597.652,433.875,599.592,435.409,600.142,437.292C600.692,439.176,599.85,441.409,600.829,440.456C601.809,439.503,604.609,435.364,607.659,434.467C610.71,433.569,614.011,435.912,616.794,438.681C619.578,441.451,621.844,444.647,624.021,445.201C626.198,445.755,628.285,443.667,629.384,442.434C630.484,441.201,630.596,440.822,631.607,440.615C632.618,440.408,634.528,440.373,636.211,439.565C637.894,438.757,639.349,437.176,640.044,436.147C640.738,435.117,640.672,434.64,642.057,435.338C643.443,436.036,646.279,437.91,648.019,437.67C649.758,437.429,650.4,435.075,652.255,434.237C654.11,433.4,657.178,434.079,658.328,435.326C659.478,436.573,658.709,438.388,661.484,439.296C664.258,440.204,670.576,440.204,673.681,439.923C676.786,439.642,676.678,439.08,675.541,439.098C674.404,439.116,672.239,439.713,674.863,441.109C677.487,442.505,684.899,444.699,689.49,444.048C694.08,443.397,695.849,439.902,696.544,439.882C697.239,439.863,696.86,443.318,698.267,444.697C699.674,446.077,702.867,445.38,705.425,443.767C707.984,442.154,709.909,439.626,711.772,440.175C713.635,440.724,715.435,444.351,717.605,443.744C719.775,443.138,722.314,438.298,724.444,436.935C726.575,435.571,728.298,437.685,728.398,438.066C728.499,438.448,726.978,437.099,727.184,436.596C727.39,436.094,729.324,436.439,733.522,436.19C737.72,435.942,744.183,435.1,747.934,435.386C751.684,435.672,752.722,437.085,754.635,437.156C756.549,437.227,759.337,435.954,762.449,436.231C765.56,436.507,768.994,438.333,770.286,438.406C771.578,438.478,770.728,436.797,772.835,437.702C774.942,438.606,780.006,442.097,782.891,442.934C785.776,443.771,786.483,441.955,787.13,440.732C787.777,439.509,788.365,438.88,788.461,437.583C788.558,436.285,788.165,434.32,790.038,433.684C791.911,433.047,796.052,433.74,798.466,435.613C800.879,437.485,801.567,440.537,802.838,441.237C804.11,441.938,805.966,440.288,807.428,438.801C808.889,437.315,809.956,435.991,811.298,436.259C812.64,436.527,814.256,438.387,814.448,439.533C814.64,440.678,813.407,441.111,814.1,442.168C814.794,443.225,817.415,444.908,819.865,444.686C822.316,444.464,824.597,442.338,825.756,440.981C826.915,439.624,826.952,439.036,827.478,439.787C828.005,440.538,829.021,442.628,830.073,442.885C831.124,443.143,832.212,441.567,833.344,441.501C834.476,441.435,835.653,442.878,836.533,442.771C837.413,442.663,837.997,441.004,837.485,440.069C836.973,439.134,835.365,438.922,835.119,439.51C834.873,440.098,835.989,441.486,839.267,441.796C842.546,442.106,847.987,441.337,850.719,442.016C853.451,442.696,853.474,444.824,855.1,444.763C856.727,444.702,859.956,442.452,861.917,441.506C863.878,440.56,864.571,440.917,866.511,440.115C868.45,439.312,871.636,437.349,872.425,436.758C873.213,436.167,871.604,436.948,872.87,437.8C874.137,438.652,878.278,439.575,880.736,441.476C883.194,443.376,883.968,446.254,885.568,445.825C887.168,445.397,889.593,441.662,892.317,440.901C895.042,440.139,898.065,442.352,900.694,442.142C903.323,441.932,905.558,439.299,907.881,437.755C910.203,436.212,912.614,435.759,913.261,436.383C913.907,437.008,912.788,438.712,914.125,439.821C915.462,440.929,919.255,441.444,921.542,442.602C923.83,443.761,924.613,445.563,926.683,445.716C928.753,445.869,932.109,444.372,933.449,442.393C934.788,440.414,934.11,437.952,935.979,437.478C937.847,437.003,942.262,438.515,943.853,438.631C945.444,438.748,944.212,437.47,944.516,437.113C944.819,436.757,946.658,437.323,948.839,437.675C951.02,438.028,953.544,438.167,955.823,438.452C958.103,438.736,960.14,439.165,961.067,440.9C961.994,442.635,961.812,445.676,963.324,446.653C964.837,447.63,968.044,446.544,970.481,444.914C972.918,443.284,974.585,441.111,976.149,440.02C977.712,438.929,979.172,438.92,979.702,437.187C980.233,435.454,979.834,431.996,979.068,431.081C978.302,430.166,977.169,431.794,977.135,431.42C977.102,431.047,978.169,428.673,976.704,427.54C975.239,426.407,971.242,426.516,969.443,428.619C967.645,430.723,968.046,434.821,966.187,435.753C964.328,436.686,960.208,434.453,957.327,433.559C954.446,432.666,952.803,433.113,950.672,431.613C948.541,430.112,945.922,426.664,942.884,427.222C939.847,427.78,936.391,432.344,935.34,432.57C934.29,432.795,935.645,428.682,934.015,427.73C932.385,426.778,927.769,428.988,925.299,429.495C922.829,430.003,922.505,428.809,921.125,428.638C919.746,428.467,917.311,429.319,916.077,429.262C914.844,429.205,914.812,428.238,914.381,427.502C913.949,426.766,913.118,426.26,911.936,426.768C910.754,427.275,909.222,428.796,909.017,429.628C908.813,430.46,909.936,430.602,908.948,430.512C907.96,430.423,904.861,430.101,903.87,431.445C902.879,432.788,903.995,435.798,902.513,435.868C901.031,435.938,896.95,433.068,894.255,432.129C891.559,431.189,890.249,432.181,889.494,432.055C888.739,431.928,888.539,430.684,888.041,429.906C887.543,429.127,886.747,428.813,885.255,428.167C883.764,427.521,881.577,426.543,881.204,426.013C880.83,425.483,882.27,425.402,881.645,425.248C881.02,425.095,878.33,424.87,875.549,424.194C872.768,423.519,869.896,422.394,864.763,422.743C859.629,423.092,852.235,424.915,848.3,426.294C844.364,427.674,843.889,428.611,842.207,429.616C840.525,430.621,837.636,431.694,835.588,432.803C833.54,433.913,832.333,435.06,831.708,434.993C831.082,434.926,831.038,433.644,830.209,431.228C829.379,428.812,827.764,425.261,824.634,423.605C821.504,421.95,816.859,422.191,813.416,423.562C809.974,424.933,807.733,427.434,806.828,428.994C805.922,430.555,806.353,431.175,804.668,431.511C802.983,431.847,799.184,431.899,797.232,431.772C795.281,431.644,795.178,431.337,795.23,429.684C795.282,428.032,795.489,425.033,794.181,423.234C792.872,421.436,790.049,420.836,785.887,421.715C781.724,422.593,776.222,424.949,772.975,426.437C769.728,427.925,768.735,428.544,767.971,429.245C767.207,429.946,766.671,430.729,765.47,431.131C764.268,431.534,762.4,431.556,761.35,431.121C760.301,430.685,760.069,429.792,760.369,430.133C760.668,430.473,761.498,432.048,759.977,432.548C758.457,433.049,754.585,432.476,751.81,432.678C749.034,432.881,747.356,433.859,745.857,434.204C744.357,434.548,743.038,434.258,742.235,433.469C741.432,432.68,741.147,431.392,741.591,430.686C742.036,429.98,743.21,429.855,740.694,428.816C738.178,427.776,731.971,425.822,728.191,425.2C724.411,424.577,723.058,425.286,721.95,426.26C720.842,427.235,719.979,428.474,720.579,429.175C721.18,429.877,723.244,430.04,722.221,431.116C721.198,432.192,717.088,434.182,712.538,434.599C707.989,435.017,703,433.862,700.052,432.698C697.103,431.534,696.194,430.361,695.893,431.159C695.591,431.957,695.897,434.727,694.663,435.357C693.43,435.988,690.657,434.48,689.707,432.525C688.757,430.571,689.629,428.169,687.986,427.508C686.343,426.847,682.186,427.927,679.946,429.281C677.706,430.635,677.382,432.263,675.377,432.56C673.371,432.857,669.685,431.822,667.841,431.144C665.997,430.467,665.996,430.146,667.057,429.037C668.119,427.928,670.244,426.029,668.644,425.616C667.045,425.204,661.721,426.277,659.686,427.707C657.652,429.137,658.907,430.923,657.873,431.076C656.838,431.229,653.515,429.749,650.93,429.159C648.346,428.568,646.5,428.868,645.681,428.196C644.862,427.525,645.069,425.883,644.488,427.006C643.908,428.129,642.539,432.018,639.403,433.56C636.268,435.103,631.365,434.299,629.418,434.56C627.471,434.821,628.479,436.147,626.541,435.452C624.602,434.756,619.717,432.04,615.714,431.108C611.711,430.175,608.589,431.026,607.31,432.462C606.031,433.898,606.594,435.918,606.123,436.276C605.652,436.633,604.147,435.329,601.294,434.067C598.442,432.805,594.241,431.586,592.775,429.811C591.309,428.037,592.578,425.707,591.29,424.813C590.003,423.919,586.16,424.461,583.883,426.245C581.606,428.03,580.895,431.057,579.318,431.934C577.741,432.81,575.298,431.536,573.344,431.643C571.39,431.749,569.925,433.236,568.336,432.952C566.748,432.667,565.037,430.611,564.526,430.027C564.016,429.443,564.706,430.33,565.245,431.211C565.783,432.091,566.171,432.963,563.558,431.978C560.945,430.993,555.331,428.151,550.974,426.737C546.618,425.323,543.52,425.339,542.418,425.643C541.316,425.947,542.21,426.541,540.684,427.084C539.158,427.626,535.211,428.119,532.977,429.119C530.743,430.12,530.222,431.628,528.357,431.125C526.493,430.622,523.286,428.106,520.485,427.96C517.683,427.815,515.288,430.039,514.129,429.979C512.97,429.919,513.046,427.574,512.553,427.971C512.059,428.368,510.995,431.507,510.179,433.133C509.362,434.76,508.792,434.874,505.989,434.121C503.187,433.369,498.151,431.751,495.219,432.086C492.288,432.421,491.46,434.709,490.157,434.722C488.855,434.735,487.078,432.473,485.65,431.366C484.222,430.26,483.143,430.309,482.752,430.579C482.362,430.85,482.659,431.341,481.936,431.712C481.214,432.082,479.471,432.331,477.491,431.68C475.51,431.03,473.293,429.479,472.472,428.807C471.651,428.136,472.226,428.344,471.547,429.277C470.868,430.21,468.935,431.869,468.058,433.53C467.182,435.192,467.363,436.855,465.733,436.542C464.104,436.228,460.664,433.936,459.308,432.082C457.953,430.229,458.683,428.813,455.618,428.388C452.553,427.963,445.693,428.529,442.122,429.382C438.551,430.234,438.269,431.374,438.635,431.416C439,431.458,440.013,430.401,439.879,429.998C439.746,429.595,438.465,429.846,434.24,429.994C430.015,430.141,422.846,430.186,419.161,428.726C415.477,427.266,415.278,424.303,413.747,424.239C412.217,424.175,409.354,427.01,407.846,429.016C406.337,431.023,406.183,432.201,405.728,432.582C405.273,432.964,404.518,432.549,403.502,432.12C402.487,431.691,401.211,431.248,400.51,430.872C399.809,430.496,399.682,430.186,401.031,430.598C402.38,431.011,405.204,432.144,403.867,432.354C402.53,432.564,397.033,431.85,393.567,430.456C390.101,429.061,388.667,426.985,386.966,426.339C385.265,425.693,383.298,426.476,381.958,426.415C380.618,426.354,379.906,425.448,380.148,426.026C380.39,426.604,381.586,428.666,379.272,428.628C376.957,428.589,371.132,426.45,367.387,427.829C363.642,429.209,361.977,434.107,360.846,436.21C359.716,438.313,359.121,437.621,355.564,437.685C352.007,437.75,345.488,438.57,340.717,437.607C335.945,436.645,332.92,433.899,331.818,432.601C330.715,431.303,331.535,431.454,330.901,431.918C330.267,432.382,328.18,433.159,326.56,431.686C324.941,430.214,323.79,426.492,321.781,426.578C319.772,426.665,316.905,430.56,313.582,432.387C310.258,434.214,306.479,433.973,303.17,433.195C299.861,432.418,297.021,431.105,295.506,429.91C293.991,428.715,293.8,427.639,293.585,426.868C293.371,426.097,293.133,425.632,290.615,425.962C288.098,426.293,283.3,427.42,279.765,427.631C276.229,427.842,273.956,427.137,272.14,427.192C270.325,427.247,268.966,428.062,267.584,428.716C266.201,429.37,264.794,429.863,264.297,430.353C263.799,430.843,264.212,431.33,263.94,431.253C263.668,431.175,262.712,430.533,261.535,430.135C260.357,429.737,258.959,429.584,259.157,430.378C259.356,431.173,261.151,432.915,261.472,433.545C261.793,434.176,260.639,433.695,257.044,431.604C253.45,429.514,247.414,425.814,242.843,424.845C238.273,423.876,235.169,425.638,234.328,427.891C233.487,430.144,234.909,432.888,232.691,432.678C230.473,432.467,224.613,429.302,222.303,428.592C219.992,427.883,221.23,429.629,220.387,428.687C219.543,427.744,216.618,424.113,212.608,425.228C208.599,426.343,203.505,432.205,200.247,434.024C196.99,435.844,195.571,433.622,194.411,432.416C193.251,431.211,192.352,431.023,191.847,431.126C191.343,431.23,191.233,431.625,190.353,431.222C189.473,430.819,187.822,429.618,186.25,429.256C184.677,428.894,183.183,429.371,183.737,428.876C184.29,428.381,186.891,426.915,185.252,426.946C183.613,426.976,177.735,428.503,174.941,429.313C172.148,430.122,172.44,430.214,172.035,429.771C171.631,429.327,170.531,428.348,169.217,427.141C167.903,425.933,166.375,424.496,163.995,426.299C161.616,428.102,158.385,433.145,155.568,434.784C152.751,436.424,150.348,434.66,149.15,433.274C147.953,431.888,147.961,430.879,147.341,431.987C146.721,433.094,145.473,436.319,142.992,436.21C140.51,436.101,136.794,432.659,135.826,432.001C134.859,431.344,136.64,433.472,135.24,433.737C133.84,434.002,129.26,432.404,127.81,431.517C126.36,430.63,128.041,430.454,126.919,430.204C125.797,429.954,121.871,429.63,120.129,429.502C118.387,429.374,118.828,429.443,118.308,429.456C117.789,429.469,116.308,429.425,115.002,429.81C113.696,430.195,112.564,431.01,111.498,430.755C110.432,430.501,109.433,429.178,109.724,428.768C110.016,428.358,111.598,428.862,111.889,429.018C112.179,429.175,111.179,428.984,107.929,429.125C104.679,429.265,99.179,429.736,96.947,429.78C94.716,429.825,95.752,429.443,94.98,427.778C94.208,426.114,91.628,423.169,89.096,422.906C86.564,422.644,84.08,425.064,81.824,426.047C79.568,427.03,77.539,426.576,76.105,427.024C74.67,427.473,73.831,428.825,73.488,429.96C73.145,431.095,73.3,432.013,72.448,430.367C71.597,428.722,69.739,424.513,66.146,424.539C62.552,424.565,57.223,428.826,55.718,430.233C54.212,431.641,56.53,430.195,54.959,430.165C53.388,430.135,47.929,431.522,44.827,431.798C41.725,432.075,40.98,431.242,40.741,432.376C40.501,433.51,40.767,436.611,39.218,436.416C37.668,436.22,34.304,432.727,32.386,431.077C30.468,429.426,29.997,429.618,28.379,429.825C26.761,430.033,23.997,430.256,22.131,429.688C20.265,429.121,19.297,427.763,17.217,426.868C15.137,425.973,11.944,425.54,14.653,423.136C17.363,420.732,25.973,416.355,30.189,414.1C34.404,411.846,34.225,411.712,34.109,411.154C33.992,410.596,33.939,409.613,35.108,409.515C36.277,409.417,38.668,410.204,38.628,410.184C38.588,410.164,36.115,409.336,37.817,408.943C39.519,408.55,45.395,408.591,48.848,408.956C52.301,409.321,53.331,410.011,54.196,409.546C55.061,409.082,55.76,407.464,56.408,407.297C57.055,407.13,57.649,408.414,59.272,409.541C60.894,410.668,63.545,411.638,64.374,410.312C65.203,408.987,64.211,405.366,65.193,405.651C66.176,405.937,69.134,410.128,71.249,412.462C73.364,414.797,74.636,415.273,77.96,414.117C81.284,412.961,86.661,410.172,89.639,409.977C92.617,409.782,93.197,412.18,92.951,412.405C92.705,412.63,91.633,410.681,93.906,410.397C96.178,410.113,101.795,411.493,105.783,411.829C109.772,412.166,112.132,411.459,113.287,410.886C114.441,410.312,114.389,409.871,114.625,408.256C114.862,406.641,115.386,403.851,116.548,403.543C117.709,403.234,119.508,405.406,121.66,405.333C123.812,405.259,126.318,402.94,128.951,404.732C131.585,406.524,134.348,412.427,138.402,413.55C142.457,414.674,147.804,411.018,150.439,409.617C153.075,408.215,152.999,409.067,153.039,409.683C153.078,410.298,153.234,410.678,153.605,411.976C153.976,413.274,154.563,415.491,155.481,416.799C156.399,418.106,157.647,418.502,160.598,416.951C163.549,415.399,168.203,411.899,171.288,410.222C174.372,408.546,175.889,408.694,177.289,408.713C178.69,408.732,179.975,408.623,182.099,409.126C184.224,409.628,187.187,410.744,188.689,411.035C190.191,411.326,190.231,410.794,189.928,410.861C189.626,410.927,188.982,411.593,189.522,413.006C190.062,414.419,191.786,416.58,193.578,415.201C195.371,413.822,197.231,408.903,198.685,408.004C200.14,407.105,201.188,410.226,203.679,410.876C206.169,411.525,210.102,409.704,214.325,408.921C218.549,408.138,223.063,408.394,225.343,408.825C227.624,409.256,227.671,409.864,227.741,410.39C227.812,410.916,227.906,411.361,229.29,409.996C230.674,408.632,233.347,405.457,234.496,406.145C235.644,406.832,235.267,411.382,237.009,413.142C238.752,414.902,242.613,413.871,245.812,413.275C249.011,412.68,251.547,412.52,251.545,412.206C251.544,411.892,249.005,411.424,250.604,411.359C252.203,411.295,257.939,411.633,261.019,411.431C264.099,411.23,264.522,410.488,264.833,410.294C265.144,410.1,265.344,410.454,264.624,411.255C263.905,412.056,262.268,413.304,263.042,412.952C263.817,412.599,267.003,410.646,270.728,411.25C274.453,411.855,278.717,415.017,282.294,413.947C285.87,412.877,288.759,407.576,290.589,406.555C292.418,405.535,293.189,408.795,294.602,409.096C296.016,409.398,298.073,406.741,298.707,406.76C299.34,406.779,298.551,409.473,301.693,409.355C304.835,409.236,311.908,406.303,314.67,405.063C317.433,403.822,315.885,404.274,318.058,404.764C320.232,405.255,326.127,405.783,328.053,406.319C329.979,406.855,327.935,407.4,330.588,407.716C333.24,408.032,340.588,408.12,344.609,408.638C348.629,409.156,349.323,410.105,350.46,410.223C351.598,410.341,353.179,409.629,355.096,410.202C357.014,410.775,359.269,412.633,359.389,412.778C359.51,412.924,357.496,411.357,359.246,410.345C360.995,409.334,366.507,408.878,369.963,407.792C373.418,406.706,374.817,404.989,377.318,406.422C379.82,407.856,383.423,412.44,384.812,413.599C386.201,414.757,385.375,412.49,386.011,410.671C386.648,408.853,388.746,407.482,390.444,406.7C392.142,405.918,393.438,405.726,395.239,406.846C397.04,407.966,399.346,410.398,403.056,411.145C406.767,411.892,411.882,410.952,415.842,410.487C419.802,410.022,422.607,410.032,423.018,409.79C423.429,409.549,421.447,409.056,422.504,409.848C423.561,410.64,427.658,412.716,429.682,412.304C431.706,411.892,431.657,408.992,433.96,408.267C436.263,407.542,440.918,408.991,443.451,411.287C445.984,413.582,446.395,416.724,448.527,417.45C450.659,418.176,454.513,416.487,457.403,415.254C460.293,414.022,462.219,413.246,464.104,413.89C465.99,414.535,467.834,416.6,470.467,416.24C473.101,415.88,476.523,413.095,477.339,411.759C478.155,410.423,476.365,410.537,476.695,410.671C477.026,410.804,479.477,410.956,483.169,411.568C486.862,412.18,491.795,413.251,494.437,413.701C497.078,414.15,497.428,413.977,498.309,413.752C499.19,413.527,500.602,413.251,503.296,412.244C505.99,411.237,509.967,409.499,511.649,408.928C513.331,408.358,512.719,408.955,513.934,408.889C515.149,408.823,518.19,408.094,519.125,407.75C520.061,407.406,518.891,407.446,519.285,406.85C519.679,406.254,521.638,405.022,524.389,406.211C527.139,407.4,530.682,411.01,534.322,412.452C537.963,413.894,541.7,413.168,542.54,412.227C543.379,411.286,541.32,410.13,542.675,409.52C544.029,408.91,548.798,408.845,552.079,410.369C555.36,411.892,557.153,415.005,558.097,415.114C559.041,415.224,559.136,412.332,561.058,411.089C562.981,409.846,566.731,410.253,567.861,410.603C568.991,410.952,567.502,411.245,568.856,410.302C570.21,409.359,574.407,407.18,576.979,407.004C579.551,406.828,580.497,408.655,581.514,408.934C582.532,409.214,583.619,407.946,584.233,407.703C584.847,407.46,584.986,408.243,584.828,409.145C584.669,410.046,584.212,411.067,583.823,410.895C583.434,410.723,583.114,409.359,586.528,408.776C589.943,408.192,597.092,408.389,599.983,409.614C602.873,410.839,601.506,413.094,603.056,412.019C604.606,410.945,609.075,406.541,610.813,406.112C612.551,405.683,611.56,409.229,613.705,411.167C615.851,413.105,621.133,413.435,623.914,412.605C626.695,411.776,626.975,409.788,629.655,408.854C632.335,407.92,637.416,408.041,639.847,408.701C642.277,409.362,642.059,410.562,642.476,410.996C642.892,411.43,643.944,411.098,644.619,410.972C645.294,410.846,645.593,410.926,646.283,409.386C646.973,407.845,648.054,404.684,649.633,404.446C651.211,404.208,653.286,406.894,654.96,409.365C656.633,411.837,657.905,414.094,660.462,413.785C663.019,413.475,666.862,410.599,668.418,409.264C669.974,407.929,669.243,408.134,670.905,409.633C672.567,411.133,676.622,413.927,679.219,413.143C681.815,412.36,682.953,407.999,684.096,406.475C685.239,404.951,686.387,406.264,688.774,406.069C691.162,405.874,694.79,404.171,697.737,404.845C700.685,405.519,702.952,408.57,704.007,409.206C705.062,409.843,704.905,408.067,705.176,409.397C705.447,410.727,706.146,415.164,708.936,415.612C711.725,416.059,716.604,412.516,718.446,410.493C720.287,408.471,719.089,407.969,718.839,408.004C718.588,408.04,719.285,408.612,721.849,408.812C724.413,409.011,728.845,408.837,732.357,408.512C735.87,408.187,738.463,407.712,739.944,408.695C741.426,409.678,741.796,412.119,742.67,412.932C743.545,413.745,744.924,412.931,746.469,412.195C748.015,411.46,749.727,410.802,750.666,410.199C751.604,409.595,751.769,409.046,752.624,409.468C753.479,409.89,755.024,411.284,755.595,411.259C756.166,411.234,755.763,409.789,756.739,408.198C757.715,406.607,760.069,404.869,763.323,404.871C766.577,404.874,770.731,406.617,773.094,407.182C775.457,407.746,776.029,407.133,776.097,407.244C776.164,407.356,775.727,408.191,777.076,408.928C778.425,409.665,781.56,410.304,781.543,410.363C781.525,410.422,778.356,409.902,781.06,409.521C783.764,409.141,792.341,408.899,797.625,409.982C802.909,411.065,804.899,413.471,806.192,412.772C807.485,412.073,808.08,408.269,809.334,407.396C810.587,406.523,812.499,408.582,813.238,409.953C813.976,411.324,813.542,412.006,812.865,411.875C812.187,411.743,811.268,410.796,812.507,411.124C813.746,411.453,817.143,413.055,821.913,412.251C826.684,411.447,832.828,408.237,836.576,407.519C840.324,406.801,841.676,408.576,843.203,409C844.73,409.424,846.431,408.498,846.874,407.134C847.316,405.769,846.499,403.966,847.657,405.143C848.814,406.319,851.946,410.474,854.559,411.656C857.171,412.838,859.265,411.047,860.536,410.302C861.807,409.557,862.255,409.859,862.922,410.212C863.589,410.566,864.475,410.97,866.403,410.828C868.33,410.686,871.3,409.997,873.056,409.871C874.812,409.746,875.355,410.185,875.549,409.554C875.743,408.923,875.589,407.222,876.069,408.52C876.55,409.819,877.667,414.118,878.856,414.793C880.044,415.468,881.305,412.519,883.733,411.212C886.162,409.906,889.757,410.243,891.68,410.536C893.602,410.829,893.85,411.078,895.199,411.011C896.547,410.944,898.996,410.561,902.057,410.443C905.118,410.325,908.792,410.473,910.914,411.335C913.036,412.197,913.606,413.774,914.662,413.627C915.717,413.48,917.259,411.609,918.943,410.898C920.627,410.187,922.454,410.635,923.734,410.651C925.013,410.667,925.745,410.25,926.911,408.998C928.077,407.747,929.676,405.66,929.877,405.608C930.077,405.556,928.879,407.539,929.452,408.926C930.026,410.314,932.371,411.107,935.748,411.22C939.124,411.334,943.532,410.767,946.058,411.441C948.584,412.116,949.229,414.032,949.29,412.862C949.352,411.693,948.83,407.438,950.176,405.353C951.522,403.269,954.736,403.355,958.957,405.04C963.179,406.725,968.408,410.009,971.699,411.228C974.991,412.447,976.344,411.6,977.063,411.026C977.783,410.452,977.868,410.149,977.533,408.99C977.198,407.831,976.442,405.814,977.205,405.827C977.969,405.839,980.251,407.881,981.507,406.474C982.762,405.066,982.992,400.21,982.966,396.565C982.941,392.921,982.66,390.489,981.706,386.392C980.751,382.295,979.123,376.533,977.476,374.588C975.828,372.643,974.161,374.516,972.36,376.722C970.558,378.927,968.622,381.465,967.229,382.702C965.836,383.94,964.986,383.877,963.222,383.086C961.459,382.295,958.782,380.775,956.775,380.224C954.769,379.672,953.432,380.089,952.651,380.182C951.87,380.276,951.644,380.046,952.124,380.288C952.604,380.531,953.79,381.245,953.598,379.791C953.406,378.336,951.836,374.714,948.456,374.413C945.077,374.113,939.887,377.135,936.01,377.764C932.132,378.394,929.566,376.63,926.904,376.196C924.241,375.763,921.482,376.658,919.664,378.197C917.846,379.736,916.968,381.918,916.199,382.556C915.43,383.194,914.769,382.289,914.063,381.855C913.357,381.421,912.606,381.459,911.782,380.96C910.957,380.462,910.059,379.428,910.186,378.718C910.314,378.007,911.466,377.62,910.49,377.608C909.514,377.597,906.411,377.96,904.902,377.516C903.392,377.072,903.478,375.821,902.418,375.72C901.358,375.62,899.152,376.67,897.638,377.702C896.125,378.733,895.302,379.745,894.259,380.333C893.216,380.921,891.951,381.085,891.205,380.983C890.458,380.882,890.23,380.514,890.101,380.248C889.973,379.981,889.945,379.816,890.308,379.87C890.671,379.923,891.425,380.195,890.287,380.914C889.15,381.633,886.12,382.798,883.189,381.924C880.257,381.05,877.423,378.137,875.741,377.144C874.059,376.151,873.528,377.078,873.236,379.12C872.945,381.161,872.892,384.318,871.683,383.712C870.474,383.106,868.108,378.736,864.589,378.431C861.069,378.125,856.396,381.883,852.857,383.912C849.319,385.94,846.914,386.24,846.333,384.959C845.751,383.679,846.993,380.818,844.313,380.301C841.632,379.784,835.029,381.611,831.334,383.084C827.639,384.557,826.852,385.677,824.66,385.739C822.468,385.801,818.872,384.805,816.682,383.279C814.491,381.753,813.707,379.697,811.893,380.109C810.078,380.522,807.233,383.403,806.274,383.542C805.315,383.682,806.242,381.081,804.976,379.04C803.71,376.999,800.251,375.518,798.001,375.395C795.75,375.272,794.708,376.507,793.099,377.344C791.489,378.18,789.312,378.618,788.218,378.503C787.125,378.388,787.115,377.721,787.24,377.156C787.366,376.591,787.627,376.13,786.978,376.664C786.329,377.198,784.77,378.727,781.541,379.448C778.313,380.169,773.415,380.081,770.764,379.869C768.113,379.657,767.71,379.321,767.533,379.117C767.356,378.913,767.406,378.843,767.161,378.425C766.916,378.008,766.376,377.244,765.142,376.104C763.908,374.965,761.979,373.451,758.974,373.222C755.969,372.994,751.886,374.052,750.005,375.077C748.123,376.102,748.443,377.095,748.638,378.381C748.833,379.667,748.904,381.247,746.559,381.31C744.214,381.373,739.453,379.918,735.829,379.345C732.205,378.772,729.718,379.081,728.285,378.903C726.851,378.725,726.471,378.059,725.774,378.499C725.076,378.94,724.06,380.487,724.611,380.413C725.161,380.34,727.276,378.646,726.141,379.167C725.005,379.689,720.619,382.426,717.262,381.834C713.904,381.242,711.575,377.321,709.171,376.468C706.766,375.615,704.286,377.83,703.808,379.215C703.33,380.6,704.854,381.155,703.868,381.152C702.882,381.148,699.387,380.586,698.681,381.528C697.975,382.469,700.057,384.913,698.66,383.425C697.264,381.936,692.388,376.516,689.512,375.065C686.635,373.615,685.756,376.134,682.845,379.024C679.934,381.915,674.991,385.177,670.864,385.194C666.736,385.212,663.426,381.984,661.031,380.441C658.636,378.897,657.157,379.039,656.343,379.964C655.529,380.889,655.38,382.599,654.821,383.181C654.263,383.764,653.296,383.22,650.579,382.88C647.862,382.541,643.396,382.407,641.326,380.611C639.257,378.816,639.584,375.36,639.047,375.154C638.51,374.948,637.109,377.991,635.394,380.052C633.68,382.114,631.652,383.194,628.739,382.955C625.826,382.717,622.028,381.16,621.713,380.554C621.399,379.947,624.567,380.29,624.569,380.219C624.572,380.148,621.409,379.663,616.876,378.46C612.343,377.257,606.439,375.336,602.045,376.032C597.651,376.729,594.766,380.042,591.227,381.505C587.689,382.967,583.495,382.579,581.827,382.151C580.158,381.723,581.015,381.257,580.474,380.804C579.932,380.351,577.992,379.912,577.714,379.56C577.437,379.208,578.821,378.944,577.515,378.802C576.209,378.66,572.212,378.639,569.879,378.143C567.546,377.648,566.878,376.677,567.079,378.01C567.28,379.343,568.351,382.98,566.343,382.5C564.335,382.019,559.247,377.421,555.737,376.869C552.227,376.318,550.294,379.812,548.45,380.952C546.606,382.092,544.851,380.876,544.053,379.678C543.255,378.48,543.415,377.3,542.364,378.588C541.313,379.877,539.053,383.635,535.756,384.105C532.46,384.575,528.127,381.757,525.792,380.288C523.458,378.819,523.121,378.699,521.607,379.412C520.093,380.126,517.401,381.673,516.166,382.431C514.931,383.189,515.153,383.159,513.462,382.789C511.772,382.419,508.17,381.709,505.502,381.773C502.835,381.836,501.103,382.673,499.615,382.486C498.128,382.298,496.886,381.086,496.858,379.516C496.83,377.946,498.017,376.018,496.289,376.072C494.561,376.127,489.917,378.163,487.329,380.197C484.741,382.231,484.208,384.262,483.427,385.563C482.646,386.864,481.618,387.436,478.785,386.361C475.952,385.286,471.314,382.566,469.033,381.756C466.753,380.946,466.829,382.047,465.974,382.177C465.119,382.308,463.333,381.47,461.866,379.464C460.399,377.458,459.252,374.284,457.613,374.122C455.974,373.959,453.844,376.808,452.476,377.945C451.108,379.083,450.502,378.51,448.775,378.988C447.048,379.465,444.2,380.992,442.72,380.795C441.239,380.598,441.125,378.676,440.37,378.309C439.615,377.941,438.219,379.126,438.106,380.522C437.994,381.918,439.164,383.524,436.978,383.962C434.793,384.4,429.252,383.671,426.067,382.888C422.882,382.104,422.053,381.266,421.922,380.137C421.791,379.007,422.359,377.586,421.56,377.176C420.762,376.765,418.597,377.365,417.69,376.716C416.783,376.068,417.134,374.171,416.714,373.784C416.293,373.397,415.101,374.519,412.831,375.882C410.56,377.246,407.21,378.85,404.446,378.446C401.682,378.043,399.503,375.632,395.225,374.265C390.947,372.898,384.568,372.574,380.766,373.64C376.964,374.705,375.738,377.16,374.711,378.459C373.684,379.758,372.855,379.901,371.984,380.71C371.113,381.518,370.199,382.992,369.03,382.172C367.861,381.351,366.438,378.237,364.938,377.335C363.437,376.433,361.86,377.743,360.89,378.426C359.92,379.11,359.559,379.166,359.007,379.32C358.455,379.474,357.714,379.724,356.885,378.954C356.056,378.184,355.14,376.394,354.682,375.498L354.223,374.603"></path>
      </svg>
      