<?xml version="1.0" encoding="UTF-8" standalone="no"?>
    <!-- Created with Inkscape (https://labs.original.art.br/draw) -->
    
    <svg
       xmlns:dc="http://purl.org/dc/elements/1.1/"
       xmlns:cc="http://creativecommons.org/ns#"
       xmlns:rdf="http://www.w3.org/1999/02/22-rdf-syntax-ns#"
       xmlns:svg="http://www.w3.org/2000/svg"
       xmlns="http://www.w3.org/2000/svg"
       xmlns:sodipodi="http://sodipodi.sourceforge.net/DTD/sodipodi-0.dtd"
       xmlns:inkscape="http://www.inkscape.org/namespaces/inkscape"
       id="tTpfL"
       version="1.1"
       inkscape:version="0.91 r13725"
       width="undefined"
       height="undefined"
       viewBox="0 0 undefined undefined"
       sodipodi:docname="_paths6.svg">
      <metadata
         id="metadata3404">
        <rdf:RDF>
          <cc:Work
             rdf:about="">
            <dc:format>image/svg+xml</dc:format>
            <dc:type
               rdf:resource="http://purl.org/dc/dcmitype/StillImage" />
            <dc:title></dc:title>
          </cc:Work>
        </rdf:RDF>
      </metadata>
      undefined<path fill="none" stroke-width="1" style="stroke: rgb(0, 71, 171);" d="M1.054,500L1.141,498.466C1.228,496.932,1.403,493.863,0.964,490.493C0.526,487.122,-0.527,483.45,-0.578,479.384C-0.629,475.318,0.321,470.858,2.796,469.105C5.271,467.352,9.271,468.307,12.434,466.02C15.596,463.733,17.921,458.204,20.176,455.449C22.432,452.694,24.617,452.712,24.623,452.1C24.628,451.488,22.452,450.247,22.993,450.359C23.534,450.47,26.791,451.935,29.166,450.928C31.54,449.921,33.032,446.442,37.654,446.512C42.276,446.583,50.028,450.204,55.652,451.94C61.276,453.676,64.773,453.527,66.685,453.338C68.598,453.149,68.927,452.92,70.1,451.162C71.273,449.403,73.29,446.116,75.317,444.914C77.344,443.711,79.381,444.594,81.779,445.969C84.178,447.344,86.938,449.211,87.853,451.516C88.768,453.821,87.838,456.564,89.609,456.545C91.379,456.526,95.851,453.745,98.61,450.967C101.369,448.19,102.416,445.416,104.393,446.347C106.37,447.278,109.278,451.912,111.902,453.035C114.527,454.158,116.869,451.77,118.052,450.694C119.235,449.618,119.259,449.854,119.098,449.584C118.938,449.313,118.592,448.536,119.3,449.454C120.008,450.372,121.769,452.985,123.11,453.034C124.45,453.083,125.37,450.567,126.092,449.613C126.813,448.658,127.336,449.263,129.177,449.735C131.019,450.207,134.18,450.545,136.099,450.933C138.019,451.32,138.698,451.757,139.249,452.265C139.8,452.773,140.224,453.352,142.132,453.024C144.041,452.696,147.434,451.46,147.956,450.516C148.479,449.573,146.131,448.921,147.296,447.465C148.462,446.008,153.141,443.747,156.092,443.281C159.043,442.815,160.266,444.145,163.372,446.117C166.479,448.089,171.469,450.702,174.89,451.43C178.312,452.158,180.165,450.999,180.493,449.426C180.82,447.852,179.622,445.863,181.271,447.384C182.921,448.905,187.418,453.936,189.893,453.548C192.368,453.16,192.82,447.354,196.227,446.921C199.635,446.488,205.999,451.428,210.355,451.697C214.711,451.965,217.06,447.561,220.076,446.968C223.091,446.375,226.774,449.593,228.598,451.104C230.422,452.614,230.387,452.418,229.688,451.659C228.988,450.899,227.625,449.576,229.332,449.384C231.04,449.193,235.819,450.133,237.752,451.695C239.685,453.256,238.771,455.439,240,455.515C241.23,455.59,244.602,453.557,248.079,453.011C251.557,452.464,255.141,453.404,258.157,452.337C261.173,451.271,263.62,448.198,265.861,448.341C268.102,448.485,270.136,451.845,270.536,451.369C270.936,450.894,269.701,446.584,271.758,445.704C273.816,444.823,279.164,447.372,281.945,448.619C284.726,449.866,284.94,449.81,285.245,450.906C285.55,452.002,285.946,454.25,285.944,454.666C285.941,455.083,285.539,453.668,289.039,453.22C292.539,452.772,299.941,453.291,304.104,451.55C308.267,449.809,309.19,445.808,309.395,445.914C309.599,446.019,309.084,450.231,311.923,450.107C314.762,449.984,320.955,445.525,324.822,444.849C328.689,444.173,330.23,447.28,331.988,448.782C333.747,450.284,335.724,450.18,335.481,450.396C335.237,450.613,332.775,451.15,333.736,451.572C334.697,451.993,339.083,452.301,340.987,452.471C342.89,452.641,342.312,452.674,344.063,451.411C345.814,450.148,349.894,447.589,352.871,447.006C355.848,446.423,357.722,447.816,360.945,449.748C364.168,451.68,368.74,454.15,371.104,455.423C373.469,456.696,373.626,456.772,374.742,455.275C375.857,453.778,377.932,450.707,379.413,448.835C380.894,446.962,381.783,446.288,383.247,446.764C384.711,447.239,386.75,448.863,390.236,448.236C393.721,447.61,398.654,444.732,403.34,443.883C408.026,443.034,412.466,444.213,414.763,445.459C417.06,446.704,417.214,448.016,417.244,447.648C417.275,447.28,417.182,445.233,418.267,445.957C419.352,446.681,421.615,450.175,424.052,451.459C426.488,452.742,429.099,451.815,431.622,451.917C434.145,452.02,436.579,453.152,437.656,452.586C438.732,452.021,438.45,449.756,438.179,448.952C437.907,448.148,437.646,448.804,439.548,449.262C441.45,449.719,445.516,449.978,447.541,449.941C449.565,449.904,449.55,449.571,449.504,449.571C449.458,449.572,449.383,449.906,450.148,448.804C450.914,447.703,452.521,445.166,454.079,444.647C455.638,444.129,457.147,445.629,458.995,445.761C460.843,445.892,463.029,444.656,465.819,445.308C468.608,445.961,472.002,448.503,473.559,450.95C475.116,453.397,474.836,455.749,476.701,456.516C478.565,457.283,482.574,456.466,484.679,456.093C486.783,455.721,486.984,455.792,489.122,454.915C491.26,454.037,495.335,452.211,497.701,451.82C500.067,451.429,500.724,452.474,501.457,452.453C502.191,452.431,503,451.343,503.428,451.67C503.857,451.997,503.904,453.738,504.492,452.915C505.08,452.092,506.208,448.704,508.015,447.95C509.822,447.195,512.308,449.074,512.767,448.783C513.227,448.492,511.66,446.032,513.173,445.871C514.686,445.71,519.28,447.847,522.801,449.191C526.322,450.535,528.771,451.086,529.554,452.672C530.338,454.258,529.457,456.879,530.69,458.204C531.923,459.53,535.269,459.561,539.137,458.204C543.005,456.846,547.395,454.101,548.928,453.479C550.461,452.857,549.138,454.359,551.268,454.475C553.398,454.591,558.98,453.321,561.125,453.603C563.269,453.886,561.975,455.721,563.968,455.447C565.961,455.174,571.241,452.792,574.286,449.919C577.332,447.047,578.144,443.685,580.554,444.412C582.965,445.139,586.974,449.957,588.056,452.094C589.138,454.231,587.293,453.688,588.561,453.717C589.828,453.746,594.207,454.347,597.343,452.76C600.478,451.173,602.37,447.399,605.536,446.076C608.702,444.754,613.142,445.883,615.368,446.975C617.594,448.067,617.605,449.122,616.869,448.962C616.132,448.801,614.647,447.424,617.229,447.034C619.811,446.644,626.46,447.24,630.523,448.137C634.586,449.035,636.062,450.235,638.086,450.492C640.109,450.749,642.679,450.063,643.968,449.873C645.257,449.683,645.264,449.989,644.957,450.134C644.65,450.279,644.029,450.263,644.433,450.192C644.837,450.121,646.265,449.994,646.389,449.827C646.513,449.66,645.333,449.452,645.008,448.471C644.683,447.49,645.214,445.735,647.566,445.684C649.918,445.632,654.091,447.284,657.692,448.433C661.293,449.582,664.321,450.229,666.762,451.302C669.203,452.374,671.057,453.872,672.602,453.282C674.147,452.692,675.382,450.015,677.332,449.761C679.283,449.506,681.949,451.674,683.594,451.302C685.239,450.929,685.862,448.016,686.816,447.158C687.771,446.301,689.056,447.5,689.622,447.104C690.187,446.708,690.031,444.717,692.664,445.677C695.297,446.637,700.718,450.547,704.265,452.393C707.812,454.24,709.486,454.022,710.659,453.166C711.833,452.311,712.508,450.818,712.801,449.588C713.095,448.357,713.008,447.388,713.79,447.204C714.573,447.019,716.224,447.618,717.123,448.008C718.022,448.397,718.168,448.576,717.772,448.871C717.376,449.165,716.437,449.576,717.396,449.957C718.355,450.337,721.211,450.688,723.054,450.285C724.896,449.883,725.725,448.728,726.281,447.477C726.838,446.227,727.122,444.881,727.603,445.05C728.084,445.218,728.761,446.9,732.968,448.138C737.175,449.375,744.911,450.167,750.142,450.874C755.373,451.581,758.098,452.202,760.036,451.386C761.974,450.569,763.124,448.314,762.907,446.729C762.69,445.143,761.107,444.228,762.613,443.959C764.119,443.69,768.716,444.068,772.341,444.09C775.965,444.113,778.618,443.78,780.879,445.83C783.14,447.88,785.009,452.314,787.383,453.451C789.757,454.588,792.635,452.428,793.489,450.279C794.342,448.131,793.17,445.992,794.068,445.32C794.966,444.647,797.934,445.441,801.02,445.582C804.106,445.723,807.31,445.211,808.38,445.827C809.45,446.442,808.386,448.185,810.246,448.276C812.106,448.367,816.891,446.807,820.332,447.818C823.774,448.829,825.874,452.412,827.215,452.847C828.556,453.281,829.139,450.566,830.338,450.006C831.537,449.446,833.351,451.041,834.574,452.166C835.798,453.292,836.432,453.949,838.783,454.446C841.135,454.942,845.205,455.28,846.895,454.167C848.586,453.054,847.897,450.491,849.44,449.749C850.984,449.007,854.76,450.086,856.753,449.827C858.747,449.568,858.959,447.972,859.413,447.723C859.868,447.475,860.565,448.574,861.509,449.586C862.454,450.599,863.645,451.524,863.875,452.043C864.106,452.562,863.377,452.674,864.389,452.167C865.402,451.659,868.158,450.531,870.664,448.976C873.17,447.422,875.426,445.44,878.474,445.085C881.521,444.73,885.361,446.001,887.631,447.48C889.902,448.958,890.604,450.644,891.077,450.469C891.549,450.294,891.792,448.259,893.41,447.669C895.029,447.08,898.023,447.937,899.473,447.507C900.923,447.077,900.829,445.36,901.07,445.641C901.312,445.923,901.888,448.203,903.909,449.576C905.93,450.948,909.394,451.413,910.541,450.781C911.687,450.149,910.516,448.422,912.375,448.321C914.233,448.221,919.122,449.747,920.053,450.018C920.983,450.288,917.955,449.302,919.531,449.071C921.108,448.84,927.288,449.365,930.294,448.804C933.301,448.243,933.134,446.595,932.941,446.557C932.748,446.519,932.529,448.09,934.468,449.525C936.406,450.961,940.502,452.26,944.268,451.828C948.034,451.396,951.469,449.232,952.453,449.062C953.436,448.891,951.968,450.714,953.185,450.657C954.403,450.6,958.306,448.664,961.431,448.318C964.555,447.972,966.901,449.217,966.726,450.583C966.552,451.949,963.857,453.436,964.012,452.727C964.166,452.019,967.169,449.115,972.101,447.625C977.034,446.136,983.896,446.06,987.685,444.854C991.474,443.648,992.189,441.312,992.299,439.308C992.41,437.303,991.916,435.63,990.675,432.258C989.434,428.886,987.447,423.816,986.37,421.199C985.293,418.583,985.127,418.42,983.626,416.595C982.124,414.77,979.286,411.284,977.051,407.162C974.816,403.041,973.183,398.286,970.601,397.44C968.02,396.593,964.489,399.656,961.668,401.536C958.846,403.415,956.733,404.113,955.208,404.529C953.683,404.945,952.746,405.079,951.309,405.869C949.872,406.659,947.935,408.104,946.591,408.11C945.247,408.116,944.495,406.684,942.287,405.177C940.078,403.671,936.412,402.09,933.465,401.395C930.519,400.7,928.292,400.891,928.293,399.841C928.294,398.79,930.521,396.499,928.487,395.765C926.452,395.032,920.155,395.857,916.361,395.37C912.568,394.883,911.277,393.083,909.069,394.524C906.86,395.964,903.734,400.645,901.294,402.432C898.854,404.218,897.101,403.109,895.545,401.684C893.988,400.259,892.63,398.517,892.563,396.848C892.496,395.18,893.721,393.584,892.307,392.739C890.894,391.893,886.842,391.796,882.774,392.868C878.707,393.94,874.623,396.18,871.325,397.108C868.026,398.036,865.511,397.651,865.096,398.454C864.681,399.256,866.366,401.246,864.741,402.149C863.115,403.053,858.179,402.871,854.255,402.246C850.331,401.62,847.419,400.553,845.564,399.581C843.709,398.61,842.911,397.736,841.472,396.764C840.032,395.793,837.95,394.725,835.838,394.995C833.727,395.264,831.585,396.872,829.847,397.076C828.109,397.28,826.774,396.08,825.345,397.118C823.916,398.155,822.391,401.43,819.726,402.716C817.06,404.002,813.253,403.299,811.289,402.221C809.325,401.143,809.203,399.69,808.882,399.414C808.56,399.138,808.038,400.039,808.584,401.586C809.13,403.133,810.744,405.326,808.585,405.424C806.426,405.522,800.494,403.526,797.409,402.257C794.324,400.988,794.086,400.447,793.889,400.218C793.693,399.99,793.539,400.074,793.988,400.891C794.437,401.708,795.49,403.258,794.485,403.071C793.48,402.883,790.418,400.959,789.473,400.068C788.529,399.178,789.703,399.323,788.077,399.516C786.45,399.709,782.023,399.951,780.141,399.765C778.26,399.579,778.924,398.966,779.165,398.958C779.407,398.949,779.225,399.545,778.399,399.234C777.573,398.922,776.102,397.703,774.381,397.412C772.66,397.121,770.689,397.759,768.173,399.009C765.657,400.259,762.596,402.122,760.799,402.579C759.002,403.037,758.468,402.089,758.191,402.105C757.913,402.121,757.892,403.101,757.17,403.676C756.449,404.252,755.028,404.421,752.499,403.125C749.97,401.829,746.335,399.067,744.318,398.403C742.301,397.739,741.903,399.173,741.24,400.896C740.576,402.619,739.648,404.63,738.384,404.439C737.121,404.247,735.523,401.854,734.164,402.123C732.806,402.392,731.687,405.323,730.003,405.147C728.319,404.971,726.068,401.688,726.144,400.963C726.219,400.239,728.621,402.074,728.088,402.9C727.555,403.727,724.088,403.545,720.008,402.587C715.928,401.629,711.235,399.894,707.832,400.083C704.428,400.272,702.313,402.385,700.418,401.866C698.523,401.347,696.847,398.195,695.52,397.539C694.194,396.882,693.216,398.72,691.364,399.222C689.513,399.725,686.786,398.891,686.463,399.75C686.139,400.608,688.217,403.159,686.053,402.859C683.888,402.56,677.48,399.411,674.063,398.345C670.646,397.279,670.22,398.296,669.491,398.84C668.762,399.385,667.73,399.457,667.988,399.715C668.247,399.973,669.796,400.416,667.709,400.427C665.622,400.437,659.898,400.015,656.793,400.456C653.687,400.898,653.198,402.202,652.984,401.954C652.769,401.706,652.828,399.904,651.611,399.346C650.394,398.787,647.901,399.472,645.73,400.166C643.559,400.861,641.711,401.565,639.935,400.849C638.158,400.133,636.455,397.997,635.58,397.38C634.705,396.762,634.66,397.663,634.172,398.403C633.685,399.144,632.755,399.724,631.999,399.763C631.242,399.802,630.658,399.3,630.224,399.218C629.791,399.136,629.507,399.474,629.836,398.588C630.165,397.702,631.106,395.592,629.969,396.317C628.833,397.041,625.619,400.599,622.598,401.066C619.577,401.533,616.749,398.909,615.07,398.008C613.391,397.108,612.861,397.93,611.711,398.111C610.561,398.293,608.791,397.833,607.28,397.507C605.77,397.181,604.519,396.99,603.889,398.41C603.258,399.83,603.247,402.861,601.633,403.638C600.018,404.415,596.799,402.938,594.982,401.887C593.166,400.835,592.752,400.208,591.166,400.101C589.58,399.994,586.822,400.407,585.862,400.727C584.901,401.047,585.738,401.275,584.717,402.625C583.697,403.976,580.819,406.45,578.261,406.15C575.703,405.849,573.466,402.773,572.708,401.457C571.951,400.142,572.674,400.586,571.992,400.453C571.311,400.32,569.224,399.608,567.878,398.067C566.532,396.526,565.926,394.155,564.351,394.151C562.776,394.148,560.232,396.512,560.093,397.88C559.954,399.247,562.219,399.619,560.511,399.713C558.802,399.806,553.121,399.621,550.854,400.291C548.587,400.96,549.734,402.483,548.747,402.397C547.761,402.31,544.64,400.613,543.271,400.844C541.901,401.075,542.282,403.235,540.819,405.024C539.355,406.812,536.046,408.23,533.688,408.348C531.33,408.467,529.922,407.287,527.625,405.554C525.328,403.821,522.141,401.534,521.431,400.676C520.72,399.817,522.486,400.388,521.559,400.863C520.633,401.338,517.013,401.718,513.934,401.556C510.854,401.394,508.314,400.69,506.695,400.74C505.076,400.789,504.379,401.593,503.761,401.837C503.142,402.082,502.602,401.767,503.166,401.864C503.729,401.962,505.397,402.471,504.234,401.482C503.072,400.493,499.078,398.007,496.213,397.372C493.348,396.737,491.611,397.954,490.496,399.427C489.38,400.899,488.885,402.628,488.856,402.923C488.827,403.218,489.262,402.08,487.913,400.986C486.563,399.891,483.427,398.841,480.645,397.992C477.862,397.144,475.433,396.498,473.665,397.403C471.897,398.309,470.79,400.766,469.002,401.78C467.213,402.793,464.743,402.362,464.42,400.553C464.098,398.743,465.923,395.556,463.916,395.584C461.909,395.613,456.068,398.857,452.509,401.478C448.95,404.099,447.673,406.097,445.977,406.107C444.282,406.116,442.169,404.138,440.257,402.454C438.345,400.771,436.636,399.382,436.37,399.47C436.105,399.558,437.284,401.123,436.403,399.799C435.523,398.475,432.582,394.261,429.455,393.255C426.328,392.248,423.014,394.448,420.848,395.071C418.683,395.693,417.666,394.739,415.857,395.644C414.048,396.55,411.447,399.316,410.823,400.704C410.198,402.092,411.549,402.102,409.673,400.844C407.797,399.586,402.692,397.059,398.818,397.472C394.944,397.885,392.299,401.237,391.153,401.42C390.008,401.603,390.361,398.618,389.975,399.304C389.588,399.989,388.461,404.346,386.2,405.793C383.939,407.24,380.544,405.778,378.433,404.689C376.321,403.601,375.494,402.887,372.198,401.794C368.901,400.7,363.135,399.227,361.348,398.406C359.562,397.585,361.755,397.416,359.524,398.551C357.292,399.686,350.637,402.124,347.093,401.508C343.55,400.893,343.118,397.223,343.117,396.007C343.115,394.791,343.544,396.028,341.258,396.937C338.973,397.846,333.973,398.427,331.434,398.684C328.894,398.942,328.815,398.876,327.497,398.183C326.178,397.491,323.622,396.172,320.939,396.71C318.257,397.248,315.448,399.643,312.67,399.954C309.893,400.265,307.145,398.492,305.386,399.585C303.627,400.678,302.857,404.638,301.635,406.629C300.414,408.62,298.742,408.642,295.698,407.066C292.655,405.49,288.241,402.314,287.203,399.783C286.166,397.252,288.505,395.365,286.004,395.998C283.503,396.631,276.16,399.784,270.865,401.216C265.57,402.648,262.321,402.359,259.751,402.225C257.18,402.092,255.287,402.114,254.57,401.784C253.853,401.454,254.313,400.772,254.667,400.986C255.021,401.201,255.27,402.312,253.864,403.036C252.458,403.761,249.396,404.099,246.726,404.94C244.056,405.782,241.777,407.127,239.794,406.451C237.811,405.776,236.124,403.081,233.645,402.096C231.167,401.112,227.897,401.839,227.187,402.683C226.478,403.526,228.329,404.486,227.131,404.715C225.933,404.944,221.686,404.442,218.343,404.071C215,403.7,212.561,403.461,210.432,401.596C208.303,399.731,206.484,396.239,205.028,394.656C203.571,393.072,202.477,393.398,200.761,393.829C199.046,394.261,196.708,394.799,194.458,395.398C192.208,395.996,190.046,396.654,187.851,398.592C185.656,400.53,183.428,403.748,181.601,403.035C179.774,402.321,178.347,397.678,175.849,395.45C173.351,393.222,169.78,393.41,167.738,394.748C165.695,396.085,165.179,398.573,163.847,399.59C162.515,400.608,160.366,400.155,158.985,401.057C157.604,401.96,156.991,404.217,155.906,403.965C154.821,403.713,153.264,400.952,152.575,400.102C151.886,399.252,152.064,400.313,150.496,401.213C148.927,402.113,145.612,402.853,143.791,402.444C141.97,402.035,141.645,400.478,141.719,399.38C141.794,398.282,142.269,397.645,141.213,397.997C140.157,398.35,137.57,399.692,135.757,400.446C133.944,401.201,132.903,401.368,131.66,400.818C130.417,400.269,128.972,399.003,127.948,397.851C126.924,396.699,126.321,395.66,126.35,396.355C126.379,397.051,127.04,399.481,125.829,399.771C124.619,400.061,121.536,398.212,118.427,396.623C115.318,395.034,112.183,393.707,109.833,395.887C107.484,398.068,105.921,403.756,101.753,405.765C97.586,407.774,90.815,406.103,86.911,404.444C83.007,402.784,81.97,401.136,79.988,400.669C78.007,400.201,75.08,400.915,72.811,401.797C70.542,402.679,68.93,403.73,67.805,403.55C66.681,403.371,66.043,401.96,65.264,402.163C64.485,402.366,63.563,404.182,62.201,404.952C60.838,405.723,59.034,405.448,56.814,403.539C54.594,401.631,51.957,398.09,51.249,396.564C50.542,395.038,51.763,395.527,50.312,396.033C48.86,396.539,44.736,397.062,41.436,399.263C38.136,401.465,35.661,405.344,33.949,404.745C32.237,404.146,31.287,399.067,30.503,397.282C29.718,395.498,29.099,397.007,24.707,399.291C20.315,401.574,12.151,404.631,7.482,404.222C2.813,403.812,1.64,399.937,1.587,395.665C1.533,391.393,2.599,386.726,4.335,382.615C6.072,378.504,8.478,374.949,11.391,370.961C14.303,366.972,17.722,362.55,19.122,360.877C20.522,359.204,19.905,360.281,20.24,359.003C20.575,357.724,21.863,354.091,22.711,352.263C23.559,350.436,23.967,350.414,23.585,348.877C23.204,347.34,22.032,344.287,23.098,343.585C24.163,342.883,27.466,344.531,29.364,345.05C31.261,345.568,31.753,344.957,34.587,346.349C37.421,347.74,42.597,351.133,45.696,353.1C48.795,355.066,49.816,355.605,52.24,355.613C54.664,355.62,58.489,355.097,61.809,354.457C65.128,353.817,67.941,353.06,68.496,351.083C69.052,349.106,67.351,345.909,68.131,345.18C68.912,344.451,72.173,346.19,76.032,347.625C79.89,349.06,84.345,350.191,86.447,350.432C88.549,350.674,88.298,350.026,87.477,349.97C86.656,349.913,85.265,350.447,87.983,351.061C90.701,351.675,97.527,352.369,102.338,351.362C107.148,350.355,109.942,347.646,111.814,345.716C113.685,343.786,114.634,342.634,116.924,344.743C119.214,346.852,122.845,352.222,125.852,354.713C128.86,357.203,131.245,356.814,132.178,355.819C133.11,354.824,132.59,353.223,134.231,352.535C135.871,351.848,139.672,352.075,142.801,350.999C145.93,349.923,148.388,347.545,151.203,347.632C154.018,347.718,157.19,350.269,159.024,350.657C160.858,351.045,161.354,349.269,162.039,348.156C162.723,347.042,163.595,346.591,164.413,346.348C165.231,346.106,165.994,346.072,167.672,345.746C169.35,345.421,171.942,344.805,173.274,346.291C174.605,347.777,174.676,351.367,176.339,353.33C178.002,355.294,181.257,355.631,183.126,354.48C184.995,353.33,185.478,350.69,186.905,350.635C188.331,350.581,190.702,353.11,193.016,353.251C195.33,353.392,197.588,351.145,197.435,350.109C197.282,349.074,194.719,349.251,197.41,349.047C200.101,348.843,208.047,348.258,212.023,347.922C215.999,347.586,216.005,347.498,216.147,348.233C216.289,348.968,216.568,350.525,217.906,349.635C219.244,348.745,221.641,345.407,224.431,344.736C227.221,344.064,230.403,346.058,231.243,346.408C232.082,346.758,230.58,345.465,232.263,345.125C233.945,344.784,238.814,345.397,241.154,347.043C243.494,348.69,243.305,351.371,243.013,351.59C242.722,351.808,242.328,349.564,245.466,348.895C248.604,348.226,255.274,349.132,258.687,349.22C262.1,349.309,262.257,348.58,263.112,347.961C263.967,347.342,265.52,346.833,266.365,347.581C267.21,348.33,267.347,350.335,267.597,350.822C267.848,351.31,268.214,350.28,269.249,349.914C270.285,349.548,271.991,349.845,272.878,351.235C273.765,352.625,273.833,355.107,275.858,355.959C277.883,356.811,281.864,356.032,285.229,355.25C288.593,354.468,291.34,353.683,293.795,352.34C296.25,350.996,298.413,349.095,298.897,349.758C299.382,350.421,298.188,353.649,299.643,354.113C301.098,354.578,305.201,352.28,307.081,351.313C308.961,350.347,308.619,350.712,308.932,349.541C309.245,348.371,310.213,345.665,312.628,345.53C315.044,345.395,318.906,347.83,320.479,348.898C322.053,349.966,321.338,349.665,321.739,349.552C322.14,349.44,323.658,349.514,324.302,349.397C324.946,349.28,324.717,348.971,325.528,349.818C326.338,350.666,328.188,352.67,329.928,352.89C331.667,353.109,333.296,351.544,334.067,350.783C334.837,350.022,334.749,350.066,335.306,350.854C335.862,351.642,337.062,353.175,339.471,352.617C341.88,352.058,345.499,349.41,347.371,348.349C349.243,347.289,349.369,347.818,351.234,347.641C353.099,347.464,356.704,346.581,358.747,346.829C360.79,347.076,361.272,348.454,361.401,348.856C361.531,349.257,361.308,348.681,362.15,348.659C362.992,348.636,364.9,349.167,366.82,349.809C368.741,350.451,370.675,351.205,372.26,350.768C373.845,350.33,375.083,348.7,376.356,347.45C377.629,346.2,378.937,345.329,379.316,345.369C379.694,345.409,379.142,346.36,380.115,347.119C381.089,347.879,383.587,348.447,385.501,348.593C387.414,348.739,388.742,348.462,389.875,348.525C391.009,348.588,391.949,348.99,392.955,348.767C393.96,348.544,395.032,347.696,396.375,347.521C397.718,347.346,399.333,347.846,401.825,346.958C404.317,346.071,407.686,343.796,410.54,344.071C413.395,344.346,415.736,347.171,416.778,349.84C417.82,352.51,417.564,355.024,419.365,354.924C421.166,354.824,425.024,352.109,426.787,350.895C428.549,349.68,428.215,349.967,428.713,351.141C429.211,352.314,430.541,354.373,431.891,354.499C433.241,354.625,434.611,352.817,434.999,352.461C435.387,352.104,434.791,353.199,436.045,353.062C437.298,352.925,440.401,351.557,441.901,350.79C443.402,350.024,443.3,349.86,442.824,350.36C442.347,350.859,441.496,352.022,443.702,351.165C445.909,350.308,451.174,347.432,454.185,346.984C457.197,346.536,457.955,348.518,458.611,349.802C459.267,351.086,459.82,351.672,460.437,351.475C461.053,351.278,461.732,350.297,463.555,349.979C465.377,349.661,468.343,350.005,470.62,350.185C472.897,350.366,474.484,350.383,475.724,350.229C476.964,350.074,477.856,349.748,478.98,350.321C480.104,350.895,481.459,352.368,483.197,352.778C484.936,353.188,487.057,352.534,488.378,351.791C489.699,351.048,490.218,350.215,492.046,349.603C493.874,348.99,497.011,348.597,498.92,348.025C500.828,347.452,501.509,346.7,501.81,346.395C502.111,346.09,502.031,346.233,503.341,347.293C504.65,348.353,507.349,350.331,508.916,351.745C510.483,353.16,510.919,354.011,512.312,353.771C513.706,353.531,516.056,352.201,517.301,351.408C518.546,350.615,518.684,350.36,518.018,351.354C517.351,352.349,515.879,354.593,516.713,355.147C517.548,355.7,520.689,354.563,524.635,354.415C528.581,354.267,533.331,355.107,536.714,353.601C540.097,352.094,542.112,348.241,544.043,348.03C545.975,347.818,547.822,351.248,549.52,351.964C551.218,352.679,552.767,350.681,553.718,349.745C554.669,348.809,555.023,348.936,556.319,349.204C557.615,349.472,559.853,349.88,561.334,349.961C562.814,350.042,563.536,349.795,563.793,350.4C564.05,351.004,563.842,352.461,564.604,352.335C565.367,352.209,567.101,350.5,568.457,350.049C569.812,349.597,570.79,350.403,571.344,350.494C571.898,350.585,572.028,349.962,572.294,349.617C572.561,349.272,572.965,349.205,572.393,348.626C571.822,348.047,570.275,346.955,572.543,345.986C574.812,345.016,580.896,344.17,584.825,343.99C588.753,343.809,590.526,344.294,591.92,345.308C593.314,346.321,594.33,347.864,595.931,348.539C597.531,349.214,599.716,349.022,600.673,347.926C601.629,346.83,601.357,344.83,603.604,345.779C605.851,346.729,610.617,350.628,613.125,352.884C615.633,355.14,615.884,355.753,616.21,355.241C616.535,354.728,616.936,353.091,618.008,353.066C619.08,353.041,620.823,354.628,624.461,354.264C628.1,353.899,633.635,351.583,636.706,349.97C639.776,348.357,640.382,347.446,642.462,348.119C644.543,348.791,648.097,351.046,648.769,351.554C649.441,352.061,647.231,350.821,648.552,350.277C649.873,349.732,654.725,349.882,658.107,348.787C661.489,347.693,663.401,345.353,664.755,344.72C666.109,344.088,666.906,345.163,668.293,346.542C669.681,347.921,671.66,349.604,672.486,351.608C673.312,353.613,672.986,355.939,674.72,354.301C676.455,352.663,680.25,347.061,684.822,346.465C689.393,345.869,694.74,350.28,698.621,352.812C702.501,355.344,704.916,355.997,707.359,354.955C709.803,353.912,712.276,351.174,713.557,350.456C714.837,349.737,714.924,351.038,715.604,350.419C716.285,349.801,717.56,347.264,719.124,346.626C720.689,345.987,722.544,347.247,723.892,346.581C725.24,345.916,726.082,343.324,727.786,343.164C729.49,343.005,732.058,345.277,733.796,347.888C735.535,350.498,736.445,353.446,737.993,353.9C739.541,354.353,741.726,352.313,743.554,351.525C745.383,350.738,746.854,351.203,748.243,349.703C749.632,348.202,750.939,344.736,752.875,343.018C754.811,341.299,757.376,341.329,758.941,342.985C760.505,344.641,761.07,347.925,762.293,348.008C763.516,348.091,765.397,344.974,769.67,343.947C773.943,342.92,780.608,343.982,784.478,344.506C788.348,345.029,789.423,345.013,790.424,345.765C791.424,346.516,792.35,348.035,793.543,349.233C794.737,350.431,796.198,351.308,797.715,350.445C799.232,349.582,800.805,346.979,802.792,345.592C804.778,344.206,807.177,344.035,808.907,344.943C810.636,345.85,811.695,347.836,811.527,348.382C811.359,348.928,809.963,348.034,811.995,348.384C814.028,348.734,819.488,350.329,822.523,349.161C825.558,347.994,826.169,344.065,826.97,344.201C827.771,344.337,828.762,348.539,831.092,350.063C833.422,351.588,837.092,350.435,839.257,350.365C841.423,350.295,842.085,351.309,842.613,351.434C843.141,351.56,843.536,350.799,845.462,349.872C847.387,348.945,850.843,347.853,851.616,348.798C852.389,349.743,850.479,352.726,851.577,352.888C852.676,353.05,856.783,350.391,859.648,349.168C862.514,347.945,864.136,348.158,864.968,348.288C865.801,348.418,865.843,348.464,866.316,348.237C866.788,348.011,867.691,347.512,869.857,348.013C872.024,348.514,875.455,350.016,877.36,351.193C879.266,352.369,879.647,353.222,879.297,353.433C878.948,353.643,877.867,353.212,881.059,351.754C884.252,350.295,891.717,347.808,895.181,348.091C898.645,348.374,898.107,351.426,900.327,351.943C902.548,352.459,907.528,350.439,909.896,349.817C912.264,349.195,912.021,349.971,911.533,348.935C911.046,347.898,910.314,345.048,911.462,344.975C912.61,344.901,915.637,347.604,918.57,349.296C921.502,350.988,924.339,351.67,925.983,351.502C927.627,351.333,928.079,350.315,927.813,350.17C927.548,350.025,926.565,350.752,926.797,351.37C927.029,351.988,928.475,352.496,931.191,352.44C933.907,352.384,937.892,351.764,940.962,351.28C944.032,350.797,946.186,350.45,947.343,350.198C948.5,349.945,948.66,349.787,948.101,350.014C947.543,350.24,946.265,350.852,947.737,351.658C949.21,352.465,953.431,353.466,955.912,353.264C958.394,353.061,959.134,351.655,959.497,350.26C959.86,348.865,959.844,347.481,959.857,347.402C959.869,347.323,959.91,348.548,961.256,350.279C962.603,352.011,965.256,354.248,968.62,354.024C971.985,353.8,976.06,351.114,977.875,347.233C979.689,343.351,979.243,338.273,976.918,337.519C974.593,336.765,970.389,340.336,969.37,340.42C968.35,340.505,970.515,337.104,969.116,336.198C967.716,335.292,962.753,336.882,958.829,337.893C954.904,338.904,952.017,339.336,949.565,340.174C947.113,341.012,945.096,342.256,943.194,341.596C941.292,340.937,939.505,338.374,937.843,337.939C936.18,337.504,934.641,339.197,934.154,341.014C933.668,342.831,934.234,344.771,932.497,345.179C930.76,345.586,926.719,344.46,925.098,342.274C923.476,340.088,924.275,336.841,921.191,336.365C918.107,335.889,911.141,338.185,907.778,340.048C904.416,341.912,904.657,343.343,904.037,343.084C903.418,342.825,901.938,340.876,900.574,339.845C899.21,338.814,897.962,338.701,895.664,338.814C893.365,338.928,890.017,339.268,888.178,339.762C886.338,340.256,886.009,340.904,885.423,341.39C884.838,341.876,883.997,342.201,882.109,342.301C880.221,342.401,877.285,342.276,874.829,340.768C872.373,339.26,870.397,336.368,870.13,336.172C869.863,335.976,871.305,338.475,869.451,339.844C867.597,341.214,862.448,341.454,859.877,342.286C857.305,343.119,857.312,344.545,855.507,343.004C853.702,341.463,850.085,336.955,847.026,335.971C843.966,334.988,841.463,337.529,840.261,338.804C839.06,340.08,839.159,340.091,839.13,340.064C839.101,340.037,838.944,339.972,838.166,339.421C837.388,338.869,835.99,337.83,835.603,337.427C835.217,337.025,835.843,337.258,833.415,337.759C830.988,338.26,825.507,339.029,821.978,339.934C818.45,340.839,816.873,341.88,814.943,341.876C813.013,341.872,810.729,340.823,809.331,340.626C807.932,340.428,807.42,341.084,806.603,341.127C805.786,341.17,804.663,340.6,804.872,339.96C805.08,339.32,806.62,338.609,805.983,338.792C805.346,338.975,802.532,340.051,799.616,341.056C796.701,342.061,793.684,342.995,791.904,342.843C790.125,342.692,789.583,341.456,790.41,341.152C791.236,340.847,793.432,341.473,792.889,340.653C792.346,339.832,789.064,337.565,784.756,336.811C780.447,336.058,775.111,336.819,772.614,338.904C770.117,340.989,770.458,344.398,768.475,344.895C766.492,345.391,762.185,342.977,759.485,342.024C756.785,341.072,755.692,341.583,754.774,341.63C753.856,341.678,753.113,341.263,752.807,340.974C752.502,340.685,752.632,340.522,752.451,341.268C752.27,342.014,751.777,343.67,749.974,344.824C748.17,345.979,745.055,346.632,742.546,346.11C740.036,345.588,738.133,343.891,736.548,343.726C734.964,343.561,733.698,344.928,730.755,344.21C727.812,343.492,723.193,340.69,721.616,340.171C720.04,339.653,721.507,341.417,720.245,341.811C718.983,342.205,714.992,341.228,714.024,341.216C713.056,341.205,715.113,342.158,713.376,341.797C711.64,341.437,706.111,339.764,702.598,339.693C699.085,339.621,697.589,341.151,696.91,341.393C696.23,341.634,696.367,340.587,695.218,340.14C694.069,339.694,691.635,339.848,689.974,340.426C688.314,341.004,687.428,342.006,687.569,342.233C687.71,342.459,688.878,341.911,687.433,339.853C685.988,337.796,681.929,334.23,677.968,333.561C674.006,332.893,670.143,335.123,669.473,336.294C668.804,337.466,671.329,337.579,668.42,337.524C665.512,337.468,657.17,337.243,653.342,336.375C649.515,335.507,650.202,333.997,648.917,333.579C647.632,333.162,644.375,333.837,641.249,335.851C638.123,337.865,635.127,341.218,634.331,342.49C633.534,343.763,634.936,342.955,633.122,341.955C631.308,340.955,626.278,339.763,624.023,339.444C621.767,339.126,622.286,339.68,621.734,338.357C621.181,337.033,619.557,333.831,617.559,333.242C615.561,332.652,613.189,334.676,611.26,335.627C609.33,336.577,607.843,336.455,606.402,337.105C604.96,337.756,603.565,339.178,602.782,341.171C602,343.163,601.83,345.725,599.92,346.43C598.009,347.136,594.359,345.984,591.686,344.933C589.014,343.882,587.32,342.931,586.296,342.157C585.273,341.383,584.92,340.786,585.837,340.601C586.753,340.417,588.94,340.646,586.528,341.531C584.116,342.416,577.105,343.957,573.439,344.009C569.773,344.061,569.452,342.624,568.074,341.973C566.697,341.323,564.262,341.458,563.35,341.925C562.437,342.392,563.046,343.191,562.888,341.914C562.729,340.636,561.803,337.282,559.412,337.791C557.02,338.3,553.164,342.671,550.174,343.634C547.185,344.597,545.062,342.15,544.06,340.29C543.058,338.429,543.176,337.153,542.161,338.005C541.146,338.857,538.999,341.837,538.418,342.948C537.838,344.058,538.825,343.298,536.385,343.252C533.945,343.206,528.077,343.873,526.309,343.344C524.541,342.815,526.872,341.09,524.466,339.668C522.06,338.246,514.917,337.127,511.242,335.952C507.566,334.777,507.358,333.545,505.665,333.785C503.971,334.024,500.792,335.735,498.99,336.341C497.187,336.948,496.762,336.451,496.766,338.045C496.769,339.64,497.201,343.325,494.722,344.041C492.242,344.756,486.852,342.502,483.103,342.012C479.353,341.522,477.244,342.796,476.268,342.375C475.292,341.954,475.449,339.839,474.032,339.465C472.616,339.092,469.624,340.46,467.795,340.783C465.965,341.106,465.298,340.383,464.24,339.12C463.182,337.856,461.735,336.051,461.242,337.151C460.749,338.251,461.21,342.255,460.702,342.862C460.193,343.468,458.714,340.676,456.102,339.877C453.489,339.079,449.743,340.274,446.407,340.425C443.071,340.575,440.145,339.681,437.592,338.608C435.039,337.535,432.858,336.283,431.311,336.223C429.763,336.164,428.848,337.296,426.802,337.751C424.757,338.206,421.581,337.984,419.845,337.956C418.109,337.928,417.812,338.095,417.253,338.488C416.695,338.881,415.874,339.5,416.08,339.643C416.286,339.786,417.518,339.453,416.203,340.044C414.889,340.636,411.029,342.151,409.155,340.723C407.281,339.295,407.393,334.923,406.811,333.632C406.229,332.341,404.952,334.131,400.315,334.879C395.678,335.627,387.681,335.333,383.364,337.521C379.048,339.709,378.412,344.38,376.666,345.255C374.921,346.131,372.066,343.211,370.152,343.259C368.239,343.306,367.268,346.321,365.641,347.538C364.014,348.755,361.731,348.174,360.439,346.314C359.148,344.454,358.848,341.315,357.357,339.823C355.867,338.33,353.186,338.484,349.848,338.828C346.511,339.172,342.516,339.705,340.239,339.91C337.963,340.115,337.404,339.99,338.307,339.556C339.211,339.122,341.577,338.379,339.76,338.952C337.943,339.525,331.943,341.414,330.024,341.499C328.104,341.583,330.266,339.863,327.818,338.964C325.369,338.065,318.312,337.987,314.378,338.067C310.445,338.146,309.636,338.383,308.442,339.169C307.247,339.955,305.667,341.292,305.377,342.578C305.087,343.865,306.086,345.102,303.75,344.255C301.413,343.407,295.74,340.474,292.904,339.008L290.068,337.541"></path><path fill="none" stroke-width="1" style="stroke: rgb(0, 71, 171);" d="M3.469,500L3.489,498.372C3.509,496.745,3.549,493.489,3.732,490.436C3.915,487.383,4.241,484.532,5.362,481.24C6.483,477.949,8.398,474.217,10.303,469.812C12.208,465.407,14.102,460.328,14.2,455.839C14.298,451.349,12.6,447.448,13.488,444.458C14.376,441.467,17.851,439.386,21.7,438.787C25.548,438.187,29.771,439.068,32.736,439.968C35.701,440.868,37.409,441.785,37.434,440.739C37.46,439.693,35.804,436.683,36.321,437.134C36.839,437.584,39.53,441.496,43.509,442.493C47.488,443.489,52.754,441.571,56.07,440.319C59.386,439.068,60.753,438.483,60.881,439.011C61.009,439.538,59.899,441.178,59.626,440.519C59.354,439.861,59.919,436.905,62.82,436.781C65.721,436.658,70.958,439.367,73.653,440.563C76.349,441.758,76.503,441.439,76.613,441.484C76.723,441.529,76.788,441.938,79.218,442.179C81.649,442.419,86.444,442.492,89.875,442.61C93.306,442.727,95.374,442.891,96.85,441.603C98.326,440.314,99.21,437.575,100.627,437.858C102.044,438.141,103.993,441.448,104.139,443.228C104.284,445.009,102.625,445.264,104.916,443.886C107.206,442.509,113.447,439.499,116.232,437.769C119.017,436.039,118.347,435.589,120.093,435.602C121.84,435.615,126.004,436.091,128.285,435.993C130.567,435.895,130.965,435.223,131.286,435.059C131.607,434.895,131.85,435.238,134.991,435.195C138.132,435.151,144.172,434.72,147.976,434.593C151.781,434.466,153.35,434.644,154.355,436.156C155.36,437.668,155.801,440.516,157.249,441.336C158.696,442.157,161.15,440.95,161.872,441.149C162.594,441.347,161.584,442.95,163.501,442.774C165.418,442.598,170.262,440.642,172.791,440.201C175.319,439.76,175.531,440.834,177.235,441.796C178.939,442.759,182.135,443.61,183.999,443.288C185.863,442.967,186.396,441.473,186.581,440.318C186.767,439.163,186.606,438.346,186.49,437.411C186.373,436.477,186.301,435.424,188.445,436.853C190.589,438.282,194.948,442.192,196.479,444.15C198.01,446.108,196.712,446.113,197.71,444.261C198.708,442.408,202.001,438.697,205.694,439.002C209.387,439.307,213.479,443.628,217.36,444.227C221.241,444.827,224.911,441.707,227.611,440.496C230.31,439.285,232.039,439.983,232.217,440.586C232.394,441.188,231.021,441.694,231.778,443.056C232.534,444.418,235.421,446.636,238.654,446.369C241.887,446.101,245.466,443.348,247.248,442.53C249.031,441.713,249.017,442.831,249.786,443.534C250.555,444.237,252.106,444.525,254.233,442.909C256.36,441.293,259.062,437.773,261.584,438.502C264.106,439.231,266.447,444.209,268.12,445.313C269.792,446.416,270.796,443.645,273.094,441.13C275.393,438.615,278.987,436.357,281.922,435.764C284.858,435.171,287.135,436.244,289.364,436.975C291.593,437.705,293.773,438.094,295.215,439.039C296.657,439.985,297.36,441.489,298.274,441.318C299.188,441.147,300.313,439.302,299.94,439.221C299.567,439.141,297.695,440.825,300.054,442.535C302.413,444.244,309.002,445.98,313.224,447.186C317.446,448.391,319.3,449.066,321.34,446.302C323.38,443.538,325.606,437.337,329.167,436.254C332.729,435.172,337.625,439.21,339.811,440.925C341.997,442.64,341.474,442.032,342.554,441.107C343.635,440.182,346.32,438.94,348.489,440.101C350.657,441.262,352.309,444.827,353.838,444.991C355.368,445.155,356.775,441.918,359.151,441.334C361.527,440.749,364.871,442.817,366.698,443.901C368.524,444.986,368.832,445.086,371.357,444.756C373.883,444.425,378.625,443.664,380.663,442.294C382.7,440.924,382.033,438.945,382.76,438.459C383.488,437.972,385.61,438.977,385.696,439.769C385.781,440.56,383.83,441.136,385.131,440.306C386.431,439.475,390.984,437.237,392.502,437.087C394.02,436.937,392.505,438.876,394.962,440.207C397.419,441.537,403.849,442.26,407.586,442.393C411.324,442.525,412.37,442.068,413.428,440.088C414.486,438.108,415.557,434.604,416.291,433.645C417.025,432.686,417.423,434.271,418.14,436.281C418.856,438.291,419.891,440.725,424.206,441.486C428.522,442.248,436.117,441.337,439.129,440.877C442.14,440.418,440.567,440.41,441.762,441.25C442.958,442.09,446.923,443.779,449.297,444.628C451.671,445.478,452.454,445.489,454.253,444.227C456.052,442.965,458.866,440.43,460.957,440.895C463.047,441.36,464.414,444.825,467.407,444.514C470.401,444.203,475.02,440.114,477.483,438.732C479.946,437.351,480.254,438.676,481.817,438.857C483.381,439.039,486.2,438.077,487.712,438.241C489.225,438.406,489.431,439.698,490.245,440.091C491.06,440.484,492.484,439.977,494.741,440.109C496.999,440.24,500.09,441.009,502.183,440.573C504.277,440.136,505.371,438.493,506.145,438.101C506.92,437.71,507.373,438.569,508.309,439.672C509.245,440.776,510.664,442.123,511.613,442.6C512.561,443.078,513.04,442.685,513.841,442.036C514.642,441.386,515.765,440.479,517.222,439.796C518.678,439.112,520.467,438.652,521.088,437.905C521.71,437.158,521.165,436.125,522.304,436.426C523.442,436.728,526.264,438.364,527.922,439.409C529.579,440.455,530.072,440.909,529.521,439.827C528.969,438.746,527.374,436.129,529.258,435.698C531.141,435.268,536.504,437.025,539.307,438.003C542.109,438.981,542.352,439.18,540.893,439.173C539.434,439.166,536.273,438.954,538.324,439.897C540.375,440.839,547.639,442.937,552.19,444.051C556.741,445.166,558.579,445.297,561.05,443.2C563.522,441.103,566.627,436.776,567.63,436.323C568.633,435.87,567.534,439.29,569.066,441.593C570.598,443.896,574.761,445.082,577.299,443.42C579.837,441.757,580.751,437.245,583.281,435.998C585.811,434.75,589.956,436.766,592.848,437.845C595.739,438.925,597.377,439.067,599.467,438.045C601.556,437.023,604.099,434.836,605.896,434.336C607.692,433.836,608.742,435.022,609.795,435.164C610.849,435.306,611.905,434.403,613.937,435.587C615.969,436.77,618.977,440.039,621.218,441.699C623.459,443.359,624.935,443.41,625.523,441.477C626.112,439.543,625.813,435.626,626.726,435.214C627.638,434.801,629.762,437.894,632.999,437.819C636.237,437.744,640.589,434.501,644.04,434.348C647.492,434.194,650.044,437.129,650.395,438.383C650.747,439.636,648.899,439.208,651.079,438.748C653.259,438.288,659.467,437.798,663.594,437.669C667.722,437.541,669.767,437.774,670.476,437.931C671.185,438.087,670.557,438.167,672.461,438.287C674.365,438.407,678.801,438.569,681.92,437.578C685.039,436.588,686.841,434.447,688.46,435.917C690.079,437.387,691.516,442.47,693.146,443.035C694.776,443.601,696.599,439.65,697.801,438.533C699.003,437.416,699.583,439.133,701.366,440.109C703.149,441.085,706.135,441.32,707.908,441.225C709.682,441.131,710.245,440.706,710.669,441.115C711.093,441.523,711.379,442.765,712.263,442.433C713.148,442.101,714.631,440.194,715.391,439.172C716.152,438.149,716.191,438.01,716.252,439.793C716.314,441.576,716.4,445.282,720.163,445.848C723.926,446.413,731.366,443.838,734.738,440.929C738.109,438.02,737.41,434.777,737.569,433.712C737.727,432.647,738.741,433.76,741.774,435.01C744.807,436.261,749.858,437.649,754.009,439.074C758.159,440.499,761.41,441.959,762.502,443.038C763.595,444.118,762.529,444.815,764.098,443.709C765.666,442.602,769.869,439.692,772.256,439.23C774.643,438.769,775.215,440.756,775.965,441.371C776.716,441.987,777.646,441.231,778.503,439.465C779.36,437.699,780.145,434.924,780.079,434.24C780.013,433.557,779.096,434.965,781.436,435.851C783.775,436.738,789.371,437.103,793.898,438.675C798.426,440.247,801.886,443.026,805.148,444.353C808.409,445.681,811.473,445.557,813.461,445.205C815.448,444.854,816.359,444.274,817.305,443.452C818.251,442.629,819.232,441.564,819.516,441.069C819.801,440.573,819.389,440.648,819.764,441.879C820.14,443.109,821.304,445.495,824.327,446.179C827.35,446.863,832.234,445.845,834.557,445.113C836.88,444.38,836.644,443.932,837.023,443.626C837.403,443.32,838.399,443.155,840.067,442.202C841.735,441.249,844.075,439.508,845.507,440.183C846.939,440.858,847.463,443.949,849.34,444.35C851.218,444.751,854.449,442.463,855.976,440.139C857.504,437.814,857.329,435.452,857.802,436.85C858.275,438.248,859.397,443.405,861.695,444.522C863.993,445.638,867.467,442.714,870.643,441.131C873.818,439.548,876.695,439.305,878.895,439.233C881.095,439.161,882.617,439.26,884.188,440.483C885.758,441.707,887.376,444.055,887.948,444.89C888.52,445.726,888.045,445.049,888.592,443.41C889.139,441.771,890.708,439.17,893.749,438.784C896.79,438.399,901.303,440.23,903.431,439.264C905.56,438.299,905.305,434.537,907.685,434.12C910.065,433.704,915.079,436.632,918.159,439.068C921.239,441.505,922.385,443.449,922.248,444.303C922.111,445.157,920.692,444.92,922.565,444.102C924.438,443.283,929.603,441.883,932.042,439.807C934.48,437.731,934.192,434.978,935.659,435.06C937.126,435.142,940.349,438.06,942.259,440.483C944.169,442.906,944.767,444.835,945.625,444.337C946.483,443.839,947.601,440.916,948.898,439.014C950.195,437.113,951.67,436.234,952.609,436.45C953.548,436.665,953.95,437.975,955.807,438.336C957.664,438.697,960.977,438.11,963.306,438.214C965.636,438.319,966.983,439.116,968.099,438.207C969.215,437.298,970.1,434.683,970.641,436.012C971.182,437.341,971.379,442.615,973.456,443.862C975.533,445.108,979.49,442.328,981.554,439.06C983.618,435.792,983.788,432.037,983.491,429.133C983.194,426.229,982.429,424.176,980.868,421.317C979.306,418.458,976.948,414.793,975.515,412.709C974.083,410.626,973.577,410.125,973.414,410.159C973.251,410.194,973.432,410.764,972.59,410.617C971.749,410.471,969.884,409.608,968.893,410.575C967.901,411.541,967.783,414.336,966.139,414.015C964.495,413.694,961.325,410.257,960.08,409.346C958.835,408.435,959.514,410.052,958.688,410.931C957.863,411.811,955.532,411.954,953.622,412.661C951.713,413.369,950.224,414.64,948.747,413.885C947.27,413.13,945.806,410.348,944.725,409.281C943.643,408.215,942.944,408.863,942.549,408.887C942.154,408.911,942.064,408.31,941.511,407.642C940.958,406.974,939.942,406.239,938.991,406.672C938.041,407.104,937.156,408.704,936.387,409.005C935.617,409.306,934.962,408.307,933.397,409.158C931.831,410.009,929.353,412.709,927.417,413.501C925.48,414.293,924.083,413.177,923.105,412.218C922.127,411.258,921.566,410.456,921.368,411.578C921.169,412.7,921.332,415.746,919.268,414.611C917.203,413.477,912.913,408.16,910.041,406.711C907.169,405.262,905.715,407.68,905.081,409.088C904.447,410.497,904.632,410.895,905.055,410.363C905.479,409.831,906.141,408.367,906.139,408.026C906.137,407.684,905.471,408.464,900.884,408.896C896.296,409.327,887.786,409.41,884.379,410.013C880.973,410.615,882.669,411.738,881.814,412.712C880.958,413.687,877.55,414.513,875.24,413.229C872.93,411.945,871.717,408.552,870.071,408.16C868.426,407.768,866.348,410.377,863.998,409.835C861.648,409.293,859.025,405.599,857.286,404.549C855.546,403.499,854.691,405.092,852.302,405.007C849.914,404.922,845.992,403.158,842.967,402.983C839.942,402.808,837.813,404.221,835.4,405.735C832.988,407.25,830.292,408.866,828.526,409.147C826.76,409.428,825.924,408.373,825.889,407.207C825.855,406.04,826.622,404.762,824.49,405.751C822.358,406.741,817.327,409.997,814.773,410.758C812.22,411.518,812.144,409.783,810.84,409.083C809.537,408.383,807.006,408.718,804.498,409.156C801.991,409.594,799.507,410.135,798.322,409.83C797.136,409.525,797.25,408.373,796.751,408.83C796.253,409.287,795.144,411.353,795.161,410.993C795.179,410.633,796.324,407.848,795.642,406.62C794.961,405.392,792.454,405.721,788.797,406.095C785.14,406.469,780.333,406.889,778.44,406.835C776.546,406.781,777.566,406.254,775.148,406.702C772.73,407.15,766.874,408.574,763.714,409.122C760.553,409.671,760.089,409.344,760.22,409.2C760.35,409.056,761.076,409.095,760.977,408.779C760.878,408.464,759.956,407.793,759.432,408.263C758.909,408.733,758.786,410.342,755.727,409.883C752.669,409.424,746.675,406.895,743.468,406.695C740.261,406.494,739.84,408.622,739.681,410.577C739.522,412.531,739.625,414.313,737.881,414.86C736.137,415.407,732.544,414.719,730.081,412.441C727.617,410.163,726.283,406.295,724.579,405.627C722.875,404.959,720.803,407.492,719.259,407.904C717.715,408.317,716.7,406.61,714.451,405.992C712.202,405.374,708.718,405.846,705.755,406.141C702.792,406.436,700.35,406.553,698.69,406.02C697.03,405.487,696.153,404.302,694.2,405.208C692.248,406.114,689.221,409.11,686.042,409.89C682.864,410.67,679.533,409.234,677.906,408.89C676.279,408.545,676.356,409.293,676.365,409.9C676.375,410.508,676.318,410.976,675.724,410.196C675.13,409.416,673.998,407.388,673.724,407.696C673.449,408.004,674.031,410.648,673.482,412.001C672.932,413.354,671.251,413.416,667.925,412.596C664.6,411.775,659.631,410.074,656.93,409.469C654.229,408.863,653.797,409.355,653.414,409.652C653.03,409.949,652.694,410.051,652.171,410.223C651.648,410.395,650.938,410.636,649.239,411.593C647.54,412.55,644.853,414.223,642.886,413.088C640.92,411.954,639.674,408.013,637.883,406.415C636.091,404.816,633.753,405.56,632.438,406.141C631.123,406.722,630.83,407.14,630.085,407.889C629.34,408.638,628.142,409.716,626.561,410.491C624.98,411.265,623.016,411.736,622.424,410.139C621.831,408.543,622.61,404.881,620.753,403.988C618.896,403.095,614.403,404.972,612.619,406.478C610.834,407.985,611.759,409.12,610.516,408.26C609.273,407.399,605.862,404.542,603.281,403.124C600.7,401.705,598.95,401.726,596.324,403.159C593.698,404.592,590.196,407.437,587.286,408.258C584.376,409.078,582.057,407.874,580.795,407.881C579.533,407.887,579.328,409.105,579.53,409.475C579.732,409.845,580.34,409.368,579.595,409.339C578.849,409.31,576.749,409.73,576.743,410.095C576.736,410.46,578.823,410.771,577.179,411.795C575.534,412.82,570.159,414.559,566.978,415.337C563.797,416.115,562.811,415.933,562.206,413.832C561.6,411.732,561.375,407.715,558.478,406.442C555.58,405.168,550.01,406.639,546.62,408.394C543.229,410.149,542.019,412.188,540.781,413.477C539.544,414.766,538.281,415.305,537.313,415.124C536.344,414.943,535.671,414.043,534.511,413.282C533.352,412.521,531.706,411.9,529.961,410.576C528.215,409.252,526.371,407.224,526.005,406.548C525.64,405.871,526.754,406.545,526.442,407.766C526.129,408.986,524.39,410.752,520.643,411.214C516.896,411.677,511.142,410.835,509.357,409.792C507.572,408.749,509.756,407.503,508.962,407.007C508.168,406.51,504.396,406.763,501.631,406.423C498.866,406.084,497.109,405.153,494.69,404.684C492.271,404.214,489.19,404.207,488.288,405.719C487.385,407.231,488.661,410.262,486.231,411.302C483.801,412.341,477.664,411.389,474.893,412.459C472.123,413.53,472.718,416.623,470.872,416.412C469.026,416.2,464.74,412.685,463.768,411.308C462.795,409.931,465.137,410.692,463.888,411.338C462.639,411.985,457.8,412.516,454.043,410.988C450.286,409.46,447.61,405.872,446.344,405.013C445.077,404.153,445.219,406.022,443.441,407.443C441.662,408.863,437.962,409.835,435.798,409.683C433.633,409.531,433.003,408.255,430.768,408.349C428.533,408.442,424.692,409.905,422.566,409.379C420.439,408.854,420.027,406.34,419.079,405.836C418.13,405.332,416.646,406.837,415.383,406.911C414.12,406.984,413.078,405.626,410.815,405.864C408.553,406.102,405.07,407.937,402.749,409.568C400.427,411.199,399.265,412.627,398.896,412.684C398.527,412.741,398.95,411.427,397.841,410.749C396.732,410.071,394.091,410.029,392.785,410.091C391.479,410.154,391.508,410.321,391.756,410.934C392.003,411.548,392.469,412.607,391.488,412.367C390.507,412.127,388.08,410.588,386.088,408.803C384.096,407.017,382.539,404.986,381.231,405.185C379.923,405.383,378.864,407.811,377.263,407.581C375.663,407.351,373.521,404.462,371.362,405.85C369.203,407.237,367.026,412.901,364.959,415.336C362.893,417.771,360.936,416.977,358.762,415.504C356.589,414.031,354.199,411.879,352.059,411.58C349.918,411.281,348.025,412.834,347.165,412.812C346.305,412.79,346.478,411.192,345.817,410.485C345.157,409.777,343.664,409.961,342.548,410.793C341.432,411.625,340.694,413.106,339.564,414.087C338.433,415.068,336.91,415.549,335.556,415.296C334.201,415.043,333.015,414.055,332.892,411.903C332.769,409.75,333.708,406.433,332.04,405.784C330.371,405.135,326.096,407.154,321.52,409C316.944,410.846,312.067,412.518,309.209,412.725C306.35,412.931,305.51,411.672,306.331,411.419C307.153,411.166,309.637,411.918,307.958,412.595C306.28,413.273,300.439,413.875,295.591,412.854C290.743,411.833,286.887,409.188,285.319,408.005C283.752,406.822,284.474,407.101,284.129,406.176C283.784,405.252,282.372,403.125,279.954,404.03C277.537,404.934,274.114,408.871,272.626,410.319C271.139,411.767,271.587,410.727,269.634,409.837C267.681,408.948,263.327,408.209,261.36,408.711C259.394,409.212,259.814,410.954,259.126,409.793C258.438,408.633,256.642,404.569,253.718,404.629C250.794,404.688,246.742,408.871,243.998,409.875C241.254,410.879,239.819,408.706,238.492,408.513C237.164,408.321,235.945,410.11,234.99,411.004C234.034,411.897,233.342,411.895,232.085,411.23C230.828,410.565,229.007,409.237,227.425,408.674C225.844,408.11,224.501,408.31,225.072,409.06C225.644,409.809,228.128,411.108,226.706,411.716C225.284,412.325,219.955,412.243,216.892,411.377C213.829,410.511,213.032,408.861,212.166,407.666C211.301,406.471,210.368,405.732,208.738,406.055C207.107,406.378,204.78,407.764,203.422,409.517C202.064,411.27,201.675,413.389,201.782,414.317C201.889,415.246,202.493,414.983,200.652,414.101C198.81,413.219,194.523,411.717,191.948,410.543C189.372,409.368,188.507,408.521,187.278,408.271C186.049,408.02,184.456,408.366,182.783,407.717C181.11,407.068,179.358,405.424,178.23,405.219C177.101,405.015,176.597,406.25,175.684,407.353C174.772,408.457,173.452,409.429,172.797,409.525C172.141,409.622,172.151,408.843,172.468,409.125C172.785,409.406,173.41,410.748,172.687,410.512C171.963,410.277,169.891,408.465,167.526,408.099C165.161,407.733,162.504,408.813,158.953,410.09C155.402,411.366,150.958,412.839,148.629,412.771C146.299,412.704,146.085,411.096,146.101,410.581C146.118,410.067,146.366,410.647,145.9,409.879C145.434,409.11,144.254,406.993,142.409,407.06C140.564,407.127,138.055,409.377,137.447,410.084C136.839,410.791,138.132,409.955,136.254,409.399C134.376,408.844,129.325,408.57,126.776,408.914C124.227,409.257,124.178,410.219,124.534,410.241C124.89,410.262,125.651,409.343,125.328,408.536C125.004,407.728,123.597,407.032,121.859,407.633C120.12,408.233,118.052,410.13,116.345,411.822C114.638,413.513,113.293,415,111.429,414.65C109.565,414.3,107.183,412.113,105.455,410.936C103.727,409.759,102.652,409.591,101.149,409.985C99.647,410.379,97.716,411.334,97.351,411.112C96.987,410.89,98.189,409.491,97.17,407.999C96.151,406.508,92.91,404.925,90.433,404.763C87.955,404.601,86.24,405.858,85.202,407.321C84.164,408.784,83.803,410.451,82.694,410.911C81.586,411.37,79.731,410.622,78.922,410.097C78.113,409.572,78.35,409.27,78.232,410.299C78.114,411.327,77.641,413.686,76.119,413.784C74.598,413.881,72.029,411.719,71.505,410.369C70.982,409.02,72.504,408.484,71.312,408.412C70.121,408.34,66.215,408.732,64.554,408.35C62.893,407.969,63.476,406.812,63.281,406.888C63.086,406.963,62.112,408.271,60.314,408.619C58.515,408.968,55.891,408.358,53.98,408.453C52.069,408.548,50.871,409.347,51.412,409.658C51.954,409.969,54.236,409.791,54.428,409.87C54.62,409.948,52.722,410.282,48.379,410.461C44.035,410.64,37.246,410.663,34.343,409.827C31.44,408.99,32.423,407.293,30.509,406.259C28.594,405.226,23.782,404.856,21.683,404.214C19.585,403.572,20.2,402.659,20.087,402.566C19.975,402.473,19.134,403.2,18.779,401.531C18.424,399.862,18.556,395.797,21.708,391.925C24.86,388.054,31.032,384.376,34.497,382.031C37.963,379.686,38.721,378.672,38.868,377.457C39.015,376.243,38.549,374.827,40.272,375.307C41.995,375.787,45.907,378.162,48.086,380.323C50.265,382.484,50.712,384.43,50.762,384.555C50.811,384.681,50.463,382.986,53.015,382.967C55.567,382.949,61.018,384.606,63.901,383.688C66.784,382.769,67.099,379.275,68.204,378.602C69.309,377.928,71.203,380.074,72.159,380.253C73.114,380.431,73.131,378.643,74.625,378.798C76.119,378.953,79.091,381.052,82.109,381.331C85.128,381.609,88.192,380.066,88.9,380.015C89.608,379.963,87.959,381.403,88.966,381.72C89.974,382.036,93.639,381.23,94.49,381.254C95.34,381.279,93.376,382.135,94.664,380.819C95.952,379.504,100.493,376.018,102.537,375.905C104.581,375.792,104.128,379.051,106.83,380.048C109.532,381.045,115.389,379.78,118.194,379.018C121,378.256,120.753,377.998,122.17,378.534C123.586,379.07,126.666,380.4,128.341,380.485C130.016,380.571,130.288,379.41,130.903,378.917C131.518,378.423,132.477,378.596,132.778,378.718C133.079,378.84,132.723,378.91,132.462,379.532C132.202,380.153,132.038,381.325,132.48,381.323C132.922,381.32,133.969,380.142,136.241,379.447C138.514,378.752,142.011,378.539,144.264,378.337C146.517,378.134,147.526,377.941,148.4,378.859C149.274,379.777,150.012,381.806,150.201,383.579C150.391,385.352,150.031,386.869,152.1,385.126C154.168,383.384,158.665,378.381,162.807,377.628C166.95,376.874,170.738,380.369,172.526,381.981C174.315,383.593,174.102,383.322,174.992,384.269C175.881,385.217,177.872,387.383,178.904,387.153C179.936,386.922,180.008,384.295,183.178,383.201C186.348,382.107,192.616,382.548,196.151,383.737C199.685,384.926,200.487,386.864,202.741,385.87C204.995,384.875,208.701,380.949,211.054,379.341C213.406,377.734,214.404,378.446,214.636,380.12C214.867,381.794,214.331,384.429,215.158,383.745C215.986,383.06,218.177,379.055,219.664,379.099C221.152,379.143,221.936,383.235,224.081,382.713C226.225,382.19,229.731,377.052,234.405,376.204C239.079,375.355,244.922,378.795,247.563,379.377C250.204,379.958,249.643,377.682,250.347,377.614C251.051,377.545,253.021,379.684,255.145,379.692C257.27,379.701,259.549,377.579,260.637,377.694C261.726,377.81,261.625,380.163,261.964,381.409C262.303,382.656,263.083,382.796,265.008,382.403C266.933,382.01,270.005,381.084,271.515,381.428C273.026,381.772,272.976,383.386,275.012,384.568C277.049,385.749,281.171,386.498,284.013,384.922C286.854,383.347,288.414,379.447,290.436,377.469C292.458,375.491,294.941,375.435,297.159,376.207C299.376,376.979,301.328,378.58,302.486,379.8C303.645,381.019,304.01,381.856,304.196,381.971C304.383,382.086,304.391,381.478,306.052,380.766C307.713,380.054,311.027,379.237,312.786,379.7C314.544,380.162,314.748,381.904,315.33,381.522C315.913,381.141,316.875,378.636,318.095,378.029C319.314,377.421,320.791,378.711,320.315,380.124C319.839,381.537,317.411,383.074,317.833,381.802C318.255,380.529,321.529,376.447,325.156,375.915C328.784,375.383,332.766,378.402,335.944,379.691C339.122,380.98,341.496,380.541,344.496,380.179C347.497,379.818,351.124,379.536,352.063,379.663C353.002,379.791,351.251,380.328,352.941,380.472C354.631,380.617,359.76,380.368,361.395,380.689C363.031,381.011,361.172,381.901,361.697,381.926C362.223,381.952,365.132,381.112,368.409,380.919C371.685,380.726,375.328,381.178,377.198,381.13C379.069,381.082,379.166,380.532,378.852,380.567C378.538,380.601,377.811,381.219,378.628,381.095C379.445,380.97,381.805,380.104,383.032,379.716C384.258,379.327,384.352,379.418,384.291,379.933C384.231,380.448,384.017,381.388,383.277,381.519C382.536,381.651,381.27,380.974,381.547,380.698C381.825,380.423,383.647,380.549,387.235,380.834C390.823,381.119,396.178,381.563,400.562,381.46C404.945,381.356,408.359,380.706,410.147,380.291C411.936,379.876,412.1,379.696,412.346,379.489C412.592,379.283,412.919,379.05,412.124,378.98C411.329,378.91,409.411,379.003,410.403,378.831C411.396,378.66,415.299,378.224,417.841,377.969C420.382,377.715,421.562,377.642,422.684,377.75C423.806,377.859,424.87,378.15,424.818,378.31C424.765,378.47,423.596,378.501,423.655,378.829C423.713,379.158,424.999,379.785,427.194,380.165C429.39,380.545,432.495,380.677,434.714,379.427C436.934,378.177,438.269,375.545,440.139,373.778C442.009,372.012,444.414,371.111,447.65,371.567C450.885,372.024,454.951,373.839,457.68,377.093C460.409,380.348,461.801,385.042,465.045,385.748C468.289,386.455,473.384,383.173,476.037,380.78C478.69,378.387,478.902,376.882,481.241,376.617C483.58,376.351,488.045,377.325,489.016,377.199C489.987,377.073,487.463,375.848,490.718,376.136C493.974,376.424,503.008,378.226,507.976,379.126C512.945,380.025,513.847,380.022,514.638,380.057C515.428,380.092,516.108,380.165,516.423,379.409C516.739,378.653,516.689,377.069,517.355,376.378C518.021,375.687,519.403,375.889,520.008,376.917C520.614,377.945,520.443,379.798,521.728,380.981C523.013,382.164,525.755,382.677,528.079,382.408C530.404,382.14,532.312,381.09,534.086,380.54C535.861,379.991,537.501,379.941,538.267,381.292C539.034,382.643,538.926,385.394,540.343,385.275C541.76,385.157,544.7,382.17,546.602,381.017C548.504,379.864,549.367,380.546,549.721,380.651C550.076,380.757,549.921,380.287,550.291,380.012C550.662,379.737,551.558,379.657,553.079,379.409C554.6,379.16,556.745,378.744,559.015,379.546C561.285,380.349,563.679,382.372,564.924,382.66C566.17,382.948,566.267,381.503,565.474,379.798C564.682,378.093,562.999,376.13,565.335,376.763C567.672,377.397,574.026,380.627,577.72,381.77C581.415,382.913,582.448,381.969,584.078,380.323C585.707,378.678,587.933,376.332,589.805,376.242C591.676,376.153,593.192,378.32,594.37,379.251C595.548,380.182,596.387,379.876,595.579,379.74C594.77,379.605,592.314,379.638,593.13,380.994C593.946,382.35,598.033,385.028,601.322,385.961C604.61,386.895,607.099,386.084,609.796,385.132C612.493,384.179,615.398,383.085,617.961,383.289C620.524,383.494,622.747,384.996,624.418,384.548C626.09,384.099,627.212,381.699,626.856,380.467C626.5,379.234,624.666,379.17,626.631,380.735C628.595,382.3,634.358,385.493,638.608,387.052C642.857,388.611,645.594,388.535,647.188,386.783C648.781,385.031,649.233,381.604,652.067,379.639C654.902,377.674,660.119,377.172,663.352,375.956C666.585,374.741,667.833,372.813,668.218,373.542C668.602,374.271,668.123,377.657,670.877,379.045C673.632,380.433,679.62,379.822,683,378.765C686.379,377.708,687.15,376.205,687.187,376.099C687.225,375.994,686.528,377.286,688.353,377.443C690.179,377.599,694.527,376.62,696.914,376.397C699.302,376.175,699.728,376.709,701.562,377.062C703.396,377.414,706.638,377.583,707.595,377.38C708.552,377.177,707.224,376.602,709.516,376.956C711.807,377.309,717.718,378.592,721.903,378.949C726.089,379.306,728.549,378.736,729.238,377.651C729.927,376.567,728.845,374.969,730.551,376.006C732.256,377.043,736.749,380.715,738.456,382.95C740.163,385.185,739.083,385.983,740.885,384.815C742.686,383.647,747.368,380.512,750.494,379.366C753.62,378.22,755.19,379.063,756.834,379.309C758.478,379.556,760.196,379.206,761.526,379.107C762.856,379.008,763.796,379.159,764.558,379.006C765.32,378.853,765.904,378.396,765.922,377.539C765.941,376.682,765.395,375.424,766.424,375.709C767.453,375.993,770.056,377.82,772.583,378.192C775.109,378.565,777.559,377.483,778.863,377.334C780.168,377.186,780.328,377.97,780.721,379.275C781.114,380.58,781.74,382.407,782.838,382.621C783.935,382.836,785.503,381.439,786.314,381.687C787.125,381.935,787.178,383.829,788.682,384.793C790.186,385.758,793.14,385.793,795.861,384.594C798.582,383.394,801.07,380.959,802.816,378.806C804.563,376.653,805.569,374.782,807.509,373.604C809.45,372.425,812.326,371.939,814.915,373.999C817.503,376.06,819.804,380.668,822.069,382.129C824.335,383.591,826.564,381.907,827.723,381.087C828.883,380.267,828.972,380.313,829.095,379.55C829.218,378.788,829.375,377.217,829.335,378.443C829.295,379.668,829.058,383.69,831.931,384.777C834.803,385.863,840.785,384.015,845.455,382.905C850.125,381.795,853.483,381.424,855.327,380.992C857.17,380.559,857.5,380.067,858.283,380.379C859.067,380.691,860.304,381.809,861.494,382.199C862.684,382.589,863.827,382.253,863.403,382.969C862.979,383.684,860.988,385.451,863.208,386.18C865.428,386.909,871.859,386.599,874.439,385.088C877.02,383.577,875.75,380.865,877.134,379.492C878.518,378.119,882.556,378.085,885.869,378.578C889.182,379.071,891.77,380.091,894.326,379.743C896.882,379.395,899.405,377.678,899.584,377.38C899.762,377.082,897.594,378.202,898.948,378.325C900.302,378.447,905.178,377.571,908.779,377.821C912.381,378.072,914.709,379.449,914.92,378.869C915.131,378.289,913.226,375.751,913.406,375.589C913.587,375.427,915.854,377.642,919.4,378.708C922.946,379.775,927.772,379.692,930.471,381.252C933.17,382.812,933.744,386.014,935.916,386.09C938.089,386.166,941.861,383.116,943.972,381.212C946.084,379.308,946.535,378.55,946.964,377.833C947.393,377.117,947.8,376.442,948.507,375.807C949.214,375.173,950.221,374.578,951.294,376.164C952.367,377.75,953.506,381.517,955.913,381.464C958.32,381.411,961.995,377.539,965.36,376.274C968.725,375.01,971.78,376.355,973.403,377.449C975.025,378.544,975.214,379.388,974.811,378.704C974.408,378.019,973.412,375.806,973.491,376.586C973.571,377.367,974.725,381.141,976.531,381.519C978.336,381.897,980.793,378.879,984.255,376.696C987.717,374.513,992.184,373.165,995.089,371.691C997.994,370.218,999.337,368.62,997.756,364.893C996.175,361.166,991.671,355.311,989.879,350.373C988.086,345.435,989.005,341.413,988.255,337.947C987.505,334.481,985.087,331.569,984.881,328.445C984.676,325.321,986.683,321.984,985.31,319.029C983.938,316.075,979.186,313.503,976.477,312.036C973.768,310.57,973.103,310.209,972.958,310.189C972.812,310.168,973.185,310.487,973.972,311.418C974.759,312.349,975.959,313.891,973.274,312.671C970.589,311.451,964.019,307.47,960.839,306.452C957.659,305.435,957.87,307.382,956.643,309.733C955.415,312.084,952.75,314.839,949.762,314.047C946.774,313.255,943.463,308.917,942.023,307.24C940.582,305.563,941.013,306.548,938.53,307.813C936.047,309.078,930.65,310.624,929.119,310.899C927.589,311.173,929.924,310.177,928.473,310.55C927.023,310.923,921.786,312.665,918.681,312.613C915.577,312.561,914.604,310.715,913.574,311.006C912.544,311.298,911.455,313.728,908.968,313.799C906.48,313.871,902.592,311.583,900.616,310.563C898.641,309.542,898.577,309.789,897.753,308.737C896.93,307.686,895.347,305.336,893.577,304.806C891.807,304.276,889.85,305.565,888.611,307.113C887.371,308.661,886.848,310.468,886.211,311.224C885.574,311.98,884.823,311.685,884.227,311.67C883.631,311.656,883.191,311.921,883.303,312.867C883.416,313.812,884.081,315.437,880.773,315.537C877.465,315.638,870.183,314.215,865.708,313.618C861.234,313.021,859.567,313.25,858.852,313.191C858.136,313.132,858.372,312.784,857.792,311.445C857.212,310.107,855.817,307.779,854.205,307.298C852.594,306.818,850.766,308.185,848.669,309.119C846.571,310.053,844.203,310.554,842.32,310.141C840.437,309.727,839.039,308.399,839.284,307.54C839.53,306.682,841.42,306.292,840.505,307.313C839.589,308.333,835.868,310.763,832.647,310.471C829.427,310.18,826.706,307.166,825.19,307.176C823.673,307.185,823.36,310.216,821.487,309.793C819.614,309.369,816.181,305.49,812.808,305.055C809.436,304.62,806.124,307.629,805.269,310.267C804.415,312.904,806.019,315.17,804.418,316.304C802.818,317.439,798.015,317.441,794.658,315.242C791.301,313.043,789.391,308.642,787.114,306.508C784.838,304.374,782.194,304.507,780.549,305.512C778.904,306.518,778.258,308.398,777.063,309.482C775.869,310.566,774.127,310.855,773.684,310.408C773.241,309.961,774.097,308.777,773.606,308.741C773.115,308.705,771.277,309.817,770.103,309.481C768.929,309.145,768.42,307.362,767.574,306.146C766.728,304.929,765.546,304.281,762.672,304.938C759.799,305.595,755.233,307.558,752.828,308.441C750.423,309.324,750.178,309.128,750.681,309.093C751.183,309.058,752.432,309.183,751.399,308.25C750.366,307.318,747.051,305.327,741.847,306.506C736.644,307.685,729.552,312.033,725.299,312.41C721.046,312.787,719.63,309.194,718.232,308.439C716.834,307.685,715.453,309.77,714.542,310.437C713.631,311.104,713.19,310.353,712.094,310.145C710.999,309.936,709.248,310.27,709.713,310.291C710.177,310.312,712.856,310.019,711.129,310.265C709.401,310.511,703.267,311.295,699.987,311.936C696.707,312.576,696.28,313.073,695.929,313.135C695.578,313.197,695.303,312.823,693.764,313.065C692.225,313.307,689.421,314.163,688.371,313.266C687.32,312.369,688.022,309.719,686.236,308.948C684.45,308.178,680.175,309.286,678.709,309.347C677.242,309.408,678.584,308.422,677.647,309.117C676.711,309.812,673.498,312.187,670.99,312.66C668.482,313.133,666.678,311.703,665.716,311.642C664.755,311.581,664.635,312.89,662.801,312.399C660.967,311.909,657.42,309.619,656.712,308.813C656.004,308.007,658.135,308.684,657.64,309.842C657.144,311,654.022,312.638,650.875,311.761C647.728,310.883,644.556,307.491,642.743,307.191C640.929,306.892,640.474,309.685,639.525,309.936C638.575,310.187,637.132,307.897,633.12,306.814C629.109,305.73,622.528,305.853,619.264,306.537C616,307.221,616.052,308.465,615.075,308.814C614.098,309.164,612.092,308.62,610.984,307.578C609.877,306.537,609.669,304.998,609.286,305.26C608.903,305.523,608.345,307.586,606.292,308.66C604.239,309.733,600.691,309.817,598.444,310.549C596.197,311.28,595.25,312.66,593.576,313.095C591.902,313.531,589.5,313.022,589.083,313.208C588.666,313.394,590.234,314.274,589.678,313.688C589.122,313.101,586.443,311.046,583.406,308.581C580.37,306.116,576.976,303.241,574.076,303.433C571.177,303.625,568.772,306.886,568.298,308.997C567.824,311.109,569.281,312.071,567.647,312.128C566.013,312.184,561.286,311.334,559.198,310.645C557.11,309.955,557.66,309.426,556.694,308.862C555.729,308.297,553.248,307.699,550.943,308.647C548.637,309.596,546.506,312.091,545.023,311.355C543.539,310.619,542.703,306.651,539.794,307.402C536.885,308.153,531.903,313.623,528.293,314.609C524.684,315.594,522.447,312.094,522.355,309.58C522.263,307.065,524.317,305.536,521.393,305.197C518.469,304.857,510.568,305.706,505.99,307.33C501.412,308.955,500.156,311.354,499.147,311.766C498.138,312.178,497.376,310.602,497.083,308.826C496.79,307.049,496.967,305.072,495.68,304.704C494.393,304.337,491.643,305.578,489.654,307.489C487.664,309.4,486.435,311.98,484.994,312.801C483.553,313.621,481.899,312.682,480.411,313.306C478.923,313.929,477.601,316.116,475.96,315.827C474.318,315.538,472.358,312.773,472.835,311.272C473.312,309.77,476.228,309.53,474.853,308.703C473.478,307.876,467.814,306.46,463.741,306.359C459.669,306.257,457.188,307.469,456.206,308.172C455.224,308.874,455.739,309.068,456.098,308.642C456.456,308.216,456.658,307.172,454.186,307.178C451.714,307.184,446.569,308.241,443.329,309.62C440.089,310.998,438.753,312.699,438.527,313.931C438.301,315.164,439.185,315.928,438.213,315.623C437.241,315.319,434.413,313.945,431.735,312.601C429.057,311.258,426.53,309.946,424.62,310.418C422.71,310.89,421.417,313.147,420.068,314.46C418.719,315.773,417.314,316.143,416.194,315.881C415.074,315.618,414.239,314.722,411.781,314.562C409.323,314.402,405.242,314.977,402.362,313.925C399.483,312.873,397.805,310.193,396.045,309.463C394.285,308.733,392.442,309.952,391.279,310.821C390.116,311.69,389.633,312.209,390.166,311.254C390.698,310.299,392.245,307.87,389.487,308.383C386.73,308.897,379.668,312.353,376.137,314.081L372.607,315.809"></path>
      </svg>
      