<?xml version="1.0" encoding="UTF-8" standalone="no"?>
    <!-- Created with Inkscape (https://labs.original.art.br/draw) -->
    
    <svg
       xmlns:dc="http://purl.org/dc/elements/1.1/"
       xmlns:cc="http://creativecommons.org/ns#"
       xmlns:rdf="http://www.w3.org/1999/02/22-rdf-syntax-ns#"
       xmlns:svg="http://www.w3.org/2000/svg"
       xmlns="http://www.w3.org/2000/svg"
       xmlns:sodipodi="http://sodipodi.sourceforge.net/DTD/sodipodi-0.dtd"
       xmlns:inkscape="http://www.inkscape.org/namespaces/inkscape"
       id="Hpay8"
       version="1.1"
       inkscape:version="0.91 r13725"
       width="undefined"
       height="undefined"
       viewBox="0 0 undefined undefined"
       sodipodi:docname="_paths4.svg">
      <metadata
         id="metadata3404">
        <rdf:RDF>
          <cc:Work
             rdf:about="">
            <dc:format>image/svg+xml</dc:format>
            <dc:type
               rdf:resource="http://purl.org/dc/dcmitype/StillImage" />
            <dc:title></dc:title>
          </cc:Work>
        </rdf:RDF>
      </metadata>
      undefined<path fill="none" stroke-width="1" style="stroke: rgb(0, 71, 171);" d="M980,500C980,500,860.338,779.807,800.535,850.802C740.732,921.796,708.536,928.204,621.183,925.966C533.83,923.729,351.269,874.537,276.419,837.378C201.569,800.218,190.015,776.802,172.082,703.008C154.15,629.214,154.625,465.334,168.824,394.614C183.023,323.893,222.176,308.612,257.276,278.685C292.377,248.758,337.478,226.533,379.428,215.051C421.378,203.57,468.722,202.775,508.976,209.796C549.229,216.818,589.694,235.16,620.95,257.179C652.207,279.198,678.988,310.913,696.515,341.911C714.042,372.909,723.793,410.257,726.112,443.167C728.431,476.077,721.588,511.116,710.428,539.371C699.268,567.627,679.564,593.865,659.15,612.701C638.736,631.538,612.063,645.139,587.946,652.392C563.828,659.644,536.741,659.952,514.445,656.216C492.149,652.479,470.357,641.803,454.169,629.973C437.981,618.142,425.17,600.898,417.315,585.234C409.46,569.571,406.668,551.025,407.038,535.989C407.408,520.953,413.078,505.872,419.535,495.018C425.992,484.164,436.633,475.688,445.778,470.866C454.923,466.044,466.201,465.045,474.404,466.088C482.607,467.13,490.574,472.176,494.996,477.119C499.417,482.062,501.577,489.976,500.933,495.745C500.289,501.515,490.648,511.37,491.132,511.736C491.616,512.102,498.464,500.135,503.838,497.94C509.213,495.745,517.415,495.662,523.378,498.566C529.34,501.469,536.371,507.755,539.613,515.361C542.856,522.968,544.975,534.09,542.834,544.204C540.694,554.318,535.446,566.87,526.768,576.046C518.09,585.221,505.13,594.794,490.767,599.256C476.403,603.719,457.8,606.098,440.587,602.819C423.373,599.54,403.286,591.926,387.484,579.584C371.683,567.242,355.461,549.195,345.778,528.767C336.094,508.339,328.993,482.197,329.384,457.015C329.774,431.834,335.573,402.46,348.119,377.679C360.665,352.897,380.524,326.776,404.658,308.324C428.792,289.871,460.629,273.719,492.922,266.962C525.214,260.205,563.806,259.386,598.412,267.781C633.018,276.177,670.841,293.279,700.559,317.334C730.277,341.389,758.973,375.305,776.721,412.111C794.468,448.917,806.633,494.679,807.045,538.17C807.456,581.66,798.393,631.116,779.19,673.056C759.986,714.995,755.978,756.833,691.824,789.806C627.669,822.779,490.417,889.707,394.262,870.893C298.107,852.08,171.082,738.78,114.894,676.923C58.705,615.067,-18.418,602.173,57.132,499.754C132.682,397.336,455.331,121.229,568.194,62.413C681.057,3.598,688.3,109.404,734.309,146.86C780.318,184.315,825.084,209.73,844.246,287.147C863.409,364.564,863.876,536.835,849.282,611.362C834.688,685.888,816.519,701.321,756.682,734.303C696.846,767.286,568.288,819.985,490.263,809.255C412.239,798.525,327.685,711.241,288.535,669.923C249.385,628.604,258.31,596.833,255.363,561.345C252.417,525.857,259.189,487.855,270.855,456.995C282.521,426.135,303.399,397.176,325.359,376.183C347.32,355.191,376.195,339.607,402.618,331.041C429.041,322.476,458.958,321.285,483.897,324.791C508.836,328.296,533.567,339.352,552.253,352.076C570.939,364.8,586.263,383.615,596.015,401.134C605.767,418.653,610.186,439.675,610.765,457.189C611.345,474.703,606.119,492.714,599.491,506.216C592.863,519.717,581.402,531.042,570.996,538.198C560.59,545.353,547.378,548.599,537.054,549.151C526.731,549.703,516.069,545.891,509.055,541.511C502.041,537.132,496.917,529.215,494.97,522.875C493.023,516.536,494.373,508.445,497.372,503.474C500.371,498.503,513.252,493.587,512.965,493.052C512.679,492.517,501.452,500.52,495.652,500.264C489.852,500.009,482.368,496.652,478.167,491.52C473.967,486.388,470.212,477.737,470.45,469.471C470.688,461.206,473.418,450.217,479.595,441.927C485.772,433.637,495.791,424.433,507.512,419.732C519.233,415.03,535.01,411.758,549.922,413.716C564.835,415.674,582.726,421.298,596.988,431.48C611.25,441.661,626.307,456.983,635.494,474.804C644.68,492.626,651.861,515.806,652.107,538.411C652.353,561.017,647.863,587.731,636.971,610.439C626.079,633.146,608.519,657.396,586.754,674.654C564.989,691.912,536.022,707.324,506.381,713.984C476.74,720.644,441.065,721.99,408.909,714.614C376.752,707.237,341.359,691.831,313.442,669.725C285.525,647.618,254.128,637.454,241.405,581.974C228.682,526.494,202.831,407.753,237.106,336.843C271.381,265.934,386.456,188.074,447.056,156.517C507.656,124.959,550.008,139.018,600.706,147.498C651.404,155.977,706.715,176.769,751.243,207.392C795.771,238.016,839.115,282.394,867.875,331.24C896.635,380.086,918.094,441.418,923.802,500.47C929.51,559.522,1013.599,624.148,902.123,685.552C790.647,746.955,388.921,891.606,254.946,868.891C120.97,846.176,102.534,651.961,98.272,549.261C94.01,446.562,184.932,314.272,229.374,252.693C273.816,191.113,318.066,193.284,364.924,179.784C411.781,166.284,464.963,164.458,510.519,171.695C556.075,178.931,602.273,198.773,638.258,223.2C674.243,247.628,708.161,264.351,726.428,318.26C744.694,372.17,753.909,493.878,747.857,546.659C741.806,599.44,713.629,611.803,690.119,634.949C666.61,658.095,635.53,675.661,606.8,685.537C578.07,695.413,545.323,697.483,517.74,694.205C490.158,690.927,462.488,679.489,441.305,665.869C420.121,652.249,402.287,631.859,390.64,612.483C378.993,593.107,372.949,569.605,371.424,549.613C369.898,529.621,374.682,508.679,381.485,492.53C388.287,476.381,400.571,462.209,412.241,452.72C423.911,443.232,439.059,437.743,451.504,435.598C463.95,433.454,477.308,436.035,486.915,439.854C496.522,443.672,504.61,451.596,509.147,458.509C513.685,465.421,515.025,474.756,514.141,481.329C513.257,487.901,508.645,494.685,503.841,497.945C499.037,501.204,485.28,500.279,485.317,500.885C485.353,501.49,498.899,498.92,504.06,501.579C509.22,504.238,514.613,510.419,516.28,516.838C517.948,523.257,517.738,532.686,514.063,540.093C510.388,547.5,503.31,556.338,494.231,561.282C485.151,566.227,472.2,570.393,459.587,569.758C446.974,569.124,431.277,565.493,418.552,557.474C405.827,549.455,391.931,536.86,383.239,521.645C374.546,506.43,367.283,486.213,366.397,466.183C365.512,446.152,368.69,422.095,377.926,401.461C387.162,380.827,402.42,358.443,421.815,342.378C441.21,326.313,467.306,311.636,494.296,305.07C521.285,298.504,554.044,296.628,583.752,302.983C613.459,309.338,646.424,323.045,672.542,343.201C698.661,363.357,724.358,392.16,740.463,423.921C756.567,455.681,768.143,495.544,769.167,533.764C770.192,571.984,763.056,615.834,746.609,653.24C730.163,690.646,703.283,729.627,670.491,758.198C637.699,786.769,618.104,821.366,549.859,824.668C481.615,827.97,327.772,805.352,261.023,778.01C194.274,750.668,173.654,736.581,149.365,660.616C125.076,584.651,44.416,428.189,115.287,322.223C186.158,216.257,467.838,59.295,574.593,24.819C681.348,-9.657,698.136,44.731,755.817,115.369C813.499,186.008,915.891,341.159,920.68,448.651C925.47,556.144,830.953,695.458,784.556,760.327C738.159,825.195,714.215,832.287,642.299,837.862C570.383,843.436,417.01,817.828,353.059,793.775C289.109,769.721,281.056,730.785,258.596,693.54C236.136,656.295,222.492,610.953,218.299,570.307C214.105,529.661,220.748,485.734,233.434,449.666C246.12,413.598,269.353,379.2,294.414,353.901C319.476,328.603,352.763,309.059,383.801,297.875C414.839,286.691,450.417,283.744,480.644,286.797C510.87,289.851,541.478,301.674,565.158,316.194C588.837,330.713,609.181,352.68,622.721,373.916C636.26,395.151,643.926,421.133,646.395,443.605C648.865,466.076,644.519,489.95,637.539,508.746C630.558,527.542,617.449,544.56,604.513,556.38C591.577,568.2,574.49,575.931,559.92,579.666C545.351,583.4,529.296,582.046,517.095,578.786C504.894,575.525,493.842,567.591,486.715,560.103C479.587,552.614,475.558,542.033,474.329,533.856C473.101,525.679,475.79,516.639,479.343,511.04C482.897,505.441,489.925,501.209,495.652,500.26C501.379,499.31,513.485,505.907,513.706,505.341C513.926,504.776,500.548,501.441,496.974,496.867C493.4,492.292,491.088,484.421,492.26,477.894C493.432,471.366,497.568,462.891,504.006,457.702C510.443,452.512,520.57,447.447,530.885,446.756C541.2,446.065,554.706,447.7,565.896,453.555C577.086,459.41,589.824,469.276,598.025,481.884C606.226,494.492,613.576,511.746,615.104,529.203C616.631,546.659,614.769,568.06,607.19,586.623C599.612,605.186,586.659,625.705,569.635,640.581C552.612,655.456,529.387,669.401,505.049,675.875C480.711,682.35,450.868,684.76,423.608,679.428C396.348,674.097,365.81,662.093,341.488,643.889C317.166,625.685,292.963,599.441,277.676,570.205C262.389,540.969,251.103,504.055,249.768,468.47C248.432,432.885,254.6,391.836,269.664,356.695C284.727,321.554,309.559,284.714,340.149,257.623C370.739,230.533,411.466,206.378,453.204,194.151C494.943,181.924,545,177.192,590.581,184.263C636.163,191.333,686.227,209.366,726.695,236.574C767.162,263.782,806.89,303.462,833.386,347.509C859.882,391.556,880.016,447.11,885.67,500.855C891.325,554.601,911.55,599.087,867.312,669.983C823.073,740.88,693.438,878.513,620.238,926.234C547.038,973.954,513.7,986.965,428.111,956.306C342.522,925.647,167.992,809.428,106.701,742.28C45.41,675.131,62.075,615.363,60.365,553.415C58.654,491.467,48.082,438.748,96.438,370.592C144.793,302.437,257.297,174.707,350.498,144.484C443.698,114.262,587.993,164.228,655.642,189.26C723.291,214.292,732.293,255.346,756.393,294.676C780.493,334.007,795.428,382.017,800.241,425.243C805.054,468.468,798.471,515.359,785.271,554.03C772.071,592.7,747.655,629.817,721.04,657.266C694.425,684.715,658.928,706.234,625.58,718.723C592.232,731.213,553.821,735.033,520.951,732.202C488.082,729.371,454.535,717.159,428.36,701.737C402.186,686.315,379.334,662.768,363.904,639.672C348.473,616.575,339.189,588.11,335.778,563.158C332.368,538.206,336.279,511.4,343.44,489.957C350.6,468.515,364.538,448.65,378.743,434.5C392.949,420.351,411.976,410.38,428.672,405.058C445.367,399.736,464.121,399.865,478.917,402.57C493.712,405.276,507.727,413.224,517.444,421.291C527.161,429.358,533.878,441.189,537.217,450.973C540.557,460.757,539.789,472.053,537.483,479.994C535.177,487.935,528.952,495.019,523.381,498.617C517.81,502.216,509.657,503.118,504.058,501.584C498.459,500.05,490.224,488.992,489.787,489.414C489.35,489.835,500.105,498.462,501.437,504.112C502.769,509.763,501.575,517.878,497.779,523.316C493.983,528.754,486.68,534.721,478.661,536.74C470.643,538.76,459.326,539.122,449.668,535.433C440.01,531.744,428.428,524.607,420.715,514.607C413.002,504.607,405.563,490.315,403.39,475.432C401.217,460.549,401.762,441.803,407.68,425.309C413.598,408.816,424.245,390.158,438.896,376.47C453.547,362.782,473.899,349.566,495.585,343.18C517.271,336.794,544.2,333.848,569.013,338.152C593.827,342.456,621.94,352.757,644.468,369.006C666.995,385.256,689.707,408.938,704.179,435.649C718.651,462.361,729.651,496.324,731.3,529.275C732.949,562.225,727.752,600.474,714.074,633.352C700.395,666.23,677.615,700.931,649.228,726.543C620.842,752.156,582.872,775.223,543.753,787.027C504.633,798.83,457.536,803.725,414.511,797.364C371.486,791.002,332.456,798.586,285.603,748.856C238.751,699.126,155.983,567.488,133.396,498.984C110.809,430.479,132.725,389.01,150.081,337.83C167.437,286.651,198.35,232.869,237.531,191.906C276.711,150.943,329.893,113.609,385.165,92.052C440.437,70.495,507.318,58.632,569.164,62.566C631.011,66.499,691.339,51.991,756.244,115.653C821.149,179.316,931.026,357.905,958.593,444.54C986.159,531.175,946.012,578.484,921.642,635.463C897.272,692.442,856.533,746.793,812.373,786.412C768.214,826.031,710.914,856.671,656.686,873.178C602.459,889.684,540.516,893.033,487.008,885.452C433.5,877.872,378.705,855.756,335.638,827.696C292.571,799.636,251.873,781.331,228.605,717.091C205.337,652.851,190.209,506.511,196.028,442.254C201.847,377.997,216.611,363.793,263.519,331.55C310.426,299.307,425.037,257.332,477.474,248.797C529.912,240.262,549.473,264.013,578.142,280.34C606.81,296.666,632.168,321.796,649.487,346.756C666.806,371.716,677.706,402.665,682.055,430.099C686.404,457.533,682.925,487.271,675.581,511.36C668.237,535.45,653.467,558.159,637.99,574.637C622.513,591.116,601.542,603.324,582.719,610.231C563.896,617.138,542.442,618.231,525.051,616.078C507.661,613.925,490.682,605.96,478.377,597.311C466.071,588.663,456.668,575.579,451.219,564.186C445.77,552.793,444.62,539.237,445.681,528.953C446.742,518.67,452.168,508.732,457.585,502.485C463.003,496.238,471.621,492.408,478.186,491.471C484.751,490.535,492.534,493.127,496.977,496.863C501.421,500.6,504.272,514.089,504.846,513.889C505.419,513.689,499.261,501.353,500.416,495.664C501.57,489.975,506.051,483.103,511.775,479.753C517.498,476.403,526.628,474.04,534.755,475.561C542.883,477.083,553.313,481.489,560.541,488.881C567.768,496.273,575.301,507.602,578.121,519.912C580.942,532.222,581.718,548.316,577.463,562.742C573.208,577.168,564.868,593.966,552.592,606.47C540.315,618.974,522.837,631.463,503.802,637.764C484.768,644.065,460.753,647.551,438.385,644.276C416.016,641.001,390.326,632.408,369.591,618.115C348.855,603.822,327.633,582.702,313.973,558.516C300.313,534.331,289.596,503.318,287.63,473.002C285.664,442.685,289.886,407.236,302.177,376.619C314.468,346.002,335.194,313.438,361.376,289.302C387.558,265.165,422.769,243.181,459.269,231.799C495.769,220.416,539.907,215.354,580.376,221.004C620.844,226.655,665.668,241.918,702.082,265.701C738.496,289.483,774.618,324.459,798.861,363.701C823.103,402.944,841.925,452.717,847.538,501.156C853.15,549.596,848.801,605.577,832.535,654.337C816.269,703.098,787.123,754.499,749.943,793.719C712.762,832.939,662.18,868.849,609.453,889.656C556.726,910.464,492.802,922.117,433.581,918.566C374.36,915.014,308.653,897.801,254.128,868.347C199.603,838.893,138.74,826.824,106.433,741.843C74.126,656.862,21.998,463.91,60.284,358.461C98.57,253.013,260.554,152.979,336.15,109.152C411.745,65.326,430.327,44.292,513.858,95.5C597.389,146.709,785.867,338.74,837.336,416.404C888.804,494.067,836.906,517.609,822.668,561.483C808.431,605.358,801.676,644.864,751.911,679.651C702.146,714.438,580.174,760.552,524.079,770.206C467.983,779.86,446.498,754.81,415.336,737.576C384.175,720.342,356.313,693.627,337.107,666.801C317.902,639.976,305.388,606.541,300.103,576.624C294.819,546.707,297.87,514.037,305.4,487.301C312.931,460.564,328.535,435.012,345.287,416.206C362.038,397.401,384.955,382.956,405.907,374.467C426.86,365.977,451.015,363.665,471.001,365.269C490.987,366.873,510.93,374.858,525.823,384.091C540.717,393.324,552.804,407.663,560.361,420.668C567.918,433.672,570.983,449.49,571.164,462.118C571.346,474.746,566.717,487.539,561.45,496.435C556.183,505.33,547.097,512.086,539.562,515.493C532.028,518.9,522.598,518.771,516.243,516.874C509.888,514.978,503.905,509.366,501.433,504.114C498.961,498.861,502.015,485.416,501.411,485.358C500.807,485.3,501.238,499.08,497.808,503.764C494.378,508.448,487.433,512.814,480.833,513.462C474.233,514.109,464.952,512.435,458.207,507.652C451.462,502.869,443.833,494.502,440.362,484.764C436.891,475.026,434.791,461.584,437.381,449.223C439.971,436.863,446,421.922,455.902,410.6C465.803,399.278,480.407,387.511,496.79,381.293C513.172,375.074,534.273,371.045,554.197,373.288C574.122,375.53,597.391,382.414,616.336,394.749C635.282,407.084,655.018,425.639,667.869,447.298C680.72,468.956,691.157,497.019,693.443,524.701C695.728,552.384,692.484,585.035,681.583,613.392C670.681,641.749,652.012,672.178,628.036,694.842C604.061,717.505,571.61,738.408,537.73,749.373C503.85,760.338,462.672,765.569,424.758,760.633C386.844,755.697,344.639,741.824,310.248,719.757C275.858,697.69,239.316,689.272,218.415,628.231C197.514,567.191,127.3,441.503,184.84,353.514C242.38,265.526,448.217,114.494,563.653,100.3C679.088,86.105,811.618,210.89,877.452,268.348C943.285,325.806,945.266,381.834,958.654,445.049C972.043,508.263,977.536,586.383,957.783,647.634C938.029,708.886,887.93,769.077,840.132,812.559C792.334,856.041,757.994,900.356,670.995,908.526C583.997,916.696,396.88,889.571,318.141,861.579C239.402,833.587,227.566,786.175,198.561,740.576C169.555,694.977,150.763,638.955,144.109,587.985C137.456,537.016,143.878,481.234,158.639,434.758C173.399,388.283,201.381,343.021,232.672,309.131C263.964,275.24,306.101,247.808,346.387,231.418C386.673,215.028,433.587,208.606,474.39,210.789C515.193,212.972,550.646,210.201,591.205,244.515C631.765,278.829,697.344,371.748,717.746,416.672C738.148,461.597,721.337,484.677,713.617,514.059C705.897,543.442,689.455,571.837,671.427,592.969C653.399,614.1,628.533,630.778,605.45,640.847C582.366,650.917,555.508,654.446,532.925,653.388C510.343,652.33,487.437,644.322,469.956,634.502C452.476,624.681,437.704,609.084,428.042,594.465C418.379,579.847,413.401,561.766,411.98,546.792C410.558,531.819,414.394,516.17,419.514,504.625C424.633,493.08,434.191,483.398,442.697,477.523C451.204,471.648,462.283,469.314,470.552,469.373C478.821,469.432,487.331,473.495,492.309,477.877C497.287,482.259,500.373,489.859,500.42,495.664C500.467,501.469,492.067,512.402,492.591,512.708C493.115,513.013,498.491,500.317,503.566,497.498C508.641,494.68,516.776,493.621,523.041,495.795C529.307,497.968,537.035,503.373,541.16,510.54C545.284,517.706,548.711,528.498,547.789,538.795C546.866,549.092,543.149,562.179,535.624,572.321C528.099,582.464,516.37,593.511,502.64,599.65C488.909,605.789,470.721,610.364,453.24,609.157C435.758,607.949,414.908,602.778,397.751,592.404C380.593,582.029,362.34,566.04,350.295,546.909C338.25,527.777,328.09,502.666,325.482,477.617C322.874,452.568,325.138,422.713,334.646,396.615C344.155,370.516,360.766,342.219,382.533,321.026C404.3,299.834,433.991,280.01,465.25,269.459C496.509,258.909,512.729,219.071,570.088,257.723C627.448,296.376,771.454,437.891,809.405,501.373C847.356,564.854,811.872,594.689,797.794,638.615C783.716,682.541,758.111,729.189,724.937,764.929C691.763,800.669,646.383,833.737,598.75,853.055C551.116,872.374,493.105,883.617,439.135,880.838C385.164,878.059,325.001,862.942,274.925,836.382C224.848,809.823,174.422,801.214,138.675,721.479C102.928,641.744,29.907,465.922,60.441,357.974C90.976,250.025,246.011,123.883,321.88,73.788C397.749,23.694,454.195,49.457,515.655,57.408C577.114,65.359,640.498,89.778,690.636,121.494C740.773,153.21,785.845,200.015,816.481,247.707C847.117,295.399,867.189,354.094,874.45,407.647C881.712,461.199,875.336,519.944,860.05,569.02C844.763,618.097,838.22,662.239,782.732,702.105C727.244,741.971,590.538,796.337,527.121,808.217C463.705,820.098,446.02,809.754,402.233,773.387C358.446,737.019,286.876,638.149,264.398,590.011C241.92,541.873,259.455,516.588,267.367,484.56C275.279,452.531,292.563,421.293,311.87,397.838C331.177,374.382,357.994,355.473,383.21,343.825C408.427,332.178,437.989,327.436,463.169,327.95C488.348,328.464,514.218,336.499,534.285,346.91C554.352,357.321,571.805,374.18,583.572,390.414C595.339,406.649,602.227,426.996,604.886,444.316C607.544,461.637,604.499,480.142,599.524,494.336C594.549,508.53,584.516,521.138,575.036,529.481C565.555,537.824,552.822,542.617,542.638,544.394C532.454,546.17,521.414,543.653,513.929,540.139C506.444,536.626,500.415,529.374,497.727,523.311C495.04,517.248,495.417,509.054,497.804,503.762C500.19,498.47,512.395,492.056,512.047,491.559C511.699,491.062,501.503,500.343,495.714,500.78C489.925,501.216,482.094,498.773,477.314,494.177C472.533,489.581,467.775,481.438,467.028,473.203C466.281,464.968,467.685,453.733,472.831,444.767C477.978,435.801,486.831,425.471,497.91,419.408C508.989,413.345,524.264,408.22,539.303,408.39C554.343,408.561,572.776,412.016,588.148,420.429C603.52,428.841,620.293,442.263,631.534,458.865C642.776,475.468,652.663,497.628,655.596,520.044C658.53,542.46,657.249,569.519,649.136,593.36C641.022,617.202,626.472,643.369,606.915,663.094C587.357,682.818,560.429,701.567,531.791,711.706C503.153,721.844,467.891,727.425,435.086,723.926C402.28,720.427,365.306,709.341,334.957,690.712C304.608,672.084,273.876,644.181,252.993,612.154C232.11,580.127,203.903,558.995,209.661,498.551C215.419,438.106,254.723,305.037,287.542,249.487C320.36,193.938,361.486,183.832,406.572,165.254C451.658,146.676,506.711,135.633,558.057,138.021C609.404,140.409,666.796,154.473,714.651,179.582C762.506,204.692,810.821,243.598,845.187,288.676C879.554,333.754,921.749,362.675,920.849,450.051C919.949,537.428,879.056,730.627,839.786,812.936C800.515,895.245,797.113,952.063,685.226,943.906C573.339,935.749,249.023,873.538,168.464,763.994C87.906,654.45,175.321,380.954,201.876,286.642C228.43,192.331,244.236,197.131,327.79,198.126C411.344,199.122,632.254,258.415,703.2,292.615C774.146,326.815,745.391,365.954,753.466,403.325C761.541,440.696,759.755,482.168,751.648,516.843C743.541,551.518,725.412,585.596,704.823,611.374C684.234,637.153,655.464,658.291,628.113,671.514C600.762,684.738,568.493,690.689,540.717,690.716C512.94,690.742,484.106,682.677,461.453,671.674C438.8,660.67,418.666,642.546,404.797,624.693C390.928,606.84,382.132,584.225,378.239,564.556C374.345,544.888,376.604,523.525,381.438,506.681C386.271,489.838,396.781,474.305,407.239,463.496C417.698,452.686,432.085,445.434,444.187,441.824C456.29,438.215,469.86,439.189,479.853,441.837C489.846,444.486,498.819,451.392,504.147,457.715C509.474,464.039,511.916,473.148,511.819,479.779C511.723,486.41,507.951,493.695,503.569,497.502C499.187,501.31,485.418,502.028,485.526,502.625C485.635,503.222,498.778,499.059,504.219,501.085C509.659,503.111,515.749,508.607,518.168,514.782C520.587,520.957,521.5,530.343,518.732,538.135C515.964,545.927,509.988,555.544,501.562,561.534C493.135,567.523,480.772,573.2,468.173,574.071C455.574,574.941,439.556,573.203,425.967,566.755C412.379,560.307,397.083,549.454,386.643,535.381C376.202,521.308,366.585,502.099,363.323,482.316C360.061,462.533,360.355,438.269,367.071,416.683C373.787,395.096,386.273,371.056,403.619,352.798C420.965,334.54,445.13,316.862,471.147,307.133C497.164,297.403,529.467,291.643,559.72,294.419C589.973,297.195,624.333,306.883,652.664,323.789C680.995,340.695,709.937,366.236,729.705,395.856C749.473,425.475,765.709,463.678,771.272,501.504C776.836,539.331,793.612,570.327,763.088,622.815C732.564,675.303,661.583,907.969,588.128,816.431C514.672,724.894,302.333,195.051,322.353,73.591C342.372,-47.869,610.04,33.439,708.245,87.669C806.451,141.899,894.042,292.812,911.585,398.972C929.128,505.132,851.855,654.7,813.504,724.627C775.153,794.555,728.718,798.267,681.48,818.535C634.243,838.803,578.818,847.797,530.08,846.236C481.341,844.675,430.174,830.061,389.05,809.169C347.926,788.276,310.065,755.191,283.334,720.883C256.603,686.575,229.469,660.234,228.663,603.319C227.856,546.404,256.508,427.759,278.494,379.395C300.481,331.031,331.094,327.93,360.581,313.134C390.069,298.337,425.044,291.178,455.419,290.614C485.793,290.05,517.591,298.148,542.829,309.748C568.068,321.347,590.881,340.738,606.85,360.212C622.82,379.686,633.522,404.572,638.647,426.59C643.772,448.608,642.297,472.829,637.602,492.322C632.907,511.815,621.916,530.272,610.478,543.547C599.039,556.822,582.994,566.531,568.972,571.972C554.95,577.413,538.848,577.979,526.346,576.193C513.843,574.407,501.927,567.843,493.959,561.256C485.991,554.669,480.732,544.642,478.539,536.669C476.346,528.696,477.941,519.401,480.803,513.419C483.666,507.437,490.14,502.399,495.713,500.775C501.287,499.151,514.092,504.26,514.244,503.673C514.395,503.085,500.716,501.366,496.623,497.249C492.53,493.132,489.298,485.592,489.685,478.972C490.072,472.351,493.171,463.444,498.946,457.526C504.72,451.607,514.172,445.373,524.332,443.46C534.491,441.547,548.096,441.564,559.903,446.046C571.71,450.528,585.531,458.809,595.174,470.352C604.817,481.895,614.167,498.152,617.76,515.303C621.354,532.453,622.05,553.924,616.734,573.257C611.418,592.589,600.997,614.504,585.864,631.299C570.731,648.094,549.33,664.702,525.935,674.026C502.541,683.35,473.196,689.292,445.495,687.242C417.794,685.191,386.045,676.905,359.73,661.723C333.416,646.542,306.262,623.364,287.606,596.154C268.95,568.944,253.353,533.635,247.794,498.462C242.235,463.288,243.476,421.797,254.252,385.113C265.028,348.43,285.301,308.898,312.451,278.36C339.601,247.823,377.165,218.995,417.153,201.89C457.141,184.784,506.279,174.131,552.378,175.729C598.477,177.327,650.331,189.276,693.748,211.477C737.165,233.678,781.015,239.998,812.878,308.932C844.741,377.866,885.168,545.328,884.924,625.081C884.681,704.834,847.224,740.146,811.418,787.45C775.612,834.753,782.272,908.921,670.088,908.904C557.905,908.887,221.476,894.816,138.316,787.346C55.156,679.876,142.637,367.844,171.129,264.086C199.62,160.327,259.71,186.349,309.267,164.794C358.825,143.238,417.089,133.393,468.473,134.753C519.857,136.112,573.959,151.138,617.571,172.951C661.184,194.765,701.463,207.841,730.147,265.634C758.831,323.427,788.334,459.007,789.673,519.71C791.011,580.414,761.339,599.434,738.178,629.854C715.017,660.274,682.333,685.864,650.708,702.231C619.082,718.599,581.399,726.961,548.425,728.061C515.452,729.16,480.691,721.025,452.868,708.827C425.044,696.628,399.554,675.967,381.485,654.87C363.417,633.773,350.813,606.615,344.458,582.245C338.103,557.876,338.798,530.796,343.357,508.653C347.916,486.511,359.391,465.13,371.813,449.39C384.234,433.651,401.94,421.487,417.884,414.217C433.828,406.947,452.464,404.844,467.476,405.77C482.488,406.696,497.349,412.921,507.957,419.775C518.564,426.628,526.641,437.576,531.121,446.893C535.601,456.211,536.182,467.518,534.837,475.677C533.492,483.836,528.154,491.61,523.05,495.846C517.947,500.081,509.959,501.947,504.217,501.09C498.476,500.233,488.984,490.233,488.6,490.704C488.217,491.174,499.922,498.46,501.916,503.912C503.911,509.364,503.69,517.564,500.568,523.415C497.446,529.266,490.904,536.059,483.183,539.018C475.462,541.977,464.269,543.683,454.241,541.169C444.213,538.655,431.864,532.946,423.016,523.935C414.168,514.923,405.081,501.618,401.153,487.099C397.226,472.581,395.537,453.903,399.45,436.822C403.364,419.741,411.717,399.95,424.635,384.616C437.553,369.282,456.188,353.74,476.961,344.819C497.733,335.898,524.12,329.769,549.27,331.091C574.42,332.413,603.558,339.296,627.859,352.75C652.16,366.205,677.527,387.017,695.074,411.817C712.621,436.617,727.583,469.031,733.14,501.551C738.697,534.072,738.087,572.667,728.417,606.939C718.747,641.211,700.257,678.375,675.118,707.183C649.98,735.99,615.024,763.411,577.587,779.784C540.149,796.157,493.969,806.62,450.493,805.422C407.016,804.223,357.93,793.336,316.73,772.593C275.53,751.851,233.435,719.298,203.293,680.966C173.151,642.635,29.056,531.56,135.878,542.602C242.7,553.644,750.212,695.671,844.226,747.218C938.241,798.766,751.845,829.048,699.967,851.888C648.088,874.729,586.984,885.422,532.954,884.261C478.924,883.1,421.887,867.659,375.788,844.921C329.688,822.184,286.839,785.897,256.357,747.834C225.875,709.772,203.738,661.383,192.898,616.548C182.058,571.713,182.607,521.436,191.317,478.824C200.028,436.213,185.136,395.248,245.159,360.878C305.182,326.508,487.283,277.74,551.456,272.604C615.629,267.468,610.03,307.339,630.196,330.061C650.361,352.784,664.866,382.216,672.447,408.938C680.029,435.66,680.112,465.6,675.685,490.393C671.259,515.185,659.296,539.49,645.889,557.692C632.482,575.895,613.112,590.511,595.245,599.608C577.377,608.705,556.205,612.343,538.682,612.274C521.159,612.204,503.353,606.316,490.106,599.193C476.86,592.069,465.967,580.197,459.201,569.533C452.435,558.869,449.681,545.546,449.511,535.21C449.342,524.873,453.546,514.36,458.182,507.513C462.818,500.666,470.919,495.838,477.326,494.127C483.734,492.416,491.77,494.064,496.626,497.245C501.482,500.426,505.918,513.48,506.463,513.214C507.008,512.947,499.427,501.431,499.897,495.645C500.367,489.859,503.998,482.504,509.282,478.496C514.567,474.489,523.35,471.057,531.601,471.6C539.852,472.144,550.733,475.279,558.788,481.758C566.844,488.238,575.671,498.59,579.935,510.478C584.2,522.365,586.885,538.251,584.377,553.081C581.868,567.911,575.586,585.582,564.884,599.458C554.182,613.333,538.313,627.813,520.164,636.333C502.014,644.854,478.585,651.172,455.985,650.581C433.386,649.991,406.856,644.515,384.568,632.789C362.279,621.064,338.695,602.619,322.255,580.231C305.815,557.842,291.485,528.324,285.926,498.457C280.368,468.59,280.343,432.889,288.905,401.028C297.466,369.167,294.344,338.556,337.296,307.288C380.248,276.021,490.702,224.085,546.616,213.424C602.529,202.764,623.01,202.261,672.775,243.325C722.54,284.388,815.914,398.079,845.207,459.805C874.501,521.532,858.883,563.334,848.534,613.683C838.184,664.033,815.359,718.536,783.108,761.901C750.858,805.265,735.598,851.689,655.029,873.869C574.46,896.049,401.102,971.996,299.692,894.98C198.282,817.964,48.048,539.035,46.569,411.775C45.09,284.515,220.973,183.928,290.818,131.419C360.663,78.911,408.965,95.758,465.641,96.724C522.317,97.69,582.288,113.548,630.873,137.213C679.459,160.878,724.8,198.77,757.154,238.712C789.508,278.655,813.24,329.543,824.996,376.868C836.752,424.193,836.608,477.406,827.691,522.662C818.774,567.919,797.236,613.352,771.493,648.408C745.75,683.464,709.142,713.496,673.235,732.999C637.328,752.501,594.224,763.263,556.051,765.423C517.879,767.583,477.19,759.365,444.2,745.961C411.209,732.556,380.367,709.345,358.107,684.995C335.846,660.644,319.444,628.935,310.638,599.86C301.832,570.784,300.975,537.983,305.271,510.54C309.568,483.098,322.022,455.871,336.417,435.206C350.812,414.541,371.848,397.473,391.642,386.552C411.436,375.63,435.145,370.46,455.18,369.675C475.215,368.891,495.965,374.446,511.851,381.842C527.737,389.238,541.445,402.037,550.495,414.051C559.545,426.064,564.47,441.405,566.153,453.921C567.835,466.438,564.761,479.691,560.589,489.15C556.418,498.609,548.2,506.398,541.124,510.677C534.049,514.955,524.67,515.949,518.135,514.822C511.6,513.695,504.991,508.835,501.912,503.914C498.833,498.993,500.266,485.28,499.659,485.294C499.053,485.308,501.12,498.94,498.271,503.998C495.423,509.057,489.047,514.218,482.571,515.646C476.094,517.074,466.68,516.516,459.414,512.569C452.148,508.622,443.578,501.222,438.973,491.966C434.368,482.71,430.684,469.614,431.785,457.033C432.886,444.452,437.095,428.9,445.58,416.48C454.064,404.061,467.165,390.641,482.691,382.518C498.218,374.394,518.689,367.884,538.739,367.74C558.789,367.597,582.711,371.663,602.99,381.657C623.268,391.65,645.071,407.726,660.408,427.702C675.744,447.678,689.445,474.3,695.008,501.514C700.57,528.728,701.233,561.534,693.782,590.986C686.332,620.438,671.415,652.872,650.306,678.227C629.196,703.582,599.462,728.196,567.128,743.114C534.793,758.031,494.529,768.124,456.297,767.733C418.065,767.342,374.509,758.588,337.738,740.769C300.966,722.95,263.007,694.645,235.669,660.818C208.331,626.991,184.712,582.604,173.709,537.809C162.707,493.013,139.858,457.737,169.652,392.046C199.446,326.354,294.805,193.074,352.471,143.661C410.138,94.248,459.082,99.154,515.652,95.566C572.223,91.977,636.634,100.543,691.894,122.13C747.154,143.718,804.386,180.3,847.214,225.091C890.042,269.882,928.047,329.705,948.86,390.877C969.674,452.05,1040.947,503.559,972.095,592.128C903.242,680.698,637.352,874.207,535.744,922.293C434.136,970.379,425.552,929.411,362.446,880.645C299.339,831.879,191.96,697.166,157.103,629.697C122.246,562.228,144.175,523.732,153.302,475.83C162.429,427.928,184.827,379.659,211.865,342.287C238.903,304.915,277.477,272.665,315.527,251.599C353.578,230.532,399.394,218.576,440.167,215.89C480.94,213.203,524.592,221.467,560.165,235.479C595.739,249.492,629.254,273.982,653.608,299.962C677.961,325.943,696.259,359.93,706.287,391.361C716.314,422.792,717.943,458.455,713.773,488.548C709.603,518.64,696.655,548.79,681.269,571.916C665.883,595.042,643.178,614.559,621.456,627.303C599.734,640.047,573.486,646.746,550.939,648.382C528.391,650.018,504.694,644.792,486.17,637.121C467.645,629.449,451.123,615.72,439.79,602.355C428.457,588.99,421.364,571.629,418.171,556.931C414.979,542.233,416.926,526.239,420.635,514.167C424.345,502.095,432.683,491.345,440.43,484.499C448.177,477.654,458.901,474.019,467.118,473.094C475.335,472.169,484.268,475.19,489.732,478.949C495.196,482.707,499.164,489.887,499.902,495.645C500.639,501.403,493.598,513.258,494.155,513.499C494.712,513.74,498.54,500.494,503.243,497.092C507.947,493.689,515.898,491.671,522.377,493.084C528.857,494.496,537.173,498.943,542.121,505.569C547.069,512.194,551.756,522.501,552.065,532.834C552.373,543.168,550.239,556.604,543.974,567.57C537.709,578.536,527.378,590.899,514.475,598.628C501.572,606.357,484.058,613.064,466.557,613.944C449.056,614.825,427.739,612.171,409.469,603.911C391.199,595.651,371.173,581.947,356.938,564.384C342.703,546.822,329.628,523.097,324.058,498.537C318.489,473.976,317.185,444.064,323.522,417.019C329.858,389.975,342.985,359.903,362.077,336.271C381.168,312.64,408.289,289.424,438.072,275.23C467.854,261.036,505.16,251.123,540.77,251.106C576.38,251.089,617.172,258.772,651.732,275.126C686.291,291.479,722.187,317.657,748.127,349.229C774.067,380.801,796.698,422.394,807.371,464.556C818.045,506.719,820.921,556.916,812.169,602.205C803.416,647.494,809.405,689.094,754.855,736.289C700.306,783.484,557.924,864.628,484.871,885.374C411.818,906.121,369.419,881.183,316.539,860.769C263.658,840.354,212.566,837.806,167.588,762.89C122.609,687.973,-32.777,521.503,46.667,411.272C126.112,301.041,507.749,82.433,644.255,101.504C780.761,120.575,857.13,415.313,865.704,525.699C874.277,636.084,746.045,717.632,695.694,763.816C645.342,810,623.766,810.927,563.594,802.802C503.422,794.677,382.464,745.968,334.661,715.068C286.859,684.167,288.025,651.186,276.779,617.399C265.532,583.612,263.136,545.086,267.182,512.343C271.228,479.6,284.673,446.529,301.053,420.943C317.433,395.357,341.809,373.393,365.461,358.828C389.113,344.263,417.902,336.038,442.963,333.553C468.025,331.069,494.667,335.969,515.83,343.919C536.993,351.868,556.328,366.531,569.942,381.251C583.557,395.97,592.817,415.354,597.517,432.235C602.217,449.116,601.395,467.852,598.143,482.537C594.892,497.222,586.431,510.934,578.01,520.345C569.589,529.757,557.517,536.031,547.616,539.006C537.715,541.982,526.455,540.796,518.605,538.197C510.755,535.599,503.906,529.116,500.516,523.416C497.127,517.716,496.527,509.535,498.267,503.996C500.007,498.458,511.362,490.638,510.957,490.186C510.552,489.734,501.533,500.162,495.837,501.284C490.142,502.406,482.076,500.912,476.782,496.917C471.488,492.923,465.796,485.404,464.075,477.316C462.353,469.228,462.41,457.906,466.454,448.391C470.498,438.877,478.059,427.567,488.338,420.229C498.616,412.891,513.173,405.986,528.127,404.365C543.08,402.745,561.793,403.983,578.056,410.508C594.32,417.032,612.57,428.363,625.707,443.51C638.843,458.657,651.297,479.484,656.876,501.392C662.455,523.3,664.403,550.319,659.183,574.956C653.963,599.594,642.629,627.306,625.557,649.217C608.485,671.128,583.978,692.947,556.75,706.421C529.521,719.894,495.174,729.629,462.185,730.058C429.196,730.486,391.166,723.878,358.816,708.992C326.467,694.106,292.633,670.057,268.089,640.742C243.544,611.426,221.898,572.629,211.55,533.1C201.203,493.57,180.027,462.623,206.004,403.564C231.981,344.505,249.761,179.282,367.414,178.745C485.066,178.208,827.388,301.751,911.919,400.342C996.45,498.933,992.882,703.424,874.599,770.293C756.317,837.163,328.774,851.149,202.223,801.559C75.672,751.968,119.228,552.407,115.293,472.751C111.357,393.095,125.716,372.664,178.612,323.622C231.507,274.581,367.608,199.376,432.666,178.502C497.723,157.627,528.22,183.138,568.957,198.374C609.694,213.609,648.552,240.668,677.087,269.915C705.622,299.163,727.703,337.714,740.166,373.859C752.629,410.005,755.789,451.394,751.865,486.787C747.94,522.18,733.994,558.173,716.617,586.218C699.241,614.263,673.19,638.673,647.606,655.056C622.022,671.439,590.691,681.187,563.115,684.518C535.539,687.848,505.95,683.271,482.149,675.04C458.348,666.809,436.201,651.209,420.307,635.133C404.412,619.057,392.988,597.648,386.783,578.582C380.577,559.517,380.279,538.037,383.074,520.738C385.87,503.439,394.457,486.767,403.556,474.79C412.654,462.813,426.076,453.901,437.663,448.877C449.25,443.853,462.839,443.206,473.077,444.647C483.314,446.088,493.045,451.877,499.087,457.522C505.129,463.167,508.637,471.921,509.33,478.517C510.023,485.112,507.145,492.794,503.246,497.096C499.348,501.397,485.763,503.748,485.941,504.328C486.12,504.908,498.675,499.211,504.318,500.576C509.96,501.94,516.661,506.672,519.797,512.516C522.934,518.359,524.957,527.57,523.136,535.636C521.315,543.702,516.525,553.962,508.871,560.911C501.216,567.86,489.616,574.968,477.21,577.331C464.804,579.694,448.693,579.874,434.434,575.088C420.175,570.302,403.697,561.346,391.657,548.615C379.616,535.884,367.782,517.955,362.19,498.701C356.598,479.446,354.003,455.319,358.103,433.087C362.204,410.855,371.742,385.501,386.793,365.309C401.844,345.117,423.734,324.69,448.409,311.934C473.083,299.179,504.472,289.617,534.84,288.775C565.208,287.932,600.477,293.464,630.618,306.879C660.759,320.295,692.533,342.212,715.685,369.269C738.836,396.327,759.501,432.327,769.525,469.223C779.549,506.119,782.974,550.414,775.83,590.646C768.685,630.878,751.774,675.106,726.66,710.615C701.545,746.124,665.257,780.927,625.144,803.701C585.031,826.474,534.596,843.441,485.982,847.257C437.368,851.073,381.586,844.654,333.461,826.595C285.336,808.536,235.048,777.507,197.231,738.9C159.414,700.294,125.402,648.417,106.56,594.956C87.718,541.496,78.438,477.184,84.179,418.135C89.92,359.086,109.554,294.061,141.005,240.664C172.457,187.266,219.685,134.421,272.889,97.752C326.093,61.082,356.27,-21.516,460.23,20.647C564.189,62.81,822.731,266.032,896.644,350.727C970.557,435.423,933.47,454.827,903.71,528.82C873.95,602.812,773.527,742.788,718.085,794.684C662.642,846.581,619.632,835.951,571.054,840.199C522.476,844.447,469.934,836.023,426.616,820.172C383.299,804.32,341.771,775.974,311.149,745.089C280.526,714.204,250.452,691.278,242.88,634.863C235.309,578.449,249.643,457.238,265.72,406.602C281.797,355.965,311.824,349.245,339.342,331.046C366.859,312.846,400.735,301.578,430.827,297.404C460.919,293.231,493.454,297.489,519.893,306.004C546.332,314.519,571.29,331.058,589.462,348.494C607.635,365.93,621.221,389.365,628.93,410.618C636.638,431.87,638.055,456.095,635.712,476.008C633.369,495.921,624.652,515.554,614.874,530.095C605.096,544.637,590.319,556.186,577.044,563.256C563.769,570.326,547.848,572.804,535.222,572.518C522.597,572.232,509.984,567.133,501.289,561.54C492.594,555.947,486.179,546.617,483.053,538.962C479.928,531.306,480.406,521.888,482.536,515.607C484.666,509.327,490.495,503.555,495.836,501.279C501.177,499.004,514.499,502.554,514.58,501.952C514.66,501.351,500.873,501.271,496.319,497.67C491.766,494.07,487.66,486.968,487.257,480.348C486.854,473.728,488.871,464.516,493.9,457.953C498.93,451.389,507.573,444.075,517.433,440.967C527.293,437.859,540.803,436.257,553.059,439.303C565.316,442.349,580.024,448.927,590.971,459.241C601.919,469.554,613.137,484.584,618.745,501.185C624.353,517.787,627.598,539.022,624.62,558.85C621.641,578.678,613.901,601.676,600.874,620.152C587.846,638.628,568.573,657.664,546.453,669.705C524.334,681.746,495.904,691.137,468.156,692.396C440.408,693.656,407.899,689.205,379.965,677.261C352.031,665.318,322.314,645.535,300.553,620.737C278.792,595.94,259.105,562.737,249.402,528.475C239.698,494.212,235.994,452.868,242.33,415.163C248.666,377.458,264.092,335.795,287.417,302.245C310.741,268.695,344.609,235.603,382.278,213.862C419.947,192.121,467.469,175.698,513.431,171.801C559.393,167.903,612.3,173.599,658.05,190.478C703.799,207.356,751.776,236.528,787.927,273.069C824.078,309.61,865.711,330.509,874.957,409.724C884.203,488.94,960.05,678.594,843.402,748.362C726.754,818.13,301.396,843.765,175.066,828.331C48.737,812.897,101.722,715.548,85.426,655.758C69.129,595.968,20.653,555.365,77.29,469.588C133.927,383.812,341.823,192.48,425.247,141.097C508.67,89.713,531.933,144.817,577.831,161.287C623.729,177.758,667.924,207.396,700.633,239.92C733.341,272.444,759.196,315.567,774.084,356.433C788.972,397.298,793.652,444.417,789.96,485.111C786.269,525.805,771.312,567.639,751.934,600.599C732.557,633.558,703.149,662.854,673.695,682.867C644.241,702.881,607.82,715.667,575.211,720.681C542.603,725.694,507.121,721.753,478.044,712.951C448.967,704.149,421.2,686.666,400.75,667.868C380.301,649.071,364.555,623.605,355.346,600.165C346.138,576.724,343.606,549.754,345.498,527.226C347.391,504.698,356.242,482.104,366.702,464.999C377.163,447.894,393.297,433.71,408.263,424.595C423.228,415.48,441.482,411.174,456.498,410.308C471.513,409.442,487.009,413.854,498.357,419.398C509.704,424.941,519.026,434.85,524.582,443.568C530.139,452.286,532.061,463.445,531.696,471.706C531.331,479.966,526.956,488.321,522.393,493.133C517.83,497.946,510.12,500.748,504.317,500.58C498.514,500.413,487.9,491.613,487.575,492.126C487.25,492.638,499.739,498.48,502.368,503.656C504.997,508.832,505.754,517,503.35,523.181C500.946,529.362,495.259,536.885,487.944,540.741C480.63,544.598,469.719,547.623,459.463,546.32C449.207,545.017,436.267,540.818,426.41,532.923C416.553,525.028,405.948,512.898,400.321,498.95C394.694,485.001,390.795,466.657,392.649,449.232C394.503,431.807,400.441,411.163,411.444,394.401C422.447,377.639,439.1,359.99,458.664,348.661C478.228,337.333,503.698,328.109,528.827,326.43C553.955,324.75,583.706,328.118,609.434,338.586C635.163,349.054,662.826,366.701,683.198,389.238C703.571,411.774,722.283,442.178,731.669,473.806C741.055,505.434,745.041,543.828,739.517,579.007C733.992,614.186,720.054,653.286,698.521,684.879C676.988,716.473,668.329,750.637,610.319,768.567C552.308,786.497,414.357,801.391,350.459,792.459C286.56,783.528,261.415,749.452,226.928,714.978C192.44,680.503,161.074,633.931,143.532,585.615C125.99,537.299,96.923,500.896,121.675,425.081C146.428,349.266,156.906,145.276,292.046,130.725C427.185,116.175,835.988,242.145,932.512,337.776C1029.036,433.408,903.209,623.21,871.191,704.514C839.174,785.818,789.2,796.752,740.407,825.602C691.614,854.451,632.216,872.338,578.431,877.612C524.647,882.886,466.178,874.341,417.701,857.248C369.224,840.156,322.362,809.224,287.569,775.058C252.776,740.892,225.039,695.48,208.943,652.253C192.846,609.026,187.411,559.04,190.99,515.695C194.57,472.35,210.037,427.597,230.419,392.182C250.801,356.767,281.892,325.031,313.284,303.205C344.676,281.38,383.644,267.079,418.77,261.228C453.896,255.377,492.326,259.006,524.04,268.098C555.754,277.19,586.33,295.618,609.055,315.78C631.78,335.942,649.683,363.44,660.39,389.07C671.097,414.701,674.741,444.419,673.295,469.561C671.849,494.704,662.862,520.259,651.716,539.928C640.57,559.596,623.076,576.413,606.418,587.571C589.759,598.729,569.17,604.859,551.763,606.875C534.357,608.891,515.977,605.162,501.977,599.665C487.976,594.168,475.749,583.676,467.762,573.893C459.776,564.11,455.457,551.209,454.058,540.966C452.66,530.723,455.584,519.784,459.373,512.434C463.161,505.084,470.631,499.327,476.789,496.866C482.947,494.405,491.122,495.085,496.322,497.666C501.522,500.247,507.48,512.681,507.989,512.351C508.499,512.021,499.601,501.489,499.379,495.688C499.158,489.887,501.889,482.152,506.658,477.545C511.428,472.937,519.742,468.484,527.999,468.043C536.256,467.601,547.431,469.419,556.201,474.894C564.97,480.37,574.966,489.599,580.614,500.894C586.263,512.19,590.819,527.644,590.092,542.667C589.366,557.69,585.23,575.983,576.254,591.033C567.279,606.083,553.246,622.347,536.239,632.967C519.231,643.586,496.72,652.646,474.211,654.748C451.702,656.85,424.709,654.569,401.184,645.578C377.659,636.588,352.048,621.08,333.061,600.805C314.074,580.531,296.335,552.928,287.263,523.934C278.191,494.94,273.919,459.496,278.63,426.843C283.341,394.189,295.787,357.65,315.527,328.012C335.266,298.373,364.287,268.694,397.065,249.011C429.842,229.328,471.535,213.983,512.194,209.914C552.852,205.844,600.012,210.087,641.014,224.594C682.016,239.102,725.378,264.554,758.204,296.959C791.031,329.364,828.966,347.458,837.975,419.025C846.983,490.592,835.516,654.071,812.254,726.362C788.992,798.654,775.762,821.165,698.404,852.772C621.045,884.379,457.953,980.409,348.101,916.004C238.25,851.599,55.901,592.522,39.294,466.341C22.686,340.161,157.208,215.941,248.457,158.921C339.706,101.901,493.523,94.194,586.787,124.22C680.051,154.247,767.828,279.198,808.04,339.081C848.253,398.964,831.53,437.523,828.06,483.519C824.59,529.516,808.609,577.188,787.22,615.058C765.83,652.927,733.054,687.101,699.722,710.736C666.39,734.372,640.328,758.566,587.228,756.87C534.128,755.174,425.016,723.093,381.121,700.56C337.227,678.028,336.064,649.499,323.862,621.677C311.66,593.855,306.907,561.389,307.908,533.63C308.91,505.872,318.036,477.356,329.871,455.126C341.705,432.895,360.562,413.446,378.916,400.247C397.27,387.049,420.195,379.095,439.995,375.933C459.794,372.77,481.058,375.818,497.711,381.271C514.364,386.725,529.497,397.803,539.912,408.654C550.327,419.505,557.042,434.151,560.201,446.379C563.361,458.606,561.885,472.131,558.869,482.019C555.852,491.907,548.619,500.619,542.102,505.709C535.586,510.799,526.393,512.901,519.77,512.56C513.146,512.218,506.007,508.179,502.364,503.659C498.721,499.139,498.513,485.353,497.912,485.439C497.312,485.525,500.985,498.814,498.759,504.176C496.533,509.537,490.816,515.42,484.556,517.608C478.295,519.797,468.882,520.362,461.198,517.308C453.513,514.254,444.124,507.926,438.451,499.283C432.778,490.641,427.561,478.076,427.158,465.453C426.755,452.83,429.084,436.888,436.031,423.547C442.978,410.207,454.388,395.324,468.838,385.411C483.288,375.498,502.84,366.599,522.73,364.071C542.621,361.543,566.857,362.735,588.18,370.245C609.503,377.756,633.064,391.124,650.668,409.133C668.272,427.143,685.043,451.946,693.803,478.305C702.563,504.664,707.124,537.158,703.23,567.288C699.336,597.417,688.383,631.396,670.44,659.081C652.497,686.767,625.902,714.744,595.572,733.402C565.241,752.06,526.463,766.871,488.457,771.031C450.45,775.191,406.162,771.68,367.532,758.362C328.902,745.044,287.845,721.455,256.677,691.121C225.509,660.786,189.42,644.099,180.524,576.356C171.628,508.613,181.535,353.432,203.302,284.663C225.07,215.894,267.108,195.089,311.129,163.741C355.15,132.393,411.688,106.868,467.43,96.576C523.172,86.283,588.144,87.125,645.58,101.986C703.016,116.846,822.021,50.23,812.046,185.739C802.07,321.248,652.949,796.948,585.726,915.042C518.502,1033.136,477.164,935.218,408.704,894.306C340.244,853.393,217.603,732.41,174.967,669.567C132.331,606.723,134.168,582.955,152.888,517.245C171.609,451.535,244.97,324.011,287.287,275.307C329.605,226.604,366.63,232.543,406.794,225.025C446.958,217.507,480.753,206.439,528.271,230.2C575.788,253.962,661.462,328.76,691.898,367.593C722.335,406.426,711.453,432.824,710.893,463.199C710.332,493.573,701.063,525.049,688.537,549.841C676.011,574.633,655.789,596.713,635.738,611.951C615.686,627.189,590.421,636.962,568.228,641.269C546.035,645.576,521.886,643.205,502.58,637.792C483.274,632.379,465.236,620.712,452.394,608.79C439.551,596.869,430.443,580.475,425.525,566.261C420.606,552.047,420.637,535.935,422.884,523.508C425.132,511.08,432.132,499.414,439.009,491.696C445.887,483.977,456.102,479.092,464.15,477.196C472.199,475.3,481.428,477.238,487.301,480.32C493.173,483.402,497.967,490.058,499.384,495.688C500.801,501.317,495.221,513.925,495.803,514.098C496.384,514.271,498.609,500.665,502.874,496.727C507.14,492.789,514.794,489.839,521.396,490.471C527.997,491.103,536.784,494.529,542.484,500.518C548.185,506.508,554.065,516.184,555.601,526.408C557.137,536.631,556.616,550.226,551.7,561.859C546.784,573.492,537.997,586.997,526.105,596.206C514.213,605.415,497.621,614.157,480.349,617.113C463.077,620.07,441.596,619.971,422.473,613.943C403.35,607.915,381.837,596.69,365.613,580.946C349.39,565.201,333.585,543.201,325.133,519.477C316.682,495.753,311.829,466.208,314.904,438.602C317.978,410.996,327.434,379.576,343.579,353.841C359.724,328.106,383.891,301.829,411.773,284.193C439.655,266.557,475.517,252.277,510.872,248.024C546.227,243.77,587.644,246.546,623.903,258.672C660.163,270.799,698.918,292.521,728.429,320.783C757.941,349.045,785.359,387.65,800.972,428.243C816.586,468.837,825.413,518.335,822.11,564.344C818.807,610.352,858.047,651.679,781.155,704.294C704.263,756.908,457.414,863.986,360.758,880.031C264.103,896.077,192.905,936.199,201.221,800.566C209.538,664.934,299.835,119.329,410.658,66.237C521.482,13.144,797.528,388.119,866.164,482.012C934.8,575.905,845.886,586.82,822.473,629.595C799.06,672.37,762.906,711.415,725.688,738.663C688.469,765.912,641.848,784.74,599.164,793.087C556.479,801.434,509.206,798.724,469.582,788.745C429.958,778.765,390.962,757.48,361.42,733.209C331.877,708.938,307.515,675.329,292.329,643.12C277.143,610.91,270.181,572.943,270.303,539.951C270.425,506.96,279.841,472.524,293.061,445.171C306.281,417.818,327.872,393.11,349.623,375.835C371.374,358.56,398.98,346.969,423.568,341.52C448.156,336.072,475.192,337.768,497.15,343.144C519.109,348.519,540.051,360.778,555.319,373.774C570.588,386.769,582.088,404.913,588.763,421.115C595.438,437.317,596.85,456.018,595.369,470.986C593.888,485.954,587.118,500.574,579.876,510.921C572.634,521.267,561.395,528.933,551.918,533.065C542.442,537.197,531.12,537.359,523.017,535.713C514.914,534.067,507.342,528.445,503.298,523.188C499.255,517.932,497.686,509.88,498.755,504.174C499.824,498.468,510.168,489.353,509.712,488.952C509.256,488.551,501.542,499.979,496.02,501.77C490.498,503.562,482.311,503.038,476.58,499.701C470.849,496.365,464.303,489.576,461.631,481.751C458.96,473.925,457.669,462.676,460.553,452.748C463.436,442.82,469.598,430.691,478.931,422.183C488.264,413.674,501.896,405.086,516.55,401.699C531.204,398.311,549.932,397.314,566.856,401.857C583.78,406.401,603.249,415.48,618.094,428.957C632.939,442.434,647.782,461.632,655.928,482.72C664.073,503.809,669.221,530.404,666.969,555.488C664.718,580.571,656.761,609.435,642.416,633.221C628.072,657.007,606.335,681.587,580.902,698.204C555.47,714.821,522.525,728.573,489.821,732.923C457.117,737.273,418.571,735.235,384.68,724.303C350.79,713.371,314.335,693.518,286.478,667.33C258.621,641.143,232.513,605.197,217.536,567.179C202.56,529.161,193.813,482.625,196.62,439.223C199.427,395.821,212.123,347.17,234.376,306.766C256.63,266.362,290.718,225.501,330.139,196.799C369.56,168.096,395.011,131.832,470.904,134.551C546.797,137.27,714.457,176.864,785.496,213.114C856.536,249.363,871.115,298.733,897.138,352.048C923.162,405.363,940.478,471.044,941.637,533.004C942.796,594.965,994.429,657.422,904.093,723.812C813.758,790.202,526.814,937.511,399.624,931.343C272.434,925.176,188.425,755.578,140.952,686.806C93.478,618.034,94.716,591.952,114.783,518.709C134.85,445.467,214.667,302.337,261.353,247.351C308.039,192.366,330.381,188.273,394.898,188.795C459.416,189.317,593.699,224.251,648.459,250.483C703.218,276.715,706.78,311.779,723.455,346.185C740.129,380.591,748.191,421.311,748.504,456.919C748.818,492.528,739.253,529.924,725.336,559.837C711.419,589.75,688.457,617.085,665.003,636.396C641.55,655.706,611.601,669.112,584.617,675.699C557.633,682.287,527.71,681.262,503.098,675.921C478.487,670.58,454.642,657.725,436.948,643.654C419.254,629.583,405.364,609.685,396.935,591.493C388.505,573.3,385.654,552.009,386.371,534.5C387.089,516.992,393.633,499.416,401.241,486.442C408.85,473.468,421.117,463.022,432.024,456.656C442.931,450.289,456.347,448.03,466.683,448.243C477.019,448.456,487.369,453.046,494.04,457.932C500.711,462.819,505.235,471.093,506.708,477.559C508.181,484.026,506.237,491.995,502.878,496.73C499.519,501.465,486.31,505.415,486.556,505.97C486.802,506.525,498.591,499.374,504.356,500.058C510.121,500.742,517.336,504.643,521.146,510.072C524.955,515.501,528.059,524.406,527.211,532.631C526.362,540.856,522.827,551.613,516.054,559.423C509.28,567.233,498.608,575.671,486.571,579.493C474.534,583.315,458.559,585.41,443.832,582.354C429.105,579.299,411.679,572.367,398.209,561.158C384.739,549.95,370.857,533.557,363.014,515.104C355.171,496.651,349.724,473.004,351.151,450.442C352.578,427.881,359.032,401.571,371.574,379.732C384.116,357.893,403.421,335.008,426.403,319.407C449.385,303.807,479.413,290.579,509.465,286.13C539.518,281.681,575.194,282.977,606.717,292.712C638.24,302.447,672.396,320.429,698.601,344.54C724.807,368.651,749.608,401.937,763.95,437.379C778.292,472.821,786.962,516.394,784.654,557.19C782.347,597.986,770.817,643.912,750.105,682.156C729.393,720.401,697.503,759.273,660.384,786.657C623.265,814.041,575.206,836.887,527.391,846.459C479.576,856.03,448.495,907.133,373.495,844.087C298.496,781.041,72.394,604.066,77.393,468.182C82.392,332.298,315.563,98.455,403.488,28.782C491.414,-40.891,521.483,-25.156,604.947,50.145C688.41,125.446,862.147,381.579,904.271,480.59C946.396,579.601,883.141,596.534,857.695,644.211C832.248,691.887,792.704,735.795,751.591,766.648C710.479,797.502,658.747,819.334,611.019,829.33C563.292,839.327,510.121,837.214,465.225,826.628C420.329,816.042,375.725,792.837,341.645,765.814C307.566,738.792,278.909,701.097,260.749,664.493C242.589,627.888,233.431,584.416,232.684,546.189C231.938,507.963,241.657,467.607,256.273,435.135C270.89,402.663,295.226,372.701,320.384,351.357C345.541,330.013,377.836,314.795,407.217,307.072C436.599,299.348,469.409,299.705,496.674,305.015C523.938,310.324,550.686,323.777,570.804,338.927C590.922,354.077,607.199,375.731,617.381,395.915C627.563,416.099,631.851,439.984,631.894,460.034C631.937,480.084,625.617,500.615,617.638,516.216C609.659,531.818,596.362,545.042,584.022,553.642C571.682,562.241,556.169,566.595,543.599,567.813C531.029,569.031,517.899,565.468,508.6,560.95C499.302,556.431,491.823,547.93,487.809,540.701C483.795,533.472,483.148,524.063,484.517,517.574C485.885,511.085,490.986,504.661,496.018,501.766C501.05,498.871,514.7,500.811,514.708,500.204C514.717,499.597,501.018,501.158,496.068,498.125C491.119,495.091,486.198,488.528,485.01,482.003C483.822,475.479,484.729,466.092,488.942,458.977C493.155,451.862,500.867,443.571,510.287,439.312C519.707,435.053,532.931,431.856,545.462,433.422C557.994,434.988,573.38,439.77,585.476,448.708C597.573,457.646,610.499,471.235,618.042,487.051C625.586,502.868,631.334,523.566,630.735,543.607C630.137,563.649,625.188,587.405,614.45,607.299C603.713,627.193,586.842,648.387,566.311,662.974C545.781,677.56,518.671,690.267,491.27,694.818C463.868,699.369,431.061,698.817,401.904,690.282C372.748,681.747,340.888,665.639,316.332,643.606C291.776,621.573,268.279,590.948,254.568,558.084C240.858,525.219,232.262,484.609,234.068,446.418C235.873,408.227,246.234,365.025,265.401,328.938C284.569,292.851,314.26,255.965,349.075,229.898C383.891,203.83,429.121,181.871,474.293,172.534C519.465,163.196,572.674,162.558,620.107,173.874C667.539,185.19,718.646,208.448,758.887,240.429C799.128,272.41,837.44,317.397,861.555,365.761C885.67,414.124,902.086,473.946,903.578,530.61C905.07,587.275,894.127,651.324,870.509,705.748C846.891,760.171,841.877,813.382,761.87,857.151C681.862,900.92,481.368,967.111,390.462,968.361C299.556,969.612,263.693,908.719,216.432,864.654C169.171,820.588,103.724,811.522,106.898,703.97C110.073,596.417,189.449,311.243,235.48,219.338C281.511,127.432,296.486,134.953,383.083,152.538C469.679,170.123,691.887,255.284,755.059,324.847C818.23,394.41,772.253,513.904,762.113,569.914C751.972,625.924,721.079,637.531,694.215,660.906C667.351,684.281,632.71,701.309,600.929,710.166C569.149,719.024,533.45,719.331,503.533,714.05C473.615,708.77,443.965,694.715,421.425,678.483C398.884,662.252,380.221,638.84,368.289,616.661C356.357,594.483,350.635,568.005,349.834,545.412C349.034,522.819,355.134,499.332,363.485,481.104C371.837,462.876,386.169,446.874,399.944,436.043C413.719,425.213,431.331,418.766,446.137,416.12C460.943,413.474,476.854,416.011,488.78,420.165C500.706,424.32,511.141,433.05,517.695,441.045C524.249,449.04,527.484,459.89,528.105,468.136C528.725,476.382,525.375,485.197,521.417,490.518C517.459,495.839,510.137,499.539,504.356,500.063C498.574,500.586,486.988,493.112,486.727,493.66C486.465,494.207,499.56,498.522,502.786,503.349C506.012,508.175,507.735,516.195,506.083,522.618C504.432,529.041,499.68,537.187,492.876,541.886C486.073,546.585,475.599,550.887,465.261,550.814C454.923,550.74,441.575,548.11,430.849,541.443C420.123,534.777,408.15,523.995,400.904,510.815C393.657,497.635,387.604,479.885,387.372,462.363C387.139,444.841,390.58,423.637,399.511,405.685C408.441,387.734,422.877,368.229,440.955,354.653C459.032,341.078,483.224,328.889,507.974,324.233C532.724,319.576,562.664,319.381,589.455,326.714C616.247,334.047,645.813,348.278,668.721,368.231C691.63,388.184,713.826,416.146,726.908,446.433C739.99,476.72,761.452,498.769,747.214,549.953C732.977,601.137,678.679,710.45,641.484,753.537C604.289,796.623,566.572,799.367,524.043,808.473C481.515,817.578,431.245,818.595,386.311,808.172C341.377,797.749,292.784,776.062,254.44,745.936C216.096,715.809,179.413,673.299,156.248,627.412C133.083,581.526,117.113,524.635,115.45,470.618C113.786,416.602,123.911,355.401,146.269,303.312C168.626,251.223,205.368,197.631,249.593,158.086C293.819,118.54,320.639,72.311,411.621,66.04C502.602,59.769,715.272,21.649,795.483,120.459C875.693,219.27,895.892,546.533,892.884,658.905C889.876,771.277,872.614,771.446,777.433,794.691C682.252,817.936,413.184,816.525,321.799,798.376C230.413,780.227,246.17,748.022,229.122,685.796C212.073,623.569,209.161,484.847,219.507,425.017C229.853,365.186,262.626,352.22,291.199,326.815C319.772,301.41,356.762,282.575,390.943,272.586C425.124,262.598,463.712,261.63,496.282,266.884C528.853,272.139,561.404,286.799,586.366,304.115C611.328,321.431,632.375,346.604,646.055,370.778C659.735,394.953,666.888,424.026,668.443,449.163C669.999,474.299,664.116,500.741,655.389,521.596C646.661,542.45,631.292,561.229,616.079,574.29C600.866,587.35,581.153,595.886,564.11,599.958C547.066,604.03,528.373,602.515,513.819,598.722C499.264,594.93,485.875,585.967,476.782,577.203C467.688,568.44,461.865,556.144,459.258,546.14C456.651,536.136,458.253,524.927,461.14,517.179C464.027,509.43,470.759,502.826,476.581,499.649C482.403,496.473,490.6,496.176,496.07,498.12C501.541,500.064,508.935,511.701,509.402,511.313C509.869,510.925,499.781,501.526,498.871,495.793C497.961,490.059,499.752,482.054,503.94,476.912C508.128,471.77,515.852,466.36,523.998,464.939C532.144,463.518,543.457,463.994,552.815,468.387C562.173,472.78,573.196,480.755,580.148,491.298C587.1,501.841,593.462,516.644,594.528,531.647C595.594,546.65,593.664,565.304,586.542,581.315C579.421,597.326,567.422,615.145,551.799,627.712C536.176,640.278,514.902,651.952,492.803,656.717C470.704,661.482,443.631,662.428,419.204,656.3C394.776,650.172,367.502,637.82,346.238,619.949C324.974,602.077,304.077,576.78,291.62,549.071C279.164,521.362,270.706,486.678,271.499,453.696C272.292,420.714,280.304,382.954,296.377,351.178C312.45,319.402,337.734,286.481,367.938,263.039C398.142,239.596,437.713,219.4,477.599,210.523C517.484,201.646,564.814,200.248,607.251,209.775C649.687,219.302,695.769,239.415,732.217,267.685C768.666,295.955,850.587,271.455,825.942,379.395C801.296,487.335,685.997,834.501,584.344,915.325C482.692,996.149,301.284,896.717,216.028,864.339C130.771,831.961,102.384,778.217,72.806,721.058C43.229,663.899,35.773,585.942,38.561,521.386C41.349,456.829,34.069,401.241,89.533,333.719C144.998,266.197,271.578,140.981,371.347,116.255C471.117,91.528,618.925,154.139,688.152,185.36C757.379,216.581,764.107,260.371,786.71,303.579C809.313,346.788,834.326,380.96,823.77,444.611C813.214,508.261,757.807,635.471,723.373,685.481C688.939,735.491,653.747,733.553,617.165,744.67C580.584,755.786,539.106,757.413,503.882,752.181C468.658,746.949,433.206,731.681,405.824,713.278C378.441,694.876,355.012,667.939,339.587,641.766C324.162,615.594,315.58,583.923,313.273,556.243C310.965,528.562,316.635,499.163,325.741,475.683C334.847,452.202,351.255,430.648,367.909,415.36C384.562,400.071,406.379,389.447,425.662,383.952C444.944,378.456,466.42,378.953,483.604,382.387C500.787,385.821,517.13,395.02,528.762,404.555C540.394,414.09,548.804,427.833,553.395,439.598C557.987,451.363,558.13,464.967,556.311,475.144C554.493,485.321,548.347,494.831,542.482,500.66C536.618,506.489,527.74,509.67,521.123,510.119C514.507,510.567,506.937,507.406,502.782,503.352C498.628,499.297,496.781,485.634,496.195,485.791C495.609,485.948,500.837,498.705,499.265,504.294C497.692,509.882,492.715,516.403,486.76,519.321C480.804,522.238,471.525,523.919,463.532,521.801C455.539,519.682,445.464,514.516,438.803,506.61C432.142,498.704,425.468,486.849,423.566,474.364C421.664,461.879,422.08,445.772,427.39,431.7C432.701,417.628,442.26,401.493,455.428,389.932C468.596,378.37,486.95,367.208,506.399,362.332C525.847,357.456,550.054,355.756,572.119,360.677C594.184,365.597,619.168,376.067,638.789,391.855C658.41,407.643,678.012,430.275,689.846,455.404C701.68,480.534,710.073,512.255,709.791,542.634C709.509,573.012,702.676,608.053,688.154,637.676C673.632,667.3,650.554,698.241,622.658,720.375C594.763,742.509,558.022,761.828,520.78,770.48C483.539,779.131,439.147,780.914,399.207,772.286C359.267,763.657,315.695,745.121,281.14,718.709C246.585,692.298,213.149,654.747,191.876,613.818C170.602,572.89,155.514,521.861,153.5,473.139C151.486,424.417,159.964,368.911,179.793,321.487C199.621,274.064,232.489,224.959,272.469,188.597C312.449,152.235,365.549,120.165,419.67,103.315C473.792,86.464,634.236,-13.125,597.199,87.494C560.161,188.113,266.519,652.475,197.446,707.029C128.374,761.582,171.993,482.287,182.764,414.817C193.534,347.347,209.867,333.218,262.069,302.207C314.27,271.196,439.319,234.231,495.975,228.753C552.631,223.275,572.204,249.845,602.005,269.337C631.807,288.829,657.616,317.532,674.785,345.705C691.953,373.877,701.96,408.147,705.017,438.372C708.074,468.598,702.615,500.953,693.127,527.059C683.64,553.165,666.188,577.494,648.091,595.009C629.995,612.524,606.072,625.233,584.549,632.149C563.026,639.066,538.766,639.585,518.953,636.507C499.141,633.429,479.843,623.991,465.674,613.681C451.504,603.372,440.51,588.178,433.936,574.65C427.362,561.122,425.475,545.121,426.228,532.514C426.981,519.908,432.544,507.492,438.455,499.01C444.365,490.528,453.926,484.463,461.692,481.623C469.458,478.783,478.853,479.609,485.05,481.97C491.247,484.332,496.799,490.37,498.876,495.792C500.952,501.213,496.911,514.395,497.51,514.497C498.108,514.6,498.698,500.825,502.464,496.408C506.231,491.991,513.48,488.151,520.11,487.993C526.74,487.835,535.872,490.192,542.244,495.461C548.617,500.73,555.606,509.638,558.347,519.606C561.089,529.574,562.189,543.134,558.692,555.27C555.195,567.405,548.076,581.859,537.364,592.417C526.653,602.976,511.218,613.63,494.421,618.619C477.623,623.609,456.282,626.066,436.578,622.356C416.874,618.646,394.178,610.06,376.197,596.357C358.216,582.655,339.906,562.691,328.692,540.141C317.478,517.591,309.146,488.833,308.914,461.057C308.683,433.282,314.334,400.959,327.303,373.487C340.271,346.014,361.141,317.049,386.727,296.221C412.313,275.393,446.221,256.949,480.82,248.519C515.418,240.09,556.871,237.92,594.315,245.647C631.76,253.374,672.824,270.331,705.488,294.882C738.151,319.432,769.967,354.501,790.299,392.949C810.631,431.397,825.284,479.494,827.477,525.569C829.671,571.644,822.021,624.304,803.461,669.397C784.901,714.49,782.203,758.712,716.119,796.129C650.035,833.545,486.459,887.589,406.955,893.897C327.452,900.205,289.183,865.775,239.098,833.975C189.014,802.175,115.643,814.903,106.447,703.097C97.25,591.291,141.712,266.996,183.92,163.137C226.127,59.279,299.34,94.017,359.692,79.945C420.045,65.873,487.967,66.552,546.036,78.705C604.105,90.858,662.712,118.918,708.107,152.864C753.503,186.81,792.856,234.762,818.409,282.381C843.962,330.001,872.413,367.291,861.424,438.581C850.435,509.871,790.493,653.35,752.476,710.121C714.46,766.892,674.713,765.844,633.325,779.209C591.937,792.575,557.896,809.046,504.147,790.313C450.398,771.579,348.739,704.028,310.829,666.808C272.919,629.588,280.491,599.764,276.687,566.992C272.883,534.221,278.136,498.909,288.008,470.178C297.88,441.447,316.378,414.345,335.92,394.605C355.462,374.865,381.493,360.073,405.258,351.738C429.023,343.403,456.069,341.871,478.511,344.597C500.953,347.322,523.204,357.003,539.911,368.089C556.617,379.176,570.194,395.823,578.749,411.116C587.304,426.409,590.93,444.809,591.24,459.847C591.55,474.884,586.567,490.207,580.608,501.341C574.648,512.476,564.401,521.424,555.483,526.654C546.565,531.884,535.344,533.392,527.102,532.721C518.86,532.051,510.674,527.369,506.033,522.631C501.393,517.893,498.878,510.085,499.26,504.293C499.643,498.5,508.829,488.219,508.329,487.875C507.828,487.532,501.528,499.795,496.259,502.231C490.989,504.667,482.798,505.121,476.711,502.489C470.623,499.858,463.316,493.897,459.733,486.445C456.15,478.992,453.53,467.977,455.212,457.776C456.894,447.576,461.569,434.8,469.823,425.242C478.078,415.684,490.592,405.535,504.739,400.428C518.886,395.321,537.362,392.104,554.706,394.601C572.051,397.099,592.461,403.798,608.804,415.413C625.147,427.029,642.168,444.324,652.765,464.294C663.361,484.263,671.636,510.058,672.385,535.231C673.133,560.404,668.666,590.01,657.253,615.333C645.84,640.657,627.181,667.648,603.906,687.172C580.631,706.697,549.556,724.27,517.602,732.48C485.648,740.689,447.133,743.251,412.182,736.428C377.232,729.606,344.673,734.99,307.9,691.543C271.127,648.095,207.315,534.378,191.544,475.744C175.773,417.11,195.987,382.501,213.276,339.737C230.564,296.973,232.677,254.996,295.276,219.158C357.875,183.32,491.963,110.258,588.87,124.707C685.777,139.157,820.222,214.281,876.718,305.855C933.215,397.429,1046.348,603.762,927.849,674.152C809.35,744.541,300.408,746.483,165.724,728.192C31.04,709.9,123.024,618.345,119.744,564.402C116.464,510.459,127.167,452.347,146.042,404.536C164.917,356.724,174.707,313.187,232.992,277.535C291.277,241.882,431.631,197.778,495.752,190.621C559.874,183.464,583.086,212.915,617.722,234.594C652.358,256.273,682.921,288.517,703.57,320.695C724.219,352.873,737.068,392.345,741.615,427.663C746.162,462.982,741.113,501.25,730.854,532.606C720.594,563.962,701.047,593.835,680.057,615.799C659.068,637.762,630.926,654.635,604.917,664.386C578.908,674.136,549.076,676.678,524.004,674.303C498.932,671.928,473.727,662.001,454.485,650.134C435.242,638.268,419.084,620.164,408.551,603.104C398.017,586.043,392.653,565.242,391.282,547.772C389.912,530.303,394.319,512.074,400.33,498.286C406.341,484.499,417.279,472.668,427.351,465.05C437.423,457.431,450.475,453.592,460.763,452.574C471.051,451.556,481.874,454.882,489.078,458.94C496.283,462.998,501.759,470.676,503.991,476.921C506.223,483.166,505.24,491.31,502.468,496.411C499.697,501.512,487.051,507.005,487.362,507.527C487.672,508.048,498.526,499.546,504.332,499.539C510.137,499.532,517.766,502.548,522.194,507.485C526.622,512.422,530.763,520.894,530.899,529.162C531.035,537.43,528.805,548.531,523.008,557.091C517.212,565.652,507.62,575.299,496.123,580.526C484.626,585.752,469.014,589.733,454.028,588.451C439.042,587.169,420.915,582.359,406.207,572.833C391.5,563.307,375.766,548.681,365.783,531.292C355.801,513.904,347.58,491.073,346.313,468.501C345.045,445.93,348.324,419.04,358.179,395.864C368.034,372.688,384.479,347.668,405.442,329.445C426.405,311.221,454.646,294.515,483.956,286.523C513.266,278.53,548.843,275.573,581.3,281.489C613.757,287.405,649.81,301.196,678.698,322.018C707.585,342.841,736.17,372.941,754.626,406.424C773.083,439.908,786.874,482.141,789.436,522.922C791.998,563.703,878.216,624.062,769.998,651.111C661.78,678.159,255.691,707.283,140.127,685.211C24.562,663.14,69.248,605.752,76.609,518.681C83.97,431.61,75.706,229.165,184.294,162.787C292.881,96.409,609.002,75.437,728.135,120.412C847.268,165.387,875.062,352.598,899.092,432.636C923.121,512.673,891.904,550.271,872.31,600.636C852.716,651.001,818.676,699.301,781.525,734.826C744.375,770.351,717.264,805.795,649.408,813.785C581.552,821.775,435.623,803.098,374.391,782.765C313.159,762.431,304.402,725.97,282.016,691.786C259.631,657.602,245.365,615.527,240.077,577.661C234.789,539.795,239.637,498.569,250.287,464.589C260.937,430.609,281.537,397.965,303.977,373.78C326.416,349.595,356.671,330.643,384.925,319.479C413.18,308.315,445.8,304.767,473.502,306.795C501.205,308.823,529.363,318.999,551.14,331.648C572.917,344.297,591.655,363.861,604.166,382.691C616.676,401.52,623.775,424.725,626.203,444.627C628.631,464.53,624.798,485.667,618.732,502.107C612.666,518.547,601.035,533.259,589.806,543.266C578.577,553.272,563.692,559.44,551.356,562.145C539.02,564.849,525.56,562.874,515.79,559.494C506.02,556.113,497.582,548.563,492.737,541.862C487.892,535.162,486.131,525.897,486.717,519.291C487.304,512.685,491.604,505.7,496.256,502.227C500.908,498.754,514.692,499.056,514.628,498.453C514.564,497.849,501.149,501.029,495.873,498.606C490.598,496.183,484.931,490.252,482.975,483.915C481.02,477.577,480.804,468.149,484.14,460.584C487.477,453.018,494.148,443.869,502.994,438.52C511.841,433.17,524.59,428.422,537.219,428.487C549.848,428.551,565.694,431.469,578.768,438.904C591.842,446.34,606.293,458.294,615.664,473.101C625.035,487.908,633.205,507.775,634.995,527.745C636.784,547.716,634.696,571.892,626.402,592.922C618.108,613.953,603.877,637.003,585.228,653.928C566.579,670.853,541.172,686.695,514.507,694.473C487.842,702.252,455.201,705.607,425.237,700.6C395.272,695.594,361.722,683.391,334.72,664.436C307.717,645.48,280.744,617.868,263.221,586.868C245.698,555.867,232.332,516.568,229.582,478.434C226.831,440.299,231.979,396.171,246.718,358.06C261.457,319.95,286.549,279.794,318.016,249.77C349.483,219.746,348.02,165.595,435.521,177.917C523.021,190.239,764.88,272.959,843.019,323.704C921.158,374.448,896.131,426.299,904.353,482.383C912.576,538.468,1029.401,645.557,892.353,660.211C755.306,674.865,196.8,638.208,82.07,570.306C-32.661,502.404,135.047,322.434,203.971,252.798C272.895,183.161,424.023,161.307,495.614,152.488C567.205,143.669,594.049,176.009,633.516,199.885C672.982,223.762,708.291,259.558,732.411,295.749C756.532,331.941,772.21,376.621,778.237,417.035C784.263,457.45,779.612,501.633,768.568,538.237C757.525,574.841,735.87,610.255,711.978,636.66C688.085,663.065,655.715,684.092,625.214,696.667C594.713,709.243,559.304,713.794,528.971,712.11C498.638,710.426,467.526,699.998,443.215,686.563C418.903,673.128,397.588,652.103,383.102,631.501C368.617,610.9,359.785,585.29,356.303,562.953C352.82,540.616,356.083,516.57,362.207,497.478C368.331,478.386,380.657,460.793,393.046,448.4C405.435,436.008,422.155,427.512,436.541,423.123C450.927,418.735,467.027,419.361,479.363,422.067C491.698,424.773,503.097,432.2,510.556,439.359C518.014,446.517,522.518,456.906,524.115,465.019C525.712,473.132,523.434,482.284,520.137,488.038C516.84,493.792,510.01,498.337,504.332,499.544C498.654,500.752,486.261,494.709,486.067,495.284C485.872,495.859,499.387,498.585,503.165,502.993C506.942,507.402,509.607,515.16,508.731,521.734C507.855,528.307,504.106,536.961,497.91,542.436C491.713,547.911,481.826,553.429,471.553,554.585C461.279,555.742,447.713,554.718,436.27,549.375C424.827,544.032,411.656,534.751,402.894,522.527C394.131,510.302,386.009,493.398,383.694,476.028C381.379,458.659,382.273,437.196,389.005,418.309C395.736,399.423,407.75,378.339,424.084,362.709C440.417,347.08,462.988,332.1,487.008,324.532C511.029,316.965,540.733,313.209,568.206,317.303C595.679,321.397,626.728,332.009,651.848,349.096C676.968,366.182,702.332,391.305,718.924,419.82C735.517,448.336,748.459,484.702,751.401,520.19C754.343,555.678,750.037,596.964,736.576,632.75C723.116,668.536,699.975,706.46,670.64,734.906C641.305,763.351,601.712,789.322,560.569,803.422C519.425,817.522,469.633,824.512,423.779,819.508C377.924,814.505,327.096,798.752,285.44,773.401C243.785,748.05,200.522,738.502,173.846,667.4C147.169,596.298,119.241,426.305,125.383,346.789C131.525,267.272,106.889,233.433,210.698,190.302C314.506,147.171,636.359,79.688,748.234,88.004C860.11,96.32,895.752,113.463,881.949,240.196C868.145,366.928,728.336,744,665.415,848.397C602.494,952.794,555.566,871.736,504.423,866.579C453.281,861.422,408.722,863.844,358.559,817.456C308.395,771.067,227.774,648.005,203.444,588.248C179.114,528.492,201.14,498.144,212.579,458.916C224.018,419.689,246.732,381.507,272.08,352.883C297.427,324.26,331.915,301.158,364.664,287.175C397.414,273.191,435.613,267.639,468.577,268.982C501.542,270.325,535.606,281.009,562.45,295.232C589.295,309.455,613.187,331.946,629.646,354.321C646.104,376.697,656.665,404.713,661.2,429.486C665.735,454.258,663.039,481.213,656.854,502.958C650.67,524.702,637.644,545.176,624.093,559.953C610.541,574.731,591.983,585.551,575.545,591.622C559.107,597.693,540.367,598.412,525.464,596.378C510.562,594.343,496.202,587.037,486.131,579.417C476.059,571.797,468.815,560.282,465.036,550.659C461.258,541.036,461.515,529.716,463.46,521.679C465.405,513.643,471.303,506.284,476.705,502.438C482.108,498.591,490.212,497.322,495.875,498.601C501.537,499.88,510.264,510.555,510.681,510.114C511.098,509.673,499.964,501.541,498.378,495.957C496.793,490.373,497.619,482.211,501.165,476.607C504.712,471.003,511.738,464.713,519.657,462.333C527.576,459.953,538.865,459.08,548.679,462.329C558.494,465.577,578.544,481.825,578.544,481.825"></path>
      </svg>
      