<?xml version="1.0" encoding="UTF-8" standalone="no"?>
<!-- Created with Inkscape (https://labs.original.art.br/draw) -->

<svg
   id="7id9D"
   version="1.1"
   inkscape:version="1.3.2 (091e20e, 2023-11-25, custom)"
   width="420mm"
   height="297mm"
   viewBox="0 0 undefined undefined"
   sodipodi:docname="uJa0V.svg"
   xml:space="preserve"
   xmlns:inkscape="http://www.inkscape.org/namespaces/inkscape"
   xmlns:sodipodi="http://sodipodi.sourceforge.net/DTD/sodipodi-0.dtd"
   xmlns="http://www.w3.org/2000/svg"
   xmlns:svg="http://www.w3.org/2000/svg"
   xmlns:rdf="http://www.w3.org/1999/02/22-rdf-syntax-ns#"
   xmlns:cc="http://creativecommons.org/ns#"
   xmlns:dc="http://purl.org/dc/elements/1.1/"><defs
   id="defs2" /><sodipodi:namedview
   id="namedview2"
   pagecolor="#ffffff"
   bordercolor="#666666"
   borderopacity="1.0"
   inkscape:showpageshadow="2"
   inkscape:pageopacity="0.0"
   inkscape:pagecheckerboard="0"
   inkscape:deskcolor="#d1d1d1"
   inkscape:zoom="0.6425"
   inkscape:cx="582.87938"
   inkscape:cy="575.09728"
   inkscape:window-width="2560"
   inkscape:window-height="1009"
   inkscape:window-x="-8"
   inkscape:window-y="-8"
   inkscape:window-maximized="1"
   inkscape:current-layer="7id9D"
   inkscape:document-units="mm" /><metadata
   id="metadata3404"><rdf:RDF><cc:Work
       rdf:about=""><dc:format>image/svg+xml</dc:format><dc:type
         rdf:resource="http://purl.org/dc/dcmitype/StillImage" /></cc:Work></rdf:RDF></metadata>
      undefined<path
   fill="none"
   stroke-width="1"
   style="stroke:#0047ab"
   d="m 1259.0619,578.93051 c 0,0 -22.248,162.347 -60.529,227.406 -38.281,65.058 -66.114,137.682 -169.159,162.946 -103.04502,25.26297 -348.01702,18.59397 -449.11002,-11.366 -101.093,-29.96 -134.158,-66.909 -157.45,-168.395 -23.291,-101.487 -13.166,-341.768 17.702,-440.524 30.868,-98.756 48.113,-228.906 167.508,-152.011 119.394,76.895 520.38202,481.2 548.85802,613.38 28.475,132.181 -358.67202,271.13999 -378.00802,179.70197 -19.336,-91.43797 205.772,-698.37997 261.99102,-728.33197 56.22,-29.951 122.27,433.137 75.326,548.624 -46.943,115.488 -361.62102,203.41399 -356.98802,144.303 4.633,-59.112 331.85502,-474.269 384.78602,-498.971 52.931,-24.702 -63.397,317.789 -67.2,350.757 -3.804,32.969 74.513,-165.548 44.381,-152.945 -30.132,12.603 -136.92502,204.199 -225.17302,228.564 -88.248,24.364 -240.867,-18.629 -304.315,-82.378 -63.448,-63.749 -159.676,-252.04 -76.373,-300.119 83.303,-48.079 481.333,-15.439 576.19202,11.643 94.859,27.083 7.697,104.794 -7.039,150.852 -14.736,46.057 -45.768,93.467 -81.376,125.494 -35.60902,32.027 -65.72102,70.543 -132.27302,66.668 -66.552,-3.875 -227.269,-10.413 -267.04,-89.919 -39.77,-79.506 2.615,-312.775 28.414,-387.118 25.799,-74.344 82.413,-51.24 126.379,-58.945 43.966,-7.704 96.003,-2.645 137.417,12.716 41.414,15.361 83.349,45.659 111.06502,79.452 27.717,33.793 81.54,54.277 55.234,123.307 -26.305,69.029 -131.19602,277.446 -213.06702,290.869 -81.871,13.423 -234.671,-154.643 -278.16,-210.331 -43.489,-55.689 1.617,-86.989 17.227,-123.8 15.609,-36.811 2.558,-107.417 76.429,-97.068 73.872,10.348 321.233,98.854 366.79802,159.158 45.565,60.305 -60.04302,162.514 -93.40702,202.669 -33.365,40.155 -70.637,35.313 -106.78,38.261 -36.143,2.949 -75.507,29.71 -110.076,-20.568 -34.57,-50.277 -92.911,-221.047 -97.343,-281.096 -4.431,-60.049 13.053,-75.824 70.756,-79.196 57.703,-3.372 224.654,33.133 275.463,58.964 50.80902,25.83 28.282,63.962 29.391,96.02 1.10802,32.057 -7.744,68.496 -22.741,96.324 -14.997,27.827 -40.648,54.424 -67.239,70.642 -26.591,16.217 -50.554,36.971 -92.308,26.661 -41.754,-10.31 -127.838,-59.013 -158.215,-88.523 -30.377,-29.509 -23.963,-59.251 -24.047,-88.537 -0.084,-29.286 9.07,-62.253 23.541,-87.177 14.472,-24.924 38.621,-48.381 63.288,-62.367 24.666,-13.987 47.099,-32.108 84.711,-21.549 37.611,10.558 118.242,44.266 140.959,84.9 22.717,40.634 5.937,123.355 -4.659,158.904 -10.595,35.549 -24.02,46.471 -58.913,54.391 -34.893,7.92 -116.95,3.703 -150.444,-6.87 -33.495,-10.574 -39.64,-34.991 -50.521,-56.573 -10.881,-21.583 -25.259,-41.474 -14.765,-72.922 10.495,-31.448 53.295,-94.346 77.733,-115.764 24.439,-21.418 46.658,-14.503 68.898,-12.744 22.241,1.759 46.618,10.817 64.546,23.298 17.929,12.482 34.046,32.189 43.023,51.592 8.978,19.404 31.128,35.935 10.844,64.832 -20.285,28.897 -101.184,94.176 -132.55,108.549 -31.366,14.373 -40.395,-10.89 -55.647,-22.313 -15.252,-11.423 -28.654,-29.092 -35.866,-46.227 -7.213,-17.134 -9.781,-38.611 -7.41,-56.581 2.37,-17.97 10.793,-37.297 21.633,-51.241 10.839,-13.943 27.436,-26.037 43.404,-32.42 15.968,-6.383 35.858,-8.37 52.403,-5.879 16.545,2.492 34.212,10.609 46.867,20.829 12.656,10.22 23.477,25.711 29.066,40.492 5.59,14.78 7.043,33.072 4.471,48.193 -2.571,15.12 -10.336,31.14 -19.901,42.529 -9.566,11.389 -23.917,20.973 -37.491,25.805 -13.574,4.832 -30.256,5.799 -43.953,3.188 -13.697,-2.611 -28.086,-9.976 -38.23,-18.852 -10.145,-8.876 -18.526,-22.055 -22.638,-34.403 -4.111,-12.348 -4.639,-27.411 -2.031,-39.688 2.608,-12.276 9.529,-25.048 17.681,-33.971 8.152,-8.923 20.127,-16.14 31.232,-19.567 11.105,-3.428 24.539,-3.565 35.399,-1 10.859,2.565 22.03,8.995 29.756,16.389 7.725,7.395 13.813,18.134 16.595,27.979 2.781,9.844 2.575,21.643 0.095,31.089 -2.481,9.445 -8.375,19.035 -14.979,25.586 -6.604,6.552 -16.078,11.55 -24.646,13.723 -8.568,2.174 -18.723,1.672 -26.761,-0.683 -8.037,-2.356 -16.062,-7.669 -21.465,-13.45 -5.404,-5.78 -9.351,-13.959 -10.954,-21.235 -1.603,-7.275 -0.855,-15.782 1.335,-22.418 2.19,-6.635 6.878,-13.115 11.803,-17.396 4.926,-4.28 11.782,-7.215 17.75,-8.287 5.969,-1.071 12.822,-0.124 18.063,1.86 5.24,1.983 10.196,6.002 13.38,10.04 3.184,4.039 5.147,9.544 5.725,14.192 0.578,4.648 -0.519,9.844 -2.256,13.697 -1.737,3.853 -5.043,7.306 -8.164,9.421 -3.121,2.115 -7.248,3.146 -10.563,3.27 -3.314,0.124 -6.851,-1.075 -9.325,-2.525 -2.474,-1.45 -4.445,-4 -5.519,-6.173 -1.074,-2.173 -1.214,-4.897 -0.924,-6.866 0.291,-1.97 1.544,-3.845 2.667,-4.949 1.123,-1.105 2.874,-1.619 4.07,-1.68 1.196,-0.061 2.491,0.648 3.104,1.314 0.612,0.665 0.16,2.562 0.572,2.68 0.411,0.117 1.027,-1.733 1.899,-1.976 0.871,-0.242 2.346,-0.162 3.33,0.521 0.983,0.682 2.201,2.043 2.572,3.573 0.372,1.531 0.447,3.785 -0.344,5.611 -0.792,1.827 -2.347,4.067 -4.406,5.347 -2.058,1.28 -5.078,2.408 -7.945,2.334 -2.866,-0.073 -6.503,-0.918 -9.254,-2.772 -2.751,-1.853 -5.714,-4.906 -7.25,-8.349 -1.537,-3.443 -2.525,-8.12 -1.969,-12.309 0.557,-4.19 2.364,-9.183 5.307,-12.827 2.942,-3.645 7.513,-7.287 12.348,-9.039 4.836,-1.752 11.165,-2.553 16.664,-1.475 5.498,1.078 11.82,3.888 16.327,7.946 4.506,4.057 8.783,10.166 10.711,16.401 1.927,6.234 2.493,14.212 0.854,21.005 -1.639,6.793 -5.489,14.415 -10.688,19.751 -5.198,5.336 -12.865,10.204 -20.505,12.266 -7.639,2.062 -17.259,2.345 -25.331,0.107 -8.071,-2.237 -16.964,-7.167 -23.097,-13.531 -6.134,-6.365 -11.547,-15.608 -13.703,-24.657 -2.156,-9.05 -2.107,-20.305 0.766,-29.639 2.874,-9.334 8.921,-19.467 16.476,-26.364 7.555,-6.898 18.391,-12.812 28.854,-15.021 10.464,-2.208 23.347,-1.78 33.926,1.767 10.579,3.548 21.921,10.749 29.549,19.518 7.627,8.768 13.996,21.214 16.217,33.095 2.22,11.88 1.365,26.381 -2.893,38.188 -4.258,11.806 -12.65,24.325 -22.655,32.649 -10.006,8.324 -24.077,15.101 -37.377,17.292 -13.3,2.192 -29.409,0.862 -42.423,-4.143 -13.015,-5.005 -26.679,-14.624 -35.664,-25.888 -8.985,-11.264 -16.124,-26.974 -18.245,-41.695 -2.121,-14.721 -0.27,-32.428 5.519,-46.631 5.789,-14.203 16.669,-28.978 29.213,-38.589 12.544,-9.611 29.907,-17.066 46.049,-19.075 16.143,-2.009 35.434,0.411 50.805,7.019 15.372,6.608 31.224,18.785 41.424,32.629 10.201,13.844 17.925,32.872 19.781,50.436 1.857,17.563 -1.179,38.426 -8.642,54.944 -7.462,16.519 -20.97,33.412 -36.134,44.167 -15.164,10.754 -35.868,18.699 -54.851,20.362 -18.983,1.662 -41.404,-2.036 -59.047,-10.388 -17.644,-8.352 -35.542,-23.222 -46.814,-39.726 -11.272,-16.503 -19.391,-38.894 -20.818,-59.294 -1.427,-20.401 2.979,-44.363 12.255,-63.109 9.277,-18.746 25.542,-37.614 43.403,-49.366 17.86,-11.752 33.31,-27.856 63.762,-21.146 30.451,6.71 95.563,39.796 118.946,61.405 23.382,21.609 20.516,45.025 21.349,68.251 0.832,23.225 -5.127,50.221 -16.353,71.1 -11.226,20.879 -30.374,41.572 -51.001,54.172 -20.626,12.599 -48.128,20.95 -72.758,21.424 -24.631,0.474 -53.118,-6.331 -75.026,-18.581 -21.907,-12.25 -43.456,-32.886 -56.422,-54.919 -12.965,-22.033 -21.297,-51.252 -21.371,-77.282 -0.075,-26.03 7.62,-55.988 20.927,-78.899 13.307,-22.911 35.458,-45.276 58.913,-58.569 23.456,-13.293 44.294,-32.055 81.819,-21.191 37.524,10.864 115.961,57.583 143.33,86.373 27.368,28.79 21.73,57.557 20.881,86.366 -0.848,28.808 -10.456,61.645 -25.971,86.483 -15.516,24.838 -40.782,48.713 -67.122,62.544 -26.34,13.832 -46.695,49.616 -90.92,20.444 -44.226,-29.173 -179.883,-133.049 -174.434,-195.478 5.448,-62.429 156.368,-154.979 207.125,-179.096 50.757,-24.116 69.897,15.34 97.414,34.398 27.516,19.058 53.346,49.191 67.685,79.95 14.34002,30.759 35.59102,58.818 18.35202,104.602 -17.23802,45.784 -65.89902,145.614 -121.78502,170.102 -55.886,24.487 -170.771,32.397 -213.531,-23.178 -42.761,-55.576 -71.125,-244.079 -43.032,-310.275 28.094,-66.195 157.819,-80.279 211.592,-86.898 53.773,-6.619 80.381,23.001 111.046,47.185 30.665,24.183 105.24302,27.717 72.94302,97.918 -32.30002,70.2 -202.71602,278.441 -266.74302,323.285 -64.026,44.845 -83.591,-5.346 -117.415,-54.219 -33.825,-48.872 -80.924,-179.101 -85.53,-239.017 -4.607,-59.917 29.583,-87.794 57.89,-120.48 28.308,-32.687 70.586,-61.543 111.956,-75.639 41.37,-14.095 80.262,-37.178 136.265,-8.935 56.004,28.243 220.65402,90.498 199.75402,178.392 -20.899,87.895 -249.43202,302.399 -325.15102,348.978 -75.719,46.578 -189.427,-12.574 -129.164,-69.506 60.263,-56.933 422.89402,-275.955 490.74402,-272.091 67.85,3.864 4.158,248.197 -83.646,295.274 -87.80402,47.077 -372.64402,65.117 -443.17702,-12.81 -70.534,-77.928 -8.55,-366.072 19.976,-454.753 28.525,-88.682 97.482,-66.039 151.177,-77.338 53.695,-11.299 107.727,-63.154 170.991,9.544 63.263,72.699 190.47202,331.176 208.59102,426.646 18.119,95.47 -56.353,109.068 -99.878,146.176 -43.52502,37.108 -104.51702,66.297 -161.27402,76.472 -56.757,10.175 -112.05,32.299 -179.269,-15.424 -67.219,-47.723 -189.796,-195.206 -224.045,-270.914 -34.249,-75.708 -2.763,-127.757 18.55,-183.333 21.313,-55.576 -2.183,-196.559 109.328,-150.124 111.511,46.434 516.57302,319.479 559.73702,428.733 43.164,109.254 -185.60302,278.74799 -300.75202,226.79 -115.148,-51.959 -346.641,-422.669 -390.139,-538.543 -43.498,-115.875 15.498,-147.185 129.149,-156.704 113.651,-9.519 455.72902,15.737 552.75802,99.588 97.029,83.852 81.453,298.436 29.415,403.52 -52.037,105.085 -249.68202,196.456 -341.64102,226.98797 -91.96,30.53202 -170.355,84.69102 -210.116,-43.79697 -39.762,-128.488 -59.111,-595.253 -28.455,-727.131 30.656,-131.877001 103.388,-124.281999 212.39,-64.135 109.001,60.148 441.32702,280.238 441.62102,425.019 0.295,144.781 -301.94802,407.587 -439.85302,443.66799 -137.905,36.08 -391.561,-79.68899 -387.577,-227.18499 3.983,-147.495 314.4,-686 411.478,-657.788 97.079,28.212 243.44202,759.297 170.994,827.06 -72.448,67.76299 -517.579,-316.5 -605.681,-420.482 -88.10299,-103.983 0.86,-141.467 77.068,-203.414 76.208,-61.948 283.783,-153.309 380.181,-168.272 96.399,-14.963 244.80802,-40.846 198.21002,78.495 -46.598,119.342 -374.50202,591.948 -477.79802,637.554 -103.296,45.606 -158.926,-253.574 -141.978,-363.919 16.947,-110.344 133.764,-346.669 243.662,-298.148 109.898,48.521 372.75102,473.428 415.72602,589.274 42.974,115.847 -100.19102,86.228 -157.87802,105.804 -57.688,19.577 -221.889,85.01599 -188.247,11.654 33.643,-73.362 338.81002,-431.09 390.10302,-451.828 51.294,-20.738 -43.787,258.275 -82.34,327.402 -38.552,69.127 -95.60402,72.752 -148.97602,87.362 -53.372,14.611 -118.25,14.482 -171.256,0.301 -53.007,-14.18 -108.861,-18.919 -146.783,-85.384 -37.922,-66.465 -132.592,-225.201 -80.751,-313.405 51.841,-88.205 303.7,-194.049 391.795,-215.821 88.096,-21.772 102.717,21.096 136.77802,85.187 34.06,64.09 70.471,227.494 67.586,299.358 -2.885,71.864 -0.903,113.713 -84.896,131.827 -83.99402,18.115 -338.16402,3.327 -419.06602,-23.14 -80.902,-26.467 -57.126,-88.19 -66.346,-135.661 -9.22,-47.47 -26.921,-93.556 11.028,-149.162 37.949,-55.607 156.445,-155.884 216.665,-184.479 60.22,-28.595 91.241,-24.741 144.658,12.907 53.416,37.648 148.97602,154.129 175.84002,212.981 26.864,58.852 22.634,88.884 -14.657,140.131 -37.292,51.246 -133.69402,155.766 -209.09202,167.35 -75.397,11.584 -194.194,-60.969 -243.294,-97.848 -49.1,-36.88 -79.166,-55.882 -51.303,-123.429 27.862,-67.548 160.99,-238.067 218.477,-281.855 57.487,-43.788 88.97,2.707 126.446,19.126 37.475,16.419 77.996,26.375 98.40602,79.39 20.41,53.014 51.969,176.42 24.053,238.696 -27.91702,62.276 -140.08402,116.042 -191.55402,134.96 -51.469,18.918 -82.831,-5.089 -117.263,-21.455 -34.432,-16.365 -102.129,-6.884 -89.329,-76.737 12.799,-69.853 107.012,-301.466 166.127,-342.381 59.114,-40.915 151.81,63.607 188.558,96.889 36.74802,33.281 30.60202,68.424 31.92902,102.801 1.326,34.376 -7.993,73.519 -23.97202,103.458 -15.979,29.94 -26.92,62.728 -71.902,76.181 -44.982,13.453 -153.002,15.46 -197.989,4.538 -44.986,-10.921 -59.715,-26.779 -71.931,-70.068 -12.216,-43.288 -12.491,-146.76 -1.365,-189.663 11.127,-42.903 41.504,-52.501 68.126,-67.753 26.621,-15.252 50.782,-35.03 91.605,-23.757 40.823,11.273 124.232,61.538 153.332,91.397 29.1,29.859 21.974,58.948 21.266,87.76 -0.708,28.812 3.369,57.842 -25.513,85.112 -28.883,27.271 -109.727,69.689 -147.783,78.511 -38.057,8.822 -57.852,-11.036 -80.555,-25.576 -22.704,-14.54 -43.616,-38.068 -55.667,-61.664 -12.05,-23.596 -18.117,-53.926 -16.638,-79.914 1.479,-25.988 -1.277,-52.296 25.512,-76.015 26.789,-23.719 100.77,-59.468 135.223,-66.298 34.453,-6.83 51.58,11.626 71.496,25.32 19.916,13.694 37.92,35.391 48.003,56.846 10.082,21.454 14.576,48.733 12.491,71.879 -2.085,23.146 -11.787,48.45 -25.002,66.999 -13.215,18.549 -33.941,35.146 -54.289,44.295 -20.348,9.15 -46.077,12.926 -67.798,10.6 -21.721,-2.326 -45.327,-11.858 -62.528,-24.557 -17.2,-12.699 -32.423,-32.417 -40.674,-51.636 -8.251,-19.22 -11.357,-43.385 -8.831,-63.678 2.526,-20.294 11.841,-42.214 23.987,-58.085 12.147,-15.871 30.822,-29.753 48.891,-37.141 18.068,-7.388 40.655,-9.87 59.521,-7.185 18.866,2.684 39.111,11.735 53.673,23.292 14.561,11.558 27.137,29.156 33.697,46.053 6.56,16.897 8.465,37.893 5.664,55.331 -2.802,17.437 -11.541,36.021 -22.475,49.294 -10.933,13.273 -27.419,24.577 -43.124,30.346 -15.706,5.769 -35.1,7.144 -51.11,4.266 -16.011,-2.877 -32.946,-11.259 -44.953,-21.533 -12.006,-10.273 -22.074,-25.614 -27.088,-40.109 -5.013,-14.495 -5.906,-32.275 -2.994,-46.86 2.913,-14.585 10.89,-29.888 20.47,-40.65 9.579,-10.763 23.743,-19.63 37.008,-23.926 13.266,-4.295 29.424,-4.753 42.586,-1.847 13.162,2.906 26.847,10.433 36.389,19.285 9.541,8.851 17.245,21.805 20.86,33.824 3.614,12.019 3.685,26.545 0.827,38.289 -2.859,11.743 -9.89,23.827 -17.98,32.171 -8.09,8.344 -19.804,14.923 -30.559,17.894 -10.755,2.971 -23.643,2.704 -33.971,-0.067 -10.329,-2.77 -20.831,-9.261 -28.002,-16.556 -7.172,-7.295 -12.663,-17.74 -15.029,-27.215 -2.365,-9.475 -1.807,-20.717 0.835,-29.637 2.641,-8.919 8.545,-17.857 15.013,-23.881 6.468,-6.025 15.614,-10.467 23.795,-12.265 8.18,-1.799 17.771,-0.998 25.288,1.474 7.517,2.471 14.91,7.746 19.813,13.355 4.903,5.609 8.336,13.428 9.606,20.299 1.27,6.871 0.275,14.807 -1.987,20.928 -2.261,6.122 -6.862,11.991 -11.58,15.8 -4.719,3.808 -11.184,6.272 -16.732,7.053 -5.549,0.78 -11.826,-0.362 -16.56,-2.373 -4.734,-2.01 -9.101,-5.894 -11.843,-9.692 -2.741,-3.798 -4.277,-8.881 -4.606,-13.095 -0.33,-4.213 0.91,-8.83 2.63,-12.185 1.72,-3.355 4.843,-6.243 7.69,-7.945 2.847,-1.703 6.524,-2.351 9.391,-2.269 2.866,0.082 5.821,1.37 7.807,2.76 1.987,1.389 3.419,3.71 4.111,5.576 0.692,1.867 0.494,4.113 0.041,5.622 -0.454,1.508 -1.743,2.801 -2.762,3.43 -1.019,0.628 -2.496,0.629 -3.353,0.339 -0.857,-0.289 -1.372,-2.17 -1.79,-2.075 -0.417,0.095 -0.068,2.014 -0.716,2.646 -0.647,0.631 -1.979,1.269 -3.17,1.144 -1.19,-0.125 -2.912,-0.733 -3.973,-1.897 -1.062,-1.164 -2.212,-3.104 -2.396,-5.086 -0.184,-1.982 0.103,-4.694 1.293,-6.806 1.189,-2.112 3.296,-4.552 5.845,-5.866 2.548,-1.314 6.144,-2.321 9.447,-2.018 3.303,0.303 7.369,1.555 10.371,3.835 3.003,2.281 6.118,5.907 7.644,9.848 1.526,3.941 2.341,9.188 1.513,13.799 -0.828,4.61 -3.085,10.001 -6.483,13.862 -3.397,3.861 -8.563,7.606 -13.902,9.304 -5.34,1.697 -12.235,2.273 -18.137,0.881 -5.902,-1.392 -12.589,-4.692 -17.276,-9.233 -4.688,-4.54 -9.019,-11.263 -10.848,-18.007 -1.828,-6.745 -2.116,-15.279 -0.122,-22.458 1.993,-7.178 6.376,-15.132 12.083,-20.613 5.707,-5.481 14.007,-10.353 22.161,-12.271 8.153,-1.918 18.32,-1.871 26.758,0.762 8.438,2.632 17.628,8.135 23.869,15.033 6.241,6.899 11.609,16.792 13.576,26.358 1.967,9.566 1.536,21.359 -1.773,31.039 -3.309,9.68 -9.968,20.075 -18.081,27.042 -8.113,6.966 -19.615,12.784 -30.597,14.759 -10.982,1.975 -24.389,1.113 -35.293,-2.909 -10.904,-4.022 -22.472,-11.874 -30.13,-21.224 -7.659,-9.35 -13.88,-22.477 -15.822,-34.877 -1.942,-12.399 -0.601,-27.411 4.171,-39.52 4.772,-12.109 13.852,-24.816 24.461,-33.131 10.609,-8.315 25.374,-14.894 39.192,-16.761 13.818,-1.867 30.424,-0.002 43.717,5.556 13.294,5.558 27.106,15.902 36.043,27.79 8.937,11.889 15.825,28.305 17.577,43.542 1.752,15.238 -0.686,33.424 -7.065,47.882 -6.38,14.457 -18.021,29.341 -31.21,38.863 -13.188,9.522 -31.268,16.674 -47.923,18.269 -16.656,1.595 -36.409,-1.462 -52.009,-8.698 -15.6,-7.236 -31.52,-20.208 -41.591,-34.716 -10.071,-14.509 -17.439,-34.262 -18.836,-52.334 -1.397,-18.072 2.326,-39.379 10.453,-56.099 8.127,-16.72 22.463,-33.64 38.309,-44.223 15.847,-10.584 37.284,-18.119 56.77,-19.277 19.486,-1.158 42.33,3.277 60.147,12.329 17.818,9.053 35.701,24.784 46.759,41.987 11.058,17.202 18.714,40.332 19.592,61.229 0.877,20.897 -4.315,45.261 -14.327,64.152 -10.012,18.891 -27.169,37.699 -45.745,49.195 -18.576,11.496 -43.406,19.224 -65.709,19.78 -22.304,0.556 -48.17,-5.439 -68.11,-16.444 -19.94,-11.005 -39.636,-29.619 -51.531,-49.584 -11.895,-19.965 -19.647,-46.503 -19.84,-70.207 -0.194,-23.704 -5.804,-47.76 18.679,-72.019 24.483,-24.259 94.204,-64.786 128.22,-73.537 34.016,-8.75 53.915,7.946 75.876,21.033 21.961,13.088 43.314,34.703 55.892,57.492 12.578,22.79 20.232,52.758 19.578,79.245 -0.654,26.488 -9.327,56.747 -23.503,79.679 -14.177,22.932 -23.431,49.401 -61.557,57.914 -38.127,8.513 -129.365,5.253 -167.204,-6.835 -37.839,-12.088 -51.522,-25.506 -59.829,-65.693 -8.306,-40.188 -3.325,-135.92 9.989,-175.431 13.315,-39.511 42.771,-48.325 69.898,-61.634 27.127,-13.309 62.265,-20.45 92.865,-18.219 30.6,2.23 65.057,13.975 90.734,31.604 25.677,17.629 49.856,45.572 63.328,74.169 13.473,28.596 20.34602,65.46 17.508,97.411 -2.837,31.95 -15.691,67.759 -34.53,94.293 -18.839,26.534 -48.427,51.314 -78.504,64.91 -30.076,13.596 -54.985,51.716 -101.955,16.667 -46.969,-35.049 -156.669,-172.267 -179.86,-226.962 -23.191,-54.695 19.37,-73.051 40.715,-101.208 21.345,-28.156 54.291,-54.008 87.355,-67.729 33.063,-13.721 75.095,-19.492 111.026,-14.597 35.931,4.895 75.638,21.329 104.559,43.969 28.92,22.639 79.20302,27.645 68.96502,91.867 -10.239,64.222 -88.65502,242.552 -130.39702,293.464 -41.742,50.912 -69.695,35.315 -120.056,12.008 -50.362,-23.306 -159.069,-86.756 -182.113,-151.848 -23.044,-65.092 -2.585,-185.442 43.846,-238.702 46.431,-53.26 176.087,-77.054 234.742,-80.857 58.656,-3.804 94.65,-12.312 117.192,58.037 22.54102,70.348 58.17202,378.274 18.056,364.054 -40.117,-14.22 -261.489,-386.574 -258.756,-449.376 2.734,-62.801 230.046,-8.161 275.15602,72.565 45.11,80.727 44.575,331.309 -4.496,411.793 -49.07002,80.485 -219.34102,72.946 -289.92502,71.113 -70.584,-1.834 -128.856,-86.335 -133.578,-82.113 -4.723,4.221 111.469,106.198 105.244,107.441 -6.224,1.244 -106.607,-56.722 -142.59,-99.978 -35.983,-43.256 -152.29,-172.724 -73.308,-159.559 78.981,13.164 516.476,191.475 547.19702,238.544 30.722,47.07 -270.84902,118.38797 -362.86802,43.874 -92.018,-74.514 -178.39,-383.886 -189.243,-490.958 -10.852,-107.072 9.593,-206.924 124.127,-151.474 114.535,55.451 594.62402,430.363 563.07902,484.176 -31.545,53.814 -658.70002,-73.866 -752.34802,-161.294 -93.649,-87.428 63.204,-325.602 190.456,-363.275 127.252,-37.673 476.42202,43.686 573.05502,137.239 96.634,93.552 67.43,317.217 6.746,424.077 -60.684,106.859 -272.86402,190.617 -370.85002,217.08099 -97.985,26.464 -144.94,14.974 -217.061,-58.29699 -72.121,-73.27 -217.89,-254.439 -215.665,-381.326 2.226,-126.887 153.26,-307.605 229.018,-379.993 75.757,-72.388 128.861,-160.308001 225.53,-54.336 96.669,105.973 429.09102,621.97 354.48302,690.17 -74.607,68.199 -710.49302,-175.596 -802.13002,-280.972 -91.63799,-105.376 125.555,-398.367 252.306,-351.287 126.751,47.081 451.91502,506.408 508.20202,633.77 56.288,127.361 -156.26002,221.48299 -170.47702,130.401 -14.217,-91.082 51.78002,-591.657 85.17702,-676.895 33.397,-85.239 107.726,74.791 115.204,165.464 7.479,90.673 -31.348,297.095 -70.332,378.573 -38.984,81.477 -55.602,163.103 -163.57202,110.292 -107.97,-52.811 -444.712,-311.068 -484.246,-427.159 -39.534,-116.091 174.693,-223.406 247.041,-269.387 72.348,-45.98 128.62,-20.086 187.048,-6.496 58.428,13.59 208.91902,66.871 163.52202,88.037 -45.396,21.167 -386.42802,43.459 -435.90102,38.96 -49.474,-4.498 90.567,-57.137 139.06,-65.951 48.494,-8.814 112.563,-70.626 151.9,13.065 39.338,83.691 92.281,397.864 84.127,489.081 -8.154,91.217 -87.073,51.297 -133.051,58.223 -45.978,6.926 -100.055,0.37 -142.818,-16.667 -42.762,-17.038 -154.297,-75.866 -113.757,-85.558 40.541,-9.693 317.512,15.502 357.001,27.405 39.488,11.904 -79.317,40.397 -120.071,44.015 -40.754,3.618 -87.861,-5.073 -124.454,-22.308 -36.594,-17.235 -108.506,-6.815 -95.108,-81.103 13.398,-74.288 127.043,-307.913 175.496,-364.626 48.452,-56.713 81.661,7.259 115.22,24.346 33.558,17.087 66.027,46.884 86.132,78.174 20.10502,31.291 45.69902,59.252 34.49702,109.571 -11.202,50.318 -67.10102,155.025 -101.70902,192.34 -34.608,37.315 -70.618,30.602 -105.938,31.549 -35.32,0.948 -75.414,-9.086 -105.981,-25.863 -30.566,-16.776 -64.132,-28.393 -77.416,-74.794 -13.284,-46.4 -14.063,-157.481 -2.288,-203.609 11.775,-46.129 28.241,-61.112 72.938,-73.161 44.698,-12.05 151.21,-11.109 195.248,0.864 44.038,11.973 69.594,17.194 68.978,70.975 -0.616,53.78 -30.832,210.829 -72.677,251.708 -41.844,40.879 -138.518,5.762 -178.389,-6.432 -39.871,-12.194 -47.606,-41.126 -60.836,-66.731 -13.23,-25.605 -20.018,-58.58 -18.544,-86.897 1.474,-28.318 12.083,-59.692 27.39,-83.007 15.308,-23.314 26.814,-49.236 64.454,-56.88 37.64,-7.645 125.655,-1.169 161.387,11.012 35.732,12.182 41.81,38.577 53.007,62.076 11.196,23.499 38.737,43.215 14.172,78.92 -24.566,35.704 -123.069,117.218 -161.567,135.307 -38.498,18.09 -50.265,-12.804 -69.419,-26.77 -19.155,-13.965 -36.209,-35.725 -45.508,-57.024 -9.298,-21.298 -12.955,-48.15 -10.285,-70.768 2.671,-22.618 12.866,-47.135 26.311,-64.94 13.444,-17.804 34.19,-33.485 54.354,-41.887 20.165,-8.402 45.447,-11.392 66.634,-8.525 21.187,2.867 44.015,12.839 60.489,25.725 16.474,12.886 30.815,32.583 38.356,51.592 7.54,19.01 9.91,42.709 6.889,62.464 -3.021,19.756 -12.724,40.907 -25.016,56.071 -12.292,15.164 -30.905,28.199 -48.738,34.914 -17.834,6.715 -39.937,8.512 -58.262,5.377 -18.324,-3.134 -37.811,-12.519 -51.687,-24.182 -13.875,-11.663 -25.639,-29.158 -31.565,-45.796 -5.926,-16.637 -7.196,-37.134 -3.99,-54.028 3.206,-16.895 12.228,-34.733 23.227,-47.341 10.998,-12.609 27.343,-23.138 42.765,-28.311 15.423,-5.173 34.302,-5.965 49.769,-2.728 15.467,3.236 31.67,11.848 43.035,22.149 11.364,10.3 20.695,25.461 25.152,39.651 4.458,14.189 4.819,31.442 1.593,45.484 -3.227,14.043 -11.383,28.627 -20.951,38.771 -9.567,10.144 -23.515,18.313 -36.454,22.092 -12.938,3.779 -28.556,3.758 -41.178,0.583 -12.622,-3.175 -25.605,-10.831 -34.552,-19.632 -8.948,-8.801 -15.993,-21.505 -19.132,-33.176 -3.138,-11.672 -2.782,-25.648 0.3,-36.854 3.083,-11.206 10.192,-22.606 18.195,-30.381 8.002,-7.776 19.431,-13.736 29.82,-16.272 10.389,-2.536 22.717,-1.894 32.513,1.056 9.796,2.949 19.632,9.468 26.261,16.639 6.63,7.172 11.544,17.298 13.516,26.389 1.972,9.091 1.091,19.766 -1.685,28.158 -2.775,8.392 -8.66,16.685 -14.968,22.194 -6.309,5.51 -15.104,9.418 -22.884,10.864 -7.779,1.446 -16.797,0.375 -23.793,-2.186 -6.996,-2.561 -13.765,-7.767 -18.182,-13.182 -4.417,-5.414 -7.359,-12.852 -8.318,-19.306 -0.96,-6.455 0.252,-13.813 2.559,-19.421 2.307,-5.609 6.791,-10.877 11.282,-14.228 4.49,-3.352 10.543,-5.368 15.661,-5.881 5.117,-0.512 10.814,0.794 15.043,2.806 4.23,2.012 8.02,5.732 10.335,9.268 2.314,3.536 3.447,8.18 3.551,11.949 0.105,3.769 -1.246,7.803 -2.923,10.664 -1.678,2.861 -4.591,5.198 -7.144,6.504 -2.553,1.306 -5.763,1.597 -8.173,1.333 -2.41,-0.263 -4.781,-1.61 -6.285,-2.914 -1.504,-1.304 -2.411,-3.369 -2.739,-4.909 -0.327,-1.541 0.182,-3.295 0.773,-4.336 0.592,-1.04 1.886,-1.751 2.777,-1.909 0.891,-0.159 2.247,1.243 2.567,0.959 0.321,-0.284 -0.908,-1.799 -0.644,-2.664 0.264,-0.865 1.125,-2.065 2.229,-2.527 1.105,-0.463 2.907,-0.757 4.397,-0.247 1.49,0.51 3.431,1.658 4.545,3.308 1.114,1.649 2.167,4.166 2.139,6.59 -0.028,2.423 -0.702,5.576 -2.305,7.953 -1.603,2.378 -4.273,4.989 -7.315,6.311 -3.042,1.323 -7.209,2.179 -10.938,1.623 -3.729,-0.557 -8.203,-2.239 -11.436,-4.961 -3.233,-2.722 -6.47,-6.931 -7.96,-11.372 -1.49,-4.441 -2.103,-10.253 -0.979,-15.272 1.123,-5.019 3.852,-10.786 7.718,-14.842 3.866,-4.055 9.635,-7.874 15.479,-9.491 5.845,-1.617 13.295,-1.937 19.588,-0.21 6.293,1.728 13.323,5.542 18.168,10.576 4.846,5.035 9.201,12.381 10.904,19.633 1.703,7.253 1.683,16.335 -0.686,23.884 -2.37,7.55 -7.306,15.812 -13.533,21.414 -6.227,5.601 -15.166,10.447 -23.83,12.195 -8.665,1.748 -19.369,1.341 -28.157,-1.708 -8.789,-3.049 -18.252,-9.143 -24.576,-16.586 -6.323,-7.442 -11.614,-17.99 -13.366,-28.069 -1.752,-10.078 -0.91,-22.395 2.855,-32.404 3.765,-10.009 11.054,-20.64 19.734,-27.651 8.681,-7.011 20.852,-12.701 32.346,-14.416 11.495,-1.714 25.413,-0.39 36.624,4.127 11.21,4.517 22.976,13.037 30.639,22.976 7.664,9.939 13.705,23.748 15.342,36.659 1.636,12.912 -0.218,28.42 -5.523,40.811 -5.305,12.391 -15.09,25.258 -26.309,33.538 -11.219,8.28 -26.677,14.627 -41.005,16.144 -14.328,1.517 -31.413,-0.913 -44.964,-7.042 -13.552,-6.128 -27.484,-17.212 -36.345,-29.731 -8.861,-12.518 -15.466,-29.638 -16.822,-45.382 -1.357,-15.744 1.696,-34.391 8.684,-49.081 6.987,-14.69 19.402,-29.652 33.24,-39.058 13.838,-9.405 32.629,-16.22 49.787,-17.375 17.157,-1.154 37.353,2.567 53.159,10.448 15.805,7.88 31.761,21.66 41.674,36.835 9.913,15.175 16.891,35.648 17.803,54.216 0.911,18.569 -3.526,40.297 -12.333,57.195 -8.808,16.898 -23.983,33.811 -40.513,44.194 -16.53,10.383 -38.693,17.476 -58.669,18.103 -19.975,0.627 -43.218,-4.57 -61.185,-14.338 -17.966,-9.769 -35.799,-26.37 -46.614,-44.272 -10.815,-17.902 -17.975,-41.762 -18.277,-63.14 -0.302,-21.378 5.701,-46.119 16.463,-65.129 10.763,-19.01 28.82,-37.723 48.11,-48.933 19.29,-11.209 44.854,-18.387 67.629,-18.323 22.775,0.064 48.993,6.918 69.021,18.707 20.029,11.788 39.584,31.332 51.149,52.024 11.565,20.693 18.712,47.966 18.242,72.131 -0.471,24.166 -8.221,51.842 -21.068,72.863 -12.847,21.02 -33.904,41.377 -56.014,53.258 -22.109,11.882 -51.096,18.951 -76.644,18.033 -25.549,-0.919 -54.663,-9.608 -76.648,-23.545 -21.985,-13.936 -43.103,-36.535 -55.263,-60.075 -12.159,-23.541 -19.101,-54.243 -17.694,-81.167 1.407,-26.924 11.079,-57.453 26.137,-80.375 15.057,-22.923 39.224,-44.761 64.207,-57.159 24.984,-12.397 57.405,-19.163 85.695,-17.227 28.289,1.936 60.211,12.635 84.042,28.843 23.831,16.208 46.349,41.969 58.944,68.407 12.596,26.439 19.136,60.58 16.631,90.225 -2.505,29.645 16.71702,66.05 -31.662,87.647 -48.379,21.596 -208.911,80.099 -258.613,41.931 -49.701,-38.168 -46.562,-215.178 -39.597,-270.939 6.965,-55.761 23.354,-71.782 81.389,-63.628 58.035,8.154 227.531,58.844 266.82002,112.553 39.289,53.709 -10.84902,163.723 -31.08702,209.703 -20.238,45.979 -56.479,53.192 -90.339,66.173 -33.86,12.98 -76.578,17.658 -112.821,11.709 -36.243,-5.949 -75.985,-23.686 -104.636,-47.403 -28.651,-23.716 -54.334,-59.527 -67.269,-94.894 -12.934,-35.368 -53.972,-66.943 -10.337,-117.31 43.636,-50.366 208.31,-163.148 272.153,-184.89 63.843,-21.742 80.905,28.007 110.905,54.44 30.001,26.433 56.38102,65.758 69.09902,104.156 12.717,38.398 15.689,86.208 7.205,126.233 -8.485,40.025 -8.507,82.385 -58.11202,113.918 -49.605,31.532 -168.384,91.977 -239.518,75.276 -71.134,-16.701 -155.478,-123.725 -187.285,-175.483 -31.807,-51.758 -33.655,-80.786 -3.559,-135.065 30.096,-54.279 130.207,-158.584 184.136,-190.61 53.929,-32.025 95.794,-12.905 139.441,-1.543 43.646,11.362 148.57402,-18.693 122.43802,69.716 -26.13602,88.408 -211.43302,396.934 -279.25202,460.735 -67.82,63.801 -95.329,-17.385 -127.666,-77.927 -32.336,-60.542 -91.967,-204.147 -66.353,-285.323 25.615,-81.176 157.267,-169.408 220.042,-201.731 62.774,-32.324 138.036,-92.854 156.605,7.787 18.569,100.641 12.658,514.82 -45.19,596.059 -57.849,81.238 -239.794,-65.06 -301.902,-108.628 -62.107,-43.568 -78.305,-75.972 -70.744,-152.78 7.56,-76.809 70.458,-245.025 116.108,-308.07 45.65,-63.045 102.644,-61.686 157.792,-70.199 55.147,-8.513 109.161,-28.647 173.095,19.121 63.93402,47.768 179.13402,193.393 210.50802,267.49 31.375,74.097 -0.315,123.769 -22.262,177.092 -21.946,53.322 2.362,159.694 -109.415,142.841 -111.77702,-16.853 -472.52302,-172.478 -561.24702,-243.956 -88.723,-71.479 -81.507,-144.695 28.906,-184.916 110.414,-40.22 517.066,-77.512 633.57502,-56.409 116.509,21.104 82.094,95.585 65.481,183.03 -16.613,87.445 -48.513,303.011 -165.159,341.641 -116.64502,38.63 -435.15302,-59.359 -534.71502,-109.862 -99.562,-50.504 -59.482,-127.664 -62.656,-193.158 -3.173,-65.494 -19.925,-131.064 43.614,-199.806 63.539,-68.743 212.133,-243.121 337.621,-212.649 125.488,30.473 354.69902,295.099 415.30702,395.485 60.607,100.386 86.658,207.939 -51.66,206.832 -138.319,-1.107 -721.74102,-107.585 -778.25102,-213.474 -56.51,-105.889 295.432,-427.225 439.19,-421.859 143.759,5.366 364.31502,341.722 423.36202,454.055 59.046,112.333 -28.963,157.275 -69.083,219.943 -40.121,62.668 -104.978,121.968 -171.64,156.064 -66.66202,34.09499 -127.88002,82.64199 -228.33302,48.51099 -100.452,-34.13102 -421.645,-120.00799 -374.383,-253.29799 47.263,-133.289 524.871,-484.902 657.95902,-546.439 133.089,-61.538 111.841,110.598 140.572,177.216 28.731,66.618 40.543,150.937 31.815,222.491 -8.728,71.553 -4.403,145.157 -84.182,206.832 -79.778,61.676 -295.14602,150.278 -394.48802,163.22097 -99.342,12.94402 -146.295,-42.23597 -201.563,-85.55797 -55.268,-43.321 -104.337,-109.522 -130.045,-174.371 -25.708,-64.848 -34.634,-146.215 -24.201,-214.718 10.433,-68.503 -43.395,-182.499 86.799,-196.298 130.193,-13.799 575.79102,60.137 694.36402,113.504 118.572,53.367 57.246,122.149 17.071,206.699 -40.175,84.55 -181.332,248.221 -258.11902,300.603 -76.787,52.38197 -193.68,135.26999 -202.603,13.69 -8.924,-121.58 93.667,-720.823 149.063,-743.169 55.396,-22.346 210.52902,491.407 183.31402,609.094 -27.215,117.687 -247.02802,122.567 -346.60402,97.027 -99.576,-25.539 -302.337,-232.552 -250.853,-250.266 51.484,-17.714 487.347,207.539 559.75702,143.981 72.41,-63.559 -134.39702,-502.429 -125.29802,-525.333 9.099,-22.904 213.55902,301.177 179.89402,387.906 -33.664,86.73 -301.41602,124.634 -381.88102,132.472 -80.464,7.839 -80.885,-29.48 -100.906,-85.442 -20.021,-55.962 -50.013,-185.846 -19.22,-250.332 30.794,-64.486 134.29,-131.835 203.982,-136.584 69.692,-4.748 176.684,51.065 214.17302,108.093 37.489,57.028 60.136,179.359 10.763,234.076 -49.37202,54.716 -242.00902,91.766 -306.99602,94.221 -64.987,2.454 -63.92,-48.066 -82.923,-79.496 -19.004,-31.429 -30.552,-72.822 -31.098,-109.081 -0.546,-36.258 -7.332,-72.582 27.821,-108.47 35.152,-35.889 135.269,-93.779 183.091,-106.861 47.822,-13.083 86.994,-34.16 103.84,28.368 16.845,62.528 29.756,290.018 -2.765,346.798 -32.522,56.78 -149.297,6.866 -192.362,-6.116 -43.065,-12.982 -51.61,-44.167 -66.029,-71.774 -14.419,-27.608 -21.942,-63.226 -20.483,-93.873 1.459,-30.646 -2.222,-61.652 29.237,-90.006 31.459,-28.354 118.693,-71.642 159.516,-80.116 40.824,-8.475 61.515,13.177 85.425,29.269 23.91,16.092 50.577,28.266 58.035,67.282 7.458,39.017 -0.259,129.986 -13.288,166.815 -13.029,36.829 -40.417,42.838 -64.886,54.159 -24.468,11.321 -55.55,16.298 -81.924,13.768 -26.374,-2.531 -55.206,-13.727 -76.321,-28.951 -21.115,-15.223 -40.01,-39.016 -50.366,-62.389 -10.356,-23.374 -14.577,-52.91 -11.772,-77.853 2.805,-24.943 13.868,-52.061 28.602,-71.805 14.733,-19.744 37.541,-37.233 59.797,-46.659 22.256,-9.426 50.231,-12.936 73.741,-9.898 23.509,3.038 48.924,13.92 67.317,28.126 18.393,14.206 34.508,35.994 43.039,57.111 8.531,21.117 11.377,47.516 8.147,69.591 -3.229,22.075 -13.883,45.798 -27.526,62.859 -13.642,17.062 -34.374,31.837 -54.331,39.509 -19.956,7.671 -44.767,9.901 -65.407,6.521 -20.641,-3.38 -42.684,-13.758 -58.435,-26.801 -15.75,-13.044 -29.221,-32.686 -36.069,-51.461 -6.848,-18.776 -8.508,-41.987 -5.019,-61.193 3.489,-19.206 13.544,-39.584 25.953,-54.045 12.409,-14.461 30.928,-26.662 48.503,-32.723 17.575,-6.061 39.174,-7.199 56.948,-3.642 17.774,3.556 36.499,13.242 49.694,24.982 13.194,11.74 24.161,29.102 29.471,45.458 5.311,16.356 5.975,36.334 2.392,52.678 -3.583,16.343 -12.854,33.433 -23.891,45.383 -11.036,11.95 -27.21,21.721 -42.329,26.318 -15.118,4.597 -33.466,4.835 -48.383,1.266 -14.917,-3.569 -30.387,-12.378 -41.117,-22.677 -10.73,-10.3 -19.34,-25.255 -23.262,-39.119 -3.921,-13.864 -3.78,-30.574 -0.267,-44.068 3.513,-13.494 11.816,-27.363 21.345,-36.896 9.529,-9.534 23.234,-17.023 35.828,-20.307 12.594,-3.284 27.659,-2.812 39.735,0.604 12.077,3.417 24.362,11.169 32.725,19.894 8.363,8.726 14.769,21.153 17.453,32.461 2.684,11.308 1.93,24.722 -1.349,35.387 -3.279,10.665 -10.436,21.386 -18.326,28.604 -7.891,7.218 -19.01,12.581 -29.017,14.703 -10.008,2.123 -21.766,1.136 -31.027,-1.966 -9.261,-3.101 -18.438,-9.618 -24.537,-16.642 -6.1,-7.024 -10.459,-16.808 -12.059,-25.501 -1.601,-8.693 -0.428,-18.793 2.456,-26.657 2.883,-7.864 8.716,-15.519 14.843,-20.527 6.126,-5.008 14.549,-8.404 21.915,-9.521 7.365,-1.117 15.804,0.193 22.279,2.818 6.476,2.625 12.631,7.732 16.576,12.931 3.944,5.198 6.418,12.233 7.092,18.26 0.673,6.026 -0.727,12.802 -3.053,17.899 -2.326,5.097 -6.665,9.776 -10.906,12.685 -4.241,2.91 -9.864,4.503 -14.54,4.772 -4.676,0.269 -9.788,-1.171 -13.517,-3.159 -3.729,-1.988 -6.955,-5.516 -8.859,-8.77 -1.903,-3.255 -2.658,-7.441 -2.562,-10.757 0.095,-3.316 1.527,-6.764 3.137,-9.137 1.611,-2.373 4.286,-4.171 6.526,-5.098 2.239,-0.928 4.966,-0.887 6.912,-0.466 1.946,0.42 3.733,1.795 4.761,2.988 1.028,1.194 1.425,2.976 1.407,4.173 -0.019,1.197 -0.812,2.443 -1.517,3.01 -0.705,0.567 -2.568,-0.01 -2.712,0.393 -0.145,0.403 1.661,1.14 1.845,2.026 0.184,0.885 0.006,2.351 -0.74,3.288 -0.746,0.936 -2.184,2.061 -3.736,2.33 -1.552,0.269 -3.806,0.195 -5.576,-0.716 -1.77,-0.911 -3.902,-2.611 -5.043,-4.75 -1.141,-2.139 -2.066,-5.227 -1.803,-8.083 0.263,-2.855 1.348,-6.428 3.38,-9.05 2.032,-2.622 5.274,-5.376 8.811,-6.681 3.538,-1.304 8.27,-1.98 12.413,-1.148 4.143,0.833 9.006,2.968 12.447,6.146 3.441,3.177 6.773,7.979 8.2,12.92 1.428,4.941 1.808,11.31 0.367,16.725 -1.44,5.415 -4.662,11.537 -9.01,15.764 -4.348,4.227 -10.727,8.09 -17.075,9.6 -6.349,1.51 -14.347,1.546 -21.016,-0.54 -6.669,-2.085 -14.019,-6.432 -18.999,-11.974 -4.98,-5.541 -9.329,-13.513 -10.88,-21.273 -1.551,-7.759 -1.195,-17.377 1.573,-25.282 2.767,-7.905 8.275,-16.452 15.033,-22.15 6.757,-5.698 16.339,-10.486 25.511,-12.038 9.172,-1.551 20.4,-0.756 29.523,2.73 9.122,3.486 18.832,10.192 25.214,18.187 6.381,7.996 11.564,19.2 13.074,29.787 1.51,10.587 0.229,23.413 -4.012,33.733 -4.241,10.321 -12.178,21.161 -21.433,28.191 -9.256,7.029 -22.096,12.559 -34.098,13.987 -12.001,1.428 -26.414,-0.387 -37.912,-5.418 -11.498,-5.031 -23.434,-14.235 -31.076,-24.77 -7.642,-10.535 -13.471,-25.025 -14.776,-38.441 -1.305,-13.416 1.09,-29.401 6.947,-42.056 5.857,-12.654 16.361,-25.65 28.195,-33.868 11.835,-8.218 27.984,-14.301 42.813,-15.441 14.83,-1.141 32.374,1.88 46.162,8.598 13.789,6.718 27.81,18.554 36.568,31.708 8.758,13.153 15.045,30.972 15.98,47.212 0.935,16.24 -2.759,35.328 -10.371,50.228 -7.613,14.9 -20.814,29.909 -35.304,39.17 -14.49,9.26 -33.988,15.705 -51.636,16.393 -17.648,0.688 -38.264,-3.724 -54.251,-12.265 -15.988,-8.541 -31.948,-23.139 -41.674,-38.983 -9.725,-15.844 -16.28,-37.029 -16.68,-56.081 -0.401,-19.051 4.775,-41.177 14.279,-58.228 9.503,-17.051 25.528,-33.925 42.742,-44.078 17.214,-10.153 40.094,-16.769 60.544,-16.84 20.45,-0.071 44.068,5.913 62.157,16.412 18.09,10.499 35.838,27.979 46.38,46.579 10.542,18.601 17.171,43.181 16.873,65.024 -0.298,21.843 -7.137,46.933 -18.663,66.035 -11.526,19.103 -30.491,37.686 -50.493,48.578 -20.001,10.893 -46.286,17.487 -69.516,16.778 -23.229,-0.709 -49.771,-8.446 -69.86,-21.031 -20.088,-12.585 -39.467,-33.063 -50.671,-54.48 -11.204,-21.416 -17.713,-49.41 -16.553,-74.018 1.16,-24.608 9.838,-52.581 23.514,-73.629 13.675,-21.047 35.694,-41.18 58.538,-52.657 22.845,-11.476 52.551,-17.853 78.529,-16.201 25.978,1.652 55.359,11.316 77.338,26.112 21.979,14.797 42.826,38.382 54.535,62.667 11.709,24.285 43.641,43.803 15.72,83.043 -27.921,39.24 -128.95,144.127 -183.245,152.398 -54.296,8.272 -116.379,-70.294 -142.529,-102.768 -26.149,-32.474 -17.739,-62.048 -14.37,-92.076 3.368,-30.027 16.245,-63.492 34.582,-88.09 18.338,-24.598 31.514,-53.603 75.443,-59.498 43.928,-5.896 144.534,-10.049 188.127,24.125 43.593,34.173 67.988,134.943 73.43002,180.915 5.441,45.973 -2.342,66.831 -40.78002,94.919 -38.438,28.089 -131.266,83.477 -189.85,73.614 -58.584,-9.864 -133.025,-92.317 -161.654,-132.794 -28.629,-40.478 -16.335,-74.818 -10.121,-110.072 6.214,-35.254 23.954,-73.794 47.404,-101.454 23.451,-27.659 41.227,-60.776 93.301,-64.503 52.074,-3.728 171.711,18.798 219.144,42.137 47.43402,23.338 53.34502,61.748 65.45802,97.896 12.114,36.147 15.092,81.213 7.222,118.99 -7.871,37.778 -7.71,77.75 -54.44302,107.674 -46.734,29.924 -187.028,138.945 -225.96,71.87 -38.931,-67.075 -59.111,-448.119 -7.63,-474.318 51.481,-26.199 339.40502,245.696 316.51502,317.125 -22.89,71.428 -402.39602,170.285 -453.85302,111.446 -51.457,-58.839 74.908,-401.919 145.114,-464.48 70.206,-62.561 220.245,25.968 276.12202,89.113 55.877,63.144 113.503,210.567 59.139,289.754 -54.363,79.187 -287.85902,193.955 -385.32102,185.365 -97.462,-8.59 -209.759,-136.912 -199.452,-236.904 10.308,-99.992 156.317,-348.17 261.298,-363.051 104.981,-14.881 328.06902,176.906 368.58802,273.765 40.519,96.86 -77.733,245.086 -125.475,307.392 -47.74202,62.306 -81.94902,77.597 -160.97402,66.445 -79.026,-11.152 -254.593,-53.824 -313.178,-133.357 -58.586,-79.532 -50.974,-263.043 -38.337,-343.84 12.637,-80.798 36.346,-111.791 114.158,-140.946 77.812,-29.155 270.169,-48.159 352.712,-33.983 82.54302,14.176 112.16102,99.095 142.54702,119.04 30.386,19.946 23.506,-32.167 39.769,0.633 16.263,32.801 80.478,105.348 57.808,196.171 -22.669,90.823 -94.089,290.207 -193.823,348.769 -99.73402,58.561 -434.02002,92.64499 -404.58202,2.599 29.437,-90.046 476.02102,-488.425 581.20802,-542.875 105.188,-54.45 80.299,119.333 49.914,216.174 -30.386,96.841 -156.667,296.126 -232.227,364.872 -75.56002,68.74499 -122.88302,80.03899 -221.13402,47.60199 -98.252,-32.43799 -341.517,-102.23399 -368.376,-242.22799 -26.858,-139.994 73.419,-535.549 207.224,-597.735 133.805,-62.185 630.19202,129.629 595.60602,224.624 -34.585,94.995 -664.99902,324.76 -803.12102,345.345 -138.12299,20.585 -102.23299,-125.755 -25.614,-221.834 76.619,-96.079 392.073,-427.665999 485.325,-354.639 93.253,73.028 128.00502,673.612 74.192,792.805 -53.813,119.19199 -325.473,28.74597 -397.069,-77.648 -71.596,-106.394 -118.642,-463.322 -32.506,-560.716 86.135,-97.395 440.34,-47.875 549.31902,-23.65 108.978,24.226 86.289,107.966 104.55,169.003 18.261,61.037 49.728,234.804 5.015,197.218 -44.713,-37.586 -253.74902,-368.154 -273.29102,-422.731 -19.541,-54.578 116.73502,22.802 156.04202,95.264 39.308,72.463 108.569,244.169 79.805,339.51 -28.765,95.34 -143.90602,236.828 -252.39102,232.533 -108.485,-4.296 -349.761,-163.305 -398.517,-258.305 -48.756,-95.001 63.038,-247.57 105.981,-311.699 42.944,-64.129 154.299,-144.813 151.68,-73.077 -2.62,71.736 -129.326,443.389 -167.395,503.494 -38.07,60.104 -69.5,-73.432 -61.022,-142.867 8.479,-69.435 69.951,-218.584 111.893,-273.742 41.943,-55.158 91.784,-51.155 139.761,-57.207 47.977,-6.052 184.903,-30.855 148.103,20.893 -36.799,51.748 -326.377,280.708 -368.9,289.595 -42.523,8.887 73.708,-189.726 113.762,-236.273 40.053,-46.546 83.873,-40.242 126.559,-43.007 42.685,-2.766 91.718,7.479 129.555,26.413 37.837,18.935 93.46702,15.845 97.46502,87.194 3.998,71.349 -6.527,296.751 -73.47602,340.901 -66.949,44.151 -267.929,-44.012 -328.218,-75.996 -60.288,-31.984 -32.79,-77.326 -33.511,-115.908 -0.722,-38.582 10.569,-82.311 29.181,-115.583 18.612,-33.271 50.038,-64.942 82.491,-84.045 32.453,-19.103 75.036,-30.451 112.229,-30.573 37.193,-0.122 74.531,-6.662 110.928,29.843 36.398,36.506 94.61002,139.945 107.45702,189.19 12.847,49.245 -12.179,75.994 -30.37502,106.28 -18.196,30.287 -48.219,58.693 -78.801,75.44 -30.582,16.747 -70.303,25.999 -104.692,25.043 -34.389,-0.956 -72.827,-12.849 -101.641,-30.778 -28.815,-17.928 -55.63,-47.189 -71.246,-76.794 -15.617,-29.606 -36.334,-56.675 -22.454,-100.839 13.88,-44.164 71.955,-133.455 105.733,-164.143 33.778,-30.687 65.378,-21.851 96.934,-19.983 31.556,1.869 66.488,13.918 92.403,31.195 25.915,17.277 49.634,44.893 63.087,72.468 13.454,27.574 19.895,62.847 17.632,92.978 -2.263,30.131 14.38402,65.936 -31.211,87.808 -45.595,21.873 -192.759,47.48 -242.36,43.429 -49.602,-4.05 -43.826,-42.289 -55.25,-67.733 -11.423,-25.444 -27.089,-49.085 -13.291,-84.929 13.798,-35.845 66.592,-106.565 96.079,-130.138 29.486,-23.574 55.008,-14.503 80.841,-11.304 25.833,3.198 53.839,14.978 74.157,30.495 20.317,15.517 38.217,39.387 47.748,62.607 9.531,23.221 12.867,52.318 9.439,76.714 -3.427,24.396 -15.02,50.695 -30.004,69.66 -14.985,18.964 -37.828,35.49 -59.903,44.128 -22.075,8.638 -49.592,11.314 -72.55,7.699 -22.957,-3.615 -47.561,-14.973 -65.193,-29.389 -17.633,-14.416 -32.819,-36.196 -40.599,-57.106 -7.781,-20.91 -9.843,-46.833 -6.082,-68.352 3.761,-21.519 14.837,-44.441 28.648,-60.762 13.812,-16.32 34.496,-30.203 54.22,-37.161 19.724,-6.959 44.042,-8.456 64.123,-4.59 20.082,3.866 41.336,14.613 56.367,27.785 15.03,13.172 33.818,51.245 33.818,51.245"
   id="path1" /></svg>
